0
SECTION
2
ENTITIES
0
LINE
8
CUT
10
-60
20
-39.8319
11
60
21
-39.8319
0
LINE
8
CUT
10
60
20
-39.8319
11
30
21
39.8319
0
LINE
8
CUT
10
30
20
39.8319
11
-30
21
39.8319
0
LINE
8
CUT
10
-30
20
39.8319
11
-60
21
-39.8319
0
CIRCLE
8
ADAPTER_M6
10
-22
20
-20
40
3.3
0
CIRCLE
8
ADAPTER_M6
10
-22
20
20
40
3.3
0
CIRCLE
8
ADAPTER_M6
10
22
20
-20
40
3.3
0
CIRCLE
8
ADAPTER_M6
10
22
20
20
40
3.3
0
CIRCLE
8
SHELL_M5
10
-10
20
30
40
2.75
0
CIRCLE
8
SHELL_M5
10
10
20
30
40
2.75
0
CIRCLE
8
SHELL_M5
10
-20
20
0
40
2.75
0
CIRCLE
8
SHELL_M5
10
20
20
0
40
2.75
0
CIRCLE
8
SHELL_M5
10
-7.4
20
-30
40
2.75
0
CIRCLE
8
SHELL_M5
10
7.4
20
-30
40
2.75
0
CIRCLE
8
SHOE_M5
10
-36
20
-30
40
2.75
0
CIRCLE
8
SHOE_M5
10
-47.4
20
-30
40
2.75
0
CIRCLE
8
SHOE_M5
10
-38
20
-9
40
2.75
0
CIRCLE
8
SHOE_M5
10
36
20
-30
40
2.75
0
CIRCLE
8
SHOE_M5
10
47.4
20
-30
40
2.75
0
CIRCLE
8
SHOE_M5
10
38
20
-9
40
2.75
0
ENDSEC
0
EOF
