# Blender 5.2.0 LTS
# www.blender.org
o RETAINED__V10__OUTER_HEAD__UNCHANGED
v 101.738564 85.495712 145.605179
v 102.001694 84.846878 145.792175
v 102.121216 84.582146 146.013992
v 101.871178 85.158478 145.652740
v 103.588486 79.878349 142.102829
v 102.221603 84.382317 146.303055
v 102.296013 84.261009 146.639679
v 102.178116 84.914177 148.209686
v 102.016899 85.371605 148.368439
v 101.942284 85.573410 148.396683
v 102.067955 85.233536 148.349121
v 103.585953 81.447960 149.234604
v 103.460785 82.766609 153.754303
v 102.339378 84.226494 147.000931
v 102.348740 84.281120 147.362183
v 102.323463 84.421165 147.698807
v 102.265259 84.637085 147.987869
v 100.678528 87.155937 140.500076
v 101.415588 86.432030 146.013992
v 101.357391 86.647957 146.303055
v 101.332115 86.788002 146.639679
v 101.612900 85.835587 145.652740
v 101.502739 86.154945 145.792175
v 101.341476 86.842628 147.000931
v 101.384842 86.808113 147.362183
v 101.809677 85.910645 148.349121
v 101.679161 86.222244 148.209686
v 101.459251 86.686806 147.698807
v 101.559639 86.486977 147.987869
v 101.888412 85.710411 148.377350
v 100.674362 89.735252 152.219589
v 104.187187 80.106720 142.052780
v 106.817566 84.690285 141.044922
v 105.149719 88.861443 140.126297
v 105.828583 88.353455 145.929291
v 105.886780 88.137535 145.640228
v 105.973930 87.860451 145.418411
v 105.803307 88.493507 146.265915
v 105.812668 88.548134 146.627167
v 106.357330 85.759109 146.665054
v 106.342369 86.863976 145.278976
v 106.592407 86.287643 145.640228
v 106.660568 86.075523 145.931976
v 106.683075 86.107162 145.901306
v 106.477852 85.856140 146.290100
v 106.472885 86.552376 145.418411
v 106.209763 87.201210 145.231415
v 106.084091 87.541084 145.278976
v 105.145554 91.440758 151.845810
v 105.856033 88.513618 146.988419
v 105.930443 88.392311 147.325043
v 106.030830 88.192482 147.614105
v 106.307220 85.791054 147.031281
v 106.330940 85.949791 147.363800
v 106.426880 86.224503 147.639984
v 106.588486 86.596474 147.841003
v 106.539146 86.939041 147.975357
v 106.628777 86.679184 147.861893
v 106.413475 87.278915 148.022919
v 106.280869 87.616150 147.975357
v 106.150352 87.927750 147.835922
v 106.497826 88.058815 152.590622
vn 0.9315 0.3553 -0.0779
vn -0.9315 -0.3554 0.0779
vn -0.9315 -0.3552 0.0778
vn 0.3637 -0.9097 0.2003
vn 0.0003 -0.2149 -0.9766
vn -0.3637 0.9097 -0.2003
vn -0.0003 0.2149 0.9766
vn 0.8709 -0.4647 0.1597
vn -0.1186 0.0944 -0.9884
vn -0.2036 0.3319 -0.9211
vn -0.2747 0.5468 -0.7909
vn -0.3270 0.7243 -0.6070
vn -0.3571 0.8526 -0.3815
vn -0.3629 0.9227 -0.1302
vn -0.3439 0.9300 0.1302
vn -0.3014 0.8738 0.3815
vn -0.2385 0.7580 0.6070
vn -0.1593 0.5908 0.7909
vn -0.0692 0.3832 0.9211
vn 0.0256 0.1495 0.9884
vn 0.1186 -0.0944 0.9884
vn 0.2036 -0.3319 0.9211
vn 0.2747 -0.5468 0.7909
vn 0.3271 -0.7244 0.6069
vn 0.3571 -0.8526 0.3815
vn 0.3629 -0.9227 0.1302
vn 0.3438 -0.9300 -0.1301
vn 0.3014 -0.8738 -0.3815
vn 0.2384 -0.7581 -0.6069
vn 0.1592 -0.5908 -0.7909
vn 0.0691 -0.3832 -0.9211
vn -0.0256 -0.1496 -0.9884
vn 0.9315 0.3552 -0.0779
vn -0.9315 -0.3553 0.0779
vn -0.9315 -0.3554 0.0778
vn -0.9315 -0.3552 0.0779
vn -0.0004 0.2149 0.9766
vn 0.8710 -0.4647 0.1597
vn -0.1187 0.0944 -0.9884
vn -0.1187 0.0945 -0.9884
vn -0.2747 0.5468 -0.7910
vn -0.3270 0.7244 -0.6069
vn -0.3628 0.9227 -0.1301
vn -0.3438 0.9300 0.1301
vn -0.2385 0.7581 0.6069
vn -0.0691 0.3832 0.9211
vn 0.3270 -0.7244 0.6069
vn 0.3571 -0.8526 0.3816
vn 0.3629 -0.9227 0.1301
vn 0.2385 -0.7581 -0.6069
vn 0.0692 -0.3832 -0.9211
vn -0.0256 -0.1494 -0.9884
vn -0.0256 -0.1495 -0.9884
vt 0.000000 0.000000
vt 0.958333 0.609375
vt 0.975259 0.796875
vt 1.000000 0.609375
vt 0.924430 0.609375
vt 0.916667 0.611925
vt 0.916667 0.796875
vt 0.875000 0.622357
vt 0.875000 0.796876
vt 0.833333 0.628821
vt 0.833333 0.796875
vt 0.833334 0.796875
vt 0.791667 0.630876
vt 0.791668 0.796875
vt 0.750000 0.796875
vt 0.750000 0.628382
vt 0.708332 0.796875
vt 0.708333 0.621509
vt 0.666667 0.796875
vt 0.666667 0.610727
vt 0.662633 0.609375
vt 0.625000 0.609375
vt 0.625000 0.796875
vt 0.583333 0.609375
vt 0.583333 0.796875
vt 0.541666 0.609375
vt 0.541666 0.796875
vt 0.500000 0.796876
vt 0.500000 0.609375
vt 0.458333 0.796875
vt 0.458333 0.609375
vt 0.416666 0.796875
vt 0.375000 0.609376
vt 0.375000 0.796876
vt 0.333333 0.609375
vt 0.333333 0.796875
vt 0.291665 0.796875
vt 0.333332 0.796876
vt 0.291667 0.796875
vt 0.250000 0.609375
vt 0.250000 0.796875
vt 0.208333 0.609375
vt 0.208331 0.796875
vt 0.166666 0.796875
vt 0.208333 0.796875
vt 0.125000 0.796875
vt 0.166666 0.609375
vt 0.125000 0.609375
vt 0.083333 0.609375
vt 0.083333 0.796875
vt 0.041666 0.796875
vt 0.041666 0.609375
vt -0.000000 0.609375
vt -0.000000 0.796875
vt 0.016927 0.796875
vt 0.958333 0.796875
vt 1.000000 0.796875
vt 0.833333 0.628821
vt 0.791667 0.796875
vt 0.750001 0.796875
vt 0.708333 0.796875
vt 0.416667 0.609375
vt 0.291667 0.609375
s 0
f 38/1/1 34/1/1 49/1/1
f 4/1/2 1/1/2 18/1/2
f 31/1/3 30/1/3 10/1/3
f 5/1/4 32/1/4 12/1/4
f 18/1/5 33/1/5 32/1/5
f 49/1/6 18/1/6 31/1/6
f 31/1/7 62/1/7 49/1/7
f 53/1/8 12/1/8 40/1/8
f 57/2/9 9/3/9 59/4/9
f 57/2/10 58/5/10 56/6/10
f 8/7/11 55/8/11 17/9/11
f 17/9/12 54/10/12 16/11/12
f 16/12/13 53/13/13 15/14/13
f 14/15/14 53/13/14 40/16/14
f 7/17/15 40/16/15 45/18/15
f 6/19/16 45/18/16 43/20/16
f 43/20/17 44/21/17 42/22/17
f 3/23/18 46/24/18 2/25/18
f 2/25/19 41/26/19 4/27/19
f 41/26/20 1/28/20 4/27/20
f 47/29/21 22/30/21 1/28/21
f 48/31/22 23/32/22 22/30/22
f 23/32/23 36/33/23 19/34/23
f 19/34/24 35/35/24 20/36/24
f 35/35/25 21/37/25 20/38/25
f 21/39/26 39/40/26 24/41/26
f 24/41/27 50/42/27 25/43/27
f 50/42/28 28/44/28 25/45/28
f 29/46/29 51/47/29 52/48/29
f 29/46/30 61/49/30 27/50/30
f 26/51/31 61/49/31 60/52/31
f 59/53/32 10/54/32 30/55/32
f 42/1/1 44/1/1 33/1/1
f 49/1/1 62/1/1 61/1/1
f 62/1/1 58/1/1 57/1/1
f 62/1/1 57/1/1 59/1/1
f 42/1/1 33/1/1 46/1/1
f 33/1/1 34/1/1 47/1/1
f 46/1/1 33/1/1 41/1/1
f 41/1/1 33/1/1 47/1/1
f 62/1/1 59/1/1 60/1/1
f 62/1/1 60/1/1 61/1/1
f 49/1/1 61/1/1 52/1/1
f 48/1/1 47/1/1 34/1/1
f 37/1/1 48/1/1 34/1/1
f 49/1/1 52/1/1 51/1/1
f 49/1/1 51/1/1 50/1/1
f 36/1/1 37/1/1 34/1/1
f 35/1/1 36/1/1 34/1/1
f 49/1/1 50/1/1 39/1/1
f 38/1/33 35/1/33 34/1/33
f 49/1/1 39/1/1 38/1/1
f 26/1/2 30/1/2 31/1/2
f 18/1/34 5/1/34 4/1/34
f 5/1/34 12/1/34 7/1/34
f 3/1/34 5/1/34 6/1/34
f 12/1/34 13/1/34 8/1/34
f 13/1/35 9/1/35 11/1/35
f 13/1/34 11/1/34 8/1/34
f 27/1/34 26/1/34 31/1/34
f 29/1/34 27/1/34 31/1/34
f 12/1/34 8/1/34 17/1/34
f 28/1/34 29/1/34 31/1/34
f 25/1/34 28/1/34 31/1/34
f 12/1/34 17/1/34 16/1/34
f 12/1/34 16/1/34 15/1/34
f 24/1/36 25/1/36 31/1/36
f 21/1/2 24/1/2 31/1/2
f 12/1/34 15/1/34 14/1/34
f 12/1/34 14/1/34 7/1/34
f 21/1/34 31/1/34 18/1/34
f 20/1/34 21/1/34 18/1/34
f 7/1/34 6/1/34 5/1/34
f 19/1/36 20/1/36 18/1/36
f 23/1/2 19/1/2 18/1/2
f 5/1/34 3/1/34 2/1/34
f 5/1/34 2/1/34 4/1/34
f 22/1/34 23/1/34 18/1/34
f 1/1/34 22/1/34 18/1/34
f 10/1/34 9/1/34 13/1/34
f 13/1/34 31/1/34 10/1/34
f 32/1/5 5/1/5 18/1/5
f 18/1/5 34/1/5 33/1/5
f 49/1/6 34/1/6 18/1/6
f 31/1/37 13/1/37 62/1/37
f 13/1/38 12/1/38 55/1/38
f 12/1/8 32/1/8 40/1/8
f 55/1/8 12/1/8 54/1/8
f 32/1/8 33/1/8 45/1/8
f 33/1/8 44/1/8 43/1/8
f 33/1/8 43/1/8 45/1/8
f 62/1/8 13/1/8 55/1/8
f 56/1/38 58/1/38 62/1/38
f 55/1/38 56/1/38 62/1/38
f 32/1/38 45/1/38 40/1/38
f 54/1/38 12/1/38 53/1/38
f 11/56/39 9/3/39 57/2/39
f 9/3/40 10/57/40 59/4/40
f 8/7/10 11/56/10 56/6/10
f 11/56/10 57/2/10 56/6/10
f 8/7/41 56/6/41 55/8/41
f 17/9/42 55/8/42 54/10/42
f 16/12/13 54/58/13 53/13/13
f 14/15/43 15/59/43 53/13/43
f 7/17/44 14/60/44 40/16/44
f 6/19/16 7/61/16 45/18/16
f 42/22/45 3/23/45 43/20/45
f 3/23/45 6/19/45 43/20/45
f 3/23/18 42/22/18 46/24/18
f 2/25/46 46/24/46 41/26/46
f 41/26/20 47/29/20 1/28/20
f 47/29/21 48/31/21 22/30/21
f 48/31/22 37/62/22 23/32/22
f 23/32/23 37/62/23 36/33/23
f 19/34/47 36/33/47 35/35/47
f 35/35/48 38/63/48 21/37/48
f 21/39/49 38/63/49 39/40/49
f 24/41/27 39/40/27 50/42/27
f 50/42/28 51/47/28 28/44/28
f 29/46/50 28/44/50 51/47/50
f 29/46/30 52/48/30 61/49/30
f 26/51/51 27/50/51 61/49/51
f 30/55/52 26/51/52 60/52/52
f 60/52/53 59/53/53 30/55/53
