# Blender 5.2.0 LTS
# www.blender.org
o E4_PROPOSED__R__LOWER__HEAD_flange_broad_base
v 61.537632 55.486160 117.675926
v 65.378616 63.651287 115.605736
v 65.630096 63.391171 115.657379
v 65.941551 63.202728 115.689842
v 66.291763 63.098808 115.700912
v 66.656860 63.086483 115.689842
v 62.820572 58.914673 120.931595
v 62.820572 58.914677 120.931595
v 62.880142 59.281239 122.487900
v 57.172688 66.402550 115.271812
v 65.204247 63.965355 115.538437
v 65.128326 64.667511 115.375961
v 65.118881 64.311966 115.460068
v 65.231949 65.007744 115.291862
v 65.422684 65.309486 115.213486
v 66.008438 65.719276 115.094551
v 65.687531 65.552177 115.146187
v 66.363541 65.799393 115.062088
v 66.728638 65.787071 115.051010
v 59.910614 66.192268 119.328857
v 59.910614 66.192268 119.328850
v 59.970184 66.558838 120.885162
v 65.587112 64.934258 121.052811
v 65.412743 65.248329 120.985512
v 65.327377 65.594933 120.907135
v 65.838593 64.674141 121.104446
v 66.150047 64.485695 121.136909
v 66.500259 64.381775 121.147980
v 65.440445 66.290718 120.738930
v 65.336823 65.950485 120.823036
v 65.631180 66.592461 120.660561
v 65.896027 66.835152 120.593262
v 66.216934 67.002251 120.541618
v 66.572037 67.082367 120.509155
v 67.011963 63.166603 115.657379
v 67.332870 63.333702 115.605736
v 67.597717 63.576393 115.538437
v 76.429695 61.027798 115.800667
v 73.989624 63.070904 119.525146
v 73.989624 63.070908 119.525146
v 74.049194 63.437469 121.081451
v 67.892075 64.218369 115.375961
v 67.788452 63.878136 115.460068
v 67.901520 64.573914 115.291862
v 67.078850 65.683151 115.062088
v 67.390305 65.494705 115.094551
v 67.641785 65.234589 115.146187
v 67.816154 64.920525 115.213486
v 71.079666 70.348495 117.922401
v 71.079666 70.348495 117.922409
v 72.064751 71.944183 113.396553
v 66.865356 64.369453 121.136909
v 67.220459 64.449570 121.104446
v 67.541367 64.616676 121.052811
v 67.806213 64.859367 120.985512
v 67.996948 65.161102 120.907135
v 68.100571 65.501343 120.823036
v 67.598801 66.777679 120.541618
v 67.850281 66.517563 120.593262
v 66.937134 67.070045 120.498085
v 67.287346 66.966125 120.509155
v 68.110016 65.856888 120.738930
v 68.024651 66.203499 120.660561
v 71.139236 70.715065 119.478714
vn 0.0371 0.2291 0.9727
vn 0.0372 0.2291 0.9727
vn 0.3637 -0.9097 0.2003
vn -0.9308 -0.3464 0.1172
vn -0.3637 0.9097 -0.2003
vn 0.9308 0.3464 -0.1172
vn -0.0000 -0.0000 1.0000
vn -0.0372 -0.2291 -0.9727
vn -0.0373 -0.2291 -0.9727
vn 0.3420 -0.7112 0.6142
vn -0.8158 -0.2073 0.5398
vn -0.3087 0.9161 0.2558
vn 0.8491 0.4122 0.3302
vn 0.2835 0.9310 -0.2301
vn 0.5219 0.8256 -0.2144
vn 0.7247 0.6640 -0.1841
vn 0.8781 0.4572 -0.1413
vn 0.9716 0.2192 -0.0888
vn 0.9990 -0.0337 -0.0303
vn 0.9582 -0.2844 0.0303
vn 0.8522 -0.5156 0.0888
vn 0.6881 -0.7117 0.1413
vn 0.4771 -0.8593 0.1841
vn 0.2336 -0.9484 0.2144
vn -0.0259 -0.9728 0.2301
vn -0.2835 -0.9309 0.2301
vn -0.5219 -0.8256 0.2144
vn -0.7247 -0.6640 0.1841
vn -0.8780 -0.4572 0.1413
vn -0.9716 -0.2192 0.0888
vn -0.9990 0.0337 0.0303
vn -0.9582 0.2844 -0.0303
vn -0.8522 0.5156 -0.0888
vn -0.6881 0.7117 -0.1413
vn -0.4771 0.8593 -0.1841
vn -0.2336 0.9484 -0.2144
vn 0.0259 0.9728 -0.2301
vn 0.0373 0.2291 0.9727
vn 0.0377 0.2291 0.9727
vn 0.0374 0.2291 0.9727
vn -0.0000 1.0000 -0.0000
vn 0.9308 0.3463 -0.1172
vn -0.0372 -0.2295 -0.9726
vn 0.1297 0.9915 -0.0000
vn 1.0000 -0.0000 -0.0000
vn 0.2835 0.9309 -0.2301
vn -0.8781 -0.4572 0.1413
vt 0.000000 0.000000
vt 0.958333 0.538461
vt 1.000000 0.807692
vt 1.000000 0.538461
vt 0.916667 0.538461
vt 0.958333 0.807692
vt 0.875000 0.807692
vt 0.916667 0.807692
vt 0.833333 0.538461
vt 0.875000 0.538461
vt 0.791667 0.807692
vt 0.791667 0.538461
vt 0.750000 0.538461
vt 0.708333 0.538462
vt 0.750000 0.807692
vt 0.666667 0.538461
vt 0.708333 0.807693
vt 0.625000 0.538461
vt 0.666667 0.807693
vt 0.583333 0.538462
vt 0.625000 0.807692
vt 0.541666 0.807692
vt 0.583333 0.807692
vt 0.541667 0.538461
vt 0.500000 0.807692
vt 0.458333 0.538462
vt 0.500000 0.538461
vt 0.416666 0.538461
vt 0.458333 0.807692
vt 0.375000 0.538461
vt 0.416666 0.807693
vt 0.333333 0.538461
vt 0.375000 0.807692
vt 0.291667 0.538462
vt 0.333333 0.807692
vt 0.250000 0.807692
vt 0.291667 0.807692
vt 0.250000 0.538461
vt 0.208333 0.807692
vt 0.166666 0.538461
vt 0.208333 0.538461
vt 0.125000 0.538461
vt 0.166666 0.807692
vt 0.083333 0.807692
vt 0.125000 0.807692
vt 0.041666 0.538461
vt 0.083333 0.538461
vt -0.000000 0.807692
vt -0.000000 0.538461
vt 0.833333 0.807692
vt 0.041666 0.807692
vt 0.041666 0.807692
s 0
f 24/1/1 25/1/1 9/1/1
f 41/1/2 59/1/2 63/1/2
f 41/1/3 8/1/3 40/1/3
f 20/1/4 9/1/4 22/1/4
f 21/1/5 22/1/5 50/1/5
f 41/1/6 50/1/6 64/1/6
f 8/1/7 20/1/7 7/1/7
f 13/1/8 11/1/8 10/1/8
f 42/1/9 44/1/9 51/1/9
f 7/1/10 38/1/10 39/1/10
f 1/1/11 20/1/11 10/1/11
f 10/1/12 21/1/12 51/1/12
f 38/1/13 50/1/13 40/1/13
f 4/2/14 28/3/14 5/4/14
f 3/5/15 27/6/15 4/2/15
f 3/5/16 23/7/16 26/8/16
f 11/9/17 23/7/17 2/10/17
f 25/11/18 11/9/18 13/12/18
f 12/13/19 25/11/19 13/12/19
f 14/14/20 30/15/20 12/13/20
f 15/16/21 29/17/21 14/14/21
f 17/18/22 31/19/22 15/16/22
f 16/20/23 32/21/23 17/18/23
f 16/20/24 34/22/24 33/23/24
f 18/24/25 60/25/25 34/22/25
f 45/26/26 60/25/26 19/27/26
f 46/28/27 61/29/27 45/26/27
f 47/30/28 58/31/28 46/28/28
f 48/32/29 59/33/29 47/30/29
f 44/34/30 63/35/30 48/32/30
f 44/34/31 57/36/31 62/37/31
f 42/38/32 56/39/32 57/36/32
f 37/40/33 56/39/33 43/41/33
f 36/42/34 55/43/34 37/40/34
f 36/42/35 53/44/35 54/45/35
f 6/46/36 53/44/36 35/47/36
f 28/48/37 6/46/37 5/49/37
f 58/1/2 59/1/2 64/1/2
f 41/1/2 62/1/2 57/1/2
f 41/1/2 57/1/2 56/1/2
f 61/1/2 58/1/2 64/1/2
f 60/1/38 61/1/38 64/1/38
f 41/1/2 56/1/2 55/1/2
f 41/1/2 55/1/2 54/1/2
f 34/1/2 60/1/2 64/1/2
f 33/1/2 34/1/2 64/1/2
f 9/1/2 41/1/2 54/1/2
f 9/1/2 54/1/2 53/1/2
f 33/1/2 64/1/2 22/1/2
f 32/1/2 33/1/2 22/1/2
f 9/1/2 53/1/2 52/1/2
f 9/1/38 52/1/38 28/1/38
f 31/1/2 32/1/2 22/1/2
f 29/1/2 31/1/2 22/1/2
f 9/1/2 28/1/2 27/1/2
f 9/1/38 27/1/38 26/1/38
f 29/1/2 22/1/2 9/1/2
f 30/1/39 29/1/39 9/1/39
f 9/1/2 26/1/2 23/1/2
f 9/1/38 23/1/38 24/1/38
f 25/1/40 30/1/40 9/1/40
f 63/1/2 62/1/2 41/1/2
f 41/1/2 64/1/2 59/1/2
f 41/1/3 9/1/3 8/1/3
f 20/1/4 8/1/4 9/1/4
f 21/1/7 20/1/7 22/1/7
f 22/1/5 64/1/5 50/1/5
f 50/1/41 49/1/41 21/1/41
f 41/1/42 40/1/42 50/1/42
f 39/1/7 40/1/7 8/1/7
f 7/1/7 39/1/7 8/1/7
f 43/1/8 42/1/8 38/1/8
f 51/1/8 48/1/8 47/1/8
f 51/1/8 47/1/8 46/1/8
f 37/1/8 43/1/8 38/1/8
f 36/1/8 37/1/8 38/1/8
f 51/1/8 46/1/8 45/1/8
f 51/1/8 45/1/8 19/1/8
f 36/1/8 38/1/8 1/1/8
f 35/1/8 36/1/8 1/1/8
f 10/1/8 51/1/8 19/1/8
f 10/1/43 19/1/43 18/1/43
f 6/1/8 35/1/8 1/1/8
f 5/1/8 6/1/8 1/1/8
f 10/1/8 18/1/8 16/1/8
f 10/1/8 16/1/8 17/1/8
f 4/1/8 5/1/8 1/1/8
f 3/1/8 4/1/8 1/1/8
f 10/1/8 17/1/8 15/1/8
f 10/1/8 15/1/8 14/1/8
f 3/1/8 1/1/8 10/1/8
f 2/1/8 3/1/8 10/1/8
f 10/1/8 14/1/8 12/1/8
f 10/1/8 12/1/8 13/1/8
f 11/1/8 2/1/8 10/1/8
f 51/1/8 38/1/8 42/1/8
f 44/1/8 48/1/8 51/1/8
f 7/1/10 1/1/10 38/1/10
f 1/1/11 7/1/11 20/1/11
f 10/1/44 20/1/44 21/1/44
f 21/1/12 49/1/12 51/1/12
f 38/1/13 51/1/13 49/1/13
f 38/1/41 49/1/41 50/1/41
f 40/1/45 39/1/45 38/1/45
f 4/2/46 27/6/46 28/3/46
f 3/5/15 26/8/15 27/6/15
f 3/5/16 2/10/16 23/7/16
f 11/9/17 24/50/17 23/7/17
f 25/11/18 24/50/18 11/9/18
f 12/13/19 30/15/19 25/11/19
f 14/14/20 29/17/20 30/15/20
f 15/16/21 31/19/21 29/17/21
f 17/18/22 32/21/22 31/19/22
f 16/20/23 33/23/23 32/21/23
f 16/20/24 18/24/24 34/22/24
f 18/24/25 19/27/25 60/25/25
f 45/26/26 61/29/26 60/25/26
f 46/28/27 58/31/27 61/29/27
f 47/30/28 59/33/28 58/31/28
f 48/32/47 63/35/47 59/33/47
f 44/34/30 62/37/30 63/35/30
f 44/34/31 42/38/31 57/36/31
f 42/38/32 43/41/32 56/39/32
f 37/40/33 55/43/33 56/39/33
f 36/42/34 54/45/34 55/43/34
f 36/42/35 35/47/35 53/44/35
f 6/46/36 52/51/36 53/44/36
f 28/48/37 52/52/37 6/46/37
