# Blender 5.2.0 LTS
# www.blender.org
o PROPOSED__C048__LOWER_FACE_ROOT_ADDITION_V1
v 81.973137 56.033688 90.694580
v 80.176941 61.266426 88.953278
v 71.084000 60.491222 96.727814
v 72.745483 55.650940 98.338516
v 81.294235 55.519352 89.849266
v 79.498039 60.752090 88.107964
v 70.405098 59.976887 95.882500
v 72.066582 55.136604 97.493202
vn -0.5657 -0.4286 -0.7044
vn 0.5657 0.4286 0.7044
vn -0.7642 -0.0483 0.6432
vn 0.3235 -0.9012 0.2885
vn 0.7642 0.0483 -0.6432
vn -0.2958 0.9029 -0.3118
vn -0.5658 -0.4286 -0.7044
vn 0.5658 0.4286 0.7044
s 0
f 3//1 1//1 4//1
f 6//2 8//2 5//2
f 1//3 6//3 5//3
f 3//4 6//4 2//4
f 4//5 7//5 3//5
f 1//6 8//6 4//6
f 3//7 2//7 1//7
f 6//8 7//8 8//8
f 1//3 2//3 6//3
f 3//4 7//4 6//4
f 4//5 8//5 7//5
f 1//6 5//6 8//6
