# Blender 5.2.0 LTS
# www.blender.org
o PROPOSED__RIGHT_LOWER_EYE_FLANGE__ROOT_ADDITION_V1
v 65.791885 66.194321 126.402596
v 66.354820 65.745758 126.486702
v 66.043365 65.934204 126.454239
v 66.705032 65.641838 126.497772
v 67.070129 65.629517 126.486702
v 61.950901 58.029194 128.472778
v 61.995579 58.304119 129.640015
v 66.088043 66.209129 127.621468
v 66.399498 66.020683 127.653931
v 66.749710 65.916763 127.665001
v 67.114807 65.904442 127.653931
v 57.585957 68.945587 126.068672
v 65.541595 67.210541 126.172821
v 65.835953 67.852516 126.010345
v 65.645218 67.550774 126.088722
v 66.421707 68.262306 125.891411
v 66.776810 68.342422 125.858948
v 67.141907 68.330101 125.847878
v 66.100800 68.095207 125.943047
v 65.617516 66.508385 126.335297
v 65.532150 66.855003 126.256927
v 57.630634 69.220505 127.235901
v 65.662193 66.783310 127.502525
v 65.836563 66.469246 127.569824
v 65.576828 67.129929 127.424156
v 65.689896 67.825699 127.255951
v 65.880630 68.127441 127.177574
v 65.586273 67.485466 127.340050
v 66.145477 68.370132 127.110275
v 66.466385 68.537231 127.058640
v 66.821487 68.617348 127.026176
v 67.186584 68.605026 127.015106
v 67.425232 65.709633 126.454239
v 67.746140 65.876732 126.402603
v 68.010986 66.119423 126.335304
v 76.842964 63.570835 126.597527
v 67.790817 66.151657 127.569832
v 68.055664 66.394348 127.502525
v 67.469910 65.984558 127.621468
v 76.887642 63.845760 127.764755
v 68.305344 66.761398 126.172829
v 68.314789 67.116943 126.088722
v 67.492119 68.226181 125.858948
v 67.803574 68.037743 125.891411
v 68.055061 67.777618 125.943054
v 68.229424 67.463554 126.010353
v 68.201721 66.421165 126.256927
v 72.478020 74.487228 124.193413
v 72.522697 74.762146 125.360641
v 68.359467 67.391869 127.255951
v 68.246399 66.696091 127.424156
v 68.350021 67.036324 127.340057
v 68.274101 67.738480 127.177582
v 67.848251 68.312668 127.058640
v 68.099739 68.052544 127.110283
v 67.536797 68.501106 127.026176
vn -0.0372 -0.2291 -0.9727
vn 0.0372 0.2291 0.9727
vn 0.0373 0.2291 0.9727
vn 0.3637 -0.9097 0.2003
vn -0.9308 -0.3464 0.1172
vn -0.3638 0.9097 -0.2003
vn 0.9308 0.3464 -0.1172
vn 0.2835 0.9309 -0.2301
vn 0.5219 0.8256 -0.2144
vn 0.7247 0.6640 -0.1841
vn 0.8781 0.4572 -0.1413
vn 0.9716 0.2193 -0.0888
vn 0.9990 -0.0337 -0.0303
vn 0.9582 -0.2844 0.0303
vn 0.8522 -0.5156 0.0888
vn 0.6881 -0.7117 0.1413
vn 0.4771 -0.8593 0.1841
vn 0.2336 -0.9484 0.2144
vn -0.0259 -0.9728 0.2301
vn -0.2835 -0.9309 0.2301
vn -0.5219 -0.8256 0.2144
vn -0.7246 -0.6641 0.1841
vn -0.8781 -0.4572 0.1413
vn -0.9716 -0.2192 0.0888
vn -0.9990 0.0337 0.0303
vn -0.9582 0.2843 -0.0303
vn -0.8522 0.5156 -0.0888
vn -0.6881 0.7117 -0.1413
vn -0.4771 0.8593 -0.1841
vn -0.2336 0.9484 -0.2145
vn 0.0259 0.9728 -0.2301
vn -0.0373 -0.2291 -0.9727
vn -0.0372 -0.2289 -0.9727
vn 0.0372 0.2290 0.9727
vn -0.3637 0.9097 -0.2003
vn 0.8780 0.4572 -0.1413
vn 0.9716 0.2192 -0.0888
vn 0.9582 -0.2843 0.0303
vn 0.4771 -0.8593 0.1842
vn -0.0258 -0.9728 0.2301
vn -0.5219 -0.8256 0.2145
vn -0.7247 -0.6640 0.1841
vn -0.9716 -0.2193 0.0888
vn -0.9582 0.2844 -0.0303
vn -0.2336 0.9484 -0.2144
vn 0.0258 0.9728 -0.2301
vt 0.000000 0.000000
vt 0.958333 0.916667
vt 1.000000 0.966666
vt 1.000000 0.916666
vt 0.916667 0.966666
vt 0.916667 0.916667
vt 0.875000 0.966667
vt 0.875000 0.916666
vt 0.833333 0.966666
vt 0.833333 0.916666
vt 0.791667 0.916667
vt 0.750000 0.916666
vt 0.791667 0.966667
vt 0.708333 0.916667
vt 0.750000 0.966666
vt 0.666667 0.966667
vt 0.708333 0.966667
vt 0.666667 0.916666
vt 0.625000 0.966666
vt 0.625000 0.916667
vt 0.583333 0.966666
vt 0.541666 0.916666
vt 0.583333 0.916667
vt 0.500000 0.916667
vt 0.541666 0.966666
vt 0.458333 0.966667
vt 0.500000 0.966667
vt 0.416666 0.966666
vt 0.458333 0.916667
vt 0.416666 0.916667
vt 0.375000 0.916667
vt 0.333333 0.916666
vt 0.375000 0.966667
vt 0.291667 0.966667
vt 0.291667 0.916667
vt 0.250000 0.916667
vt 0.208333 0.966666
vt 0.250000 0.966667
vt 0.166666 0.916666
vt 0.208333 0.916666
vt 0.125000 0.966666
vt 0.125000 0.916666
vt 0.083333 0.966666
vt 0.083333 0.916667
vt 0.041666 0.966667
vt 0.083333 0.916666
vt 0.041666 0.916667
vt -0.000000 0.966666
vt -0.000000 0.916666
vt 0.958333 0.966666
vt 0.333333 0.966667
vt 0.166666 0.966666
s 0
f 21/1/1 20/1/1 12/1/1
f 41/1/1 42/1/1 48/1/1
f 22/1/2 24/1/2 23/1/2
f 49/1/3 53/1/3 50/1/3
f 7/1/4 36/1/4 40/1/4
f 6/1/5 22/1/5 12/1/5
f 22/1/6 48/1/6 12/1/6
f 36/1/7 49/1/7 40/1/7
f 2/2/8 10/3/8 4/4/8
f 8/5/9 2/2/9 3/6/9
f 24/7/10 3/6/10 1/8/10
f 23/9/11 1/8/11 20/10/11
f 21/11/12 23/9/12 20/10/12
f 13/12/13 25/13/13 21/11/13
f 15/14/14 28/15/14 13/12/14
f 15/14/15 27/16/15 26/17/15
f 14/18/16 29/19/16 27/16/16
f 19/20/17 30/21/17 29/19/17
f 17/22/18 30/21/18 16/23/18
f 18/24/19 31/25/19 17/22/19
f 18/24/20 56/26/20 32/27/20
f 54/28/21 43/29/21 44/30/21
f 45/31/22 54/28/22 44/30/22
f 46/32/23 55/33/23 45/31/23
f 50/34/24 46/32/24 42/35/24
f 41/36/25 50/34/25 42/35/25
f 41/36/26 51/37/26 52/38/26
f 35/39/27 51/37/27 47/40/27
f 37/41/28 35/39/28 34/42/28
f 39/43/29 34/42/29 33/44/29
f 11/45/30 33/46/30 5/47/30
f 10/48/31 5/47/31 4/49/31
f 47/1/1 41/1/1 36/1/1
f 48/1/32 46/1/32 45/1/32
f 48/1/1 45/1/1 44/1/1
f 35/1/1 47/1/1 36/1/1
f 34/1/1 35/1/1 36/1/1
f 48/1/32 44/1/32 43/1/32
f 48/1/1 43/1/1 18/1/1
f 34/1/1 36/1/1 6/1/1
f 33/1/1 34/1/1 6/1/1
f 12/1/1 48/1/1 18/1/1
f 12/1/33 18/1/33 17/1/33
f 5/1/1 33/1/1 6/1/1
f 4/1/1 5/1/1 6/1/1
f 12/1/1 17/1/1 16/1/1
f 12/1/1 16/1/1 19/1/1
f 2/1/1 4/1/1 6/1/1
f 3/1/1 2/1/1 6/1/1
f 12/1/1 19/1/1 14/1/1
f 12/1/1 14/1/1 15/1/1
f 3/1/1 6/1/1 12/1/1
f 1/1/1 3/1/1 12/1/1
f 12/1/1 15/1/1 13/1/1
f 12/1/1 13/1/1 21/1/1
f 20/1/1 1/1/1 12/1/1
f 48/1/1 36/1/1 41/1/1
f 42/1/32 46/1/32 48/1/32
f 40/1/2 52/1/2 51/1/2
f 40/1/2 51/1/2 38/1/2
f 32/1/3 56/1/3 49/1/3
f 31/1/2 32/1/2 49/1/2
f 7/1/2 40/1/2 38/1/2
f 7/1/34 38/1/34 37/1/34
f 31/1/2 49/1/2 22/1/2
f 30/1/2 31/1/2 22/1/2
f 7/1/2 37/1/2 39/1/2
f 7/1/2 39/1/2 11/1/2
f 29/1/2 30/1/2 22/1/2
f 27/1/2 29/1/2 22/1/2
f 7/1/3 11/1/3 10/1/3
f 7/1/2 10/1/2 9/1/2
f 26/1/2 27/1/2 22/1/2
f 28/1/2 26/1/2 22/1/2
f 22/1/2 7/1/2 9/1/2
f 22/1/2 9/1/2 8/1/2
f 25/1/2 28/1/2 22/1/2
f 23/1/2 25/1/2 22/1/2
f 22/1/2 8/1/2 24/1/2
f 52/1/2 40/1/2 49/1/2
f 49/1/2 56/1/2 54/1/2
f 49/1/2 54/1/2 55/1/2
f 50/1/3 52/1/3 49/1/3
f 49/1/2 55/1/2 53/1/2
f 7/1/4 6/1/4 36/1/4
f 6/1/5 7/1/5 22/1/5
f 22/1/35 49/1/35 48/1/35
f 36/1/7 48/1/7 49/1/7
f 2/2/8 9/50/8 10/3/8
f 8/5/9 9/50/9 2/2/9
f 24/7/10 8/5/10 3/6/10
f 23/9/36 24/7/36 1/8/36
f 21/11/37 25/13/37 23/9/37
f 13/12/13 28/15/13 25/13/13
f 15/14/38 26/17/38 28/15/38
f 15/14/15 14/18/15 27/16/15
f 14/18/16 19/20/16 29/19/16
f 19/20/39 16/23/39 30/21/39
f 17/22/18 31/25/18 30/21/18
f 18/24/40 32/27/40 31/25/40
f 18/24/20 43/29/20 56/26/20
f 54/28/41 56/26/41 43/29/41
f 45/31/42 55/33/42 54/28/42
f 46/32/23 53/51/23 55/33/23
f 50/34/43 53/51/43 46/32/43
f 41/36/25 52/38/25 50/34/25
f 41/36/44 47/40/44 51/37/44
f 35/39/27 38/52/27 51/37/27
f 37/41/28 38/52/28 35/39/28
f 39/43/29 37/41/29 34/42/29
f 11/45/45 39/43/45 33/46/45
f 10/48/46 11/45/46 5/47/46
