# Blender 5.2.0 LTS
# www.blender.org
o PROPOSED__RIGHT_OUTER_EYE_FLANGE__ROOT_ADDITION_V1
v 95.760651 82.466286 146.313889
v 95.880173 82.201553 146.535721
v 95.980560 82.001717 146.824783
v 96.054970 81.880417 147.161407
v 96.098335 81.845901 147.522659
v 96.082420 82.040573 148.220535
v 95.937073 82.533577 148.731400
v 96.024223 82.256493 148.509598
v 96.107697 81.900528 147.883911
v 93.710693 86.164856 138.667862
v 94.828491 86.591232 138.574417
v 95.371857 83.454994 146.174469
v 95.261696 83.774353 146.313904
v 95.116348 84.267365 146.824783
v 95.174545 84.051437 146.535721
v 95.091072 84.407410 147.161407
v 95.100433 84.462036 147.522659
v 95.497528 83.115112 146.126892
v 95.630135 82.777885 146.174469
v 96.292343 84.477814 146.442276
v 96.379494 84.200729 146.220459
v 96.234146 84.693733 146.731339
v 96.208870 84.833786 147.067963
v 96.218231 84.888412 147.429214
v 93.705124 89.603943 154.293900
v 94.822922 90.030319 154.200455
v 95.143799 84.427521 147.883911
v 95.218208 84.306213 148.220535
v 95.318596 84.106384 148.509598
v 95.568634 83.530052 148.870850
v 95.701241 83.192818 148.918411
v 95.438118 83.841652 148.731415
v 95.826912 82.852943 148.870850
v 96.261597 84.853897 147.790466
v 96.336006 84.732590 148.127090
v 96.436394 84.532753 148.416153
v 96.997971 82.627930 146.442276
v 97.098358 82.428093 146.731339
v 97.172768 82.306793 147.067963
v 97.216133 82.272270 147.429214
v 98.075638 75.248474 141.071976
v 99.193436 75.674850 140.978531
v 97.200218 82.466949 148.127090
v 97.225494 82.326897 147.790466
v 98.070068 78.687561 156.698013
v 99.187866 79.113937 156.604568
v 96.615326 83.541489 146.033463
v 96.747932 83.204262 146.081024
v 96.489655 83.881371 146.081024
v 96.878448 82.892662 146.220459
v 96.555916 84.268021 148.637970
v 96.686432 83.956429 148.777405
v 97.054871 82.959953 148.637970
v 96.944710 83.279320 148.777405
v 96.819038 83.619194 148.824966
v 97.142021 82.682869 148.416153
vn 0.9315 0.3553 -0.0779
vn -0.9315 -0.3553 0.0779
vn -0.9315 -0.3552 0.0779
vn 0.3637 -0.9097 0.2003
vn 0.0004 -0.2149 -0.9766
vn -0.3637 0.9097 -0.2003
vn -0.0003 0.2149 0.9766
vn -0.1187 0.0944 -0.9884
vn -0.2036 0.3319 -0.9211
vn -0.2747 0.5467 -0.7910
vn -0.3270 0.7244 -0.6069
vn -0.3571 0.8526 -0.3815
vn -0.3628 0.9227 -0.1301
vn -0.3439 0.9300 0.1301
vn -0.3015 0.8738 0.3815
vn -0.2384 0.7581 0.6070
vn -0.1592 0.5908 0.7909
vn -0.0692 0.3832 0.9211
vn 0.0256 0.1495 0.9884
vn 0.1187 -0.0945 0.9884
vn 0.2036 -0.3319 0.9211
vn 0.2747 -0.5468 0.7909
vn 0.3270 -0.7244 0.6069
vn 0.3571 -0.8526 0.3815
vn 0.3628 -0.9227 0.1301
vn 0.3439 -0.9300 -0.1301
vn 0.3014 -0.8738 -0.3815
vn 0.2385 -0.7581 -0.6069
vn 0.1592 -0.5908 -0.7909
vn 0.0692 -0.3832 -0.9211
vn -0.0256 -0.1495 -0.9884
vn 0.9315 0.3553 -0.0778
vn 0.9315 0.3554 -0.0779
vn 0.9315 0.3552 -0.0779
vn -0.9315 -0.3554 0.0779
vn -0.9315 -0.3553 0.0778
vn 0.0003 -0.2149 -0.9766
vn -0.1186 0.0944 -0.9884
vn -0.2747 0.5468 -0.7909
vn -0.3271 0.7244 -0.6069
vn -0.3438 0.9300 0.1302
vn -0.3014 0.8738 0.3815
vn -0.2385 0.7581 0.6069
vn 0.1186 -0.0944 0.9884
vn 0.3438 -0.9300 -0.1301
vn 0.3014 -0.8738 -0.3816
vn 0.2384 -0.7581 -0.6070
vt 0.000000 0.000000
vt 1.000000 0.916667
vt 0.958333 0.966667
vt 1.000000 0.966667
vt 0.916667 0.916667
vt 0.916667 0.966667
vt 0.875000 0.916667
vt 0.875000 0.966667
vt 0.833333 0.916667
vt 0.833333 0.966667
vt 0.791667 0.916667
vt 0.791667 0.966667
vt 0.750000 0.966668
vt 0.708333 0.966667
vt 0.750000 0.916667
vt 0.708333 0.916667
vt 0.666667 0.916667
vt 0.666667 0.966667
vt 0.625000 0.916667
vt 0.625000 0.966667
vt 0.583333 0.916667
vt 0.583333 0.966667
vt 0.541666 0.916667
vt 0.541666 0.966667
vt 0.541666 0.966667
vt 0.500000 0.916667
vt 0.500000 0.966667
vt 0.458333 0.966667
vt 0.416666 0.916667
vt 0.416666 0.966667
vt 0.375000 0.916667
vt 0.375000 0.966667
vt 0.333333 0.966667
vt 0.291667 0.916667
vt 0.291667 0.966667
vt 0.250000 0.966667
vt 0.250000 0.916667
vt 0.208333 0.916667
vt 0.208333 0.966667
vt 0.166666 0.916667
vt 0.166666 0.966667
vt 0.125000 0.916667
vt 0.125000 0.966667
vt 0.083333 0.916668
vt 0.083333 0.966667
vt 0.041666 0.966667
vt 0.041666 0.916667
vt -0.000000 0.916667
vt -0.000000 0.966667
vt 0.958333 0.916667
vt 0.458333 0.916667
vt 0.333333 0.916667
s 0
f 11/1/1 22/1/1 20/1/1
f 46/1/1 43/1/1 56/1/1
f 16/1/2 17/1/2 10/1/2
f 9/1/3 5/1/3 45/1/3
f 41/1/4 46/1/4 45/1/4
f 11/1/5 41/1/5 10/1/5
f 10/1/6 26/1/6 11/1/6
f 25/1/7 46/1/7 26/1/7
f 55/2/8 33/3/8 31/4/8
f 33/3/9 53/5/9 7/6/9
f 7/6/10 56/7/10 8/8/10
f 8/8/11 43/9/11 6/10/11
f 6/10/12 44/11/12 9/12/12
f 44/11/13 5/13/13 9/12/13
f 4/14/14 40/15/14 39/16/14
f 4/14/15 38/17/15 3/18/15
f 3/18/16 37/19/16 2/20/16
f 2/20/17 50/21/17 1/22/17
f 1/22/18 48/23/18 19/24/18
f 19/25/19 47/26/19 18/27/19
f 47/26/20 12/28/20 18/27/20
f 12/28/21 21/29/21 13/30/21
f 13/30/22 20/31/22 15/32/22
f 20/31/23 14/33/23 15/32/23
f 14/33/24 23/34/24 16/35/24
f 17/36/25 23/34/25 24/37/25
f 17/36/26 34/38/26 27/39/26
f 27/39/27 35/40/27 28/41/27
f 28/41/28 36/42/28 29/43/28
f 29/43/29 51/44/29 32/45/29
f 30/46/30 51/44/30 52/47/30
f 30/46/31 55/48/31 31/49/31
f 39/1/1 46/1/1 42/1/1
f 26/1/1 54/1/1 55/1/1
f 26/1/32 55/1/32 52/1/32
f 38/1/1 39/1/1 42/1/1
f 37/1/1 38/1/1 42/1/1
f 26/1/33 52/1/33 51/1/33
f 26/1/1 51/1/1 36/1/1
f 37/1/1 42/1/1 11/1/1
f 50/1/32 37/1/32 11/1/32
f 26/1/1 36/1/1 35/1/1
f 26/1/33 35/1/33 34/1/33
f 48/1/1 50/1/1 11/1/1
f 47/1/1 48/1/1 11/1/1
f 11/1/1 26/1/1 34/1/1
f 11/1/1 34/1/1 24/1/1
f 49/1/1 47/1/1 11/1/1
f 21/1/1 49/1/1 11/1/1
f 11/1/34 24/1/34 23/1/34
f 11/1/1 23/1/1 22/1/1
f 20/1/1 21/1/1 11/1/1
f 54/1/1 26/1/1 46/1/1
f 46/1/32 39/1/32 40/1/32
f 46/1/1 40/1/1 44/1/1
f 53/1/1 54/1/1 46/1/1
f 56/1/1 53/1/1 46/1/1
f 46/1/1 44/1/1 43/1/1
f 33/1/35 7/1/35 45/1/35
f 41/1/2 4/1/2 3/1/2
f 41/1/2 3/1/2 2/1/2
f 33/1/2 45/1/2 25/1/2
f 31/1/2 33/1/2 25/1/2
f 10/1/2 41/1/2 2/1/2
f 10/1/35 2/1/35 1/1/35
f 30/1/36 31/1/36 25/1/36
f 32/1/2 30/1/2 25/1/2
f 10/1/2 1/1/2 19/1/2
f 10/1/2 19/1/2 18/1/2
f 29/1/2 32/1/2 25/1/2
f 28/1/2 29/1/2 25/1/2
f 10/1/2 18/1/2 12/1/2
f 10/1/2 12/1/2 13/1/2
f 27/1/2 28/1/2 25/1/2
f 17/1/2 27/1/2 25/1/2
f 10/1/2 13/1/2 15/1/2
f 10/1/2 15/1/2 14/1/2
f 17/1/2 25/1/2 10/1/2
f 10/1/2 14/1/2 16/1/2
f 5/1/2 4/1/2 41/1/2
f 45/1/35 7/1/35 8/1/35
f 45/1/2 8/1/2 6/1/2
f 5/1/2 41/1/2 45/1/2
f 45/1/2 6/1/2 9/1/2
f 41/1/4 42/1/4 46/1/4
f 11/1/37 42/1/37 41/1/37
f 10/1/6 25/1/6 26/1/6
f 25/1/7 45/1/7 46/1/7
f 55/2/38 54/50/38 33/3/38
f 33/3/9 54/50/9 53/5/9
f 7/6/39 53/5/39 56/7/39
f 8/8/40 56/7/40 43/9/40
f 6/10/12 43/9/12 44/11/12
f 44/11/13 40/15/13 5/13/13
f 4/14/41 5/13/41 40/15/41
f 4/14/42 39/16/42 38/17/42
f 3/18/43 38/17/43 37/19/43
f 2/20/17 37/19/17 50/21/17
f 1/22/18 50/21/18 48/23/18
f 19/25/19 48/23/19 47/26/19
f 47/26/44 49/51/44 12/28/44
f 12/28/21 49/51/21 21/29/21
f 13/30/22 21/29/22 20/31/22
f 20/31/23 22/52/23 14/33/23
f 14/33/24 22/52/24 23/34/24
f 17/36/25 16/35/25 23/34/25
f 17/36/45 24/37/45 34/38/45
f 27/39/46 34/38/46 35/40/46
f 28/41/47 35/40/47 36/42/47
f 29/43/29 36/42/29 51/44/29
f 30/46/30 32/45/30 51/44/30
f 30/46/31 52/47/31 55/48/31
