# Blender 5.2.0 LTS
# www.blender.org
o PROPOSED__RIGHT_OUTER_EYE_FLANGE__FLANGE_WITH_ROOT_EMBED_V1
v 95.760651 82.466286 146.313889
v 98.820839 75.532715 141.009674
v 95.880173 82.201553 146.535721
v 95.980560 82.001717 146.824783
v 96.843536 82.130150 147.460358
v 96.054970 81.880417 147.161407
v 96.098335 81.845901 147.522659
v 96.725761 82.285973 146.762482
v 98.815269 78.971802 156.635712
v 96.082420 82.040573 148.220535
v 96.852898 82.184776 147.821609
v 95.937073 82.533577 148.731400
v 96.024223 82.256493 148.509598
v 96.769424 82.540749 148.447296
v 96.107697 81.900528 147.883911
v 93.710693 86.164856 138.667862
v 95.919754 84.335686 146.473419
v 94.828491 86.591232 138.574417
v 95.371857 83.454994 146.174469
v 95.261696 83.774353 146.313904
v 95.116348 84.267365 146.824783
v 95.174545 84.051437 146.535721
v 95.091072 84.407410 147.161407
v 95.100433 84.462036 147.522659
v 95.836273 84.691658 147.099106
v 95.497528 83.115112 146.126892
v 95.845634 84.746284 147.460358
v 95.630135 82.777885 146.174469
v 94.455894 86.449112 138.605560
v 96.063797 84.390633 148.447296
v 96.572113 83.137192 148.808548
v 96.379494 84.200729 146.220459
v 96.234146 84.693733 146.731339
v 96.446442 83.477074 148.856110
v 96.183319 84.125900 148.669113
v 96.313835 83.814301 148.808548
v 95.889000 84.711769 147.821609
v 93.705124 89.603943 154.293900
v 95.963409 84.590462 148.158234
v 94.822922 90.030319 154.200455
v 94.450325 89.888199 154.231598
v 95.143799 84.427521 147.883911
v 96.682274 82.817833 148.669113
v 95.218208 84.306213 148.220535
v 101.818642 79.203255 142.250778
v 95.318596 84.106384 148.509598
v 95.568634 83.530052 148.870850
v 103.309036 79.771759 142.126190
v 95.701241 83.192818 148.918411
v 101.814476 81.782570 153.970291
v 95.438118 83.841652 148.731415
v 101.814468 81.782570 153.970291
v 95.826912 82.852943 148.870850
v 103.304871 82.351074 153.845703
v 98.908676 86.480843 140.648026
v 98.908684 86.480843 140.648026
v 100.399078 87.049347 140.523438
v 96.997971 82.627930 146.442276
v 101.077942 86.541367 146.326416
v 101.052666 86.681412 146.663040
v 97.172768 82.306793 147.067963
v 101.062027 86.736038 147.024292
v 101.841766 84.475555 146.037354
v 101.942154 84.275726 146.326416
v 98.075638 75.248474 141.071976
v 99.193436 75.674850 140.978531
v 102.016563 84.154419 146.663040
v 97.200218 82.466949 148.127090
v 102.059929 84.119904 147.024292
v 102.069290 84.174530 147.385544
v 101.459122 85.389114 145.628540
v 98.070068 78.687561 156.698013
v 101.591728 85.051888 145.676102
v 99.187866 79.113937 156.604568
v 101.333450 85.728996 145.676102
v 96.615326 83.541489 146.033463
v 101.223289 86.048355 145.815536
v 96.747932 83.204262 146.081024
v 96.489655 83.881371 146.081024
v 101.722244 84.740288 145.815536
v 96.878448 82.892662 146.220459
v 101.136147 86.325439 146.037354
v 101.105392 86.701523 147.385544
v 98.904510 89.060158 152.367538
v 100.394913 89.628662 152.242950
v 102.044014 84.314575 147.722168
v 101.530228 85.804047 148.372482
v 101.399712 86.115654 148.233047
v 101.898666 84.807579 148.233047
v 101.788506 85.126945 148.372482
v 101.985817 84.530502 148.011230
v 101.662834 85.466827 148.420044
v 101.179802 86.580215 147.722168
v 101.280190 86.380386 148.011230
v 98.815269 78.971809 156.635696
v 96.572113 83.137192 148.808548
v 96.682274 82.817833 148.669113
v 95.963409 84.590462 148.158234
v 94.450325 89.888191 154.231598
v 95.889000 84.711769 147.821609
v 95.845634 84.746284 147.460358
v 96.769424 82.540749 148.447296
v 96.827621 82.324821 148.158234
v 96.827621 82.324821 148.158234
v 95.836273 84.691658 147.099106
v 96.852898 82.184776 147.821609
v 96.840462 82.253685 147.987244
v 96.843536 82.130150 147.460358
v 95.840691 84.667206 147.040329
v 95.919754 84.335693 146.473419
v 95.904648 84.391731 146.548447
v 96.824020 82.145683 147.297745
v 96.725761 82.285973 146.762482
v 96.745155 82.254356 146.850220
v 95.926483 84.314285 146.456284
v 98.820839 75.532722 141.009674
v 94.455894 86.449112 138.605560
v 96.722939 82.291595 146.754349
v 96.242729 83.399361 146.064606
v 96.242729 83.399361 146.064606
v 96.148796 83.653412 146.100159
v 96.446442 83.477074 148.856110
v 96.572113 83.137192 148.808548
v 98.815269 78.971809 156.635712
v 94.450325 89.888191 154.231598
v 95.963409 84.590462 148.158234
v 96.063797 84.390633 148.447296
v 96.183319 84.125900 148.669113
v 96.313835 83.814301 148.808548
v 99.120621 75.899773 141.133789
v 98.820854 75.532730 141.009674
v 99.115227 79.229027 156.260803
v 98.815285 78.971817 156.635696
v 99.115189 79.252876 156.369171
v 98.820847 75.532730 141.009674
v 94.455902 86.449112 138.605560
v 94.455902 86.449112 138.605560
v 94.901169 86.452286 138.809799
v 94.455902 86.449112 138.605560
v 94.901169 86.452286 138.809799
v 94.450333 89.888199 154.231598
v 94.895752 89.798599 154.014313
v 94.895737 89.805397 154.045197
v 98.815285 78.971817 156.635696
v 99.115189 79.252876 156.369171
v 97.071213 82.417740 148.137878
v 97.200218 82.466949 148.127090
v 97.197914 82.475502 148.138535
v 97.206566 82.431793 148.042587
v 97.197449 82.287148 147.273575
v 97.172768 82.306793 147.067963
v 97.172768 82.306786 147.067978
v 97.118462 82.395325 146.822281
v 97.091019 82.442696 146.710220
v 96.997971 82.627930 146.442276
v 96.878448 82.892662 146.220459
v 96.747932 83.204262 146.081024
v 96.615326 83.541489 146.033463
v 96.254395 83.699669 146.091904
v 96.290009 83.417397 146.060654
v 96.489655 83.881363 146.081024
v 96.379494 84.200729 146.220459
v 96.329178 84.360695 146.348511
v 96.272652 84.550865 146.540070
v 96.234146 84.693733 146.731339
v 96.215218 84.798630 146.983459
v 96.357941 84.518166 148.403549
v 96.429054 84.547356 148.395035
v 96.364410 84.505295 148.422165
v 96.436394 84.532753 148.416153
v 96.436394 84.532753 148.416153
vn 0.9315 0.3553 -0.0779
vn 0.3637 -0.9097 0.2003
vn 0.0004 -0.2149 -0.9766
vn -0.3637 0.9097 -0.2003
vn -0.0004 0.2149 0.9766
vn -0.0000 -0.0000 1.0000
vn -0.9312 -0.3560 0.0778
vn -0.0000 -0.0000 -1.0000
vn 0.7420 -0.6547 0.1444
vn 0.6192 -0.7755 0.1235
vn 0.8944 -0.0000 -0.4472
vn 0.4169 -0.0334 -0.9083
vn -0.0000 0.9943 -0.1068
vn 0.4163 0.3512 0.8387
vn -0.1186 0.0944 -0.9884
vn -0.2036 0.3319 -0.9211
vn -0.2747 0.5468 -0.7909
vn -0.3276 0.7237 -0.6074
vn -0.3572 0.8526 -0.3815
vn -0.3628 0.9227 -0.1301
vn -0.3438 0.9300 0.1302
vn -0.3011 0.8734 0.3827
vn -0.2385 0.7581 0.6069
vn -0.1592 0.5908 0.7909
vn -0.0691 0.3832 0.9211
vn 0.0256 0.1495 0.9884
vn 0.1187 -0.0944 0.9884
vn 0.1189 -0.0944 0.9884
vn 0.2036 -0.3319 0.9211
vn 0.2747 -0.5469 0.7909
vn 0.3270 -0.7243 0.6069
vn 0.3572 -0.8526 0.3816
vn 0.3628 -0.9227 0.1301
vn 0.3439 -0.9300 -0.1301
vn 0.3014 -0.8738 -0.3815
vn 0.2386 -0.7581 -0.6070
vn 0.1593 -0.5908 -0.7909
vn 0.0692 -0.3832 -0.9211
vn -0.0256 -0.1495 -0.9884
vn 0.9315 0.3554 -0.0779
vn 1.0000 -0.0000 -0.0000
vn -0.9315 -0.3553 0.0779
vn 0.3995 0.4494 -0.7990
vn -0.0003 0.2149 0.9766
vn -0.1187 0.0944 -0.9884
vn -0.3273 0.7241 -0.6071
vn -0.3271 0.7243 -0.6069
vn -0.3438 0.9300 0.1301
vn -0.3015 0.8738 0.3815
vn -0.2385 0.7586 0.6064
vn -0.0692 0.3832 0.9211
vn 0.2747 -0.5468 0.7910
vn 0.3270 -0.7243 0.6070
vn 0.3571 -0.8526 0.3816
vn 0.3629 -0.9227 0.1301
vn 0.3438 -0.9300 -0.1301
vn 0.2385 -0.7581 -0.6069
vn 0.2385 -0.7581 -0.6070
vn 0.1592 -0.5908 -0.7909
vn 0.9315 0.3552 -0.0779
vn 0.9314 0.3555 -0.0779
vn 0.9315 0.3553 -0.0778
vn -0.0000 -1.0000 -0.0000
vn -1.0000 -0.0000 -0.0000
vn -0.8377 0.5462 -0.0000
vn -1.0000 -0.0000 -0.0005
vn -0.9701 -0.0000 0.2425
vn 0.9312 0.3560 -0.0778
vn 0.7419 -0.6548 0.1444
vn 0.9612 -0.0000 0.2760
vn -0.0000 -0.2425 -0.9701
vn 0.0911 0.9726 -0.2139
vn 0.0912 0.9726 -0.2140
vn -0.2747 0.5468 -0.7910
vn -0.3270 0.7247 -0.6066
vn -0.3270 0.7243 -0.6070
vn -0.3270 0.7243 -0.6069
vn -0.3265 0.7253 -0.6061
vn -0.3570 0.8526 -0.3816
vn -0.3571 0.8526 -0.3815
vn -0.3440 0.9302 0.1278
vn -0.3013 0.8739 0.3815
vn -0.3014 0.8738 0.3815
vn -0.2397 0.7587 0.6057
vn -0.2384 0.7581 0.6070
vn 0.1183 -0.0945 0.9885
vn 0.2747 -0.5467 0.7910
vn 0.2745 -0.5467 0.7911
vn 0.3270 -0.7244 0.6069
vn 0.3572 -0.8526 0.3815
vn 0.3571 -0.8526 0.3815
vn 0.3571 -0.8527 0.3814
vn 0.3438 -0.9300 -0.1302
vn 0.2384 -0.7581 -0.6069
vn 0.2383 -0.7585 -0.6065
vn 0.2386 -0.7581 -0.6069
vn 0.2384 -0.7581 -0.6070
vn 0.1593 -0.5909 -0.7908
vn -0.9315 -0.3553 0.0778
vn -0.9315 -0.3554 0.0779
vn 0.3638 -0.9097 0.2003
vn -0.4240 -0.3180 0.8480
vn 0.6980 -0.7079 0.1080
vn 0.0003 -0.2149 -0.9766
vn 0.9777 -0.0000 0.2101
vn -0.3638 0.9097 -0.2003
vn -0.3270 0.7244 -0.6069
vn -0.3571 0.8526 -0.3816
vn -0.3564 0.8534 -0.3804
vn -0.3572 0.8526 -0.3814
vn -0.3439 0.9300 0.1301
vn -0.3439 0.9300 0.1302
vn -0.3438 0.9299 0.1305
vn -0.3014 0.8738 0.3816
vn -0.2385 0.7581 0.6070
vn 0.0257 0.1495 0.9884
vn 0.1186 -0.0945 0.9884
vn 0.1185 -0.0945 0.9885
vn 0.2747 -0.5468 0.7909
vn 0.2747 -0.5467 0.7909
vn 0.3270 -0.7244 0.6070
vn 0.3570 -0.8526 0.3815
vn 0.2385 -0.7582 -0.6069
vt 0.000000 0.000000
vt 0.958333 0.961539
vt 1.000000 0.692308
vt 0.958333 0.692307
vt 0.916667 0.692308
vt 0.916667 0.961539
vt 0.875000 0.961538
vt 0.875000 0.692307
vt 0.874999 0.692308
vt 0.833333 0.942307
vt 0.834984 0.942308
vt 0.833334 0.692308
vt 0.791667 0.961539
vt 0.822875 0.942307
vt 0.750000 0.961539
vt 0.791667 0.692308
vt 0.750000 0.692308
vt 0.708333 0.942308
vt 0.732049 0.942309
vt 0.666667 0.692308
vt 0.677526 0.961539
vt 0.677922 0.942309
vt 0.625000 0.942308
vt 0.663623 0.942308
vt 0.625000 0.692308
vt 0.583333 0.942308
vt 0.541666 0.692308
vt 0.541666 0.942308
vt 0.499999 0.942308
vt 0.500000 0.942308
vt 0.458333 0.692308
vt 0.458333 0.942308
vt 0.468855 0.961539
vt 0.499999 0.959099
vt 0.468212 0.955989
vt 0.416666 0.692308
vt 0.416666 0.942308
vt 0.375000 0.961538
vt 0.392612 0.942308
vt 0.333333 0.692309
vt 0.360904 0.942309
vt 0.302127 0.942308
vt 0.291667 0.961538
vt 0.250000 0.692307
vt 0.250000 0.961539
vt 0.208333 0.692308
vt 0.208333 0.961539
vt 0.166666 0.692307
vt 0.166666 0.961539
vt 0.128043 0.942308
vt 0.127683 0.946024
vt 0.124998 0.942308
vt 0.125000 0.692308
vt 0.083333 0.961539
vt 0.041666 0.961539
vt 0.083333 0.692308
vt 0.041666 0.692308
vt -0.000000 0.961539
vt -0.000000 0.692308
vt 0.958333 0.966667
vt 1.000000 0.933334
vt 0.958333 0.933333
vt 0.916667 0.966667
vt 0.875000 0.933333
vt 0.916667 0.933333
vt 0.833333 0.916667
vt 0.833333 0.922438
vt 0.834982 0.916667
vt 0.833333 0.966667
vt 0.833333 0.933334
vt 0.833331 0.933334
vt 0.822873 0.916667
vt 0.750000 0.966668
vt 0.791665 0.933334
vt 0.750000 0.933334
vt 0.708333 0.966667
vt 0.731244 0.933334
vt 0.677922 0.916667
vt 0.677527 0.933334
vt 0.625000 0.966667
vt 0.666667 0.933334
vt 0.665494 0.933334
vt 0.583333 0.916667
vt 0.583333 0.966667
vt 0.541666 0.916667
vt 0.541666 0.966667
vt 0.500000 0.966667
vt 0.500001 0.933334
vt 0.468214 0.928523
vt 0.458333 0.916667
vt 0.458333 0.966667
vt 0.416666 0.916667
vt 0.416666 0.966667
vt 0.375000 0.966667
vt 0.378219 0.933334
vt 0.333333 0.916667
vt 0.364185 0.933333
vt 0.291667 0.966667
vt 0.298942 0.933333
vt 0.250001 0.933333
vt 0.291668 0.933334
vt 0.208333 0.966667
vt 0.250000 0.933333
vt 0.208335 0.933333
vt 0.166666 0.933334
vt 0.166666 0.966667
vt 0.125000 0.966667
vt 0.166667 0.933334
vt 0.125000 0.933334
vt 0.127684 0.919887
vt 0.125000 0.916667
vt 0.125001 0.919887
vt 0.083334 0.933334
vt 0.041666 0.966667
vt 0.083334 0.933334
vt 0.041666 0.933334
vt -0.000000 0.966667
vt 0.041666 0.933333
vt 0.000000 0.933334
vt 1.000000 0.961539
vt 0.833335 0.948966
vt 0.833333 0.961538
vt 0.833332 0.692307
vt 0.812168 0.961539
vt 0.731243 0.961539
vt 0.708333 0.692308
vt 0.708335 0.942308
vt 0.708331 0.942308
vt 0.666667 0.961539
vt 0.665494 0.961539
vt 0.583333 0.692308
vt 0.500000 0.692307
vt 0.500000 0.961539
vt 0.375000 0.692307
vt 0.378217 0.961538
vt 0.364185 0.961538
vt 0.375001 0.692308
vt 0.333334 0.942309
vt 0.291666 0.692308
vt 0.298943 0.961539
vt 0.291667 0.692307
vt 0.125000 0.946023
vt 0.125000 0.961539
vt 0.125000 0.942308
vt 1.000000 0.966667
vt 0.875000 0.966667
vt 0.812168 0.933333
vt 0.791667 0.933334
vt 0.791667 0.966667
vt 0.732050 0.916667
vt 0.708333 0.916667
vt 0.666667 0.966667
vt 0.663622 0.916668
vt 0.625000 0.916667
vt 0.541666 0.966667
vt 0.500000 0.916667
vt 0.500000 0.931219
vt 0.500000 0.933334
vt 0.468856 0.933333
vt 0.375000 0.933334
vt 0.392612 0.916667
vt 0.360904 0.916667
vt 0.333333 0.966667
vt 0.291667 0.933333
vt 0.302126 0.916667
vt 0.250000 0.966667
vt 0.208334 0.933334
vt 0.128044 0.916667
vt 0.083333 0.966667
s 0
f 48/1/1 73/1/1 80/1/1
f 92/1/1 87/1/1 85/1/1
f 52/1/2 45/1/2 54/1/2
f 57/1/3 45/1/3 56/1/3
f 57/1/4 84/1/4 85/1/4
f 85/1/5 52/1/5 54/1/5
f 43/1/6 14/1/6 97/1/6
f 29/1/6 2/1/6 117/1/6
f 106/1/7 112/1/7 108/1/7
f 25/1/6 27/1/6 101/1/6
f 8/1/6 113/1/6 114/1/6
f 17/1/8 110/1/8 115/1/8
f 120/1/6 119/1/6 121/1/6
f 9/1/6 124/1/6 95/1/6
f 125/1/6 41/1/6 99/1/6
f 34/1/6 123/1/6 122/1/6
f 45/1/9 134/1/9 132/1/9
f 2/1/10 133/1/10 9/1/10
f 135/1/11 2/1/11 29/1/11
f 56/1/12 130/1/12 138/1/12
f 139/1/13 29/1/13 141/1/13
f 55/1/8 56/1/8 140/1/8
f 50/1/14 143/1/14 134/1/14
f 41/1/6 125/1/6 141/1/6
f 124/1/6 133/1/6 144/1/6
f 31/2/15 92/3/15 90/4/15
f 31/2/16 89/5/16 43/6/16
f 14/7/17 89/5/17 91/8/17
f 91/9/18 147/10/18 148/11/18
f 86/12/19 11/13/19 149/14/19
f 5/15/20 70/16/20 69/17/20
f 69/17/21 151/18/21 150/19/21
f 64/20/22 114/21/22 153/22/22
f 64/20/23 155/23/23 154/24/23
f 63/25/24 156/26/24 155/23/24
f 156/26/25 73/27/25 157/28/25
f 73/27/26 158/29/26 157/28/26
f 158/30/27 75/31/27 161/32/27
f 121/33/28 160/34/28 159/35/28
f 161/32/29 77/36/29 162/37/29
f 77/36/30 17/38/30 163/39/30
f 17/38/31 59/40/31 164/41/31
f 166/42/32 59/40/32 25/43/32
f 25/43/33 62/44/33 27/45/33
f 27/45/34 83/46/34 37/47/34
f 37/47/35 93/48/35 39/49/35
f 39/49/36 168/50/36 167/51/36
f 171/52/37 94/53/37 35/54/37
f 36/55/38 88/56/38 87/57/38
f 34/58/39 87/57/39 92/59/39
f 61/1/6 151/1/6 153/1/6
f 138/1/1 18/1/1 142/1/1
f 170/1/6 171/1/6 168/1/6
f 165/1/6 33/1/6 164/1/6
f 78/1/6 157/1/6 158/1/6
f 74/1/40 132/1/40 145/1/40
f 152/1/41 61/1/41 150/1/41
f 147/1/6 68/1/6 148/1/6
f 16/1/42 23/1/42 24/1/42
f 72/1/42 15/1/42 7/1/42
f 144/1/2 131/1/2 74/1/2
f 18/1/3 135/1/3 136/1/3
f 16/1/3 116/1/3 65/1/3
f 38/1/43 40/1/43 141/1/43
f 38/1/44 74/1/44 40/1/44
f 53/60/45 122/61/45 123/62/45
f 12/63/16 53/60/16 96/62/16
f 102/64/17 12/63/17 97/65/17
f 68/66/46 146/67/46 148/68/46
f 10/69/47 102/64/47 104/70/47
f 10/69/19 104/71/19 149/72/19
f 7/73/20 106/74/20 108/75/20
f 6/76/48 108/75/48 112/77/48
f 6/76/49 153/78/49 114/79/49
f 3/80/50 113/81/50 118/82/50
f 3/80/24 81/83/24 1/84/24
f 1/84/51 78/85/51 28/86/51
f 26/87/26 78/85/26 119/88/26
f 159/89/27 79/90/27 19/91/27
f 19/91/29 32/92/29 20/93/29
f 22/94/52 32/92/52 115/95/52
f 33/96/53 22/94/53 111/97/53
f 23/98/54 33/96/54 109/99/54
f 101/100/55 23/98/55 105/101/55
f 42/102/56 101/103/56 100/104/56
f 98/105/6 126/105/6 44/106/6
f 46/107/57 126/108/57 127/109/57
f 167/110/58 171/111/58 169/112/58
f 128/113/59 46/107/59 127/109/59
f 47/114/38 128/115/38 129/116/38
f 49/117/39 129/118/39 122/119/39
f 85/1/60 88/1/60 94/1/60
f 85/1/40 94/1/40 93/1/40
f 90/1/1 92/1/1 54/1/1
f 89/1/1 90/1/1 54/1/1
f 85/1/1 93/1/1 83/1/1
f 85/1/1 83/1/1 62/1/1
f 91/1/1 89/1/1 54/1/1
f 86/1/1 91/1/1 54/1/1
f 57/1/1 85/1/1 62/1/1
f 57/1/61 62/1/61 60/1/61
f 86/1/1 54/1/1 48/1/1
f 70/1/1 86/1/1 48/1/1
f 57/1/1 60/1/1 59/1/1
f 57/1/1 59/1/1 82/1/1
f 69/1/1 70/1/1 48/1/1
f 67/1/1 69/1/1 48/1/1
f 57/1/1 82/1/1 77/1/1
f 57/1/1 77/1/1 75/1/1
f 64/1/1 67/1/1 48/1/1
f 63/1/1 64/1/1 48/1/1
f 48/1/1 57/1/1 75/1/1
f 48/1/40 75/1/40 71/1/40
f 80/1/1 63/1/1 48/1/1
f 48/1/62 71/1/62 73/1/62
f 85/1/1 54/1/1 92/1/1
f 87/1/1 88/1/1 85/1/1
f 45/1/2 48/1/2 54/1/2
f 52/1/8 50/1/8 45/1/8
f 57/1/3 48/1/3 45/1/3
f 56/1/63 55/1/63 57/1/63
f 57/1/4 55/1/4 84/1/4
f 85/1/5 84/1/5 52/1/5
f 103/1/6 104/1/6 102/1/6
f 97/1/6 96/1/6 31/1/6
f 14/1/6 103/1/6 102/1/6
f 97/1/6 31/1/6 43/1/6
f 14/1/6 102/1/6 97/1/6
f 117/1/64 99/1/64 41/1/64
f 2/1/65 9/1/65 95/1/65
f 2/1/66 95/1/66 116/1/66
f 117/1/6 41/1/6 29/1/6
f 2/1/67 116/1/67 117/1/67
f 106/1/6 107/1/6 11/1/6
f 106/1/6 11/1/6 5/1/6
f 106/1/68 5/1/68 112/1/68
f 39/1/6 98/1/6 100/1/6
f 37/1/6 39/1/6 100/1/6
f 105/1/6 109/1/6 25/1/6
f 37/1/6 100/1/6 101/1/6
f 27/1/6 37/1/6 101/1/6
f 101/1/6 105/1/6 25/1/6
f 8/1/6 118/1/6 113/1/6
f 17/1/6 111/1/6 110/1/6
f 126/1/6 98/1/6 39/1/6
f 126/1/6 39/1/6 30/1/6
f 127/1/6 126/1/6 30/1/6
f 127/1/6 30/1/6 35/1/6
f 128/1/6 127/1/6 35/1/6
f 128/1/6 35/1/6 36/1/6
f 129/1/6 128/1/6 36/1/6
f 129/1/6 36/1/6 34/1/6
f 122/1/6 129/1/6 34/1/6
f 31/1/6 96/1/6 123/1/6
f 34/1/6 31/1/6 123/1/6
f 132/1/69 130/1/69 45/1/69
f 45/1/69 50/1/69 134/1/69
f 2/1/70 131/1/70 133/1/70
f 135/1/8 131/1/8 2/1/8
f 29/1/6 137/1/6 136/1/6
f 29/1/71 136/1/71 135/1/71
f 56/1/12 45/1/12 130/1/12
f 29/1/8 41/1/8 141/1/8
f 139/1/6 137/1/6 29/1/6
f 142/1/72 143/1/72 84/1/72
f 142/1/73 84/1/73 55/1/73
f 140/1/73 142/1/73 55/1/73
f 56/1/6 138/1/6 140/1/6
f 52/1/14 84/1/14 143/1/14
f 50/1/6 52/1/6 143/1/6
f 143/1/6 145/1/6 134/1/6
f 124/1/6 9/1/6 133/1/6
f 31/2/45 34/120/45 92/3/45
f 31/2/16 90/4/16 89/5/16
f 14/7/74 43/6/74 89/5/74
f 148/11/75 146/121/75 103/122/75
f 103/122/76 14/7/76 91/9/76
f 91/9/77 86/123/77 147/10/77
f 148/11/78 103/122/78 91/9/78
f 149/14/79 147/10/79 86/12/79
f 86/12/80 70/16/80 11/13/80
f 11/13/19 107/124/19 149/14/19
f 5/15/20 11/13/20 70/16/20
f 112/125/48 5/15/48 69/17/48
f 69/17/48 67/126/48 151/18/48
f 151/18/64 152/127/64 150/19/64
f 150/19/81 112/125/81 69/17/81
f 151/128/49 67/126/49 64/20/49
f 64/20/82 8/129/82 114/21/82
f 153/22/83 151/128/83 64/20/83
f 118/130/84 8/129/84 64/20/84
f 64/20/23 63/25/23 155/23/23
f 154/24/85 118/130/85 64/20/85
f 63/25/24 80/131/24 156/26/24
f 156/26/51 80/131/51 73/27/51
f 73/27/26 71/132/26 158/29/26
f 158/30/27 71/132/27 75/31/27
f 121/33/86 119/133/86 160/34/86
f 161/32/29 75/31/29 77/36/29
f 163/39/87 162/37/87 77/36/87
f 77/36/52 82/134/52 17/38/52
f 17/38/88 115/135/88 163/39/88
f 164/41/89 111/136/89 17/38/89
f 17/38/89 82/137/89 59/40/89
f 59/40/53 165/138/53 164/41/53
f 166/42/90 165/138/90 59/40/90
f 59/40/91 60/139/91 25/43/91
f 25/43/92 109/140/92 166/42/92
f 25/43/33 60/141/33 62/44/33
f 27/45/93 62/44/93 83/46/93
f 37/47/35 83/46/35 93/48/35
f 169/142/94 30/143/94 39/49/94
f 39/49/57 93/48/57 94/53/57
f 94/53/95 170/144/95 168/50/95
f 167/51/96 169/142/96 39/49/96
f 39/49/97 94/53/97 168/50/97
f 94/53/59 88/56/59 35/54/59
f 35/54/37 30/143/37 169/142/37
f 171/52/6 170/52/6 94/53/6
f 35/54/98 169/142/98 171/52/98
f 36/55/38 35/54/38 88/56/38
f 34/58/39 36/55/39 87/57/39
f 61/1/6 152/1/6 151/1/6
f 130/1/40 132/1/40 74/1/40
f 18/1/40 40/1/40 142/1/40
f 130/1/1 74/1/1 66/1/1
f 130/1/1 66/1/1 18/1/1
f 142/1/6 140/1/6 138/1/6
f 138/1/1 130/1/1 18/1/1
f 165/1/6 166/1/6 33/1/6
f 58/1/6 154/1/6 155/1/6
f 162/1/6 163/1/6 32/1/6
f 162/1/6 32/1/6 79/1/6
f 161/1/6 162/1/6 79/1/6
f 158/1/64 161/1/64 79/1/64
f 81/1/6 58/1/6 155/1/6
f 81/1/6 155/1/6 156/1/6
f 158/1/6 79/1/6 76/1/6
f 78/1/6 81/1/6 156/1/6
f 78/1/6 156/1/6 157/1/6
f 158/1/6 76/1/6 78/1/6
f 143/1/62 142/1/62 40/1/62
f 143/1/1 40/1/1 74/1/1
f 132/1/6 134/1/6 145/1/6
f 145/1/1 143/1/1 74/1/1
f 147/1/6 149/1/6 68/1/6
f 12/1/42 72/1/42 38/1/42
f 65/1/42 6/1/42 4/1/42
f 65/1/42 4/1/42 3/1/42
f 53/1/99 12/1/99 38/1/99
f 49/1/42 53/1/42 38/1/42
f 16/1/42 65/1/42 3/1/42
f 16/1/100 3/1/100 1/1/100
f 47/1/99 49/1/99 38/1/99
f 51/1/42 47/1/42 38/1/42
f 16/1/42 1/1/42 28/1/42
f 16/1/42 28/1/42 26/1/42
f 46/1/42 51/1/42 38/1/42
f 44/1/42 46/1/42 38/1/42
f 16/1/42 26/1/42 19/1/42
f 16/1/42 19/1/42 20/1/42
f 42/1/42 44/1/42 38/1/42
f 24/1/42 42/1/42 38/1/42
f 16/1/42 20/1/42 22/1/42
f 16/1/42 22/1/42 21/1/42
f 24/1/42 38/1/42 16/1/42
f 16/1/42 21/1/42 23/1/42
f 72/1/100 12/1/100 13/1/100
f 72/1/42 13/1/42 10/1/42
f 6/1/42 65/1/42 72/1/42
f 7/1/100 6/1/100 72/1/100
f 72/1/42 10/1/42 15/1/42
f 131/1/8 135/1/8 66/1/8
f 72/1/2 65/1/2 116/1/2
f 116/1/63 95/1/63 124/1/63
f 72/1/2 116/1/2 124/1/2
f 131/1/101 66/1/101 74/1/101
f 74/1/102 72/1/102 124/1/102
f 74/1/103 124/1/103 144/1/103
f 144/1/6 133/1/6 131/1/6
f 18/1/104 66/1/104 135/1/104
f 16/1/104 117/1/104 116/1/104
f 117/1/4 16/1/4 38/1/4
f 137/1/6 139/1/6 141/1/6
f 125/1/6 99/1/6 117/1/6
f 136/1/6 137/1/6 141/1/6
f 18/1/4 136/1/4 141/1/4
f 141/1/105 125/1/105 117/1/105
f 40/1/106 18/1/106 141/1/106
f 141/1/106 117/1/106 38/1/106
f 38/1/44 72/1/44 74/1/44
f 53/60/15 49/145/15 122/61/15
f 96/62/16 97/65/16 12/63/16
f 53/60/6 123/62/6 96/62/6
f 102/64/17 13/146/17 12/63/17
f 10/69/107 13/146/107 102/64/107
f 107/147/108 106/148/108 15/149/108
f 146/67/79 68/66/79 149/72/79
f 149/72/109 107/147/109 15/149/109
f 103/71/110 146/67/110 149/72/110
f 149/72/80 15/149/80 10/69/80
f 104/71/6 103/71/6 149/72/6
f 7/73/20 15/149/20 106/74/20
f 150/150/111 61/151/111 6/76/111
f 6/76/112 7/73/112 108/75/112
f 112/77/113 150/150/113 6/76/113
f 113/81/83 4/152/83 6/76/83
f 6/76/83 61/151/83 153/78/83
f 114/79/114 113/81/114 6/76/114
f 154/153/23 58/154/23 3/80/23
f 3/80/23 4/152/23 113/81/23
f 118/82/115 154/153/115 3/80/115
f 3/80/24 58/154/24 81/83/24
f 1/84/51 81/83/51 78/85/51
f 26/87/26 28/155/26 78/85/26
f 78/85/26 76/156/26 160/157/26
f 119/88/6 120/158/6 26/87/6
f 78/85/116 160/157/116 119/88/116
f 159/89/117 160/157/117 76/156/117
f 19/91/117 26/87/117 120/158/117
f 19/91/27 120/158/27 121/159/27
f 159/89/117 76/156/117 79/90/117
f 19/91/118 121/159/118 159/89/118
f 19/91/29 79/90/29 32/92/29
f 115/95/30 110/160/30 22/94/30
f 22/94/119 20/93/119 32/92/119
f 32/92/120 163/161/120 115/95/120
f 111/97/89 164/162/89 33/96/89
f 33/96/89 21/163/89 22/94/89
f 22/94/121 110/160/121 111/97/121
f 109/99/122 105/164/122 23/98/122
f 23/98/91 21/163/91 33/96/91
f 33/96/91 166/165/91 109/99/91
f 101/100/33 24/166/33 23/98/33
f 42/102/56 24/166/56 101/103/56
f 44/106/35 42/102/35 100/167/35
f 44/106/35 100/167/35 98/105/35
f 46/107/123 44/106/123 126/108/123
f 167/110/58 168/168/58 171/111/58
f 128/113/59 51/169/59 46/107/59
f 47/114/38 51/169/38 128/115/38
f 49/117/39 47/114/39 129/118/39
