# Blender 5.2.0 LTS
# www.blender.org
o PROPOSED__C048__WITH_INTERNAL_ROOT_EMBED_V1
v 42.842628 51.831894 118.432053
v 81.973137 56.033688 90.694580
v 43.578857 57.994171 119.769661
v 80.176941 61.266426 88.953278
v 44.836197 54.331257 120.988571
v 71.084000 60.491222 96.727814
v 79.483833 54.147793 87.595100
v 72.745483 55.650940 98.338516
v 81.294235 55.519352 89.849266
v 79.950638 61.094982 88.671509
v 79.498039 60.752090 88.107964
v 70.405098 59.976887 95.882500
v 72.066582 55.136604 97.493202
v 81.294235 55.519352 89.849266
v 79.950638 61.094982 88.671509
v 79.950638 61.094982 88.671509
v 79.857277 59.705540 88.456230
v 72.066582 55.136608 97.493202
v 72.519180 55.479496 98.056747
v 70.857697 60.319778 96.446045
v 72.529022 59.242359 94.623627
v 70.710449 59.087322 96.178520
v 70.857697 60.319775 96.446045
vn 0.7642 0.0483 -0.6432
vn -0.0000 -0.0000 1.0000
vn -0.7642 -0.0483 0.6432
vn 0.4338 -0.7589 0.4857
vn 0.2425 -0.0000 0.9701
vn -0.4472 -0.0000 -0.8944
vn 0.5658 0.4286 0.7044
vn -0.0000 0.7071 -0.7071
vn -0.3235 0.9012 -0.2885
vn -0.0000 -1.0000 -0.0000
vn -0.7642 -0.0483 0.6431
vn 0.2958 -0.9029 0.3118
vn 0.4092 -0.7912 0.4544
vn 0.3097 -0.9022 0.3002
vn 0.3143 -0.9019 0.2963
vn 0.5657 0.4286 0.7044
vn -0.5658 -0.4286 -0.7044
vn -0.6416 0.1594 -0.7503
vn -0.6419 0.1770 -0.7461
vn -0.6431 0.2350 -0.7288
vn -0.5657 -0.4286 -0.7044
vn -1.0000 -0.0000 -0.0000
vn -0.0000 1.0000 -0.0000
s 0
f 14//1 7//1 17//1
f 10//2 15//2 16//2
f 5//3 3//3 1//3
f 1//4 14//4 18//4
f 10//5 3//5 20//5
f 3//6 10//6 23//6
f 4//7 8//7 2//7
f 11//8 14//8 17//8
f 2//1 11//1 4//1
f 11//9 23//9 15//9
f 13//10 8//10 19//10
f 22//11 23//11 12//11
f 8//12 9//12 2//12
f 19//13 5//13 1//13
f 1//14 7//14 14//14
f 18//15 19//15 1//15
f 3//7 5//7 19//7
f 3//16 19//16 20//16
f 20//2 15//2 10//2
f 22//17 21//17 17//17
f 17//18 7//18 1//18
f 22//19 17//19 1//19
f 23//20 22//20 1//20
f 23//20 1//20 3//20
f 10//2 16//2 23//2
f 4//7 6//7 8//7
f 22//21 12//21 11//21
f 9//22 13//22 18//22
f 9//2 18//2 14//2
f 21//17 22//17 11//17
f 17//17 21//17 11//17
f 11//2 9//2 14//2
f 2//1 9//1 11//1
f 20//9 6//9 4//9
f 11//9 12//9 23//9
f 15//9 20//9 4//9
f 23//2 16//2 15//2
f 15//23 4//23 11//23
f 8//3 6//3 20//3
f 19//22 18//22 13//22
f 8//3 20//3 19//3
f 8//12 13//12 9//12
