# Blender 5.2.0 LTS
# www.blender.org
o PROPOSED__RIGHT_LOWER_EYE_FLANGE__FLANGE_WITH_ROOT_EMBED_V1
v 62.891312 59.349972 122.779701
v 65.423912 65.317055 121.277306
v 65.849762 64.742874 121.396248
v 65.598282 65.002991 121.344604
v 65.338547 65.663666 121.198936
v 61.950901 58.029194 128.472778
v 65.347992 66.019211 121.114830
v 66.161217 64.554428 121.428711
v 61.995579 58.304119 129.640015
v 66.088043 66.209129 127.621468
v 66.511429 64.450508 121.439781
v 66.399498 66.020683 127.653931
v 66.876526 64.438187 121.428711
v 66.749710 65.916763 127.665001
v 67.114807 65.904442 127.653931
v 62.950882 59.716534 124.336014
v 62.950882 59.716537 124.336006
v 57.585957 68.945587 126.068672
v 65.806778 66.285965 126.791672
v 65.541595 67.210541 126.172821
v 65.835953 67.852516 126.010345
v 66.058258 66.025848 126.843315
v 66.369713 65.837402 126.875778
v 65.645218 67.550774 126.088722
v 66.719925 65.733482 126.886848
v 66.421707 68.262306 125.891411
v 67.085022 65.721161 126.875778
v 66.776810 68.342422 125.858948
v 59.981354 66.627563 121.176964
v 67.141907 68.330101 125.847878
v 66.100800 68.095207 125.943047
v 60.040924 66.994133 122.733269
v 65.907196 66.903877 120.885063
v 66.228104 67.070976 120.833420
v 66.583206 67.151093 120.800957
v 57.630634 69.220505 127.235901
v 65.662193 66.783310 127.502525
v 66.948303 67.138771 120.789886
v 65.836563 66.469246 127.569824
v 65.451614 66.359444 121.030731
v 65.642349 66.661186 120.952362
v 65.576828 67.129929 127.424156
v 57.600849 69.037231 126.457748
v 65.689896 67.825699 127.255951
v 65.880630 68.127441 127.177574
v 65.586273 67.485466 127.340050
v 66.145477 68.370132 127.110275
v 66.466385 68.537231 127.058640
v 66.821487 68.617348 127.026176
v 67.186584 68.605026 127.015106
v 65.632408 66.600029 126.724373
v 76.842964 63.570835 126.597527
v 67.231628 64.518303 121.396248
v 67.790817 66.151657 127.569832
v 67.552536 64.685402 121.344612
v 68.055664 66.394348 127.502525
v 67.817383 64.928093 121.277306
v 68.008118 65.229836 121.198936
v 67.469910 65.984558 127.621468
v 68.111740 65.570068 121.114838
v 76.887642 63.845760 127.764755
v 68.121185 65.925613 121.030731
v 68.035820 66.272224 120.952362
v 74.060364 63.506203 121.373253
v 67.492119 68.226181 125.858948
v 67.803574 68.037743 125.891411
v 74.119934 63.872765 122.929565
v 74.119934 63.872768 122.929558
v 68.229424 67.463554 126.010353
v 67.440125 65.801277 126.843315
v 67.761032 65.968376 126.791679
v 72.478020 74.487228 124.193413
v 68.025879 66.211067 126.724380
v 76.857857 63.662479 126.986603
v 72.522697 74.762146 125.360641
v 68.359467 67.391869 127.255951
v 67.609970 66.846413 120.833420
v 68.246399 66.696091 127.424156
v 67.706696 66.746361 120.853279
v 68.350021 67.036324 127.340057
v 67.298515 67.034851 120.800957
v 68.274101 67.738480 127.177582
v 67.861450 66.586288 120.885063
v 67.973114 66.385170 120.928154
v 67.848251 68.312668 127.058640
v 68.099739 68.052544 127.110283
v 71.150406 70.783791 119.770515
v 67.536797 68.501106 127.026176
v 71.209976 71.150360 121.326820
v 68.320236 66.853043 126.561905
v 68.069946 67.869263 126.332130
v 68.216614 66.512810 126.646004
v 72.492912 74.578873 124.582489
v 72.492905 74.578865 124.582489
v 76.857857 63.662479 126.986603
v 68.320236 66.853043 126.561905
v 68.320236 66.853043 126.561905
v 68.216614 66.512810 126.646004
v 68.025879 66.211067 126.724380
v 76.857857 63.662479 126.986603
v 67.761032 65.968376 126.791679
v 67.440125 65.801277 126.843315
v 67.085022 65.721161 126.875778
v 66.719925 65.733482 126.886848
v 66.369713 65.837402 126.875778
v 57.600849 69.037224 126.457748
v 65.547043 66.946648 126.646004
v 65.547043 66.946648 126.646004
v 65.553337 67.183670 126.589935
v 66.058258 66.025848 126.843315
v 65.806778 66.285965 126.791672
v 65.603951 66.715569 126.698250
v 65.632408 66.600029 126.724373
v 68.329681 67.208588 126.477798
v 68.329681 67.208588 126.477798
v 72.492912 74.578865 124.582489
v 67.895279 68.049934 126.296265
v 68.069954 67.869263 126.332130
v 68.214050 67.609711 126.387749
v 76.857857 63.662479 126.986603
v 76.857857 63.662479 126.986603
v 76.584061 63.683510 126.580894
v 76.584061 63.683510 126.580894
v 62.064304 58.280411 128.409271
v 76.562721 63.675564 126.583588
v 57.600853 69.037224 126.457741
v 57.844856 68.832924 126.085297
v 72.364616 74.236023 124.256920
v 72.492912 74.578865 124.582481
v 72.314865 74.217506 124.263184
v 72.492912 74.578865 124.582489
v 65.532150 66.854996 126.256927
v 65.580933 66.656937 126.301712
v 65.541595 67.210541 126.172821
v 65.532150 66.855003 126.256927
v 65.537544 67.058167 126.208870
v 65.645218 67.550774 126.088722
v 65.835953 67.852516 126.010345
v 66.100800 68.095207 125.943047
v 66.421707 68.262306 125.891411
v 66.776810 68.342422 125.858948
v 67.141907 68.330101 125.847878
v 67.492119 68.226181 125.858948
v 67.803574 68.037743 125.891411
v 67.902336 67.935593 125.911690
v 68.229424 67.463554 126.010353
v 68.185921 67.541916 125.993561
v 68.314789 67.116943 126.088722
v 68.229424 67.463554 126.010353
v 68.314789 67.116943 126.088722
vn -0.0373 -0.2291 -0.9727
vn -0.0373 -0.2292 -0.9727
vn 0.3637 -0.9097 0.2003
vn -0.9308 -0.3464 0.1172
vn -0.3637 0.9097 -0.2003
vn 0.9308 0.3464 -0.1172
vn -1.0000 -0.0000 -0.0000
vn -0.0000 -0.0000 1.0000
vn 1.0000 -0.0000 -0.0000
vn -0.0000 1.0000 -0.0000
vn 0.3087 -0.9161 -0.2559
vn -0.0000 -0.0000 -1.0000
vn -0.8491 -0.4122 -0.3302
vn -0.7071 0.7071 -0.0000
vn -0.3420 0.7112 -0.6142
vn 0.8158 0.2073 -0.5398
vn -0.9923 0.1240 -0.0000
vn 0.2835 0.9309 -0.2301
vn 0.5219 0.8256 -0.2144
vn 0.7247 0.6640 -0.1841
vn 0.8781 0.4572 -0.1413
vn 0.9716 0.2193 -0.0888
vn 0.9990 -0.0337 -0.0303
vn 0.9582 -0.2844 0.0303
vn 0.8522 -0.5156 0.0888
vn 0.6881 -0.7117 0.1413
vn 0.4771 -0.8593 0.1841
vn 0.2336 -0.9484 0.2144
vn -0.0259 -0.9728 0.2301
vn -0.2835 -0.9309 0.2301
vn -0.5219 -0.8256 0.2144
vn -0.7247 -0.6640 0.1841
vn -0.8781 -0.4572 0.1413
vn -0.9716 -0.2192 0.0888
vn -0.9990 0.0337 0.0303
vn -0.9582 0.2844 -0.0303
vn -0.8522 0.5156 -0.0888
vn -0.6881 0.7117 -0.1413
vn -0.4771 0.8594 -0.1841
vn -0.2336 0.9484 -0.2144
vn 0.0258 0.9728 -0.2301
vn -0.0372 -0.2291 -0.9727
vn -0.0375 -0.2292 -0.9727
vn 0.0372 0.2291 0.9727
vn 0.0373 0.2291 0.9727
vn 0.2424 0.9697 -0.0303
vn 0.2835 0.9310 -0.2301
vn 0.8780 0.4572 -0.1413
vn 0.9716 0.2192 -0.0888
vn -0.7246 -0.6642 0.1841
vn -0.9582 0.2843 -0.0303
vn -0.4771 0.8593 -0.1842
vn -0.2336 0.9484 -0.2145
vn 0.0259 0.9728 -0.2301
vn -0.0374 -0.2292 -0.9727
vn -0.0375 -0.2290 -0.9727
vn -0.9962 -0.0733 0.0466
vn -0.0000 -1.0000 -0.0000
vn 0.3087 -0.9161 -0.2558
vn 0.4823 -0.8760 -0.0000
vn -0.6374 -0.3308 -0.6959
vn -0.1942 0.3689 -0.9090
vn -0.3419 0.7111 -0.6143
vn 0.9717 0.2189 -0.0888
vn 0.9981 -0.0000 -0.0624
vn -0.0258 -0.9728 0.2301
vn -0.0000 -0.1644 0.9864
vn -0.7246 -0.6641 0.1841
vn -0.7247 -0.6641 0.1841
vn -0.8780 -0.4573 0.1413
vn -0.8780 -0.4572 0.1413
vn -0.4771 0.8593 -0.1841
vn -0.0371 -0.2291 -0.9727
vn -0.0371 -0.2292 -0.9727
vn 0.0372 0.2290 0.9727
vn 0.0375 0.2292 0.9727
vn 0.0371 0.2291 0.9727
vn -0.3638 0.9097 -0.2003
vn -0.0000 0.0624 0.9981
vn -0.3637 0.9097 -0.2004
vn -0.9923 -0.0000 -0.1240
vn 0.9308 0.3463 -0.1172
vn 0.7247 0.6641 -0.1841
vn 0.9990 -0.0339 -0.0303
vn 0.9990 -0.0329 -0.0303
vn 0.9582 -0.2843 0.0303
vn 0.4771 -0.8593 0.1842
vn -0.5219 -0.8256 0.2145
vn -0.7247 -0.6640 0.1842
vn -0.8781 -0.4571 0.1413
vn -0.8780 -0.4571 0.1419
vn -0.9716 -0.2193 0.0888
vt 0.000000 0.000000
vt 0.958333 0.692307
vt 1.000000 0.961538
vt 1.000000 0.692307
vt 0.916667 0.961539
vt 0.916667 0.692307
vt 0.875000 0.961538
vt 0.875000 0.692307
vt 0.833333 0.692307
vt 0.791667 0.942306
vt 0.815477 0.942307
vt 0.791667 0.942307
vt 0.791667 0.692307
vt 0.767857 0.942308
vt 0.750000 0.942307
vt 0.708333 0.692308
vt 0.708333 0.942308
vt 0.666667 0.692307
vt 0.666667 0.942307
vt 0.625000 0.692308
vt 0.625000 0.942307
vt 0.583333 0.692308
vt 0.583333 0.942307
vt 0.541666 0.692307
vt 0.541666 0.942308
vt 0.541666 0.942307
vt 0.500000 0.692308
vt 0.500000 0.942307
vt 0.458333 0.942308
vt 0.458333 0.692308
vt 0.416666 0.942308
vt 0.375000 0.692308
vt 0.375000 0.961538
vt 0.400303 0.942308
vt 0.348318 0.692307
vt 0.343729 0.942308
vt 0.333333 0.692307
vt 0.291667 0.942307
vt 0.333332 0.942308
vt 0.291667 0.942307
vt 0.291667 0.692307
vt 0.250000 0.961539
vt 0.250000 0.692308
vt 0.208333 0.961538
vt 0.166666 0.692308
vt 0.208333 0.692307
vt 0.125000 0.692308
vt 0.166666 0.961539
vt 0.083333 0.692307
vt 0.125000 0.961538
vt 0.041666 0.961538
vt 0.041666 0.692307
vt -0.000000 0.961538
vt -0.000000 0.692307
vt 0.958333 0.933333
vt 1.000000 0.966666
vt 1.000000 0.933333
vt 0.916667 0.933333
vt 0.958333 0.966666
vt 0.875000 0.966667
vt 0.874999 0.933333
vt 0.833333 0.933333
vt 0.791667 0.933333
vt 0.833333 0.966666
vt 0.791667 0.916667
vt 0.750000 0.966666
vt 0.763889 0.933334
vt 0.708333 0.916667
vt 0.750000 0.916666
vt 0.666667 0.966667
vt 0.708333 0.966667
vt 0.666667 0.916666
vt 0.625000 0.966666
vt 0.625000 0.916667
vt 0.583333 0.966666
vt 0.541666 0.916666
vt 0.583333 0.916667
vt 0.500000 0.916667
vt 0.541666 0.966666
vt 0.458333 0.966667
vt 0.500000 0.966667
vt 0.416666 0.966666
vt 0.458333 0.916667
vt 0.416666 0.916667
vt 0.400303 0.916667
vt 0.403940 0.933334
vt 0.333333 0.966667
vt 0.375000 0.933333
vt 0.340566 0.933333
vt 0.291667 0.933334
vt 0.333333 0.916666
vt 0.291667 0.916667
vt 0.250000 0.933333
vt 0.291667 0.966667
vt 0.208333 0.966666
vt 0.249999 0.933333
vt 0.208333 0.933333
vt 0.166667 0.933333
vt 0.166666 0.966666
vt 0.125001 0.933333
vt 0.125000 0.966666
vt 0.083333 0.966666
vt 0.125000 0.933333
vt 0.083333 0.933333
vt 0.041666 0.966667
vt 0.083334 0.933333
vt 0.041666 0.933334
vt -0.000000 0.966666
vt 0.041666 0.933334
vt -0.000000 0.933333
vt 0.958333 0.961538
vt 0.833333 0.961538
vt 0.819445 0.961538
vt 0.763889 0.961539
vt 0.791667 0.961537
vt 0.750000 0.692307
vt 0.416666 0.692308
vt 0.400641 0.692307
vt 0.403940 0.961539
vt 0.333333 0.942307
vt 0.340565 0.961538
vt 0.291667 0.961538
vt 0.083333 0.961539
vt 0.916667 0.966666
vt 0.791667 0.966667
vt 0.819443 0.933333
vt 0.815476 0.916667
vt 0.791666 0.933333
vt 0.767858 0.916667
vt 0.375000 0.933333
vt 0.375000 0.966667
vt 0.343729 0.916666
vt 0.291667 0.933334
vt 0.250000 0.966667
s 0
f 2/1/1 4/1/1 1/1/1
f 64/1/2 83/1/2 79/1/2
f 1/1/3 67/1/3 16/1/3
f 17/1/4 29/1/4 1/1/4
f 32/1/5 87/1/5 29/1/5
f 64/1/6 89/1/6 68/1/6
f 94/1/7 43/1/7 106/1/7
f 90/1/8 92/1/8 98/1/8
f 100/1/8 74/1/8 95/1/8
f 108/1/8 109/1/8 107/1/8
f 115/1/8 90/1/8 96/1/8
f 95/1/9 93/1/9 116/1/9
f 91/1/10 118/1/10 117/1/10
f 74/1/8 120/1/8 121/1/8
f 68/1/11 122/1/11 125/1/11
f 43/1/12 126/1/12 106/1/12
f 32/1/13 16/1/13 124/1/13
f 43/1/14 129/1/14 126/1/14
f 89/1/15 127/1/15 130/1/15
f 122/1/16 89/1/16 128/1/16
f 129/1/17 93/1/17 121/1/17
f 8/2/18 25/3/18 11/4/18
f 22/5/19 8/2/19 3/6/19
f 19/7/20 3/6/20 4/8/20
f 2/9/21 19/7/21 4/8/21
f 2/9/22 132/10/22 133/11/22
f 135/12/23 5/13/23 136/14/23
f 134/15/24 40/16/24 137/17/24
f 137/17/25 41/18/25 138/19/25
f 138/19/26 33/20/26 139/21/26
f 139/21/27 34/22/27 140/23/27
f 140/23/28 35/24/28 141/25/28
f 141/26/29 38/27/29 142/28/29
f 38/27/30 143/29/30 142/28/30
f 81/30/31 144/31/31 143/29/31
f 83/32/32 91/33/32 145/34/32
f 91/33/33 84/35/33 147/36/33
f 63/37/34 148/38/34 149/39/34
f 150/40/35 62/41/35 90/42/35
f 60/43/36 92/44/36 90/42/36
f 57/45/37 92/44/37 58/46/37
f 55/47/38 73/48/38 57/45/38
f 53/49/39 71/50/39 55/47/39
f 27/51/40 53/49/40 13/52/40
f 25/53/41 13/52/41 11/54/41
f 6/1/42 18/1/42 124/1/42
f 69/1/8 146/1/8 149/1/8
f 26/1/8 139/1/8 140/1/8
f 132/1/8 135/1/8 133/1/8
f 150/1/8 149/1/8 148/1/8
f 52/1/43 125/1/43 122/1/43
f 36/1/44 39/1/44 37/1/44
f 86/1/45 82/1/45 61/1/45
f 9/1/3 52/1/3 61/1/3
f 6/1/4 36/1/4 18/1/4
f 106/1/9 18/1/9 36/1/9
f 61/1/46 52/1/46 121/1/46
f 105/55/47 14/56/47 104/57/47
f 110/58/19 12/59/19 105/55/19
f 39/60/20 110/58/20 111/61/20
f 113/62/48 39/60/48 111/61/48
f 107/63/49 37/64/49 135/65/49
f 46/66/23 107/63/23 109/67/23
f 24/68/24 46/66/24 20/69/24
f 24/68/25 45/70/25 44/71/25
f 21/72/26 47/73/26 45/70/26
f 31/74/27 48/75/27 47/73/27
f 28/76/28 48/75/28 26/77/28
f 30/78/29 49/79/29 28/76/29
f 30/78/30 88/80/30 50/81/30
f 85/82/31 65/83/31 66/84/31
f 85/82/50 145/85/50 117/86/50
f 82/87/33 118/88/33 119/89/33
f 115/90/34 69/91/34 150/92/34
f 97/93/35 76/94/35 115/90/35
f 78/95/51 97/96/51 98/97/51
f 99/98/37 78/95/37 98/97/37
f 56/99/38 101/100/38 54/101/38
f 59/102/52 101/103/52 102/104/52
f 15/105/53 102/106/53 103/107/53
f 14/108/54 103/109/54 104/110/54
f 63/1/55 84/1/55 64/1/55
f 87/1/42 79/1/42 77/1/42
f 87/1/42 77/1/42 81/1/42
f 62/1/42 63/1/42 64/1/42
f 60/1/42 62/1/42 64/1/42
f 87/1/42 81/1/42 38/1/42
f 87/1/42 38/1/42 35/1/42
f 58/1/42 60/1/42 64/1/42
f 57/1/42 58/1/42 64/1/42
f 29/1/42 87/1/42 35/1/42
f 29/1/1 35/1/1 34/1/1
f 57/1/42 64/1/42 1/1/42
f 55/1/56 57/1/56 1/1/56
f 29/1/42 34/1/42 33/1/42
f 29/1/42 33/1/42 41/1/42
f 53/1/1 55/1/1 1/1/1
f 13/1/42 53/1/42 1/1/42
f 29/1/42 41/1/42 40/1/42
f 29/1/42 40/1/42 7/1/42
f 11/1/42 13/1/42 1/1/42
f 8/1/42 11/1/42 1/1/42
f 1/1/42 29/1/42 7/1/42
f 1/1/42 7/1/42 5/1/42
f 3/1/1 8/1/1 1/1/1
f 4/1/1 3/1/1 1/1/1
f 1/1/42 5/1/42 2/1/42
f 79/1/42 87/1/42 64/1/42
f 64/1/42 84/1/42 83/1/42
f 1/1/3 64/1/3 67/1/3
f 17/1/4 32/1/4 29/1/4
f 1/1/57 16/1/57 17/1/57
f 32/1/5 89/1/5 87/1/5
f 68/1/9 67/1/9 64/1/9
f 64/1/6 87/1/6 89/1/6
f 94/1/58 93/1/58 43/1/58
f 51/1/8 112/1/8 113/1/8
f 51/1/8 113/1/8 111/1/8
f 19/1/8 51/1/8 111/1/8
f 19/1/8 111/1/8 110/1/8
f 22/1/8 19/1/8 110/1/8
f 22/1/8 110/1/8 105/1/8
f 23/1/8 22/1/8 105/1/8
f 23/1/8 105/1/8 104/1/8
f 25/1/8 23/1/8 104/1/8
f 25/1/8 104/1/8 103/1/8
f 27/1/8 25/1/8 103/1/8
f 27/1/8 103/1/8 102/1/8
f 70/1/8 27/1/8 102/1/8
f 70/1/8 102/1/8 101/1/8
f 71/1/8 70/1/8 101/1/8
f 71/1/8 101/1/8 99/1/8
f 73/1/8 71/1/8 99/1/8
f 73/1/8 99/1/8 98/1/8
f 92/1/8 73/1/8 98/1/8
f 97/1/8 96/1/8 90/1/8
f 98/1/8 97/1/8 90/1/8
f 115/1/8 114/1/8 90/1/8
f 93/1/8 94/1/8 116/1/8
f 95/1/8 74/1/8 93/1/8
f 91/1/8 119/1/8 118/1/8
f 74/1/8 100/1/8 120/1/8
f 125/1/59 124/1/59 16/1/59
f 125/1/59 16/1/59 67/1/59
f 125/1/60 67/1/60 68/1/60
f 122/1/8 123/1/8 125/1/8
f 124/1/13 127/1/13 32/1/13
f 32/1/61 17/1/61 16/1/61
f 43/1/62 93/1/62 129/1/62
f 130/1/63 128/1/63 89/1/63
f 89/1/15 32/1/15 127/1/15
f 122/1/16 68/1/16 89/1/16
f 93/1/8 74/1/8 121/1/8
f 121/1/58 131/1/58 129/1/58
f 8/2/18 23/111/18 25/3/18
f 22/5/19 23/111/19 8/2/19
f 19/7/20 22/5/20 3/6/20
f 2/9/21 51/112/21 19/7/21
f 112/113/22 51/112/22 2/9/22
f 2/9/49 5/13/49 132/10/49
f 133/11/64 112/113/64 2/9/64
f 109/114/23 108/115/23 135/12/23
f 135/12/65 132/10/65 5/13/65
f 5/13/23 7/116/23 134/15/23
f 136/14/23 109/114/23 135/12/23
f 5/13/23 134/15/23 136/14/23
f 134/15/24 7/116/24 40/16/24
f 137/17/25 40/16/25 41/18/25
f 138/19/26 41/18/26 33/20/26
f 139/21/27 33/20/27 34/22/27
f 140/23/28 34/22/28 35/24/28
f 141/26/66 35/24/66 38/27/66
f 38/27/30 81/30/30 143/29/30
f 81/30/31 77/117/31 144/31/31
f 145/34/32 144/31/32 77/117/32
f 77/117/67 79/118/67 83/32/67
f 91/33/68 117/119/68 145/34/68
f 145/34/69 77/117/69 83/32/69
f 91/33/70 83/32/70 84/35/70
f 84/35/71 63/37/71 146/120/71
f 147/36/33 119/121/33 91/33/33
f 84/35/70 146/120/70 147/36/70
f 63/37/34 62/41/34 148/38/34
f 149/39/8 146/39/8 63/37/8
f 62/41/35 60/43/35 90/42/35
f 90/42/35 114/122/35 150/40/35
f 150/40/8 148/38/8 62/41/8
f 60/43/36 58/46/36 92/44/36
f 57/45/37 73/48/37 92/44/37
f 55/47/38 71/50/38 73/48/38
f 53/49/72 70/123/72 71/50/72
f 27/51/40 70/123/40 53/49/40
f 25/53/54 27/51/54 13/52/54
f 124/1/42 125/1/42 52/1/42
f 18/1/1 72/1/1 130/1/1
f 18/1/42 130/1/42 127/1/42
f 124/1/42 52/1/42 6/1/42
f 18/1/73 127/1/73 124/1/73
f 69/1/8 147/1/8 146/1/8
f 144/1/8 145/1/8 66/1/8
f 144/1/8 66/1/8 65/1/8
f 143/1/8 144/1/8 65/1/8
f 20/1/8 136/1/8 134/1/8
f 24/1/8 20/1/8 134/1/8
f 24/1/8 134/1/8 137/1/8
f 143/1/8 65/1/8 30/1/8
f 142/1/8 143/1/8 30/1/8
f 21/1/8 24/1/8 137/1/8
f 21/1/8 137/1/8 138/1/8
f 142/1/8 30/1/8 28/1/8
f 141/1/8 142/1/8 28/1/8
f 31/1/8 21/1/8 138/1/8
f 31/1/8 138/1/8 139/1/8
f 141/1/8 28/1/8 26/1/8
f 140/1/8 141/1/8 26/1/8
f 26/1/8 31/1/8 139/1/8
f 150/1/8 69/1/8 149/1/8
f 128/1/74 130/1/74 72/1/74
f 128/1/1 72/1/1 52/1/1
f 122/1/73 128/1/73 52/1/73
f 61/1/44 80/1/44 78/1/44
f 61/1/44 78/1/44 56/1/44
f 50/1/45 88/1/45 75/1/45
f 49/1/44 50/1/44 75/1/44
f 9/1/44 61/1/44 56/1/44
f 9/1/75 56/1/75 54/1/75
f 49/1/44 75/1/44 36/1/44
f 48/1/44 49/1/44 36/1/44
f 9/1/44 54/1/44 59/1/44
f 9/1/44 59/1/44 15/1/44
f 47/1/44 48/1/44 36/1/44
f 45/1/44 47/1/44 36/1/44
f 9/1/45 15/1/45 14/1/45
f 9/1/44 14/1/44 12/1/44
f 44/1/44 45/1/44 36/1/44
f 46/1/44 44/1/44 36/1/44
f 36/1/44 9/1/44 12/1/44
f 36/1/44 12/1/44 10/1/44
f 42/1/44 46/1/44 36/1/44
f 37/1/44 42/1/44 36/1/44
f 36/1/44 10/1/44 39/1/44
f 61/1/44 75/1/44 88/1/44
f 61/1/76 88/1/76 85/1/76
f 76/1/44 80/1/44 61/1/44
f 82/1/44 76/1/44 61/1/44
f 61/1/77 85/1/77 86/1/77
f 9/1/3 6/1/3 52/1/3
f 6/1/4 9/1/4 36/1/4
f 131/1/5 72/1/5 18/1/5
f 126/1/58 129/1/58 131/1/58
f 36/1/78 75/1/78 116/1/78
f 116/1/79 94/1/79 106/1/79
f 126/1/80 131/1/80 18/1/80
f 36/1/5 116/1/5 106/1/5
f 106/1/81 126/1/81 18/1/81
f 116/1/6 75/1/6 61/1/6
f 52/1/82 72/1/82 131/1/82
f 121/1/8 120/1/8 100/1/8
f 121/1/8 100/1/8 95/1/8
f 121/1/8 95/1/8 116/1/8
f 52/1/6 131/1/6 121/1/6
f 121/1/6 116/1/6 61/1/6
f 105/55/18 12/59/18 14/56/18
f 110/58/19 10/124/19 12/59/19
f 39/60/83 10/124/83 110/58/83
f 113/62/21 37/64/21 39/60/21
f 107/63/49 42/125/49 37/64/49
f 37/64/22 113/62/22 112/126/22
f 112/126/49 133/127/49 135/65/49
f 37/64/22 112/126/22 135/65/22
f 135/65/8 108/128/8 107/63/8
f 136/129/84 20/69/84 46/66/84
f 46/66/23 42/125/23 107/63/23
f 109/67/85 136/129/85 46/66/85
f 24/68/86 44/71/86 46/66/86
f 24/68/25 21/72/25 45/70/25
f 21/72/26 31/74/26 47/73/26
f 31/74/87 26/77/87 48/75/87
f 28/76/28 49/79/28 48/75/28
f 30/78/66 50/81/66 49/79/66
f 30/78/30 65/83/30 88/80/30
f 85/82/88 88/80/88 65/83/88
f 117/86/69 118/130/69 86/131/69
f 85/82/89 66/84/89 145/85/89
f 117/86/69 86/131/69 85/82/69
f 147/132/90 69/91/90 82/87/90
f 82/87/33 86/131/33 118/88/33
f 119/89/91 147/132/91 82/87/91
f 76/94/92 82/87/92 69/91/92
f 150/92/8 114/133/8 115/90/8
f 115/90/34 76/94/34 69/91/34
f 97/93/35 80/134/35 76/94/35
f 115/90/8 96/93/8 97/93/8
f 78/95/36 80/134/36 97/96/36
f 99/98/37 56/99/37 78/95/37
f 56/99/38 99/98/38 101/100/38
f 59/102/72 54/101/72 101/103/72
f 15/105/40 59/102/40 102/106/40
f 14/108/41 15/105/41 103/109/41
