# Blender 5.2.0 LTS
# www.blender.org
o FROZEN__RIGHT_EYE_REAR_CAP_V9
v 60.213043 77.968788 129.804382
v 58.637001 77.172668 129.050949
v 59.889122 77.869446 129.941406
v 60.553040 78.094444 129.757645
v 59.603348 77.803185 130.159378
v 60.543865 76.231987 130.302017
v 60.867786 76.331329 130.164993
v 61.207783 76.456985 130.118256
v 60.885941 78.237846 129.804382
v 59.375198 77.774521 130.443451
v 58.802849 75.473785 130.020294
v 61.540680 76.600388 130.164993
v 63.231136 77.110390 129.411575
v 63.197315 79.286308 130.368546
v 59.220219 77.785408 130.774261
v 60.258091 76.165726 130.520004
v 61.843796 76.751770 130.302017
v 61.189056 78.389229 129.941406
v 61.385410 78.104095 128.290237
v 59.148972 77.835106 131.129257
v 60.029938 76.137062 130.804077
v 61.326797 76.159340 128.550705
v 62.096474 76.900810 130.520004
v 61.441730 78.538269 130.159378
v 62.576393 78.747849 129.050949
v 59.943493 77.527542 128.290237
v 58.789116 77.919296 132.164902
v 59.023441 78.030869 132.246063
v 59.874958 76.147949 131.134872
v 59.904118 75.677200 128.944489
v 62.689686 76.791023 128.944489
v 61.626747 78.674812 130.443451
v 62.972855 79.040443 129.659668
v 62.034943 78.428482 128.583862
v 60.672054 77.796799 128.190079
v 59.249374 77.314659 128.583862
v 59.166313 77.920219 131.484253
v 59.059067 78.047829 132.258408
v 62.581028 78.342712 133.573105
v 74.257706 84.978882 137.543228
v 74.912453 83.341423 137.903854
v 62.116798 79.503708 133.317413
v 25.913523 63.479050 120.695587
v 57.695419 77.398560 131.786118
v 58.051991 76.506805 131.982513
v 62.088806 79.490379 133.307709
v 61.750462 79.329285 133.190536
v 61.184681 79.059898 132.994583
v 60.583454 78.773636 132.786362
v 60.378929 78.676262 132.715515
v 60.323326 78.649788 132.696259
v 60.166607 78.575165 132.641983
v 59.916550 78.456100 132.555374
v 59.623520 78.316589 132.453888
v 59.357231 78.189796 132.361664
v 59.165642 78.098572 132.295319
v 57.730717 77.415367 131.798340
v 57.708046 77.404572 131.790497
v 59.803711 76.197639 131.489883
v 59.291744 75.535210 129.411575
v 60.598236 75.890083 128.650864
v 62.040154 76.466637 128.650864
v 62.281490 77.037346 130.804062
v 61.731495 78.789551 130.774261
v 63.627598 77.402985 130.020294
v 63.852058 77.648849 130.729172
v 59.271061 78.034958 131.815063
v 99.895279 103.562653 176.861862
v 99.240540 105.200111 176.501236
v 26.568264 61.841591 121.056206
v 58.277287 75.943359 132.106598
v 57.663334 77.241066 131.129257
v 58.318077 75.603607 131.489883
v 58.355236 75.786003 132.250595
v 58.279667 75.974998 132.208969
v 57.816006 77.134575 130.368546
v 59.456078 78.171501 132.099136
v 59.708752 78.320541 132.317108
v 60.011868 78.471916 132.454132
v 60.344765 78.615326 132.500870
v 60.684761 78.740982 132.454132
v 61.008686 78.840324 132.317108
v 63.081802 79.575195 131.889969
v 62.260807 79.537102 133.207565
v 62.745808 77.930618 133.663849
v 62.258461 77.869476 134.010651
v 62.303177 77.757652 134.035278
v 62.915550 77.899643 133.568192
v 59.821053 76.282761 131.844879
v 58.148106 77.111244 129.659668
v 62.386238 77.152092 131.134872
v 61.748837 78.874664 131.129257
v 63.889217 77.831245 131.489883
v 63.234474 79.468704 131.129257
v 62.332333 77.286903 131.844879
v 61.542568 77.711060 134.292282
v 60.796753 77.484955 134.382935
v 60.071835 77.206566 134.276413
v 59.417225 76.894875 133.979996
v 58.489529 76.257370 132.909805
v 58.877529 76.571121 133.513870
v 59.810768 83.359802 148.466019
v 35.334641 80.253242 165.764481
v 58.579697 76.031868 132.959473
v 58.470749 75.497116 130.729172
v 59.925804 76.397499 132.175690
v 60.110817 76.534042 132.459763
v 60.666611 76.834457 132.814758
v 60.363495 76.683083 132.677734
v 60.999508 76.977859 132.861496
v 61.339504 77.103516 132.814758
v 61.294460 78.906586 132.099136
v 62.749702 79.598526 132.598846
v 63.404446 77.961067 132.959473
v 61.609058 77.544769 134.328903
v 62.403580 77.237206 131.489883
v 61.677589 78.924362 131.484253
v 63.736546 77.937737 132.250595
v 64.262230 91.545670 170.624573
v 35.989380 78.615784 166.125107
v 64.914391 89.914673 170.983780
v 67.083282 92.646919 171.098541
v 66.351517 92.361259 170.975601
v 66.971481 90.810623 171.317093
v 67.692085 91.124474 171.433853
v 69.174637 93.463326 171.449905
v 69.751236 92.021309 171.767487
v 64.954262 89.932037 170.990250
v 65.065170 89.980347 171.008209
v 65.540565 90.187401 171.085236
v 66.910591 90.784103 171.307220
v 67.819908 91.180145 171.454559
v 68.218071 91.353561 171.519073
v 68.505203 91.478615 171.565598
v 68.679199 91.554398 171.593796
v 68.766396 91.592377 171.607910
v 68.794182 91.604477 171.612427
v 69.223801 91.791588 171.682037
v 69.399643 91.868179 171.710526
v 69.669464 91.985695 171.754242
v 60.880497 77.275513 134.429062
v 60.167141 76.968216 134.328903
v 59.517609 76.643829 134.035278
v 58.976158 76.324463 133.568192
v 60.465511 81.722343 148.826630
v 60.029102 81.514549 148.629013
v 59.374359 83.152008 148.268402
v 60.170563 83.575638 148.776764
v 56.943970 83.170830 151.072830
v 61.663425 77.202866 132.677734
v 62.177353 77.297791 132.175690
v 61.522610 78.935249 131.815063
v 59.456589 84.245575 151.806717
v 64.598915 91.543068 170.236084
v 65.236099 91.623009 169.782669
v 65.951988 91.781425 169.501038
v 66.605118 91.979431 169.421646
v 66.697815 92.007538 169.410370
v 67.319275 92.246193 169.501694
v 67.422722 92.285919 169.516907
v 68.077332 92.597610 169.813324
v 68.617027 92.921356 170.279449
v 69.005035 93.235115 170.883499
v 64.579231 91.592285 170.225250
v 64.745079 89.893402 171.194595
v 64.090332 91.530861 170.833969
v 66.810013 90.750946 171.339294
v 66.495262 92.514061 170.931946
v 66.534210 92.416649 170.953384
v 66.155266 92.388405 170.978683
v 66.554504 92.424446 170.956375
v 66.872505 92.546562 171.003098
v 67.786018 91.171387 171.476318
v 66.828163 92.657463 170.978683
v 67.131279 92.808846 171.115707
v 68.038696 91.320427 171.694305
v 68.223709 91.456963 171.978363
v 68.328461 91.571701 172.309174
v 68.345802 91.656822 172.664169
v 68.274559 91.706520 173.019180
v 68.245407 92.177269 175.209579
v 69.831451 92.250870 172.664185
v 69.794289 92.068474 171.903473
v 68.915085 93.460060 170.833969
v 69.139542 93.705933 171.542847
v 58.217175 81.958382 152.146896
v 60.825310 81.938171 149.137375
v 59.545826 81.328957 148.557999
v 58.891079 82.966423 148.197388
v 60.429230 83.784805 149.179474
v 57.857376 81.742546 151.836151
v 56.804058 82.982582 150.605606
v 57.202633 83.380005 151.475540
v 61.949200 77.269127 132.459747
v 59.881378 84.298866 151.504440
v 68.518616 93.167473 170.225250
v 67.977173 92.848099 169.758163
v 67.327637 92.523712 169.464539
v 66.614288 92.216423 169.364380
v 65.885719 91.947159 169.464539
v 65.191605 91.734276 169.758163
v 63.758232 91.554184 171.542847
v 64.412979 89.916725 171.903473
v 66.486092 90.651596 171.476318
v 65.831345 92.289062 171.115707
v 67.383957 92.957886 171.333679
v 67.673721 93.209167 171.948563
v 67.568970 93.094429 171.617752
v 67.691063 93.294281 172.303558
v 68.119576 91.717407 173.349991
v 69.346680 92.380684 174.133774
v 69.176704 93.888329 172.303558
v 58.653584 82.166176 152.344513
v 61.083973 82.147346 149.540085
v 59.048615 81.178223 148.618439
v 58.393871 82.815681 148.257812
v 60.569138 83.973053 149.646698
v 57.598713 81.533371 151.433441
v 56.792439 82.828087 150.105713
v 57.458801 81.345123 150.966217
v 57.562431 83.595840 151.786285
v 60.224747 84.296204 151.108231
v 60.536121 82.661407 151.865067
v 63.642723 91.843071 173.064270
v 64.260307 90.023216 172.664185
v 63.605560 91.660675 172.303558
v 66.200317 90.585335 171.694305
v 67.619812 93.343979 172.658554
v 67.551292 91.964386 175.503204
v 69.678780 92.357361 173.424896
v 68.857780 92.319260 174.742493
v 69.024033 93.994820 173.064270
v 67.236679 93.326202 173.273438
v 59.136860 82.351761 152.415527
v 57.998840 83.803635 151.983902
v 61.223881 82.335594 150.007309
v 58.571350 81.072609 148.806198
v 57.916607 82.710068 148.445572
v 60.580757 84.127556 150.146591
v 56.909904 82.717865 149.607208
v 57.447182 81.190620 150.466324
v 60.463291 84.237778 150.645096
v 60.879490 82.658737 151.468842
v 60.111332 82.608116 152.167343
v 58.979324 84.139961 151.994476
v 59.634068 82.502502 152.355087
v 58.482117 83.989227 152.054916
v 64.805092 92.700905 174.848953
v 64.521927 90.451485 174.133774
v 64.297470 90.205612 173.424896
v 65.972168 90.556671 171.978363
v 65.545570 92.222801 171.333679
v 66.896545 93.601845 175.142578
v 67.590660 93.814728 174.848953
v 66.822723 91.695122 175.603363
v 67.464836 93.354866 172.989365
v 68.691933 94.018143 173.773148
v 68.203033 93.956718 174.381866
v 61.235500 82.490089 150.507202
v 58.146564 81.019310 149.108475
v 57.491821 82.656776 148.747849
v 57.148449 82.659431 149.144073
v 57.564648 81.080399 149.967819
v 61.118034 82.600311 151.005707
v 65.091194 92.254715 172.303558
v 64.263649 92.381531 174.381866
v 63.867180 92.088943 173.773148
v 65.817184 90.567558 172.309174
v 65.317421 92.194130 171.617752
v 66.167984 93.332581 175.242737
v 67.891426 91.688736 173.634048
v 66.950905 93.259941 173.491409
v 57.803192 81.021973 149.504684
v 65.162445 92.205017 171.948563
v 65.108536 92.339836 172.658554
v 65.459839 91.063446 175.209579
v 64.918396 90.744072 174.742493
v 65.868027 90.817108 173.349991
v 65.745941 90.617256 172.664185
v 65.454628 93.025291 175.142578
v 67.605652 91.622475 173.852036
v 65.213287 92.454575 172.989365
v 66.109375 91.387833 175.503204
v 65.763283 90.702370 173.019180
v 66.053047 90.953651 173.634048
v 67.281731 91.523132 173.989059
v 65.398300 92.591118 173.273438
v 66.305717 91.102692 173.852036
v 66.941734 91.397476 174.035797
v 66.626984 93.160591 173.628433
v 65.650978 92.740150 173.491409
v 66.608833 91.254074 173.989059
v 66.286987 93.034935 173.675171
v 65.954094 92.891533 173.628433
vn -0.3637 0.9097 -0.2004
vn -0.3638 0.9097 -0.2004
vn 0.2866 0.3139 0.9052
vn 0.2866 0.3140 0.9051
vn 0.0475 0.2329 0.9713
vn 0.0475 0.2329 0.9714
vn -0.3637 0.9097 -0.2003
vn 0.5062 0.3736 0.7773
vn 0.3637 -0.9097 0.2004
vn 0.3638 -0.9097 0.2004
vn -0.1949 0.1360 0.9713
vn 0.3638 -0.9097 0.2003
vn 0.3636 -0.9098 0.2003
vn -0.3638 0.9097 -0.2003
vn 0.6914 0.4078 0.5964
vn 0.5063 0.3736 0.7773
vn -0.4241 0.0298 0.9051
vn -0.4240 0.0298 0.9052
vn 0.8294 0.4142 0.3749
vn 0.3637 -0.9097 0.2003
vn -0.6243 -0.0784 0.7773
vn -0.6243 -0.0785 0.7773
vn -0.3636 0.9097 -0.2003
vn 0.9109 0.3924 0.1279
vn -0.3636 0.9098 -0.2004
vn 0.3537 -0.0640 -0.9332
vn 0.3537 -0.0641 -0.9332
vn 0.3514 -0.0581 -0.9344
vn 0.3512 -0.0572 -0.9345
vn 0.3463 -0.0837 -0.9344
vn 0.3500 -0.0545 -0.9351
vn 0.3472 -0.0428 -0.9368
vn 0.3524 -0.0640 -0.9336
vn 0.3541 -0.0655 -0.9329
vn 0.3535 -0.0649 -0.9332
vn 0.3533 -0.0638 -0.9333
vn 0.3534 -0.0632 -0.9333
vn 0.3539 -0.0636 -0.9331
vn 0.3572 -0.0661 -0.9317
vn 0.3534 -0.0611 -0.9335
vn 0.3531 -0.0663 -0.9333
vn 0.3539 -0.0651 -0.9330
vn 0.3545 -0.0651 -0.9328
vn 0.3529 -0.0634 -0.9335
vn 0.3543 -0.0642 -0.9329
vn 0.3592 -0.0315 -0.9327
vn 0.3520 -0.0678 -0.9336
vn 0.3559 -0.0694 -0.9319
vn 0.3583 -0.0701 -0.9310
vn 0.3448 -0.0892 -0.9344
vn -0.3640 0.9096 -0.2003
vn 0.6243 0.0784 -0.7773
vn 0.6242 0.0784 -0.7773
vn -0.7819 -0.1813 0.5964
vn 0.8863 0.2718 -0.3749
vn 0.7819 0.1813 -0.5964
vn 0.4241 -0.0298 -0.9051
vn 0.4240 -0.0298 -0.9051
vn 0.1950 -0.1360 -0.9713
vn -0.0475 -0.2329 -0.9713
vn -0.2866 -0.3140 -0.9051
vn -0.2866 -0.3139 -0.9052
vn -0.5062 -0.3736 -0.7773
vn 0.9303 0.3438 -0.1279
vn 0.7823 0.1816 -0.5959
vn -0.3094 0.9105 -0.2742
vn -0.9303 -0.3438 0.1279
vn -0.3635 0.9098 -0.2003
vn -0.3640 0.9096 -0.2004
vn -0.3639 0.9097 -0.2003
vn -0.3642 0.9096 -0.1999
vn 0.5063 0.3736 0.7772
vn 0.3636 -0.9097 0.2004
vn -0.6914 -0.4078 -0.5964
vn -0.8863 -0.2718 0.3749
vn 0.3636 -0.9097 0.2003
vn 0.3094 -0.9105 0.2742
vn 0.3094 -0.9106 0.2742
vn -0.9067 -0.2965 0.2999
vn -0.9109 -0.3924 -0.1279
vn -0.3636 0.9097 -0.2004
vn 0.1949 -0.1359 -0.9713
vn 0.1949 -0.1359 -0.9714
vn 0.1949 -0.1360 -0.9713
vn -0.0475 -0.2329 -0.9714
vn -0.2866 -0.3139 -0.9051
vn -0.3639 0.9096 -0.2004
vn -0.8294 -0.4142 -0.3749
vn -0.9303 -0.3439 0.1278
vn -0.2128 0.1282 0.9686
vn -0.2128 0.1283 0.9686
vn -0.2100 0.1289 0.9692
vn -0.2127 0.1351 0.9677
vn -0.2132 0.1285 0.9685
vn -0.2134 0.1249 0.9689
vn -0.2119 0.1256 0.9692
vn -0.2167 0.1238 0.9684
vn -0.2112 0.1279 0.9690
vn -0.2133 0.1278 0.9686
vn -0.2122 0.1266 0.9690
vn -0.2130 0.1258 0.9689
vn -0.2130 0.1287 0.9685
vn -0.2126 0.1262 0.9690
vn -0.2123 0.1296 0.9686
vn -0.2091 0.1280 0.9695
vn -0.2045 0.1167 0.9719
vn -0.2136 0.1292 0.9683
vn -0.2118 0.1317 0.9684
vn -0.2135 0.1284 0.9685
vn 0.0475 0.2328 0.9714
vn -0.1950 0.1359 0.9714
vn -0.1950 0.1358 0.9714
vn -0.4240 0.0297 0.9052
vn -0.6242 -0.0784 0.7773
vn -0.7819 -0.1814 0.5964
vn 0.3093 -0.9106 0.2742
vn -0.3093 0.9106 -0.2742
vn -0.5063 -0.3736 -0.7773
vn -0.3636 0.9098 -0.2003
vn -0.6913 -0.4079 -0.5964
vn -0.6901 -0.4088 -0.5972
vn -0.6914 -0.4075 -0.5965
vn -0.6915 -0.4074 -0.5965
vn 0.3639 -0.9097 0.2003
vn 0.3637 -0.9098 0.1999
vn 0.3639 -0.9096 0.2004
vn -0.3095 0.9105 -0.2742
vn -0.3095 0.9105 -0.2744
vn -0.3093 0.9106 -0.2740
vn -0.3092 0.9107 -0.2740
vn -0.4241 0.0297 0.9051
vn -0.4244 0.0298 0.9050
vn 0.3639 -0.9096 0.2006
vn 0.3634 -0.9098 0.2004
vn 0.3634 -0.9098 0.2003
vn 0.3637 -0.9097 0.2005
vn 0.8863 0.2719 -0.3749
vn 0.3095 -0.9105 0.2741
vn -0.6913 -0.4078 -0.5965
vn 0.6243 0.0785 -0.7773
vn 0.4241 -0.0297 -0.9051
vn 0.1950 -0.1359 -0.9713
vn 0.1949 -0.1358 -0.9714
vn -0.0476 -0.2330 -0.9713
vn -0.2866 -0.3137 -0.9052
vn -0.5063 -0.3737 -0.7772
vn -0.5063 -0.3734 -0.7773
vn -0.5066 -0.3739 -0.7769
vn -0.3635 0.9097 -0.2006
vn -0.1948 0.1355 0.9714
vn -0.1951 0.1357 0.9714
vn 0.2866 0.3139 0.9051
vn -0.1949 0.1359 0.9714
vn -0.9109 -0.3924 -0.1278
vn 0.3093 -0.9106 0.2741
vn -0.1949 0.1359 0.9713
vn -0.8294 -0.4142 -0.3750
vn 0.4240 -0.0298 -0.9052
vn -0.3094 0.9106 -0.2742
vn 0.6913 0.4078 0.5964
vn -0.1950 0.1360 0.9713
vn 0.3638 -0.9096 0.2007
vn 0.7819 0.1813 -0.5965
vn 0.6243 0.0784 -0.7772
vn -0.0478 -0.2329 -0.9713
vn -0.0474 -0.2329 -0.9713
vn 0.1953 -0.1360 -0.9713
vn -0.3094 0.9105 -0.2743
s 1
f 1//1 2//1 3//2
f 4//2 2//1 1//1
f 3//2 2//1 5//1
f 1//3 6//4 7//4
f 3//3 6//4 1//3
f 1//5 8//5 4//5
f 1//5 7//6 8//5
f 9//2 2//1 4//2
f 5//1 2//1 10//7
f 3//8 5//8 6//8
f 11//9 7//9 6//10
f 4//11 8//11 12//11
f 7//9 13//12 8//13
f 9//11 4//11 12//11
f 14//7 2//1 9//2
f 2//1 15//14 10//7
f 16//15 5//15 10//15
f 5//8 16//16 6//8
f 11//9 6//10 16//10
f 11//9 13//12 7//9
f 8//13 13//12 12//10
f 9//17 12//18 17//18
f 18//17 9//17 17//18
f 14//7 9//2 18//7
f 14//7 19//7 2//1
f 2//1 20//14 15//14
f 15//19 21//19 10//19
f 21//15 16//15 10//15
f 11//9 16//10 21//9
f 11//9 22//20 13//12
f 12//10 13//12 17//10
f 18//21 17//22 23//22
f 14//7 18//7 24//7
f 25//7 19//7 14//7
f 19//7 26//7 2//1
f 20//14 27//14 28//23
f 2//1 27//14 20//14
f 20//24 29//24 15//24
f 15//19 29//19 21//19
f 11//9 21//9 29//20
f 11//9 30//12 22//20
f 22//20 31//20 13//12
f 17//10 13//12 23//20
f 24//21 18//21 23//22
f 14//7 24//7 32//7
f 25//7 14//7 33//7
f 19//7 25//7 34//14
f 19//7 35//1 26//7
f 2//1 26//7 36//1
f 37//25 28//23 38//7
f 20//14 28//23 37//25
f 39//26 40//27 41//27
f 42//28 40//27 39//26
f 43//29 44//30 45//27
f 43//31 40//27 42//28
f 43//31 42//28 46//32
f 43//33 46//34 47//35
f 43//33 47//35 48//36
f 43//33 48//36 49//37
f 43//33 49//37 50//38
f 43//33 50//38 51//39
f 43//33 51//39 52//40
f 43//33 52//40 53//41
f 43//33 53//41 54//42
f 43//33 54//42 55//43
f 43//33 55//43 56//44
f 43//33 56//44 38//45
f 43//33 38//45 28//46
f 43//33 28//46 27//47
f 43//33 27//47 57//48
f 43//33 57//48 58//49
f 43//29 58//50 44//30
f 2//1 57//51 27//14
f 20//24 59//24 29//24
f 11//9 29//20 59//10
f 30//12 11//9 60//10
f 22//20 30//12 61//20
f 31//20 22//20 62//10
f 25//52 13//52 31//52
f 34//53 25//52 31//52
f 23//20 13//12 63//10
f 23//54 63//54 24//54
f 63//54 32//54 24//54
f 14//7 32//7 64//1
f 65//55 33//55 14//55
f 66//55 65//55 14//55
f 65//56 13//56 25//56
f 65//56 25//56 33//56
f 19//57 34//58 31//57
f 19//57 31//57 62//57
f 35//59 19//59 62//59
f 35//59 62//59 22//59
f 61//60 26//60 35//60
f 61//60 35//60 22//60
f 36//61 26//61 61//62
f 30//62 36//61 61//62
f 2//63 30//63 60//63
f 2//63 36//63 30//63
f 37//64 59//64 20//64
f 67//7 38//7 56//2
f 37//25 38//7 67//7
f 68//65 41//65 40//65
f 40//66 43//66 69//66
f 70//27 45//27 71//27
f 43//29 45//27 70//27
f 45//67 44//67 72//67
f 73//67 45//67 72//67
f 71//67 45//67 73//67
f 74//67 75//67 71//67
f 74//67 71//67 73//67
f 72//25 44//68 58//51
f 58//51 76//7 72//25
f 76//7 58//51 57//51
f 57//51 2//1 76//7
f 77//2 56//2 55//2
f 67//7 56//2 77//2
f 78//2 77//2 55//2
f 78//2 55//2 54//2
f 53//7 78//2 54//2
f 79//7 78//2 53//7
f 79//7 53//7 52//2
f 80//1 79//7 52//2
f 80//1 52//2 51//14
f 81//7 80//1 51//14
f 81//7 51//14 50//69
f 50//69 82//7 81//7
f 82//7 50//69 49//7
f 82//7 49//7 48//7
f 83//2 82//7 48//7
f 83//2 48//7 47//14
f 84//14 47//14 46//70
f 83//2 47//14 84//14
f 84//14 46//70 42//71
f 85//8 86//8 87//8
f 88//8 85//8 87//8
f 39//8 85//8 88//8
f 84//16 42//72 39//8
f 84//16 39//8 88//8
f 39//26 41//27 85//26
f 11//9 59//10 89//73
f 11//74 90//74 2//74
f 60//74 11//74 2//74
f 13//12 91//20 63//10
f 63//75 91//75 32//75
f 91//75 64//75 32//75
f 14//7 64//1 92//2
f 14//64 93//64 66//64
f 94//64 93//64 14//64
f 93//20 65//10 66//76
f 13//12 65//10 95//20
f 37//64 89//64 59//64
f 89//55 37//55 67//55
f 68//65 40//65 69//65
f 86//77 85//77 41//77
f 96//78 86//77 41//77
f 97//78 41//77 68//77
f 97//78 96//78 41//77
f 98//77 97//78 68//77
f 99//77 98//77 68//77
f 70//77 71//77 75//77
f 70//77 75//77 100//77
f 70//77 100//77 101//77
f 70//77 101//77 99//77
f 68//77 70//77 99//77
f 69//66 43//66 102//66
f 70//79 103//79 43//79
f 75//75 104//75 100//75
f 74//75 104//75 75//75
f 73//9 104//9 74//12
f 73//80 72//80 76//80
f 73//80 76//80 105//80
f 76//7 2//1 90//81
f 106//56 67//56 77//56
f 77//53 78//53 107//53
f 79//57 108//58 109//57
f 78//57 79//57 109//57
f 79//82 80//83 110//84
f 111//60 80//60 81//85
f 110//60 80//60 111//60
f 111//62 81//86 82//86
f 83//2 112//7 82//7
f 83//2 84//14 113//87
f 88//15 113//15 84//15
f 88//15 114//15 113//15
f 87//9 114//20 88//9
f 115//4 87//4 86//4
f 96//4 115//4 86//4
f 106//12 11//9 89//73
f 105//88 90//88 11//88
f 105//88 76//88 90//88
f 13//12 116//12 91//20
f 116//67 64//67 91//89
f 116//67 92//67 64//67
f 14//7 92//2 117//7
f 14//7 112//7 94//2
f 94//24 118//24 93//24
f 83//24 118//24 94//24
f 65//10 93//20 87//9
f 65//10 87//9 95//20
f 13//12 95//20 116//12
f 106//55 89//55 67//55
f 119//90 103//91 120//91
f 119//90 120//91 121//92
f 122//90 123//90 124//93
f 122//90 124//93 125//94
f 69//91 126//90 127//95
f 69//91 127//95 68//96
f 120//91 68//96 121//92
f 121//92 68//96 128//97
f 128//97 68//96 129//98
f 129//98 68//96 130//99
f 130//99 68//96 131//100
f 131//100 68//96 124//93
f 124//93 68//96 125//94
f 125//94 68//96 132//101
f 132//101 68//96 133//102
f 133//102 68//96 134//103
f 134//103 68//96 135//104
f 135//104 68//96 136//105
f 136//105 68//96 137//106
f 137//106 68//96 138//107
f 138//107 68//96 139//108
f 139//108 68//96 140//109
f 140//109 68//96 127//95
f 141//110 115//5 96//5
f 97//110 141//110 96//5
f 97//111 98//11 142//11
f 97//111 142//11 141//112
f 98//18 99//18 143//18
f 98//18 143//18 142//113
f 143//114 101//114 144//114
f 99//114 101//114 143//114
f 100//115 144//54 101//54
f 104//115 144//54 100//115
f 70//77 68//77 145//77
f 70//77 145//77 146//116
f 102//66 43//66 147//66
f 69//66 102//66 148//117
f 70//79 120//79 103//79
f 149//66 43//66 103//66
f 11//9 104//9 73//9
f 11//9 73//9 105//20
f 107//56 106//56 77//56
f 78//53 109//53 107//53
f 109//9 108//9 141//20
f 79//82 110//84 108//84
f 110//9 111//9 141//20
f 111//62 82//86 150//62
f 94//2 112//7 83//2
f 82//63 112//63 150//118
f 83//19 114//19 118//19
f 113//19 114//19 83//19
f 93//20 114//20 87//9
f 151//12 87//9 115//20
f 141//20 11//9 106//12
f 95//80 117//80 92//80
f 95//80 92//80 116//80
f 14//7 117//7 152//119
f 112//7 14//7 152//119
f 114//20 93//20 118//20
f 95//20 87//9 151//12
f 153//66 103//66 119//66
f 153//66 119//66 154//66
f 153//66 154//66 155//66
f 153//66 155//66 156//66
f 153//66 156//66 157//66
f 153//66 157//66 158//66
f 153//66 158//66 159//66
f 153//66 159//66 160//66
f 153//66 160//66 161//66
f 153//66 161//66 162//66
f 69//66 162//66 163//66
f 69//66 163//66 126//66
f 69//66 153//66 162//66
f 154//120 119//121 164//122
f 165//74 166//123 119//121
f 121//74 165//74 119//121
f 166//123 164//122 119//121
f 121//124 128//10 165//10
f 165//10 128//10 129//20
f 165//10 129//20 130//10
f 165//10 130//10 167//125
f 130//10 131//126 167//125
f 167//125 131//126 124//126
f 123//110 167//5 124//5
f 168//110 123//110 169//5
f 170//110 123//110 168//110
f 170//110 167//5 123//110
f 171//127 169//128 123//127
f 122//129 172//130 171//127
f 122//129 171//127 123//127
f 122//131 125//132 173//17
f 122//131 174//18 172//18
f 175//113 174//18 122//131
f 175//113 122//131 173//17
f 125//20 132//12 173//133
f 132//12 133//12 176//20
f 173//133 132//12 176//20
f 133//12 134//12 177//20
f 176//20 133//12 177//20
f 177//20 135//10 178//12
f 134//12 135//10 177//20
f 136//134 179//10 178//12
f 135//10 136//134 178//12
f 136//134 137//135 179//10
f 137//135 180//20 179//10
f 137//135 138//10 180//20
f 139//10 181//12 180//20
f 138//10 139//10 180//20
f 139//10 140//9 182//12
f 139//10 182//12 181//12
f 140//9 183//20 182//12
f 140//9 127//136 183//20
f 126//55 184//137 185//55
f 126//55 163//55 184//137
f 183//137 127//137 126//55
f 183//137 126//55 185//55
f 120//77 186//77 68//77
f 151//12 115//20 141//20
f 143//9 141//20 142//12
f 104//9 143//9 144//10
f 145//77 68//77 187//138
f 102//17 147//17 146//17
f 102//17 146//17 145//17
f 70//77 146//116 188//77
f 147//66 43//66 189//66
f 148//21 102//21 145//21
f 69//66 148//117 190//66
f 70//77 191//77 120//77
f 192//117 43//66 149//66
f 149//66 103//66 193//66
f 11//9 141//20 104//9
f 141//20 106//12 107//12
f 107//12 109//9 141//20
f 108//9 110//9 141//20
f 111//9 150//10 141//20
f 112//63 194//118 150//118
f 151//88 152//88 117//88
f 151//88 117//88 95//88
f 194//139 112//74 152//74
f 69//66 195//66 153//66
f 163//56 162//56 196//56
f 163//56 196//56 184//56
f 197//140 196//53 162//53
f 197//140 162//53 161//140
f 160//141 197//57 161//58
f 198//141 197//57 160//141
f 198//59 160//142 159//142
f 199//143 198//59 159//142
f 199//143 159//142 158//143
f 157//60 199//85 158//144
f 200//60 199//85 157//60
f 156//60 200//60 157//60
f 155//145 201//145 200//62
f 155//145 200//62 156//86
f 154//146 201//147 155//147
f 164//148 201//147 154//146
f 202//14 164//7 166//7
f 165//88 202//88 166//88
f 203//88 202//88 165//88
f 165//10 167//125 204//20
f 168//149 164//7 170//2
f 168//112 169//150 171//151
f 205//152 167//3 170//152
f 174//153 168//112 171//151
f 174//153 171//151 172//153
f 185//7 174//1 175//2
f 175//22 173//21 176//21
f 176//54 177//54 206//54
f 178//75 207//75 208//75
f 177//75 178//75 208//75
f 179//67 207//67 178//67
f 180//154 209//80 179//154
f 180//20 181//12 210//20
f 182//12 211//12 181//12
f 185//64 182//64 183//64
f 212//64 182//64 185//64
f 196//2 185//7 184//81
f 68//77 186//77 213//155
f 120//77 191//77 186//77
f 151//12 141//20 194//12
f 104//9 141//20 143//9
f 187//138 68//77 214//116
f 148//21 145//21 187//21
f 147//11 188//11 146//11
f 70//77 188//77 215//77
f 189//66 43//66 216//66
f 147//11 189//156 188//11
f 187//54 190//54 148//54
f 69//66 190//66 217//66
f 191//77 70//77 218//77
f 219//66 43//66 192//117
f 218//55 220//55 192//55
f 218//55 192//55 149//55
f 221//66 193//66 103//66
f 191//56 149//56 193//56
f 150//10 194//12 141//20
f 151//139 194//139 152//74
f 69//66 222//66 195//66
f 153//63 195//63 223//63
f 198//7 196//2 197//1
f 198//7 199//14 200//7
f 164//7 200//7 201//2
f 224//7 164//7 202//14
f 165//10 225//9 203//126
f 225//80 202//80 203//80
f 225//80 226//80 202//80
f 165//10 204//20 227//20
f 205//152 204//3 167//3
f 170//2 164//7 205//7
f 174//1 164//7 168//149
f 185//7 164//7 174//1
f 185//7 175//2 206//7
f 206//22 175//22 176//21
f 177//54 208//54 206//54
f 185//7 208//2 207//7
f 179//67 209//67 207//67
f 180//154 228//80 209//80
f 210//20 181//12 229//12
f 210//157 228//88 180//157
f 211//12 182//12 230//9
f 181//12 211//12 231//20
f 212//24 230//24 182//24
f 232//24 230//24 212//24
f 185//7 233//14 212//1
f 196//2 198//7 185//7
f 68//77 213//155 234//77
f 235//158 213//141 186//141
f 221//158 235//158 186//141
f 193//52 186//52 191//52
f 214//116 68//77 236//77
f 187//54 214//54 190//54
f 189//5 215//5 188//5
f 70//77 215//77 237//77
f 216//66 43//66 238//66
f 216//5 215//5 189//5
f 236//75 217//75 190//75
f 214//75 236//75 190//75
f 69//66 217//66 239//66
f 70//77 220//77 218//77
f 191//56 218//56 149//56
f 240//159 43//66 219//66
f 192//64 241//64 219//64
f 192//64 220//64 241//64
f 235//66 221//66 103//66
f 193//52 221//52 186//52
f 69//66 242//159 222//66
f 243//74 195//74 222//74
f 243//74 223//74 195//74
f 153//63 223//63 244//63
f 244//62 245//62 153//62
f 198//7 200//7 164//7
f 246//62 245//62 244//62
f 246//60 247//60 245//60
f 247//159 235//66 103//66
f 164//7 224//7 248//7
f 224//7 202//14 226//7
f 165//10 249//12 225//9
f 250//67 226//67 225//67
f 250//67 224//67 226//67
f 165//10 227//20 251//9
f 252//8 227//16 204//16
f 205//8 252//8 204//16
f 205//7 164//7 252//14
f 185//7 198//7 164//7
f 185//7 206//7 208//2
f 185//7 207//7 209//7
f 185//7 209//7 228//2
f 253//4 229//3 181//3
f 253//4 181//3 254//4
f 210//20 229//12 255//20
f 210//157 256//88 228//88
f 257//19 211//19 230//19
f 257//19 230//19 232//19
f 231//15 211//15 257//15
f 231//15 257//15 258//15
f 258//8 254//8 181//8
f 258//8 181//8 231//8
f 212//1 233//14 232//1
f 233//14 185//7 256//87
f 234//77 246//77 68//77
f 235//82 234//84 213//84
f 236//77 68//77 259//77
f 216//4 237//4 215//152
f 238//4 237//4 216//4
f 70//77 237//77 260//77
f 238//66 43//66 261//66
f 259//67 217//67 236//67
f 259//67 239//67 217//67
f 69//66 239//66 242//159
f 70//77 241//77 220//77
f 262//66 43//66 240//159
f 240//24 241//24 263//24
f 219//24 241//24 240//24
f 243//88 222//88 242//88
f 243//88 242//88 264//88
f 243//77 68//77 223//77
f 244//77 223//77 68//77
f 246//77 244//77 68//77
f 234//60 247//60 246//60
f 235//82 247//82 234//84
f 164//7 248//7 265//2
f 248//7 224//7 266//7
f 165//10 255//20 249//12
f 225//9 249//12 250//20
f 249//75 267//75 224//75
f 250//75 249//75 224//75
f 165//10 251//9 268//10
f 251//15 227//15 269//160
f 227//15 252//160 269//160
f 252//14 164//7 269//14
f 185//7 228//2 256//87
f 258//7 253//7 254//2
f 270//5 229//5 253//5
f 210//20 255//20 271//10
f 270//5 255//5 229//5
f 210//74 271//74 256//74
f 232//1 258//7 257//1
f 232//1 233//14 272//7
f 271//74 233//74 256//74
f 259//77 68//77 264//77
f 238//8 260//8 237//8
f 70//77 260//77 273//77
f 261//66 43//66 262//66
f 238//8 261//8 260//8
f 264//80 242//80 239//80
f 264//80 239//80 259//80
f 70//77 263//77 241//77
f 240//19 263//19 262//19
f 264//77 68//77 243//77
f 164//7 265//2 274//1
f 265//2 248//7 275//1
f 266//7 224//7 267//1
f 276//21 266//21 277//21
f 248//22 266//21 276//21
f 255//20 165//10 278//20
f 249//12 255//20 276//20
f 249//54 277//54 266//54
f 249//54 266//54 267//54
f 165//10 268//10 279//20
f 274//19 268//19 251//19
f 274//19 251//19 269//19
f 164//7 274//1 269//14
f 232//1 253//7 258//7
f 253//7 280//7 270//7
f 281//20 271//10 255//20
f 270//161 280//161 255//161
f 232//1 272//7 280//7
f 272//63 233//63 281//63
f 233//63 271//63 281//63
f 273//15 260//15 261//15
f 70//77 273//77 263//77
f 273//15 261//15 262//15
f 262//19 263//19 273//19
f 265//24 268//24 274//24
f 275//1 248//7 282//14
f 275//64 279//64 265//64
f 249//12 276//20 277//20
f 280//17 248//17 276//17
f 280//17 276//17 283//17
f 278//20 165//10 284//10
f 255//20 278//20 285//20
f 276//20 255//20 283//162
f 165//10 279//20 284//10
f 265//24 279//24 268//24
f 232//1 280//7 253//7
f 286//20 281//20 255//20
f 255//161 280//161 283//161
f 272//7 248//7 280//7
f 286//62 272//61 281//62
f 282//14 248//7 287//1
f 284//55 275//55 282//55
f 275//64 284//64 279//64
f 278//55 284//55 282//55
f 285//163 278//56 287//56
f 285//20 288//20 255//20
f 289//10 286//20 255//20
f 248//7 272//7 290//2
f 286//62 290//61 272//61
f 291//7 287//1 248//7
f 278//56 282//56 287//56
f 287//52 291//52 285//52
f 291//52 288//164 285//52
f 288//20 292//20 255//20
f 292//20 289//10 255//20
f 289//60 293//165 290//166
f 289//60 290//166 286//60
f 290//2 293//2 248//7
f 294//1 291//7 248//7
f 291//158 294//158 292//57
f 291//158 292//57 288//57
f 294//84 289//84 292//82
f 294//84 293//167 289//84
f 293//2 294//1 248//7
f 245//168 247//159 103//66
f 103//66 153//66 245//168
