# Blender 5.2.0 LTS
# www.blender.org
mtllib left_c046_v15.mtl
o PROPOSED__LEFT_C046__EXACT_X0_MIRROR_V15
v -30.796650 55.564568 118.679062
v -38.110897 46.951134 114.528564
v -37.806870 53.193237 111.275314
v -40.944622 49.765846 114.746262
v -41.536133 58.057354 117.633652
v -43.332333 52.824615 119.374954
vn 0.2419 0.8339 -0.4961
vn -0.0176 0.3211 0.9469
vn 0.1634 -0.5374 0.8273
vn -0.6962 -0.7094 0.1096
vn -0.4533 -0.3945 -0.7993
vn 0.7347 -0.3413 -0.5863
vn -0.8214 0.1344 -0.5542
s 0
usemtl V15_RIB_CYAN
f 1//1 3//1 5//1
f 1//2 5//2 6//2
f 1//3 6//3 2//3
f 2//4 6//4 4//4
f 2//5 4//5 3//5
f 1//6 2//6 3//6
f 4//7 6//7 5//7 3//7
