# Blender 5.2.0 LTS
# www.blender.org
mtllib right_lower_face_components_002_060_context_v16.mtl
o FROZEN__RIGHT_LOWER_FACE_COMPONENTS_002_060__CONTEXT_V16
v -0.326696 1.711704 48.013561
v 0.189000 0.000000 47.803501
v 0.337538 3.096850 54.022083
v 0.704487 1.799373 54.432850
v 2.555344 1.790928 54.443375
v 0.337538 15.095939 53.874241
v 1.084148 15.705789 54.669968
v 3.904406 0.457093 54.869778
v 4.084121 0.457103 54.870537
v 4.082444 0.461987 55.266975
v 4.132378 0.626206 54.817410
v 4.293904 3.097057 54.038818
v 4.837498 3.468952 54.036537
v 4.832425 3.111860 55.240257
v 4.836477 3.397080 54.278809
v 4.084121 15.705945 54.682655
v 4.837498 15.096173 53.893276
v 0.645086 1.976938 66.741798
v 0.312747 10.381330 59.793678
v 0.314277 10.932849 59.425171
v 0.314791 11.583411 59.295765
v 0.314209 12.233974 59.425171
v 0.310434 10.012815 60.345196
v 0.307689 9.883410 60.995750
v 0.304931 10.012815 61.646305
v 0.302579 10.381329 62.197823
v 0.312622 12.785493 59.793678
v 0.310270 13.154006 60.345196
v 0.307512 13.283411 60.995750
v 0.304767 13.154006 61.646305
v 0.302454 12.785492 62.197823
v 0.300992 10.932849 62.566334
v 0.300410 11.583410 62.695736
v 0.300924 12.233973 62.566334
v 4.446968 1.842926 58.663574
v 4.062972 15.767547 59.682228
v 4.812707 10.381565 59.812714
v 4.814237 10.933084 59.444202
v 4.814750 11.583647 59.314800
v 4.814169 12.234208 59.444202
v 4.810393 10.013051 60.364231
v 4.807649 9.883646 61.014786
v 4.804891 10.013051 61.665340
v 4.802538 10.381564 62.216858
v 4.812582 12.785728 59.812714
v 4.810230 13.154242 60.364231
v 4.807472 13.283647 61.014786
v 4.804727 13.154242 61.665340
v 4.802413 12.785728 62.216858
v 4.800951 10.933084 62.585365
v 4.800370 11.583646 62.714771
v 4.800883 12.234208 62.585365
v 4.393060 2.056700 73.488312
v 0.564256 2.218558 83.491188
v 0.552948 2.252362 85.834473
v 0.201458 3.493211 86.190971
v 0.234229 10.234777 78.359764
v 0.231484 10.105372 79.010323
v 0.238072 11.154811 77.439743
v 0.236543 10.603292 77.808250
v 0.238586 11.805373 77.310341
v 0.238005 12.455935 77.439743
v 0.228726 10.234777 79.660881
v 0.226374 10.603291 80.212395
v 0.224787 11.154811 80.580902
v 0.224206 11.805372 80.710304
v 0.224719 12.455935 80.580902
v 0.236417 13.007455 77.808250
v 0.234066 13.375968 78.359764
v 0.231307 13.505373 79.010323
v 0.228562 13.375968 79.660881
v 0.226249 13.007454 80.212395
v 0.975984 16.020836 80.239403
v 0.201458 15.492299 86.043129
v 0.954835 16.082436 85.238976
v 4.356768 2.200620 83.468796
v 4.348126 2.234891 85.845428
v 4.701418 3.493445 86.209999
v 4.734189 10.235013 78.378792
v 4.731444 10.105608 79.029350
v 4.738032 11.155046 77.458771
v 4.736502 10.603527 77.827278
v 4.738545 11.805609 77.329369
v 4.737964 12.456170 77.458771
v 4.728686 10.235013 79.679909
v 4.726334 10.603526 80.231422
v 4.724747 11.155046 80.599930
v 4.724165 11.805608 80.729332
v 4.724679 12.456170 80.599930
v 4.736377 13.007690 77.827278
v 4.734025 13.376204 78.378792
v 4.731267 13.505609 79.029350
v 4.728522 13.376204 79.679909
v 4.726209 13.007689 80.231422
v 3.954808 16.082592 85.251671
v 4.701418 15.492534 86.062157
v 0.000000 0.550500 92.482498
v 0.000000 2.350363 92.460320
v 20.215500 0.550500 92.482498
v 19.699804 2.262204 92.692558
v 29.799259 12.055448 82.834053
v 30.778500 10.605000 82.413002
v 6.556342 11.565503 64.232941
v 4.933773 10.899465 65.871124
v 7.421622 4.359385 65.676254
v 9.044190 5.025423 64.038071
v 10.062453 9.382609 66.818123
v 9.894733 9.705449 66.783257
v 9.787261 10.053020 66.818123
v 9.747356 10.401632 66.920334
v 9.755796 10.492160 66.965500
v 10.015865 9.472288 66.808441
v 10.278987 9.106500 66.920334
v 10.529581 8.895938 67.082932
v 9.777741 10.727532 67.082932
v 9.876345 11.008508 67.294830
v 10.797156 8.765272 67.294830
v 8.907016 8.229900 68.721115
v 9.174591 8.099236 68.933014
v 9.248569 8.087606 69.001556
v 9.440910 8.057370 69.179771
v 9.687830 8.107161 69.444580
v 9.898520 8.245212 69.709389
v 8.164696 9.386982 68.456306
v 8.272170 9.039413 68.421448
v 8.194549 9.290435 68.446625
v 8.318759 8.949736 68.431129
v 8.439888 8.716572 68.456306
v 8.135876 9.638758 68.530128
v 8.124791 9.735595 68.558517
v 8.146736 9.970967 68.675949
v 8.155176 10.061495 68.721115
v 8.656422 8.440463 68.558517
v 8.253779 10.342471 68.933014
v 8.413878 10.559374 69.179771
v 8.566044 10.659078 69.371025
v 8.624569 10.697426 69.444580
v 9.920816 11.068759 67.363373
v 10.036444 11.225411 67.541588
v 10.247134 11.363462 67.806396
v 10.494053 11.413253 68.071205
v 9.586368 10.422612 70.285477
v 9.655977 10.364122 70.330643
v 8.871488 10.747215 69.709389
v 9.137808 10.705350 69.956146
v 9.405383 10.574685 70.168045
v 10.058619 8.462115 69.956146
v 10.086009 8.540164 70.015007
v 10.157223 8.743091 70.168045
v 10.147703 9.417603 70.432854
v 9.872511 10.088013 70.432854
v 9.812363 10.164710 70.404465
v 9.946261 9.946054 70.448189
v 10.040231 9.765173 70.467720
v 9.993643 9.854852 70.458038
v 10.117849 9.514151 70.442543
v 10.187608 9.068990 70.330643
v 10.176523 9.165827 70.359039
v 13.876194 6.597104 72.979065
v 11.063476 8.723408 67.541588
v 11.310395 8.773197 67.806396
v 11.521086 8.911248 68.071205
v 11.636713 9.067901 68.249420
v 11.662794 10.431210 68.829529
v 10.760373 11.371387 68.317963
v 11.027948 11.240722 68.529861
v 11.278543 11.030160 68.692459
v 11.338691 10.953463 68.720848
v 11.495076 10.754050 68.794670
v 11.541665 10.664372 68.804352
v 11.568828 10.612088 68.809998
v 11.681185 9.128152 68.317963
v 11.779787 9.409128 68.529861
v 11.810173 9.735027 68.692459
v 11.770268 10.083640 68.794670
v 11.692648 10.334661 68.819847
v 13.010914 13.803222 71.535751
v 11.388346 13.137183 73.173935
v 15.498762 7.263143 71.340881
v 41.475246 19.931635 80.180511
v 42.028019 19.386318 81.317055
v 41.788368 20.016321 81.335823
v 41.048756 21.052790 80.213913
v 41.361877 21.137476 81.369232
v 42.004745 20.074842 82.134193
v 41.935940 21.292738 83.487335
v 41.966270 21.213011 83.484962
v 41.966270 21.213011 83.484962
v 50.024265 24.547194 77.525162
v 50.450756 23.426039 77.491760
v 50.763874 23.510725 78.647072
v 50.360237 24.571815 78.678688
v 50.337387 24.631880 78.680481
v 51.050323 22.757706 78.624634
v 51.022507 23.580675 79.601334
v 51.020657 23.635342 79.666206
v 50.988575 24.584396 80.792542
v 50.988575 24.584396 80.792542
v 50.911449 24.787142 80.798584
v 50.911449 24.787142 80.798584
v 41.788368 20.016321 81.335823
v 41.361877 21.137478 81.369232
v 41.379517 21.091105 81.367851
v 41.724327 20.667536 81.968391
v 42.004745 20.074844 82.134193
v 41.995991 20.333820 82.441544
v 41.963326 21.300146 83.588371
v 50.763874 23.510725 78.647072
v 50.337387 24.631882 78.680481
v 47.257118 23.358212 82.101479
v 51.022507 23.580675 79.601326
v 50.963638 24.801258 80.991135
v 50.982964 24.750458 80.989624
v 42.723003 19.375011 83.622322
v 42.801277 17.353573 81.256485
v 42.789978 17.383274 81.257370
v 43.427528 17.522949 83.567139
v 51.765488 20.877678 78.568619
v 51.776787 20.847977 78.567734
v 52.403038 21.017353 80.878387
v 51.698513 22.869415 80.933571
v 62.790787 58.731396 120.153442
v 59.880829 66.008987 118.550705
v 59.970184 66.558838 120.885162
v 65.238022 65.045090 118.572678
v 65.749237 64.124298 118.769989
v 65.323387 64.698479 118.651054
v 65.497757 64.384415 118.718346
v 65.449318 64.471657 118.699654
v 65.679382 64.196548 118.755646
v 65.247467 65.400635 118.488579
v 65.541824 66.042610 118.326103
v 65.615395 66.110023 118.307404
v 65.351089 65.740868 118.404472
v 66.060692 63.935852 118.802452
v 66.313622 63.860802 118.810448
v 66.410904 63.831932 118.813522
v 66.776001 63.819611 118.802452
v 65.806664 66.285301 118.258804
v 66.127579 66.452400 118.207161
v 66.482681 66.532516 118.174698
v 62.880142 59.281239 122.487900
v 65.587112 64.934265 121.052811
v 65.412743 65.248329 120.985512
v 65.327377 65.594933 120.907135
v 65.336823 65.950485 120.823036
v 65.440445 66.290718 120.738930
v 65.631180 66.592461 120.660561
v 65.838593 64.674141 121.104446
v 66.150047 64.485695 121.136909
v 66.500259 64.381783 121.147980
v 65.896027 66.835152 120.593262
v 66.216934 67.002251 120.541618
v 66.572037 67.082367 120.509155
v 67.032463 63.877472 118.779007
v 67.131104 63.899727 118.769989
v 67.452011 64.066826 118.718353
v 67.716858 64.309517 118.651047
v 66.847778 66.520195 118.163628
v 66.945061 66.491333 118.166702
v 67.197990 66.416275 118.174698
v 67.509445 66.227837 118.207161
v 67.760925 65.967712 118.258804
v 67.907593 64.611259 118.572678
v 68.011215 64.951492 118.488579
v 68.018036 65.208275 118.427834
v 67.935295 65.653648 118.326103
v 68.020660 65.307037 118.404472
v 66.865356 64.369453 121.136909
v 67.220459 64.449570 121.104446
v 67.541374 64.616676 121.052811
v 66.937134 67.070045 120.498085
v 67.287346 66.966125 120.509155
v 67.512283 66.830025 120.532600
v 67.598801 66.777679 120.541618
v 67.806213 64.859367 120.985512
v 67.859192 64.943184 120.963737
v 67.996948 65.161102 120.907135
v 68.024651 66.203499 120.660561
v 68.110016 65.856888 120.738930
v 68.100571 65.501343 120.823036
v 67.850281 66.517563 120.593262
v 73.959839 62.887627 118.746994
v 74.049194 63.437469 121.081451
v 71.049881 70.165215 117.144257
v 71.139236 70.715065 119.478714
v 101.704453 175.929932 82.964127
v 101.075317 177.809204 81.610428
v 105.181625 175.615509 80.911591
v 104.552490 177.494781 79.557892
v 108.958771 183.665955 86.077194
v 105.481598 183.980377 88.129730
v 106.110733 182.101105 89.483429
v 109.587906 181.786682 87.430893
v 101.704453 175.929932 82.964127
v 102.734726 175.836777 82.355972
v 101.307358 177.636353 81.617210
v 102.158012 177.559433 81.115082
v 101.127762 177.652634 81.723267
v 101.158569 177.560516 81.789566
v 105.534027 183.823776 88.242538
v 105.564850 183.731689 88.308868
v 105.713638 183.807526 88.136513
v 106.564293 183.730606 87.634384
v 106.110733 182.101105 89.483421
v 106.110733 182.101105 89.483429
v 107.140999 182.007935 88.875267
v 102.019020 174.990280 83.640976
v 102.158012 177.559433 81.115082
v 101.127739 177.652603 81.723236
v 103.049294 174.897110 83.032822
v 105.534019 183.823776 88.242538
v 106.564293 183.730606 87.634384
v 106.425301 181.161453 90.160278
v 107.455574 181.068283 89.552124
v 20.093767 0.129408 91.230354
v 30.179934 9.730028 81.615410
v 26.970789 11.528494 80.044777
v 16.884623 1.927873 89.659721
v 20.231085 3.026980 94.267662
v 30.317251 12.627600 84.652718
v 27.108107 14.426065 83.082085
v 17.021940 4.825445 92.697029
v 31.287823 11.724536 81.915779
v 33.821110 50.698929 125.302696
v 30.820992 52.751762 123.633812
v 28.287708 13.777371 80.246895
v 28.515907 9.459338 84.112450
v 31.049192 48.433731 127.499367
v 28.049076 50.486565 125.830482
v 25.515793 11.512174 82.443565
v 19.617001 42.842999 142.132507
v 20.215500 0.550500 92.482498
v 30.778500 10.605000 82.413002
v 33.346500 50.113499 126.394501
v 43.960499 63.055500 165.889496
v 18.346378 44.023026 141.649750
v 18.771383 1.359809 91.775711
v 29.380125 11.472342 81.683434
v 32.129272 51.344376 125.901245
v 42.943111 64.525711 165.681137
v 74.478683 47.166058 84.629387
v 77.181290 46.692654 81.718758
v 71.340935 50.593449 81.158440
v 76.524094 63.541248 82.841621
v 75.662773 53.906284 90.810875
v 77.925774 55.620735 93.628586
v 76.129578 60.853474 91.887283
v 79.203697 58.653942 78.531868
v 81.207039 61.847916 79.867958
v 81.187149 62.751648 92.374420
v 82.983345 57.518909 94.115723
v 86.246384 57.878452 91.830269
v 86.265297 178.588287 47.875172
v 81.721313 179.243484 51.419594
v 79.126801 190.040344 49.589134
v 81.654823 192.937973 50.690456
v 79.126801 187.979721 55.010738
v 84.516167 194.371582 54.671986
v 88.721153 179.760117 50.806992
v 88.168808 193.028305 55.596008
v 90.138535 192.473129 57.022991
v 92.682678 189.544724 56.047375
v 82.152756 190.087494 57.786613
v 86.802803 188.642380 59.822666
v 61.016953 75.196861 38.211098
v 56.927746 75.020508 43.945843
v 60.194458 80.257454 43.058220
v 62.151539 73.755798 41.765823
v 58.178349 85.073265 43.593441
v 60.690258 94.338600 42.874794
v 62.990467 91.701988 36.759460
v 60.336170 86.063980 41.163166
v 66.988335 79.274956 47.552559
v 64.308731 84.162254 51.862324
v 63.118423 82.459534 39.353241
v 65.278473 87.778198 46.198673
v 62.900669 83.156410 38.781715
v 62.049072 83.828796 37.451912
v 62.342213 86.280441 37.236290
v 65.082420 93.233887 39.227139
v 63.261063 82.842140 39.465263
v 62.301888 93.992188 41.656776
v 62.328796 94.011902 41.688545
v 60.821625 90.296806 40.616074
v 60.905476 88.829903 39.720482
v 60.324947 88.030220 40.544926
v 59.725540 83.912209 40.833504
v 60.166531 83.931969 40.106785
v 61.466908 87.509941 38.565395
v 60.337303 83.928650 39.866436
v 64.938660 88.778236 45.389633
v 64.929398 88.755234 45.383221
v 63.130363 91.944283 43.353973
v 64.316673 89.009377 45.789391
v 63.684521 82.471893 40.268738
v 67.486404 81.096283 46.873211
v 63.156075 79.066780 40.475155
v 63.156395 79.146004 40.450901
v 63.186352 80.821770 39.975616
v 65.588570 82.498245 50.250046
v 68.469620 81.636604 48.540482
v 66.139732 83.500175 50.699638
v 68.221634 81.488029 48.086792
v 65.837257 84.406731 49.922367
v 65.299118 87.757080 46.235500
v 65.288116 87.752510 46.220798
v 65.634918 84.930367 49.432438
v 64.927582 87.809319 46.614101
v 64.631714 87.855423 46.884132
v 64.838737 87.820396 46.698650
v 64.373192 87.372368 44.997520
v 61.924839 82.859505 40.576771
v 63.176899 82.737656 39.471928
v 63.219265 82.849518 39.504135
v 63.667564 87.383186 45.333492
v 63.710773 87.380386 45.311920
v 60.366882 86.060669 41.136150
v 60.366772 85.988914 41.155437
v 60.401505 83.355431 41.916542
v 63.176174 82.884407 39.433346
v 61.850704 83.142433 40.568470
v 61.503922 83.199501 40.868244
v 63.131866 82.465675 39.373158
v 63.562374 82.579063 40.036858
v 63.094723 82.367859 39.343410
v 63.039314 82.552994 39.646290
v 63.551025 82.580605 40.049259
v 63.178440 82.425377 39.554024
v 62.909393 82.449074 39.792103
v 28.697491 227.926193 70.478203
v 29.102182 237.126129 74.257683
v 34.130653 224.341934 62.626415
v 36.658676 227.239563 63.727737
v 34.130653 222.281311 68.048019
v 34.919250 234.713440 72.433403
v 32.445343 237.553131 73.780952
v 29.102182 232.013824 76.997070
v 29.742577 233.629135 77.088120
v 0.800000 39.986084 8.381157
v 0.800000 183.501434 54.717415
v 6.800000 183.501434 54.717415
v 6.800000 39.986084 8.381157
v 0.800000 42.136826 1.719753
v 0.800000 185.652191 48.056007
v 6.800000 185.652191 48.056007
v 6.800000 42.136826 1.719753
v 0.800000 227.403320 70.933556
v 0.800000 261.112274 133.841888
v 6.800000 261.112274 133.841888
v 6.800000 227.403320 70.933556
v 0.800000 233.573364 67.627388
v 0.800000 267.282318 130.535736
v 6.800000 267.282318 130.535736
v 6.800000 233.573364 67.627388
v 0.800000 187.833145 56.238785
v 0.800000 228.094833 71.541374
v 6.800000 228.094833 71.541374
v 6.800000 187.833145 56.238785
v 0.800000 190.320114 49.695465
v 0.800000 230.581802 64.998055
v 6.800000 230.581802 64.998055
v 6.800000 190.320114 49.695465
v 0.978418 8.030235 50.208107
v 0.810567 8.519135 89.887535
v 6.810514 8.519447 89.912910
v 6.978365 8.030548 50.233482
v 6.978365 1.031079 50.319725
v 0.825234 1.476946 86.506645
v 6.825294 1.476928 86.505157
v 0.810567 4.660316 89.935081
v 0.826056 1.759473 86.308754
v 6.810514 4.646435 89.960632
v 6.826060 1.740203 86.320747
v 6.110252 8.198989 63.904270
v 6.923435 8.190543 63.218830
v 6.918739 8.204222 64.328941
v 6.920966 6.013885 63.829361
v 6.978365 6.768473 50.249031
v 6.973573 6.728503 51.382553
v 4.039291 5.651486 50.250362
v 1.865493 1.104041 56.241371
v 0.957246 1.092434 55.299408
v 0.978418 5.285694 50.241924
v 0.952193 5.253602 56.442871
v 6.923536 7.355086 63.205070
v 6.963358 6.641783 53.798649
v 6.961647 7.409054 54.193794
v 6.928956 2.906554 61.978420
v 3.488885 6.183568 50.241478
v 3.829415 5.571672 50.250458
v 6.102286 1.031033 50.316021
v 6.886304 1.110790 56.789112
v 6.950682 1.133613 56.863602
v 6.978365 1.388191 50.315323
v 6.949848 2.110652 57.048679
v 6.948820 3.124986 57.279430
v 6.977138 1.366919 50.605812
v 6.213542 1.075063 50.315948
v 2.519646 1.052637 52.069408
v 1.448344 1.066189 53.169338
v 2.534864 1.549618 52.190166
v 120.494392 197.208740 114.172424
v 86.260918 244.637390 138.280151
v 82.579659 244.385162 133.548920
v 116.813133 196.956512 109.441177
v 90.286797 249.260712 134.901245
v 86.605537 249.008484 130.170013
v 121.690819 201.700470 110.480118
v 120.839012 201.579834 106.062256
v 123.572617 203.144989 111.460854
v 121.521942 203.798599 109.911865
v 122.443314 204.063400 111.371979
v 121.330505 201.613510 106.693939
v 122.806747 203.050278 112.061806
v 119.586159 201.096588 107.062836
v 120.369591 201.040756 106.456238
v 119.566284 200.118225 107.130455
v 122.585587 199.610275 112.417282
v 122.671402 201.821732 112.232613
v 122.781944 201.829376 112.146194
v 121.620041 199.815842 110.641754
v 121.692711 199.897110 110.585060
v 121.683586 199.886642 110.592697
v 121.766594 201.707809 110.519791
v 121.725182 201.701019 110.453644
v 98.296516 77.734756 120.088547
v 115.214500 109.305435 119.688400
v 113.663536 110.063736 113.942139
v 96.745552 78.493057 114.342285
v 104.195290 74.548233 118.075928
v 102.644325 75.306534 112.329666
v 115.551880 109.043655 113.297852
v 116.604416 101.357491 111.999481
v 119.572517 103.243706 117.712227
v 117.960342 107.822136 118.751541
v 116.800888 103.772591 118.530098
v 115.870255 108.879608 113.815620
v 115.519707 109.078140 114.658722
v 114.648415 108.714775 113.498299
v 112.754715 102.091751 113.135437
v 115.467033 108.710983 113.276848
v 117.201454 102.471619 111.985359
v 120.029663 105.679825 115.195038
v 118.354462 104.623245 111.958084
v 117.735886 104.752129 112.142052
v 58.247807 262.247314 136.444214
v 83.954628 247.238373 139.644714
v 82.673470 244.001923 134.757599
v 56.966648 259.010864 131.557098
v 61.509769 266.983154 132.452820
v 87.216591 251.974213 135.653320
v 85.935432 248.737762 130.766205
v 60.228611 263.746704 127.565697
v 33.835613 23.198174 16.734406
v 37.644695 23.692596 15.617969
v 34.557980 27.127411 20.939081
v 36.761734 20.869574 25.729635
v 38.619183 24.575642 29.339561
v 42.708389 24.751987 23.604816
v 43.842976 23.310930 27.159542
v 59.696766 28.115753 67.818169
v 59.346260 34.241966 75.855377
v 61.704712 35.239353 74.708199
v 59.650288 27.999857 79.108627
v 62.484013 30.814573 79.326324
v 67.545067 31.338554 75.268517
v 64.842461 31.811958 78.179146
v 53.437767 117.453819 28.212605
v 60.347679 108.757866 28.411779
v 58.047470 111.394478 34.527111
v 62.685421 110.469749 31.169388
v 62.392048 125.453598 27.091484
v 57.848064 126.108795 30.635904
v 63.586662 122.277962 29.210022
v 80.999176 151.488220 55.624443
v 85.543159 150.833023 52.080021
v 87.019913 155.699081 59.034855
v 86.737778 147.657379 54.198559
v 86.895447 155.466156 58.949707
v 83.619148 160.519211 57.313866
v 88.163132 159.864014 53.769447
v 90.618988 161.035843 56.701267
v 86.464622 153.405624 63.913132
v 88.481201 157.109421 60.412403
v 88.504372 155.271744 57.592319
v 88.186325 156.567825 60.924305
v 87.978851 156.978394 60.544224
v 84.955208 150.544678 57.583256
v 86.717232 148.089691 54.929173
v 86.582054 150.934341 59.736637
v 88.567917 155.685684 57.921467
v 88.502533 155.417343 57.815758
v 88.499908 155.625916 58.135826
v 87.602356 154.333969 60.221119
v 88.448364 155.194992 57.728165
v 86.942978 155.507019 58.980766
v 87.072090 155.653915 59.119904
v 86.915085 155.437378 58.961151
v 87.004196 155.169495 59.158710
v 28.421093 37.285809 4.499839
v 29.143461 41.215042 8.704514
v 35.951431 23.501886 24.087709
v 32.230175 37.780231 3.383401
v 38.238045 20.957401 20.145868
v 35.281704 19.858973 20.189428
v 35.127430 19.837082 19.653383
v 38.967262 20.251497 18.606428
v 38.073132 21.035728 18.027184
v 38.454151 21.135742 18.652935
v 30.472479 38.267403 7.898232
v 38.860710 21.464855 17.278629
v 39.822914 22.810663 18.402445
v 36.165688 23.454662 20.762526
v 33.167500 36.277592 4.414337
v 34.129704 37.623402 5.538153
v 37.257774 23.781460 22.365667
v 40.915001 23.137459 20.005587
v 41.811127 22.347736 21.609735
v 61.198708 79.024376 36.187611
v 62.094833 78.234650 37.791759
v 57.541481 79.668373 38.547691
v 36.973228 20.040606 28.026443
v 58.573704 79.555542 45.258957
v 62.662907 79.731895 39.524212
v 63.797497 78.290833 43.078938
v 38.741932 19.612392 27.288319
v 39.199730 19.831104 25.959126
v 38.849926 20.121538 25.394545
v 41.798935 22.246201 22.879267
v 43.650459 22.780495 27.005953
v 39.726250 19.991861 27.127981
v 39.647205 21.100466 27.602631
v 39.692501 20.617294 27.392298
v 38.900700 20.884935 25.940859
v 38.881027 20.513016 25.667421
v 56.951828 27.442160 74.100464
v 31.821077 49.315044 118.417152
v 33.758743 46.320690 120.993835
v 35.308727 47.555573 121.263298
v 58.544518 26.638670 75.400200
v 57.689381 26.302393 75.081245
v 60.120560 25.960268 77.509010
v 58.068520 25.162354 78.124893
v 57.285141 26.140265 78.149445
v 58.864365 26.762903 77.674683
v 61.612617 32.269417 71.858788
v 34.972801 49.478233 122.626007
v 34.668777 55.720337 119.372757
v 37.806526 52.292946 122.843704
v 64.750366 28.842024 75.329735
v 63.513672 28.600113 74.747833
v 63.979736 28.076563 75.270531
v 61.823700 27.935545 74.117508
v 63.852444 28.729937 76.030777
v 63.176384 28.462997 76.378349
v 60.741089 27.050465 77.185059
v 60.647385 27.465893 77.138649
v 59.200607 31.249382 73.032013
v 65.040962 27.348583 73.592331
v 73.845039 54.583420 82.834625
v 76.982788 51.156029 86.305573
v 79.685394 50.682625 83.394943
v 64.089081 27.515322 74.617485
v 63.214474 28.485456 73.614777
v 62.129715 28.049889 76.272163
v 63.852444 28.729937 76.030777
v 62.491264 28.065628 76.605316
v 63.176365 28.462990 76.378357
v 62.491009 28.192776 76.584396
v 62.188747 31.144438 74.783676
v 66.364922 28.806673 74.109550
v 65.742401 29.861559 72.528511
v 78.383553 50.003624 80.990166
v 74.829895 51.286503 83.245331
v 79.006073 48.948738 82.571205
v 58.442261 88.122688 37.776318
v 62.086105 87.517181 35.385551
v 54.972401 110.516273 26.816200
v 58.616245 109.910767 24.425432
v 59.702839 110.781731 25.860960
v 63.172699 88.388145 36.821079
v 59.658451 113.205956 26.234747
v 57.358242 115.842567 32.350079
v 61.996193 114.917839 28.992355
v 61.379482 89.890511 45.051826
v 62.197380 88.952995 42.877365
v 63.028152 89.561790 43.858242
v 63.400719 89.054337 38.055302
v 65.280022 93.724876 39.364857
v 62.323437 94.045982 41.671928
v 61.661201 92.392754 41.206341
v 55.123096 123.121552 27.694666
v 59.667080 122.466354 24.150246
v 60.861698 119.290718 26.268784
v 88.268127 153.820267 55.021259
v 83.724144 154.475464 58.565681
v 86.243004 152.793976 57.939812
v 88.782158 152.453827 55.932835
v 87.139465 148.097717 54.632122
v 62.753666 119.450043 27.754036
v 59.739395 118.579773 31.430553
v 63.257839 117.878250 28.883316
v 89.174744 148.414169 56.272060
v 88.841820 148.318054 56.678127
v 81.951241 142.929520 55.405273
v 84.924477 141.959869 52.728237
v 86.328926 145.478088 53.723240
v 89.302383 148.016235 56.557957
v 88.943893 147.942413 56.965080
v 88.218399 145.241287 55.824909
v 88.006180 145.530457 56.322136
v 61.356785 79.366425 46.040989
v 64.910439 78.083542 43.785824
v 65.911324 79.680817 44.454372
v 75.443359 55.586586 81.765854
v 78.997017 54.303707 79.510689
v 79.997902 55.900978 80.179237
v 62.749393 86.794609 47.907684
v 78.083435 60.908886 86.796257
v 80.763039 56.021584 82.486504
v 82.766380 59.215553 83.822594
v 64.274643 86.243088 46.939152
v 63.663540 85.127304 46.437405
v 69.283730 81.975906 49.629322
v 66.159668 80.673851 45.450970
v 66.548157 82.896873 51.529446
v 65.282608 82.371147 49.842117
v 36.749702 48.425171 120.982460
v 37.452007 50.035721 121.937912
v 34.369339 51.025265 118.349319
v 74.419792 53.556644 84.643166
v 76.800156 50.956551 87.276306
v 77.502464 52.567101 88.231758
v 30.255835 227.295792 63.749111
v 30.255835 225.235168 69.170715
v 32.783855 230.193420 64.850433
v 83.001625 185.025864 53.888039
v 83.001625 187.086487 48.466434
v 85.529648 189.984116 49.567757
v 26.578976 232.650787 73.341866
v 29.281744 236.574783 70.034698
v 31.755651 233.735092 68.687149
v 86.693878 250.724747 133.743637
v 81.517204 249.640442 138.398346
v 84.219971 253.564438 135.091187
v 27.274063 234.928101 70.155655
v 27.274063 229.815796 72.895042
v 30.997114 234.237350 68.866562
v 54.349075 262.369446 133.647308
v 54.349075 267.481750 130.907913
v 58.072124 266.790985 129.618820
v 34.849113 229.677414 64.428925
v 35.815315 230.326736 66.055222
v 34.022381 227.076752 68.418037
v 84.495049 191.831177 50.044403
v 85.461250 192.480499 51.670696
v 83.668312 189.230515 54.033520
v 32.611626 235.197952 70.070129
v 34.223045 234.016388 69.985115
v 32.172668 231.039566 72.493996
v 58.224144 265.993164 127.540764
v 57.785187 261.834778 129.964630
v 59.835564 264.811584 127.455750
v 33.651264 229.128601 70.958687
v 34.127201 233.668747 69.371109
v 35.444199 232.378586 68.595871
v 86.058617 245.335571 133.018158
v 86.534554 249.875717 131.430573
v 87.851555 248.585556 130.655334
v 78.744667 60.642368 88.555359
v 80.540863 55.409630 90.296661
v 83.803902 55.769173 88.011208
v 98.129410 70.598785 117.798157
v 96.333214 75.831520 116.056854
v 101.392448 70.958328 115.512703
v 82.076225 60.096954 89.344345
v 85.784019 58.094002 88.079262
v 85.331200 56.525799 89.234985
v 97.710793 73.598686 113.790588
v 100.965767 70.027519 113.681229
v 101.418587 71.595726 112.525505
v 88.644287 155.116867 55.263813
v 84.100304 155.772064 58.808235
v 85.784142 183.335434 46.380806
v 81.240158 183.990631 49.925224
v 88.239998 184.507263 49.312626
v 89.439407 156.166122 58.340977
v 90.422318 155.965271 57.386436
v 91.059639 156.688293 58.069839
v 89.274902 159.413635 62.018490
v 92.034683 158.479431 58.162220
v 93.046539 159.089920 59.775742
v 86.799675 183.834503 54.330971
v 89.559456 182.900299 50.474701
v 90.571312 183.510788 52.088223
v 82.104218 187.164978 53.729942
v 84.467628 191.449066 50.615314
v 88.120270 190.105789 51.539341
v 85.444458 250.263535 132.254150
v 89.097099 248.920258 133.178162
v 83.081047 245.979446 135.368774
v 84.230400 187.808685 55.616989
v 87.566132 191.639435 52.817314
v 90.110275 188.711029 51.841698
v 118.108070 198.788254 111.004410
v 120.715630 201.782776 108.815887
v 120.827171 199.205536 109.258553
v 121.079681 198.748047 102.474319
v 121.417862 202.610596 108.162323
v 119.870186 201.493042 107.480858
v 117.458984 198.127441 103.932137
v 87.981400 186.988144 55.863091
v 91.753036 186.664429 53.620342
v 91.706825 188.630936 53.258785
v 123.526573 198.943542 105.281654
v 123.282494 198.835907 105.452286
v 116.044121 196.083115 101.743515
v 119.204330 195.649567 98.981476
v 120.955116 198.086639 101.546951
v 123.555115 197.729126 105.504936
v 123.283730 197.563477 105.703766
v 122.824120 196.734390 104.419205
v 122.735573 196.820282 104.897659
v 119.801147 197.300751 107.885963
v 119.840530 197.318115 107.858437
v 119.841431 197.297287 107.862007
v 118.145332 196.764114 105.178825
v 88.492668 187.379135 55.964291
v 89.387207 191.227844 53.180897
v 91.023224 190.285233 53.840397
v 89.430664 243.855591 134.357788
v 90.325203 247.704300 131.574402
v 91.961220 246.761688 132.233902
v 78.353600 248.662094 134.652084
v 83.032509 243.056931 131.312103
v 85.395920 247.341019 128.197479
v 81.056366 252.586090 131.344925
v 89.048561 245.997742 129.121490
v 86.589859 246.303986 140.324631
vn 0.5440 -0.8058 -0.2339
vn 0.5440 -0.8059 -0.2339
vn -0.0000 -0.9999 0.0123
vn -0.5481 0.8025 0.2358
vn 0.0046 0.9999 -0.0144
vn 0.6363 0.0978 0.7652
vn 0.5433 0.5507 -0.6337
vn -0.0000 -0.1218 0.9926
vn -1.0000 0.0001 0.0073
vn -0.0042 0.0123 0.9999
vn -0.0040 -0.2772 0.9608
vn -0.9622 -0.2724 -0.0007
vn 1.0000 -0.0000 0.0042
vn 1.0000 0.0001 0.0042
vn 0.0040 -0.3008 -0.9537
vn 0.0041 -0.3008 -0.9537
vn -1.0000 -0.0001 -0.0042
vn 0.9622 -0.2723 0.0074
vn -0.0025 0.8073 0.5901
vn -0.6247 0.7808 -0.0123
vn 0.0025 0.7926 -0.6098
vn 0.0042 -0.0123 -0.9999
vn 0.6247 0.7808 -0.0070
vn -0.0000 0.9999 -0.0123
vn 0.0041 0.1951 -0.9808
vn 0.0035 0.5556 -0.8315
vn 0.0023 0.8315 -0.5556
vn 0.0008 0.9808 -0.1951
vn -0.0009 0.9808 0.1951
vn -0.0024 0.8315 0.5556
vn -0.0035 0.5556 0.8315
vn -0.0042 0.1951 0.9808
vn -0.0041 -0.1951 0.9808
vn -0.0035 -0.5556 0.8315
vn -0.0023 -0.8315 0.5556
vn -0.0008 -0.9808 0.1951
vn 0.0009 -0.9808 -0.1951
vn 0.0024 -0.8315 -0.5556
vn 0.0035 -0.5556 -0.8315
vn 0.0042 -0.1951 -0.9808
vn 0.4472 -0.8944 0.0044
vn 0.4473 -0.8944 0.0044
vn 0.0001 -1.0000 -0.0001
vn -0.0000 -1.0000 -0.0000
vn 0.5958 0.1747 0.7839
vn 0.6727 0.2864 -0.6823
vn -0.0117 0.0123 0.9999
vn -0.9575 -0.2884 -0.0005
vn -1.0000 -0.0000 -0.0042
vn -0.6761 -0.2775 0.6826
vn -0.6761 -0.2775 0.6825
vn -0.6758 -0.2776 0.6828
vn 0.6761 0.2775 -0.6826
vn 0.6761 0.2775 -0.6825
vn 0.6760 0.2776 -0.6827
vn 0.3554 -0.9343 -0.0278
vn 0.6455 0.2238 0.7303
vn -0.3554 0.9343 0.0278
vn -0.6455 -0.2238 -0.7303
vn -0.4657 -0.5314 -0.7076
vn -0.5344 -0.4680 -0.7038
vn -0.4644 -0.6040 -0.6478
vn -0.2962 -0.7791 -0.5525
vn 0.1092 -0.9539 -0.2797
vn 0.2941 -0.9510 -0.0954
vn 0.4589 -0.8833 0.0954
vn 0.5925 -0.7555 0.2797
vn 0.6782 -0.6150 0.4023
vn 0.7321 -0.3575 0.5798
vn 0.7287 -0.1145 0.6752
vn 0.6756 0.1362 0.7246
vn -0.6760 -0.2775 0.6826
vn 0.5765 0.3777 0.7246
vn 0.4709 0.5498 0.6899
vn 0.0831 0.8917 0.4449
vn -0.1092 0.9539 0.2797
vn -0.2941 0.9510 0.0954
vn -0.4589 0.8834 -0.0954
vn -0.4589 0.8833 -0.0954
vn -0.5925 0.7555 -0.2797
vn -0.6857 0.5761 -0.4449
vn -0.7118 0.5648 -0.4177
vn -0.7287 0.1145 -0.6752
vn -0.7287 0.1146 -0.6752
vn -0.6756 -0.1362 -0.7246
vn 0.6757 0.2777 -0.6829
vn -0.9222 -0.1729 0.3458
vn -0.6757 -0.2776 0.6829
vn 0.9999 -0.0000 -0.0134
vn -0.6172 0.7715 0.1543
vn 0.0001 0.0001 1.0000
vn 0.0001 -0.0000 1.0000
vn -0.0000 -0.0000 1.0000
vn -0.6764 -0.2775 0.6822
vn -0.6761 -0.2776 0.6825
vn 0.6396 0.6396 0.4264
vn -0.6760 -0.2776 0.6827
vn 0.9918 -0.1240 -0.0310
vn 0.8240 0.5665 -0.0000
vn 0.6758 0.2777 -0.6827
vn -0.0000 0.9884 -0.1521
vn 0.6764 0.2775 -0.6823
vn 0.6759 0.2776 -0.6828
vn 0.6762 0.2774 -0.6825
vn 0.6760 0.2775 -0.6826
vn 0.6761 0.2776 -0.6825
vn -0.6135 -0.3150 -0.7241
vn -0.5955 -0.3855 -0.7048
vn -0.6755 -0.2776 0.6831
vn -0.4381 -0.5935 -0.6752
vn -0.2698 -0.7688 -0.5798
vn -0.2504 -0.7606 -0.5990
vn -0.0831 -0.8917 -0.4449
vn -0.0639 -0.8835 -0.4641
vn 0.4589 -0.8834 0.0954
vn 0.6782 -0.5791 0.4523
vn 0.6899 -0.3736 0.6200
vn 0.6830 0.1393 0.7170
vn 0.7287 -0.1146 0.6752
vn 0.6505 0.2039 0.7317
vn 0.4306 0.5904 0.6826
vn 0.2698 0.7688 0.5798
vn -0.7126 0.3653 -0.5990
vn -0.7321 0.3575 -0.5798
vn -0.6756 -0.1362 -0.7245
vn 0.4312 -0.6839 0.5886
vn 0.4312 -0.6839 0.5885
vn -0.2609 -0.0706 -0.9628
vn 0.8976 0.3494 -0.2689
vn -0.8976 -0.3494 0.2689
vn 0.2610 0.0706 0.9628
vn 0.2609 0.0706 0.9628
vn 0.8975 0.3494 -0.2689
vn 0.8944 -0.4472 0.0105
vn -0.9970 -0.0779 -0.0000
vn 0.8975 0.3495 -0.2689
vn 0.2611 0.0706 0.9627
vn -0.8976 -0.3494 0.2688
vn -0.8975 -0.3494 0.2689
vn -0.3555 0.9343 0.0278
vn 0.7044 -0.7044 0.0880
vn -0.4404 0.6805 -0.5856
vn -0.2611 -0.0706 -0.9627
vn -0.2608 -0.0706 -0.9628
vn -0.0372 -0.2291 -0.9727
vn -0.0378 -0.2290 -0.9727
vn 0.0372 0.2291 0.9727
vn 0.0373 0.2291 0.9727
vn 0.0377 0.2291 0.9727
vn 0.3637 -0.9097 0.2003
vn -0.9308 -0.3464 0.1172
vn -0.3637 0.9097 -0.2003
vn 0.9308 0.3464 -0.1172
vn 0.2835 0.9309 -0.2301
vn 0.5693 0.7951 -0.2091
vn 0.7725 0.6101 -0.1764
vn 0.8781 0.4572 -0.1413
vn 0.9716 0.2193 -0.0888
vn 0.9716 0.2192 -0.0888
vn 0.9990 -0.0337 -0.0303
vn 0.9582 -0.2843 0.0303
vn 0.9582 -0.2844 0.0303
vn 0.8522 -0.5156 0.0888
vn 0.6881 -0.7117 0.1413
vn 0.6861 -0.7202 0.1029
vn 0.2336 -0.9484 0.2145
vn 0.2336 -0.9484 0.2144
vn -0.0259 -0.9728 0.2301
vn -0.0258 -0.9728 0.2301
vn -0.2835 -0.9309 0.2301
vn -0.5219 -0.8256 0.2144
vn -0.7247 -0.6640 0.1841
vn -0.8780 -0.4572 0.1413
vn -0.8781 -0.4572 0.1413
vn -0.9716 -0.2192 0.0888
vn -0.9990 0.0337 0.0303
vn -0.9582 0.2844 -0.0303
vn -0.8522 0.5156 -0.0888
vn -0.6881 0.7117 -0.1413
vn -0.2336 0.9484 -0.2144
vn 0.0259 0.9728 -0.2301
vn -0.0373 -0.2291 -0.9727
vn 0.5345 0.2673 -0.8018
vn -0.0371 -0.2291 -0.9727
vn -0.0374 -0.2291 -0.9727
vn 0.9545 0.2983 -0.0000
vn -0.0379 -0.2289 -0.9727
vn -0.0376 -0.2291 -0.9727
vn 0.0385 0.2291 0.9726
vn 0.8296 0.2074 -0.5185
vn -0.3637 0.9097 -0.2004
vn 0.5223 0.8281 -0.2038
vn 0.7250 0.6665 -0.1735
vn 0.8780 0.4572 -0.1413
vn 0.4771 -0.8594 0.1841
vn 0.4779 -0.8525 0.2117
vn -0.5219 -0.8256 0.2145
vn 0.4470 -0.0279 -0.8941
vn -0.6861 0.7202 -0.1029
vn -0.8523 0.5155 -0.0888
vn -0.4782 0.8496 -0.2223
vn -0.4771 0.8593 -0.1841
vn -0.2621 0.7830 -0.5640
vn 0.2621 -0.7830 0.5640
vn 0.8586 -0.0776 -0.5068
vn -0.4406 -0.6171 -0.6519
vn -0.8586 0.0776 0.5068
vn 0.4406 0.6171 0.6519
vn -0.4407 -0.6170 -0.6520
vn -0.8586 0.0777 0.5068
vn -0.8585 0.0776 0.5069
vn -0.8585 0.0776 0.5068
vn 0.4407 0.6171 0.6519
vn 0.4406 0.6171 0.6520
vn -0.2621 0.7830 -0.5641
vn -0.4406 -0.6170 -0.6521
vn -0.0000 -0.0000 -0.0000
vn -0.8586 0.0777 0.5067
vn -0.4410 -0.6167 -0.6521
vn -0.4532 0.8702 -0.1934
vn -0.0327 -0.6899 -0.7232
vn 0.0327 0.6899 0.7232
vn 0.8023 -0.4496 0.3927
vn 0.5960 0.5674 -0.5682
vn -0.8023 0.4496 -0.3927
vn -0.5960 -0.5674 0.5682
vn -0.5960 -0.5673 0.5682
vn 0.6600 0.5393 -0.5230
vn -0.6600 -0.5393 0.5230
vn 0.7500 -0.5132 0.4172
vn 0.0434 0.6676 0.7432
vn -0.7500 0.5132 -0.4172
vn -0.0434 -0.6676 -0.7432
vn 0.5652 -0.8168 0.1158
vn -0.8022 0.4503 -0.3920
vn -0.7495 0.5141 -0.4170
vn -0.5664 0.8159 -0.1164
vn -0.5969 -0.6143 0.5161
vn -0.0355 -0.6880 -0.7249
vn -0.0402 -0.6847 -0.7277
vn -0.0430 -0.6828 -0.7293
vn 0.7085 0.5017 -0.4964
vn -0.5496 -0.2681 0.7912
vn -0.5495 -0.2681 0.7913
vn 0.7870 0.4918 -0.3726
vn -0.6905 -0.5526 0.4668
vn 0.6288 0.5599 -0.5396
vn -0.5495 -0.2682 0.7913
vn 0.7286 0.5660 -0.3856
vn 0.2223 -0.7516 0.6210
vn 0.6900 0.7220 -0.0511
vn 0.4885 0.4219 0.7638
vn 0.4196 -0.7719 0.4777
vn -0.4432 -0.5624 0.6981
vn -0.7642 -0.0483 0.6432
vn -0.8341 -0.2860 0.4716
vn -0.5008 -0.7980 -0.3352
vn -0.0712 -0.2455 -0.9668
vn 0.7985 -0.2774 -0.5343
vn 0.8479 -0.2802 -0.4502
vn -0.9973 0.0705 -0.0225
vn -0.3612 0.8980 0.2511
vn -0.5862 0.3308 -0.7396
vn -0.3119 0.5265 -0.7909
vn -0.1861 0.2521 0.9496
vn 0.3006 0.9513 -0.0683
vn 0.3947 -0.7756 0.4926
vn -0.9003 0.3224 0.2925
vn -0.4460 -0.4504 0.7735
vn -0.4676 -0.3799 0.7982
vn 0.5075 -0.5574 0.6571
vn -0.7750 0.5908 0.2245
vn -0.9643 -0.2477 -0.0941
vn 0.4916 0.3171 -0.8111
vn -0.6158 -0.2733 -0.7390
vn 0.0962 -0.9494 0.2989
vn 0.5145 0.1667 0.8411
vn -0.7265 0.6185 0.2994
vn 0.4072 0.7261 -0.5541
vn 0.3771 0.9112 -0.1660
vn 0.4954 0.5553 -0.6680
vn 0.7576 0.0422 -0.6514
vn 0.5560 0.6540 -0.5130
vn -0.1006 0.6427 0.7595
vn 0.1134 -0.6956 0.7094
vn 0.1479 0.2360 -0.9604
vn -0.7160 0.6290 0.3029
vn -0.1381 0.6311 0.7633
vn 0.7976 -0.1468 -0.5850
vn 0.8403 -0.1618 -0.5174
vn 0.8401 -0.1618 -0.5177
vn 0.8402 -0.1618 -0.5176
vn -0.7636 0.2531 0.5940
vn -0.7912 0.1195 0.5998
vn 0.3119 -0.5265 0.7909
vn 0.0088 -0.6587 0.7524
vn -0.1378 0.8896 -0.4354
vn -0.8831 0.2067 -0.4213
vn -0.8527 0.0880 -0.5150
vn -0.8526 0.0880 -0.5150
vn -0.3292 -0.9070 -0.2626
vn -0.8140 0.0464 -0.5790
vn 0.8545 -0.3946 -0.3378
vn 0.8500 -0.3346 -0.4069
vn 0.5667 0.6436 0.5144
vn 0.5674 0.6433 0.5141
vn 0.5688 0.6425 0.5135
vn 0.5679 0.6429 0.5139
vn 0.3910 -0.3901 0.8336
vn 0.1454 0.9893 -0.0091
vn 0.8137 -0.1726 -0.5551
vn 0.8138 -0.1725 -0.5550
vn 0.0107 0.9535 -0.3013
vn 0.0108 0.9535 -0.3012
vn 0.5770 -0.4202 0.7003
vn 0.5771 -0.4202 0.7003
vn 0.5769 -0.4204 0.7003
vn 0.5296 -0.4198 0.7371
vn 0.5296 -0.4197 0.7371
vn -0.3909 0.3898 -0.8338
vn -0.3910 0.3898 -0.8338
vn 0.7995 -0.1570 -0.5797
vn 0.7997 -0.1571 -0.5795
vn 0.7993 -0.1569 -0.5801
vn 0.3663 0.9035 0.2223
vn 0.3632 0.9048 0.2224
vn 0.3660 0.9037 0.2223
vn 0.3672 0.9027 0.2243
vn 0.0737 0.9351 -0.3465
vn 0.0738 0.9351 -0.3466
vn 0.0738 0.9351 -0.3467
vn -0.1741 -0.6963 0.6963
vn 0.0753 -0.9660 0.2474
vn -0.8120 0.1447 0.5655
vn -0.8119 0.1447 0.5655
vn 0.6892 0.2096 0.6936
vn 0.6892 0.2095 0.6937
vn 0.8126 -0.2003 -0.5473
vn 0.8126 -0.1987 -0.5479
vn 0.8127 -0.1986 -0.5478
vn -0.1101 0.9691 -0.2209
vn -0.1102 0.9691 -0.2209
vn -0.1099 0.9691 -0.2207
vn 0.8043 -0.4301 0.4101
vn 0.8403 -0.1616 -0.5175
vn 0.0874 -0.7564 0.6483
vn -0.1378 0.8897 -0.4353
vn 0.5943 0.6389 0.4885
vn 0.5927 0.6419 0.4866
vn 0.5982 0.6315 0.4932
vn 0.5934 0.6301 0.5009
vn 0.8201 -0.1308 -0.5571
vn 0.5219 0.6614 0.5387
vn 0.5638 0.6379 0.5246
vn 0.8127 -0.1985 -0.5479
vn 0.5983 0.6314 0.4934
vn 0.5610 0.6466 0.5168
vn 0.5543 0.6508 0.5188
vn -0.0968 0.9686 -0.2289
vn 0.8137 -0.1727 -0.5551
vn 0.5771 -0.4201 0.7003
vn -0.3911 0.3898 -0.8337
vn 0.7996 -0.1571 -0.5796
vn 0.7990 -0.1567 -0.5806
vn 0.7996 -0.1569 -0.5797
vn 0.7996 -0.1570 -0.5797
vn 0.8001 -0.1570 -0.5790
vn 0.7999 -0.1572 -0.5792
vn 0.3663 0.9036 0.2223
vn 0.3663 0.9035 0.2224
vn 0.3662 0.9036 0.2224
vn 0.8144 -0.0467 0.5784
vn 0.3570 0.9025 0.2411
vn 0.3570 0.9025 0.2412
vn 0.0738 0.9352 -0.3464
vn 0.0739 0.9350 -0.3468
vn 0.3906 -0.3896 0.8340
vn 0.0962 -0.9687 0.2288
vn 0.0968 -0.9687 0.2286
vn 0.0948 -0.9687 0.2293
vn 0.0978 -0.9683 0.2297
vn 0.0944 -0.9687 0.2295
vn 0.0618 -0.9648 0.2554
vn 0.6596 0.1942 0.7261
vn 0.6593 0.1945 0.7263
vn 0.4856 0.7800 0.3947
vn 0.6596 0.1941 0.7261
vn 0.6720 0.0731 0.7370
vn 0.6579 0.2165 0.7213
vn 0.6598 0.1940 0.7260
vn 0.6567 0.5057 0.5595
vn 0.6739 0.1927 0.7133
vn 0.8126 -0.1998 -0.5475
vn 0.8127 -0.2018 -0.5467
vn 0.8042 -0.4302 0.4100
vn 0.6327 0.1957 0.7493
vn 0.0297 0.6321 0.7743
vn -0.7963 0.2857 0.5331
vn 0.6555 -0.2990 0.6935
vn 0.5291 0.6932 -0.4894
vn 0.9245 -0.1776 0.3372
vn -0.7196 0.2907 -0.6306
vn -0.9986 0.0249 0.0464
vn -0.5222 -0.7076 0.4761
vn 0.7750 -0.5908 -0.2245
vn -0.7489 -0.6195 -0.2354
vn -0.1880 0.6451 -0.7406
vn 0.6733 -0.2836 0.6828
vn -0.3181 0.5665 -0.7602
vn -0.0000 -0.3072 0.9516
vn -0.0000 0.3072 -0.9516
vn -1.0000 -0.0000 -0.0000
vn -0.0000 0.9516 0.3073
vn 1.0000 -0.0000 -0.0000
vn -0.0000 -0.9516 -0.3072
vn -0.0000 0.9516 0.3072
vn -0.0000 -0.8814 0.4723
vn -0.0000 0.8814 -0.4723
vn -0.0000 0.4723 0.8814
vn -0.0000 -0.4723 -0.8814
vn -0.0000 -0.3553 0.9348
vn -0.0000 0.3553 -0.9348
vn -0.0000 0.9348 0.3553
vn -0.0000 -0.9348 -0.3553
vn 0.0002 0.5737 0.8191
vn -0.0041 -0.7812 0.6242
vn -0.0042 -0.7811 0.6243
vn -0.0038 -0.7815 0.6239
vn 0.4548 0.1985 -0.8682
vn 0.6316 0.2087 0.7467
vn 0.3552 -0.9342 -0.0320
vn 0.3553 -0.9342 -0.0320
vn 0.3552 -0.9343 -0.0318
vn 0.3551 -0.9343 -0.0314
vn 0.7060 0.1886 -0.6826
vn 0.7059 0.1885 -0.6828
vn 0.7061 0.1889 -0.6824
vn -0.6471 -0.3502 0.6772
vn -0.3752 0.9261 0.0399
vn -0.3773 0.9252 0.0411
vn -0.3747 0.9263 0.0396
vn 0.3367 -0.9416 -0.0038
vn 0.3363 -0.9417 -0.0038
vn 0.3366 -0.9417 -0.0036
vn -0.3678 0.9293 0.0331
vn -0.3677 0.9293 0.0331
vn -0.3780 0.9234 0.0660
vn 0.7295 0.1281 -0.6719
vn 0.7303 0.1279 -0.6710
vn 0.7264 0.1291 -0.6750
vn -0.7024 0.1883 -0.6864
vn -0.0045 -0.7809 0.6246
vn 0.7060 0.1891 -0.6825
vn 0.7058 0.1885 -0.6829
vn -0.3745 0.9264 0.0394
vn -0.3778 0.9249 0.0414
vn 0.3368 -0.9416 -0.0039
vn 0.3362 -0.9418 -0.0042
vn 0.7307 0.1277 -0.6706
vn 0.7258 0.1414 -0.6732
vn 0.7223 0.1541 -0.6742
vn -0.5751 -0.6605 0.4827
vn 0.5751 0.6605 -0.4827
vn 0.6135 0.0420 0.7886
vn 0.6135 0.0420 0.7885
vn -0.5411 0.7497 0.3811
vn -0.6135 -0.0420 -0.7885
vn 0.5411 -0.7497 -0.3810
vn 0.5411 -0.7497 -0.3811
vn 0.5411 -0.7496 -0.3811
vn 0.3418 -0.7868 0.5139
vn 0.8488 -0.0536 -0.5259
vn 0.8489 -0.0536 -0.5259
vn -0.4423 -0.6078 -0.6595
vn 0.5800 0.0488 0.8132
vn 0.0854 -0.9961 0.0212
vn 0.8725 -0.0742 -0.4830
vn 0.6134 0.0420 0.7886
vn 0.6136 0.0420 0.7885
vn 0.5518 -0.7421 -0.3806
vn 0.3419 -0.7868 0.5139
vn 0.8488 -0.0536 -0.5260
vn 0.8489 -0.0534 -0.5258
vn 0.6092 0.0450 0.7917
vn 0.0638 -0.9960 0.0626
vn 0.8724 -0.0742 -0.4830
vn -0.8427 0.4552 0.2875
vn 0.8427 -0.4552 -0.2875
vn 0.2585 -0.1264 0.9577
vn 0.4724 0.8813 -0.0112
vn 0.4723 0.8814 -0.0112
vn -0.2585 0.1264 -0.9577
vn -0.4723 -0.8814 0.0112
vn 0.8137 -0.1725 -0.5551
vn 0.0756 0.9345 -0.3479
vn 0.0757 0.9345 -0.3479
vn 0.0642 -0.9651 0.2540
vn 0.8126 -0.2026 -0.5466
vn 0.8126 -0.2025 -0.5465
vn 0.8125 -0.2027 -0.5466
vn 0.0642 -0.9651 0.2539
vn 0.8124 -0.2027 -0.5467
vn 0.8127 -0.2024 -0.5465
vn -0.8118 0.1515 0.5639
vn 0.0899 0.9321 -0.3508
vn -0.4660 -0.6766 0.5702
vn 0.4660 0.6766 -0.5702
vn 0.2135 0.5394 0.8145
vn 0.8586 -0.5013 0.1069
vn -0.2135 -0.5394 -0.8145
vn -0.8586 0.5013 -0.1069
vn -0.8976 0.0210 0.4403
vn 0.7780 -0.4553 -0.4329
vn 0.3292 0.9070 0.2626
vn 0.1107 -0.7214 0.6836
vn 0.2186 0.9581 0.1853
vn -0.2787 0.7251 -0.6297
vn 0.0474 -0.9631 -0.2648
vn -0.9527 -0.1225 0.2782
vn 0.3651 0.8643 -0.3461
vn 0.3576 -0.9071 -0.2220
vn 0.4398 0.5573 -0.7043
vn 0.5008 0.7980 0.3352
vn 0.5410 -0.5909 0.5984
vn 0.3862 -0.9224 -0.0079
vn -0.9987 -0.0511 -0.0046
vn -0.5354 0.6603 -0.5266
vn -0.4533 0.3945 0.7993
vn 0.0289 0.7242 0.6890
vn -0.5035 0.4611 -0.7307
vn -0.0610 -0.0713 -0.9956
vn -0.7824 -0.6223 -0.0260
vn -0.7105 0.1709 0.6827
vn 0.5450 0.5974 0.5882
vn 0.7549 -0.1431 -0.6401
vn 0.7993 -0.1572 -0.5800
vn 0.1378 -0.8896 0.4354
vn 0.3825 0.2411 0.8919
vn 0.5955 0.0871 0.7986
vn -0.4134 -0.7887 0.4550
vn 0.9282 -0.3083 0.2085
vn 0.0135 0.6829 0.7304
vn 0.0135 0.6829 0.7303
vn -0.8411 0.1466 0.5207
vn 0.7834 -0.1130 -0.6111
vn -0.5450 -0.5975 -0.5882
vn -0.0962 0.9494 -0.2989
vn -0.5577 0.3061 -0.7715
vn 0.3400 -0.7873 0.5143
vn 0.3400 -0.7868 0.5151
vn 0.3399 -0.7873 0.5144
vn 0.5546 0.6053 0.5710
vn 0.5544 0.6054 0.5711
vn 0.5544 0.6055 0.5710
vn 0.8498 -0.0567 -0.5240
vn 0.8500 -0.0568 -0.5238
vn 0.8499 -0.0573 -0.5238
vn 0.5278 -0.4195 0.7385
vn 0.5277 -0.4194 0.7386
vn 0.5277 -0.4194 0.7387
vn 0.5276 -0.4195 0.7386
vn -0.2467 -0.9104 -0.3320
vn -0.2468 -0.9104 -0.3321
vn 0.8017 -0.1588 -0.5762
vn 0.8015 -0.1586 -0.5766
vn 0.8016 -0.1586 -0.5764
vn -0.4134 -0.7887 0.4551
vn 0.9281 -0.3084 0.2085
vn 0.9282 -0.3083 0.2084
vn 0.0135 0.6830 0.7303
vn 0.3398 -0.7867 0.5154
vn 0.3401 -0.7867 0.5152
vn 0.3397 -0.7867 0.5154
vn 0.5548 0.6055 0.5706
vn 0.5543 0.6056 0.5709
vn 0.8500 -0.0574 -0.5237
vn 0.8501 -0.0571 -0.5235
vn 0.5279 -0.4195 0.7385
vn 0.8018 -0.1585 -0.5761
vn 0.8014 -0.1586 -0.5767
vn 0.2787 -0.7251 0.6297
vn -0.1245 -0.6775 -0.7249
vn -0.9523 -0.1236 0.2791
vn 0.8546 0.4864 0.1818
vn -0.7289 -0.4501 0.5158
vn 0.3468 -0.9359 -0.0616
vn 0.8312 -0.1464 -0.5364
vn 0.4811 0.6729 0.5619
vn -0.7819 -0.5520 -0.2896
vn -0.4481 0.3949 -0.8021
vn 0.0640 -0.2989 0.9521
vn 0.9007 -0.2181 -0.3759
vn 0.2836 -0.3603 0.8887
vn -0.7448 0.4204 -0.5182
vn 0.8728 0.2434 -0.4230
vn 0.8724 0.2443 -0.4233
vn 0.8723 0.2446 -0.4233
vn 0.7448 -0.4205 0.5181
vn 0.3800 -0.9236 -0.0509
vn 0.2840 -0.3599 0.8887
vn 0.8758 0.2272 -0.4258
vn 0.8721 0.2451 -0.4235
vn 0.4533 -0.3945 -0.7993
vn 0.4404 -0.6805 0.5856
vn -0.7750 -0.6174 -0.1347
vn 0.5233 0.8437 -0.1197
vn -0.2270 -0.1575 -0.9611
vn -0.2271 -0.1574 -0.9611
vn -0.2273 -0.1573 -0.9610
vn 0.3664 -0.9305 -0.0009
vn 0.3665 -0.9304 -0.0008
vn 0.3663 -0.9305 -0.0009
vn -0.2268 -0.1576 -0.9611
vn 0.3666 -0.9304 -0.0007
vn 0.7084 0.7037 0.0544
vn -0.8903 -0.2438 -0.3846
vn -0.2264 -0.1584 -0.9611
vn -0.8370 -0.4763 0.2692
vn 0.3664 -0.9305 -0.0022
vn 0.3665 -0.9304 -0.0023
vn 0.3663 -0.9305 -0.0021
vn -0.8903 -0.2438 -0.3845
vn 0.3663 -0.9305 -0.0020
vn 0.3668 -0.9303 -0.0027
vn -0.6757 0.1184 0.7277
vn 0.2491 0.2381 -0.9388
vn -0.2264 -0.1586 -0.9610
vn 0.3671 -0.9302 0.0004
vn 0.3670 -0.9302 -0.0008
vn 0.3671 -0.9302 0.0006
vn -0.6757 0.1183 0.7276
vn 0.3671 -0.9302 0.0010
vn 0.8076 -0.2916 -0.5125
vn -0.3113 0.5274 -0.7905
vn -0.0508 -0.3595 0.9318
vn 0.8281 -0.1376 -0.5434
vn -0.5433 -0.4355 -0.7178
vn 0.1519 0.4534 0.8783
vn 0.7996 -0.1594 -0.5789
vn 0.5844 0.4280 0.6894
vn -0.9351 -0.2618 -0.2389
vn -0.5450 -0.5974 -0.5882
vn 0.5450 0.5974 0.5883
vn 0.5450 0.5975 0.5882
vn -0.2987 0.7939 -0.5296
vn -0.1989 -0.5894 0.7829
vn 0.7997 -0.1594 -0.5789
vn 0.2521 -0.7859 0.5647
vn 0.2521 -0.7859 0.5646
vn -0.5604 0.7814 -0.2745
vn 0.5280 -0.4196 0.7384
vn -0.8281 0.1804 0.5308
vn -0.8281 0.1805 0.5308
vn 0.7160 -0.4258 0.5532
vn -0.5004 -0.7986 -0.3343
vn 0.1214 0.8477 0.5164
vn 0.8074 -0.2920 -0.5127
vn 0.5008 0.7985 0.3340
vn -0.8707 -0.4916 0.0161
vn 0.0739 0.9351 -0.3467
vn 0.8128 -0.1989 -0.5476
vn 0.8128 -0.1990 -0.5476
vn 0.8128 -0.1989 -0.5475
vn 0.8127 -0.1990 -0.5476
vn 0.7642 0.0483 -0.6432
vn -0.3512 -0.8053 -0.4777
vn 0.0958 0.9776 0.1873
vn -0.6320 -0.7244 -0.2753
vn 0.5203 0.3946 0.7574
vn 0.5203 0.3946 0.7573
vn -0.6327 -0.1957 -0.7493
vn -0.6185 0.7099 0.3369
vn 0.2446 -0.9685 0.0464
vn 0.3656 0.4396 0.8204
vn -0.3656 -0.4396 -0.8204
vn -0.9308 0.1727 0.3223
vn 0.7662 -0.6426 0.0028
vn 0.4075 0.7386 -0.5370
vn 0.4831 0.3247 0.8131
vn -0.6084 -0.6012 -0.5180
vn 0.4660 0.6765 -0.5702
vn 0.8057 -0.5908 -0.0425
vn -0.9263 0.2579 0.2746
vn 0.6327 0.1957 0.7492
vn -0.6327 -0.1957 -0.7492
vn 0.6585 -0.6451 -0.3876
vn -0.7681 0.2816 0.5751
vn -0.4885 -0.4219 -0.7638
vn 0.3097 -0.9022 0.3002
vn -0.8158 -0.0899 0.5714
vn 0.4957 0.5862 -0.6408
vn 0.2264 0.7841 -0.5779
vn -0.5548 -0.5254 0.6450
vn -0.6140 -0.2930 -0.7330
vn 0.0606 0.3053 0.9503
vn 0.7834 -0.1129 -0.6111
vn 0.8572 -0.0736 -0.5097
vn 0.5059 0.3052 0.8068
vn -0.8153 -0.2474 -0.5235
vn -0.0097 -0.5845 -0.8113
vn 0.0097 0.5845 0.8113
vn -0.9132 0.3358 -0.2310
vn 0.5204 -0.6958 0.4950
vn -0.5145 -0.1667 -0.8411
vn -0.6360 0.7321 0.2439
vn 0.1971 -0.9776 0.0733
vn 0.1971 -0.9776 0.0732
vn 0.3418 -0.7868 0.5140
vn 0.0231 -0.9832 0.1808
vn 0.0231 -0.9833 0.1808
vn -0.3757 0.9256 0.0463
vn -0.3757 0.9256 0.0464
vn 0.3415 -0.7867 0.5142
vn -0.8630 0.0981 0.4957
vn -0.8629 0.0986 0.4957
vn -0.8628 0.0984 0.4959
vn 0.6308 -0.7350 0.2487
vn 0.6308 -0.7350 0.2486
vn -0.8630 0.0971 0.4957
vn -0.8630 0.0982 0.4957
vn 0.5139 0.1663 0.8416
vn 0.0229 -0.9832 0.1811
vn -0.3756 0.9256 0.0460
vn 0.8487 -0.0538 -0.5261
vn 0.8180 -0.4713 0.3298
vn -0.9827 0.1558 -0.1005
vn 0.4056 0.6931 -0.5958
vn 0.6514 0.7488 0.1225
vn 0.4727 -0.8719 0.1276
vn -0.5241 -0.7141 0.4641
vn -0.2438 0.7177 0.6523
vn -0.6832 -0.1353 -0.7176
vn -0.6832 -0.1430 -0.7161
vn -0.6831 -0.1344 -0.7178
vn -0.6832 -0.1436 -0.7160
s 1
usemtl FROZEN__V16_GREY
f 2//1 8//1 99//1
f 10//2 102//1 99//1
f 2//3 99//3 97//3
f 13//4 15//4 101//4
f 55//5 1//5 98//5
f 102//6 100//6 99//6
f 102//7 1//7 101//7
f 100//8 97//8 99//8
f 1//9 97//9 98//9
f 74//10 78//10 96//10
f 55//11 78//11 56//11
f 8//3 9//3 10//3
f 3//12 4//12 18//12
f 13//13 39//14 38//14
f 78//14 15//13 42//14
f 87//14 88//14 96//14
f 56//12 18//12 54//12
f 5//15 3//15 12//15
f 8//16 11//16 9//16
f 66//17 56//17 67//17
f 3//17 56//17 58//17
f 3//17 20//17 21//17
f 53//18 14//18 78//18
f 9//18 11//18 10//18
f 53//18 78//18 76//18
f 54//12 55//12 56//12
f 95//19 74//19 96//19
f 6//20 74//20 7//20
f 7//21 17//21 6//21
f 6//22 13//22 12//22
f 16//23 36//23 17//23
f 17//23 36//23 96//23
f 76//18 78//18 77//18
f 7//24 36//24 16//24
f 7//20 74//20 73//20
f 7//24 73//24 36//24
f 73//20 74//20 75//20
f 36//24 73//24 95//24
f 36//23 95//23 96//23
f 73//24 75//24 95//24
f 50//25 33//25 51//25
f 44//26 32//26 50//26
f 25//27 44//27 43//27
f 42//28 25//28 43//28
f 41//29 24//29 42//29
f 37//30 23//30 41//30
f 19//31 38//31 20//31
f 20//32 39//32 21//32
f 22//33 39//33 40//33
f 27//34 40//34 45//34
f 28//35 45//35 46//35
f 29//36 46//36 47//36
f 30//37 47//37 48//37
f 31//38 48//38 49//38
f 34//39 49//39 52//39
f 51//40 34//40 52//40
f 65//25 88//25 87//25
f 64//26 87//26 86//26
f 63//27 86//27 85//27
f 58//28 85//28 80//28
f 57//29 80//29 79//29
f 82//30 57//30 79//30
f 59//31 82//31 81//31
f 59//32 83//32 61//32
f 62//33 83//33 84//33
f 68//34 84//34 90//34
f 91//35 68//35 90//35
f 92//36 69//36 91//36
f 93//37 70//37 92//37
f 94//38 71//38 93//38
f 67//39 94//39 89//39
f 88//40 67//40 89//40
f 2//1 102//1 11//1
f 8//1 10//2 99//1
f 2//1 11//1 8//1
f 10//2 11//1 102//1
f 1//4 5//4 12//4
f 1//4 12//4 13//4
f 35//4 100//4 101//4
f 14//4 35//4 101//4
f 101//4 1//4 13//4
f 15//4 14//4 101//4
f 100//5 35//5 53//5
f 53//41 76//41 77//42
f 55//43 54//44 18//44
f 100//5 53//5 77//5
f 100//5 77//5 55//5
f 4//5 5//5 1//5
f 18//5 4//5 1//5
f 98//5 100//5 55//5
f 55//5 18//5 1//5
f 102//45 101//45 100//45
f 102//46 2//46 1//46
f 100//47 98//47 97//47
f 1//48 2//48 97//48
f 74//10 56//10 78//10
f 55//11 77//11 78//11
f 37//14 15//13 13//13
f 13//13 17//14 40//14
f 13//13 40//14 39//14
f 38//14 37//14 13//13
f 96//14 89//14 94//14
f 96//14 94//14 93//14
f 45//14 40//14 17//14
f 46//14 45//14 17//14
f 96//14 93//14 92//14
f 96//14 92//14 91//14
f 47//13 46//14 17//14
f 48//14 47//13 17//14
f 17//14 96//14 91//14
f 17//14 91//14 90//14
f 48//14 17//14 90//14
f 48//14 90//14 84//14
f 49//14 48//14 84//14
f 49//14 84//14 83//14
f 52//14 49//14 83//14
f 52//14 83//14 81//14
f 51//14 52//14 81//14
f 51//14 81//14 82//14
f 50//14 51//14 82//14
f 50//14 82//14 79//13
f 44//14 50//14 79//13
f 44//14 79//13 80//14
f 43//14 44//14 80//14
f 85//14 86//14 78//14
f 42//14 43//14 80//14
f 80//14 85//14 78//14
f 78//14 14//14 15//13
f 15//13 37//14 41//14
f 42//14 80//14 78//14
f 15//13 41//14 42//14
f 96//14 78//14 86//14
f 96//14 86//14 87//14
f 88//14 89//14 96//14
f 56//12 3//12 18//12
f 5//15 4//15 3//15
f 65//17 64//17 56//17
f 56//17 74//17 67//17
f 66//17 65//17 56//17
f 6//17 22//17 27//17
f 6//17 27//17 28//17
f 72//17 67//17 74//17
f 71//17 72//17 74//17
f 6//17 28//17 29//17
f 6//17 29//17 30//17
f 70//49 71//17 74//17
f 69//17 70//49 74//17
f 74//17 6//17 30//17
f 74//17 30//17 31//17
f 69//17 74//17 31//17
f 69//17 31//17 34//17
f 68//17 69//17 34//17
f 68//17 34//17 33//17
f 62//17 68//17 33//17
f 62//17 33//17 32//17
f 61//17 62//17 32//17
f 61//17 32//17 26//17
f 59//17 61//17 26//17
f 59//17 26//17 25//17
f 60//17 59//17 25//17
f 60//17 25//17 24//17
f 57//17 60//17 24//17
f 23//17 19//17 3//17
f 58//17 57//17 24//17
f 24//17 23//17 3//17
f 56//17 64//17 63//17
f 58//17 24//17 3//17
f 56//17 63//17 58//17
f 22//17 6//17 3//17
f 3//17 19//17 20//17
f 21//17 22//17 3//17
f 53//18 35//18 14//18
f 95//19 75//19 74//19
f 7//21 16//21 17//21
f 12//22 3//22 6//22
f 6//22 17//22 13//22
f 50//25 32//25 33//25
f 44//26 26//26 32//26
f 25//27 26//27 44//27
f 42//28 24//28 25//28
f 41//29 23//29 24//29
f 37//30 19//30 23//30
f 19//31 37//31 38//31
f 20//32 38//32 39//32
f 22//33 21//33 39//33
f 27//34 22//34 40//34
f 28//35 27//35 45//35
f 29//36 28//36 46//36
f 30//37 29//37 47//37
f 31//38 30//38 48//38
f 34//39 31//39 49//39
f 51//40 33//40 34//40
f 65//25 66//25 88//25
f 64//26 65//26 87//26
f 63//27 64//27 86//27
f 58//28 63//28 85//28
f 57//29 58//29 80//29
f 82//30 60//30 57//30
f 59//31 60//31 82//31
f 59//32 81//32 83//32
f 62//33 61//33 83//33
f 68//34 62//34 84//34
f 91//35 69//35 68//35
f 92//36 70//36 69//36
f 93//37 71//37 70//37
f 94//38 72//38 71//38
f 67//39 72//39 94//39
f 88//40 66//40 67//40
f 105//50 128//50 127//51
f 159//50 143//50 151//52
f 106//53 109//53 108//53
f 177//53 164//54 171//55
f 159//56 106//56 179//56
f 178//57 179//57 177//57
f 178//58 103//58 104//58
f 104//59 106//59 105//59
f 170//60 154//60 168//60
f 152//61 168//61 153//61
f 166//62 152//62 143//62
f 165//63 142//63 146//63
f 141//64 145//64 144//64
f 140//65 144//65 137//65
f 135//66 140//66 136//66
f 139//67 135//67 134//67
f 138//68 131//68 115//68
f 111//69 131//69 130//69
f 130//70 109//70 110//70
f 109//71 124//71 126//71
f 125//50 127//51 126//72
f 112//73 127//73 128//73
f 112//74 133//74 113//74
f 114//75 118//75 119//75
f 117//76 119//76 120//76
f 160//76 120//76 121//76
f 161//77 121//77 122//77
f 123//78 162//79 161//79
f 147//80 172//80 163//80
f 147//81 148//81 173//81
f 174//82 148//82 149//82
f 175//83 158//84 150//83
f 176//85 156//85 154//85
f 176//86 171//55 164//54
f 146//87 142//87 143//87
f 159//50 153//88 155//72
f 159//50 155//72 154//51
f 146//50 143//50 178//50
f 145//50 146//50 178//50
f 159//50 154//51 156//50
f 150//89 158//89 157//89
f 159//50 156//50 150//50
f 144//50 145//50 178//50
f 135//90 136//90 137//90
f 137//50 144//50 178//50
f 159//50 150//50 157//50
f 149//91 148//92 147//93
f 159//50 157//50 149//50
f 137//50 178//50 104//50
f 135//50 137//50 104//50
f 159//50 149//50 147//50
f 159//50 147//50 123//50
f 134//50 135//50 104//50
f 132//94 134//50 104//50
f 105//50 159//50 123//50
f 105//50 123//50 122//50
f 132//94 104//50 105//50
f 131//95 132//94 105//50
f 105//50 122//50 121//50
f 121//96 120//96 119//96
f 105//50 121//50 119//50
f 130//97 131//95 105//50
f 124//98 129//98 130//98
f 124//50 130//97 105//50
f 105//50 119//50 118//50
f 105//50 118//50 133//50
f 126//72 124//50 105//50
f 125//50 126//72 105//50
f 105//50 133//50 128//50
f 127//51 125//50 105//50
f 151//52 153//88 159//50
f 159//50 178//50 143//50
f 143//99 152//99 151//99
f 176//86 164//54 179//53
f 177//53 171//55 170//100
f 169//101 168//101 167//101
f 177//53 170//100 169//54
f 175//53 176//86 179//53
f 174//53 175//53 179//53
f 177//53 169//54 167//53
f 177//53 167//53 166//53
f 173//53 174//53 179//53
f 172//102 173//53 179//53
f 177//53 166//53 165//53
f 177//53 165//53 141//53
f 172//102 179//53 106//53
f 163//55 172//102 106//53
f 103//53 177//53 141//53
f 103//53 141//53 140//53
f 162//103 163//55 106//53
f 161//53 162//103 106//53
f 103//53 140//53 139//53
f 103//53 139//53 138//53
f 160//53 161//53 106//53
f 117//53 160//53 106//53
f 103//53 138//53 116//53
f 103//53 116//53 115//53
f 114//53 117//53 106//53
f 113//53 114//53 106//53
f 106//53 103//53 115//53
f 106//53 115//53 111//104
f 107//105 113//53 106//53
f 112//53 107//105 106//53
f 106//53 111//104 110//54
f 106//53 110//54 109//53
f 108//53 112//53 106//53
f 177//53 179//53 164//54
f 159//56 105//56 106//56
f 178//57 159//57 179//57
f 178//58 177//58 103//58
f 104//59 103//59 106//59
f 168//106 169//54 170//100
f 170//107 176//107 154//107
f 154//108 155//108 168//108
f 153//88 151//52 152//109
f 152//110 167//110 168//110
f 168//108 155//108 153//108
f 143//111 142//111 166//111
f 166//112 167//112 152//112
f 146//113 145//113 165//113
f 165//114 166//114 142//114
f 141//64 165//64 145//64
f 137//115 136//66 140//66
f 140//65 141//65 144//65
f 134//116 132//116 138//116
f 139//66 140//66 135//66
f 134//67 138//67 139//67
f 115//53 116//53 138//53
f 138//117 132//117 131//117
f 111//69 115//69 131//69
f 110//69 111//69 130//69
f 130//70 129//70 109//70
f 127//118 108//118 109//118
f 109//70 129//70 124//119
f 126//120 127//120 109//120
f 112//73 108//73 127//73
f 113//53 107//105 112//53
f 112//121 128//121 133//121
f 133//122 118//122 113//122
f 114//122 113//122 118//122
f 117//75 114//75 119//75
f 160//76 117//76 120//76
f 161//77 160//77 121//77
f 161//79 122//78 123//78
f 123//80 163//80 162//80
f 163//80 123//80 147//80
f 147//81 173//81 172//81
f 157//84 158//84 174//83
f 174//123 173//123 148//123
f 149//124 157//124 174//124
f 150//125 156//85 175//85
f 175//83 174//83 158//84
f 176//85 175//85 156//85
f 176//86 170//100 171//55
f 195//126 196//126 188//127
f 194//127 198//127 187//127
f 193//128 194//128 181//128
f 192//129 196//129 194//129
f 187//130 184//130 181//130
f 187//131 199//132 186//131
f 200//131 188//131 197//131
f 190//128 183//128 189//128
f 191//56 185//56 182//56
f 190//56 182//56 180//56
f 200//133 196//129 192//129
f 199//133 196//129 191//129
f 189//58 186//58 199//58
f 186//58 193//58 184//58
f 188//130 183//130 182//130
f 188//127 185//127 195//126
f 196//126 197//127 188//127
f 187//127 181//127 194//127
f 194//134 196//134 198//134
f 181//128 184//128 193//128
f 193//135 192//135 194//135
f 187//130 186//130 184//130
f 187//131 198//132 199//132
f 200//131 186//131 188//131
f 190//128 180//128 183//128
f 191//56 195//56 185//56
f 190//56 191//56 182//56
f 192//129 193//129 200//133
f 200//133 197//136 196//129
f 190//129 189//129 199//133
f 199//133 198//136 196//129
f 196//129 195//129 191//129
f 191//129 190//129 199//133
f 189//58 183//58 186//58
f 186//58 200//58 193//58
f 182//130 185//130 188//130
f 188//130 186//130 183//130
f 183//130 180//130 182//130
f 211//127 210//127 206//127
f 210//137 213//137 212//137
f 209//128 201//128 203//128
f 209//129 213//129 211//129
f 207//58 212//58 209//58
f 206//130 202//130 203//138
f 208//56 205//56 201//56
f 205//130 204//130 201//139
f 206//127 205//127 211//127
f 211//127 213//127 210//127
f 210//127 207//127 206//127
f 203//128 202//128 209//128
f 209//128 208//128 201//128
f 201//139 204//130 203//130
f 211//129 208//129 209//129
f 209//129 212//129 213//129
f 209//58 202//58 207//58
f 207//58 210//140 212//58
f 203//141 204//141 206//141
f 206//130 207//130 202//130
f 208//56 211//56 205//56
f 205//130 206//130 204//130
f 218//142 214//142 221//142
f 220//132 214//132 217//132
f 218//143 215//144 216//144
f 219//56 217//56 215//56
f 220//133 218//136 221//133
f 217//139 216//130 215//130
f 218//142 216//142 214//142
f 220//132 221//132 214//132
f 218//143 219//143 215//144
f 219//56 220//56 217//56
f 220//133 219//136 218//136
f 217//139 214//139 216//130
f 228//145 230//146 222//145
f 285//145 267//145 263//145
f 242//147 243//148 244//147
f 284//147 275//149 282//147
f 283//150 242//150 222//150
f 222//151 224//151 223//151
f 285//152 224//152 286//152
f 286//153 283//153 285//153
f 251//154 236//154 250//154
f 230//155 250//155 235//155
f 229//156 249//156 230//156
f 244//157 229//157 227//157
f 245//158 227//159 225//159
f 245//160 231//160 246//160
f 247//161 231//162 234//162
f 247//163 232//163 248//163
f 233//164 248//164 232//164
f 253//165 233//165 239//165
f 253//166 241//167 254//166
f 254//168 259//169 272//168
f 273//170 259//170 261//170
f 262//171 274//171 273//171
f 275//172 263//172 282//172
f 279//173 263//174 267//174
f 280//175 267//175 268//175
f 281//176 268//176 266//176
f 278//177 265//177 264//177
f 277//178 264//178 258//178
f 276//179 258//179 257//179
f 270//180 256//180 255//180
f 269//180 255//180 238//180
f 251//181 238//181 237//181
f 285//145 260//182 259//145
f 285//145 259//145 241//145
f 265//145 266//182 283//145
f 264//145 265//145 283//145
f 223//145 285//145 241//145
f 223//145 241//145 240//145
f 258//145 264//145 283//145
f 257//145 258//145 283//145
f 223//145 240//145 239//145
f 239//183 233//183 232//183
f 223//145 239//145 232//145
f 257//145 283//145 222//145
f 256//145 257//145 222//145
f 223//145 232//145 234//145
f 223//145 234//145 231//145
f 255//184 256//145 222//145
f 238//182 255//184 222//145
f 222//145 223//145 231//145
f 222//145 231//145 225//185
f 237//145 238//182 222//145
f 235//186 236//186 237//186
f 235//145 237//145 222//145
f 222//145 225//185 227//145
f 222//145 227//145 229//187
f 226//182 235//145 222//145
f 230//146 226//182 222//145
f 222//145 229//187 228//145
f 261//145 260//182 285//145
f 285//145 283//145 266//182
f 285//145 266//182 268//188
f 262//145 261//145 285//145
f 263//145 262//145 285//145
f 285//145 268//188 267//145
f 273//147 274//189 286//147
f 284//147 280//147 281//147
f 278//190 277//190 276//190
f 284//147 281//147 278//147
f 272//147 273//147 286//147
f 254//147 272//147 286//147
f 284//147 278//147 276//147
f 284//147 276//147 271//147
f 254//147 286//147 224//147
f 253//147 254//147 224//147
f 242//147 284//147 271//147
f 242//147 271//147 270//147
f 252//147 253//147 224//147
f 248//147 252//147 224//147
f 242//147 270//147 269//147
f 242//147 269//147 251//147
f 247//147 248//147 224//147
f 246//147 247//147 224//147
f 242//147 251//147 250//147
f 242//147 250//147 249//147
f 246//147 224//147 242//147
f 245//148 246//147 242//147
f 242//147 249//147 243//148
f 244//147 245//148 242//147
f 279//147 280//147 284//147
f 284//147 286//147 274//189
f 284//147 274//189 275//149
f 282//147 279//147 284//147
f 283//150 284//150 242//150
f 222//151 242//151 224//151
f 285//152 223//191 224//152
f 286//153 284//153 283//153
f 251//154 237//154 236//154
f 235//145 226//182 230//146
f 230//192 249//192 250//192
f 250//154 236//154 235//154
f 230//146 228//145 229//187
f 229//193 243//193 249//193
f 244//157 243//194 229//157
f 245//158 244//158 227//159
f 245//160 225//160 231//160
f 247//161 246//161 231//162
f 247//163 234//163 232//163
f 233//164 252//164 248//164
f 239//195 240//195 253//195
f 253//196 252//196 233//196
f 253//166 240//167 241//167
f 254//168 241//169 259//169
f 261//197 262//171 273//171
f 273//170 272//170 259//170
f 259//198 260//198 261//198
f 262//171 275//171 274//171
f 275//172 262//172 263//172
f 279//173 282//173 263//174
f 280//175 279//175 267//175
f 266//176 265//176 281//176
f 281//176 280//176 268//176
f 278//177 281//177 265//177
f 277//178 278//178 264//178
f 256//199 271//199 276//199
f 276//200 277//178 258//178
f 257//201 256//201 276//201
f 270//202 271//202 256//202
f 269//180 270//180 255//180
f 251//181 269//181 238//181
f 288//203 291//203 290//203
f 287//204 294//204 293//204
f 294//205 290//205 291//205
f 288//206 289//206 287//206
f 293//207 288//207 287//207
f 293//208 291//208 292//208
f 288//203 292//203 291//203
f 287//204 289//204 294//204
f 294//205 289//205 290//205
f 288//206 290//206 289//206
f 293//207 292//207 288//207
f 293//208 294//208 291//208
f 296//204 305//204 295//204
f 300//209 298//206 296//206
f 302//210 299//211 300//212
f 301//213 302//213 303//214
f 299//215 303//215 298//215
f 296//205 304//205 307//205
f 305//208 304//208 302//213
f 296//204 307//204 305//204
f 296//206 295//206 300//209
f 300//209 297//216 298//206
f 300//212 295//207 305//207
f 305//217 306//217 302//93
f 302//210 301//218 299//211
f 299//219 297//216 300//209
f 300//212 305//207 302//210
f 298//220 297//220 299//220
f 299//215 301//215 303//215
f 303//215 304//203 298//215
f 296//205 298//205 304//205
f 305//208 307//208 304//208
f 304//208 303//214 302//213
f 310//203 313//203 309//203
f 315//204 308//204 311//204
f 309//205 315//205 311//205
f 309//206 308//206 310//206
f 314//207 310//207 308//207
f 312//208 315//208 313//208
f 310//203 312//203 313//203
f 315//204 314//204 308//204
f 309//205 313//205 315//205
f 309//206 311//206 308//206
f 314//207 312//207 310//207
f 312//208 314//208 315//208
f 316//221 318//221 317//221
f 321//222 323//222 320//222
f 316//223 321//223 320//223
f 318//224 321//224 317//224
f 319//225 322//225 318//225
f 316//226 323//226 319//227
f 316//221 319//221 318//221
f 321//222 322//222 323//222
f 316//223 317//223 321//223
f 318//224 322//224 321//224
f 319//225 323//225 322//225
f 316//226 320//226 323//226
f 327//228 325//228 324//228
f 329//229 331//229 328//229
f 325//230 328//230 324//230
f 326//231 329//231 325//231
f 327//232 330//232 326//232
f 324//233 331//233 327//233
f 327//228 326//228 325//228
f 329//229 330//229 331//229
f 325//230 329//230 328//230
f 326//231 330//231 329//231
f 327//232 331//232 330//232
f 324//233 328//233 331//233
f 332//223 333//223 334//223
f 332//230 334//230 335//230
f 332//234 335//234 336//234
f 337//235 339//235 338//235
f 337//236 340//236 339//236
f 337//237 341//237 340//237
f 332//238 338//238 333//238
f 334//239 338//240 339//241
f 335//242 339//242 340//242
f 332//243 341//244 337//243
f 335//245 341//245 336//245
f 332//246 337//246 338//246
f 334//239 333//221 338//240
f 335//247 334//247 339//247
f 332//243 336//248 341//244
f 335//249 340//249 341//249
f 342//250 352//250 347//250
f 350//251 351//251 353//251
f 351//252 352//252 353//252
f 352//253 343//253 353//253
f 342//254 347//254 346//254
f 346//255 347//255 348//255
f 342//256 346//256 344//256
f 342//257 344//257 343//257
f 343//258 344//258 349//258
f 343//259 349//259 350//259
f 343//260 350//260 353//260
f 345//261 346//261 348//261
f 345//262 348//262 351//262
f 344//263 345//263 349//263
f 345//264 350//264 349//264
f 348//265 352//265 351//265
f 350//266 345//266 351//266
f 352//267 342//267 343//267
f 345//268 344//268 346//268
f 348//265 347//265 352//265
f 355//269 365//269 358//269
f 358//270 365//270 364//270
f 365//271 360//271 363//271
f 356//272 358//272 357//272
f 355//273 358//273 356//273
f 354//274 357//274 363//274
f 354//275 355//275 356//275
f 354//276 360//276 355//276
f 362//277 365//277 363//277
f 357//278 364//278 359//278
f 357//279 359//279 361//279
f 359//280 362//280 361//280
f 357//281 361//281 363//281
f 354//282 363//282 360//282
f 362//283 363//283 361//283
f 359//284 365//284 362//284
f 365//285 355//285 360//285
f 354//286 356//286 357//286
f 357//287 358//287 364//287
f 359//288 364//288 365//288
f 380//289 372//289 381//289
f 366//290 376//291 426//292
f 375//293 371//293 370//293
f 375//294 370//294 367//294
f 375//295 374//295 401//295
f 367//296 374//296 375//296
f 383//297 372//297 371//297
f 371//298 386//298 385//298
f 388//299 367//299 387//299
f 386//300 372//300 390//300
f 366//301 369//301 367//301
f 366//302 389//302 391//302
f 390//302 372//302 380//302
f 404//303 374//303 369//303
f 397//304 369//304 366//304
f 395//305 375//306 410//307
f 411//308 409//308 410//308
f 395//309 393//309 392//309
f 409//310 407//310 410//310
f 377//311 412//312 393//312
f 376//313 427//314 424//313
f 376//315 415//316 414//317
f 390//318 381//319 385//319
f 393//320 417//321 416//321
f 385//322 394//323 418//324
f 379//325 389//326 422//327
f 428//328 396//328 425//328
f 397//329 368//330 402//331
f 407//332 406//332 412//332
f 416//333 409//333 410//333
f 396//334 429//334 400//335
f 415//335 421//335 414//335
f 420//336 368//336 399//337
f 368//338 410//339 408//340
f 426//341 429//342 428//343
f 426//344 427//344 430//344
f 426//292 425//290 396//290
f 426//292 396//290 400//290
f 376//291 424//345 426//292
f 378//290 382//290 376//291
f 366//289 379//289 378//289
f 398//290 397//290 366//290
f 426//292 400//290 399//290
f 399//290 398//290 366//290
f 366//290 378//290 376//291
f 426//292 399//290 366//290
f 374//295 402//295 401//295
f 401//295 403//295 375//295
f 367//346 369//346 374//346
f 383//297 381//297 372//297
f 371//297 384//347 383//297
f 385//298 387//298 370//298
f 371//298 372//298 386//298
f 385//298 370//298 371//298
f 388//299 389//300 367//299
f 367//299 370//300 387//299
f 391//302 379//302 366//302
f 366//302 367//302 389//302
f 404//303 402//303 374//303
f 397//304 404//304 369//304
f 410//348 407//349 377//350
f 377//351 393//351 395//351
f 395//352 394//352 384//352
f 384//353 371//353 375//353
f 375//354 403//354 405//354
f 405//355 408//340 410//339
f 410//348 377//350 395//356
f 395//305 384//357 375//306
f 375//358 405//358 410//358
f 409//359 406//359 407//359
f 377//311 407//360 412//312
f 376//313 413//314 427//314
f 414//317 413//315 376//315
f 376//315 382//361 415//316
f 385//319 386//319 390//318
f 390//318 380//318 381//319
f 381//319 383//319 385//319
f 416//321 395//321 392//362
f 393//320 412//321 417//321
f 416//321 392//362 393//320
f 419//363 420//364 388//322
f 388//322 387//322 385//322
f 385//322 383//365 384//366
f 394//323 395//367 416//368
f 385//322 384//366 394//323
f 418//324 419//363 388//322
f 394//323 416//368 418//324
f 418//324 388//322 385//322
f 421//369 415//370 382//370
f 382//370 378//371 379//325
f 379//372 391//372 389//372
f 389//373 388//373 420//374
f 389//373 420//374 423//373
f 421//369 382//370 379//325
f 389//373 423//373 422//373
f 422//327 421//369 379//325
f 402//331 404//375 397//329
f 397//329 398//329 368//330
f 368//330 401//376 402//331
f 416//377 417//377 412//377
f 412//378 406//379 409//380
f 410//381 373//381 418//381
f 416//382 412//378 409//380
f 410//383 418//383 416//383
f 396//334 428//334 429//334
f 413//384 414//384 421//384
f 421//385 422//385 423//385
f 420//364 419//363 418//324
f 421//386 423//386 420//386
f 430//387 427//387 413//387
f 413//388 421//388 420//388
f 420//389 418//389 373//389
f 368//336 398//337 399//337
f 399//387 400//390 429//387
f 430//391 413//391 420//391
f 399//387 429//387 430//387
f 420//336 373//336 368//336
f 399//392 430//392 420//392
f 408//340 405//355 403//393
f 403//393 401//394 368//338
f 368//338 373//339 410//339
f 408//340 403//393 368//338
f 428//343 425//343 426//341
f 426//341 430//341 429//342
f 426//344 424//395 427//344
f 436//396 437//396 439//396
f 432//397 439//397 437//397
f 432//398 438//398 439//398
f 435//399 439//399 438//399
f 434//400 437//400 436//400
f 436//401 435//401 434//401
f 431//402 432//402 433//402
f 431//403 438//403 432//403
f 431//404 435//404 438//404
f 433//405 434//405 435//405
f 431//406 433//406 435//406
f 434//407 432//407 437//407
f 436//408 439//408 435//408
f 434//409 433//409 432//409
f 443//410 441//410 440//410
f 445//411 447//411 444//411
f 440//412 445//412 444//412
f 442//413 445//413 441//413
f 443//414 446//414 442//414
f 440//415 447//415 443//415
f 443//410 442//410 441//410
f 445//411 446//411 447//411
f 440//412 441//412 445//412
f 442//413 446//416 445//413
f 443//414 447//414 446//414
f 440//415 444//415 447//415
f 451//417 449//417 448//417
f 453//418 455//418 452//418
f 449//412 452//412 448//412
f 450//419 453//419 449//419
f 450//414 455//414 454//414
f 448//420 455//420 451//420
f 451//417 450//417 449//417
f 453//418 454//418 455//418
f 449//412 453//412 452//412
f 450//419 454//419 453//419
f 450//414 451//414 455//414
f 448//420 452//420 455//420
f 459//421 457//421 456//421
f 461//422 463//422 460//422
f 456//412 461//412 460//412
f 458//423 461//423 457//423
f 459//414 462//414 458//414
f 456//424 463//424 459//424
f 459//421 458//421 457//421
f 461//422 462//422 463//422
f 456//412 457//412 461//412
f 458//423 462//423 461//423
f 459//414 463//414 462//414
f 456//424 460//424 463//424
f 475//24 465//24 477//24
f 493//3 470//3 482//3
f 472//17 465//17 485//17
f 466//10 471//10 473//10
f 478//14 489//14 486//14
f 468//22 499//22 495//22
f 467//22 481//22 490//22
f 470//425 472//425 469//425
f 473//426 472//427 474//428
f 477//429 478//429 475//429
f 475//430 478//430 476//430
f 481//431 487//432 491//432
f 480//433 481//431 479//434
f 482//435 485//436 486//437
f 487//438 490//438 491//438
f 489//439 502//440 501//441
f 488//442 485//443 484//444
f 499//445 493//446 494//445
f 499//447 498//447 495//447
f 496//448 493//449 502//450
f 501//451 502//451 500//451
f 475//24 476//24 467//24
f 467//24 464//24 465//24
f 465//24 466//24 477//24
f 475//24 467//24 465//24
f 493//3 492//3 468//3
f 470//3 469//3 483//3
f 482//3 501//3 500//3
f 470//3 483//3 482//3
f 493//3 468//3 470//3
f 482//3 500//3 493//3
f 472//17 471//17 465//17
f 465//17 464//17 484//17
f 485//17 483//17 469//17
f 465//17 484//17 485//17
f 485//17 469//17 472//17
f 466//10 465//10 471//10
f 480//14 479//14 467//14
f 478//14 477//14 466//14
f 466//14 473//14 474//14
f 468//13 495//14 498//13
f 494//14 496//14 497//14
f 468//13 498//13 494//14
f 478//14 466//14 474//14
f 487//14 480//14 467//14
f 488//14 487//14 467//14
f 478//14 474//14 470//13
f 470//13 468//13 494//14
f 494//14 497//14 489//14
f 486//14 488//14 467//14
f 470//13 494//14 489//14
f 486//14 467//14 476//14
f 478//14 470//13 489//14
f 486//14 476//14 478//14
f 468//22 492//22 499//22
f 484//22 464//22 467//22
f 467//22 479//22 481//22
f 481//22 491//22 490//22
f 490//22 484//22 467//22
f 470//425 474//425 472//425
f 473//426 471//452 472//427
f 481//431 480//433 487//432
f 486//437 489//453 482//435
f 482//435 483//454 485//436
f 487//438 488//438 490//438
f 501//441 482//455 489//439
f 489//439 497//456 502//440
f 484//444 490//457 488//442
f 488//442 486//458 485//443
f 494//445 498//445 499//445
f 499//445 492//445 493//446
f 496//448 494//459 493//449
f 493//460 500//460 502//460
f 502//461 497//461 496//461
f 505//462 503//462 504//462
f 508//463 513//463 512//463
f 520//464 507//465 503//465
f 504//466 508//466 505//466
f 505//467 510//467 516//467
f 506//468 523//469 522//470
f 517//468 510//468 514//468
f 516//471 514//471 512//471
f 512//472 515//472 526//473
f 513//474 511//474 515//474
f 522//475 523//475 526//475
f 509//476 525//476 521//476
f 522//477 520//477 519//477
f 505//462 506//462 503//462
f 514//463 510//463 508//463
f 508//463 507//463 511//463
f 508//463 511//463 513//463
f 512//463 514//463 508//463
f 520//464 521//478 515//465
f 515//465 511//479 507//465
f 507//465 504//465 503//465
f 503//465 519//465 520//464
f 520//464 515//465 507//465
f 504//466 507//466 508//466
f 518//467 506//467 505//467
f 505//467 508//467 510//467
f 510//467 517//467 516//467
f 516//467 518//467 505//467
f 519//468 503//468 506//468
f 506//468 518//468 523//469
f 523//480 524//480 522//480
f 522//470 519//468 506//468
f 516//471 517//481 514//471
f 526//473 523//472 518//472
f 518//472 516//482 512//472
f 512//472 513//472 515//472
f 515//472 521//472 525//483
f 526//473 518//472 512//472
f 515//472 525//483 526//473
f 526//484 509//484 522//484
f 521//476 520//476 509//476
f 509//485 526//485 525//485
f 522//477 509//486 520//477
f 528//487 530//487 527//487
f 531//488 534//488 535//488
f 527//489 535//489 537//489
f 539//490 533//491 528//491
f 532//492 529//492 540//492
f 532//493 527//493 530//493
f 538//494 542//494 533//494
f 534//495 537//495 535//496
f 538//497 540//497 542//497
f 537//498 540//499 539//500
f 528//487 529//487 530//487
f 531//488 532//488 534//488
f 536//489 528//489 527//489
f 527//489 531//489 535//489
f 537//489 536//489 527//489
f 539//490 538//491 533//491
f 533//491 529//491 528//491
f 528//491 536//491 539//490
f 541//492 534//492 532//492
f 532//492 530//492 529//492
f 529//492 533//492 542//492
f 540//492 541//492 532//492
f 529//492 542//492 540//492
f 532//493 531//493 527//493
f 534//495 541//495 537//495
f 538//497 539//501 540//497
f 539//500 536//502 537//498
f 537//498 541//503 540//499
f 543//488 545//488 544//488
f 546//492 545//492 543//492
f 543//504 544//504 546//504
f 546//505 544//505 545//505
f 547//506 549//506 548//506
f 552//507 554//507 551//507
f 548//508 551//508 547//508
f 548//509 553//509 552//509
f 549//510 554//510 553//510
f 547//511 554//511 550//511
f 547//506 550//506 549//506
f 552//507 553//507 554//507
f 548//508 552//508 551//508
f 548//509 549//509 553//509
f 549//510 550//510 554//510
f 547//511 551//511 554//511
f 557//512 558//512 559//512
f 561//513 556//513 560//513
f 559//514 561//514 560//514
f 559//515 558//515 561//515
f 560//516 557//516 559//516
f 557//517 556//517 555//517
f 556//518 558//518 555//518
f 557//519 555//519 558//519
f 560//520 556//520 557//520
f 556//521 561//521 558//521
f 562//522 564//522 567//522
f 564//523 568//523 567//523
f 566//524 567//524 568//524
f 565//524 567//524 566//524
f 562//525 567//525 565//525
f 562//526 565//526 563//526
f 562//527 563//527 564//527
f 563//528 565//528 566//528
f 563//529 568//529 564//529
f 563//529 566//529 568//529
f 569//530 574//530 573//530
f 569//531 573//531 570//531
f 569//532 570//532 571//532
f 569//533 571//533 574//533
f 573//534 574//534 575//534
f 570//535 573//535 575//535
f 570//536 575//536 572//536
f 570//537 572//537 571//537
f 571//538 575//538 574//538
f 571//539 572//539 575//539
f 576//540 590//540 589//540
f 592//541 586//541 583//541
f 595//541 584//541 591//541
f 588//542 581//543 587//542
f 584//544 581//544 576//544
f 579//545 582//545 583//545
f 576//546 577//546 579//546
f 581//547 583//547 582//547
f 576//548 582//548 577//548
f 598//549 588//550 580//551
f 586//552 580//553 599//554
f 600//555 588//556 587//557
f 589//558 596//559 599//560
f 593//561 578//560 597//560
f 578//562 594//563 598//562
f 597//564 578//564 598//564
f 591//565 599//565 600//566
f 591//567 584//567 576//540
f 576//540 579//540 590//540
f 589//540 591//567 576//540
f 592//541 593//568 586//541
f 586//541 596//569 590//541
f 590//541 579//541 583//541
f 583//541 585//541 594//541
f 583//541 594//541 592//541
f 586//541 590//541 583//541
f 595//541 587//541 584//541
f 588//542 585//570 583//543
f 581//543 584//543 587//542
f 588//542 583//543 581//543
f 579//545 577//545 582//545
f 576//548 581//548 582//548
f 598//549 594//571 585//572
f 580//551 586//571 593//571
f 580//551 593//571 597//573
f 598//549 585//572 588//550
f 580//551 597//573 598//549
f 599//554 596//574 586//552
f 580//553 600//575 599//554
f 587//557 595//576 600//555
f 600//555 580//577 588//556
f 589//558 590//578 596//559
f 593//561 592//561 578//560
f 578//562 592//563 594//563
f 600//566 595//579 591//565
f 591//565 589//580 599//565
f 601//517 602//517 604//517
f 603//581 606//581 605//581
f 604//582 609//582 607//582
f 602//583 607//583 606//583
f 604//584 603//584 610//584
f 608//585 610//585 609//585
f 606//586 609//586 610//586
f 607//582 601//582 604//582
f 604//582 608//582 609//582
f 606//583 603//583 602//583
f 602//583 601//583 607//583
f 610//584 608//584 604//584
f 604//584 602//584 603//584
f 603//584 605//584 610//584
f 610//586 605//586 606//586
f 606//586 607//586 609//586
f 611//517 616//517 615//517
f 614//581 612//581 613//581
f 612//587 616//587 613//587
f 614//588 616//588 611//588
f 611//589 612//589 614//589
f 612//587 615//587 616//587
f 614//588 613//588 616//588
f 611//589 615//589 612//589
f 617//301 618//301 619//301
f 620//514 622//514 621//514
f 619//587 620//587 621//587
f 620//590 617//590 622//590
f 617//591 621//591 622//591
f 619//587 618//587 620//587
f 620//590 618//590 617//590
f 617//591 619//591 621//591
f 629//301 627//301 623//301
f 624//514 626//514 625//514
f 625//592 631//592 630//592
f 633//593 623//593 632//593
f 623//594 635//594 629//594
f 627//434 628//434 632//434
f 632//595 629//596 633//597
f 629//598 636//598 635//598
f 631//599 635//599 630//599
f 629//301 628//301 627//301
f 625//592 626//592 631//592
f 633//593 631//593 626//593
f 626//593 624//593 623//593
f 623//593 627//593 632//593
f 632//600 634//600 633//600
f 633//593 626//593 623//593
f 623//594 624//594 625//594
f 625//594 630//594 635//594
f 623//594 625//594 635//594
f 632//601 628//601 629//601
f 629//596 635//602 633//597
f 631//599 633//599 635//599
f 637//603 641//603 642//603
f 638//528 639//528 640//528
f 640//604 644//604 643//604
f 639//605 637//605 645//605
f 637//606 640//606 646//606
f 644//607 646//608 643//609
f 641//610 645//611 642//612
f 640//604 639//604 644//604
f 645//605 644//605 639//605
f 639//605 638//605 637//605
f 637//605 642//605 645//605
f 646//606 641//606 637//606
f 637//606 638//606 640//606
f 640//606 643//606 646//606
f 644//607 645//613 646//608
f 641//610 646//614 645//611
f 647//603 653//603 652//603
f 648//528 650//528 649//528
f 655//524 648//524 656//524
f 651//615 649//615 650//615
f 658//616 648//616 647//616
f 657//617 658//617 656//617
f 652//618 653//618 655//618
f 654//619 655//620 656//621
f 647//603 651//603 653//603
f 652//603 654//603 647//603
f 655//524 653//524 651//524
f 651//524 650//524 648//524
f 648//524 657//524 656//524
f 655//524 651//524 648//524
f 651//615 647//615 649//615
f 658//616 657//622 648//616
f 648//616 649//616 647//616
f 647//616 654//616 658//616
f 656//621 658//623 654//619
f 654//619 652//624 655//620
f 659//257 660//257 665//257
f 661//523 662//523 663//523
f 667//524 662//524 669//524
f 670//625 662//625 659//625
f 660//626 661//626 663//626
f 670//627 669//627 668//627
f 664//618 667//618 665//618
f 666//628 667//629 669//630
f 665//257 666//257 659//257
f 660//257 664//257 665//257
f 667//524 664//524 660//524
f 660//524 663//524 662//524
f 662//524 668//524 669//524
f 667//524 660//524 662//524
f 670//625 668//625 662//625
f 662//625 661//625 659//625
f 659//625 666//631 670//625
f 660//626 659//626 661//626
f 669//630 670//632 666//628
f 666//628 665//624 667//629
f 671//257 673//257 672//257
f 674//523 675//523 676//523
f 676//633 673//633 674//633
f 674//634 671//634 675//634
f 675//635 672//635 676//635
f 676//633 672//633 673//633
f 674//634 673//634 671//634
f 675//635 671//635 672//635
f 679//297 681//297 680//297
f 677//537 678//537 682//537
f 682//636 680//636 681//636
f 678//637 679//637 680//637
f 679//638 682//638 681//638
f 682//636 678//636 680//636
f 678//637 677//637 679//637
f 679//638 677//638 682//638
f 683//297 684//297 685//297
f 686//537 687//537 688//537
f 683//639 690//639 689//639
f 684//640 688//640 691//640
f 686//641 683//641 692//641
f 690//318 692//318 689//318
f 692//322 688//322 687//322
f 683//639 685//639 690//639
f 690//640 685//640 684//640
f 684//640 686//640 688//640
f 691//640 690//640 684//640
f 692//641 687//641 686//641
f 686//641 684//641 683//641
f 683//641 689//641 692//641
f 690//318 691//319 692//318
f 692//322 691//322 688//322
f 693//642 694//642 695//642
f 696//643 698//644 699//643
f 694//545 699//545 700//545
f 697//645 694//645 693//645
f 693//646 700//646 698//646
f 698//561 700//561 699//561
f 696//643 697//644 698//644
f 700//545 695//545 694//545
f 694//545 696//545 699//545
f 697//645 696//645 694//645
f 698//646 697//646 693//646
f 693//646 695//646 700//646
f 701//546 703//546 702//546
f 705//534 709//643 704//643
f 701//639 709//647 711//639
f 707//648 702//649 703//649
f 701//650 706//650 708//650
f 706//651 707//651 708//651
f 708//652 712//653 710//652
f 709//654 712//654 711//654
f 705//534 710//644 709//643
f 711//639 703//639 701//639
f 701//639 704//647 709//647
f 711//649 712//649 707//648
f 707//648 706//649 702//649
f 703//649 711//649 707//648
f 708//650 705//650 704//650
f 701//650 702//650 706//650
f 708//650 704//650 701//650
f 710//652 705//652 708//652
f 708//652 707//653 712//653
f 709//654 710//654 712//654
f 716//295 717//295 718//295
f 713//264 715//264 714//264
f 715//633 717//633 714//633
f 714//655 716//655 713//655
f 713//656 718//656 715//656
f 715//633 718//633 717//633
f 714//655 717//655 716//655
f 713//656 716//656 718//656
f 720//295 721//295 722//295
f 719//264 723//264 724//264
f 721//657 725//657 722//657
f 720//658 725//658 727//658
f 720//659 724//659 728//659
f 728//660 725//660 726//660
f 723//661 728//662 724//663
f 721//657 726//657 725//657
f 723//658 719//658 720//658
f 720//658 722//658 725//658
f 727//658 723//658 720//658
f 726//659 721//659 720//659
f 720//659 719//659 724//659
f 728//659 726//659 720//659
f 728//660 727//376 725//660
f 723//661 727//664 728//662
f 732//665 734//665 733//665
f 729//255 730//255 731//255
f 734//524 729//524 733//524
f 733//666 731//666 732//666
f 731//667 734//667 732//667
f 734//524 730//524 729//524
f 733//666 729//666 731//666
f 731//667 730//667 734//667
f 738//405 739//405 740//405
f 735//272 736//272 737//272
f 739//422 737//422 740//422
f 738//668 735//668 739//668
f 738//669 737//670 736//670
f 739//422 735//422 737//422
f 738//668 736//668 735//668
f 738//669 740//669 737//670
f 744//396 746//396 745//396
f 741//671 742//671 743//671
f 743//507 746//507 744//507
f 746//672 741//672 745//672
f 741//673 744//673 745//673
f 743//507 742//507 746//507
f 746//672 742//672 741//672
f 741//673 743//673 744//673
f 750//674 752//674 751//674
f 747//675 749//675 748//675
f 752//418 747//418 751//418
f 747//676 750//676 751//676
f 748//677 752//677 750//677
f 752//418 749//418 747//418
f 747//676 748//676 750//676
f 748//677 749//677 752//677
f 756//405 757//405 758//405
f 753//272 755//272 754//272
f 753//678 757//678 756//678
f 754//679 758//679 757//679
f 755//680 756//680 758//680
f 753//678 754//678 757//678
f 754//679 755//679 758//679
f 755//680 753//680 756//680
f 762//674 763//674 764//674
f 759//675 760//675 761//675
f 764//681 759//507 762//681
f 763//682 760//682 764//682
f 763//683 759//683 761//683
f 764//681 760//507 759//507
f 763//682 761//682 760//682
f 763//683 762//683 759//683
f 768//684 770//684 769//684
f 765//685 766//685 767//685
f 770//678 766//678 769//678
f 768//686 767//686 770//686
f 769//687 765//687 768//687
f 770//678 767//678 766//678
f 768//686 765//686 767//686
f 769//687 766//687 765//687
f 771//688 773//688 772//688
f 774//252 776//252 775//252
f 772//689 776//689 774//689
f 771//690 774//690 775//690
f 776//691 771//691 775//691
f 772//689 773//689 776//689
f 771//690 772//690 774//690
f 776//691 773//691 771//691
f 777//688 778//688 779//688
f 780//252 781//252 782//252
f 781//488 778//488 782//488
f 782//692 777//692 780//692
f 781//693 777//693 779//693
f 781//488 779//488 778//488
f 782//692 778//692 777//692
f 781//693 780//693 777//693
f 785//547 786//547 787//547
f 783//276 788//276 784//276
f 783//545 787//545 790//545
f 783//694 786//694 785//694
f 786//695 788//695 790//695
f 788//571 789//571 790//571
f 783//276 789//276 788//276
f 790//545 789//696 783//545
f 783//545 785//545 787//545
f 783//694 784//694 786//694
f 790//695 787//695 786//695
f 786//695 784//695 788//695
f 794//547 796//547 795//547
f 791//276 792//276 793//276
f 792//697 796//697 793//697
f 794//698 793//698 796//698
f 791//699 795//699 792//699
f 792//697 795//697 796//697
f 794//698 791//698 793//698
f 791//699 794//699 795//699
f 797//700 798//700 799//700
f 800//701 802//701 801//701
f 801//678 798//678 800//678
f 800//702 797//702 802//702
f 797//703 801//703 802//703
f 801//678 799//678 798//678
f 800//702 798//702 797//702
f 797//703 799//703 801//703
f 807//277 806//277 808//277
f 803//704 804//704 805//704
f 804//463 809//463 805//463
f 811//705 804//705 806//705
f 803//706 809//706 812//707
f 809//708 811//471 812//708
f 811//472 808//472 812//472
f 804//463 810//463 809//463
f 811//705 810//705 804//705
f 804//705 803//705 806//705
f 806//705 807//705 811//705
f 808//706 806//706 803//706
f 803//706 805//706 809//706
f 812//707 808//706 803//706
f 809//708 810//471 811//471
f 811//472 807//472 808//472
f 821//277 817//277 822//277
f 813//704 815//704 814//704
f 814//697 816//697 821//697
f 819//709 813//710 814//710
f 815//711 818//712 820//711
f 818//713 819//713 820//713
f 820//714 824//715 822//716
f 824//717 821//717 822//718
f 821//277 816//277 817//277
f 821//697 823//697 814//697
f 814//697 815//697 816//697
f 823//710 824//710 819//709
f 819//709 818//710 813//710
f 814//710 823//710 819//709
f 820//711 817//712 816//711
f 815//711 813//711 818//712
f 820//711 816//711 815//711
f 822//716 817//719 820//714
f 820//714 819//720 824//715
f 824//717 823//717 821//717
f 826//721 825//721 827//721
f 825//722 828//722 827//722
f 825//723 826//723 828//723
f 827//724 828//724 826//724
f 829//700 830//700 831//700
f 832//701 834//701 833//701
f 834//463 830//463 833//463
f 829//725 834//725 832//725
f 833//726 829//726 832//726
f 834//463 831//463 830//463
f 829//725 831//725 834//725
f 833//726 830//726 829//726
f 836//700 837//700 839//700
f 837//727 838//727 839//727
f 838//728 840//728 839//728
f 836//729 839//729 840//729
f 835//730 836//730 840//730
f 835//731 840//731 838//731
f 837//732 835//733 838//734
f 837//732 836//735 835//733
