<svg xmlns="http://www.w3.org/2000/svg" width="279.4mm" height="215.9mm" viewBox="0 0 279.4 215.9">
<rect x="0" y="0" width="100%" height="100%" fill="white"/>
<text x="10" y="7" font-size="4.5" font-weight="700">Cat head cardboard panels - sheet 06 - print at 100%</text>
<rect x="10" y="10" width="259.4" height="195.9" fill="none" stroke="#d1d5db" stroke-width="0.3" stroke-dasharray="3 2"/>
<polygon points="18.000,18.000 67.232,18.000 72.878,68.393" fill="#e0f2fe" stroke="#111827" stroke-width="0.35"/>
<text x="52.703" y="30.798" font-size="4.2" text-anchor="middle" font-weight="700">TRI058</text>
<text x="52.703" y="36.298" font-size="3.1" text-anchor="middle">left_cheek</text>
<circle cx="18.000" cy="18.000" r="1.15" fill="#111827"/>
<text x="19.800" y="16.200" font-size="2.5">P050</text>
<circle cx="67.232" cy="18.000" r="1.15" fill="#111827"/>
<text x="69.032" y="16.200" font-size="2.5">P057</text>
<circle cx="72.878" cy="68.393" r="1.15" fill="#111827"/>
<text x="74.678" y="66.593" font-size="2.5">P060</text>
<text x="42.616" y="18.000" font-size="2.7" text-anchor="middle" transform="rotate(0.00 42.616 18.000)" fill="#1f2937">E180 49.23mm</text>
<text x="70.055" y="43.196" font-size="2.7" text-anchor="middle" transform="rotate(83.61 70.055 43.196)" fill="#1f2937">E020 50.71mm</text>
<text x="45.439" y="43.196" font-size="2.7" text-anchor="middle" transform="rotate(42.56 45.439 43.196)" fill="#1f2937">E182 74.51mm</text>
<polygon points="102.024,18.000 152.518,18.000 96.878,55.763" fill="#e0f2fe" stroke="#111827" stroke-width="0.35"/>
<text x="117.140" y="26.588" font-size="4.2" text-anchor="middle" font-weight="700">QUAD028-B</text>
<text x="117.140" y="32.088" font-size="3.1" text-anchor="middle">left_cheek</text>
<circle cx="102.024" cy="18.000" r="1.15" fill="#111827"/>
<text x="103.824" y="16.200" font-size="2.5">P043</text>
<circle cx="152.518" cy="18.000" r="1.15" fill="#111827"/>
<text x="154.318" y="16.200" font-size="2.5">P049</text>
<circle cx="96.878" cy="55.763" r="1.15" fill="#111827"/>
<text x="98.678" y="53.963" font-size="2.5">P056</text>
<text x="127.271" y="18.000" font-size="2.7" text-anchor="middle" transform="rotate(0.00 127.271 18.000)" fill="#1f2937">E095 50.49mm</text>
<text x="124.698" y="36.882" font-size="2.7" text-anchor="middle" transform="rotate(-34.16 124.698 36.882)" fill="#1f2937">E096 67.24mm</text>
<text x="99.451" y="36.882" font-size="2.7" text-anchor="middle" transform="rotate(-82.24 99.451 36.882)" fill="#1f2937">E091 38.11mm</text>
<polygon points="176.518,18.000 201.132,18.000 179.375,57.348" fill="#e0f2fe" stroke="#111827" stroke-width="0.35"/>
<text x="185.675" y="27.116" font-size="4.2" text-anchor="middle" font-weight="700">TRI048</text>
<text x="185.675" y="32.616" font-size="3.1" text-anchor="middle">left_cheek</text>
<circle cx="176.518" cy="18.000" r="1.15" fill="#111827"/>
<text x="178.318" y="16.200" font-size="2.5">P040</text>
<circle cx="201.132" cy="18.000" r="1.15" fill="#111827"/>
<text x="202.932" y="16.200" font-size="2.5">P041</text>
<circle cx="179.375" cy="57.348" r="1.15" fill="#111827"/>
<text x="181.175" y="55.548" font-size="2.5">P044</text>
<text x="188.825" y="18.000" font-size="2.7" text-anchor="middle" transform="rotate(0.00 188.825 18.000)" fill="#1f2937">E044 24.61mm</text>
<text x="190.253" y="37.674" font-size="2.7" text-anchor="middle" transform="rotate(-61.06 190.253 37.674)" fill="#1f2937">E172 44.96mm</text>
<text x="177.946" y="37.674" font-size="2.7" text-anchor="middle" transform="rotate(85.85 177.946 37.674)" fill="#1f2937">E078 39.45mm</text>
<polygon points="225.131,18.000 249.958,18.000 241.127,60.020" fill="#e0f2fe" stroke="#111827" stroke-width="0.35"/>
<text x="238.739" y="28.007" font-size="4.2" text-anchor="middle" font-weight="700">TRI049</text>
<text x="238.739" y="33.507" font-size="3.1" text-anchor="middle">left_cheek</text>
<circle cx="225.131" cy="18.000" r="1.15" fill="#111827"/>
<text x="226.931" y="16.200" font-size="2.5">P041</text>
<circle cx="249.958" cy="18.000" r="1.15" fill="#111827"/>
<text x="251.758" y="16.200" font-size="2.5">P043</text>
<circle cx="241.127" cy="60.020" r="1.15" fill="#111827"/>
<text x="242.927" y="58.220" font-size="2.5">P044</text>
<text x="237.545" y="18.000" font-size="2.7" text-anchor="middle" transform="rotate(0.00 237.545 18.000)" fill="#1f2937">E092 24.83mm</text>
<text x="245.543" y="39.010" font-size="2.7" text-anchor="middle" transform="rotate(-78.13 245.543 39.010)" fill="#1f2937">E173 42.94mm</text>
<text x="233.129" y="39.010" font-size="2.7" text-anchor="middle" transform="rotate(69.16 233.129 39.010)" fill="#1f2937">E172 44.96mm</text>
<polygon points="18.000,92.393 80.207,92.393 50.342,134.951" fill="#e0f2fe" stroke="#111827" stroke-width="0.35"/>
<text x="49.516" y="102.579" font-size="4.2" text-anchor="middle" font-weight="700">QUAD031-A</text>
<text x="49.516" y="108.079" font-size="3.1" text-anchor="middle">left_cheek</text>
<circle cx="18.000" cy="92.393" r="1.15" fill="#111827"/>
<text x="19.800" y="90.593" font-size="2.5">P049</text>
<circle cx="80.207" cy="92.393" r="1.15" fill="#111827"/>
<text x="82.007" y="90.593" font-size="2.5">P050</text>
<circle cx="50.342" cy="134.951" r="1.15" fill="#111827"/>
<text x="52.142" y="133.151" font-size="2.5">P058</text>
<text x="49.104" y="92.393" font-size="2.7" text-anchor="middle" transform="rotate(0.00 49.104 92.393)" fill="#1f2937">E097 62.21mm</text>
<text x="65.275" y="113.672" font-size="2.7" text-anchor="middle" transform="rotate(-54.94 65.275 113.672)" fill="#1f2937">E098 51.99mm</text>
<text x="34.171" y="113.672" font-size="2.7" text-anchor="middle" transform="rotate(52.77 34.171 113.672)" fill="#1f2937">E099 53.45mm</text>
<polygon points="104.207,92.393 133.544,92.393 149.709,114.285" fill="#e0f2fe" stroke="#111827" stroke-width="0.35"/>
<text x="129.153" y="95.690" font-size="4.2" text-anchor="middle" font-weight="700">QUAD028-A</text>
<text x="129.153" y="101.190" font-size="3.1" text-anchor="middle">left_cheek</text>
<circle cx="104.207" cy="92.393" r="1.15" fill="#111827"/>
<text x="106.007" y="90.593" font-size="2.5">P043</text>
<circle cx="133.544" cy="92.393" r="1.15" fill="#111827"/>
<text x="135.344" y="90.593" font-size="2.5">P046</text>
<circle cx="149.709" cy="114.285" r="1.15" fill="#111827"/>
<text x="151.509" y="112.485" font-size="2.5">P049</text>
<text x="118.876" y="92.393" font-size="2.7" text-anchor="middle" transform="rotate(0.00 118.876 92.393)" fill="#1f2937">E093 29.34mm</text>
<text x="141.626" y="103.339" font-size="2.7" text-anchor="middle" transform="rotate(53.56 141.626 103.339)" fill="#1f2937">E094 27.21mm</text>
<text x="126.958" y="103.339" font-size="2.7" text-anchor="middle" transform="rotate(25.69 126.958 103.339)" fill="#1f2937">E095 50.49mm</text>
<polygon points="173.709,92.393 216.647,92.393 176.571,121.590" fill="#e0f2fe" stroke="#111827" stroke-width="0.35"/>
<text x="188.976" y="98.125" font-size="4.2" text-anchor="middle" font-weight="700">TRI050</text>
<text x="188.976" y="103.625" font-size="3.1" text-anchor="middle">left_cheek</text>
<circle cx="173.709" cy="92.393" r="1.15" fill="#111827"/>
<text x="175.509" y="90.593" font-size="2.5">P043</text>
<circle cx="216.647" cy="92.393" r="1.15" fill="#111827"/>
<text x="218.447" y="90.593" font-size="2.5">P044</text>
<circle cx="176.571" cy="121.590" r="1.15" fill="#111827"/>
<text x="178.371" y="119.790" font-size="2.5">P046</text>
<text x="195.178" y="92.393" font-size="2.7" text-anchor="middle" transform="rotate(0.00 195.178 92.393)" fill="#1f2937">E173 42.94mm</text>
<text x="196.609" y="106.992" font-size="2.7" text-anchor="middle" transform="rotate(-36.07 196.609 106.992)" fill="#1f2937">E174 49.58mm</text>
<text x="175.140" y="106.992" font-size="2.7" text-anchor="middle" transform="rotate(84.40 175.140 106.992)" fill="#1f2937">E093 29.34mm</text>
<polygon points="18.000,158.951 63.851,158.951 26.324,171.119" fill="#e0f2fe" stroke="#111827" stroke-width="0.35"/>
<text x="36.058" y="159.007" font-size="4.2" text-anchor="middle" font-weight="700">QUAD022-B</text>
<text x="36.058" y="164.507" font-size="3.1" text-anchor="middle">left_cheek</text>
<circle cx="18.000" cy="158.951" r="1.15" fill="#111827"/>
<text x="19.800" y="157.151" font-size="2.5">P033</text>
<circle cx="63.851" cy="158.951" r="1.15" fill="#111827"/>
<text x="65.651" y="157.151" font-size="2.5">P040</text>
<circle cx="26.324" cy="171.119" r="1.15" fill="#111827"/>
<text x="28.124" y="169.319" font-size="2.5">P044</text>
<text x="40.926" y="158.951" font-size="2.7" text-anchor="middle" transform="rotate(0.00 40.926 158.951)" fill="#1f2937">E077 45.85mm</text>
<text x="45.088" y="165.035" font-size="2.7" text-anchor="middle" transform="rotate(-17.97 45.088 165.035)" fill="#1f2937">E078 39.45mm</text>
<text x="22.162" y="165.035" font-size="2.7" text-anchor="middle" transform="rotate(55.63 22.162 165.035)" fill="#1f2937">E079 14.74mm</text>
<polygon points="87.851,158.951 128.904,158.951 122.822,185.476" fill="#e0f2fe" stroke="#111827" stroke-width="0.35"/>
<text x="113.192" y="163.793" font-size="4.2" text-anchor="middle" font-weight="700">TRI053</text>
<text x="113.192" y="169.293" font-size="3.1" text-anchor="middle">left_cheek</text>
<circle cx="87.851" cy="158.951" r="1.15" fill="#111827"/>
<text x="89.651" y="157.151" font-size="2.5">P045</text>
<circle cx="128.904" cy="158.951" r="1.15" fill="#111827"/>
<text x="130.704" y="157.151" font-size="2.5">P046</text>
<circle cx="122.822" cy="185.476" r="1.15" fill="#111827"/>
<text x="124.622" y="183.676" font-size="2.5">P049</text>
<text x="108.377" y="158.951" font-size="2.7" text-anchor="middle" transform="rotate(0.00 108.377 158.951)" fill="#1f2937">E175 41.05mm</text>
<text x="125.863" y="172.214" font-size="2.7" text-anchor="middle" transform="rotate(-77.09 125.863 172.214)" fill="#1f2937">E094 27.21mm</text>
<text x="105.336" y="172.214" font-size="2.7" text-anchor="middle" transform="rotate(37.18 105.336 172.214)" fill="#1f2937">E176 43.89mm</text>
</svg>