<svg xmlns="http://www.w3.org/2000/svg" width="279.4mm" height="215.9mm" viewBox="0 0 279.4 215.9">
<rect x="0" y="0" width="100%" height="100%" fill="white"/>
<text x="10" y="7" font-size="4.5" font-weight="700">Cat head cardboard panels - sheet 13 - print at 100%</text>
<rect x="10" y="10" width="259.4" height="195.9" fill="none" stroke="#d1d5db" stroke-width="0.3" stroke-dasharray="3 2"/>
<polygon points="25.606,18.000 74.839,18.000 18.000,62.871" fill="#e5e7eb" stroke="#111827" stroke-width="0.35"/>
<text x="39.482" y="28.957" font-size="4.2" text-anchor="middle" font-weight="700">TRI030</text>
<text x="39.482" y="34.457" font-size="3.1" text-anchor="middle">back</text>
<circle cx="25.606" cy="18.000" r="1.15" fill="#111827"/>
<text x="27.406" y="16.200" font-size="2.5">P021</text>
<circle cx="74.839" cy="18.000" r="1.15" fill="#111827"/>
<text x="76.639" y="16.200" font-size="2.5">P031</text>
<circle cx="18.000" cy="62.871" r="1.15" fill="#111827"/>
<text x="19.800" y="61.071" font-size="2.5">P071</text>
<text x="50.222" y="18.000" font-size="2.7" text-anchor="middle" transform="rotate(0.00 50.222 18.000)" fill="#1f2937">E148 49.23mm</text>
<text x="46.419" y="40.435" font-size="2.7" text-anchor="middle" transform="rotate(-38.29 46.419 40.435)" fill="#1f2937">E150 72.42mm</text>
<text x="21.803" y="40.435" font-size="2.7" text-anchor="middle" transform="rotate(-80.38 21.803 40.435)" fill="#1f2937">E073 45.51mm</text>
<polygon points="98.839,18.000 173.344,18.000 123.170,56.461" fill="#e5e7eb" stroke="#111827" stroke-width="0.35"/>
<text x="131.784" y="26.820" font-size="4.2" text-anchor="middle" font-weight="700">TRI059</text>
<text x="131.784" y="32.320" font-size="3.1" text-anchor="middle">back</text>
<circle cx="98.839" cy="18.000" r="1.15" fill="#111827"/>
<text x="100.639" y="16.200" font-size="2.5">P050</text>
<circle cx="173.344" cy="18.000" r="1.15" fill="#111827"/>
<text x="175.144" y="16.200" font-size="2.5">P060</text>
<circle cx="123.170" cy="56.461" r="1.15" fill="#111827"/>
<text x="124.970" y="54.661" font-size="2.5">P062</text>
<text x="136.092" y="18.000" font-size="2.7" text-anchor="middle" transform="rotate(0.00 136.092 18.000)" fill="#1f2937">E182 74.51mm</text>
<text x="148.257" y="37.230" font-size="2.7" text-anchor="middle" transform="rotate(-37.47 148.257 37.230)" fill="#1f2937">E183 63.22mm</text>
<text x="111.005" y="37.230" font-size="2.7" text-anchor="middle" transform="rotate(57.68 111.005 37.230)" fill="#1f2937">E105 45.51mm</text>
<polygon points="18.000,86.871 98.000,86.871 78.000,137.785" fill="#e5e7eb" stroke="#111827" stroke-width="0.35"/>
<text x="64.667" y="99.842" font-size="4.2" text-anchor="middle" font-weight="700">MANQ006-A</text>
<text x="64.667" y="105.342" font-size="3.1" text-anchor="middle">back</text>
<circle cx="18.000" cy="86.871" r="1.15" fill="#111827"/>
<text x="19.800" y="85.071" font-size="2.5">P070</text>
<circle cx="98.000" cy="86.871" r="1.15" fill="#111827"/>
<text x="99.800" y="85.071" font-size="2.5">P063</text>
<circle cx="78.000" cy="137.785" r="1.15" fill="#111827"/>
<text x="79.800" y="135.985" font-size="2.5">P060</text>
<text x="58.000" y="86.871" font-size="2.7" text-anchor="middle" transform="rotate(0.00 58.000 86.871)" fill="#1f2937">E015 80.00mm</text>
<text x="88.000" y="112.328" font-size="2.7" text-anchor="middle" transform="rotate(-68.55 88.000 112.328)" fill="#1f2937">E016 54.70mm</text>
<text x="48.000" y="112.328" font-size="2.7" text-anchor="middle" transform="rotate(40.32 48.000 112.328)" fill="#1f2937">E017 78.69mm</text>
<polygon points="122.000,86.871 185.219,86.871 172.984,106.691" fill="#e5e7eb" stroke="#111827" stroke-width="0.35"/>
<text x="160.068" y="89.478" font-size="4.2" text-anchor="middle" font-weight="700">TRI062</text>
<text x="160.068" y="94.978" font-size="3.1" text-anchor="middle">back</text>
<circle cx="122.000" cy="86.871" r="1.15" fill="#111827"/>
<text x="123.800" y="85.071" font-size="2.5">P060</text>
<circle cx="185.219" cy="86.871" r="1.15" fill="#111827"/>
<text x="187.019" y="85.071" font-size="2.5">P062</text>
<circle cx="172.984" cy="106.691" r="1.15" fill="#111827"/>
<text x="174.784" y="104.891" font-size="2.5">P063</text>
<text x="153.610" y="86.871" font-size="2.7" text-anchor="middle" transform="rotate(0.00 153.610 86.871)" fill="#1f2937">E183 63.22mm</text>
<text x="179.101" y="96.781" font-size="2.7" text-anchor="middle" transform="rotate(-58.31 179.101 96.781)" fill="#1f2937">E186 23.29mm</text>
<text x="147.492" y="96.781" font-size="2.7" text-anchor="middle" transform="rotate(21.24 147.492 96.781)" fill="#1f2937">E016 54.70mm</text>
<polygon points="219.134,86.871 242.427,86.871 209.219,140.666" fill="#e5e7eb" stroke="#111827" stroke-width="0.35"/>
<text x="223.593" y="100.803" font-size="4.2" text-anchor="middle" font-weight="700">TRI065</text>
<text x="223.593" y="106.303" font-size="3.1" text-anchor="middle">back</text>
<circle cx="219.134" cy="86.871" r="1.15" fill="#111827"/>
<text x="220.934" y="85.071" font-size="2.5">P070</text>
<circle cx="242.427" cy="86.871" r="1.15" fill="#111827"/>
<text x="244.227" y="85.071" font-size="2.5">P071</text>
<circle cx="209.219" cy="140.666" r="1.15" fill="#111827"/>
<text x="211.019" y="138.866" font-size="2.5">P072</text>
<text x="230.780" y="86.871" font-size="2.7" text-anchor="middle" transform="rotate(0.00 230.780 86.871)" fill="#1f2937">E112 23.29mm</text>
<text x="225.823" y="113.768" font-size="2.7" text-anchor="middle" transform="rotate(-58.31 225.823 113.768)" fill="#1f2937">E161 63.22mm</text>
<text x="214.176" y="113.768" font-size="2.7" text-anchor="middle" transform="rotate(-79.56 214.176 113.768)" fill="#1f2937">E019 54.70mm</text>
<polygon points="18.000,164.666 98.581,164.666 55.889,189.878" fill="#e5e7eb" stroke="#111827" stroke-width="0.35"/>
<text x="57.490" y="169.070" font-size="4.2" text-anchor="middle" font-weight="700">QUAD032-B</text>
<text x="57.490" y="174.570" font-size="3.1" text-anchor="middle">back</text>
<circle cx="18.000" cy="164.666" r="1.15" fill="#111827"/>
<text x="19.800" y="162.866" font-size="2.5">P050</text>
<circle cx="98.581" cy="164.666" r="1.15" fill="#111827"/>
<text x="100.381" y="162.866" font-size="2.5">P064</text>
<circle cx="55.889" cy="189.878" r="1.15" fill="#111827"/>
<text x="57.689" y="188.078" font-size="2.5">P062</text>
<text x="58.291" y="164.666" font-size="2.7" text-anchor="middle" transform="rotate(0.00 58.291 164.666)" fill="#1f2937">E103 80.58mm</text>
<text x="77.235" y="177.272" font-size="2.7" text-anchor="middle" transform="rotate(-30.56 77.235 177.272)" fill="#1f2937">E104 49.58mm</text>
<text x="36.945" y="177.272" font-size="2.7" text-anchor="middle" transform="rotate(33.64 36.945 177.272)" fill="#1f2937">E105 45.51mm</text>
<polygon points="122.581,164.666 203.162,164.666 160.470,189.878" fill="#e5e7eb" stroke="#111827" stroke-width="0.35"/>
<text x="162.071" y="169.070" font-size="4.2" text-anchor="middle" font-weight="700">QUAD018-B</text>
<text x="162.071" y="174.570" font-size="3.1" text-anchor="middle">back</text>
<circle cx="122.581" cy="164.666" r="1.15" fill="#111827"/>
<text x="124.381" y="162.866" font-size="2.5">P021</text>
<circle cx="203.162" cy="164.666" r="1.15" fill="#111827"/>
<text x="204.962" y="162.866" font-size="2.5">P067</text>
<circle cx="160.470" cy="189.878" r="1.15" fill="#111827"/>
<text x="162.270" y="188.078" font-size="2.5">P071</text>
<text x="162.872" y="164.666" font-size="2.7" text-anchor="middle" transform="rotate(0.00 162.872 164.666)" fill="#1f2937">E071 80.58mm</text>
<text x="181.816" y="177.272" font-size="2.7" text-anchor="middle" transform="rotate(-30.56 181.816 177.272)" fill="#1f2937">E072 49.58mm</text>
<text x="141.526" y="177.272" font-size="2.7" text-anchor="middle" transform="rotate(33.64 141.526 177.272)" fill="#1f2937">E073 45.51mm</text>
</svg>