# Blender 5.2.0 LTS
# www.blender.org
mtllib right_lower_face_component_001_self_union_v12.mtl
o PROPOSED__RIGHT_LOWER_FACE__COMPONENT_001_SELF_UNION_V12
v 0.000000 40.064999 -0.000003
v 0.000000 39.511951 1.712930
v -1.351500 20.353502 24.058498
v -1.127317 21.572920 25.363398
v 0.175000 68.577393 12.379189
v 0.523190 69.308830 11.322540
v 0.523190 71.517815 12.035747
v 4.305793 69.352982 11.258760
v 4.305793 71.695305 12.015016
v 4.675000 68.577393 12.379189
v 0.175000 64.890411 23.798740
v 0.925000 65.467361 24.615517
v 0.175000 74.139000 21.641260
v 0.175000 74.789558 21.511856
v 0.175000 73.218964 22.561293
v 0.175000 73.089561 23.211855
v 0.175000 73.218964 23.862417
v 0.175000 73.587479 22.009773
v 0.175000 73.587479 24.413937
v 0.175000 74.139000 24.782450
v 0.175000 74.789558 24.911856
v 3.925000 65.467361 24.615517
v 4.675000 64.890411 23.798740
v 4.675000 74.139000 21.641260
v 4.675000 74.789558 21.511854
v 4.675000 73.218964 22.561293
v 4.675000 73.089561 23.211855
v 4.675000 73.218964 23.862417
v 4.675000 73.587479 22.009773
v 4.675000 73.587479 24.413937
v 4.675000 74.139000 24.782450
v 4.675000 74.789558 24.911854
v 0.925000 70.225510 26.151760
v 3.925000 70.225510 26.151760
v 0.175000 75.440117 21.641260
v 0.175000 75.991638 22.009773
v 0.175000 76.360153 22.561293
v 0.175000 76.489555 23.211855
v 0.175000 76.360153 23.862417
v 0.175000 75.991638 24.413937
v 0.175000 75.440117 24.782450
v 4.675000 75.440117 21.641260
v 4.675000 75.991638 22.009773
v 4.675000 76.360153 22.561293
v 4.675000 76.489555 23.211855
v 4.675000 76.360153 23.862417
v 4.675000 75.991638 24.413937
v 4.675000 75.440117 24.782450
v 0.523190 92.930779 18.949266
v 4.305793 91.988243 18.566917
v 0.175000 95.471886 30.438347
v 0.175000 95.969803 29.236265
v 0.175000 97.171883 28.738348
v 0.175000 96.521324 28.867752
v 0.175000 95.601288 29.787785
v 0.175000 97.822441 28.867752
v 0.175000 98.373962 29.236265
v 0.175000 98.742477 29.787785
v 0.175000 98.871880 30.438347
v 0.175000 95.601288 31.088909
v 0.175000 95.969803 31.640429
v 0.175000 96.521324 32.008942
v 0.175000 97.171883 32.138348
v 0.175000 98.742477 31.088909
v 0.175000 97.822441 32.008942
v 0.175000 98.373962 31.640429
v 4.675000 95.471886 30.438347
v 4.675000 95.969803 29.236265
v 4.675000 97.171883 28.738346
v 4.675000 96.521324 28.867752
v 4.675000 95.601288 29.787785
v 4.675000 97.822441 28.867752
v 4.675000 98.373962 29.236265
v 4.675000 98.742477 29.787785
v 4.675000 98.871880 30.438347
v 4.675000 95.601288 31.088909
v 4.675000 95.969803 31.640429
v 4.675000 96.521324 32.008942
v 4.675000 97.171883 32.138348
v 4.675000 98.742477 31.088909
v 4.675000 97.822441 32.008942
v 4.675000 98.373962 31.640429
v 0.523190 108.570381 23.998766
v 0.175000 108.545822 25.283640
v 4.305793 108.571861 23.921209
v 4.675000 108.545822 25.283640
v 0.522829 118.732559 27.281130
v 0.175000 118.001884 28.336685
v 4.326503 118.733963 27.279102
v 4.675000 118.001884 28.336685
v 0.925000 99.155029 35.492126
v 0.175000 104.858841 36.703190
v 0.925000 103.913177 37.028370
v 3.925000 99.155029 35.492126
v 3.925000 103.913177 37.028370
v 4.675000 104.858841 36.703190
v 0.175000 114.314903 39.756237
v 0.925000 114.891846 40.573009
v 0.175000 123.011971 37.967270
v 0.175000 123.563492 37.598755
v 0.175000 122.643456 38.518787
v 0.175000 122.514053 39.169350
v 0.175000 122.643456 39.819912
v 0.175000 123.011971 40.371433
v 0.175000 123.563492 40.739944
v 0.925000 119.649994 42.109257
v 3.925000 114.891846 40.573009
v 4.675000 114.314903 39.756237
v 4.675000 123.011971 37.967266
v 4.675000 123.563492 37.598755
v 4.675000 122.643456 38.518787
v 3.925000 119.649994 42.109257
v 4.675000 122.514053 39.169350
v 4.675000 122.643456 39.819912
v 4.675000 123.011971 40.371429
v 4.675000 123.563492 40.739944
v 0.175000 124.214050 37.469349
v 0.175000 124.864609 37.598755
v 0.175000 125.416130 37.967270
v 0.175000 125.784645 38.518787
v 0.175000 125.784645 39.819912
v 0.175000 124.214050 40.869350
v 0.175000 124.864609 40.739944
v 0.175000 125.416130 40.371433
v 0.175000 125.914047 39.169350
v 4.675000 124.214050 37.469349
v 4.675000 124.864609 37.598755
v 4.675000 125.416130 37.967266
v 4.675000 125.784645 38.518787
v 4.675000 125.784645 39.819912
v 4.675000 124.214050 40.869350
v 4.675000 124.864609 40.739944
v 4.675000 125.416130 40.371429
v 4.675000 125.914047 39.169350
v 31.466999 40.064999 -0.000003
v 31.466999 40.064999 -0.000003
v 31.466999 40.064999 -0.000003
v 31.600342 40.990150 1.538279
v 31.600342 40.990150 1.538279
v 39.628422 17.492378 21.680481
v 40.504501 16.551003 20.420998
v 40.548668 66.349854 8.486486
v 40.548668 66.349854 8.486486
v 58.491447 117.200005 22.418722
v 58.491447 117.200005 22.418722
v 58.491447 117.200005 22.418722
v 59.151649 112.580933 24.944494
v 58.899940 114.341995 23.981522
v 59.819290 115.069336 24.216354
v 59.819290 115.069336 24.216354
v 59.614498 116.390999 23.569490
v 59.614498 116.390999 23.569490
v 59.614498 116.390999 23.569490
v 61.094440 118.013382 25.166889
v 61.094440 118.013382 25.166889
v 61.578701 120.565933 25.991020
v 61.578701 120.565933 25.991020
v 62.268440 119.780487 27.296482
v 62.268440 119.780487 27.296482
v 29.985817 11.829967 81.358902
v 30.778500 10.605006 82.413002
v 62.421608 24.493752 72.310959
v 33.346500 50.113510 126.394501
v 32.636982 51.546989 125.568832
v 0.175000 145.945816 44.825245
v 0.175000 145.394287 45.193760
v 0.175000 146.596375 44.695839
v 0.175000 147.246933 44.825245
v 0.175000 147.798462 45.193760
v 0.175000 145.025772 45.745277
v 0.175000 144.896378 46.395840
v 0.175000 145.025772 47.046402
v 0.175000 145.394287 47.597923
v 0.175000 147.798462 47.597923
v 0.175000 145.945816 47.966434
v 0.175000 146.596375 48.095840
v 0.175000 147.246933 47.966434
v 0.175000 148.166962 45.745277
v 0.175000 148.296371 46.395840
v 0.175000 148.166962 47.046402
v 4.675000 145.945816 44.825245
v 4.675000 145.394287 45.193756
v 4.675000 146.596375 44.695839
v 4.675000 147.246933 44.825245
v 4.675000 147.798462 45.193756
v 4.675000 145.025787 45.745277
v 4.675000 144.896378 46.395840
v 4.675000 145.025787 47.046402
v 4.675000 145.394287 47.597919
v 4.675000 147.798462 47.597919
v 4.675000 145.945816 47.966434
v 4.675000 146.596375 48.095840
v 4.675000 147.246933 47.966434
v 4.675000 148.166977 45.745277
v 4.675000 148.296371 46.395840
v 4.675000 148.166977 47.046402
v 0.521433 157.994751 39.962742
v 0.175000 157.970306 41.241135
v 4.327899 157.994797 39.960278
v 4.675000 157.970306 41.241135
v 0.175000 154.283325 52.660683
v 0.925000 153.337677 52.985863
v 3.925000 153.337677 52.985863
v 4.675000 154.283325 52.660683
v 0.000000 188.338501 47.872486
v 0.000000 187.698990 49.555054
v 0.000000 187.698990 49.555054
v 0.000000 187.785446 49.585419
v 0.000331 187.741730 49.571301
v 0.000765 187.741730 49.571297
v 0.000000 187.741837 49.571339
v 0.003351 187.741730 49.571293
v 0.000581 187.741730 49.571297
v 0.000289 187.741730 49.571301
v 0.000331 187.741730 49.571301
v 0.000765 187.741730 49.571297
v 0.006353 187.741714 49.571289
v 0.000000 187.741837 49.571339
v 0.003351 187.741730 49.571293
v 0.000581 187.741730 49.571297
v 0.000000 187.785446 49.585419
v 0.006353 187.741714 49.571289
v 0.027834 187.741653 49.571259
v 0.027834 187.741653 49.571259
v 0.520351 194.334381 52.076763
v 4.329144 194.335526 52.075283
v 0.175000 193.556519 53.086517
v 4.675000 193.556519 53.086517
v 0.175000 189.293152 64.303627
v 0.175000 196.487854 62.441730
v 0.175000 196.119339 62.993248
v 0.175000 195.989944 63.643810
v 0.175000 196.119339 64.294373
v 0.175000 196.487854 64.845894
v 0.925000 189.827789 65.148712
v 0.925000 194.501587 66.925117
v 0.175000 197.689941 61.943810
v 0.175000 197.039383 62.073215
v 0.175000 198.340500 62.073215
v 0.175000 198.892029 62.441730
v 0.175000 199.260529 62.993248
v 0.175000 197.039383 65.214409
v 0.175000 198.340500 65.214409
v 0.175000 199.389938 63.643810
v 0.175000 199.260529 64.294373
v 0.175000 198.892029 64.845894
v 0.175000 197.689941 65.343811
v 3.925000 189.827789 65.148712
v 4.675000 189.293152 64.303627
v 4.675000 196.487854 62.441727
v 4.675000 196.119354 62.993248
v 4.675000 195.989944 63.643810
v 4.675000 196.119354 64.294373
v 4.675000 196.487854 64.845894
v 3.925000 194.501587 66.925117
v 4.675000 197.689941 61.943810
v 4.675000 197.039383 62.073215
v 4.675000 198.340500 62.073215
v 4.675000 198.892029 62.441727
v 4.675000 199.260544 62.993248
v 4.675000 197.039383 65.214401
v 4.675000 198.340500 65.214401
v 4.675000 199.389938 63.643810
v 4.675000 199.260544 64.294373
v 4.675000 198.892029 64.845894
v 4.675000 197.689941 65.343811
v 0.175000 214.605835 69.327980
v 0.175000 215.157364 68.959465
v 0.175000 215.807922 68.830063
v 0.175000 216.458481 68.959465
v 0.175000 217.010010 69.327980
v 4.675000 214.605835 69.327980
v 4.675000 215.157364 68.959465
v 4.675000 215.807922 68.830063
v 4.675000 216.458481 68.959465
v 4.675000 217.010010 69.327980
v 0.520353 225.999252 64.111877
v 0.175000 225.910065 65.383392
v 0.000000 233.274002 64.951485
v 0.000000 233.274002 64.951485
v 0.000000 231.687424 65.801643
v 0.000000 231.687424 65.801643
v 0.000000 232.005325 66.394913
v 0.000000 231.986359 66.359535
v 0.019971 232.005417 66.394943
v 0.008249 232.005356 66.394928
v 0.000000 232.005325 66.394913
v 0.000000 231.986359 66.359535
v 0.008249 232.005356 66.394928
v 0.005960 232.005356 66.394920
v 0.019971 232.005417 66.394943
v 0.049323 232.005554 66.394981
v 0.000000 232.634491 66.634048
v 0.409249 232.007248 66.395447
v 0.409249 232.007248 66.395447
v 4.329142 225.999390 64.110023
v 4.675000 225.910065 65.383392
v 30.000000 233.274002 64.951485
v 29.863813 232.060425 66.273865
v 29.863813 232.060425 66.273865
v 0.175000 214.237320 69.879501
v 0.175000 214.107925 70.530060
v 0.175000 214.237320 71.180618
v 0.175000 214.605835 71.732140
v 0.175000 215.157364 72.100655
v 0.175000 215.807922 72.230057
v 0.175000 216.458481 72.100655
v 0.175000 217.378510 69.879501
v 0.175000 217.507919 70.530060
v 0.175000 217.378510 71.180618
v 0.175000 217.010010 71.732140
v 0.925000 220.685730 76.877144
v 4.675000 214.237335 69.879501
v 4.675000 214.107925 70.530060
v 4.675000 214.237335 71.180618
v 4.675000 214.605835 71.732140
v 4.675000 215.157364 72.100655
v 4.675000 215.807922 72.230057
v 4.675000 216.458481 72.100655
v 4.675000 217.378525 69.879501
v 4.675000 217.507919 70.530060
v 4.675000 217.378525 71.180618
v 4.675000 217.010010 71.732140
v 3.925000 220.685730 76.877144
v 0.175000 221.646698 76.600510
v 4.675000 221.646698 76.600510
v 0.175000 228.151642 87.193230
v 0.925000 228.000626 88.181763
v 0.175000 234.486877 92.435280
v 0.175000 234.118362 92.986801
v 0.175000 235.038406 92.066765
v 0.175000 235.688965 91.937363
v 0.175000 236.339523 92.066765
v 0.175000 236.891052 92.435280
v 0.175000 233.988968 93.637360
v 0.175000 234.118362 94.287918
v 0.175000 234.486877 94.839439
v 0.175000 235.038406 95.207954
v 0.175000 235.688965 95.337357
v 0.175000 236.891052 94.839439
v 0.175000 236.339523 95.207954
v 0.925000 230.362167 92.588928
v 3.925000 228.000626 88.181763
v 4.675000 228.151642 87.193230
v 3.925000 230.362167 92.588928
v 4.675000 234.486877 92.435280
v 4.675000 234.118378 92.986801
v 4.675000 235.038406 92.066765
v 4.675000 235.688965 91.937363
v 4.675000 236.339523 92.066765
v 4.675000 236.891052 92.435280
v 4.675000 233.988968 93.637360
v 4.675000 234.118378 94.287918
v 4.675000 234.486877 94.839439
v 4.675000 235.038406 95.207954
v 4.675000 235.688965 95.337357
v 4.675000 236.891052 94.839439
v 4.675000 236.339523 95.207954
v 0.175000 238.728851 81.525520
v 0.520802 239.980026 81.273560
v 0.520803 241.068863 83.305573
v 4.325385 239.993820 81.270782
v 4.675000 238.728851 81.525520
v 4.325385 241.094666 83.325195
v 0.175000 237.259552 92.986801
v 0.175000 237.388962 93.637360
v 0.175000 237.259552 94.287918
v 4.675000 237.259567 92.986801
v 4.675000 237.388962 93.637360
v 4.675000 237.259567 94.287918
v 0.520801 251.759659 103.256927
v 4.325387 251.684616 103.088356
v 0.175000 246.147125 112.798073
v 0.175000 246.797684 112.668671
v 0.175000 247.448242 112.798073
v 4.675000 246.147125 112.798073
v 4.675000 246.797684 112.668671
v 4.675000 247.448242 112.798073
v 0.175000 245.595596 113.166588
v 0.175000 245.227081 113.718109
v 0.175000 245.097687 114.368668
v 0.175000 245.227081 115.019226
v 0.175000 247.999771 113.166588
v 0.175000 248.368271 113.718109
v 0.175000 248.497681 114.368668
v 0.175000 248.368271 115.019226
v 0.175000 245.595596 115.570747
v 0.175000 246.147125 115.939262
v 0.175000 246.797684 116.068665
v 0.175000 247.999771 115.570747
v 0.175000 247.448242 115.939262
v 4.675000 245.595596 113.166588
v 4.675000 245.227097 113.718109
v 4.675000 245.097687 114.368668
v 4.675000 245.227097 115.019226
v 4.675000 247.999771 113.166588
v 4.675000 248.368286 113.718109
v 4.675000 248.497681 114.368668
v 4.675000 248.368286 115.019226
v 4.675000 245.595596 115.570747
v 4.675000 246.147125 115.939262
v 4.675000 246.797684 116.068665
v 4.675000 247.999771 115.570747
v 4.675000 247.448242 115.939262
v 0.175000 258.565857 118.545700
v 0.520802 259.468597 117.643494
v 4.325386 259.478546 117.633545
v 4.675000 258.565857 118.545700
v 0.175000 247.988663 124.213417
v 0.925000 247.081940 123.791656
v 3.925000 247.081940 123.791656
v 4.675000 247.988663 124.213417
v 1.799999 261.270477 127.795670
v 1.799999 265.196625 128.326141
v 1.799999 267.391754 128.622726
v 1.799999 269.198456 128.866821
v 1.799999 260.842010 130.966858
v 0.000000 269.344513 132.266983
v 0.000000 267.757935 133.117142
v 1.799999 267.058960 131.806824
v 1.799999 268.860962 131.364594
v 28.429405 263.004181 128.029922
v 28.299999 263.648895 128.117020
v 28.429405 264.293610 128.204132
v 28.797918 262.457642 127.956070
v 29.349438 262.092438 127.906723
v 28.797918 264.840149 128.277969
v 30.000000 261.964203 127.889397
v 30.650562 262.092438 127.906723
v 29.349438 265.205353 128.327316
v 29.482824 265.231659 128.330872
v 30.510580 265.232941 128.331039
v 30.650562 265.205353 128.327316
v 30.000000 265.314636 128.484848
v 28.429405 262.575714 131.201096
v 28.299999 263.220428 131.288208
v 28.429405 263.865143 131.375305
v 28.797918 262.029175 131.127258
v 29.349438 261.663971 131.077911
v 28.797918 264.411682 131.449158
v 29.349438 264.776886 131.498489
v 30.000000 261.535736 131.060593
v 30.650562 261.663971 131.077911
v 30.000000 264.905121 131.515823
v 30.650562 264.776886 131.498489
v 31.202082 262.457642 127.956070
v 31.570595 263.004181 128.029922
v 31.202082 264.840149 128.277969
v 31.700001 263.648895 128.117020
v 31.570595 264.293610 128.204132
v 31.202082 262.029175 131.127258
v 31.570595 262.575714 131.201096
v 31.700001 263.220428 131.288208
v 31.202082 264.411682 131.449158
v 31.570595 263.865143 131.375305
v 55.312630 251.524002 132.103500
v 55.710117 250.810852 133.050003
v 55.419434 252.636429 136.462509
v 55.781315 251.552490 135.956009
v 60.003296 248.304276 133.584518
v 60.600101 250.690445 132.186676
v 60.284332 251.257462 132.049713
v 60.215744 251.897125 131.888138
v 60.404781 252.512054 131.726578
v 61.114983 250.282410 132.278198
v 61.750587 250.095459 132.310333
v 60.822662 253.008636 131.589615
v 62.410152 250.158051 132.278198
v 60.706905 251.802887 136.545685
v 60.391136 252.369904 136.408722
v 60.322548 253.009567 136.247147
v 61.221786 251.394852 136.637207
v 61.857391 251.207901 136.669342
v 62.516956 251.270493 136.637207
v 58.200001 261.270477 127.795670
v 58.200001 264.638428 128.250717
v 57.391293 265.269470 128.335983
v 58.200001 266.245087 130.159241
v 58.200001 267.391754 128.622726
v 58.200001 269.198456 128.866821
v 61.457069 261.474365 129.413559
v 62.576302 262.633057 129.463531
v 58.200001 260.842010 130.966858
v 58.200001 267.130920 131.816544
v 58.200001 268.860962 131.364594
v 61.405773 253.311264 131.498093
v 62.065338 253.373856 131.465958
v 62.700943 253.186920 131.498093
v 60.511585 253.624496 136.085587
v 61.512577 254.423706 135.857101
v 60.929466 254.121063 135.948624
v 62.172142 254.486298 135.824966
v 60.000000 269.344513 132.266983
v 59.565765 267.892731 133.238434
v 61.563873 262.586792 133.772568
v 64.738503 83.321999 39.754494
v 63.275898 83.725777 40.722870
v 63.916500 23.506506 72.486000
v 81.229652 54.422821 84.851295
v 82.567497 53.224506 84.970490
v 92.249062 84.557434 114.914619
v 92.146698 85.529823 115.693375
v 92.532875 84.462250 119.404655
v 92.335907 85.466362 118.686722
v 102.899109 73.160675 118.569641
v 104.064003 71.788506 118.582489
v 96.775330 88.438690 114.710793
v 96.859772 89.096550 114.719398
v 97.353142 87.274513 114.649590
v 97.927429 86.945427 114.606308
v 98.584007 86.861717 114.563034
v 96.948578 87.798882 114.686279
v 97.189041 89.672287 114.710793
v 97.713020 90.078270 114.686272
v 98.351936 90.252686 114.649590
v 97.636955 87.179329 119.139626
v 98.211243 86.850235 119.096344
v 98.867821 86.766525 119.053070
v 97.059143 88.343506 119.200829
v 97.232391 87.703690 119.176308
v 97.143585 89.001358 119.209435
v 97.472855 89.577103 119.200829
v 97.996841 89.983086 119.176308
v 98.635750 90.157494 119.139626
v 102.799187 78.893890 114.127678
v 99.222916 87.036125 114.526344
v 99.746902 87.442108 114.501831
v 99.008514 90.168976 114.606308
v 99.582802 89.839882 114.563034
v 100.076172 88.017853 114.493217
v 99.987366 89.315521 114.526344
v 100.160614 88.675705 114.501831
v 99.506737 86.940941 119.016380
v 100.030716 87.346924 118.991867
v 99.292328 90.073784 119.096344
v 99.866615 89.744698 119.053070
v 100.359985 87.922661 118.983253
v 100.271179 89.220329 119.016380
v 100.444427 88.580521 118.991867
v 104.336700 78.543884 114.412537
v 105.536690 80.810699 114.381416
v 103.083000 78.798706 118.617714
v 105.388382 78.282074 117.857834
v 107.251663 81.795631 117.819107
v 110.756294 90.670677 114.246017
v 104.722076 102.305016 114.502426
v 104.548828 102.944824 114.526939
v 104.633270 103.602684 114.535545
v 102.910736 105.616615 115.438782
v 105.700928 101.451561 114.422455
v 105.126640 101.780647 114.465736
v 106.357506 101.367851 114.379181
v 104.962540 104.178421 114.526939
v 105.486519 104.584404 114.502426
v 106.125435 104.758820 114.465736
v 106.782013 104.675110 114.422455
v 104.832642 102.849640 119.016975
v 105.005890 102.209824 118.992455
v 104.917084 103.507492 119.025581
v 105.410454 101.685463 118.955772
v 105.984741 101.356369 118.912491
v 106.641319 101.272659 118.869217
v 105.246353 104.083237 119.016975
v 105.770340 104.489220 118.992455
v 106.409248 104.663628 118.955772
v 106.996414 101.542259 114.342491
v 107.520401 101.948242 114.317978
v 107.849670 102.523987 114.309364
v 107.934113 103.181839 114.317978
v 107.356300 104.346016 114.379181
v 107.760864 103.821655 114.342491
v 107.280235 101.447075 118.832527
v 107.804214 101.853058 118.808014
v 108.133484 102.428795 118.799400
v 108.217926 103.086655 118.808014
v 107.065826 104.579918 118.912491
v 107.640114 104.250832 118.869217
v 108.044678 103.726463 118.832527
v 106.130302 110.461227 114.586311
v 105.272247 110.023445 115.382935
v 105.461456 109.959984 118.376282
v 106.414116 110.366043 119.076347
v 115.399033 97.159065 117.649765
v 116.172028 100.901146 114.105537
v 116.680428 104.797684 113.799370
v 118.124046 103.497612 115.739799
v 117.245064 104.265221 113.944290
v 118.572136 103.142555 117.583817
v 116.964241 104.702499 118.289406
v 121.843613 108.445168 118.853874
v 123.343498 107.766006 118.126495
v 75.835304 157.659546 37.967293
v 91.083153 152.733597 60.130955
v 92.575500 152.524506 59.146488
v 88.630424 187.507858 49.437973
v 88.630424 187.507858 49.437973
v 88.630424 187.507858 49.437973
v 88.945503 188.338501 47.872486
v 88.945503 188.338501 47.872486
v 88.945503 188.338501 47.872486
v 62.993263 250.460693 132.186676
v 63.411144 250.957260 132.049713
v 63.215824 252.778870 131.589615
v 63.600182 251.572189 131.888138
v 63.531593 252.211853 131.726578
v 63.100067 251.573135 136.545685
v 63.517948 252.069702 136.408722
v 63.706985 252.684631 136.247147
v 70.152435 258.188782 130.407791
v 62.807747 254.299362 135.857101
v 63.322628 253.891312 135.948624
v 63.638397 253.324295 136.085587
v 63.669281 264.459015 132.530441
v 72.311737 244.834869 133.394104
v 72.696098 243.628204 133.692627
v 72.380325 244.195206 133.555664
v 73.210983 243.220154 133.784149
v 73.846588 243.033218 133.816284
v 74.506149 243.095810 133.784149
v 71.643120 241.508331 135.033676
v 72.802895 244.740631 138.051651
v 73.317780 244.332596 138.143158
v 73.953384 244.145645 138.175293
v 74.612946 244.208237 138.143158
v 72.500778 245.449814 133.232529
v 72.918663 245.946381 133.095566
v 73.501770 246.249008 133.004044
v 74.161331 246.311600 132.971909
v 74.796936 246.124664 133.004044
v 72.487122 245.307648 137.914673
v 72.418533 245.947311 137.753113
v 72.607574 246.562241 137.591537
v 73.025459 247.058823 137.454575
v 73.608566 247.361450 137.363052
v 74.268127 247.424042 137.330917
v 75.089256 243.398438 133.692642
v 75.507141 243.895004 133.555664
v 75.696182 244.509933 133.394104
v 76.912636 238.912842 134.792709
v 75.936302 239.001770 135.568192
v 76.007500 239.743408 138.474197
v 75.196053 244.510880 138.051636
v 75.613937 245.007446 137.914673
v 77.019432 240.025269 139.151718
v 75.311821 245.716614 133.095566
v 75.627594 245.149612 133.232544
v 75.802979 245.622375 137.753113
v 75.418617 246.829056 137.454575
v 75.734390 246.262039 137.591537
v 74.903732 247.237106 137.363052
v 72.164001 257.008789 130.658524
v 82.351791 232.194992 129.303604
v 82.589874 231.061157 129.772934
v 85.295395 227.312805 127.867653
v 83.644257 230.431000 132.509933
v 83.933365 231.249741 133.409103
v 88.786728 226.483688 125.509697
v 88.543869 227.058136 125.735512
v 88.538216 227.704041 125.886406
v 88.770622 228.323029 125.939384
v 89.805672 225.874710 124.976959
v 89.229813 226.068115 125.243324
v 89.205711 228.820892 125.886406
v 90.426636 225.932892 124.751137
v 90.811394 225.122864 129.348831
v 90.125450 226.112885 129.841019
v 90.119789 226.758789 129.991898
v 90.368309 225.538437 129.615204
v 90.352203 227.377777 130.044891
v 90.787292 227.875641 129.991898
v 89.777245 229.121826 125.735519
v 90.398209 229.180008 125.509697
v 90.998169 226.233826 124.600250
v 91.433258 226.731689 124.547264
v 91.665665 227.350677 124.600250
v 91.417152 228.571030 124.976959
v 91.660011 227.996582 124.751137
v 91.387253 224.929459 129.082458
v 91.358826 228.176575 129.841019
v 92.008217 224.987640 128.856644
v 92.579750 225.288574 128.705750
v 92.555649 228.041351 129.348831
v 91.979790 228.234756 129.615204
v 93.014839 225.786438 128.652771
v 93.247246 226.405426 128.705750
v 92.998734 227.625778 129.082458
v 93.241592 227.051331 128.856644
v 90.974068 228.986603 125.243324
v 83.057076 248.863220 132.102768
v 83.499718 250.359131 132.071365
v 83.880890 252.051926 134.395340
v 83.163872 249.975647 136.461777
v 83.993340 252.551315 135.080933
v 91.519684 239.726089 127.505775
v 93.003693 240.311920 127.460548
v 89.067451 250.617325 136.951813
v 90.000000 251.829010 136.001984
v 93.101257 238.780838 131.611282
v 104.450470 200.774475 114.378357
v 105.504852 200.144318 117.115356
v 106.659714 199.763596 117.404877
v 105.078140 200.708847 113.299377
v 125.536842 200.077469 110.960503
v 126.939003 200.652008 109.988983
v 101.956581 208.435883 116.280952
v 102.532440 208.242477 116.014587
v 101.270638 209.425903 116.773140
v 101.264984 210.071808 116.924034
v 101.513496 208.851456 116.547325
v 101.497398 210.690796 116.977013
v 101.932487 211.188660 116.924026
v 102.504021 211.489594 116.773140
v 102.852219 208.480667 120.878647
v 102.846558 209.126556 121.029533
v 103.153404 208.300659 115.788765
v 103.724937 208.601593 115.637878
v 103.700844 211.354370 116.280952
v 103.124985 211.547775 116.547325
v 104.160027 209.099457 115.584892
v 104.386780 210.364334 115.788765
v 104.392441 209.718445 115.637878
v 104.143929 210.938797 116.014580
v 103.095070 207.906204 120.652824
v 103.538155 207.490631 120.386459
v 104.114014 207.297226 120.120087
v 104.734978 207.355408 119.894264
v 103.078972 209.745544 121.082512
v 103.514061 210.243408 121.029533
v 104.706558 210.602524 120.652824
v 104.085594 210.544342 120.878639
v 105.306511 207.656342 119.743378
v 105.741600 208.154205 119.690399
v 105.282417 210.409119 120.386452
v 105.725502 209.993546 120.120079
v 105.974014 208.773193 119.743378
v 105.968361 209.419098 119.894264
v 104.578911 224.367279 119.344002
v 95.477531 240.199249 130.267715
v 114.246033 208.239944 111.501541
v 114.015205 211.368958 112.727257
v 115.389984 209.475204 111.763260
v 115.827606 207.294693 115.607040
v 117.453972 209.885834 114.800949
vn -0.8281 0.1376 0.5434
vn -0.5974 -0.0308 0.8013
vn -0.4813 -0.0919 0.8717
vn 0.4404 -0.6805 0.5856
vn 0.5410 -0.5909 0.5984
vn 0.5751 0.6605 -0.4827
vn -0.4444 -0.1087 0.8892
vn -0.7996 0.1594 0.5789
vn -0.7834 0.1130 0.6111
vn -0.5957 -0.0233 0.8029
vn -0.3425 -0.8267 -0.4464
vn -0.8158 0.4404 -0.3748
vn -0.3641 -0.0120 0.9313
vn 0.5974 0.0272 -0.8015
vn -0.5974 -0.0272 0.8015
vn -0.8435 0.1531 0.5148
vn -0.8372 0.1635 0.5219
vn -0.8448 0.1573 0.5115
vn 0.8168 -0.1323 -0.5615
vn 0.0146 0.3034 -0.9528
vn -0.4723 0.8814 -0.0024
vn -0.8085 0.2823 0.5164
vn -0.8048 0.2883 0.5189
vn -0.8048 0.2881 0.5189
vn -0.8384 0.4477 0.3108
vn -0.8437 0.4506 0.2918
vn -0.8083 0.2826 0.5165
vn -0.5752 -0.6621 0.4803
vn -0.8074 -0.3411 -0.4815
vn -0.8074 -0.3410 -0.4815
vn -0.3055 0.3988 -0.8647
vn -0.8215 0.1787 0.5415
vn -0.8233 0.1756 0.5397
vn -0.3626 -0.9092 -0.2047
vn 0.8038 -0.1251 -0.5815
vn -0.8049 0.1218 0.5808
vn -0.4074 -0.7398 0.5355
vn 0.1301 -0.0597 0.9897
vn -0.4676 -0.6762 0.5692
vn -0.4676 -0.6762 0.5693
vn -0.7101 -0.2163 0.6700
vn 0.0196 -0.3072 0.9514
vn -0.0000 0.9436 0.3312
vn 0.0006 -0.3074 0.9516
vn 0.2900 0.9030 0.3169
vn -1.0000 -0.0005 -0.0002
vn 0.0267 0.9419 0.3350
vn -0.0970 0.5942 0.7984
vn 1.0000 0.0006 -0.0012
vn -0.0000 -0.0000 -0.0000
vn 1.0000 0.0005 -0.0010
vn -0.7965 -0.5329 0.2856
vn 0.0099 -0.9697 0.2442
vn 0.0035 -0.8814 0.4723
vn -0.5780 -0.2386 0.7804
vn 0.0010 -0.8817 0.4718
vn -0.0022 0.6591 -0.7521
vn -0.0559 -0.3504 0.9349
vn 0.0019 0.6604 -0.7509
vn -0.0041 0.7501 0.6613
vn 0.4012 0.0773 0.9127
vn 0.0275 -0.3324 0.9427
vn 0.0036 -0.6230 0.7822
vn 0.8134 -0.1111 -0.5710
vn -0.5444 -0.7621 0.3505
vn -0.0223 -0.8082 0.5885
vn 0.5510 -0.7593 0.3463
vn 0.5709 -0.0052 0.8210
vn 0.4626 -0.4068 0.7877
vn -0.0000 0.8834 0.4687
vn -0.0000 0.5561 0.8311
vn -0.0000 0.7368 0.6762
vn -1.0000 -0.0000 -0.0000
vn -0.9497 -0.2928 -0.1113
vn -0.0000 -0.8168 0.5770
vn 0.6247 -0.2399 0.7431
vn -0.6247 -0.2399 0.7431
vn -0.3310 -0.2899 0.8980
vn 1.0000 -0.0000 -0.0000
vn -0.0000 -0.3072 0.9516
vn -0.0000 0.3252 0.9457
vn -0.0000 0.9516 0.3072
vn -0.0000 0.9808 0.1951
vn -0.0000 0.8315 0.5556
vn -0.9138 0.3377 0.2256
vn -0.0000 0.5556 0.8315
vn -0.0000 0.1951 0.9808
vn -0.9138 0.0792 0.3983
vn -0.0000 -0.1951 0.9808
vn -0.0000 -0.5556 0.8315
vn -0.0000 -0.8315 0.5556
vn -0.0000 -0.9808 0.1951
vn -0.7538 0.4647 0.4647
vn -0.9516 -0.0945 0.2926
vn -0.0000 0.5556 -0.8315
vn -0.0000 0.8315 0.5555
vn -0.0000 -0.8315 0.5555
vn -0.9138 -0.3983 0.0792
vn -0.6247 -0.6883 0.3688
vn -0.0000 0.4723 0.8814
vn 0.6247 -0.6883 0.3688
vn -0.0000 0.7069 0.7073
vn -0.6577 0.6434 0.3918
vn -0.0000 -0.8814 0.4723
vn -0.0000 0.8315 -0.5555
vn -0.9138 0.3377 -0.2256
vn -0.7538 0.6071 -0.2515
vn -0.0000 0.9808 -0.1952
vn -0.0000 0.9808 -0.1951
vn -0.0000 0.9808 0.1952
vn -0.9138 -0.3983 0.0793
vn -0.0000 0.8314 -0.5556
vn -0.0000 0.8315 -0.5556
vn -0.0000 0.8314 0.5556
vn -0.0000 -0.5555 0.8315
vn -0.0000 -0.9808 0.1952
vn 0.6247 -0.2774 0.7299
vn -0.9516 -0.1092 0.2874
vn -0.6247 -0.2774 0.7299
vn -0.3505 -0.0039 0.9366
vn -0.0000 -0.3553 0.9348
vn -0.0000 0.9348 0.3553
vn -0.0000 -0.8451 0.5346
vn -0.0000 -0.8451 0.5347
vn -0.0000 0.1951 -0.9808
vn -0.9138 0.0792 -0.3983
vn -0.0000 0.5555 -0.8315
vn -0.7538 0.2515 -0.6071
vn -0.7538 0.4647 -0.4647
vn -0.9138 0.2256 0.3377
vn 0.3515 -0.2101 0.9123
vn -0.5411 0.7497 0.3811
vn -0.7640 -0.6276 0.1498
vn 0.5181 -0.0597 0.8532
vn -0.3470 0.8480 -0.4006
vn 0.4934 -0.4615 -0.7373
vn -0.3375 0.8806 0.3327
vn -0.9304 -0.1515 0.3338
vn -0.3770 -0.6213 0.6869
vn 0.2435 0.5618 -0.7907
vn 0.9165 0.2760 -0.2895
vn 0.8616 0.4537 -0.2275
vn 0.0722 0.7224 -0.6877
vn 0.6559 0.7506 -0.0799
vn 0.3504 0.9332 0.0799
vn -0.1789 0.5710 -0.8013
vn -0.0085 0.9737 0.2275
vn -0.3661 0.8661 0.3404
vn -0.6680 0.6265 0.4016
vn -0.8616 -0.4537 0.2275
vn -0.5875 -0.1129 -0.8013
vn -0.6559 -0.7506 0.0799
vn -0.1789 0.5710 -0.8012
vn -0.3661 0.8661 0.3405
vn -0.7795 0.4659 -0.4186
vn -0.8682 0.2916 0.4016
vn -0.9362 -0.0877 0.3404
vn -0.6711 0.0077 -0.7413
vn 0.0631 -0.0211 0.9978
vn -0.2103 0.1250 0.9696
vn 0.0629 -0.0212 0.9978
vn 0.0631 -0.0212 0.9978
vn -0.6471 0.3553 0.6745
vn -0.5934 0.6965 0.4035
vn -0.9867 -0.1513 0.0592
vn -0.4723 -0.8814 0.0112
vn 0.2818 -0.1390 0.9494
vn -0.9899 0.1262 0.0652
vn -0.9632 -0.2629 0.0553
vn -0.7900 -0.6120 0.0370
vn -0.3784 -0.2293 -0.8968
vn 0.9899 -0.1262 -0.0652
vn 0.5398 0.3091 -0.7830
vn 0.9632 0.2629 -0.0553
vn -0.2612 0.9646 0.0370
vn -0.7899 -0.6121 0.0370
vn -0.2632 -0.2679 0.9268
vn -0.7900 -0.6121 0.0370
vn 0.8586 -0.5013 0.1069
vn 0.5904 -0.5293 -0.6094
vn 0.9580 -0.2825 0.0486
vn -0.5120 -0.8292 0.2242
vn -0.9944 -0.0944 0.0485
vn -0.8791 -0.4562 0.1380
vn -0.5235 -0.5900 -0.6147
vn -0.6300 -0.7486 0.2065
vn -0.3245 -0.7477 -0.5793
vn -0.2850 -0.9271 0.2436
vn -0.0787 -0.8200 -0.5669
vn 0.1034 -0.9644 0.2436
vn 0.1762 -0.7958 -0.5794
vn 0.4761 -0.8548 0.2065
vn 0.1717 -0.5731 -0.8013
vn -0.9944 -0.0944 0.0484
vn -0.2776 -0.5300 -0.8013
vn 0.0203 -0.6176 -0.7863
vn 0.9582 -0.2819 0.0485
vn 0.9582 -0.2818 0.0484
vn 0.9944 0.0944 -0.0485
vn 0.9944 0.0944 -0.0484
vn -0.0000 0.9910 0.1339
vn -0.0000 -0.1339 0.9910
vn -0.9808 0.1933 0.0261
vn -0.8315 0.5506 0.0744
vn -0.3377 0.3460 -0.8754
vn -0.1951 0.9720 0.1313
vn 0.8315 0.5506 0.0744
vn 0.3377 0.3460 -0.8754
vn 0.9808 0.1933 0.0261
vn 0.2855 0.7890 0.5440
vn -0.6616 0.3410 -0.6679
vn -0.8437 0.4506 0.2917
vn -0.5658 -0.6615 0.4922
vn -0.1812 -0.1008 0.9783
vn -0.4677 -0.6762 0.5693
vn -0.4051 -0.7888 -0.4622
vn 0.0015 0.3074 -0.9516
vn -0.0336 0.4201 0.9069
vn 0.0035 -0.3138 0.9495
vn 0.0005 -0.3095 0.9509
vn 0.0006 -0.3137 0.9495
vn 0.2944 0.9046 0.3082
vn 0.0196 -0.3073 0.9514
vn 0.0009 -0.8816 0.4719
vn 0.7987 -0.5304 0.2842
vn 0.4042 -0.9137 0.0429
vn -0.7089 0.6217 -0.3331
vn 0.5917 -0.5818 -0.5580
vn -0.0035 0.8814 -0.4723
vn -0.7966 -0.5329 0.2855
vn 0.0021 -0.6611 0.7503
vn 0.0029 -0.6593 0.7519
vn 0.0012 -0.8819 0.4714
vn 0.0011 -0.8818 0.4716
vn 0.0010 -0.8818 0.4716
vn 0.0010 -0.8697 0.4936
vn 0.0011 -0.8819 0.4714
vn 0.4013 -0.6627 0.6323
vn 0.0003 -0.3314 0.9435
vn 0.0005 -0.3553 0.9348
vn -0.0017 0.3558 -0.9346
vn -0.0048 0.6591 -0.7521
vn -0.0000 -0.9438 -0.3306
vn 0.0162 -0.9379 -0.3465
vn -0.0061 0.6602 -0.7511
vn -0.4486 -0.8369 0.3135
vn 0.0024 0.0114 0.9999
vn -0.0113 -0.7296 0.6838
vn -0.0591 0.4761 0.8774
vn 0.4266 -0.4000 0.8112
vn -0.0198 0.4722 0.8813
vn -0.5447 -0.6305 -0.5529
vn 0.3515 -0.2100 0.9123
vn 0.3514 -0.2101 0.9123
vn 0.1789 -0.5710 0.8013
vn 0.3514 -0.2100 0.9123
vn 0.3516 -0.2100 0.9123
vn 0.3514 -0.2101 0.9124
vn 0.3374 0.3397 -0.8780
vn 0.9362 0.0877 -0.3405
vn 0.9362 0.0878 -0.3404
vn -0.9362 -0.0878 0.3404
vn 0.6680 -0.6265 -0.4016
vn 0.9362 0.0877 -0.3404
vn -0.1901 0.3017 0.9342
vn -0.0348 0.7532 0.6569
vn 0.0630 -0.0211 0.9978
vn 0.0059 -0.4221 0.9065
vn -0.1614 -0.6390 0.7521
vn -0.1440 -0.3718 0.9171
vn 0.0630 -0.0212 0.9978
vn 0.0631 -0.0213 0.9978
vn -0.4200 0.9064 0.0458
vn 0.1564 0.9876 0.0110
vn 0.9460 -0.3173 -0.0665
vn 0.4964 0.8680 -0.0130
vn -0.8658 0.4961 0.0652
vn 0.0237 0.2472 0.9687
vn -0.3675 0.3404 0.8655
vn -0.5632 0.4869 0.6677
vn -0.2936 0.4758 0.8291
vn -0.0203 0.6176 0.7863
vn 0.0788 0.8200 0.5669
vn 0.0236 0.2472 0.9687
vn 0.1374 0.6024 0.7863
vn -0.4430 -0.1454 0.8847
vn -0.1348 -0.0197 0.9907
vn -0.3353 0.0406 0.9412
vn 0.1413 0.4320 0.8907
vn -0.3923 0.7725 0.4994
vn -0.4761 0.8548 -0.2065
vn 0.9551 0.2807 -0.0950
vn -0.0940 -0.1506 0.9841
vn -0.5556 0.8240 0.1113
vn -0.2256 0.2123 0.9508
vn 0.1951 -0.9720 -0.1313
vn 0.1951 -0.9719 -0.1313
vn 0.1950 -0.9720 -0.1313
vn 0.2889 -0.6746 -0.6793
vn 0.8065 0.0777 -0.5862
vn 0.6046 -0.4344 -0.6677
vn 0.8058 -0.1466 -0.5738
vn 0.8628 -0.2518 -0.4384
vn 0.7748 -0.5542 -0.3042
vn 0.7473 -0.6053 0.2742
vn 0.9271 0.3459 0.1445
vn -0.6609 0.2435 -0.7099
vn 0.3098 -0.8908 0.3325
vn 0.8329 -0.0876 -0.5464
vn 0.8572 -0.0736 -0.5097
vn 0.8120 -0.1063 -0.5739
vn -0.3790 -0.1501 -0.9131
vn 0.1259 0.4597 -0.8791
vn 0.6266 0.6487 0.4320
vn 0.3411 0.9285 -0.1471
vn -0.0000 0.3072 -0.9516
vn -0.5820 0.7806 0.2280
vn -0.0000 0.8814 -0.4723
vn -0.5238 -0.4198 -0.7412
vn -0.9015 0.2137 0.3763
vn -0.6406 0.4276 0.6378
vn -0.5510 0.8307 -0.0798
vn 0.1331 0.6708 0.7296
vn -0.4312 0.6839 -0.5885
vn -0.4321 0.7488 -0.5025
vn -0.4886 0.6366 -0.5966
vn -0.4316 0.7757 -0.4603
vn -0.3076 0.9018 -0.3034
vn -0.8621 0.0924 0.4983
vn -0.3059 -0.5844 0.7516
vn -0.8495 0.0549 0.5247
vn 0.7812 -0.5031 0.3697
vn -0.0000 -0.5091 0.8607
vn -0.1132 -0.9136 -0.3906
vn 0.8167 -0.1344 -0.5613
vn -0.9119 -0.2767 0.3032
vn 0.0350 -0.6388 -0.7686
vn -0.1298 -0.3726 -0.9189
vn 0.0305 -0.6324 -0.7740
vn 0.0848 0.0813 0.9931
vn 0.0016 -0.9597 -0.2809
vn -0.6961 0.2497 -0.6731
vn -0.5577 -0.0474 -0.8287
vn -0.0008 -0.7459 -0.6661
vn -0.3901 -0.2829 0.8762
vn -0.6547 0.7381 -0.1633
vn 0.6505 0.7420 -0.1621
vn 0.6620 0.7311 -0.1654
vn 0.6505 -0.5071 -0.5654
vn -0.0000 -0.8222 -0.5692
vn 0.6620 -0.4963 -0.5617
vn 0.9622 0.0837 -0.2592
vn -0.6505 0.7420 -0.1621
vn -0.9622 0.0837 -0.2592
vn -0.9622 0.0837 -0.2591
vn -0.0000 -0.9516 -0.3072
vn -0.0000 -0.9808 -0.1951
vn -0.0000 -0.8315 -0.5556
vn -0.0000 -0.5556 -0.8315
vn -0.0000 -0.1951 -0.9808
vn -0.6582 0.7347 -0.1643
vn 0.6584 0.7345 -0.1644
vn 0.6584 -0.4997 -0.5629
vn -0.0000 -0.8315 -0.5555
vn -0.0000 -0.4723 -0.8814
vn -0.0000 -0.7362 -0.6767
vn -0.9622 0.2400 -0.1286
vn -0.6505 0.6469 0.3980
vn -0.0000 -0.1974 -0.9803
vn 0.6505 0.0269 -0.7590
vn -0.0000 -0.9936 0.1133
vn 0.9622 0.2400 -0.1286
vn -0.0000 -0.4218 0.9067
vn -0.0000 -0.4217 0.9067
vn -0.0000 -0.9808 -0.1952
vn -0.0000 -0.5555 -0.8315
vn -0.0000 -0.9348 -0.3553
vn -0.0000 -0.7922 -0.6103
vn 0.6505 -0.4777 -0.5905
vn -0.8105 0.0051 0.5857
vn -0.0000 0.2766 0.9610
vn -0.6505 0.7493 -0.1241
vn -0.6919 0.5537 0.4632
vn -0.9622 0.0968 -0.2546
vn 0.6505 0.7493 -0.1241
vn -0.9737 -0.2232 -0.0454
vn -0.8161 -0.3589 -0.4529
vn -0.9712 -0.2300 -0.0630
vn -0.2865 -0.9519 -0.1088
vn -0.2865 -0.9519 -0.1087
vn 0.5411 -0.7497 -0.3811
vn 0.6246 -0.6733 -0.3956
vn -0.8161 -0.3588 -0.4530
vn -0.3515 0.2101 -0.9123
vn -0.5876 -0.1129 -0.8013
vn -0.3514 0.2101 -0.9123
vn -0.3515 0.2100 -0.9123
vn -0.9359 -0.0523 0.3485
vn 0.4315 -0.2139 -0.8764
vn 0.8682 -0.2916 -0.4016
vn 0.0314 0.0735 -0.9968
vn -0.3504 -0.9332 -0.0799
vn 0.1794 -0.5708 0.8012
vn 0.0085 -0.9737 -0.2275
vn 0.3661 -0.8661 -0.3404
vn 0.3661 -0.8660 -0.3405
vn -0.8792 0.4720 0.0656
vn -0.7259 0.3818 -0.5721
vn -0.3303 0.1652 -0.9293
vn 0.4723 0.8814 -0.0112
vn -0.0631 0.0212 -0.9978
vn -0.0627 0.0212 -0.9978
vn -0.0631 0.0211 -0.9978
vn -0.0630 0.0212 -0.9978
vn 0.1597 -0.0980 -0.9823
vn 0.6896 0.7236 -0.0282
vn 0.6896 0.7236 -0.0283
vn -0.2208 -0.9753 -0.0067
vn 0.7899 0.6121 -0.0370
vn 0.7900 0.6121 -0.0370
vn 0.1273 0.9918 0.0130
vn -0.1901 0.3017 0.9343
vn -0.6099 0.7905 0.0553
vn -0.4964 -0.8680 0.0130
vn -0.1273 -0.9918 -0.0130
vn 0.2612 -0.9646 -0.0370
vn 0.6099 -0.7905 -0.0553
vn 0.8658 -0.4961 -0.0652
vn 0.2632 0.2679 -0.9268
vn -0.3054 0.3404 -0.8893
vn -0.3129 0.7437 0.5907
vn 0.1055 -0.9641 0.2435
vn 0.1056 -0.9641 0.2435
vn -0.8586 0.5013 -0.1069
vn 0.0952 -0.0490 -0.9943
vn -0.0237 -0.2472 -0.9687
vn -0.0236 -0.2471 -0.9687
vn 0.5904 -0.5293 -0.6093
vn -0.7067 0.6895 -0.1586
vn -0.3850 -0.4931 0.7802
vn -0.4147 -0.8019 -0.4301
vn -0.4146 -0.8019 -0.4301
vn -0.9248 -0.3626 0.1152
vn -0.7232 -0.4755 0.5009
vn -0.1034 0.9644 -0.2436
vn -0.7762 0.6152 -0.1380
vn -0.9582 0.2818 -0.0484
vn 0.7762 -0.6152 0.1380
vn 0.9582 -0.2819 0.0484
vn 0.8791 0.4562 -0.1380
vn 0.6300 0.7486 -0.2065
vn 0.2850 0.9271 -0.2436
vn -0.9582 0.2819 -0.0485
vn -0.9582 0.2818 -0.0485
vn -0.0941 -0.1506 0.9841
vn 0.8791 0.4563 -0.1380
vn 0.6300 0.7487 -0.2065
vn -0.0000 -0.9910 -0.1339
vn -0.0000 0.1339 -0.9910
vn -0.0000 0.1338 -0.9910
vn -0.1951 -0.9720 -0.1313
vn -0.5556 -0.8240 -0.1113
vn -0.8315 -0.5506 -0.0744
vn -0.9808 -0.1933 -0.0261
vn 0.1951 0.9720 0.1313
vn 0.5556 0.8240 0.1113
vn 0.9808 -0.1933 -0.0261
vn 0.8315 -0.5506 -0.0744
vn 0.5556 -0.8240 -0.1113
vn -0.4781 0.3120 -0.8210
vn -0.8001 -0.1844 0.5708
vn -0.3285 -0.8884 -0.3206
vn -0.0005 0.3555 -0.9347
vn -1.0000 0.0026 0.0015
vn 0.0444 0.8218 -0.5681
vn -0.0383 0.9495 0.3115
vn 0.0420 0.9431 -0.3298
vn -0.8968 -0.3019 0.3235
vn -0.1336 -0.3656 -0.9211
vn 0.2583 -0.7880 0.5589
vn -0.9138 0.3983 -0.0792
vn 0.3514 -0.2100 0.9124
vn -0.3514 0.2100 -0.9123
vn -0.3514 0.2099 -0.9124
vn -0.5925 0.4464 -0.6706
vn -0.6738 0.3104 -0.6706
vn 0.7118 -0.5731 -0.4061
vn 0.6560 0.7506 -0.0799
vn -0.3053 0.3404 -0.8893
vn -0.3785 -0.2293 -0.8968
vn 0.3336 0.1261 -0.9342
vn -0.0628 0.0212 -0.9978
vn 0.0237 0.2471 0.9687
vn 0.0238 0.2472 0.9687
vn -0.0238 -0.2472 -0.9687
vn -0.0236 -0.2472 -0.9687
vn -0.3787 -0.4112 -0.8292
vn -0.0000 0.1340 -0.9910
vn -0.0000 0.1337 -0.9910
vn -0.0000 -0.1340 0.9910
vn -0.1950 -0.9720 -0.1313
vn 0.1952 -0.9719 -0.1313
vn 0.0005 -0.3555 0.9347
vn 0.0022 -0.6593 0.7519
vn -0.0000 -0.1421 0.9899
vn -0.8167 0.1344 0.5613
vn 0.0051 -0.3125 0.9499
vn -0.5476 0.6277 0.5533
vn 0.7907 0.2175 -0.5723
s 1
usemtl
f 152//1 135//2 149//3
f 161//4 498//4 163//4
f 498//5 500//5 163//5
f 600//6 697//6 704//6
f 149//3 154//7 152//8
f 152//9 154//7 598//10
f 143//11 157//12 148//13
f 137//2 599//10 155//7
f 152//14 598//14 135//14
f 136//15 600//15 151//15
f 140//16 497//17 139//18
f 138//19 142//20 147//21
f 497//22 162//23 499//24
f 505//25 543//26 499//26
f 590//27 497//22 587//27
f 596//28 740//29 737//30
f 148//13 156//31 145//32
f 159//33 497//17 593//32
f 592//34 145//35 156//31
f 592//36 593//36 596//36
f 299//37 596//37 696//37
f 696//38 693//39 691//40
f 476//40 299//40 690//40
f 2//41 6//42 7//42
f 214//43 87//44 209//45
f 221//46 206//47 217//48
f 207//49 222//50 224//51
f 361//52 286//53 360//54
f 419//55 414//56 420//56
f 292//57 277//58 289//59
f 277//58 292//57 291//60
f 296//61 596//62 299//63
f 146//64 592//34 142//20
f 140//65 498//65 162//65
f 140//66 3//66 141//66
f 703//67 594//67 704//67
f 704//68 697//68 703//68
f 593//69 496//69 594//69
f 205//70 595//70 600//70
f 418//71 494//71 493//71
f 279//72 300//72 298//72
f 284//73 281//73 293//74
f 12//75 23//75 22//75
f 23//76 96//76 94//76
f 11//77 91//78 92//77
f 11//77 33//77 91//78
f 29//79 26//79 10//79
f 75//79 86//79 96//79
f 86//79 42//79 10//79
f 33//80 94//80 91//78
f 34//76 22//76 23//76
f 11//77 12//77 33//77
f 96//81 92//81 95//81
f 84//82 96//82 86//82
f 15//83 27//83 26//83
f 29//84 18//85 26//84
f 13//86 18//86 24//86
f 25//87 14//88 24//87
f 14//89 42//89 35//89
f 43//90 36//90 35//90
f 44//91 37//91 36//91
f 37//92 45//92 38//92
f 71//83 55//83 67//83
f 71//84 68//84 52//93
f 53//87 70//87 69//87
f 53//89 72//89 56//89
f 73//90 57//90 56//90
f 74//91 58//91 57//91
f 58//92 75//92 59//92
f 108//75 107//75 98//75
f 97//94 106//77 202//77
f 112//76 107//76 108//76
f 111//79 108//79 109//79
f 190//79 196//79 200//79
f 200//79 127//79 90//79
f 97//94 98//77 106//77
f 198//82 204//82 200//82
f 204//81 201//81 203//81
f 101//83 113//83 111//83
f 111//84 109//84 99//93
f 126//87 117//87 100//87
f 117//89 127//89 118//89
f 118//90 128//90 119//90
f 129//91 120//91 119//91
f 120//92 134//92 125//92
f 175//95 191//95 189//95
f 170//83 187//83 186//83
f 182//96 166//85 186//96
f 165//86 166//86 181//86
f 183//87 167//87 165//87
f 167//89 184//89 168//89
f 185//90 169//90 168//90
f 169//97 194//91 178//97
f 179//98 194//92 195//92
f 327//99 328//99 342//99
f 408//100 405//100 409//100
f 327//99 342//99 410//99
f 327//99 410//99 409//99
f 344//79 350//79 349//79
f 403//79 408//79 412//79
f 363//79 408//79 368//79
f 345//101 343//101 344//101
f 408//102 407//102 406//103
f 344//101 412//101 411//101
f 342//104 411//104 410//104
f 354//105 353//105 337//106
f 336//107 353//108 352//109
f 330//83 352//83 347//110
f 346//96 329//93 347//96
f 331//87 349//87 332//87
f 350//89 333//89 332//89
f 351//90 334//90 333//90
f 365//97 351//97 368//97
f 366//111 368//92 369//92
f 387//106 400//112 395//113
f 382//107 395//109 394//109
f 380//83 394//83 393//83
f 392//114 379//85 393//84
f 373//86 379//86 376//86
f 373//87 377//87 374//87
f 378//89 375//89 374//89
f 396//115 383//90 375//90
f 397//97 384//97 396//97
f 385//116 384//92 398//92
f 326//117 324//117 249//117
f 229//118 236//119 312//120
f 236//121 324//121 312//121
f 255//117 248//117 249//117
f 278//122 326//122 297//122
f 235//123 249//123 248//124
f 250//79 251//79 249//79
f 297//79 323//79 322//79
f 228//79 297//79 258//79
f 229//118 235//119 236//119
f 266//125 261//125 247//126
f 254//127 242//128 261//127
f 234//129 254//105 253//105
f 233//107 253//109 252//109
f 231//83 252//83 251//83
f 230//93 251//96 250//96
f 257//86 238//130 250//86
f 256//87 237//87 238//87
f 237//89 258//89 239//89
f 259//90 240//90 239//90
f 260//97 241//97 259//97
f 260//92 263//92 244//98
f 304//106 316//105 315//105
f 303//107 315//109 314//109
f 301//83 314//83 313//83
f 272//96 267//93 313//96
f 268//87 274//87 269//87
f 275//89 270//89 269//89
f 276//90 271//90 270//90
f 308//97 276//91 320//91
f 309//98 320//92 321//92
f 656//131 701//131 723//131
f 694//132 652//132 698//132
f 653//133 654//133 655//133
f 654//133 699//133 655//133
f 742//134 743//134 738//134
f 694//135 737//30 739//136
f 698//137 738//137 695//138
f 656//139 655//139 701//139
f 709//140 713//141 723//142
f 705//143 723//144 724//144
f 724//145 725//145 706//146
f 726//147 706//147 725//147
f 726//148 731//148 716//148
f 732//149 716//149 731//149
f 720//150 736//150 722//150
f 717//151 734//152 733//152
f 662//144 668//144 665//144
f 665//145 678//145 661//153
f 680//147 661//147 678//147
f 673//148 680//154 681//154
f 681//149 684//149 674//155
f 674//155 684//156 685//156
f 677//157 675//157 685//157
f 686//150 676//158 687//150
f 682//152 676//152 686//152
f 517//159 503//160 518//161
f 574//162 542//162 589//162
f 504//163 503//160 581//164
f 502//165 501//165 504//165
f 501//166 542//166 503//166
f 542//167 543//167 544//167
f 542//167 544//167 583//167
f 589//167 583//167 588//167
f 532//168 537//168 539//168
f 538//169 531//169 532//169
f 536//170 529//171 538//170
f 547//172 559//172 557//172
f 546//173 557//174 558//174
f 566//175 552//175 572//175
f 569//168 574//168 575//168
f 578//169 571//169 569//169
f 571//176 577//177 570//178
f 692//179 644//179 639//180
f 692//181 690//181 691//181
f 457//182 460//182 459//182
f 460//182 620//182 459//182
f 605//183 608//183 612//183
f 612//184 611//184 603//185
f 611//186 610//186 488//187
f 492//188 487//189 610//188
f 490//190 486//191 492//190
f 491//192 467//193 490//192
f 638//194 647//183 649//183
f 629//195 648//186 650//186
f 634//190 627//196 635//190
f 632//197 631//197 614//198
f 630//199 614//200 631//199
f 416//201 485//201 480//201
f 475//79 478//79 484//79
f 480//79 485//79 479//79
f 442//202 417//202 483//202
f 420//202 444//202 484//202
f 447//203 452//203 453//203
f 452//204 446//205 451//204
f 428//206 443//206 429//206
f 435//207 438//207 425//208
f 422//209 436//209 435//209
f 590//210 586//26 588//26
f 583//26 590//210 588//26
f 584//26 499//26 545//211
f 544//212 590//210 583//26
f 499//26 541//211 545//211
f 499//26 543//26 540//26
f 499//24 584//27 497//22
f 590//27 587//27 586//27
f 497//22 584//27 587//27
f 743//28 596//28 703//213
f 741//28 596//28 743//28
f 696//38 695//138 738//28
f 696//38 596//28 695//138
f 696//38 738//28 743//28
f 691//40 690//40 696//38
f 477//40 299//40 476//40
f 476//40 494//214 478//215
f 693//39 494//214 613//40
f 482//40 613//40 494//214
f 482//40 494//214 476//40
f 482//40 476//40 609//216
f 299//40 696//38 690//40
f 651//216 476//40 690//40
f 50//42 139//42 85//42
f 9//42 139//42 50//42
f 221//46 214//217 218//218
f 2//41 49//42 83//42
f 8//42 139//42 9//42
f 6//42 139//42 8//42
f 2//41 7//42 49//42
f 2//41 139//42 6//42
f 85//219 147//21 148//13
f 89//220 85//219 596//62
f 197//44 199//44 217//48
f 87//221 85//219 89//220
f 197//44 220//222 209//45
f 83//223 85//223 87//223
f 89//220 596//62 199//44
f 299//63 407//224 372//54
f 364//225 299//63 372//54
f 360//54 299//63 362//226
f 288//227 290//228 282//229
f 290//228 371//230 406//54
f 292//231 295//232 360//54
f 419//55 406//54 407//224
f 407//224 299//63 477//233
f 431//56 432//234 434//235
f 407//224 477//233 432//234
f 494//236 420//56 484//237
f 407//224 432//234 431//56
f 414//56 407//224 431//56
f 419//55 407//224 414//56
f 226//238 223//239 596//62
f 223//239 226//238 225//240
f 293//241 294//242 292//57
f 216//243 212//244 225//240
f 293//241 300//245 294//242
f 141//246 498//246 140//246
f 506//247 591//247 505//247
f 3//248 140//248 4//248
f 163//249 505//249 164//249
f 593//250 497//250 496//250
f 279//251 282//251 300//251
f 211//50 205//79 208//50
f 293//74 283//252 284//73
f 23//75 12//75 11//75
f 10//79 27//79 23//79
f 29//79 10//79 24//79
f 26//79 27//79 10//79
f 80//79 96//79 82//79
f 74//79 86//79 75//79
f 75//79 96//79 80//79
f 81//79 82//79 96//79
f 28//79 23//79 27//79
f 23//79 28//79 30//79
f 79//79 81//79 96//79
f 78//79 79//79 96//79
f 23//79 30//79 31//79
f 32//79 23//79 31//79
f 23//79 78//79 96//79
f 23//79 77//79 78//79
f 23//79 32//79 77//79
f 32//79 76//79 77//79
f 32//79 48//79 76//79
f 76//79 48//79 67//79
f 47//79 67//79 48//79
f 47//79 71//79 67//79
f 46//79 71//79 47//79
f 71//79 46//79 68//79
f 46//79 45//79 68//79
f 70//79 68//79 45//79
f 44//79 70//79 45//79
f 44//79 69//79 70//79
f 44//79 43//79 69//79
f 43//79 72//79 69//79
f 42//79 72//79 43//79
f 86//79 74//79 73//79
f 86//79 73//79 72//79
f 25//79 24//79 10//79
f 86//79 72//79 42//79
f 42//79 25//79 10//79
f 94//80 33//80 34//80
f 95//80 91//78 94//80
f 93//81 95//81 92//81
f 84//82 92//82 96//82
f 15//83 16//83 27//83
f 29//86 24//86 18//86
f 14//89 25//89 42//89
f 43//90 35//90 42//90
f 44//91 36//91 43//91
f 37//92 44//92 45//92
f 70//86 52//93 68//86
f 53//87 54//87 70//87
f 53//89 69//89 72//89
f 73//90 56//90 72//90
f 74//91 57//91 73//91
f 58//92 74//92 75//92
f 108//75 98//75 97//75
f 106//80 112//80 203//80
f 110//79 108//79 90//79
f 108//79 110//79 109//79
f 108//79 111//79 113//79
f 194//79 200//79 195//79
f 190//79 200//79 204//79
f 195//79 200//79 196//79
f 190//79 204//79 193//79
f 114//79 108//79 113//79
f 108//79 114//79 115//79
f 192//79 193//79 204//79
f 191//79 192//79 204//79
f 115//79 116//79 108//79
f 116//79 131//79 108//79
f 108//79 191//79 204//79
f 108//79 189//79 191//79
f 189//79 108//79 131//79
f 189//79 131//79 188//79
f 132//79 188//79 131//79
f 132//79 187//79 188//79
f 132//79 133//79 187//79
f 187//79 133//79 186//79
f 130//79 186//79 133//79
f 130//79 182//79 186//79
f 130//79 134//79 182//79
f 182//79 134//79 181//79
f 129//79 181//79 134//79
f 129//79 183//79 181//79
f 129//79 128//79 183//79
f 128//79 184//79 183//79
f 127//79 184//79 128//79
f 200//79 194//79 185//79
f 200//79 185//79 184//79
f 110//79 90//79 126//79
f 200//79 184//79 127//79
f 126//79 90//79 127//79
f 198//82 201//82 204//82
f 202//81 203//81 201//81
f 101//83 102//83 113//83
f 110//86 99//93 109//86
f 126//87 100//87 110//87
f 117//89 126//89 127//89
f 118//90 127//90 128//90
f 129//91 119//91 128//91
f 120//92 129//92 134//92
f 170//83 171//83 187//83
f 182//86 181//86 166//86
f 183//87 165//87 181//87
f 167//89 183//89 184//89
f 185//90 168//90 184//90
f 169//97 185//91 194//91
f 412//100 408//100 409//100
f 344//79 348//79 346//79
f 344//79 363//79 350//79
f 344//79 349//79 348//79
f 402//79 404//79 412//79
f 399//79 408//79 403//79
f 403//79 412//79 404//79
f 401//79 402//79 412//79
f 344//79 346//79 347//79
f 352//79 344//79 347//79
f 400//79 401//79 412//79
f 395//79 400//79 412//79
f 344//79 352//79 353//79
f 354//79 344//79 353//79
f 344//79 395//79 412//79
f 344//79 394//79 395//79
f 344//79 354//79 394//79
f 394//79 354//79 393//79
f 354//79 355//79 393//79
f 355//79 392//79 393//79
f 392//79 355//79 356//79
f 392//79 356//79 376//79
f 358//79 376//79 356//79
f 358//79 377//79 376//79
f 358//79 357//79 377//79
f 357//79 378//79 377//79
f 357//79 370//79 378//79
f 370//79 396//79 378//79
f 370//79 369//79 396//79
f 397//79 396//79 369//79
f 368//79 397//79 369//79
f 398//79 408//79 399//79
f 397//79 408//79 398//79
f 350//79 363//79 351//79
f 368//79 408//79 397//79
f 363//79 368//79 351//79
f 342//104 345//104 411//104
f 330//83 335//83 352//83
f 346//86 348//86 329//93
f 348//87 349//87 331//87
f 350//89 332//89 349//89
f 351//90 333//90 350//90
f 334//97 351//97 365//97
f 380//83 381//83 394//83
f 392//86 376//86 379//86
f 373//87 376//87 377//87
f 378//89 374//89 377//89
f 396//115 375//90 378//115
f 383//97 396//97 384//97
f 397//92 398//92 384//92
f 236//121 255//121 324//121
f 278//122 325//122 326//122
f 235//123 229//123 249//123
f 257//79 249//79 228//79
f 250//79 249//79 257//79
f 252//79 249//79 251//79
f 320//79 297//79 321//79
f 297//79 326//79 323//79
f 297//79 322//79 321//79
f 319//79 323//79 326//79
f 252//79 253//79 249//79
f 254//79 249//79 253//79
f 318//79 319//79 326//79
f 317//79 318//79 326//79
f 254//79 261//79 249//79
f 266//79 249//79 261//79
f 317//79 326//79 249//79
f 316//79 317//79 249//79
f 266//79 316//79 249//79
f 316//79 266//79 315//79
f 262//79 315//79 266//79
f 262//79 314//79 315//79
f 262//79 265//79 314//79
f 314//79 265//79 313//79
f 264//79 313//79 265//79
f 264//79 272//79 313//79
f 264//79 263//79 272//79
f 273//79 272//79 263//79
f 260//79 273//79 263//79
f 260//79 274//79 273//79
f 259//79 274//79 260//79
f 259//79 275//79 274//79
f 258//79 275//79 259//79
f 297//79 320//79 276//79
f 275//79 297//79 276//79
f 256//79 257//79 228//79
f 258//79 297//79 275//79
f 228//79 258//79 256//79
f 231//83 232//83 252//83
f 256//87 238//87 257//87
f 237//89 256//89 258//89
f 259//90 239//90 258//90
f 240//97 259//97 241//97
f 301//83 302//83 314//83
f 272//86 273//86 267//93
f 273//87 274//87 268//87
f 275//89 269//89 274//89
f 276//90 270//90 275//90
f 271//97 276//91 308//97
f 698//131 686//131 742//131
f 742//131 686//131 687//253
f 742//131 687//253 685//254
f 729//255 742//131 684//131
f 729//255 681//253 730//254
f 730//254 680//131 728//131
f 728//131 678//256 727//131
f 727//131 665//257 714//254
f 714//254 668//131 713//258
f 723//131 713//258 668//131
f 667//131 669//254 656//131
f 666//253 667//131 656//131
f 668//131 666//253 656//131
f 656//131 723//131 668//131
f 698//131 669//254 670//131
f 726//131 701//131 742//131
f 656//132 698//132 652//132
f 707//259 708//260 714//261
f 720//262 721//262 736//157
f 734//150 722//150 736//150
f 710//263 728//263 727//263
f 658//260 659//260 667//264
f 658//142 666//142 668//142
f 677//157 685//157 687//157
f 688//152 676//152 682//152
f 520//162 503//160 516//162
f 503//160 542//162 533//265
f 518//161 503//160 533//265
f 516//162 503//160 517//159
f 503//160 520//162 519//162
f 519//162 521//162 503//160
f 582//266 521//162 522//267
f 582//266 522//267 559//162
f 559//162 522//267 523//162
f 559//162 523//162 557//267
f 557//267 523//162 524//268
f 557//267 524//268 558//162
f 558//162 535//269 560//162
f 560//162 536//270 561//162
f 561//162 538//162 562//162
f 562//162 539//271 572//162
f 572//162 537//162 573//272
f 573//272 537//162 574//162
f 582//266 565//162 589//162
f 589//162 565//162 576//162
f 589//162 576//162 577//177
f 501//165 503//165 504//165
f 580//273 581//164 579//274
f 507//172 508//275 519//172
f 509//276 516//276 517//276
f 527//277 534//277 537//277
f 538//169 532//169 539//169
f 551//276 560//276 561//276
f 572//175 552//175 562//175
f 567//277 573//277 574//277
f 578//169 569//169 575//169
f 492//278 692//278 495//278
f 692//278 612//278 634//278
f 608//279 634//278 612//278
f 608//279 633//278 634//278
f 607//280 632//278 633//278
f 606//281 631//278 632//278
f 474//282 630//278 631//278
f 473//283 621//284 630//278
f 621//284 472//285 622//278
f 470//278 471//278 458//286
f 470//278 458//286 469//278
f 469//278 458//286 472//285
f 472//285 644//287 622//278
f 649//288 644//287 692//278
f 649//288 647//278 644//287
f 458//286 471//278 495//278
f 693//289 495//290 692//289
f 692//181 689//181 690//181
f 474//291 606//291 468//291
f 608//183 605//183 604//183
f 462//292 463//199 471//199
f 624//291 642//291 619//291
f 649//183 646//194 638//194
f 648//288 645//184 646//184
f 635//293 628//188 629//188
f 416//201 421//201 485//201
f 475//79 484//79 483//79
f 475//79 476//79 478//79
f 417//202 435//202 436//202
f 417//202 438//202 435//202
f 417//202 439//202 438//202
f 417//202 442//202 439//202
f 417//202 436//202 420//202
f 436//202 437//202 420//202
f 483//202 484//202 453//202
f 437//202 440//202 420//202
f 440//202 441//202 420//202
f 441//202 444//202 420//202
f 453//203 449//203 447//203
f 429//294 443//295 446//294
f 443//206 428//206 442//206
f 444//296 431//297 434//298
f 136//299 496//300 141//301
f 137//2 150//3 153//1
f 151//302 496//300 136//299
f 496//300 498//303 141//301
f 498//303 496//300 500//304
f 506//305 500//304 591//306
f 500//304 496//300 591//306
f 3//307 136//299 141//301
f 163//308 500//304 506//305
f 600//309 704//310 594//311
f 150//3 155//7 153//8
f 151//302 594//311 496//300
f 153//9 155//7 599//10
f 600//309 594//311 151//302
f 600//312 298//313 697//314
f 298//313 493//315 697//314
f 135//2 598//10 154//7
f 142//20 156//31 136//316
f 156//31 205//316 600//316
f 418//317 421//318 415//318
f 479//318 485//318 493//315
f 595//319 298//313 600//312
f 137//14 153//14 599//14
f 497//17 147//21 139//18
f 143//11 148//13 145//35
f 497//320 140//320 162//320
f 139//321 4//322 140//323
f 160//324 164//325 162//326
f 162//326 164//325 499//327
f 505//328 499//327 164//325
f 596//329 593//330 703//331
f 743//28 703//213 696//38
f 157//12 158//332 148//13
f 592//34 144//36 157//12
f 214//333 221//46 215//334
f 223//239 199//44 596//62
f 291//60 282//229 289//59
f 209//45 220//222 206//47
f 145//35 592//34 143//11
f 158//332 592//335 596//62
f 505//25 591//306 590//210
f 591//306 496//300 590//210
f 3//307 139//321 136//299
f 160//336 163//336 164//336
f 160//337 162//338 161//339
f 506//305 505//340 163//308
f 696//38 697//314 494//214
f 205//73 211//50 208//50
f 2//341 136//299 139//321
f 281//73 284//73 283//252
f 282//73 205//342 288//227
f 280//343 300//344 293//74
f 64//73 92//73 84//73
f 11//73 92//73 62//73
f 5//73 15//85 18//85
f 94//76 96//76 95//76
f 91//78 93//345 92//77
f 34//76 23//76 94//76
f 34//80 33//80 12//80
f 83//346 86//347 85//348
f 91//78 95//80 93//345
f 10//349 6//350 8//351
f 10//349 50//352 86//347
f 50//352 85//348 86//347
f 84//353 83//346 49//354
f 5//355 84//353 49//354
f 8//351 9//352 10//349
f 5//356 10//356 23//356
f 5//355 7//355 6//355
f 20//125 32//125 31//125
f 19//95 31//95 30//95
f 17//113 30//113 28//113
f 16//109 28//109 27//109
f 39//357 38//357 46//357
f 39//358 47//358 40//358
f 41//359 47//359 48//359
f 21//360 48//360 32//360
f 62//125 79//125 78//125
f 61//95 78//95 77//95
f 60//113 77//113 76//113
f 67//109 51//109 76//109
f 54//130 52//93 70//86
f 59//357 80//357 64//357
f 64//358 82//358 66//358
f 81//359 65//359 82//359
f 63//360 81//360 79//360
f 180//73 201//94 198//73
f 97//94 201//94 175//73
f 88//73 102//73 101//85
f 112//76 108//76 203//76
f 203//76 108//76 204//76
f 88//356 108//356 97//356
f 197//361 200//347 199//362
f 201//94 97//94 202//77
f 106//80 203//80 202//80
f 112//80 106//80 98//80
f 87//350 89//363 90//349
f 88//354 197//361 87//354
f 90//349 199//362 200//347
f 105//125 131//125 116//125
f 104//95 116//95 115//95
f 103//113 115//113 114//113
f 102//109 114//109 113//109
f 110//86 100//130 99//93
f 121//357 125//357 130//357
f 121//358 133//358 124//358
f 132//359 123//359 133//359
f 122//360 132//360 131//360
f 175//125 192//125 191//125
f 172//113 189//105 188//105
f 171//109 188//109 187//109
f 179//357 196//357 180//357
f 174//364 180//364 190//358
f 177//359 190//359 193//359
f 176//360 193//360 192//360
f 409//73 382//107 327//73
f 391//73 409//73 405//73
f 331//130 332//73 327//73
f 363//365 344//366 327//366
f 359//367 361//52 360//367
f 359//367 405//368 371//230
f 360//369 362//226 363//370
f 345//101 344//101 411//101
f 343//371 327//366 344//366
f 345//104 342//104 328//371
f 405//368 406//103 371//230
f 362//226 364//225 363//370
f 363//370 372//372 408//372
f 412//373 409//374 410//374
f 372//372 407//372 408//372
f 338//125 356//125 355//125
f 337//95 355//95 354//95
f 331//130 329//93 348//86
f 366//357 370//357 367//375
f 340//364 367//364 357//364
f 341//359 357//359 358//359
f 358//360 356//360 339//360
f 388//125 402//125 401//125
f 387//95 401//95 400//95
f 385//357 399//357 386//375
f 386//364 403//364 390//364
f 391//359 403//376 404//376
f 404//360 402//360 389//360
f 227//377 249//377 229//377
f 255//117 249//117 324//117
f 255//121 236//121 235//121
f 225//378 226//238 228//379
f 325//380 229//118 312//120
f 326//381 325//380 324//381
f 278//382 277//383 225//384
f 277//383 297//385 296//61
f 278//73 310//73 325//380
f 229//118 325//380 305//73
f 229//118 231//85 230//93
f 228//379 226//238 297//385
f 245//357 244//357 264//357
f 245//364 265//364 246//364
f 265//376 262//376 243//359
f 247//360 262//360 266//360
f 305//125 318//125 317//125
f 304//95 317//95 316//95
f 268//130 267//93 273//86
f 309//357 322//357 310//357
f 310//364 323//358 311//364
f 319//359 307//359 323//359
f 319//360 318//360 306//360
f 698//131 670//131 679//254
f 742//131 732//256 731//131
f 652//386 654//387 653//388
f 699//389 701//389 700//390
f 701//391 702//391 742//392
f 652//386 702//393 699//393
f 652//386 699//393 654//387
f 655//133 699//133 700//133
f 702//394 716//394 719//394
f 694//394 739//394 722//395
f 652//394 672//396 671//397
f 652//386 653//388 656//398
f 740//29 741//399 739//136
f 741//399 742//392 739//136
f 737//30 740//29 739//136
f 714//400 708//401 727//400
f 707//259 714//261 713//141
f 735//156 721//156 732//156
f 736//157 721//262 735//157
f 718//402 733//403 729//255
f 718//404 729//404 730//404
f 730//405 728//405 711//406
f 711//263 728//263 710//263
f 667//400 660//400 669//400
f 658//260 667//264 666//264
f 658//142 668//142 657//142
f 682//402 683//402 672//402
f 672//404 683//404 679//404
f 670//405 671//405 679//405
f 663//263 670//263 669//263
f 589//162 577//177 578//177
f 502//407 504//407 549//407
f 502//408 549//408 579//409
f 501//409 502//408 579//409
f 585//410 579//274 589//410
f 501//409 579//409 548//411
f 570//411 579//409 571//412
f 501//409 510//413 511//414
f 581//407 549//407 504//407
f 580//407 549//407 581//407
f 579//409 549//408 580//408
f 541//211 540//415 525//415
f 586//416 585//417 588//417
f 584//415 545//211 585//415
f 541//211 525//415 545//211
f 581//164 582//266 579//274
f 540//418 543//418 542//418
f 519//172 508//275 521//275
f 507//174 519//174 520//174
f 516//419 512//420 520//419
f 509//276 517//276 510//276
f 511//421 517//421 518//421
f 526//175 518//175 533//175
f 534//422 527//423 533//265
f 530//277 527//277 537//277
f 529//424 536//270 535//269
f 535//269 524//268 515//425
f 515//426 524//426 523//426
f 513//427 523//427 522//427
f 513//428 522//428 521//275
f 551//429 558//419 560//419
f 551//276 561//276 550//276
f 562//421 552//421 561//421
f 573//423 567//430 572//423
f 568//277 567//277 574//277
f 576//424 570//424 577//424
f 576//425 565//425 555//425
f 565//426 564//426 554//426
f 553//427 564//427 563//427
f 553//428 563//428 559//428
f 644//287 472//285 458//286
f 647//278 643//278 644//287
f 490//278 495//278 491//278
f 693//289 613//431 495//290
f 644//432 641//432 639//433
f 456//434 495//434 481//434
f 481//435 482//435 609//216
f 481//435 609//216 651//216
f 651//216 690//435 689//435
f 456//436 481//436 467//193
f 639//180 638//437 646//436
f 487//189 689//438 488//187
f 693//181 692//181 691//181
f 482//439 495//290 613//431
f 644//287 458//286 641//440
f 456//441 639//441 620//442
f 456//441 620//442 460//441
f 456//443 459//444 458//286
f 620//442 639//441 640//441
f 459//182 620//182 641//182
f 641//182 620//182 640//182
f 466//445 474//282 468//445
f 468//291 606//291 601//291
f 602//446 606//281 607//280
f 602//447 607//280 608//279
f 467//448 491//448 489//448
f 471//449 464//198 489//449
f 471//199 470//292 462//292
f 469//450 462//292 470//292
f 465//451 461//451 472//451
f 466//452 465//452 473//283
f 618//445 624//445 619//445
f 619//291 642//291 636//291
f 636//446 642//446 643//446
f 638//453 643//454 647//454
f 648//288 646//184 649//288
f 635//293 629//188 650//455
f 627//192 634//192 633//192
f 633//448 632//448 626//448
f 630//450 621//450 615//456
f 617//451 615//451 622//457
f 622//452 623//452 618//452
f 417//458 475//458 483//458
f 424//459 414//459 427//459
f 433//460 476//459 448//459
f 416//459 479//459 415//459
f 428//459 429//459 475//459
f 417//73 420//73 414//73
f 416//73 415//73 421//73
f 444//461 432//461 445//461
f 445//462 433//462 454//462
f 454//463 448//463 455//463
f 449//464 453//464 455//464
f 443//295 451//295 446//294
f 428//465 439//465 442//465
f 426//466 438//466 439//466
f 436//467 423//467 437//467
f 437//468 424//468 427//468
f 441//469 440//469 430//469
f 444//296 441//296 431//297
f 1//316 205//316 136//316
f 415//318 479//318 298//313
f 418//317 298//313 280//343
f 418//317 493//315 485//318
f 418//317 485//318 421//318
f 418//317 415//318 298//313
f 298//313 479//318 493//315
f 205//342 279//470 298//313
f 590//210 543//26 505//25
f 494//214 693//39 696//38
f 211//471 83//42 214//43
f 138//19 147//21 159//33
f 221//46 212//244 216//243
f 213//472 221//46 216//243
f 283//252 406//54 419//55
f 289//59 282//229 290//228
f 294//242 282//229 292//57
f 484//237 478//233 494//236
f 419//55 420//56 494//236
f 207//50 224//473 597//474
f 222//50 207//49 224//51
f 217//48 206//47 219//475
f 277//383 295//232 292//231
f 206//47 210//476 219//475
f 299//63 295//232 296//61
f 226//238 596//62 296//61
f 496//300 497//477 590//210
f 3//307 4//322 139//321
f 160//478 161//478 163//478
f 161//339 162//338 498//479
f 593//330 594//480 703//331
f 697//314 696//38 703//213
f 493//315 494//214 697//314
f 1//73 2//41 205//73
f 205//342 206//47 221//46
f 1//356 136//299 2//341
f 418//317 293//74 281//73
f 418//317 419//55 494//236
f 288//227 205//342 221//46
f 58//73 59//73 84//73
f 64//73 66//73 92//73
f 59//73 64//73 84//73
f 57//73 58//73 84//73
f 14//88 5//73 13//88
f 5//73 14//88 35//73
f 56//73 57//73 84//73
f 53//73 56//73 84//73
f 5//73 35//73 84//73
f 35//73 36//73 84//73
f 53//73 84//73 54//130
f 36//73 54//130 84//73
f 36//73 37//73 54//130
f 37//73 52//93 54//130
f 52//93 37//73 38//73
f 52//93 38//73 55//85
f 39//73 55//85 38//73
f 55//85 39//73 51//73
f 39//73 40//73 51//73
f 40//73 60//73 51//73
f 40//73 41//73 60//73
f 41//73 61//73 60//73
f 21//73 61//73 41//73
f 21//73 62//73 61//73
f 20//73 62//73 21//73
f 11//73 17//73 16//73
f 92//73 66//73 65//73
f 63//73 92//73 65//73
f 11//73 19//73 17//73
f 11//73 20//73 19//73
f 62//73 92//73 63//73
f 11//73 62//73 20//73
f 5//73 11//73 16//73
f 5//73 16//73 15//85
f 5//73 18//85 13//88
f 22//80 34//80 12//80
f 84//353 86//347 83//346
f 5//350 6//350 10//349
f 9//352 50//352 10//349
f 5//355 49//354 7//355
f 5//356 23//356 11//356
f 20//125 21//125 32//125
f 19//95 20//95 31//95
f 17//113 19//113 30//113
f 16//109 17//109 28//109
f 15//85 26//84 18//85
f 14//88 13//88 24//87
f 38//357 45//357 46//357
f 39//358 46//358 47//358
f 40//359 47//359 41//359
f 21//360 41//360 48//360
f 62//125 63//125 79//125
f 61//95 62//95 78//95
f 60//113 61//113 77//113
f 60//109 76//109 51//109
f 55//83 51//83 67//83
f 52//93 55//85 71//84
f 80//357 59//357 75//357
f 64//358 80//358 82//358
f 66//359 82//359 65//359
f 63//360 65//360 81//360
f 178//98 179//98 198//73
f 174//73 201//94 180//73
f 179//98 180//73 198//73
f 169//73 178//98 198//73
f 117//73 88//73 100//130
f 88//73 117//73 118//73
f 168//73 169//73 198//73
f 167//73 168//73 198//73
f 88//73 118//73 198//73
f 118//73 119//73 198//73
f 165//73 167//73 198//73
f 119//73 165//73 198//73
f 119//73 120//73 165//73
f 120//73 166//85 165//73
f 166//85 120//73 125//73
f 166//85 125//73 170//85
f 121//73 170//85 125//73
f 121//73 171//73 170//85
f 121//73 124//73 171//73
f 124//73 172//73 171//73
f 124//73 123//73 172//73
f 173//73 172//73 123//73
f 122//73 173//73 123//73
f 122//73 175//73 173//73
f 105//73 175//73 122//73
f 97//94 103//73 102//73
f 174//73 177//73 201//94
f 176//73 201//94 177//73
f 97//94 104//73 103//73
f 97//94 105//73 104//73
f 175//73 201//94 176//73
f 97//94 175//73 105//73
f 88//73 99//93 100//130
f 88//73 97//94 102//73
f 88//73 101//85 99//93
f 88//356 90//356 108//356
f 198//353 200//347 197//361
f 107//80 112//80 98//80
f 88//350 87//350 90//349
f 88//354 198//353 197//361
f 89//363 199//362 90//349
f 105//125 122//125 131//125
f 104//95 105//95 116//95
f 103//113 104//113 115//113
f 102//109 103//109 114//109
f 101//85 111//84 99//93
f 130//357 125//357 134//357
f 121//358 130//358 133//358
f 124//359 133//359 123//359
f 122//360 123//360 132//360
f 175//125 176//125 192//125
f 173//95 175//95 189//95
f 172//113 173//112 189//105
f 171//109 172//109 188//109
f 166//85 170//85 186//96
f 178//98 194//92 179//98
f 196//357 179//357 195//357
f 180//364 196//358 190//358
f 174//359 190//359 177//359
f 176//360 177//360 193//360
f 385//73 386//73 405//73
f 333//73 334//73 359//73
f 334//73 365//111 359//73
f 384//73 385//73 405//73
f 383//73 384//73 405//73
f 359//73 365//111 405//73
f 365//111 366//111 405//73
f 375//73 383//73 405//73
f 366//111 375//73 405//73
f 366//111 367//73 375//73
f 375//73 367//73 374//73
f 340//73 374//73 367//73
f 340//73 373//73 374//73
f 340//73 341//73 373//73
f 341//73 379//85 373//73
f 341//73 339//73 379//85
f 379//85 339//73 380//85
f 338//73 380//85 339//73
f 338//73 381//481 380//85
f 337//106 381//481 338//73
f 337//106 382//107 381//481
f 336//107 382//107 337//106
f 329//93 327//73 330//85
f 388//73 409//73 389//73
f 387//106 409//73 388//73
f 327//73 335//481 330//85
f 335//481 327//73 336//107
f 382//107 409//73 387//106
f 382//107 336//107 327//73
f 386//73 390//73 405//73
f 391//73 389//73 409//73
f 390//73 391//73 405//73
f 333//73 359//73 327//73
f 329//93 331//130 327//73
f 333//73 327//73 332//73
f 359//365 363//365 327//366
f 405//368 408//102 406//103
f 359//367 371//230 361//52
f 359//369 360//369 363//370
f 327//366 343//371 328//371
f 343//371 345//104 328//371
f 364//225 372//372 363//370
f 412//373 410//374 411//373
f 338//125 339//125 356//125
f 337//95 338//95 355//95
f 336//107 337//106 353//105
f 335//481 336//107 352//109
f 329//93 330//85 347//96
f 365//111 368//92 366//111
f 366//357 369//357 370//357
f 367//364 370//364 357//364
f 340//359 357//359 341//359
f 341//360 358//360 339//360
f 388//125 389//125 402//125
f 387//95 388//95 401//95
f 382//107 387//106 395//113
f 381//481 382//107 394//109
f 379//85 380//85 393//84
f 399//357 385//357 398//357
f 386//364 399//364 403//364
f 390//359 403//376 391//359
f 391//360 404//360 389//360
f 227//377 228//377 249//377
f 248//121 255//121 235//121
f 227//378 225//378 228//379
f 324//381 325//380 312//120
f 227//384 278//382 225//384
f 278//382 297//385 277//383
f 278//73 308//98 309//98
f 310//73 311//73 325//380
f 278//73 309//98 310//73
f 271//73 308//98 278//73
f 227//73 238//130 237//73
f 227//73 237//73 239//73
f 227//73 271//73 278//73
f 271//73 227//73 270//73
f 240//73 227//73 239//73
f 227//73 240//73 241//98
f 270//73 227//73 269//73
f 227//73 268//130 269//73
f 268//130 227//73 241//98
f 267//93 268//130 241//98
f 267//93 241//98 244//98
f 267//93 244//98 301//85
f 245//73 301//85 244//98
f 245//73 302//481 301//85
f 245//73 246//73 302//481
f 246//73 303//107 302//481
f 246//73 243//73 303//107
f 304//106 303//107 243//73
f 247//126 304//106 243//73
f 247//126 305//73 304//106
f 242//128 305//73 247//126
f 229//118 233//107 232//481
f 325//380 311//73 307//73
f 325//380 307//73 306//73
f 229//118 234//129 233//107
f 229//118 242//128 234//129
f 305//73 325//380 306//73
f 229//118 305//73 242//128
f 227//73 229//118 238//130
f 229//118 232//481 231//85
f 229//118 230//93 238//130
f 297//385 226//238 296//61
f 242//128 247//126 261//125
f 234//129 242//128 254//127
f 233//107 234//129 253//105
f 232//481 233//107 252//109
f 230//93 231//85 251//96
f 230//93 250//86 238//130
f 241//98 260//92 244//98
f 244//357 263//357 264//357
f 245//364 264//364 265//364
f 246//359 265//376 243//359
f 247//360 243//360 262//360
f 305//125 306//125 318//125
f 304//95 305//95 317//95
f 303//107 304//106 315//105
f 302//481 303//107 314//109
f 267//93 301//85 313//96
f 308//98 320//92 309//98
f 322//357 309//357 321//357
f 310//364 322//358 323//358
f 311//359 323//359 307//359
f 306//360 307//360 319//360
f 698//131 683//131 682//254
f 698//131 682//254 686//131
f 735//253 742//131 736//131
f 742//131 734//482 736//131
f 742//131 733//403 734//482
f 742//131 729//255 733//403
f 684//131 742//131 685//254
f 729//255 684//131 681//253
f 730//254 681//253 680//131
f 728//131 680//131 678//256
f 727//131 678//256 665//257
f 714//254 665//257 668//131
f 726//131 725//253 701//131
f 725//253 724//131 701//131
f 723//131 701//131 724//131
f 656//131 669//254 698//131
f 679//254 683//131 698//131
f 732//256 742//131 735//253
f 726//131 742//131 731//131
f 702//389 701//389 699//389
f 739//136 742//392 702//391
f 721//394 739//394 702//394
f 702//394 715//394 716//394
f 719//394 721//394 702//394
f 652//394 660//483 659//394
f 652//394 659//394 658//396
f 706//146 715//394 702//394
f 705//143 706//146 702//394
f 652//394 658//396 657//484
f 652//394 657//484 662//146
f 709//140 705//143 702//394
f 652//394 709//140 702//394
f 652//394 662//146 709//140
f 709//140 662//146 707//259
f 661//153 707//259 662//146
f 707//259 661//153 708//401
f 664//394 708//401 661//153
f 708//401 664//394 710//401
f 664//394 673//485 710//401
f 710//401 673//485 711//394
f 673//485 674//155 711//394
f 711//394 674//155 712//396
f 712//396 674//155 675//486
f 675//486 718//397 712//396
f 718//397 675//486 677//158
f 717//151 718//397 677//158
f 677//158 676//158 717//151
f 676//158 722//395 717//151
f 688//394 672//396 694//394
f 688//394 694//394 676//158
f 721//394 720//397 739//394
f 676//158 694//394 722//395
f 739//394 720//397 722//395
f 652//394 663//394 660//483
f 652//394 694//394 672//396
f 652//394 671//397 663//394
f 698//134 742//134 738//134
f 653//388 655//398 656//398
f 695//138 737//30 694//135
f 698//137 695//138 694//135
f 742//392 741//399 743//487
f 701//139 655//139 700//139
f 710//401 727//400 708//401
f 707//259 713//141 709//140
f 709//140 723//144 705//143
f 705//143 724//145 706//146
f 715//147 706//147 726//147
f 726//148 716//148 715//148
f 719//149 716//149 732//149
f 732//156 721//156 719//156
f 717//151 722//395 734//152
f 717//402 733//403 718//402
f 718//404 730//404 712//404
f 712//406 730//405 711//406
f 660//400 667//400 659//400
f 662//144 657//488 668//144
f 662//146 665//145 661//153
f 664//147 661//147 680//147
f 680//154 673//148 664//148
f 681//149 674//155 673//485
f 674//155 685//156 675//486
f 676//158 677//158 687//150
f 672//402 688//402 682//402
f 672//404 679//404 671//404
f 671//405 670//405 663//405
f 663//263 669//263 660//263
f 565//162 582//266 564//162
f 582//266 563//162 564//162
f 582//266 559//162 563//162
f 503//160 521//162 582//266
f 558//162 524//268 535//269
f 560//162 535//269 536//270
f 561//162 536//270 538//162
f 562//162 538//162 539//271
f 572//162 539//271 537//162
f 533//265 542//162 534//422
f 537//162 534//422 542//162
f 574//162 589//162 575//162
f 537//162 542//162 574//162
f 575//162 589//162 578//177
f 581//164 503//160 582//266
f 579//274 582//266 589//410
f 568//411 569//411 585//411
f 527//411 525//411 526//411
f 525//411 527//411 530//411
f 525//411 568//411 585//411
f 567//430 568//411 525//411
f 525//411 530//411 532//411
f 525//411 532//411 567//430
f 532//411 566//489 567//430
f 532//411 531//490 566//489
f 531//490 552//411 566//489
f 531//490 529//171 552//411
f 529//171 550//411 552//411
f 529//171 528//411 550//411
f 528//411 551//429 550//411
f 528//411 515//413 551//429
f 515//413 546//173 551//429
f 515//413 514//411 546//173
f 514//411 547//491 546//173
f 514//411 513//492 547//491
f 513//492 548//411 547//491
f 513//492 508//411 548//411
f 501//409 507//413 512//411
f 554//411 579//409 555//411
f 553//413 579//409 554//411
f 501//409 508//411 507//413
f 553//413 548//411 579//409
f 501//409 548//411 508//411
f 555//411 579//409 556//411
f 585//411 569//411 579//409
f 569//411 571//412 579//409
f 556//411 579//409 570//411
f 501//409 526//411 525//411
f 501//409 512//411 509//411
f 501//409 509//411 510//413
f 501//409 511//414 526//411
f 501//166 525//166 542//166
f 587//417 585//417 586//416
f 588//417 585//417 589//417
f 585//415 545//211 525//415
f 587//415 584//415 585//415
f 542//167 583//167 589//167
f 540//418 542//418 525//418
f 512//174 507//174 520//174
f 509//420 512//420 516//419
f 511//421 510//421 517//421
f 526//175 511//175 518//175
f 527//423 526//423 533//265
f 537//168 532//168 530//168
f 529//171 531//490 538//170
f 535//269 528//424 529//424
f 535//269 515//425 528//425
f 523//426 514//426 515//426
f 514//427 523//427 513//427
f 513//428 521//275 508//275
f 548//172 559//172 547//172
f 547//491 557//174 546//173
f 546//173 558//419 551//429
f 552//421 550//421 561//421
f 567//430 566//489 572//423
f 574//168 569//168 568//168
f 578//177 577//177 571//176
f 576//424 556//424 570//424
f 555//425 556//425 576//425
f 555//426 565//426 554//426
f 554//427 564//427 553//427
f 559//428 548//428 553//428
f 692//278 648//288 649//288
f 610//493 692//278 492//278
f 648//288 692//278 650//455
f 692//278 635//293 650//455
f 692//278 610//493 611//278
f 692//278 611//278 612//278
f 692//278 634//278 635//293
f 633//278 608//279 607//280
f 632//278 607//280 606//281
f 631//278 606//281 474//282
f 630//278 474//282 473//283
f 621//284 473//283 472//285
f 624//278 623//494 644//287
f 623//494 622//278 644//287
f 642//494 624//278 644//287
f 643//278 642//494 644//287
f 495//278 471//278 489//278
f 495//278 490//278 492//278
f 491//278 495//278 489//278
f 641//432 640//433 639//433
f 456//434 458//434 495//434
f 692//179 639//180 689//438
f 689//435 481//435 651//216
f 456//436 464//436 463//436
f 486//191 481//436 487//189
f 456//436 467//193 464//436
f 467//193 481//436 486//191
f 639//180 619//436 636//495
f 639//180 636//495 637//495
f 639//180 646//436 689//438
f 638//437 639//180 637//495
f 639//180 618//495 619//436
f 456//436 463//436 462//436
f 456//436 462//436 461//436
f 639//180 617//496 618//495
f 639//180 615//436 617//496
f 456//436 461//436 465//495
f 456//436 465//495 466//436
f 456//436 615//436 639//180
f 456//436 616//436 615//436
f 456//436 466//436 616//436
f 616//436 466//436 614//436
f 466//436 468//436 614//436
f 614//436 468//436 625//436
f 468//436 601//436 625//436
f 625//436 601//436 626//495
f 601//436 602//436 626//495
f 626//495 602//436 627//196
f 602//436 604//436 627//196
f 627//196 604//436 628//196
f 604//436 605//497 628//196
f 605//497 629//195 628//196
f 603//185 629//195 605//497
f 689//438 646//436 645//195
f 488//187 629//195 603//185
f 629//195 689//438 645//195
f 689//438 487//189 481//436
f 629//195 488//187 689//438
f 481//439 495//290 482//439
f 459//444 641//440 458//286
f 456//441 460//441 457//441
f 456//443 457//443 459//444
f 474//282 466//445 473//283
f 601//446 606//281 602//446
f 608//279 604//447 602//447
f 603//185 605//497 612//184
f 488//187 603//185 611//186
f 487//189 488//187 610//188
f 487//189 492//190 486//191
f 467//193 486//191 490//192
f 489//448 464//448 467//448
f 471//449 463//198 464//198
f 461//450 462//292 469//450
f 472//451 461//451 469//451
f 473//283 465//452 472//285
f 624//445 618//445 623//445
f 637//446 636//446 643//446
f 638//453 637//453 643//454
f 629//195 645//195 648//186
f 627//196 628//196 635//190
f 633//192 626//192 627//192
f 632//448 625//448 626//448
f 614//198 625//198 632//197
f 616//200 614//200 630//199
f 615//456 616//456 630//450
f 622//457 615//451 621//457
f 618//452 617//452 622//452
f 413//458 475//458 417//458
f 413//459 414//459 423//459
f 414//459 431//498 430//498
f 427//459 414//459 430//498
f 423//459 414//459 424//459
f 475//459 449//459 476//459
f 450//459 476//459 449//459
f 477//459 476//459 432//499
f 433//460 432//499 476//459
f 448//459 476//459 450//459
f 416//459 480//459 479//459
f 413//459 423//459 422//208
f 413//459 422//208 425//208
f 475//459 447//205 449//459
f 475//459 446//205 447//205
f 413//459 425//208 426//459
f 413//459 426//459 428//459
f 475//459 429//459 446//205
f 413//459 428//459 475//459
f 452//202 483//202 453//202
f 451//295 483//202 452//202
f 443//295 483//202 451//295
f 442//202 483//202 443//295
f 453//202 484//202 455//202
f 454//202 455//202 484//202
f 484//202 445//500 454//202
f 484//202 444//202 445//500
f 413//73 417//73 414//73
f 444//461 434//461 432//461
f 433//501 445//461 432//461
f 448//462 454//462 433//462
f 450//463 455//463 448//463
f 455//464 450//464 449//464
f 446//205 452//204 447//205
f 428//465 426//465 439//465
f 425//466 438//466 426//466
f 422//208 435//207 425//208
f 423//209 436//209 422//209
f 424//467 437//467 423//467
f 440//468 437//468 427//468
f 427//469 430//469 440//469
f 430//502 431//297 441//296
f 143//11 592//34 157//12
f 137//2 155//7 150//3
f 737//30 695//138 596//28
f 596//28 741//28 740//29
f 593//32 146//64 159//33
f 159//33 147//21 497//17
f 592//36 146//36 593//36
f 214//43 83//42 87//44
f 207//50 597//474 224//503
f 371//230 286//53 361//52
f 286//53 285//504 360//54
f 292//231 211//505 277//240
f 211//505 214//333 215//334
f 215//334 213//472 211//505
f 213//472 277//240 211//505
f 277//58 291//60 289//59
f 289//59 290//228 293//241
f 290//228 283//252 293//241
f 293//241 292//57 289//59
f 142//20 138//506 159//33
f 142//20 159//33 146//64
f 544//212 543//26 590//210
f 499//26 540//26 541//211
f 651//216 609//216 476//40
f 158//332 596//62 85//219
f 85//219 139//507 147//21
f 148//13 158//332 85//219
f 219//475 210//476 217//48
f 210//476 197//44 217//48
f 209//45 87//44 197//44
f 197//44 210//476 220//222
f 364//225 362//226 299//63
f 288//227 287//508 290//228
f 290//228 286//53 371//230
f 360//54 285//504 292//231
f 295//232 299//63 360//54
f 225//240 212//244 223//239
f 212//244 217//48 223//239
f 277//240 213//472 225//240
f 213//472 216//243 225//240
f 211//509 206//47 205//342
f 135//2 154//7 149//3
f 136//316 205//316 142//20
f 205//316 148//13 142//20
f 148//13 147//21 142//20
f 142//20 592//34 156//31
f 156//31 600//316 136//316
f 156//31 148//13 205//316
f 595//319 205//342 298//313
f 157//12 144//64 158//332
f 223//239 217//48 199//44
f 211//505 292//231 285//504
f 285//504 286//53 290//228
f 290//228 287//508 218//218
f 211//505 285//504 290//228
f 211//505 290//228 218//218
f 211//505 218//218 214//217
f 211//509 214//43 206//47
f 214//43 209//45 206//47
f 158//332 144//64 592//335
f 205//73 2//41 211//471
f 283//252 419//55 418//317
f 418//317 281//73 283//252
f 282//73 279//470 205//342
f 280//343 298//313 300//344
f 211//471 2//41 83//42
f 221//46 217//48 212//244
f 213//472 215//334 221//46
f 283//252 290//228 406//54
f 300//245 282//229 294//242
f 282//229 291//60 292//57
f 277//383 296//61 295//232
f 206//47 220//222 210//476
f 418//317 280//343 293//74
f 221//46 218//218 287//508
f 287//508 288//227 221//46
