# Blender 5.2.0 LTS
# www.blender.org
o RETAINED__V11__OUTER_EYE__UNCHANGED
v 97.251053 83.034782 146.189301
v 96.987930 83.683617 146.002304
v 97.120537 83.346382 146.049866
v 97.370575 82.770050 146.411118
v 97.470963 82.570221 146.700180
v 97.487236 82.543686 146.773819
v 97.545372 82.448914 147.036804
v 97.554855 82.441360 147.115829
v 98.837845 78.066254 142.499969
v 97.191643 83.761322 148.793808
v 97.289818 83.495789 148.756653
v 97.588737 82.414398 147.398056
v 97.590782 82.426346 147.477081
v 97.598099 82.469025 147.759308
v 97.592567 82.499657 147.832947
v 97.572823 82.609070 148.095932
v 97.514618 82.824997 148.384995
v 97.427475 83.102081 148.606812
v 97.403374 83.171944 148.637314
v 97.317314 83.421440 148.746246
v 98.833679 80.645569 154.219482
v 95.927887 85.343842 140.897217
v 96.684013 84.559326 146.362595
v 96.752098 84.342857 146.189301
v 96.664948 84.619942 146.411118
v 96.606750 84.835861 146.700180
v 96.581474 84.975906 147.036804
v 96.588783 85.018585 147.319031
v 96.862259 84.023491 146.049866
v 96.590836 85.030533 147.398056
v 96.692329 84.901245 148.022293
v 96.708611 84.874710 148.095932
v 96.634201 84.996017 147.759308
v 96.787041 84.718597 148.321762
v 96.808998 84.674881 148.384995
v 97.059036 84.098549 148.746246
v 97.030487 84.166710 148.715744
v 96.902374 84.468063 148.558289
v 96.928520 84.410149 148.606812
v 95.923721 87.923157 152.616730
v 103.309036 79.771759 142.126190
v 101.459122 85.389114 145.628540
v 101.333450 85.728996 145.676102
v 101.223289 86.048355 145.815536
v 101.187889 86.160919 145.905655
v 101.136147 86.325439 146.037354
v 101.112503 86.413155 146.154785
v 101.077942 86.541367 146.326416
v 101.067673 86.598259 146.463181
v 101.052666 86.681412 146.663040
v 101.062027 86.736038 147.024292
v 100.399078 87.049347 140.523438
v 101.841766 84.475555 146.037354
v 101.591728 85.051888 145.676102
v 101.722244 84.740288 145.815536
v 101.942154 84.275726 146.326416
v 102.016563 84.154419 146.663040
v 102.042313 84.133926 146.877533
v 102.059929 84.119904 147.024292
v 101.105392 86.701523 147.385544
v 101.179802 86.580215 147.722168
v 101.280190 86.380386 148.011230
v 101.399712 86.115654 148.233047
v 100.394913 89.628662 152.242950
v 101.898666 84.807579 148.233047
v 101.788506 85.126945 148.372482
v 102.069290 84.174530 147.385544
v 102.044014 84.314575 147.722168
v 101.985817 84.530495 148.011230
v 101.662834 85.466820 148.420044
v 101.530228 85.804054 148.372482
v 101.713890 85.328743 148.400726
v 103.305443 81.996941 152.236633
v 103.265686 82.415825 153.672363
v 103.261543 82.459435 153.821838
v 103.169792 82.299545 153.856995
vn 0.9315 0.3552 -0.0779
vn 0.9315 0.3553 -0.0779
vn -0.9315 -0.3553 0.0779
vn 0.3637 -0.9097 0.2003
vn 0.0003 -0.2149 -0.9766
vn -0.3637 0.9097 -0.2003
vn -0.0004 0.2149 0.9766
vn -0.1187 0.0944 -0.9884
vn -0.2036 0.3319 -0.9211
vn -0.2037 0.3319 -0.9211
vn -0.3270 0.7244 -0.6069
vn -0.3571 0.8526 -0.3815
vn -0.3628 0.9227 -0.1301
vn -0.3438 0.9300 0.1301
vn -0.3439 0.9300 0.1301
vn -0.2344 0.7597 0.6066
vn -0.2510 0.7829 0.5693
vn -0.9318 -0.3546 0.0777
vn -0.0691 0.3832 0.9211
vn 0.0256 0.1495 0.9884
vn 0.1187 -0.0944 0.9884
vn 0.2036 -0.3319 0.9211
vn 0.2747 -0.5468 0.7909
vn 0.9314 0.3556 -0.0779
vn 0.3086 -0.7312 0.6083
vn 0.9316 0.3551 -0.0779
vn 0.3571 -0.8526 0.3815
vn 0.3438 -0.9300 -0.1301
vn 0.3014 -0.8738 -0.3815
vn 0.2385 -0.7581 -0.6069
vn 0.1592 -0.5908 -0.7909
vn 0.0692 -0.3832 -0.9211
vn -0.0256 -0.1495 -0.9884
vn 0.8709 -0.4648 0.1597
vn 0.9315 0.3554 -0.0779
vn 0.9315 0.3553 -0.0778
vn -0.9316 -0.3551 0.0779
vn -0.9315 -0.3554 0.0779
vn -0.9316 -0.3551 0.0778
vn -0.9315 -0.3553 0.0778
vn -0.9316 -0.3551 0.0780
vn -0.9315 -0.3552 0.0778
vn -0.9314 -0.3555 0.0778
vn -0.9315 -0.3552 0.0779
vn -0.0003 0.2149 0.9766
vn -0.1186 0.0945 -0.9884
vn -0.1188 0.0945 -0.9884
vn -0.2747 0.5468 -0.7910
vn -0.3270 0.7243 -0.6069
vn -0.2747 0.5468 -0.7909
vn -0.3572 0.8525 -0.3817
vn -0.3439 0.9299 0.1301
vn -0.3014 0.8738 0.3815
vn -0.3014 0.8738 0.3816
vn -0.1593 0.5908 0.7909
vn -0.0692 0.3832 0.9211
vn 0.1186 -0.0944 0.9884
vn 0.3754 -0.8454 0.3800
vn 0.3131 -0.7133 0.6270
vn 0.9316 0.3551 -0.0777
vn 0.3629 -0.9227 0.1301
vn 0.3628 -0.9227 0.1302
vn 0.3015 -0.8738 -0.3815
vn 0.2384 -0.7582 -0.6069
vn 0.1593 -0.5908 -0.7909
vn 0.0691 -0.3832 -0.9211
vn 0.8710 -0.4645 0.1597
vt 0.000000 0.000000
vt 1.000000 0.890625
vt 1.000000 0.703125
vt 0.983073 0.703125
vt 0.958333 0.890625
vt 0.958333 0.703125
vt 0.925781 0.890625
vt 0.916667 0.703125
vt 0.916667 0.890625
vt 0.925470 0.890625
vt 0.874999 0.703125
vt 0.833332 0.703125
vt 0.833333 0.890625
vt 0.800780 0.890626
vt 0.833333 0.703125
vt 0.791665 0.703125
vt 0.759113 0.890625
vt 0.750001 0.703125
vt 0.717448 0.890625
vt 0.733074 0.703125
vt 0.708333 0.703125
vt 0.708331 0.703125
vt 0.708333 0.890626
vt 0.717136 0.890626
vt 0.675471 0.890625
vt 0.666667 0.703125
vt 0.625000 0.703125
vt 0.625000 0.890625
vt 0.673140 0.890625
vt 0.665246 0.890625
vt 0.583333 0.890625
vt 0.583333 0.703125
vt 0.541666 0.703125
vt 0.500000 0.890625
vt 0.500000 0.703125
vt 0.458333 0.703125
vt 0.416666 0.890625
vt 0.416666 0.703125
vt 0.384114 0.890626
vt 0.416668 0.703125
vt 0.399740 0.703126
vt 0.358651 0.703125
vt 0.334754 0.703126
vt 0.333333 0.890625
vt 0.373581 0.890625
vt 0.291667 0.703125
vt 0.395007 0.703125
vt 0.333333 0.703125
vt 0.316405 0.703125
vt 0.291667 0.890625
vt 0.331915 0.890625
vt 0.291668 0.703125
vt 0.250000 0.890625
vt 0.250000 0.703125
vt 0.208333 0.703125
vt 0.175782 0.890625
vt 0.166666 0.703125
vt 0.134114 0.890625
vt 0.125000 0.703125
vt 0.092448 0.890625
vt 0.083333 0.703125
vt 0.041666 0.703125
vt 0.050780 0.890625
vt -0.000000 0.703125
vt 0.041666 0.890625
vt 0.967448 0.890625
vt 0.967139 0.890626
vt 0.875000 0.703125
vt 0.801890 0.890625
vt 0.875000 0.890625
vt 0.915248 0.890625
vt 0.760223 0.890626
vt 0.791667 0.890625
vt 0.733651 0.703125
vt 0.750000 0.890625
vt 0.706914 0.890626
vt 0.541666 0.890625
vt 0.623580 0.890626
vt 0.458333 0.890625
vt 0.385222 0.890626
vt 0.298669 0.703126
vt 0.375000 0.890626
vt 0.320094 0.703125
vt 0.375000 0.703125
vt 0.249998 0.703125
vt 0.259117 0.890625
vt 0.176892 0.890625
vt 0.208333 0.890625
vt 0.258804 0.890625
vt 0.135223 0.890625
vt 0.166666 0.890625
vt 0.093557 0.890625
vt 0.125000 0.890625
vt 0.051892 0.890625
vt 0.083333 0.890625
vt -0.000000 0.890625
s 0
f 44/1/1 43/1/1 52/1/1
f 65/1/2 66/1/2 74/1/2
f 9/1/3 1/1/3 3/1/3
f 36/1/3 10/1/3 40/1/3
f 9/1/4 41/1/4 73/1/4
f 22/1/5 41/1/5 9/1/5
f 64/1/6 22/1/6 40/1/6
f 21/1/7 76/1/7 75/1/7
f 10/2/8 70/3/8 72/4/8
f 20/5/9 66/6/9 19/7/9
f 65/8/10 18/9/10 19/10/10
f 69/11/11 68/12/11 16/13/11
f 15/14/12 68/15/12 67/16/12
f 13/17/13 67/16/13 59/18/13
f 8/19/14 58/20/14 57/21/14
f 57/22/15 7/23/15 8/24/15
f 6/25/16 56/26/16 53/27/16
f 53/27/17 4/28/17 6/29/17
f 6/29/18 4/28/18 5/30/18
f 1/31/19 55/32/19 54/33/19
f 2/34/20 54/33/20 42/35/20
f 43/36/21 2/34/21 42/35/21
f 24/37/22 43/36/22 44/38/22
f 23/39/23 44/40/23 45/41/23
f 45/41/24 47/42/24 48/43/24
f 26/44/25 25/45/25 50/46/25
f 45/47/26 48/48/26 49/49/26
f 27/50/27 26/51/27 50/52/27
f 30/53/28 51/54/28 60/55/28
f 31/56/29 60/55/29 61/57/29
f 34/58/30 61/57/30 62/59/30
f 38/60/31 62/59/31 63/61/31
f 71/62/32 37/63/32 63/61/32
f 70/64/33 36/65/33 71/62/33
f 74/1/34 76/1/34 73/1/34
f 50/1/2 49/1/2 52/1/2
f 49/1/35 48/1/35 52/1/35
f 48/1/2 47/1/2 52/1/2
f 47/1/2 46/1/2 52/1/2
f 46/1/35 45/1/35 52/1/35
f 45/1/2 44/1/2 52/1/2
f 64/1/35 72/1/35 70/1/35
f 74/1/2 73/1/2 69/1/2
f 73/1/2 41/1/2 59/1/2
f 67/1/35 73/1/35 59/1/35
f 68/1/2 69/1/2 73/1/2
f 67/1/2 68/1/2 73/1/2
f 64/1/2 70/1/2 71/1/2
f 64/1/35 71/1/35 63/1/35
f 57/1/2 58/1/2 41/1/2
f 58/1/2 59/1/2 41/1/2
f 64/1/1 63/1/1 62/1/1
f 64/1/35 62/1/35 61/1/35
f 56/1/2 57/1/2 41/1/2
f 64/1/2 61/1/2 60/1/2
f 64/1/2 60/1/2 51/1/2
f 56/1/2 41/1/2 53/1/2
f 41/1/2 52/1/2 54/1/2
f 53/1/2 41/1/2 55/1/2
f 55/1/2 41/1/2 54/1/2
f 52/1/2 64/1/2 50/1/2
f 64/1/35 51/1/35 50/1/35
f 42/1/2 54/1/2 52/1/2
f 43/1/2 42/1/2 52/1/2
f 66/1/2 72/1/2 74/1/2
f 72/1/2 64/1/2 74/1/2
f 64/1/36 75/1/36 74/1/36
f 74/1/2 69/1/2 65/1/2
f 33/1/3 31/1/3 40/1/3
f 31/1/37 32/1/37 40/1/37
f 32/1/38 34/1/38 40/1/38
f 34/1/3 35/1/3 40/1/3
f 38/1/39 39/1/39 40/1/39
f 35/1/3 38/1/3 40/1/3
f 21/1/40 11/1/40 20/1/40
f 21/1/3 20/1/3 19/1/3
f 21/1/40 19/1/40 18/1/40
f 21/1/3 18/1/3 17/1/3
f 30/1/3 33/1/3 40/1/3
f 28/1/41 30/1/41 40/1/41
f 9/1/3 21/1/3 14/1/3
f 21/1/3 17/1/3 16/1/3
f 16/1/3 15/1/3 21/1/3
f 15/1/3 14/1/3 21/1/3
f 28/1/3 40/1/3 27/1/3
f 40/1/3 22/1/3 27/1/3
f 14/1/3 13/1/3 9/1/3
f 13/1/39 12/1/39 9/1/39
f 12/1/3 8/1/3 9/1/3
f 8/1/42 7/1/42 9/1/42
f 7/1/3 6/1/3 9/1/3
f 6/1/42 5/1/42 9/1/42
f 26/1/3 27/1/3 22/1/3
f 24/1/3 23/1/3 22/1/3
f 23/1/43 25/1/43 22/1/43
f 25/1/44 26/1/44 22/1/44
f 29/1/3 24/1/3 22/1/3
f 22/1/3 9/1/3 3/1/3
f 9/1/3 5/1/3 4/1/3
f 9/1/3 4/1/3 1/1/3
f 2/1/3 29/1/3 22/1/3
f 3/1/3 2/1/3 22/1/3
f 10/1/3 11/1/3 21/1/3
f 21/1/3 40/1/3 10/1/3
f 40/1/38 39/1/38 37/1/38
f 40/1/40 37/1/40 36/1/40
f 73/1/4 76/1/4 21/1/4
f 21/1/4 9/1/4 73/1/4
f 22/1/5 52/1/5 41/1/5
f 64/1/6 52/1/6 22/1/6
f 64/1/45 40/1/45 75/1/45
f 40/1/45 21/1/45 75/1/45
f 72/4/46 66/6/46 11/66/46
f 11/66/8 10/2/8 72/4/8
f 20/5/47 11/67/47 66/6/47
f 66/6/9 65/8/9 19/7/9
f 65/8/48 69/68/48 18/9/48
f 15/69/12 16/13/12 68/12/12
f 16/13/49 17/70/49 69/11/49
f 17/70/50 18/71/50 69/11/50
f 13/72/13 14/73/13 67/16/13
f 14/73/51 15/14/51 67/16/51
f 58/74/52 12/75/52 59/18/52
f 12/75/13 13/17/13 59/18/13
f 8/19/14 12/75/14 58/20/14
f 57/22/53 56/26/53 7/23/53
f 6/25/54 7/76/54 56/26/54
f 53/27/55 55/32/55 4/28/55
f 54/33/56 3/77/56 1/31/56
f 1/31/55 4/78/55 55/32/55
f 2/34/20 3/77/20 54/33/20
f 43/36/57 29/79/57 2/34/57
f 44/38/23 23/80/23 24/37/23
f 24/37/22 29/79/22 43/36/22
f 50/81/58 25/82/58 49/83/58
f 25/82/23 23/39/23 45/41/23
f 49/83/59 25/82/59 45/41/59
f 45/41/60 46/84/60 47/42/60
f 51/85/61 28/86/61 50/52/61
f 28/86/62 27/50/62 50/52/62
f 60/55/63 31/87/63 33/88/63
f 30/53/61 28/89/61 51/54/61
f 60/55/28 33/88/28 30/53/28
f 61/57/64 34/90/64 32/91/64
f 32/91/63 31/56/63 61/57/63
f 38/92/31 35/93/31 62/59/31
f 35/93/30 34/58/30 62/59/30
f 37/94/32 39/95/32 63/61/32
f 39/95/65 38/60/65 63/61/65
f 71/62/66 36/65/66 37/63/66
f 70/64/33 10/96/33 36/65/33
f 74/1/67 75/1/67 76/1/67
