# Blender 5.2.0 LTS
# www.blender.org
o RESTORED__R1_RET__R__C048__APPROVED_CLEARANCE_V2__V11
v 42.842628 51.831894 118.432053
v 43.578857 57.994171 119.769661
v 44.836197 54.331257 120.988571
v 79.483833 54.147793 87.595100
v 81.746834 55.862244 90.412811
v 79.950638 61.094982 88.671509
vn 0.7642 0.0483 -0.6432
vn -0.7642 -0.0483 0.6432
vn 0.3097 -0.9022 0.3002
vn 0.5657 0.4286 0.7044
vn -0.6494 0.1589 -0.7437
vn 0.4092 -0.7912 0.4544
vn -0.6345 0.2356 -0.7362
s 0
f 4//1 6//1 5//1
f 1//2 3//2 2//2
f 5//3 1//3 4//3
f 6//4 3//4 5//4
f 4//5 2//5 6//5
f 5//6 3//6 1//6
f 6//4 2//4 3//4
f 4//7 1//7 2//7
