# Blender 5.2.0 LTS
# www.blender.org
o RETAINED__V11__SECOND_HEAD__UNCHANGED
v 62.610859 58.408058 117.769104
v 66.576416 59.623505 117.331032
v 65.971352 63.386009 116.467995
v 65.659889 63.574448 116.435539
v 65.234039 64.148628 116.316597
v 65.408409 63.834564 116.383896
v 65.148674 64.495239 116.238228
v 66.321564 63.282085 116.479073
v 66.686661 63.269764 116.467995
v 62.619354 59.933453 122.344261
v 66.150055 64.485695 121.136909
v 66.500267 64.381775 121.147980
v 66.865364 64.369453 121.136909
v 59.791473 65.459145 116.216248
v 65.158119 64.850784 116.154121
v 65.261742 65.191017 116.070015
v 65.452469 65.492767 115.991646
v 65.717316 65.735458 115.924347
v 66.038223 65.902557 115.872704
v 66.393326 65.982674 115.840240
v 66.758423 65.970360 115.829170
v 59.970184 66.558830 120.885162
v 65.412743 65.248322 120.985512
v 65.587112 64.934258 121.052811
v 65.838593 64.674141 121.104446
v 65.327377 65.594933 120.907135
v 65.336823 65.950470 120.823036
v 65.440445 66.290710 120.738930
v 65.631172 66.592453 120.660561
v 65.896019 66.835144 120.593262
v 66.216927 67.002251 120.541618
v 66.572029 67.082367 120.509155
v 67.041763 63.349884 116.435532
v 67.362671 63.516983 116.383888
v 67.627518 63.759678 116.316589
v 67.921867 64.401657 116.154114
v 67.818245 64.061424 116.238220
v 73.870483 62.337776 116.412537
v 67.220467 64.449577 121.104446
v 74.049194 63.437469 121.081451
v 74.037605 63.433159 121.082909
v 67.108635 65.866432 115.840240
v 67.420097 65.677994 115.872704
v 67.671577 65.417877 115.924347
v 67.931313 64.757202 116.070015
v 67.845947 65.103813 115.991646
v 70.960526 69.615372 114.809799
v 67.541374 64.616676 121.052803
v 67.806221 64.859367 120.985504
v 67.996948 65.161110 120.907135
v 68.100571 65.501350 120.823029
v 68.110016 65.856888 120.738930
v 68.075333 65.997696 120.707092
v 67.598801 66.777687 120.541618
v 66.937126 67.070045 120.498085
v 67.287338 66.966125 120.509155
v 68.024651 66.203506 120.660553
v 67.850281 66.517570 120.593254
v 71.139236 70.715057 119.478714
vn -0.0372 -0.2291 -0.9727
vn 0.0372 0.2291 0.9727
vn 0.3637 -0.9097 0.2003
vn -0.9308 -0.3464 0.1172
vn -0.3637 0.9097 -0.2003
vn 0.9308 0.3464 -0.1172
vn 0.3097 -0.9022 0.3002
vn 0.2835 0.9309 -0.2301
vn 0.5219 0.8256 -0.2144
vn 0.7247 0.6640 -0.1841
vn 0.8781 0.4572 -0.1413
vn 0.9716 0.2192 -0.0888
vn 0.9990 -0.0337 -0.0303
vn 0.9582 -0.2843 0.0303
vn 0.8522 -0.5156 0.0888
vn 0.6881 -0.7117 0.1413
vn 0.4771 -0.8593 0.1841
vn 0.2336 -0.9484 0.2144
vn -0.0258 -0.9728 0.2301
vn -0.2835 -0.9309 0.2301
vn -0.5219 -0.8256 0.2144
vn -0.7247 -0.6640 0.1841
vn -0.8780 -0.4572 0.1413
vn -0.9716 -0.2191 0.0888
vn -0.9990 0.0337 0.0303
vn -0.9582 0.2843 -0.0303
vn -0.8522 0.5156 -0.0888
vn -0.6881 0.7117 -0.1413
vn -0.4771 0.8594 -0.1841
vn -0.2336 0.9484 -0.2144
vn 0.0259 0.9728 -0.2301
vn -0.0373 -0.2291 -0.9727
vn -0.0372 -0.2292 -0.9727
vn 0.0373 0.2291 0.9727
vn 0.0376 0.2289 0.9727
vn 0.3636 -0.9098 0.2002
vn 0.2835 0.9310 -0.2301
vn 0.7246 0.6641 -0.1841
vn 0.9582 -0.2844 0.0303
vn 0.4771 -0.8593 0.1842
vn -0.0259 -0.9728 0.2301
vn -0.9716 -0.2192 0.0888
vn -0.9582 0.2844 -0.0303
vn -0.4771 0.8593 -0.1842
vt 0.000000 0.000000
vt 0.958333 0.796875
vt 1.000000 0.609375
vt 0.958333 0.609375
vt 0.916667 0.609375
vt 0.875000 0.796875
vt 0.916667 0.796875
vt 0.833333 0.796875
vt 0.875000 0.609375
vt 0.833333 0.609375
vt 0.791667 0.796875
vt 0.791667 0.609375
vt 0.750000 0.796875
vt 0.750000 0.609375
vt 0.708333 0.796875
vt 0.708333 0.609375
vt 0.666667 0.609375
vt 0.625000 0.796875
vt 0.666667 0.796875
vt 0.583333 0.796875
vt 0.625000 0.609375
vt 0.583333 0.609375
vt 0.541666 0.609375
vt 0.500000 0.796875
vt 0.500000 0.609375
vt 0.458333 0.796875
vt 0.458333 0.609375
vt 0.416666 0.796875
vt 0.375000 0.609375
vt 0.416666 0.609375
vt 0.333333 0.796874
vt 0.375000 0.796875
vt 0.308593 0.796875
vt 0.333333 0.609375
vt 0.250000 0.796875
vt 0.291667 0.609375
vt 0.250000 0.609375
vt 0.208333 0.609375
vt 0.166666 0.609375
vt 0.208333 0.796875
vt 0.125000 0.609375
vt 0.166666 0.796875
vt 0.083333 0.609374
vt 0.125000 0.796875
vt 0.041666 0.796874
vt 0.041666 0.609375
vt -0.000000 0.609375
vt 1.000000 0.796874
vt 0.541666 0.796875
vt 0.541666 0.796876
vt 0.291667 0.796875
vt 0.083333 0.796875
vt -0.000000 0.796874
s 0
f 36/1/1 45/1/1 38/1/1
f 16/1/1 15/1/1 14/1/1
f 23/1/2 26/1/2 22/1/2
f 40/1/2 53/1/2 52/1/2
f 38/1/3 41/1/3 2/1/3
f 14/1/4 10/1/4 22/1/4
f 14/1/5 59/1/5 47/1/5
f 40/1/6 47/1/6 59/1/6
f 10/1/7 2/1/7 41/1/7
f 11/2/8 8/3/8 3/4/8
f 4/5/9 11/2/9 3/4/9
f 4/5/10 24/6/10 25/7/10
f 23/8/11 6/9/11 5/10/11
f 26/11/12 5/10/12 7/12/12
f 27/13/13 7/12/13 15/14/13
f 28/15/14 15/14/14 16/16/14
f 17/17/15 28/15/15 16/16/15
f 17/17/16 30/18/16 29/19/16
f 31/20/17 18/21/17 19/22/17
f 20/23/18 31/20/18 19/22/18
f 55/24/19 20/23/19 21/25/19
f 56/26/20 21/25/20 42/27/20
f 42/27/21 54/28/21 56/26/21
f 44/29/22 54/28/22 43/30/22
f 44/29/23 57/31/23 58/32/23
f 53/33/24 57/31/24 46/34/24
f 51/35/25 45/36/25 36/37/25
f 37/38/26 51/35/26 36/37/26
f 35/39/27 50/40/27 37/38/27
f 34/41/28 49/42/28 35/39/28
f 33/43/29 48/44/29 34/41/29
f 13/45/30 33/43/30 9/46/30
f 8/47/31 13/45/31 9/46/31
f 38/1/1 2/1/1 35/1/1
f 2/1/32 34/1/32 35/1/32
f 44/1/1 47/1/1 46/1/1
f 47/1/1 38/1/1 45/1/1
f 46/1/32 47/1/32 45/1/32
f 38/1/1 35/1/1 37/1/1
f 38/1/1 37/1/1 36/1/1
f 33/1/1 34/1/1 2/1/1
f 2/1/1 1/1/1 4/1/1
f 1/1/1 14/1/1 6/1/1
f 4/1/1 1/1/1 6/1/1
f 47/1/1 44/1/1 43/1/1
f 47/1/1 43/1/1 42/1/1
f 9/1/32 33/1/32 2/1/32
f 8/1/1 9/1/1 2/1/1
f 47/1/32 42/1/32 21/1/32
f 47/1/1 21/1/1 20/1/1
f 3/1/1 8/1/1 2/1/1
f 4/1/1 3/1/1 2/1/1
f 14/1/1 47/1/1 19/1/1
f 47/1/1 20/1/1 19/1/1
f 14/1/33 19/1/33 18/1/33
f 14/1/1 18/1/1 17/1/1
f 5/1/1 6/1/1 14/1/1
f 7/1/1 5/1/1 14/1/1
f 14/1/1 17/1/1 16/1/1
f 15/1/1 7/1/1 14/1/1
f 57/1/34 53/1/34 59/1/34
f 10/1/2 41/1/2 39/1/2
f 41/1/35 40/1/35 52/1/35
f 39/1/2 41/1/2 48/1/2
f 52/1/2 51/1/2 41/1/2
f 51/1/2 50/1/2 41/1/2
f 58/1/2 57/1/2 59/1/2
f 54/1/2 58/1/2 59/1/2
f 50/1/2 49/1/2 41/1/2
f 49/1/2 48/1/2 41/1/2
f 56/1/2 54/1/2 59/1/2
f 55/1/34 56/1/34 59/1/34
f 32/1/2 55/1/2 59/1/2
f 31/1/2 32/1/2 59/1/2
f 10/1/2 39/1/2 13/1/2
f 10/1/2 13/1/2 12/1/2
f 31/1/2 59/1/2 22/1/2
f 30/1/2 31/1/2 22/1/2
f 10/1/2 12/1/2 11/1/2
f 10/1/2 11/1/2 25/1/2
f 29/1/2 30/1/2 22/1/2
f 28/1/2 29/1/2 22/1/2
f 22/1/2 10/1/2 23/1/2
f 10/1/34 25/1/34 24/1/34
f 10/1/2 24/1/2 23/1/2
f 27/1/2 28/1/2 22/1/2
f 26/1/2 27/1/2 22/1/2
f 40/1/2 59/1/2 53/1/2
f 38/1/36 40/1/36 41/1/36
f 14/1/4 1/1/4 10/1/4
f 14/1/5 22/1/5 59/1/5
f 40/1/6 38/1/6 47/1/6
f 10/1/7 1/1/7 2/1/7
f 11/2/37 12/48/37 8/3/37
f 4/5/9 25/7/9 11/2/9
f 4/5/38 6/9/38 24/6/38
f 23/8/11 24/6/11 6/9/11
f 26/11/12 23/8/12 5/10/12
f 27/13/13 26/11/13 7/12/13
f 28/15/39 27/13/39 15/14/39
f 17/17/15 29/19/15 28/15/15
f 17/17/16 18/21/16 30/18/16
f 31/20/40 30/18/40 18/21/40
f 20/23/18 32/49/18 31/20/18
f 55/24/41 32/50/41 20/23/41
f 56/26/20 55/24/20 21/25/20
f 42/27/21 43/30/21 54/28/21
f 44/29/22 58/32/22 54/28/22
f 44/29/23 46/34/23 57/31/23
f 46/34/42 45/36/42 53/33/42
f 45/36/42 52/51/42 53/33/42
f 51/35/25 52/51/25 45/36/25
f 37/38/43 50/40/43 51/35/43
f 35/39/27 49/42/27 50/40/27
f 34/41/28 48/44/28 49/42/28
f 33/43/44 39/52/44 48/44/44
f 13/45/30 39/52/30 33/43/30
f 8/47/31 12/53/31 13/45/31
