# V1 candidate cardboard panel review mesh
# Coordinates are millimeters: X left/right, Y depth, Z up.
mtllib candidate-panels-3d.mtl

o rod_context_lines
usemtl rod_context
v 13.078000 -38.322000 -15.245000
v 13.477000 -66.517000 -48.345000
v 0.126000 -66.884000 -78.131000
v -0.901000 -53.315000 -93.961000
v 20.978000 -40.174000 -110.000000
v 100.678000 50.875000 110.000000
v 46.450000 16.080000 43.175000
v 27.005000 -15.535000 31.183000
v -0.101000 26.305000 66.831000
v 20.519000 -59.814000 -55.058000
v 42.611000 -51.213000 -61.676000
v 27.003000 -55.850000 -96.386000
v 55.045000 -31.401000 -53.353000
v 22.231000 -33.475000 -25.737000
v 68.285000 -7.531000 8.451000
v 69.376000 -19.025000 -30.945000
v 52.637000 -18.912000 -16.890000
v 29.307000 -24.847000 0.593000
v 82.229000 4.960000 -31.249000
v 84.626000 66.884000 -36.674000
v 0.001000 -26.302000 0.658000
v 0.000000 -8.565000 32.410000
v 0.142000 56.344000 68.768000
v 101.277000 42.283000 75.260000
v 82.174000 41.495000 14.838000
v 41.370000 28.466000 57.726000
v 37.198000 44.938000 62.884000
v 39.743000 10.710000 -94.287000
v 43.159000 -11.336000 -83.497000
v 59.297000 58.675000 -78.085000
v 61.717000 34.799000 -70.569000
v -13.078000 -38.322000 -15.245000
v -13.477000 -66.517000 -48.345000
v -20.978000 -40.174000 -110.000000
v -100.678000 50.875000 110.000000
v -46.450000 16.080000 43.175000
v -27.005000 -15.535000 31.183000
v -20.519000 -59.814000 -55.058000
v -42.611000 -51.213000 -61.676000
v -27.003000 -55.850000 -96.386000
v -55.045000 -31.401000 -53.353000
v -22.231000 -33.475000 -25.737000
v -68.285000 -7.531000 8.451000
v -69.376000 -19.025000 -30.945000
v -52.637000 -18.912000 -16.890000
v -29.307000 -24.847000 0.593000
v -82.229000 4.960000 -31.249000
v -84.626000 66.884000 -36.674000
v -101.277000 42.283000 75.260000
v -82.174000 41.495000 14.838000
v -41.370000 28.466000 57.726000
v -37.198000 44.938000 62.884000
v -39.743000 10.710000 -94.287000
v -43.159000 -11.336000 -83.497000
v -59.297000 58.675000 -78.085000
v -61.717000 34.799000 -70.569000
v 0.000000 -66.517000 -48.345000
v -20.000000 88.632000 -66.699000
v -60.000000 101.002000 -19.332000
v -40.000000 112.679000 -21.822000
v -50.000000 97.930000 29.133000
v -20.000000 105.568000 30.809000
v -54.945000 73.222000 32.900000
v 50.000000 97.930000 29.133000
v 20.000000 105.568000 30.809000
v 54.945000 73.222000 32.900000
v 40.000000 112.679000 -21.822000
v 60.000000 101.002000 -19.332000
v 20.000000 88.632000 -66.699000
l 1 2
l 1 8
l 1 14
l 1 18
l 1 21
l 1 32
l 2 10
l 2 57
l 3 4
l 3 10
l 3 12
l 3 38
l 3 40
l 3 57
l 4 5
l 4 12
l 4 34
l 4 40
l 5 12
l 5 28
l 5 34
l 6 7
l 6 24
l 6 26
l 6 27
l 6 66
l 7 26
l 8 9
l 8 15
l 8 18
l 8 21
l 8 22
l 8 26
l 9 22
l 9 23
l 9 26
l 9 37
l 9 51
l 10 11
l 10 14
l 11 12
l 11 13
l 11 14
l 12 29
l 13 14
l 13 16
l 13 29
l 14 16
l 14 17
l 14 18
l 15 16
l 15 17
l 15 18
l 15 19
l 15 25
l 15 26
l 16 17
l 16 19
l 19 20
l 19 25
l 19 29
l 20 25
l 20 30
l 20 31
l 20 68
l 21 22
l 21 32
l 21 37
l 22 37
l 23 27
l 23 52
l 23 61
l 23 62
l 23 64
l 23 65
l 24 25
l 25 26
l 25 64
l 25 66
l 26 27
l 27 64
l 27 66
l 28 29
l 28 30
l 28 31
l 29 31
l 30 31
l 30 68
l 30 69
l 32 33
l 32 37
l 32 42
l 32 46
l 33 38
l 33 57
l 34 40
l 34 53
l 35 36
l 35 49
l 35 51
l 35 52
l 35 63
l 36 51
l 37 43
l 37 46
l 37 51
l 38 39
l 38 42
l 39 40
l 39 41
l 39 42
l 40 54
l 41 42
l 41 44
l 41 54
l 42 44
l 42 45
l 42 46
l 43 44
l 43 45
l 43 46
l 43 47
l 43 50
l 43 51
l 44 45
l 44 47
l 47 48
l 47 50
l 47 54
l 48 50
l 48 55
l 48 56
l 48 58
l 48 59
l 49 50
l 50 51
l 50 61
l 50 63
l 51 52
l 52 61
l 52 63
l 53 54
l 53 55
l 53 56
l 54 56
l 55 56
l 55 58
l 58 59
l 58 60
l 58 69
l 59 60
l 59 61
l 60 61
l 60 62
l 61 62
l 62 65
l 64 65
l 64 68
l 65 67
l 67 68
l 67 69
l 68 69

o panel_MANQ008_P057_P031_P005_P035
usemtl panel_risk_4
v -59.297000 58.675000 -78.085000
v 59.297000 58.675000 -78.085000
v 20.978000 -40.174000 -110.000000
v -20.978000 -40.174000 -110.000000
f 70 71 72 73

o panel_MANQ006_P070_P063_P060_P072
usemtl panel_risk_4
v 40.000000 112.679000 -21.822000
v -40.000000 112.679000 -21.822000
v -20.000000 88.632000 -66.699000
v 20.000000 88.632000 -66.699000
f 74 75 76 77

o panel_QUAD018_P021_P026_P067_P071
usemtl panel_risk_4
v 84.626000 66.884000 -36.674000
v 82.174000 41.495000 14.838000
v 50.000000 97.930000 29.133000
v 60.000000 101.002000 -19.332000
f 78 79 80 81

o panel_QUAD032_P050_P052_P064_P062
usemtl panel_risk_4
v -84.626000 66.884000 -36.674000
v -82.174000 41.495000 14.838000
v -50.000000 97.930000 29.133000
v -60.000000 101.002000 -19.332000
f 82 83 84 85

o panel_QUAD021_P026_P067_P028_P069
usemtl panel_risk_4
v 82.174000 41.495000 14.838000
v 50.000000 97.930000 29.133000
v 37.198000 44.938000 62.884000
v 54.945000 73.222000 32.900000
f 86 87 88 89

o panel_QUAD035_P052_P064_P054_P066
usemtl panel_risk_4
v -82.174000 41.495000 14.838000
v -50.000000 97.930000 29.133000
v -37.198000 44.938000 62.884000
v -54.945000 73.222000 32.900000
f 90 91 92 93

o panel_QUAD017_P020_P021_P032_P030
usemtl panel_risk_2
v 82.229000 4.960000 -31.249000
v 84.626000 66.884000 -36.674000
v 61.717000 34.799000 -70.569000
v 43.159000 -11.336000 -83.497000
f 94 95 96 97

o panel_QUAD031_P049_P050_P058_P056
usemtl panel_risk_4
v -82.229000 4.960000 -31.249000
v -84.626000 66.884000 -36.674000
v -61.717000 34.799000 -70.569000
v -43.159000 -11.336000 -83.497000
f 98 99 100 101

o panel_MANQ007_P072_P060_P057_P031
usemtl panel_risk_4
v 20.000000 88.632000 -66.699000
v -20.000000 88.632000 -66.699000
v -59.297000 58.675000 -78.085000
v 59.297000 58.675000 -78.085000
f 102 103 104 105

o panel_QUAD008_P007_P025_P026_P069
usemtl panel_risk_4
v 100.678000 50.875000 110.000000
v 101.277000 42.283000 75.260000
v 82.174000 41.495000 14.838000
v 54.945000 73.222000 32.900000
f 106 107 108 109

o panel_QUAD025_P037_P051_P052_P066
usemtl panel_risk_4
v -100.678000 50.875000 110.000000
v -101.277000 42.283000 75.260000
v -82.174000 41.495000 14.838000
v -54.945000 73.222000 32.900000
f 110 111 112 113

o panel_QUAD019_P026_P027_P028_P067
usemtl panel_risk_4
v 82.174000 41.495000 14.838000
v 41.370000 28.466000 57.726000
v 37.198000 44.938000 62.884000
v 50.000000 97.930000 29.133000
f 114 115 116 117

o panel_QUAD033_P052_P053_P054_P064
usemtl panel_risk_4
v -82.174000 41.495000 14.838000
v -41.370000 28.466000 57.726000
v -37.198000 44.938000 62.884000
v -50.000000 97.930000 29.133000
f 118 119 120 121

o panel_QUAD010_P009_P010_P039_P022
usemtl panel_risk_4
v 27.005000 -15.535000 31.183000
v -0.101000 26.305000 66.831000
v -27.005000 -15.535000 31.183000
v 0.001000 -26.302000 0.658000
f 122 123 124 125

o panel_QUAD020_P026_P027_P028_P069
usemtl panel_risk_4
v 82.174000 41.495000 14.838000
v 41.370000 28.466000 57.726000
v 37.198000 44.938000 62.884000
v 54.945000 73.222000 32.900000
f 126 127 128 129

o panel_QUAD034_P052_P053_P054_P066
usemtl panel_risk_4
v -82.174000 41.495000 14.838000
v -41.370000 28.466000 57.726000
v -37.198000 44.938000 62.884000
v -54.945000 73.222000 32.900000
f 130 131 132 133

o panel_QUAD036_P067_P068_P070_P071
usemtl panel_risk_4
v 50.000000 97.930000 29.133000
v 20.000000 105.568000 30.809000
v 40.000000 112.679000 -21.822000
v 60.000000 101.002000 -19.332000
f 134 135 136 137

o panel_QUAD013_P012_P013_P030_P014
usemtl panel_risk_2
v 42.611000 -51.213000 -61.676000
v 27.003000 -55.850000 -96.386000
v 43.159000 -11.336000 -83.497000
v 55.045000 -31.401000 -53.353000
f 138 139 140 141

o panel_QUAD027_P041_P042_P056_P043
usemtl panel_risk_4
v -42.611000 -51.213000 -61.676000
v -27.003000 -55.850000 -96.386000
v -43.159000 -11.336000 -83.497000
v -55.045000 -31.401000 -53.353000
f 142 143 144 145

o panel_QUAD014_P014_P017_P020_P030
usemtl panel_risk_2
v 55.045000 -31.401000 -53.353000
v 69.376000 -19.025000 -30.945000
v 82.229000 4.960000 -31.249000
v 43.159000 -11.336000 -83.497000
f 146 147 148 149

o panel_QUAD028_P043_P046_P049_P056
usemtl panel_risk_4
v -55.045000 -31.401000 -53.353000
v -69.376000 -19.025000 -30.945000
v -82.229000 4.960000 -31.249000
v -43.159000 -11.336000 -83.497000
f 150 151 152 153

o panel_MANQ001_P033_P001_P002_P034
usemtl panel_risk_1
v -13.078000 -38.322000 -15.245000
v 13.078000 -38.322000 -15.245000
v 13.477000 -66.517000 -48.345000
v -13.477000 -66.517000 -48.345000
f 154 155 156 157

o panel_QUAD006_P005_P013_P030_P029
usemtl panel_risk_2
v 20.978000 -40.174000 -110.000000
v 27.003000 -55.850000 -96.386000
v 43.159000 -11.336000 -83.497000
v 39.743000 10.710000 -94.287000
f 158 159 160 161

o panel_QUAD023_P035_P042_P056_P055
usemtl panel_risk_4
v -20.978000 -40.174000 -110.000000
v -27.003000 -55.850000 -96.386000
v -43.159000 -11.336000 -83.497000
v -39.743000 10.710000 -94.287000
f 162 163 164 165

o panel_QUAD005_P003_P040_P041_P042
usemtl panel_risk_3
v 0.126000 -66.884000 -78.131000
v -20.519000 -59.814000 -55.058000
v -42.611000 -51.213000 -61.676000
v -27.003000 -55.850000 -96.386000
f 166 167 168 169

o panel_QUAD003_P003_P011_P012_P013
usemtl panel_risk_0
v 0.126000 -66.884000 -78.131000
v 20.519000 -59.814000 -55.058000
v 42.611000 -51.213000 -61.676000
v 27.003000 -55.850000 -96.386000
f 170 171 172 173

o panel_MANQ003_P024_P010_P027_P028
usemtl panel_risk_2
v 0.142000 56.344000 68.768000
v -0.101000 26.305000 66.831000
v 41.370000 28.466000 57.726000
v 37.198000 44.938000 62.884000
f 174 175 176 177

o panel_MANQ002_P024_P010_P053_P054
usemtl panel_risk_4
v 0.142000 56.344000 68.768000
v -0.101000 26.305000 66.831000
v -41.370000 28.466000 57.726000
v -37.198000 44.938000 62.884000
f 178 179 180 181

o panel_QUAD011_P010_P024_P028_P027
usemtl panel_risk_2
v -0.101000 26.305000 66.831000
v 0.142000 56.344000 68.768000
v 37.198000 44.938000 62.884000
v 41.370000 28.466000 57.726000
f 182 183 184 185

o panel_QUAD012_P010_P024_P054_P053
usemtl panel_risk_4
v -0.101000 26.305000 66.831000
v 0.142000 56.344000 68.768000
v -37.198000 44.938000 62.884000
v -41.370000 28.466000 57.726000
f 186 187 188 189

o panel_QUAD001_P001_P002_P011_P015
usemtl panel_risk_0
v 13.078000 -38.322000 -15.245000
v 13.477000 -66.517000 -48.345000
v 20.519000 -59.814000 -55.058000
v 22.231000 -33.475000 -25.737000
f 190 191 192 193

o panel_QUAD022_P033_P034_P040_P044
usemtl panel_risk_3
v -13.078000 -38.322000 -15.245000
v -13.477000 -66.517000 -48.345000
v -20.519000 -59.814000 -55.058000
v -22.231000 -33.475000 -25.737000
f 194 195 196 197

o panel_QUAD004_P003_P040_P034_P059
usemtl panel_risk_3
v 0.126000 -66.884000 -78.131000
v -20.519000 -59.814000 -55.058000
v -13.477000 -66.517000 -48.345000
v 0.000000 -66.517000 -48.345000
f 198 199 200 201

o panel_QUAD002_P002_P011_P003_P059
usemtl panel_risk_3
v 13.477000 -66.517000 -48.345000
v 20.519000 -59.814000 -55.058000
v 0.126000 -66.884000 -78.131000
v 0.000000 -66.517000 -48.345000
f 202 203 204 205

o panel_TRI012_P007_P028_P069
usemtl panel_risk_4
v 100.678000 50.875000 110.000000
v 37.198000 44.938000 62.884000
v 54.945000 73.222000 32.900000
f 206 207 208

o panel_TRI045_P037_P054_P066
usemtl panel_risk_4
v -100.678000 50.875000 110.000000
v -37.198000 44.938000 62.884000
v -54.945000 73.222000 32.900000
f 209 210 211

o panel_TRI040_P031_P071_P072
usemtl panel_risk_4
v 59.297000 58.675000 -78.085000
v 60.000000 101.002000 -19.332000
v 20.000000 88.632000 -66.699000
f 212 213 214

o panel_TRI028_P020_P021_P026
usemtl panel_risk_2
v 82.229000 4.960000 -31.249000
v 84.626000 66.884000 -36.674000
v 82.174000 41.495000 14.838000
f 215 216 217

o panel_TRI056_P049_P050_P052
usemtl panel_risk_4
v -82.229000 4.960000 -31.249000
v -84.626000 66.884000 -36.674000
v -82.174000 41.495000 14.838000
f 218 219 220

o panel_TRI027_P016_P026_P027
usemtl panel_risk_2
v 68.285000 -7.531000 8.451000
v 82.174000 41.495000 14.838000
v 41.370000 28.466000 57.726000
f 221 222 223

o panel_TRI055_P045_P052_P053
usemtl panel_risk_4
v -68.285000 -7.531000 8.451000
v -82.174000 41.495000 14.838000
v -41.370000 28.466000 57.726000
f 224 225 226

o panel_TRI059_P050_P060_P062
usemtl panel_risk_4
v -84.626000 66.884000 -36.674000
v -20.000000 88.632000 -66.699000
v -60.000000 101.002000 -19.332000
f 227 228 229

o panel_TRI034_P024_P054_P064
usemtl panel_risk_4
v 0.142000 56.344000 68.768000
v -37.198000 44.938000 62.884000
v -50.000000 97.930000 29.133000
f 230 231 232

o panel_TRI016_P009_P016_P027
usemtl panel_risk_0
v 27.005000 -15.535000 31.183000
v 68.285000 -7.531000 8.451000
v 41.370000 28.466000 57.726000
f 233 234 235

o panel_TRI047_P039_P045_P053
usemtl panel_risk_4
v -27.005000 -15.535000 31.183000
v -68.285000 -7.531000 8.451000
v -41.370000 28.466000 57.726000
f 236 237 238

o panel_TRI033_P024_P028_P067
usemtl panel_risk_4
v 0.142000 56.344000 68.768000
v 37.198000 44.938000 62.884000
v 50.000000 97.930000 29.133000
f 239 240 241

o panel_TRI036_P024_P065_P068
usemtl panel_risk_4
v 0.142000 56.344000 68.768000
v -20.000000 105.568000 30.809000
v 20.000000 105.568000 30.809000
f 242 243 244

o panel_TRI058_P050_P057_P060
usemtl panel_risk_4
v -84.626000 66.884000 -36.674000
v -59.297000 58.675000 -78.085000
v -20.000000 88.632000 -66.699000
f 245 246 247

o panel_TRI014_P009_P010_P027
usemtl panel_risk_2
v 27.005000 -15.535000 31.183000
v -0.101000 26.305000 66.831000
v 41.370000 28.466000 57.726000
f 248 249 250

o panel_TRI019_P010_P039_P053
usemtl panel_risk_4
v -0.101000 26.305000 66.831000
v -27.005000 -15.535000 31.183000
v -41.370000 28.466000 57.726000
f 251 252 253

o panel_TRI030_P021_P031_P071
usemtl panel_risk_4
v 84.626000 66.884000 -36.674000
v 59.297000 58.675000 -78.085000
v 60.000000 101.002000 -19.332000
f 254 255 256

o panel_TRI026_P016_P020_P026
usemtl panel_risk_2
v 68.285000 -7.531000 8.451000
v 82.229000 4.960000 -31.249000
v 82.174000 41.495000 14.838000
f 257 258 259

o panel_TRI054_P045_P049_P052
usemtl panel_risk_4
v -68.285000 -7.531000 8.451000
v -82.229000 4.960000 -31.249000
v -82.174000 41.495000 14.838000
f 260 261 262

o panel_TRI035_P024_P064_P065
usemtl panel_risk_4
v 0.142000 56.344000 68.768000
v -50.000000 97.930000 29.133000
v -20.000000 105.568000 30.809000
f 263 264 265

o panel_TRI037_P024_P067_P068
usemtl panel_risk_4
v 0.142000 56.344000 68.768000
v 50.000000 97.930000 29.133000
v 20.000000 105.568000 30.809000
f 266 267 268

o panel_TRI064_P063_P064_P065
usemtl panel_risk_4
v -40.000000 112.679000 -21.822000
v -50.000000 97.930000 29.133000
v -20.000000 105.568000 30.809000
f 269 270 271

o panel_TRI010_P007_P008_P027
usemtl panel_risk_0
v 100.678000 50.875000 110.000000
v 46.450000 16.080000 43.175000
v 41.370000 28.466000 57.726000
f 272 273 274

o panel_TRI043_P037_P038_P053
usemtl panel_risk_4
v -100.678000 50.875000 110.000000
v -46.450000 16.080000 43.175000
v -41.370000 28.466000 57.726000
f 275 276 277

o panel_TRI011_P007_P027_P028
usemtl panel_risk_2
v 100.678000 50.875000 110.000000
v 41.370000 28.466000 57.726000
v 37.198000 44.938000 62.884000
f 278 279 280

o panel_TRI044_P037_P053_P054
usemtl panel_risk_4
v -100.678000 50.875000 110.000000
v -41.370000 28.466000 57.726000
v -37.198000 44.938000 62.884000
f 281 282 283

o panel_TRI015_P009_P016_P019
usemtl panel_risk_0
v 27.005000 -15.535000 31.183000
v 68.285000 -7.531000 8.451000
v 29.307000 -24.847000 0.593000
f 284 285 286

o panel_TRI046_P039_P045_P048
usemtl panel_risk_4
v -27.005000 -15.535000 31.183000
v -68.285000 -7.531000 8.451000
v -29.307000 -24.847000 0.593000
f 287 288 289

o panel_TRI018_P010_P023_P039
usemtl panel_risk_4
v -0.101000 26.305000 66.831000
v 0.000000 -8.565000 32.410000
v -27.005000 -15.535000 31.183000
f 290 291 292

o panel_TRI013_P009_P010_P023
usemtl panel_risk_2
v 27.005000 -15.535000 31.183000
v -0.101000 26.305000 66.831000
v 0.000000 -8.565000 32.410000
f 293 294 295

o panel_TRI022_P014_P015_P017
usemtl panel_risk_0
v 55.045000 -31.401000 -53.353000
v 22.231000 -33.475000 -25.737000
v 69.376000 -19.025000 -30.945000
f 296 297 298

o panel_TRI050_P043_P044_P046
usemtl panel_risk_4
v -55.045000 -31.401000 -53.353000
v -22.231000 -33.475000 -25.737000
v -69.376000 -19.025000 -30.945000
f 299 300 301

o panel_TRI062_P060_P062_P063
usemtl panel_risk_4
v -20.000000 88.632000 -66.699000
v -60.000000 101.002000 -19.332000
v -40.000000 112.679000 -21.822000
f 302 303 304

o panel_TRI065_P070_P071_P072
usemtl panel_risk_4
v 40.000000 112.679000 -21.822000
v 60.000000 101.002000 -19.332000
v 20.000000 88.632000 -66.699000
f 305 306 307

o panel_TRI029_P021_P031_P032
usemtl panel_risk_2
v 84.626000 66.884000 -36.674000
v 59.297000 58.675000 -78.085000
v 61.717000 34.799000 -70.569000
f 308 309 310

o panel_TRI057_P050_P057_P058
usemtl panel_risk_4
v -84.626000 66.884000 -36.674000
v -59.297000 58.675000 -78.085000
v -61.717000 34.799000 -70.569000
f 311 312 313

o panel_TRI063_P062_P063_P064
usemtl panel_risk_4
v -60.000000 101.002000 -19.332000
v -40.000000 112.679000 -21.822000
v -50.000000 97.930000 29.133000
f 314 315 316

o panel_TRI025_P016_P017_P020
usemtl panel_risk_0
v 68.285000 -7.531000 8.451000
v 69.376000 -19.025000 -30.945000
v 82.229000 4.960000 -31.249000
f 317 318 319

o panel_TRI053_P045_P046_P049
usemtl panel_risk_4
v -68.285000 -7.531000 8.451000
v -69.376000 -19.025000 -30.945000
v -82.229000 4.960000 -31.249000
f 320 321 322

o panel_TRI021_P012_P014_P015
usemtl panel_risk_0
v 42.611000 -51.213000 -61.676000
v 55.045000 -31.401000 -53.353000
v 22.231000 -33.475000 -25.737000
f 323 324 325

o panel_TRI049_P041_P043_P044
usemtl panel_risk_3
v -42.611000 -51.213000 -61.676000
v -55.045000 -31.401000 -53.353000
v -22.231000 -33.475000 -25.737000
f 326 327 328

o panel_TRI017_P009_P022_P023
usemtl panel_risk_2
v 27.005000 -15.535000 31.183000
v 0.001000 -26.302000 0.658000
v 0.000000 -8.565000 32.410000
f 329 330 331

o panel_TRI031_P022_P023_P039
usemtl panel_risk_4
v 0.001000 -26.302000 0.658000
v 0.000000 -8.565000 32.410000
v -27.005000 -15.535000 31.183000
f 332 333 334

o panel_TRI038_P029_P030_P032
usemtl panel_risk_2
v 39.743000 10.710000 -94.287000
v 43.159000 -11.336000 -83.497000
v 61.717000 34.799000 -70.569000
f 335 336 337

o panel_TRI060_P055_P056_P058
usemtl panel_risk_4
v -39.743000 10.710000 -94.287000
v -43.159000 -11.336000 -83.497000
v -61.717000 34.799000 -70.569000
f 338 339 340

o panel_TRI032_P022_P033_P039
usemtl panel_risk_4
v 0.001000 -26.302000 0.658000
v -13.078000 -38.322000 -15.245000
v -27.005000 -15.535000 31.183000
f 341 342 343

o panel_TRI002_P001_P009_P022
usemtl panel_risk_2
v 13.078000 -38.322000 -15.245000
v 27.005000 -15.535000 31.183000
v 0.001000 -26.302000 0.658000
f 344 345 346

o panel_TRI020_P011_P012_P015
usemtl panel_risk_0
v 20.519000 -59.814000 -55.058000
v 42.611000 -51.213000 -61.676000
v 22.231000 -33.475000 -25.737000
f 347 348 349

o panel_TRI048_P040_P041_P044
usemtl panel_risk_3
v -20.519000 -59.814000 -55.058000
v -42.611000 -51.213000 -61.676000
v -22.231000 -33.475000 -25.737000
f 350 351 352

o panel_TRI039_P029_P031_P032
usemtl panel_risk_2
v 39.743000 10.710000 -94.287000
v 59.297000 58.675000 -78.085000
v 61.717000 34.799000 -70.569000
f 353 354 355

o panel_TRI061_P055_P057_P058
usemtl panel_risk_4
v -39.743000 10.710000 -94.287000
v -59.297000 58.675000 -78.085000
v -61.717000 34.799000 -70.569000
f 356 357 358

o panel_TRI008_P004_P005_P035
usemtl panel_risk_4
v -0.901000 -53.315000 -93.961000
v 20.978000 -40.174000 -110.000000
v -20.978000 -40.174000 -110.000000
f 359 360 361

o panel_TRI001_P001_P009_P019
usemtl panel_risk_0
v 13.078000 -38.322000 -15.245000
v 27.005000 -15.535000 31.183000
v 29.307000 -24.847000 0.593000
f 362 363 364

o panel_TRI041_P033_P039_P048
usemtl panel_risk_4
v -13.078000 -38.322000 -15.245000
v -27.005000 -15.535000 31.183000
v -29.307000 -24.847000 0.593000
f 365 366 367

o panel_TRI005_P003_P004_P013
usemtl panel_risk_2
v 0.126000 -66.884000 -78.131000
v -0.901000 -53.315000 -93.961000
v 27.003000 -55.850000 -96.386000
f 368 369 370

o panel_TRI007_P004_P005_P013
usemtl panel_risk_2
v -0.901000 -53.315000 -93.961000
v 20.978000 -40.174000 -110.000000
v 27.003000 -55.850000 -96.386000
f 371 372 373

o panel_TRI006_P003_P004_P042
usemtl panel_risk_2
v 0.126000 -66.884000 -78.131000
v -0.901000 -53.315000 -93.961000
v -27.003000 -55.850000 -96.386000
f 374 375 376

o panel_TRI009_P004_P035_P042
usemtl panel_risk_4
v -0.901000 -53.315000 -93.961000
v -20.978000 -40.174000 -110.000000
v -27.003000 -55.850000 -96.386000
f 377 378 379

o panel_TRI004_P001_P022_P033
usemtl panel_risk_2
v 13.078000 -38.322000 -15.245000
v 0.001000 -26.302000 0.658000
v -13.078000 -38.322000 -15.245000
f 380 381 382

o panel_TRI003_P001_P015_P019
usemtl panel_risk_0
v 13.078000 -38.322000 -15.245000
v 22.231000 -33.475000 -25.737000
v 29.307000 -24.847000 0.593000
f 383 384 385

o panel_TRI042_P033_P044_P048
usemtl panel_risk_4
v -13.078000 -38.322000 -15.245000
v -22.231000 -33.475000 -25.737000
v -29.307000 -24.847000 0.593000
f 386 387 388

o cutout_EYE_RIGHT_P015_P017_P016_P019
usemtl eye_cutout_edge
# Boundary loop for the translucent eye insert panel.
v 22.231000 -33.475000 -25.737000
v 69.376000 -19.025000 -30.945000
v 68.285000 -7.531000 8.451000
v 29.307000 -24.847000 0.593000
l 389 390
l 390 391
l 391 392
l 392 389

o cutout_EYE_LEFT_P044_P046_P045_P048
usemtl eye_cutout_edge
# Boundary loop for the translucent eye insert panel.
v -22.231000 -33.475000 -25.737000
v -69.376000 -19.025000 -30.945000
v -68.285000 -7.531000 8.451000
v -29.307000 -24.847000 0.593000
l 393 394
l 394 395
l 395 396
l 396 393
