# Blender 5.2.0 LTS
# www.blender.org
o PROPOSED__RIGHT_LOWER_EYE__PLAIN_FLANGE_4P8MM_LOCAL_SKIN_CLIPPED_V7
v 65.849762 64.742867 121.396248
v 66.161224 64.554428 121.428711
v 65.527443 65.130577 121.317268
v 65.598282 65.002983 121.344612
v 65.747597 64.848541 121.375275
v 65.423912 65.317055 121.277313
v 66.369164 64.492729 121.435287
v 66.511436 64.450508 121.439789
v 66.876534 64.438187 121.428711
v 67.087379 64.485764 121.409439
v 66.690140 65.550201 126.108696
v 67.055237 65.537880 126.097626
v 59.981354 66.627571 121.176964
v 65.338547 65.663666 121.198944
v 65.347992 66.019211 121.114838
v 65.451614 66.359436 121.030731
v 65.642342 66.661186 120.952362
v 65.749939 66.759781 120.925018
v 65.529099 66.482025 120.998894
v 65.907188 66.903885 120.885063
v 66.037560 66.971764 120.864082
v 66.228096 67.070976 120.833420
v 66.583199 67.151100 120.800957
v 66.948296 67.138779 120.789886
v 60.160065 67.727257 125.845879
v 66.406799 68.170670 125.502335
v 66.761902 68.250786 125.469872
v 66.028465 65.842560 126.065163
v 65.776985 66.102676 126.013527
v 65.517250 66.763351 125.867851
v 65.602615 66.416740 125.946228
v 65.526695 67.118896 125.783752
v 66.339928 65.654121 126.097626
v 65.630318 67.459129 125.699646
v 65.821045 67.760880 125.621277
v 66.085892 68.003571 125.553978
v 67.231636 64.518311 121.396248
v 67.552544 64.685410 121.344612
v 67.817390 64.928101 121.277313
v 67.930634 65.107262 121.230774
v 68.008118 65.229843 121.198936
v 68.111740 65.570076 121.114838
v 67.298508 67.034859 120.800957
v 67.861450 66.586304 120.885063
v 67.609970 66.846413 120.833420
v 68.117348 65.781181 121.064896
v 68.121185 65.925621 121.030731
v 68.035820 66.272232 120.952362
v 71.150406 70.783798 119.770515
v 67.788673 67.946106 125.502335
v 67.126999 68.238464 125.458801
v 67.477211 68.134544 125.469872
v 67.996094 66.027786 125.946220
v 67.410339 65.617996 126.065163
v 67.731247 65.785095 126.013527
v 68.037819 66.093796 125.929077
v 68.186821 66.329536 125.867851
v 68.290443 66.669769 125.783745
v 68.299889 67.025307 125.699646
v 68.214523 67.371925 125.621269
v 68.040154 67.685989 125.553970
v 71.329117 71.883484 124.439430
v 62.612568 60.047092 122.626175
v 73.988335 63.533779 121.369514
v 74.042679 63.550434 121.363510
v 62.621059 61.572487 127.201340
v 73.500107 64.906921 125.999550
v 74.051170 65.075829 125.938675
vn -0.0372 -0.2291 -0.9727
vn 0.0373 0.2291 0.9727
vn 0.0372 0.2291 0.9727
vn -0.9308 -0.3464 0.1172
vn -0.3637 0.9097 -0.2003
vn 0.9308 0.3464 -0.1172
vn 0.2836 0.9309 -0.2301
vn 0.5847 0.7858 -0.2016
vn -0.0367 -0.2290 -0.9727
vn 0.8781 0.4572 -0.1413
vn 0.9716 0.2192 -0.0888
vn 0.9990 -0.0337 -0.0303
vn 0.9582 -0.2843 0.0303
vn 0.0375 0.2291 0.9727
vn 0.8522 -0.5156 0.0888
vn 0.7767 -0.6199 0.1121
vn 0.8513 -0.5200 0.0696
vn 0.4771 -0.8594 0.1841
vn 0.4763 -0.8637 0.1649
vn 0.2340 -0.9456 0.2258
vn -0.0258 -0.9728 0.2301
vn -0.0373 -0.2291 -0.9727
vn -0.2835 -0.9309 0.2301
vn -0.4058 -0.8836 0.2339
vn -0.7246 -0.6641 0.1841
vn 0.0371 0.2290 0.9727
vn -0.8781 -0.4572 0.1413
vn -0.9716 -0.2192 0.0888
vn -0.9990 0.0338 0.0303
vn -0.9582 0.2844 -0.0303
vn -0.8522 0.5156 -0.0888
vn -0.6881 0.7117 -0.1413
vn -0.2336 0.9484 -0.2144
vn 0.0258 0.9728 -0.2301
vn 0.3097 -0.9022 0.3002
vn -0.0373 -0.2292 -0.9727
vn -0.0371 -0.2291 -0.9727
vn -0.0372 -0.2290 -0.9727
vn -0.0374 -0.2291 -0.9727
vn 0.0372 0.2290 0.9727
vn 0.2835 0.9309 -0.2301
vn 0.5219 0.8256 -0.2144
vn 0.2835 0.9310 -0.2301
vn 0.7247 0.6640 -0.1841
vn 0.7246 0.6641 -0.1841
vn 0.8780 0.4573 -0.1413
vn 0.9990 -0.0336 -0.0303
vn 0.9582 -0.2844 0.0303
vn 0.6881 -0.7117 0.1413
vn 0.4771 -0.8593 0.1841
vn 0.2336 -0.9484 0.2144
vn -0.0259 -0.9728 0.2301
vn -0.6290 -0.7535 0.1913
vn -0.9990 0.0337 0.0303
vn -0.8522 0.5157 -0.0888
vn -0.9582 0.2843 -0.0303
vn -0.8521 0.5157 -0.0888
vn -0.4771 0.8593 -0.1841
vn -0.4771 0.8594 -0.1841
vn 0.3098 -0.9021 0.3003
vt 0.000000 0.000000
vt 0.983073 0.703125
vt 1.000000 0.890625
vt 1.000000 0.703125
vt 0.958333 0.703125
vt 0.900316 0.703125
vt 0.916667 0.890625
vt 0.916667 0.703125
vt 0.875000 0.703125
vt 0.858649 0.703125
vt 0.875000 0.890625
vt 0.858072 0.703125
vt 0.833333 0.890626
vt 0.833333 0.890625
vt 0.791667 0.703125
vt 0.791667 0.890625
vt 0.750000 0.703125
vt 0.750000 0.890625
vt 0.708333 0.890625
vt 0.666667 0.890626
vt 0.626418 0.890626
vt 0.708333 0.703125
vt 0.691407 0.703125
vt 0.666667 0.703125
vt 0.625000 0.890626
vt 0.690563 0.703125
vt 0.608073 0.703125
vt 0.583333 0.890626
vt 0.583333 0.703125
vt 0.541666 0.890625
vt 0.607230 0.703125
vt 0.500000 0.703125
vt 0.500000 0.890625
vt 0.458333 0.703125
vt 0.418086 0.703125
vt 0.458333 0.890625
vt 0.375000 0.890625
vt 0.416666 0.703125
vt 0.375000 0.703125
vt 0.416666 0.890625
vt 0.456913 0.890625
vt 0.333333 0.890625
vt 0.333333 0.703125
vt 0.291667 0.703125
vt 0.291667 0.890625
vt 0.274739 0.703125
vt 0.250000 0.890625
vt 0.250000 0.703125
vt 0.208333 0.703125
vt 0.175781 0.890625
vt 0.191406 0.703125
vt 0.166666 0.703126
vt 0.166667 0.890625
vt 0.125000 0.703125
vt 0.125000 0.890625
vt 0.083333 0.890625
vt 0.083333 0.703125
vt 0.066983 0.703125
vt 0.041666 0.890625
vt 0.066406 0.703125
vt 0.041666 0.703125
vt -0.000000 0.703126
vt -0.000000 0.890625
vt 0.958333 0.890625
vt 0.982230 0.703125
vt 0.899739 0.703125
vt 0.833333 0.703125
vt 0.649740 0.703125
vt 0.648897 0.703125
vt 0.625000 0.703126
vt 0.541666 0.703125
vt 0.191983 0.703125
vt 0.208333 0.890625
vt 0.175471 0.890625
vt 0.084753 0.703125
s 0
f 13/1/1 14/1/1 6/1/1
f 47/1/1 49/1/1 64/1/1
f 66/1/2 29/1/2 31/1/2
f 60/1/3 67/1/3 62/1/3
f 13/1/4 66/1/4 25/1/4
f 25/1/5 49/1/5 13/1/5
f 49/1/6 68/1/6 65/1/6
f 7/2/7 11/3/7 8/4/7
f 2/5/8 5/6/8 28/7/8
f 5/6/9 2/5/9 1/8/9
f 4/9/10 3/10/10 29/11/10
f 3/12/10 31/13/10 29/11/10
f 31/14/11 14/15/11 30/16/11
f 30/16/12 15/17/12 32/18/12
f 15/17/13 34/19/13 32/18/13
f 35/20/14 34/19/14 36/21/14
f 16/22/15 19/23/15 34/19/15
f 34/19/16 19/23/16 36/21/16
f 17/24/17 36/25/17 19/26/17
f 21/27/18 26/28/18 36/25/18
f 22/29/19 27/30/19 21/31/19
f 26/28/20 21/31/20 27/30/20
f 27/30/21 24/32/21 51/33/21
f 43/34/22 45/35/22 24/32/22
f 51/33/23 24/32/23 52/36/23
f 52/36/24 24/32/24 45/35/24
f 61/37/25 45/38/25 44/39/25
f 50/40/26 52/41/26 61/37/26
f 60/42/27 44/39/27 48/43/27
f 60/42/28 47/44/28 59/45/28
f 59/45/29 47/44/29 46/46/29
f 58/47/30 42/48/30 41/49/30
f 56/50/31 40/51/31 39/52/31
f 53/53/32 38/54/32 55/55/32
f 54/56/33 37/57/33 10/58/33
f 12/59/33 10/60/33 9/61/33
f 12/59/34 8/62/34 11/63/34
f 67/1/35 63/1/35 64/1/35
f 22/1/1 21/1/1 13/1/1
f 21/1/36 20/1/36 13/1/36
f 20/1/1 18/1/1 13/1/1
f 18/1/1 17/1/1 13/1/1
f 17/1/1 19/1/1 13/1/1
f 19/1/1 16/1/1 13/1/1
f 49/1/1 44/1/1 45/1/1
f 42/1/1 46/1/1 64/1/1
f 39/1/1 40/1/1 64/1/1
f 40/1/1 41/1/1 64/1/1
f 41/1/1 42/1/1 64/1/1
f 49/1/1 45/1/1 43/1/1
f 49/1/1 43/1/1 24/1/1
f 38/1/1 39/1/1 64/1/1
f 49/1/1 24/1/1 23/1/1
f 49/1/1 23/1/1 22/1/1
f 38/1/1 64/1/1 37/1/1
f 64/1/1 63/1/1 37/1/1
f 9/1/37 10/1/37 63/1/37
f 10/1/38 37/1/38 63/1/38
f 13/1/1 49/1/1 22/1/1
f 2/1/37 7/1/37 63/1/37
f 7/1/39 8/1/39 63/1/39
f 8/1/1 9/1/1 63/1/1
f 4/1/22 5/1/22 63/1/22
f 5/1/22 1/1/22 63/1/22
f 1/1/1 2/1/1 63/1/1
f 63/1/1 13/1/1 6/1/1
f 13/1/1 16/1/1 15/1/1
f 13/1/1 15/1/1 14/1/1
f 6/1/1 3/1/1 63/1/1
f 3/1/22 4/1/22 63/1/22
f 48/1/22 44/1/22 49/1/22
f 49/1/1 65/1/1 64/1/1
f 64/1/22 46/1/22 47/1/22
f 47/1/1 48/1/1 49/1/1
f 67/1/3 59/1/3 58/1/3
f 57/1/3 56/1/3 67/1/3
f 56/1/40 53/1/40 67/1/40
f 67/1/3 58/1/3 57/1/3
f 52/1/3 50/1/3 62/1/3
f 51/1/3 52/1/3 62/1/3
f 67/1/3 53/1/3 55/1/3
f 27/1/3 51/1/3 62/1/3
f 26/1/2 27/1/2 62/1/2
f 66/1/3 67/1/3 54/1/3
f 67/1/3 55/1/3 54/1/3
f 26/1/3 62/1/3 25/1/3
f 36/1/3 26/1/3 25/1/3
f 66/1/3 54/1/3 12/1/3
f 66/1/3 12/1/3 11/1/3
f 35/1/3 36/1/3 25/1/3
f 34/1/3 35/1/3 25/1/3
f 66/1/3 11/1/3 33/1/3
f 66/1/3 33/1/3 28/1/3
f 34/1/3 25/1/3 32/1/3
f 25/1/3 66/1/3 31/1/3
f 32/1/3 25/1/3 30/1/3
f 30/1/2 25/1/2 31/1/2
f 66/1/3 28/1/3 29/1/3
f 62/1/2 50/1/2 61/1/2
f 60/1/3 59/1/3 67/1/3
f 62/1/2 61/1/2 60/1/2
f 67/1/3 68/1/3 62/1/3
f 13/1/4 63/1/4 66/1/4
f 25/1/5 62/1/5 49/1/5
f 49/1/6 62/1/6 68/1/6
f 7/2/41 33/64/41 11/3/41
f 28/7/42 33/64/42 2/5/42
f 33/64/43 7/65/43 2/5/43
f 28/7/44 5/66/44 29/11/44
f 5/66/45 4/9/45 29/11/45
f 3/12/46 6/67/46 31/13/46
f 31/14/11 6/67/11 14/15/11
f 30/16/47 14/15/47 15/17/47
f 15/17/48 16/22/48 34/19/48
f 17/24/49 18/68/49 36/25/49
f 36/25/49 18/69/49 20/70/49
f 20/70/50 21/27/50 36/25/50
f 22/29/51 23/71/51 27/30/51
f 27/30/52 23/71/52 24/32/52
f 61/37/53 52/41/53 45/38/53
f 60/42/27 61/37/27 44/39/27
f 60/42/28 48/43/28 47/44/28
f 46/46/54 42/48/54 58/47/54
f 58/47/54 59/45/54 46/46/54
f 40/72/55 57/73/55 41/49/55
f 57/73/56 58/47/56 41/49/56
f 56/50/31 57/73/31 40/51/31
f 53/53/57 56/74/57 39/52/57
f 39/52/32 38/54/32 53/53/32
f 38/54/58 37/75/58 55/55/58
f 54/56/59 55/55/59 37/57/59
f 12/59/33 54/56/33 10/60/33
f 12/59/34 9/61/34 8/62/34
f 65/1/60 68/1/60 64/1/60
f 68/1/35 67/1/35 64/1/35
f 67/1/35 66/1/35 63/1/35
