# Blender 5.2.0 LTS
# www.blender.org
o E4_PROPOSED__R__OUTER__HEAD_flange_broad_base
v 101.612900 85.835587 145.652740
v 101.738571 85.495705 145.605179
v 101.502739 86.154945 145.792175
v 101.415596 86.432030 146.013992
v 101.357391 86.647957 146.303055
v 101.332115 86.788002 146.639679
v 102.001694 84.846878 145.792175
v 102.296013 84.261009 146.639679
v 102.221603 84.382309 146.303055
v 102.121216 84.582146 146.013992
v 101.871178 85.158478 145.652740
v 103.588486 79.878349 142.102829
v 105.078888 80.446854 141.978241
v 101.459251 86.686806 147.698807
v 101.679161 86.222244 148.209686
v 101.559639 86.486977 147.987869
v 102.323463 84.421165 147.698807
v 102.178116 84.914177 148.209686
v 102.265259 84.637093 147.987869
v 102.339378 84.226494 147.000931
v 102.348740 84.281120 147.362183
v 101.942284 85.573418 148.396683
v 102.067955 85.233536 148.349121
v 101.809677 85.910645 148.349121
v 103.584320 82.457664 153.822342
v 105.074715 83.026169 153.697754
v 105.074722 83.026169 153.697754
v 100.678528 87.155937 140.500076
v 102.168930 87.724442 140.375488
v 102.168922 87.724442 140.375488
v 101.341476 86.842628 147.000931
v 101.384842 86.808113 147.362183
v 100.674362 89.735252 152.219589
v 102.164757 90.303757 152.095001
v 109.533073 79.618820 140.114182
v 107.337608 86.571899 145.577927
v 107.512405 86.250763 146.203613
v 107.555771 86.216248 146.564865
v 107.437996 86.372070 145.866989
v 109.527504 83.057907 155.740219
v 107.565132 86.270874 146.926117
v 107.539856 86.410919 147.262741
v 107.481651 86.626846 147.551804
v 106.719131 88.144699 145.356110
v 106.631981 88.421783 145.577927
v 106.954964 87.485458 145.169113
v 107.087570 87.148232 145.216675
v 107.218086 86.836632 145.356110
v 106.829292 87.825340 145.216675
v 106.573784 88.637711 145.866989
v 106.548508 88.777756 146.203613
v 106.557869 88.832382 146.564865
v 105.168129 90.535202 137.710068
v 107.284348 87.223289 147.913055
v 107.158676 87.563171 147.960617
v 106.895554 88.211998 147.773621
v 106.776031 88.476730 147.551804
v 107.026070 87.900391 147.913055
v 106.601234 88.797867 146.926117
v 106.675636 88.676567 147.262741
v 105.162560 93.974289 153.336105
v 107.394508 86.903931 147.773621
vn -0.9315 -0.3553 0.0779
vn 0.3637 -0.9097 0.2003
vn 0.0004 -0.2149 -0.9766
vn -0.3638 0.9097 -0.2003
vn -0.0003 0.2149 0.9766
vn 0.9315 0.3553 -0.0779
vn -0.0912 -0.9726 0.2140
vn -0.4163 -0.3512 -0.8387
vn -0.7419 0.6548 -0.1444
vn -0.4169 0.0334 0.9083
vn -0.1187 0.0944 -0.9884
vn -0.2036 0.3319 -0.9211
vn -0.2747 0.5468 -0.7909
vn -0.3271 0.7244 -0.6069
vn -0.3571 0.8526 -0.3815
vn -0.3629 0.9227 -0.1301
vn -0.3438 0.9300 0.1301
vn -0.3014 0.8738 0.3815
vn -0.2384 0.7581 0.6069
vn -0.1593 0.5908 0.7909
vn -0.0692 0.3832 0.9211
vn 0.0256 0.1495 0.9884
vn 0.1187 -0.0944 0.9884
vn 0.2036 -0.3319 0.9211
vn 0.2746 -0.5468 0.7910
vn 0.3270 -0.7243 0.6070
vn 0.3571 -0.8526 0.3815
vn 0.3629 -0.9227 0.1301
vn 0.3438 -0.9300 -0.1301
vn 0.3014 -0.8738 -0.3815
vn 0.2385 -0.7581 -0.6069
vn 0.1593 -0.5908 -0.7909
vn 0.0692 -0.3832 -0.9211
vn -0.0256 -0.1495 -0.9884
vn -0.9315 -0.3552 0.0779
vn -0.9315 -0.3554 0.0779
vn -0.9316 -0.3551 0.0779
vn 0.0003 -0.2149 -0.9766
vn -0.3637 0.9097 -0.2003
vn -0.0000 -1.0000 -0.0000
vn -0.0000 0.9788 0.2049
vn 0.9315 0.3553 -0.0778
vn 0.9315 0.3554 -0.0779
vn 0.9315 0.3552 -0.0779
vn -0.0000 -0.8991 0.4378
vn -0.0000 -0.7071 -0.7071
vn -0.1186 0.0944 -0.9884
vn -0.3270 0.7243 -0.6070
vn -0.3628 0.9227 -0.1301
vn -0.3439 0.9300 0.1301
vn -0.1592 0.5908 0.7909
vn 0.1186 -0.0944 0.9884
vn 0.2747 -0.5468 0.7909
vn 0.3270 -0.7244 0.6069
vn 0.3628 -0.9227 0.1301
vn 0.3015 -0.8738 -0.3815
vn 0.1592 -0.5908 -0.7909
vt 0.000000 0.000000
vt 0.958333 0.807692
vt 1.000000 0.538461
vt 0.958333 0.538461
vt 0.916667 0.807693
vt 0.916667 0.538462
vt 0.875000 0.538462
vt 0.875000 0.807693
vt 0.833334 0.807692
vt 0.833333 0.538461
vt 0.833333 0.807692
vt 0.791667 0.538462
vt 0.791667 0.807693
vt 0.749998 0.807693
vt 0.750000 0.538462
vt 0.708334 0.807693
vt 0.708333 0.538462
vt 0.708333 0.807693
vt 0.666667 0.538462
vt 0.666667 0.807693
vt 0.625000 0.538462
vt 0.625000 0.807693
vt 0.583333 0.538461
vt 0.583333 0.807692
vt 0.541666 0.807692
vt 0.541666 0.538461
vt 0.500000 0.807693
vt 0.500000 0.538462
vt 0.458333 0.538462
vt 0.458333 0.807692
vt 0.416666 0.538461
vt 0.416666 0.807692
vt 0.375000 0.538462
vt 0.375000 0.807692
vt 0.333333 0.538461
vt 0.333332 0.807693
vt 0.333334 0.807693
vt 0.291667 0.538462
vt 0.291667 0.807692
vt 0.250000 0.538462
vt 0.250001 0.807692
vt 0.250000 0.807693
vt 0.208333 0.538461
vt 0.208333 0.807692
vt 0.166666 0.538461
vt 0.166666 0.807693
vt 0.125000 0.538462
vt 0.125000 0.807693
vt 0.083333 0.538462
vt 0.083333 0.807693
vt 0.041666 0.807693
vt 0.041666 0.538462
vt -0.000000 0.807693
vt -0.000000 0.538462
vt 1.000000 0.807693
vt 0.916667 0.538463
vt 0.875001 0.807692
vt 0.791668 0.807693
vt 0.750002 0.807693
vt 0.666667 0.538461
vt 0.333333 0.538462
s 0
f 9/1/1 10/1/1 12/1/1
f 14/1/1 16/1/1 33/1/1
f 13/1/2 25/1/2 12/1/2
f 29/1/3 12/1/3 28/1/3
f 28/1/4 34/1/4 30/1/4
f 25/1/5 26/1/5 33/1/5
f 47/1/6 48/1/6 35/1/6
f 58/1/6 56/1/6 61/1/6
f 27/1/7 35/1/7 40/1/7
f 29/1/8 53/1/8 35/1/8
f 53/1/9 34/1/9 61/1/9
f 26/1/10 61/1/10 34/1/10
f 23/2/11 55/3/11 54/4/11
f 18/5/12 54/4/12 62/6/12
f 18/5/13 43/7/13 19/8/13
f 17/9/14 43/7/14 42/10/14
f 17/11/15 41/12/15 21/13/15
f 20/14/16 41/12/16 38/15/16
f 8/16/17 38/15/17 37/17/17
f 8/18/18 39/19/18 9/20/18
f 9/20/19 36/21/19 10/22/19
f 10/22/20 48/23/20 7/24/20
f 11/25/21 48/23/21 47/26/21
f 2/27/22 47/26/22 46/28/22
f 2/27/23 49/29/23 1/30/23
f 1/30/24 44/31/24 3/32/24
f 3/32/25 45/33/25 4/34/25
f 4/34/26 50/35/26 5/36/26
f 5/37/27 51/38/27 6/39/27
f 6/39/28 52/40/28 31/41/28
f 31/42/29 59/43/29 32/44/29
f 32/44/30 60/45/30 14/46/30
f 14/46/31 57/47/31 16/48/31
f 16/48/32 56/49/32 15/50/32
f 24/51/33 56/49/33 58/52/33
f 22/53/34 58/52/34 55/54/34
f 4/1/35 5/1/35 28/1/35
f 25/1/1 33/1/1 23/1/1
f 25/1/1 23/1/1 18/1/1
f 3/1/36 4/1/36 28/1/36
f 1/1/1 3/1/1 28/1/1
f 25/1/1 18/1/1 19/1/1
f 25/1/1 19/1/1 17/1/1
f 1/1/1 28/1/1 12/1/1
f 2/1/1 1/1/1 12/1/1
f 12/1/1 25/1/1 17/1/1
f 12/1/36 17/1/36 21/1/36
f 11/1/1 2/1/1 12/1/1
f 7/1/1 11/1/1 12/1/1
f 12/1/1 21/1/1 20/1/1
f 12/1/1 20/1/1 8/1/1
f 10/1/1 7/1/1 12/1/1
f 12/1/1 8/1/1 9/1/1
f 33/1/1 28/1/1 5/1/1
f 33/1/37 5/1/37 6/1/37
f 22/1/1 23/1/1 33/1/1
f 24/1/1 22/1/1 33/1/1
f 33/1/36 6/1/36 31/1/36
f 33/1/1 31/1/1 32/1/1
f 15/1/1 24/1/1 33/1/1
f 16/1/1 15/1/1 33/1/1
f 33/1/1 32/1/1 14/1/1
f 13/1/2 27/1/2 25/1/2
f 29/1/38 13/1/38 12/1/38
f 28/1/39 33/1/39 34/1/39
f 30/1/40 29/1/40 28/1/40
f 25/1/41 27/1/41 26/1/41
f 26/1/5 34/1/5 33/1/5
f 62/1/6 54/1/6 40/1/6
f 61/1/42 60/1/42 59/1/42
f 61/1/6 59/1/6 52/1/6
f 43/1/6 62/1/6 40/1/6
f 42/1/6 43/1/6 40/1/6
f 53/1/6 61/1/6 52/1/6
f 53/1/43 52/1/43 51/1/43
f 42/1/6 40/1/6 35/1/6
f 41/1/6 42/1/6 35/1/6
f 53/1/44 51/1/44 50/1/44
f 53/1/6 50/1/6 45/1/6
f 38/1/43 41/1/43 35/1/43
f 37/1/6 38/1/6 35/1/6
f 53/1/6 45/1/6 44/1/6
f 53/1/6 44/1/6 49/1/6
f 39/1/6 37/1/6 35/1/6
f 36/1/6 39/1/6 35/1/6
f 35/1/6 53/1/6 49/1/6
f 35/1/6 49/1/6 46/1/6
f 48/1/6 36/1/6 35/1/6
f 35/1/44 46/1/44 47/1/44
f 61/1/6 40/1/6 54/1/6
f 61/1/6 54/1/6 55/1/6
f 57/1/6 60/1/6 61/1/6
f 56/1/6 57/1/6 61/1/6
f 61/1/6 55/1/6 58/1/6
f 40/1/45 26/1/45 27/1/45
f 27/1/7 13/1/7 35/1/7
f 35/1/8 13/1/8 29/1/8
f 29/1/46 30/1/46 53/1/46
f 53/1/9 30/1/9 34/1/9
f 26/1/10 40/1/10 61/1/10
f 23/2/47 22/55/47 55/3/47
f 18/5/12 23/2/12 54/4/12
f 18/5/13 62/56/13 43/7/13
f 17/9/48 19/57/48 43/7/48
f 17/11/15 42/10/15 41/12/15
f 20/14/49 21/58/49 41/12/49
f 8/16/50 20/59/50 38/15/50
f 8/18/18 37/17/18 39/19/18
f 9/20/19 39/60/19 36/21/19
f 10/22/51 36/21/51 48/23/51
f 11/25/21 7/24/21 48/23/21
f 2/27/22 11/25/22 47/26/22
f 2/27/52 46/28/52 49/29/52
f 1/30/24 49/29/24 44/31/24
f 3/32/53 44/31/53 45/33/53
f 4/34/54 45/33/54 50/35/54
f 5/37/27 50/61/27 51/38/27
f 6/39/55 51/38/55 52/40/55
f 31/42/29 52/40/29 59/43/29
f 32/44/56 59/43/56 60/45/56
f 14/46/31 60/45/31 57/47/31
f 16/48/57 57/47/57 56/49/57
f 24/51/33 15/50/33 56/49/33
f 22/53/34 24/51/34 58/52/34
