# Blender 5.2.0 LTS
# www.blender.org
o PROPOSED__RIGHT_LOWER_EYE_FLANGE__ROOT_ADDITION_V1
v 50.867416 64.355370 127.406990
v 53.777374 57.077778 129.009735
v 53.851837 57.535984 130.955109
v 50.941879 64.813576 129.352356
v 74.253967 64.697533 126.431252
v 65.617516 66.508385 126.335304
v 68.010986 66.119423 126.335304
v 68.042778 66.169716 126.322243
v 68.201721 66.421165 126.256935
v 65.532150 66.855003 126.256935
v 65.645218 67.550774 126.088722
v 65.541595 67.210541 126.172829
v 66.100800 68.095207 125.943054
v 66.421707 68.262306 125.891411
v 66.776810 68.342422 125.858955
v 65.835953 67.852516 126.010353
v 68.314789 67.116943 126.088730
v 68.305344 66.761398 126.172829
v 68.229424 67.463554 126.010353
v 67.141907 68.330101 125.847878
v 67.492119 68.226181 125.858955
v 68.055061 67.777618 125.943054
v 67.803574 68.037743 125.891411
v 67.751663 68.069153 125.886002
v 66.705032 65.641838 126.497780
v 65.791885 66.194321 126.402603
v 66.043365 65.934204 126.454247
v 66.354820 65.745758 126.486710
v 67.070129 65.629517 126.486710
v 67.425232 65.709633 126.454247
v 67.746140 65.876732 126.402603
v 66.175262 68.553413 127.888420
v 67.878036 68.495949 127.836784
v 68.129524 68.235825 127.888420
v 66.496170 68.720512 127.836784
v 66.851273 68.800629 127.804321
v 67.216370 68.788307 127.793243
v 67.566582 68.684387 127.804321
v 71.344009 71.975121 124.828514
v 71.418472 72.433327 126.773880
v 65.866348 66.652519 128.347977
v 66.117828 66.392403 128.399612
v 66.779495 66.100044 128.443146
v 66.429283 66.203964 128.432068
v 67.144592 66.087723 128.432068
v 67.499695 66.167839 128.399612
v 67.820602 66.334930 128.347977
v 68.085449 66.577629 128.280670
v 65.606613 67.313202 128.202301
v 65.691978 66.966591 128.280670
v 65.719681 68.008980 128.034088
v 65.616058 67.668747 128.118195
v 65.910416 68.310722 127.955719
v 68.276184 66.879372 128.202301
v 68.389252 67.575150 128.034088
v 68.379807 67.219604 128.118195
v 68.303886 67.921761 127.955719
v 74.328430 65.155739 128.376617
vn -0.0373 -0.2291 -0.9727
vn -0.0372 -0.2291 -0.9727
vn 0.0372 0.2291 0.9727
vn 0.3637 -0.9097 0.2003
vn -0.9308 -0.3463 0.1172
vn -0.3637 0.9097 -0.2003
vn 0.9308 0.3464 -0.1172
vn 0.2835 0.9309 -0.2301
vn 0.5219 0.8256 -0.2144
vn 0.7247 0.6640 -0.1841
vn 0.8781 0.4572 -0.1413
vn 0.9716 0.2192 -0.0888
vn 0.9990 -0.0337 -0.0303
vn 0.9582 -0.2844 0.0303
vn 0.8522 -0.5156 0.0888
vn 0.6881 -0.7117 0.1413
vn 0.4771 -0.8593 0.1842
vn 0.2336 -0.9484 0.2144
vn -0.0258 -0.9728 0.2301
vn -0.2835 -0.9309 0.2301
vn -0.5219 -0.8256 0.2145
vn -0.7247 -0.6640 0.1841
vn -0.8781 -0.4572 0.1413
vn -0.9716 -0.2192 0.0888
vn -0.9990 0.0337 0.0303
vn -0.9582 0.2844 -0.0303
vn -0.8522 0.5156 -0.0888
vn -0.6881 0.7117 -0.1413
vn -0.4771 0.8593 -0.1841
vn -0.2336 0.9484 -0.2144
vn 0.0259 0.9728 -0.2301
vn -0.0365 -0.2280 -0.9730
vn -0.0372 -0.2289 -0.9727
vn 0.0373 0.2291 0.9727
vn 0.0372 0.2292 0.9727
vn 0.0373 0.2292 0.9727
vn -0.9308 -0.3464 0.1172
vn 0.9582 -0.2843 0.0303
vn 0.4771 -0.8593 0.1841
vn 0.2336 -0.9484 0.2145
vn -0.5219 -0.8256 0.2144
vn -0.7246 -0.6641 0.1841
vn -0.0000 -0.7071 -0.7071
vn -0.4771 0.8594 -0.1841
vn 0.0258 0.9728 -0.2301
vt 0.000000 0.000000
vt 0.958333 0.916667
vt 1.000000 0.999999
vt 1.000000 0.916666
vt 0.916667 0.916666
vt 0.958333 0.999999
vt 0.875000 0.999999
vt 0.916667 0.916667
vt 0.875000 0.916667
vt 0.833333 0.916666
vt 0.791667 0.916666
vt 0.833333 0.999999
vt 0.750000 0.999999
vt 0.791667 0.916667
vt 0.750000 0.916667
vt 0.708333 0.999999
vt 0.666667 0.916667
vt 0.708333 0.916667
vt 0.625000 0.916667
vt 0.666667 0.999999
vt 0.583333 0.916667
vt 0.625000 0.999999
vt 0.541666 0.916667
vt 0.583333 1.000000
vt 0.500000 0.999999
vt 0.541666 0.999999
vt 0.458333 0.916668
vt 0.500000 0.916667
vt 0.423611 0.916667
vt 0.416666 0.999999
vt 0.458333 0.916667
vt 0.375000 0.999999
vt 0.416666 0.916667
vt 0.375000 0.916667
vt 0.333333 0.999999
vt 0.333333 0.916667
vt 0.291667 1.000000
vt 0.291667 0.916667
vt 0.250000 1.000000
vt 0.250000 0.916667
vt 0.208333 0.916667
vt 0.250000 0.999999
vt 0.166666 0.916666
vt 0.208333 0.999999
vt 0.125000 0.916666
vt 0.166666 0.999999
vt 0.083333 1.000000
vt 0.083333 0.916667
vt 0.041666 0.916667
vt 0.083333 0.999999
vt -0.000000 0.916667
vt 0.041666 0.999999
vt 0.916667 0.999999
vt 0.791667 0.999999
vt 0.458333 1.000000
vt 0.291667 0.999999
vt 0.208334 1.000000
vt 0.173611 0.916667
vt 0.166667 1.000000
vt 0.125000 0.999999
vt 0.041667 1.000000
vt -0.000000 1.000000
s 0
f 5/1/1 19/1/1 22/1/1
f 10/1/2 6/1/2 1/1/2
f 34/1/3 57/1/3 40/1/3
f 42/1/3 41/1/3 4/1/3
f 2/1/4 58/1/4 3/1/4
f 3/1/5 1/1/5 2/1/5
f 4/1/6 39/1/6 1/1/6
f 58/1/7 39/1/7 40/1/7
f 28/2/8 43/3/8 25/4/8
f 27/5/9 44/6/9 28/2/9
f 41/7/10 27/8/10 26/9/10
f 6/10/11 41/7/11 26/9/11
f 10/11/12 50/12/12 6/10/12
f 52/13/13 10/14/13 12/15/13
f 12/15/14 51/16/14 52/13/14
f 16/17/15 51/16/15 11/18/15
f 13/19/16 53/20/16 16/17/16
f 14/21/17 32/22/17 13/19/17
f 15/23/18 35/24/18 14/21/18
f 15/23/19 37/25/19 36/26/19
f 21/27/20 37/25/20 20/28/20
f 24/29/21 33/30/21 21/31/21
f 34/32/22 23/33/22 22/34/22
f 57/35/23 22/34/23 19/36/23
f 55/37/24 19/36/24 17/38/24
f 56/39/25 17/38/25 18/40/25
f 9/41/26 56/42/26 18/40/26
f 7/43/27 54/44/27 9/41/27
f 31/45/28 48/46/28 7/43/28
f 46/47/29 31/45/29 30/48/29
f 29/49/30 46/50/30 30/48/30
f 25/51/31 45/52/31 29/49/31
f 5/1/2 8/1/2 9/1/2
f 5/1/2 9/1/2 18/1/2
f 24/1/2 39/1/2 5/1/2
f 23/1/32 24/1/32 5/1/32
f 5/1/2 18/1/2 17/1/2
f 5/1/1 17/1/1 19/1/1
f 22/1/2 23/1/2 5/1/2
f 7/1/1 8/1/1 5/1/1
f 5/1/2 2/1/2 1/1/2
f 39/1/2 24/1/2 21/1/2
f 39/1/2 21/1/2 20/1/2
f 31/1/2 7/1/2 5/1/2
f 30/1/2 31/1/2 5/1/2
f 39/1/2 20/1/2 15/1/2
f 39/1/2 15/1/2 14/1/2
f 29/1/2 30/1/2 5/1/2
f 25/1/33 29/1/33 5/1/33
f 1/1/2 39/1/2 14/1/2
f 1/1/1 14/1/1 13/1/1
f 25/1/2 5/1/2 1/1/2
f 28/1/2 25/1/2 1/1/2
f 1/1/2 13/1/2 16/1/2
f 1/1/2 16/1/2 11/1/2
f 27/1/2 28/1/2 1/1/2
f 26/1/2 27/1/2 1/1/2
f 1/1/2 11/1/2 12/1/2
f 1/1/2 12/1/2 10/1/2
f 6/1/2 26/1/2 1/1/2
f 54/1/3 48/1/3 58/1/3
f 40/1/3 35/1/3 36/1/3
f 40/1/3 36/1/3 37/1/3
f 54/1/3 58/1/3 40/1/3
f 56/1/34 54/1/34 40/1/34
f 40/1/3 37/1/3 38/1/3
f 40/1/3 38/1/3 33/1/3
f 55/1/3 56/1/3 40/1/3
f 57/1/34 55/1/34 40/1/34
f 40/1/3 33/1/3 34/1/3
f 32/1/35 35/1/35 40/1/35
f 4/1/3 3/1/3 58/1/3
f 58/1/3 48/1/3 47/1/3
f 58/1/3 47/1/3 46/1/3
f 32/1/3 40/1/3 4/1/3
f 53/1/3 32/1/3 4/1/3
f 58/1/3 46/1/3 45/1/3
f 58/1/36 45/1/36 43/1/36
f 51/1/3 53/1/3 4/1/3
f 52/1/3 51/1/3 4/1/3
f 4/1/3 58/1/3 43/1/3
f 4/1/3 43/1/3 44/1/3
f 49/1/3 52/1/3 4/1/3
f 50/1/3 49/1/3 4/1/3
f 4/1/3 44/1/3 42/1/3
f 41/1/3 50/1/3 4/1/3
f 2/1/4 5/1/4 58/1/4
f 3/1/37 4/1/37 1/1/37
f 4/1/6 40/1/6 39/1/6
f 58/1/7 5/1/7 39/1/7
f 28/2/8 44/6/8 43/3/8
f 27/5/9 42/53/9 44/6/9
f 41/7/10 42/53/10 27/8/10
f 6/10/11 50/12/11 41/7/11
f 10/11/12 49/54/12 50/12/12
f 52/13/13 49/54/13 10/14/13
f 12/15/38 11/18/38 51/16/38
f 16/17/15 53/20/15 51/16/15
f 13/19/16 32/22/16 53/20/16
f 14/21/39 35/24/39 32/22/39
f 15/23/40 36/26/40 35/24/40
f 15/23/19 20/28/19 37/25/19
f 21/27/20 38/55/20 37/25/20
f 24/29/41 23/33/41 33/30/41
f 33/30/41 38/55/41 21/31/41
f 34/32/42 33/30/42 23/33/42
f 57/35/23 34/32/23 22/34/23
f 55/37/24 57/35/24 19/36/24
f 56/39/25 55/56/25 17/38/25
f 9/41/26 54/57/26 56/42/26
f 9/41/43 8/58/43 7/43/43
f 7/43/27 48/59/27 54/44/27
f 31/45/28 47/60/28 48/46/28
f 46/47/44 47/60/44 31/45/44
f 29/49/30 45/61/30 46/50/30
f 25/51/45 43/62/45 45/52/45
