# Blender 5.2.0 LTS
# www.blender.org
o PROPOSED__RIGHT_OUTER_EYE_FLANGE__ROOT_ADDITION_V1
v 94.516510 83.490105 146.376190
v 94.626671 83.170746 146.236755
v 94.752335 82.830864 146.189194
v 94.692932 83.557404 148.793701
v 94.823441 83.245804 148.933136
v 95.134987 81.917305 146.598007
v 95.015457 82.182037 146.376190
v 94.884949 82.493637 146.236755
v 95.235374 81.717468 146.887070
v 95.309784 81.596169 147.223694
v 95.353149 81.561653 147.584946
v 95.362511 81.616280 147.946198
v 95.279030 81.972244 148.571884
v 95.337227 81.756325 148.282822
v 95.081718 82.568695 148.933136
v 94.956055 82.908569 148.980698
v 95.191879 82.249329 148.793701
v 93.692291 84.491096 141.084091
v 94.429359 83.767189 146.598007
v 94.345879 84.123161 147.223694
v 94.371162 83.983116 146.887070
v 94.355240 84.177788 147.584946
v 94.398605 84.143272 147.946198
v 94.573410 83.822136 148.571884
v 94.473015 84.021965 148.282822
v 95.555283 85.201721 140.928360
v 93.684647 89.219841 162.569870
v 95.547638 89.930466 162.414139
v 96.602249 77.213509 142.686844
v 96.615326 83.541489 146.033463
v 96.747932 83.204254 146.081024
v 96.878448 82.892662 146.220459
v 96.997971 82.627922 146.442276
v 97.098358 82.428093 146.731339
v 96.944710 83.279320 148.777405
v 97.172768 82.306786 147.067963
v 97.216133 82.272270 147.429214
v 97.225494 82.326897 147.790466
v 97.200218 82.466949 148.127090
v 97.142021 82.682869 148.416153
v 97.054871 82.959953 148.637970
v 98.465240 77.924133 142.531113
v 96.594604 81.942253 164.172623
v 98.457596 82.652878 164.016891
v 96.292343 84.477814 146.442276
v 96.234146 84.693733 146.731339
v 96.489655 83.881363 146.081024
v 96.379494 84.200729 146.220459
v 96.208870 84.833786 147.067963
v 96.218231 84.888412 147.429214
v 96.336006 84.732590 148.127090
v 96.261597 84.853897 147.790466
v 96.555916 84.268021 148.637970
v 96.436394 84.532753 148.416153
v 96.686432 83.956429 148.777405
v 96.819038 83.619194 148.824966
vn 0.9315 0.3553 -0.0779
vn -0.9315 -0.3553 0.0779
vn 0.3637 -0.9097 0.2003
vn 0.0003 -0.2149 -0.9766
vn -0.3637 0.9097 -0.2003
vn -0.0004 0.2149 0.9766
vn -0.1187 0.0944 -0.9884
vn -0.2036 0.3319 -0.9211
vn -0.2747 0.5468 -0.7909
vn -0.3270 0.7243 -0.6069
vn -0.3571 0.8526 -0.3815
vn -0.3629 0.9227 -0.1301
vn -0.3438 0.9300 0.1301
vn -0.3014 0.8738 0.3815
vn -0.2384 0.7582 0.6069
vn -0.1593 0.5908 0.7909
vn -0.0692 0.3832 0.9211
vn 0.0256 0.1495 0.9884
vn 0.1186 -0.0944 0.9884
vn 0.2036 -0.3319 0.9211
vn 0.2747 -0.5468 0.7909
vn 0.3270 -0.7244 0.6069
vn 0.3571 -0.8526 0.3815
vn 0.3629 -0.9227 0.1301
vn 0.3438 -0.9300 -0.1301
vn 0.3014 -0.8738 -0.3815
vn 0.2385 -0.7581 -0.6069
vn 0.1593 -0.5908 -0.7909
vn 0.0692 -0.3832 -0.9211
vn -0.0256 -0.1495 -0.9884
vn 0.9315 0.3554 -0.0779
vn 0.9314 0.3554 -0.0779
vn 0.9314 0.3555 -0.0779
vn 0.9315 0.3553 -0.0778
vn 0.0004 -0.2149 -0.9766
vn -0.1186 0.0944 -0.9884
vn -0.3270 0.7244 -0.6069
vn -0.3628 0.9227 -0.1301
vn -0.3439 0.9300 0.1301
vn -0.3015 0.8738 0.3815
vn -0.2385 0.7581 0.6069
vn -0.1592 0.5908 0.7909
vn 0.2747 -0.5468 0.7910
vn 0.3270 -0.7243 0.6070
vn 0.3628 -0.9227 0.1301
vn 0.3439 -0.9300 -0.1301
vn 0.2385 -0.7582 -0.6069
vn 0.1592 -0.5908 -0.7909
vn 0.9314 0.3555 -0.0778
vn 0.9314 0.3555 -0.0780
vn 0.9316 0.3551 -0.0779
vn 0.9315 0.3555 -0.0777
vn 0.9315 0.3552 -0.0779
vn 0.9314 0.3556 -0.0779
vt 0.000000 0.000000
vt 0.958333 1.000000
vt 1.000000 0.916667
vt 0.958333 0.916667
vt 0.916667 0.916667
vt 0.916667 1.000000
vt 0.875000 1.000000
vt 0.875000 0.916667
vt 0.833333 0.916667
vt 0.833333 1.000000
vt 0.791667 0.916667
vt 0.791667 1.000000
vt 0.750000 0.916667
vt 0.750000 1.000000
vt 0.708333 0.916667
vt 0.708333 1.000000
vt 0.666667 0.916667
vt 0.666667 1.000000
vt 0.625000 0.916667
vt 0.625000 1.000000
vt 0.583333 0.916667
vt 0.583333 1.000000
vt 0.541666 1.000000
vt 0.541666 0.916667
vt 0.500000 0.916667
vt 0.500000 1.000000
vt 0.458333 1.000000
vt 0.458333 0.916667
vt 0.416666 0.916667
vt 0.416666 1.000000
vt 0.375000 0.916667
vt 0.375000 1.000000
vt 0.333333 1.000000
vt 0.333333 0.916667
vt 0.291667 1.000000
vt 0.291667 0.916667
vt 0.250000 1.000000
vt 0.250000 0.916667
vt 0.208333 1.000000
vt 0.208333 0.916667
vt 0.166666 0.916667
vt 0.166666 1.000000
vt 0.125000 1.000000
vt 0.125000 0.916667
vt 0.083333 1.000000
vt 0.083333 0.916668
vt 0.490000 0.250000
vt 0.130000 0.042154
vt 0.130000 0.457846
vt 0.041666 1.000000
vt 0.041666 0.916667
vt -0.000000 1.000000
vt -0.000000 0.916667
vt 1.000000 1.000000
vt 0.187883 0.481822
vt 0.250000 0.490000
vt 0.312117 0.481822
vt 0.370000 0.457846
vt 0.419706 0.419706
vt 0.457846 0.370000
vt 0.481822 0.312117
vt 0.481822 0.187883
vt 0.457846 0.130000
vt 0.419706 0.080294
vt 0.370000 0.042154
vt 0.312117 0.018178
vt 0.250000 0.010000
vt 0.187883 0.018178
vt 0.080294 0.080294
vt 0.042154 0.130000
vt 0.018178 0.187883
vt 0.010000 0.250000
vt 0.018178 0.312117
vt 0.042154 0.370000
vt 0.080294 0.419706
s 0
f 42/1/1 32/1/1 33/1/1
f 28/1/1 53/1/1 54/1/1
f 29/1/2 27/1/2 18/1/2
f 42/1/3 43/1/3 29/1/3
f 18/1/4 42/1/4 29/1/4
f 26/1/5 27/1/5 28/1/5
f 27/1/6 44/1/6 28/1/6
f 15/2/7 56/3/7 35/4/7
f 15/2/8 41/5/8 17/6/8
f 13/7/9 41/5/9 40/8/9
f 13/7/10 39/9/10 14/10/10
f 14/10/11 38/11/11 12/12/11
f 12/12/12 37/13/12 11/14/12
f 11/14/13 36/15/13 10/16/13
f 10/16/14 34/17/14 9/18/14
f 9/18/15 33/19/15 6/20/15
f 6/20/16 32/21/16 7/22/16
f 8/23/17 32/21/17 31/24/17
f 8/23/18 30/25/18 3/26/18
f 2/27/19 30/25/19 47/28/19
f 2/27/20 48/29/20 1/30/20
f 1/30/21 45/31/21 19/32/21
f 21/33/22 45/31/22 46/34/22
f 20/35/23 46/34/23 49/36/23
f 22/37/24 49/36/24 50/38/24
f 23/39/25 50/38/25 52/40/25
f 23/39/26 51/41/26 25/42/26
f 24/43/27 51/41/27 54/44/27
f 4/45/28 54/44/28 53/46/28
f 11/47/1 1/48/1 4/49/1
f 5/50/29 53/46/29 55/51/29
f 16/52/30 55/51/30 56/53/30
f 28/1/31 54/1/31 51/1/31
f 28/1/1 51/1/1 52/1/1
f 55/1/1 53/1/1 44/1/1
f 56/1/1 55/1/1 44/1/1
f 28/1/1 52/1/1 50/1/1
f 28/1/1 50/1/1 49/1/1
f 35/1/1 56/1/1 44/1/1
f 41/1/1 35/1/1 44/1/1
f 26/1/1 28/1/1 49/1/1
f 26/1/1 49/1/1 46/1/1
f 40/1/1 41/1/1 44/1/1
f 39/1/1 40/1/1 44/1/1
f 26/1/1 46/1/1 45/1/1
f 26/1/1 45/1/1 48/1/1
f 39/1/1 44/1/1 42/1/1
f 38/1/32 39/1/32 42/1/32
f 42/1/1 26/1/1 48/1/1
f 42/1/33 48/1/33 47/1/33
f 37/1/31 38/1/31 42/1/31
f 36/1/1 37/1/1 42/1/1
f 42/1/1 47/1/1 30/1/1
f 42/1/34 30/1/34 31/1/34
f 34/1/1 36/1/1 42/1/1
f 33/1/1 34/1/1 42/1/1
f 42/1/1 31/1/1 32/1/1
f 28/1/1 44/1/1 53/1/1
f 29/1/2 43/1/2 27/1/2
f 42/1/3 44/1/3 43/1/3
f 18/1/35 26/1/35 42/1/35
f 26/1/5 18/1/5 27/1/5
f 27/1/6 43/1/6 44/1/6
f 15/2/36 16/54/36 56/3/36
f 15/2/8 35/4/8 41/5/8
f 13/7/9 17/6/9 41/5/9
f 13/7/37 40/8/37 39/9/37
f 14/10/11 39/9/11 38/11/11
f 12/12/38 38/11/38 37/13/38
f 11/14/39 37/13/39 36/15/39
f 10/16/40 36/15/40 34/17/40
f 9/18/41 34/17/41 33/19/41
f 6/20/42 33/19/42 32/21/42
f 8/23/17 7/22/17 32/21/17
f 8/23/18 31/24/18 30/25/18
f 2/27/19 3/26/19 30/25/19
f 2/27/20 47/28/20 48/29/20
f 1/30/43 48/29/43 45/31/43
f 21/33/44 19/32/44 45/31/44
f 20/35/23 21/33/23 46/34/23
f 22/37/45 20/35/45 49/36/45
f 23/39/46 22/37/46 50/38/46
f 23/39/26 52/40/26 51/41/26
f 24/43/47 25/42/47 51/41/47
f 4/45/48 24/43/48 54/44/48
f 4/49/49 5/55/49 16/56/49
f 16/56/50 15/57/50 17/58/50
f 17/58/51 13/59/51 14/60/51
f 14/60/33 12/61/33 11/47/33
f 11/47/31 10/62/31 9/63/31
f 9/63/34 6/64/34 7/65/34
f 7/65/33 8/66/33 3/67/33
f 3/67/52 2/68/52 1/48/52
f 1/48/31 19/69/31 21/70/31
f 21/70/1 20/71/1 22/72/1
f 22/72/53 23/73/53 25/74/53
f 25/74/54 24/75/54 4/49/54
f 4/49/1 16/56/1 17/58/1
f 17/58/1 14/60/1 11/47/1
f 11/47/1 9/63/1 7/65/1
f 7/65/1 3/67/1 1/48/1
f 1/48/1 21/70/1 22/72/1
f 22/72/34 25/74/34 4/49/34
f 4/49/1 17/58/1 11/47/1
f 11/47/1 7/65/1 1/48/1
f 1/48/1 22/72/1 4/49/1
f 5/50/29 4/45/29 53/46/29
f 16/52/30 5/50/30 55/51/30
