# Blender 5.2.0 LTS
# www.blender.org
o PROPOSED__RIGHT_LOWER_EYE_FLANGE__FLANGE_WITH_ROOT_EMBED_V1
v 62.891312 59.349972 122.779701
v 65.423912 65.317055 121.277306
v 65.849762 64.742874 121.396248
v 65.598282 65.002991 121.344604
v 65.338547 65.663666 121.198936
v 65.347992 66.019211 121.114830
v 66.161217 64.554428 121.428711
v 66.511429 64.450508 121.439781
v 66.876526 64.438187 121.428711
v 61.965794 58.120838 128.861862
v 62.950882 59.716534 124.336014
v 62.950882 59.716537 124.336006
v 65.806778 66.285965 126.791672
v 66.058258 66.025848 126.843315
v 66.369713 65.837402 126.875778
v 66.719925 65.733482 126.886848
v 67.085022 65.721161 126.875778
v 59.981354 66.627563 121.176964
v 60.040924 66.994133 122.733269
v 65.907196 66.903877 120.885063
v 66.228104 67.070976 120.833420
v 66.583206 67.151093 120.800957
v 66.948303 67.138771 120.789886
v 65.451614 66.359444 121.030731
v 65.642349 66.661186 120.952362
v 57.600849 69.037231 126.457748
v 65.556488 67.302185 126.561897
v 65.660110 67.642418 126.477798
v 65.850845 67.944160 126.399429
v 66.436600 68.353951 126.280487
v 66.115692 68.186852 126.332130
v 66.791702 68.434067 126.248024
v 67.156799 68.421745 126.236954
v 65.632408 66.600029 126.724373
v 65.547043 66.946640 126.646004
v 67.231628 64.518303 121.396248
v 67.552536 64.685402 121.344612
v 67.817383 64.928093 121.277306
v 68.008118 65.229836 121.198936
v 68.111740 65.570068 121.114838
v 68.121185 65.925613 121.030731
v 68.035820 66.272224 120.952362
v 74.060364 63.506203 121.373253
v 74.119934 63.872765 122.929565
v 74.119934 63.872768 122.929558
v 67.440125 65.801277 126.843315
v 67.761032 65.968376 126.791679
v 68.025879 66.211067 126.724380
v 76.857857 63.662479 126.986603
v 67.609970 66.846413 120.833420
v 67.706696 66.746361 120.853279
v 67.298515 67.034851 120.800957
v 67.861450 66.586288 120.885063
v 67.973114 66.385170 120.928154
v 71.150406 70.783791 119.770515
v 71.209976 71.150360 121.326820
v 68.320236 66.853043 126.561905
v 68.329681 67.208588 126.477798
v 67.507011 68.317825 126.248024
v 67.818466 68.129387 126.280487
v 68.069946 67.869263 126.332130
v 68.244316 67.555199 126.399429
v 68.216614 66.512810 126.646004
v 72.492912 74.578873 124.582489
vn -0.0373 -0.2291 -0.9727
vn -0.0372 -0.2291 -0.9727
vn 0.3637 -0.9097 0.2003
vn -0.9308 -0.3464 0.1172
vn -0.3637 0.9097 -0.2003
vn 0.9308 0.3464 -0.1172
vn 0.0372 0.2291 0.9727
vn 0.3087 -0.9161 -0.2558
vn -0.8491 -0.4122 -0.3302
vn -0.3420 0.7112 -0.6142
vn 0.8158 0.2073 -0.5398
vn 0.2835 0.9309 -0.2301
vn 0.5219 0.8256 -0.2144
vn 0.7247 0.6640 -0.1841
vn 0.8781 0.4572 -0.1413
vn 0.9716 0.2192 -0.0888
vn 0.9990 -0.0337 -0.0303
vn 0.9582 -0.2843 0.0303
vn 0.8522 -0.5156 0.0888
vn 0.6881 -0.7117 0.1413
vn 0.4771 -0.8593 0.1841
vn 0.2336 -0.9484 0.2144
vn -0.0258 -0.9728 0.2301
vn -0.2835 -0.9309 0.2301
vn -0.5219 -0.8256 0.2144
vn -0.7247 -0.6640 0.1841
vn -0.8781 -0.4572 0.1413
vn -0.9716 -0.2192 0.0888
vn -0.9990 0.0337 0.0303
vn -0.9582 0.2844 -0.0303
vn -0.8522 0.5156 -0.0888
vn -0.6881 0.7117 -0.1413
vn -0.4771 0.8594 -0.1841
vn -0.2336 0.9484 -0.2144
vn 0.0258 0.9728 -0.2301
vn -0.0374 -0.2292 -0.9727
vn -0.0375 -0.2290 -0.9727
vn -0.0000 0.4472 0.8944
vn 1.0000 -0.0000 -0.0000
vn 0.0373 0.2291 0.9727
vn 0.0371 0.2291 0.9727
vn -0.4472 -0.8944 -0.0000
vn 0.9582 -0.2844 0.0303
vn -0.0259 -0.9728 0.2301
vn -0.2835 -0.9310 0.2301
vn -0.0000 -0.1644 0.9864
vn -0.8780 -0.4573 0.1413
vn -0.8780 -0.4572 0.1413
vn -0.4771 0.8593 -0.1841
vn 0.0259 0.9728 -0.2301
vt 0.000000 0.000000
vt 0.958333 0.692307
vt 1.000000 0.961538
vt 1.000000 0.692307
vt 0.916667 0.961539
vt 0.916667 0.692307
vt 0.875000 0.961538
vt 0.875000 0.692307
vt 0.833333 0.692307
vt 0.791667 0.961537
vt 0.833333 0.961538
vt 0.750000 0.692307
vt 0.791667 0.692307
vt 0.708333 0.692308
vt 0.750000 0.961538
vt 0.666667 0.961538
vt 0.708333 0.961539
vt 0.666667 0.692307
vt 0.625000 0.961539
vt 0.625000 0.692308
vt 0.583333 0.961538
vt 0.541666 0.692307
vt 0.583333 0.961539
vt 0.583333 0.692308
vt 0.500000 0.961538
vt 0.541666 0.961538
vt 0.458333 0.692308
vt 0.458333 0.961539
vt 0.416666 0.961539
vt 0.416666 0.692308
vt 0.375000 0.692308
vt 0.348318 0.692307
vt 0.333333 0.961538
vt 0.375000 0.961538
vt 0.291667 0.692307
vt 0.333333 0.692307
vt 0.250000 0.692308
vt 0.291667 0.961538
vt 0.208333 0.961538
vt 0.250000 0.961539
vt 0.166666 0.692308
vt 0.208333 0.692307
vt 0.125000 0.692308
vt 0.166666 0.961539
vt 0.083333 0.692307
vt 0.125000 0.961538
vt 0.041666 0.961538
vt 0.041666 0.692307
vt -0.000000 0.961538
vt -0.000000 0.692307
vt 0.958333 0.961538
vt 0.541666 0.961539
vt 0.500000 0.692308
vt 0.400641 0.692307
vt 0.083333 0.961539
s 0
f 2/1/1 4/1/1 1/1/1
f 54/1/2 53/1/2 55/1/2
f 1/1/3 44/1/3 11/1/3
f 11/1/4 19/1/4 18/1/4
f 19/1/5 55/1/5 18/1/5
f 43/1/6 56/1/6 45/1/6
f 13/1/7 34/1/7 10/1/7
f 61/1/7 62/1/7 64/1/7
f 11/1/8 44/1/8 49/1/8
f 12/1/9 10/1/9 19/1/9
f 19/1/10 64/1/10 56/1/10
f 45/1/11 64/1/11 49/1/11
f 7/2/12 16/3/12 8/4/12
f 14/5/13 7/2/13 3/6/13
f 13/7/14 3/6/14 4/8/14
f 2/9/15 13/7/15 4/8/15
f 2/9/16 35/10/16 34/11/16
f 6/12/17 35/10/17 5/13/17
f 24/14/18 27/15/18 6/12/18
f 24/14/19 29/16/19 28/17/19
f 25/18/20 31/19/20 29/16/20
f 20/20/21 30/21/21 31/19/21
f 22/22/22 30/23/22 21/24/22
f 22/22/23 33/25/23 32/26/23
f 33/25/24 52/27/24 59/28/24
f 60/29/25 52/27/25 50/30/25
f 53/31/26 60/29/26 50/30/26
f 54/32/27 62/33/27 61/34/27
f 41/35/28 62/33/28 42/36/28
f 40/37/29 58/38/29 41/35/29
f 40/37/30 63/39/30 57/40/30
f 38/41/31 63/39/31 39/42/31
f 37/43/32 48/44/32 38/41/32
f 36/45/33 47/46/33 37/43/33
f 17/47/34 36/45/34 9/48/34
f 16/49/35 9/48/35 8/50/35
f 42/1/36 54/1/36 43/1/36
f 55/1/2 51/1/2 50/1/2
f 55/1/2 50/1/2 52/1/2
f 41/1/2 42/1/2 43/1/2
f 40/1/2 41/1/2 43/1/2
f 55/1/2 52/1/2 23/1/2
f 55/1/2 23/1/2 22/1/2
f 39/1/2 40/1/2 43/1/2
f 38/1/2 39/1/2 43/1/2
f 18/1/2 55/1/2 22/1/2
f 18/1/1 22/1/1 21/1/1
f 38/1/2 43/1/2 1/1/2
f 37/1/37 38/1/37 1/1/37
f 18/1/2 21/1/2 20/1/2
f 18/1/2 20/1/2 25/1/2
f 36/1/1 37/1/1 1/1/1
f 9/1/2 36/1/2 1/1/2
f 18/1/2 25/1/2 24/1/2
f 18/1/2 24/1/2 6/1/2
f 8/1/2 9/1/2 1/1/2
f 7/1/2 8/1/2 1/1/2
f 1/1/2 18/1/2 6/1/2
f 1/1/2 6/1/2 5/1/2
f 3/1/1 7/1/1 1/1/1
f 4/1/1 3/1/1 1/1/1
f 1/1/2 5/1/2 2/1/2
f 55/1/2 43/1/2 54/1/2
f 53/1/1 51/1/1 55/1/1
f 1/1/3 43/1/3 44/1/3
f 18/1/4 1/1/4 11/1/4
f 11/1/38 12/1/38 19/1/38
f 19/1/5 56/1/5 55/1/5
f 43/1/6 55/1/6 56/1/6
f 45/1/39 44/1/39 43/1/39
f 32/1/7 33/1/7 64/1/7
f 49/1/7 57/1/7 63/1/7
f 49/1/7 63/1/7 48/1/7
f 32/1/7 64/1/7 26/1/7
f 30/1/7 32/1/7 26/1/7
f 10/1/7 49/1/7 48/1/7
f 10/1/7 48/1/7 47/1/7
f 31/1/7 30/1/7 26/1/7
f 29/1/7 31/1/7 26/1/7
f 10/1/7 47/1/7 46/1/7
f 10/1/7 46/1/7 17/1/7
f 28/1/7 29/1/7 26/1/7
f 27/1/7 28/1/7 26/1/7
f 10/1/7 17/1/7 16/1/7
f 10/1/7 16/1/7 15/1/7
f 27/1/7 26/1/7 10/1/7
f 35/1/40 27/1/40 10/1/40
f 10/1/7 15/1/7 14/1/7
f 10/1/40 14/1/40 13/1/40
f 34/1/41 35/1/41 10/1/41
f 58/1/7 57/1/7 49/1/7
f 64/1/40 33/1/40 59/1/40
f 64/1/7 59/1/7 60/1/7
f 58/1/7 49/1/7 64/1/7
f 62/1/7 58/1/7 64/1/7
f 64/1/40 60/1/40 61/1/40
f 49/1/8 10/1/8 11/1/8
f 44/1/39 45/1/39 49/1/39
f 12/1/42 11/1/42 10/1/42
f 10/1/9 26/1/9 19/1/9
f 19/1/10 26/1/10 64/1/10
f 45/1/11 56/1/11 64/1/11
f 7/2/12 15/51/12 16/3/12
f 14/5/13 15/51/13 7/2/13
f 13/7/14 14/5/14 3/6/14
f 2/9/15 34/11/15 13/7/15
f 2/9/16 5/13/16 35/10/16
f 6/12/17 27/15/17 35/10/17
f 24/14/43 28/17/43 27/15/43
f 24/14/19 25/18/19 29/16/19
f 25/18/20 20/20/20 31/19/20
f 20/20/21 21/24/21 30/21/21
f 22/22/22 32/52/22 30/23/22
f 22/22/44 23/53/44 33/25/44
f 33/25/45 23/53/45 52/27/45
f 60/29/25 59/28/25 52/27/25
f 50/30/46 51/54/46 53/31/46
f 53/31/26 61/34/26 60/29/26
f 61/34/47 53/31/47 54/32/47
f 54/32/48 42/36/48 62/33/48
f 41/35/28 58/38/28 62/33/28
f 40/37/29 57/40/29 58/38/29
f 40/37/30 39/42/30 63/39/30
f 38/41/31 48/44/31 63/39/31
f 37/43/32 47/46/32 48/44/32
f 36/45/49 46/55/49 47/46/49
f 17/47/34 46/55/34 36/45/34
f 16/49/50 17/47/50 9/48/50
