# Blender 5.2.0 LTS
# www.blender.org
o PROPOSED__RIGHT_OUTER_EYE_FLANGE__FLANGE_WITH_ROOT_EMBED_V1
v 96.625374 82.485802 146.473419
v 98.820839 75.532715 141.009674
v 96.800171 82.164665 147.099106
v 96.843536 82.130150 147.460358
v 96.725761 82.285973 146.762482
v 98.815269 78.971802 156.635712
v 96.852898 82.184776 147.821609
v 96.827621 82.324821 148.158234
v 96.769424 82.540749 148.447296
v 95.919754 84.335686 146.473419
v 96.006897 84.058601 146.251602
v 96.375336 83.062134 146.112167
v 96.242729 83.399361 146.064606
v 96.505852 82.750534 146.251602
v 96.117065 83.739243 146.112167
v 95.861549 84.551613 146.762482
v 95.836273 84.691658 147.099106
v 95.845634 84.746284 147.460358
v 94.455894 86.449112 138.605560
v 96.063797 84.390633 148.447296
v 96.572113 83.137192 148.808548
v 96.446442 83.477074 148.856110
v 96.183319 84.125900 148.669113
v 96.313835 83.814301 148.808548
v 95.889000 84.711769 147.821609
v 95.963409 84.590462 148.158234
v 94.450325 89.888199 154.231598
v 96.682274 82.817833 148.669113
v 101.818642 79.203255 142.250778
v 103.309036 79.771759 142.126190
v 101.814476 81.782570 153.970291
v 101.814468 81.782570 153.970291
v 103.304871 82.351074 153.845703
v 98.908676 86.480843 140.648026
v 98.908684 86.480843 140.648026
v 100.399078 87.049347 140.523438
v 101.077942 86.541367 146.326416
v 101.052666 86.681412 146.663040
v 101.062027 86.736038 147.024292
v 101.841766 84.475555 146.037354
v 101.942154 84.275726 146.326416
v 102.016563 84.154419 146.663040
v 102.059929 84.119904 147.024292
v 102.069290 84.174530 147.385544
v 101.459122 85.389114 145.628540
v 101.591728 85.051888 145.676102
v 101.333450 85.728996 145.676102
v 101.223289 86.048355 145.815536
v 101.722244 84.740288 145.815536
v 101.136147 86.325439 146.037354
v 101.105392 86.701523 147.385544
v 98.904510 89.060158 152.367538
v 100.394913 89.628662 152.242950
v 102.044014 84.314575 147.722168
v 101.530228 85.804047 148.372482
v 101.399712 86.115654 148.233047
v 101.898666 84.807579 148.233047
v 101.788506 85.126945 148.372482
v 101.985817 84.530502 148.011230
v 101.662834 85.466827 148.420044
v 101.179802 86.580215 147.722168
v 101.280190 86.380386 148.011230
vn 0.9315 0.3553 -0.0779
vn -0.0000 1.0000 -0.0000
vn 0.0003 -0.2149 -0.9766
vn -0.3637 0.9097 -0.2003
vn -0.0004 0.2149 0.9766
vn -0.9315 -0.3553 0.0779
vn 0.7419 -0.6548 0.1444
vn 0.4169 -0.0334 -0.9083
vn 0.0912 0.9726 -0.2140
vn 0.4163 0.3512 0.8387
vn -0.1186 0.0944 -0.9884
vn -0.2036 0.3319 -0.9211
vn -0.2747 0.5468 -0.7909
vn -0.3270 0.7244 -0.6069
vn -0.3571 0.8526 -0.3815
vn -0.3628 0.9227 -0.1301
vn -0.3439 0.9300 0.1302
vn -0.3014 0.8738 0.3815
vn -0.2385 0.7581 0.6069
vn -0.1593 0.5908 0.7909
vn -0.0692 0.3832 0.9211
vn 0.0256 0.1495 0.9884
vn 0.1186 -0.0944 0.9884
vn 0.2036 -0.3319 0.9211
vn 0.2747 -0.5468 0.7909
vn 0.3270 -0.7243 0.6070
vn 0.3571 -0.8526 0.3815
vn 0.3628 -0.9227 0.1301
vn 0.3439 -0.9300 -0.1301
vn 0.3014 -0.8738 -0.3815
vn 0.2385 -0.7581 -0.6069
vn 0.1592 -0.5908 -0.7909
vn 0.0692 -0.3832 -0.9211
vn -0.0256 -0.1495 -0.9884
vn 0.9315 0.3552 -0.0779
vn 0.9315 0.3554 -0.0779
vn 0.9314 0.3555 -0.0779
vn 0.9315 0.3553 -0.0778
vn 0.3637 -0.9097 0.2003
vn 0.0004 -0.2149 -0.9766
vn -0.0000 -1.0000 -0.0000
vn -0.9315 -0.3554 0.0778
vn -0.9315 -0.3554 0.0779
vn -0.9315 -0.3552 0.0779
vn -0.9320 -0.3538 0.0780
vn -0.9315 -0.3553 0.0778
vn -0.0000 -0.4472 -0.8944
vn -0.1187 0.0944 -0.9884
vn -0.2747 0.5468 -0.7910
vn -0.3270 0.7243 -0.6070
vn -0.3438 0.9300 0.1301
vn -0.2385 0.7582 0.6069
vn -0.0691 0.3832 0.9211
vn 0.1187 -0.0944 0.9884
vn 0.3270 -0.7244 0.6069
vn 0.3438 -0.9300 -0.1302
vn 0.1593 -0.5908 -0.7909
vt 0.000000 0.000000
vt 0.958333 0.961539
vt 1.000000 0.692308
vt 0.958333 0.692307
vt 0.916667 0.692308
vt 0.916667 0.961539
vt 0.875000 0.961538
vt 0.875000 0.692307
vt 0.833333 0.961538
vt 0.874999 0.692308
vt 0.833332 0.692307
vt 0.791667 0.692308
vt 0.791667 0.961539
vt 0.750000 0.961539
vt 0.750000 0.692308
vt 0.708333 0.692308
vt 0.708333 0.961539
vt 0.666667 0.961539
vt 0.666667 0.692308
vt 0.625000 0.692308
vt 0.625000 0.961539
vt 0.583333 0.961539
vt 0.583333 0.692308
vt 0.541666 0.692308
vt 0.541666 0.961539
vt 0.500000 0.961539
vt 0.500000 0.692307
vt 0.458333 0.961539
vt 0.458333 0.692308
vt 0.416666 0.692308
vt 0.416666 0.961539
vt 0.375000 0.961538
vt 0.375000 0.692307
vt 0.333333 0.692309
vt 0.333333 0.961539
vt 0.291667 0.961538
vt 0.291666 0.692308
vt 0.250000 0.692307
vt 0.250000 0.961539
vt 0.208333 0.692308
vt 0.208333 0.961539
vt 0.166666 0.692307
vt 0.166666 0.961539
vt 0.125000 0.961539
vt 0.125000 0.692308
vt 0.083333 0.692308
vt 0.083333 0.961539
vt 0.041666 0.961539
vt 0.041666 0.692308
vt -0.000000 0.961539
vt -0.000000 0.692308
vt 1.000000 0.961539
vt 0.833334 0.692308
vt 0.708331 0.961539
vt 0.375001 0.692308
vt 0.291667 0.692307
s 0
f 30/1/1 46/1/1 49/1/1
f 33/1/1 55/1/1 56/1/1
f 31/1/2 33/1/2 32/1/2
f 35/1/3 36/1/3 30/1/3
f 36/1/4 52/1/4 53/1/4
f 53/1/5 32/1/5 33/1/5
f 19/1/6 14/1/6 12/1/6
f 23/1/6 24/1/6 6/1/6
f 2/1/7 31/1/7 6/1/7
f 2/1/8 35/1/8 29/1/8
f 19/1/9 52/1/9 34/1/9
f 31/1/10 52/1/10 27/1/10
f 21/2/11 60/3/11 58/4/11
f 21/2/12 57/5/12 28/6/12
f 9/7/13 57/5/13 59/8/13
f 8/9/14 59/10/14 54/11/14
f 8/9/15 44/12/15 7/13/15
f 4/14/16 44/12/16 43/15/16
f 4/14/17 42/16/17 3/17/17
f 5/18/18 42/16/18 41/19/18
f 5/18/19 40/20/19 1/21/19
f 14/22/20 40/20/20 49/23/20
f 14/22/21 46/24/21 12/25/21
f 13/26/22 46/24/22 45/27/22
f 15/28/23 45/27/23 47/29/23
f 15/28/24 48/30/24 11/31/24
f 10/32/25 48/30/25 50/33/25
f 10/32/26 37/34/26 16/35/26
f 17/36/27 37/34/27 38/37/27
f 17/36/28 39/38/28 18/39/28
f 18/39/29 51/40/29 25/41/29
f 25/41/30 61/42/30 26/43/30
f 20/44/31 61/42/31 62/45/31
f 20/44/32 56/46/32 23/47/32
f 24/48/33 56/46/33 55/49/33
f 22/50/34 55/49/34 60/51/34
f 53/1/35 56/1/35 62/1/35
f 53/1/36 62/1/36 61/1/36
f 58/1/1 60/1/1 33/1/1
f 57/1/1 58/1/1 33/1/1
f 53/1/1 61/1/1 51/1/1
f 53/1/1 51/1/1 39/1/1
f 59/1/1 57/1/1 33/1/1
f 54/1/1 59/1/1 33/1/1
f 36/1/1 53/1/1 39/1/1
f 36/1/37 39/1/37 38/1/37
f 54/1/1 33/1/1 30/1/1
f 44/1/1 54/1/1 30/1/1
f 36/1/1 38/1/1 37/1/1
f 36/1/1 37/1/1 50/1/1
f 43/1/1 44/1/1 30/1/1
f 42/1/1 43/1/1 30/1/1
f 36/1/1 50/1/1 48/1/1
f 36/1/1 48/1/1 47/1/1
f 41/1/1 42/1/1 30/1/1
f 40/1/1 41/1/1 30/1/1
f 30/1/1 36/1/1 47/1/1
f 30/1/36 47/1/36 45/1/36
f 49/1/1 40/1/1 30/1/1
f 30/1/38 45/1/38 46/1/38
f 56/1/1 53/1/1 33/1/1
f 33/1/36 60/1/36 55/1/36
f 31/1/39 29/1/39 30/1/39
f 31/1/39 30/1/39 33/1/39
f 30/1/40 29/1/40 35/1/40
f 35/1/41 34/1/41 36/1/41
f 36/1/4 34/1/4 52/1/4
f 53/1/5 52/1/5 32/1/5
f 6/1/6 21/1/6 28/1/6
f 6/1/6 28/1/6 9/1/6
f 25/1/6 26/1/6 27/1/6
f 18/1/6 25/1/6 27/1/6
f 2/1/6 6/1/6 9/1/6
f 2/1/42 9/1/42 8/1/42
f 18/1/6 27/1/6 19/1/6
f 17/1/43 18/1/43 19/1/43
f 2/1/43 8/1/43 7/1/43
f 2/1/6 7/1/6 4/1/6
f 16/1/6 17/1/6 19/1/6
f 10/1/6 16/1/6 19/1/6
f 2/1/6 4/1/6 3/1/6
f 2/1/6 3/1/6 5/1/6
f 11/1/43 10/1/43 19/1/43
f 15/1/6 11/1/6 19/1/6
f 19/1/6 2/1/6 5/1/6
f 19/1/44 5/1/44 1/1/44
f 13/1/6 15/1/6 19/1/6
f 12/1/6 13/1/6 19/1/6
f 19/1/6 1/1/6 14/1/6
f 22/1/6 21/1/6 6/1/6
f 6/1/6 27/1/6 26/1/6
f 6/1/45 26/1/45 20/1/45
f 24/1/46 22/1/46 6/1/46
f 6/1/42 20/1/42 23/1/42
f 2/1/7 29/1/7 31/1/7
f 2/1/8 19/1/8 35/1/8
f 19/1/9 27/1/9 52/1/9
f 34/1/2 35/1/2 19/1/2
f 27/1/10 6/1/10 31/1/10
f 31/1/47 32/1/47 52/1/47
f 21/2/48 22/52/48 60/3/48
f 21/2/12 58/4/12 57/5/12
f 9/7/49 28/6/49 57/5/49
f 8/9/50 9/7/50 59/10/50
f 8/9/15 54/53/15 44/12/15
f 4/14/16 7/13/16 44/12/16
f 4/14/51 43/15/51 42/16/51
f 5/18/18 3/54/18 42/16/18
f 5/18/52 41/19/52 40/20/52
f 14/22/20 1/21/20 40/20/20
f 14/22/53 49/23/53 46/24/53
f 13/26/22 12/25/22 46/24/22
f 15/28/54 13/26/54 45/27/54
f 15/28/24 47/29/24 48/30/24
f 10/32/25 11/31/25 48/30/25
f 10/32/55 50/55/55 37/34/55
f 17/36/27 16/35/27 37/34/27
f 17/36/28 38/56/28 39/38/28
f 18/39/56 39/38/56 51/40/56
f 25/41/30 51/40/30 61/42/30
f 20/44/31 26/43/31 61/42/31
f 20/44/57 62/45/57 56/46/57
f 24/48/33 23/47/33 56/46/33
f 22/50/34 24/48/34 55/49/34
