# Blender 5.2.0 LTS
# www.blender.org
mtllib right_lower_face_component_001_self_union_v12.mtl
o PROPOSED__RIGHT_LOWER_FACE__COMPONENT_001_SELF_UNION_V12
v -1.351500 20.353502 24.058498
v -1.127317 21.572920 25.363398
v 0.000000 39.511951 1.712930
v 0.000000 40.064999 -0.000003
v 0.175000 64.890411 23.798740
v 0.925000 65.467361 24.615517
v 4.675000 64.890411 23.798740
v 3.925000 65.467361 24.615517
v 0.523190 69.308830 11.322540
v 0.175000 68.577393 12.379189
v 0.523190 71.517815 12.035747
v 4.305793 69.352982 11.258760
v 4.305793 71.695305 12.015016
v 4.675000 68.577393 12.379189
v 0.523190 92.930779 18.949266
v 4.305793 91.988243 18.566917
v 0.175000 74.789558 21.511856
v 0.175000 73.587479 22.009773
v 0.175000 73.218964 22.561293
v 0.175000 73.089561 23.211855
v 0.175000 73.218964 23.862417
v 0.175000 74.139000 21.641260
v 0.175000 75.440117 21.641260
v 0.175000 73.587479 24.413937
v 0.175000 74.139000 24.782450
v 0.175000 74.789558 24.911856
v 0.175000 75.440117 24.782450
v 0.925000 70.225510 26.151760
v 0.175000 75.991638 22.009773
v 0.175000 76.360153 22.561293
v 0.175000 76.489555 23.211855
v 0.175000 76.360153 23.862417
v 0.175000 75.991638 24.413937
v 4.675000 74.789558 21.511854
v 4.675000 73.587479 22.009773
v 4.675000 73.218964 22.561293
v 4.675000 73.089561 23.211855
v 4.675000 73.218964 23.862417
v 4.675000 74.139000 21.641260
v 4.675000 75.440117 21.641260
v 3.925000 70.225510 26.151760
v 4.675000 73.587479 24.413937
v 4.675000 74.139000 24.782450
v 4.675000 74.789558 24.911854
v 4.675000 75.440117 24.782450
v 4.675000 75.991638 22.009773
v 4.675000 76.360153 22.561293
v 4.675000 76.489555 23.211855
v 4.675000 76.360153 23.862417
v 4.675000 75.991638 24.413937
v 0.175000 97.171883 28.738348
v 4.675000 97.171883 28.738346
v 0.175000 95.601288 29.787785
v 0.175000 95.969803 29.236265
v 0.175000 96.521324 28.867752
v 0.175000 95.471886 30.438347
v 0.175000 95.601288 31.088909
v 0.175000 95.969803 31.640429
v 0.175000 96.521324 32.008942
v 0.175000 97.822441 28.867752
v 0.175000 98.373962 29.236265
v 0.175000 98.742477 29.787785
v 0.175000 98.871880 30.438347
v 0.175000 98.742477 31.088909
v 0.175000 97.171883 32.138348
v 0.175000 97.822441 32.008942
v 0.175000 98.373962 31.640429
v 0.925000 99.155029 35.492126
v 4.675000 95.601288 29.787785
v 4.675000 95.969803 29.236265
v 4.675000 96.521324 28.867752
v 4.675000 95.471886 30.438347
v 4.675000 95.601288 31.088909
v 4.675000 95.969803 31.640429
v 4.675000 96.521324 32.008942
v 4.675000 97.822441 28.867752
v 4.675000 98.373962 29.236265
v 4.675000 98.742477 29.787785
v 4.675000 98.871880 30.438347
v 4.675000 98.742477 31.088909
v 4.675000 97.171883 32.138348
v 4.675000 97.822441 32.008942
v 4.675000 98.373962 31.640429
v 3.925000 99.155029 35.492126
v 0.523190 108.570381 23.998766
v 0.175000 108.545822 25.283640
v 4.305793 108.571861 23.921209
v 4.675000 108.545822 25.283640
v 0.175000 104.858841 36.703190
v 0.925000 103.913177 37.028370
v 3.925000 103.913177 37.028370
v 4.675000 104.858841 36.703190
v 0.522829 118.732559 27.281130
v 0.175000 118.001884 28.336685
v 4.326503 118.733963 27.279102
v 4.675000 118.001884 28.336685
v 0.175000 123.011971 37.967270
v 0.175000 123.563492 37.598755
v 0.175000 124.214050 37.469349
v 0.175000 124.864609 37.598755
v 0.175000 125.416130 37.967270
v 4.675000 123.011971 37.967266
v 4.675000 123.563492 37.598755
v 4.675000 124.214050 37.469349
v 4.675000 124.864609 37.598755
v 4.675000 125.416130 37.967266
v 0.175000 114.314903 39.756237
v 0.925000 114.891846 40.573009
v 3.925000 114.891846 40.573009
v 4.675000 114.314903 39.756237
v 0.175000 122.643456 38.518787
v 0.175000 122.514053 39.169350
v 0.175000 122.643456 39.819912
v 0.175000 123.011971 40.371433
v 0.175000 123.563492 40.739944
v 0.175000 125.784645 38.518787
v 0.175000 125.914047 39.169350
v 0.175000 124.864609 40.739944
v 0.175000 125.784645 39.819912
v 0.175000 125.416130 40.371433
v 0.175000 124.214050 40.869350
v 0.925000 119.649994 42.109257
v 3.925000 119.649994 42.109257
v 4.675000 122.643456 38.518787
v 4.675000 122.514053 39.169350
v 4.675000 122.643456 39.819912
v 4.675000 123.011971 40.371429
v 4.675000 123.563492 40.739944
v 4.675000 125.784645 38.518787
v 4.675000 125.914047 39.169350
v 4.675000 124.864609 40.739944
v 4.675000 125.784645 39.819912
v 4.675000 125.416130 40.371429
v 4.675000 124.214050 40.869350
v 40.504501 16.551003 20.420998
v 39.628422 17.492378 21.680481
v 31.466999 40.064999 -0.000003
v 31.600342 40.990150 1.538279
v 62.421608 24.493752 72.310959
v 58.491447 117.200005 22.418722
v 59.614498 116.390999 23.569490
v 29.985817 11.829967 81.358902
v 30.778500 10.605006 82.413002
v 33.346500 50.113510 126.394501
v 32.636982 51.546989 125.568832
v 0.175000 145.945816 44.825245
v 0.175000 145.394287 45.193760
v 0.175000 146.596375 44.695839
v 0.175000 147.246933 44.825245
v 0.175000 145.025772 45.745277
v 0.175000 144.896378 46.395840
v 0.175000 145.025772 47.046402
v 0.175000 145.394287 47.597923
v 0.175000 145.945816 47.966434
v 0.175000 147.246933 47.966434
v 0.175000 147.798462 45.193760
v 0.175000 148.166962 45.745277
v 0.175000 148.296371 46.395840
v 0.175000 148.166962 47.046402
v 0.175000 147.798462 47.597923
v 4.675000 145.945816 44.825245
v 4.675000 145.394287 45.193756
v 4.675000 146.596375 44.695839
v 4.675000 147.246933 44.825245
v 4.675000 145.025787 45.745277
v 4.675000 144.896378 46.395840
v 4.675000 145.025787 47.046402
v 4.675000 145.394287 47.597919
v 4.675000 145.945816 47.966434
v 4.675000 147.246933 47.966434
v 4.675000 147.798462 45.193756
v 4.675000 148.166977 45.745277
v 4.675000 148.296371 46.395840
v 4.675000 148.166977 47.046402
v 4.675000 147.798462 47.597919
v 0.175000 146.596375 48.095840
v 4.675000 146.596375 48.095840
v 0.521433 157.994751 39.962742
v 0.175000 157.970306 41.241135
v 4.327899 157.994797 39.960278
v 4.675000 157.970306 41.241135
v 0.175000 154.283325 52.660683
v 0.925000 153.337677 52.985863
v 4.675000 154.283325 52.660683
v 3.925000 153.337677 52.985863
v 0.000000 188.338501 47.872486
v 0.000000 187.698990 49.555054
v 0.000000 187.785446 49.585419
v 0.175000 193.556519 53.086517
v 0.520351 194.334381 52.076763
v 4.675000 193.556519 53.086517
v 4.329144 194.335526 52.075283
v 0.175000 189.293152 64.303627
v 0.925000 189.827789 65.148712
v 0.175000 196.487854 62.441730
v 0.175000 197.039383 62.073215
v 0.175000 197.689941 61.943810
v 0.175000 198.340500 62.073215
v 0.175000 198.892029 62.441730
v 0.175000 196.119339 62.993248
v 0.175000 195.989944 63.643810
v 0.175000 196.119339 64.294373
v 0.175000 196.487854 64.845894
v 0.175000 197.039383 65.214409
v 0.175000 197.689941 65.343811
v 0.175000 199.260529 62.993248
v 0.175000 199.389938 63.643810
v 0.175000 199.260529 64.294373
v 0.175000 198.892029 64.845894
v 0.175000 198.340500 65.214409
v 0.925000 194.501587 66.925117
v 3.925000 189.827789 65.148712
v 4.675000 189.293152 64.303627
v 4.675000 196.487854 62.441727
v 4.675000 197.039383 62.073215
v 4.675000 197.689941 61.943810
v 4.675000 198.340500 62.073215
v 4.675000 198.892029 62.441727
v 3.925000 194.501587 66.925117
v 4.675000 196.119354 62.993248
v 4.675000 195.989944 63.643810
v 4.675000 196.119354 64.294373
v 4.675000 196.487854 64.845894
v 4.675000 197.039383 65.214401
v 4.675000 197.689941 65.343811
v 4.675000 199.260544 62.993248
v 4.675000 199.389938 63.643810
v 4.675000 199.260544 64.294373
v 4.675000 198.892029 64.845894
v 4.675000 198.340500 65.214401
v 0.175000 214.605835 69.327980
v 0.175000 214.237320 69.879501
v 0.175000 214.107925 70.530060
v 0.175000 214.237320 71.180618
v 0.175000 214.605835 71.732140
v 0.175000 215.157364 68.959465
v 0.175000 215.807922 68.830063
v 0.175000 216.458481 68.959465
v 0.175000 217.010010 69.327980
v 0.175000 215.157364 72.100655
v 0.175000 216.458481 72.100655
v 0.175000 217.378510 69.879501
v 0.175000 217.507919 70.530060
v 0.175000 217.378510 71.180618
v 0.175000 217.010010 71.732140
v 0.175000 215.807922 72.230057
v 4.675000 214.605835 69.327980
v 4.675000 214.237335 69.879501
v 4.675000 214.107925 70.530060
v 4.675000 214.237335 71.180618
v 4.675000 214.605835 71.732140
v 4.675000 215.157364 68.959465
v 4.675000 215.807922 68.830063
v 4.675000 216.458481 68.959465
v 4.675000 217.010010 69.327980
v 4.675000 215.157364 72.100655
v 4.675000 216.458481 72.100655
v 4.675000 217.378525 69.879501
v 4.675000 217.507919 70.530060
v 4.675000 217.378525 71.180618
v 4.675000 217.010010 71.732140
v 4.675000 215.807922 72.230057
v 0.520353 225.999252 64.111877
v 0.175000 225.910065 65.383392
v 0.000000 231.687424 65.801643
v 0.000000 233.274002 64.951485
v 0.000000 232.634491 66.634048
v 4.329142 225.999390 64.110023
v 4.675000 225.910065 65.383392
v 0.175000 221.646698 76.600510
v 0.925000 220.685730 76.877144
v 3.925000 220.685730 76.877144
v 4.675000 221.646698 76.600510
v 30.000000 233.274002 64.951485
v 29.863813 232.060425 66.273865
v 0.175000 228.151642 87.193230
v 0.925000 228.000626 88.181763
v 0.175000 234.486877 92.435280
v 0.175000 235.038406 92.066765
v 0.175000 234.118362 92.986801
v 0.175000 233.988968 93.637360
v 0.175000 234.118362 94.287918
v 0.175000 234.486877 94.839439
v 0.175000 235.038406 95.207954
v 0.925000 230.362167 92.588928
v 3.925000 228.000626 88.181763
v 4.675000 228.151642 87.193230
v 3.925000 230.362167 92.588928
v 4.675000 234.486877 92.435280
v 4.675000 235.038406 92.066765
v 4.675000 234.118378 92.986801
v 4.675000 233.988968 93.637360
v 4.675000 234.118378 94.287918
v 4.675000 234.486877 94.839439
v 4.675000 235.038406 95.207954
v 0.175000 238.728851 81.525520
v 0.520802 239.980026 81.273560
v 0.520803 241.068863 83.305573
v 4.325385 239.993820 81.270782
v 4.675000 238.728851 81.525520
v 0.175000 235.688965 91.937363
v 0.175000 236.339523 92.066765
v 0.175000 236.891052 92.435280
v 0.175000 237.259552 92.986801
v 0.175000 237.388962 93.637360
v 0.175000 237.259552 94.287918
v 0.175000 236.891052 94.839439
v 0.175000 235.688965 95.337357
v 0.175000 236.339523 95.207954
v 4.675000 235.688965 91.937363
v 4.675000 236.339523 92.066765
v 4.675000 236.891052 92.435280
v 4.675000 237.259567 92.986801
v 4.675000 237.388962 93.637360
v 4.675000 237.259567 94.287918
v 4.675000 236.891052 94.839439
v 4.675000 235.688965 95.337357
v 4.675000 236.339523 95.207954
v 0.520801 251.759659 103.256927
v 4.325387 251.684616 103.088356
v 0.175000 246.147125 112.798073
v 0.175000 246.797684 112.668671
v 0.175000 247.448242 112.798073
v 0.175000 245.595596 113.166588
v 0.175000 245.227081 113.718109
v 0.175000 245.097687 114.368668
v 0.175000 245.227081 115.019226
v 0.175000 247.999771 113.166588
v 0.175000 248.368271 113.718109
v 0.175000 248.497681 114.368668
v 0.175000 248.368271 115.019226
v 4.675000 246.147125 112.798073
v 4.675000 246.797684 112.668671
v 4.675000 247.448242 112.798073
v 4.675000 245.595596 113.166588
v 4.675000 245.227097 113.718109
v 4.675000 245.097687 114.368668
v 4.675000 245.227097 115.019226
v 4.675000 247.999771 113.166588
v 4.675000 248.368286 113.718109
v 4.675000 248.497681 114.368668
v 4.675000 248.368286 115.019226
v 0.175000 245.595596 115.570747
v 0.175000 246.147125 115.939262
v 0.175000 246.797684 116.068665
v 0.175000 247.448242 115.939262
v 0.175000 247.999771 115.570747
v 0.175000 247.988663 124.213417
v 0.925000 247.081940 123.791656
v 4.675000 245.595596 115.570747
v 4.675000 246.147125 115.939262
v 4.675000 246.797684 116.068665
v 4.675000 247.448242 115.939262
v 4.675000 247.999771 115.570747
v 3.925000 247.081940 123.791656
v 4.675000 247.988663 124.213417
v 0.520802 259.468597 117.643494
v 0.175000 258.565857 118.545700
v 4.325386 259.478546 117.633545
v 4.675000 258.565857 118.545700
v 1.799999 260.842010 130.966858
v 1.799999 261.270477 127.795670
v 1.799999 265.196625 128.326141
v 1.799999 267.391754 128.622726
v 1.799999 269.198456 128.866821
v 0.000000 267.757935 133.117142
v 0.000000 269.344513 132.266983
v 1.799999 267.058960 131.806824
v 1.799999 268.860962 131.364594
v 28.429405 263.004181 128.029922
v 28.299999 263.648895 128.117020
v 28.429405 264.293610 128.204132
v 28.797918 262.457642 127.956070
v 29.349438 262.092438 127.906723
v 28.797918 264.840149 128.277969
v 30.000000 261.964203 127.889397
v 30.650562 262.092438 127.906723
v 29.349438 265.205353 128.327316
v 29.482824 265.231659 128.330872
v 30.000000 265.314636 128.484848
v 30.510580 265.232941 128.331039
v 30.650562 265.205353 128.327316
v 28.429405 262.575714 131.201096
v 28.299999 263.220428 131.288208
v 28.429405 263.865143 131.375305
v 28.797918 262.029175 131.127258
v 29.349438 261.663971 131.077911
v 28.797918 264.411682 131.449158
v 29.349438 264.776886 131.498489
v 30.000000 261.535736 131.060593
v 30.650562 261.663971 131.077911
v 30.000000 264.905121 131.515823
v 30.650562 264.776886 131.498489
v 31.202082 262.457642 127.956070
v 31.570595 263.004181 128.029922
v 31.202082 264.840149 128.277969
v 31.700001 263.648895 128.117020
v 31.570595 264.293610 128.204132
v 31.202082 262.029175 131.127258
v 31.570595 262.575714 131.201096
v 31.202082 264.411682 131.449158
v 31.700001 263.220428 131.288208
v 31.570595 263.865143 131.375305
v 55.312630 251.524002 132.103500
v 55.710117 250.810852 133.050003
v 60.284332 251.257462 132.049713
v 60.215744 251.897125 131.888138
v 60.600101 250.690445 132.186676
v 60.003296 248.304276 133.584518
v 61.114983 250.282410 132.278198
v 61.750587 250.095459 132.310333
v 62.410152 250.158051 132.278198
v 58.200001 260.842010 130.966858
v 58.200001 261.270477 127.795670
v 58.200001 264.638428 128.250717
v 57.391293 265.269470 128.335983
v 58.200001 267.391754 128.622726
v 58.200001 269.198456 128.866821
v 58.200001 266.245087 130.159241
v 58.200001 267.130920 131.816544
v 58.200001 268.860962 131.364594
v 60.404781 252.512054 131.726578
v 60.822662 253.008636 131.589615
v 61.405773 253.311264 131.498093
v 62.065338 253.373856 131.465958
v 62.700943 253.186920 131.498093
v 61.457069 261.474365 129.413559
v 62.576302 262.633057 129.463531
v 59.565765 267.892731 133.238434
v 60.000000 269.344513 132.266983
v 61.563873 262.586792 133.772568
v 55.781315 251.552490 135.956009
v 60.391136 252.369904 136.408722
v 60.706905 251.802887 136.545685
v 61.221786 251.394852 136.637207
v 61.857391 251.207901 136.669342
v 62.516956 251.270493 136.637207
v 55.419434 252.636429 136.462509
v 60.322548 253.009567 136.247147
v 60.511585 253.624496 136.085587
v 60.929466 254.121063 135.948624
v 61.512577 254.423706 135.857101
v 62.172142 254.486298 135.824966
v 63.916500 23.506506 72.486000
v 63.275898 83.725777 40.722870
v 64.738503 83.321999 39.754494
v 81.229652 54.422821 84.851295
v 82.567497 53.224506 84.970490
v 92.249062 84.557434 114.914619
v 92.146698 85.529823 115.693375
v 92.335907 85.466362 118.686722
v 92.532875 84.462250 119.404655
v 102.799187 78.893890 114.127678
v 96.775330 88.438690 114.710793
v 96.859772 89.096550 114.719398
v 97.353142 87.274513 114.649590
v 96.948578 87.798882 114.686279
v 97.927429 86.945427 114.606308
v 98.584007 86.861717 114.563034
v 97.189041 89.672287 114.710793
v 97.713020 90.078270 114.686272
v 98.351936 90.252686 114.649590
v 99.222916 87.036125 114.526344
v 99.746902 87.442108 114.501831
v 100.076172 88.017853 114.493217
v 99.008514 90.168976 114.606308
v 99.582802 89.839882 114.563034
v 99.987366 89.315521 114.526344
v 100.160614 88.675705 114.501831
v 104.336700 78.543884 114.412537
v 105.536690 80.810699 114.381416
v 110.756294 90.670677 114.246017
v 104.548828 102.944824 114.526939
v 104.722076 102.305016 114.502426
v 104.633270 103.602684 114.535545
v 105.126640 101.780647 114.465736
v 105.700928 101.451561 114.422455
v 104.962540 104.178421 114.526939
v 105.486519 104.584404 114.502426
v 106.357506 101.367851 114.379181
v 106.125435 104.758820 114.465736
v 106.782013 104.675110 114.422455
v 106.130302 110.461227 114.586311
v 106.996414 101.542259 114.342491
v 107.520401 101.948242 114.317978
v 107.849670 102.523987 114.309364
v 107.356300 104.346016 114.379181
v 107.760864 103.821655 114.342491
v 107.934113 103.181839 114.317978
v 116.172028 100.901146 114.105537
v 116.680428 104.797684 113.799370
v 117.245064 104.265221 113.944290
v 97.059143 88.343506 119.200829
v 97.232391 87.703690 119.176308
v 97.636955 87.179329 119.139626
v 98.211243 86.850235 119.096344
v 98.867821 86.766525 119.053070
v 97.143585 89.001358 119.209435
v 97.472855 89.577103 119.200829
v 97.996841 89.983086 119.176308
v 98.635750 90.157494 119.139626
v 99.506737 86.940941 119.016380
v 100.030716 87.346924 118.991867
v 100.359985 87.922661 118.983253
v 99.292328 90.073784 119.096344
v 99.866615 89.744698 119.053070
v 100.271179 89.220329 119.016380
v 100.444427 88.580521 118.991867
v 102.899109 73.160675 118.569641
v 104.064003 71.788506 118.582489
v 103.083000 78.798706 118.617714
v 105.388382 78.282074 117.857834
v 104.832642 102.849640 119.016975
v 102.910736 105.616615 115.438782
v 105.410454 101.685463 118.955772
v 105.005890 102.209824 118.992455
v 104.917084 103.507492 119.025581
v 105.246353 104.083237 119.016975
v 105.770340 104.489220 118.992455
v 105.984741 101.356369 118.912491
v 106.641319 101.272659 118.869217
v 106.409248 104.663628 118.955772
v 105.272247 110.023445 115.382935
v 105.461456 109.959984 118.376282
v 106.414116 110.366043 119.076347
v 107.280235 101.447075 118.832527
v 107.804214 101.853058 118.808014
v 107.065826 104.579918 118.912491
v 107.640114 104.250832 118.869217
v 108.133484 102.428795 118.799400
v 108.217926 103.086655 118.808014
v 108.044678 103.726463 118.832527
v 115.399033 97.159065 117.649765
v 118.124046 103.497612 115.739799
v 118.572136 103.142555 117.583817
v 116.964241 104.702499 118.289406
v 121.843613 108.445168 118.853874
v 123.343498 107.766006 118.126495
v 92.575500 152.524506 59.146488
v 91.083153 152.733597 60.130955
v 88.945503 188.338501 47.872486
v 88.630424 187.507858 49.437973
v 62.993263 250.460693 132.186676
v 63.411144 250.957260 132.049713
v 63.531593 252.211853 131.726578
v 63.600182 251.572189 131.888138
v 63.215824 252.778870 131.589615
v 63.669281 264.459015 132.530441
v 70.152435 258.188782 130.407791
v 72.696098 243.628204 133.692627
v 73.210983 243.220154 133.784149
v 73.846588 243.033218 133.816284
v 74.506149 243.095810 133.784149
v 72.500778 245.449814 133.232529
v 72.311737 244.834869 133.394104
v 72.380325 244.195206 133.555664
v 72.918663 245.946381 133.095566
v 73.501770 246.249008 133.004044
v 74.796936 246.124664 133.004044
v 74.161331 246.311600 132.971909
v 75.089256 243.398438 133.692642
v 75.507141 243.895004 133.555664
v 75.311821 245.716614 133.095566
v 75.627594 245.149612 133.232544
v 75.696182 244.509933 133.394104
v 72.164001 257.008789 130.658524
v 63.100067 251.573135 136.545685
v 63.517948 252.069702 136.408722
v 62.807747 254.299362 135.857101
v 63.706985 252.684631 136.247147
v 63.638397 253.324295 136.085587
v 63.322628 253.891312 135.948624
v 71.643120 241.508331 135.033676
v 72.802895 244.740631 138.051651
v 72.487122 245.307648 137.914673
v 72.418533 245.947311 137.753113
v 72.607574 246.562241 137.591537
v 73.317780 244.332596 138.143158
v 73.025459 247.058823 137.454575
v 73.608566 247.361450 137.363052
v 73.953384 244.145645 138.175293
v 74.612946 244.208237 138.143158
v 74.268127 247.424042 137.330917
v 75.936302 239.001770 135.568192
v 76.007500 239.743408 138.474197
v 76.912636 238.912842 134.792709
v 77.019432 240.025269 139.151718
v 75.196053 244.510880 138.051636
v 75.613937 245.007446 137.914673
v 75.802979 245.622375 137.753113
v 74.903732 247.237106 137.363052
v 75.418617 246.829056 137.454575
v 75.734390 246.262039 137.591537
v 82.589874 231.061157 129.772934
v 82.351791 232.194992 129.303604
v 85.295395 227.312805 127.867653
v 83.644257 230.431000 132.509933
v 83.933365 231.249741 133.409103
v 89.805672 225.874710 124.976959
v 90.426636 225.932892 124.751137
v 90.998169 226.233826 124.600250
v 91.433258 226.731689 124.547264
v 91.665665 227.350677 124.600250
v 91.660011 227.996582 124.751137
v 91.417152 228.571030 124.976959
v 88.786728 226.483688 125.509697
v 88.543869 227.058136 125.735512
v 89.229813 226.068115 125.243324
v 90.811394 225.122864 129.348831
v 90.368309 225.538437 129.615204
v 90.125450 226.112885 129.841019
v 90.119789 226.758789 129.991898
v 88.538216 227.704041 125.886406
v 88.770622 228.323029 125.939384
v 89.205711 228.820892 125.886406
v 89.777245 229.121826 125.735519
v 90.398209 229.180008 125.509697
v 90.352203 227.377777 130.044891
v 90.787292 227.875641 129.991898
v 91.387253 224.929459 129.082458
v 92.008217 224.987640 128.856644
v 92.579750 225.288574 128.705750
v 93.014839 225.786438 128.652771
v 93.247246 226.405426 128.705750
v 93.241592 227.051331 128.856644
v 90.974068 228.986603 125.243324
v 91.979790 228.234756 129.615204
v 92.555649 228.041351 129.348831
v 92.998734 227.625778 129.082458
v 91.358826 228.176575 129.841019
v 83.057076 248.863220 132.102768
v 83.499718 250.359131 132.071365
v 91.519684 239.726089 127.505775
v 93.003693 240.311920 127.460548
v 93.101257 238.780838 131.611282
v 83.163872 249.975647 136.461777
v 83.993340 252.551315 135.080933
v 89.067451 250.617325 136.951813
v 90.000000 251.829010 136.001984
v 104.450470 200.774475 114.378357
v 105.078140 200.708847 113.299377
v 126.939003 200.652008 109.988983
v 125.536842 200.077469 110.960503
v 105.504852 200.144318 117.115356
v 106.659714 199.763596 117.404877
v 114.246033 208.239944 111.501541
v 115.389984 209.475204 111.763260
v 117.453972 209.885834 114.800949
v 101.513496 208.851456 116.547325
v 101.270638 209.425903 116.773140
v 101.264984 210.071808 116.924034
v 102.532440 208.242477 116.014587
v 101.956581 208.435883 116.280952
v 102.852219 208.480667 120.878647
v 102.846558 209.126556 121.029533
v 101.497398 210.690796 116.977013
v 101.932487 211.188660 116.924026
v 102.504021 211.489594 116.773140
v 103.153404 208.300659 115.788765
v 103.724937 208.601593 115.637878
v 104.160027 209.099457 115.584892
v 104.386780 210.364334 115.788765
v 104.392441 209.718445 115.637878
v 104.114014 207.297226 120.120087
v 104.734978 207.355408 119.894264
v 105.306511 207.656342 119.743378
v 105.741600 208.154205 119.690399
v 105.725502 209.993546 120.120079
v 105.974014 208.773193 119.743378
v 105.968361 209.419098 119.894264
v 103.095070 207.906204 120.652824
v 103.538155 207.490631 120.386459
v 103.078972 209.745544 121.082512
v 103.514061 210.243408 121.029533
v 105.282417 210.409119 120.386452
v 103.124985 211.547775 116.547325
v 103.700844 211.354370 116.280952
v 104.143929 210.938797 116.014580
v 104.085594 210.544342 120.878639
v 104.706558 210.602524 120.652824
v 104.578911 224.367279 119.344002
v 95.477531 240.199249 130.267715
v 115.827606 207.294693 115.607040
v 114.015205 211.368927 112.727242
v 62.268440 119.780487 27.296482
v 58.899940 114.341995 23.981522
v 60.812542 118.785797 25.416277
v 61.578701 120.565933 25.991020
v 59.151649 112.580933 24.944494
v 75.835304 157.659546 37.967293
v 40.548668 66.349854 8.486486
v 106.396767 221.863205 118.069313
v 107.251656 81.795624 117.819107
v 0.005960 232.005356 66.394920
v 0.008249 232.005356 66.394928
v 0.003351 187.741730 49.571293
v 0.006353 187.741714 49.571289
v 0.027834 187.741653 49.571259
v 83.880890 252.051926 134.395340
v 0.000765 187.741730 49.571297
v 0.000289 187.741730 49.571301
v 0.000331 187.741730 49.571301
v 4.325386 241.094666 83.325188
v 0.019971 232.005417 66.394943
v 0.049323 232.005554 66.394981
v 0.409249 232.007248 66.395447
v 0.000000 187.741837 49.571339
v 0.000581 187.741730 49.571297
v 0.000000 232.005325 66.394913
v 0.000000 232.028549 66.403748
v 59.819290 115.069336 24.216354
v 0.000000 231.986359 66.359535
v 61.094440 118.013382 25.166889
v 0.000000 232.008926 66.369087
vn 0.8312 -0.1464 -0.5364
vn 0.8288 -0.1394 -0.5419
vn 0.8305 -0.1445 -0.5379
vn -0.8281 0.1376 0.5434
vn -0.8259 0.1436 0.5453
vn -0.8282 0.1379 0.5432
vn 0.8282 -0.1379 -0.5432
vn 0.9007 -0.2181 -0.3759
vn 0.8075 -0.2918 -0.5126
vn 0.8076 -0.2916 -0.5125
vn 0.8427 -0.4552 -0.2875
vn 0.8074 -0.2920 -0.5127
vn -0.1245 -0.6775 -0.7249
vn 0.4404 -0.6805 0.5856
vn 0.5410 -0.5909 0.5984
vn 0.3097 -0.9022 0.3002
vn 0.8572 -0.0736 -0.5097
vn 0.5751 0.6605 -0.4827
vn -0.7996 0.1594 0.5789
vn 0.7996 -0.1594 -0.5789
vn -0.7834 0.1130 0.6111
vn 0.7834 -0.1130 -0.6111
vn 0.4075 0.7386 -0.5370
vn 0.4660 0.6766 -0.5702
vn 0.1678 0.2436 -0.9553
vn -0.0000 0.3072 -0.9516
vn -0.0000 0.3073 -0.9516
vn -0.0000 -0.3072 0.9516
vn -0.0000 -0.3073 0.9516
vn -0.0000 0.8814 -0.4723
vn -0.0000 0.3553 -0.9348
vn 0.5974 0.0272 -0.8015
vn -0.8435 0.1531 0.5148
vn -0.8439 0.1542 0.5139
vn -0.7007 0.0326 0.7128
vn -0.8452 0.1584 0.5105
vn 0.0001 0.3076 -0.9515
vn -0.7922 0.4479 -0.4144
vn -0.4792 -0.0857 0.8735
vn -0.9015 0.2137 0.3763
vn -0.8048 0.2881 0.5189
vn -0.8085 0.2823 0.5164
vn -0.8048 0.2883 0.5189
vn -0.8437 0.4506 0.2918
vn -0.6876 0.3715 0.6239
vn -0.8083 0.2826 0.5165
vn 0.1331 0.6708 0.7296
vn -0.4312 0.6839 -0.5885
vn -0.5386 0.5904 -0.6011
vn -0.3076 0.9018 -0.3034
vn -0.8621 0.0924 0.4983
vn -0.5752 -0.6621 0.4803
vn -0.8074 -0.3410 -0.4815
vn -0.8074 -0.3411 -0.4815
vn -0.2033 0.3790 -0.9028
vn -0.8215 0.1787 0.5415
vn -0.4887 -0.0559 0.8707
vn 0.8215 -0.1787 -0.5415
vn -0.8049 0.1218 0.5808
vn 0.8049 -0.1218 -0.5808
vn -0.4074 -0.7398 0.5355
vn -0.4676 -0.6762 0.5692
vn -0.1808 -0.7806 0.5983
vn 0.3950 -0.7722 0.4977
vn -0.4676 -0.6762 0.5693
vn -0.0312 -0.8055 0.5918
vn 0.0196 -0.3072 0.9514
vn 0.0006 -0.3074 0.9516
vn -0.0000 -0.3474 0.9377
vn 0.0004 -0.3314 0.9435
vn 0.0411 0.5873 0.8083
vn 0.0035 -0.8814 0.4723
vn 0.0021 -0.6598 0.7515
vn 0.0023 -0.6594 0.7518
vn 0.0028 -0.8815 0.4722
vn 0.0010 -0.8817 0.4718
vn 0.0009 -0.6601 0.7512
vn 0.0005 -0.3553 0.9348
vn 0.0036 -0.6230 0.7822
vn 0.0003 -0.3514 0.9362
vn 0.0043 -0.3243 0.9460
vn 0.8167 -0.1344 -0.5613
vn -0.8167 0.1344 0.5613
vn -0.5444 -0.7621 0.3505
vn 0.3539 -0.1974 0.9142
vn 0.1958 0.8850 -0.4225
vn -0.0223 -0.8082 0.5885
vn -0.6564 0.6703 -0.3462
vn -0.9119 -0.2767 0.3032
vn 0.0350 -0.6388 -0.7686
vn 0.0848 0.0813 0.9931
vn 0.5510 -0.7593 0.3463
vn 0.5709 -0.0052 0.8210
vn 0.4626 -0.4068 0.7877
vn 0.1920 0.5083 0.8395
vn 0.1926 0.5093 0.8388
vn 0.1911 0.5069 0.8406
vn -1.0000 -0.0000 -0.0000
vn 0.0430 -0.8578 0.5122
vn -0.0000 0.5561 0.8311
vn 0.6247 -0.2399 0.7431
vn -0.0000 -0.8168 0.5770
vn -0.6247 -0.2399 0.7431
vn -0.0000 0.9998 0.0191
vn 1.0000 -0.0000 -0.0000
vn -0.0000 -0.8222 -0.5692
vn -0.0000 -0.8222 -0.5691
vn 0.9622 0.0837 -0.2592
vn -0.9622 0.0837 -0.2592
vn -0.9622 0.0837 -0.2591
vn -0.0000 0.3252 0.9457
vn -0.0000 -0.9516 -0.3072
vn -0.0000 0.9516 0.3072
vn -0.0000 0.1951 -0.9808
vn -0.0000 0.5556 -0.8315
vn -0.0000 0.8315 -0.5556
vn -0.0000 0.9808 -0.1951
vn -0.0000 0.9808 0.1951
vn -0.0000 0.8315 0.5556
vn -0.0000 0.5556 0.8315
vn -0.0000 0.1951 0.9808
vn -0.0000 -0.1951 0.9808
vn -0.0000 -0.5556 0.8315
vn -0.0000 -0.8315 0.5556
vn -0.0000 -0.9808 0.1951
vn -0.0000 -0.9808 -0.1951
vn -0.0000 -0.8315 -0.5556
vn -0.0000 -0.5556 -0.8315
vn -0.0000 -0.1951 -0.9808
vn 0.9622 0.0837 -0.2591
vn -0.0000 0.8315 -0.5555
vn -0.0000 0.8315 0.5555
vn -0.0000 -0.8315 0.5555
vn -0.0000 -0.8315 -0.5555
vn -0.6247 -0.6883 0.3688
vn -0.0000 0.4723 0.8814
vn 0.6247 -0.6883 0.3688
vn -0.0000 -0.4723 -0.8814
vn -0.9622 0.2400 -0.1286
vn -0.0000 0.7069 0.7073
vn -0.0000 -0.1974 -0.9803
vn -0.0000 -0.9885 -0.1510
vn -0.0000 -0.8814 0.4723
vn 0.9622 0.2400 -0.1286
vn 0.3934 -0.8104 0.4342
vn 0.7987 -0.5304 0.2842
vn -0.0000 -0.4217 0.9067
vn -0.0000 -0.4218 0.9067
vn -0.0000 0.9808 -0.1952
vn -0.0000 0.9808 0.1952
vn -0.0000 -0.9808 -0.1952
vn -0.0000 0.8314 -0.5556
vn -0.0000 0.8314 0.5556
vn -0.0000 -0.5555 0.8315
vn -0.0000 -0.9808 0.1952
vn -0.0000 -0.5555 -0.8315
vn -0.0000 -0.9348 -0.3553
vn 0.6247 -0.2774 0.7299
vn -0.0000 -0.3553 0.9348
vn -0.0000 -0.7922 -0.6103
vn -0.6247 -0.2774 0.7299
vn -0.0000 0.2766 0.9610
vn -0.0000 0.9348 0.3553
vn -0.9622 0.0968 -0.2546
vn -0.0000 -0.8451 0.5347
vn -0.0000 -0.8451 0.5346
vn -0.0000 0.9975 0.0700
vn 0.9622 0.0968 -0.2546
vn -0.0000 0.5555 -0.8315
vn 0.3515 -0.2101 0.9123
vn 0.3514 -0.2101 0.9123
vn -0.8161 -0.3589 -0.4529
vn -0.2865 -0.9519 -0.1087
vn -0.2865 -0.9519 -0.1088
vn 0.5411 -0.7497 -0.3811
vn -0.5411 0.7497 0.3811
vn -0.8161 -0.3588 -0.4530
vn -0.7640 -0.6276 0.1498
vn -0.3515 0.2101 -0.9123
vn -0.3515 0.2100 -0.9123
vn -0.3514 0.2101 -0.9123
vn 0.5181 -0.0597 0.8532
vn -0.9359 -0.0523 0.3485
vn -0.1454 -0.5705 -0.8083
vn -0.1659 0.3491 -0.9223
vn -0.7589 -0.6316 0.1584
vn -0.3375 0.8806 0.3327
vn 0.7118 -0.5731 -0.4061
vn -0.3770 -0.6213 0.6869
vn 0.8682 -0.2916 -0.4016
vn 0.9362 0.0878 -0.3404
vn 0.9362 0.0877 -0.3405
vn 0.8616 0.4537 -0.2275
vn 0.6559 0.7506 -0.0799
vn 0.3504 0.9332 0.0799
vn -0.0085 0.9737 0.2275
vn -0.3661 0.8661 0.3404
vn -0.6680 0.6265 0.4016
vn -0.8682 0.2916 0.4016
vn -0.9362 -0.0877 0.3404
vn -0.9362 -0.0878 0.3404
vn -0.8616 -0.4537 0.2275
vn -0.6559 -0.7506 0.0799
vn -0.6560 -0.7506 0.0799
vn -0.3504 -0.9332 -0.0799
vn 0.0085 -0.9737 -0.2275
vn 0.3661 -0.8661 -0.3404
vn 0.3661 -0.8660 -0.3405
vn 0.6680 -0.6265 -0.4016
vn 0.9362 0.0877 -0.3404
vn -0.3661 0.8661 0.3405
vn 0.0631 -0.0211 0.9978
vn 0.0631 -0.0212 0.9978
vn 0.0629 -0.0212 0.9978
vn -0.6471 0.3553 0.6745
vn -0.8792 0.4720 0.0656
vn -0.7259 0.3818 -0.5721
vn 0.4723 0.8814 -0.0112
vn -0.0631 0.0212 -0.9978
vn -0.0630 0.0212 -0.9978
vn -0.0631 0.0211 -0.9978
vn -0.9867 -0.1513 0.0592
vn -0.4723 -0.8814 0.0112
vn 0.1597 -0.0980 -0.9823
vn 0.6896 0.7236 -0.0282
vn -0.4200 0.9064 0.0458
vn 0.2818 -0.1390 0.9494
vn -0.4021 0.2230 0.8880
vn -0.2208 -0.9753 -0.0067
vn 0.9899 -0.1262 -0.0652
vn 0.9632 0.2629 -0.0553
vn 0.7899 0.6121 -0.0370
vn 0.7900 0.6121 -0.0370
vn 0.4964 0.8680 -0.0130
vn 0.1273 0.9918 0.0130
vn -0.2612 0.9646 0.0370
vn -0.6099 0.7905 0.0553
vn -0.8658 0.4961 0.0652
vn -0.9899 0.1262 0.0652
vn -0.9632 -0.2629 0.0553
vn -0.7900 -0.6120 0.0370
vn -0.7899 -0.6121 0.0370
vn -0.4964 -0.8680 0.0130
vn -0.1273 -0.9918 -0.0130
vn 0.2612 -0.9646 -0.0370
vn 0.6099 -0.7905 -0.0553
vn 0.8658 -0.4961 -0.0652
vn 0.9632 0.2630 -0.0553
vn -0.7900 -0.6121 0.0370
vn 0.0237 0.2472 0.9687
vn 0.1413 0.4320 0.8907
vn 0.1055 -0.9641 0.2435
vn 0.1056 -0.9641 0.2435
vn -0.8586 0.5013 -0.1069
vn 0.0951 -0.0490 -0.9943
vn 0.0951 -0.0491 -0.9943
vn 0.8586 -0.5013 0.1069
vn 0.0952 -0.0490 -0.9943
vn -0.0237 -0.2472 -0.9687
vn -0.0237 -0.2471 -0.9687
vn -0.0238 -0.2473 -0.9686
vn 0.9580 -0.2825 0.0486
vn -0.7067 0.6895 -0.1586
vn -0.3850 -0.4931 0.7802
vn -0.4146 -0.8019 -0.4301
vn -0.4147 -0.8019 -0.4301
vn -0.9248 -0.3626 0.1152
vn -0.5120 -0.8292 0.2242
vn -0.1034 0.9644 -0.2436
vn -0.4761 0.8548 -0.2065
vn -0.7762 0.6152 -0.1380
vn -0.9582 0.2818 -0.0485
vn -0.9582 0.2818 -0.0484
vn -0.9944 -0.0944 0.0484
vn -0.9944 -0.0944 0.0485
vn -0.8791 -0.4562 0.1380
vn -0.6300 -0.7486 0.2065
vn -0.2850 -0.9271 0.2436
vn 0.1034 -0.9644 0.2436
vn 0.4761 -0.8548 0.2065
vn 0.7762 -0.6152 0.1380
vn 0.9582 -0.2819 0.0484
vn 0.9582 -0.2818 0.0484
vn 0.9944 0.0944 -0.0485
vn 0.8791 0.4562 -0.1380
vn 0.6300 0.7486 -0.2065
vn 0.2850 0.9271 -0.2436
vn -0.9582 0.2819 -0.0485
vn -0.8791 -0.4563 0.1380
vn 0.9582 -0.2819 0.0485
vn 0.9944 0.0944 -0.0484
vn 0.8791 0.4563 -0.1380
vn 0.6300 0.7487 -0.2065
vn -0.0000 0.9910 0.1339
vn -0.0000 -0.9910 -0.1339
vn -0.0000 0.1339 -0.9910
vn -0.0000 0.1338 -0.9910
vn -0.0000 -0.1339 0.9910
vn -0.1951 -0.9720 -0.1313
vn -0.5556 -0.8240 -0.1113
vn -0.8315 -0.5506 -0.0744
vn -0.9808 -0.1933 -0.0261
vn -0.9808 0.1933 0.0261
vn -0.8315 0.5506 0.0744
vn -0.5556 0.8240 0.1113
vn -0.1951 0.9720 0.1313
vn 0.1951 0.9720 0.1313
vn 0.5556 0.8240 0.1113
vn 0.8315 0.5506 0.0744
vn 0.9808 0.1933 0.0261
vn 0.9808 -0.1933 -0.0261
vn 0.8315 -0.5506 -0.0744
vn 0.5556 -0.8240 -0.1113
vn 0.1951 -0.9720 -0.1313
vn 0.1951 -0.9719 -0.1313
vn -0.0000 1.0000 -0.0000
vn -0.0000 -1.0000 -0.0000
vn -0.0000 -0.3764 0.9265
vn -0.4677 -0.6762 0.5693
vn -0.0000 -0.3436 0.9391
vn 0.0024 -0.3140 0.9494
vn 0.0005 -0.3095 0.9509
vn 0.0006 -0.3137 0.9495
vn 0.0079 -0.3353 0.9421
vn 0.0077 -0.3933 0.9194
vn 0.0196 -0.3073 0.9514
vn 0.0009 -0.8816 0.4719
vn -0.0000 -0.9012 0.4334
vn -0.0000 -0.9012 0.4333
vn -0.0301 0.2397 0.9704
vn 0.0034 -0.8814 0.4723
vn 0.0031 -0.6602 0.7511
vn 0.0029 -0.6593 0.7519
vn 0.0012 -0.8819 0.4714
vn 0.0010 -0.8818 0.4716
vn 0.0011 -0.8818 0.4716
vn 0.0011 -0.8819 0.4714
vn 0.0011 -0.8819 0.4715
vn 0.0059 -0.9824 -0.1866
vn -0.0000 -0.3316 0.9434
vn -0.4486 -0.8369 0.3135
vn 0.0024 0.0114 0.9999
vn 0.0420 0.9431 -0.3298
vn -0.0113 -0.7296 0.6838
vn -0.6730 0.5945 -0.4400
vn -0.8968 -0.3019 0.3235
vn -0.1336 -0.3656 -0.9211
vn -0.0591 0.4761 0.8774
vn 0.2583 -0.7880 0.5589
vn 0.6542 0.0856 0.7515
vn 0.4266 -0.4000 0.8112
vn 0.1906 0.5059 0.8413
vn -0.0029 0.4723 0.8814
vn 0.3515 -0.2100 0.9123
vn 0.3514 -0.2100 0.9124
vn 0.3516 -0.2101 0.9123
vn 0.3514 -0.2100 0.9123
vn 0.3516 -0.2100 0.9123
vn 0.3514 -0.2101 0.9124
vn -0.3514 0.2100 -0.9123
vn -0.3516 0.2099 -0.9123
vn -0.3514 0.2100 -0.9124
vn -0.3513 0.2100 -0.9124
vn -0.9359 -0.0522 0.3485
vn 0.8616 0.4537 -0.2274
vn 0.0629 -0.0211 0.9978
vn 0.0630 -0.0211 0.9978
vn 0.0630 -0.0212 0.9978
vn 0.0631 -0.0213 0.9978
vn -0.0630 0.0211 -0.9978
vn -0.0628 0.0212 -0.9978
vn 0.6896 0.7236 -0.0283
vn 0.0237 0.2471 0.9687
vn 0.0238 0.2472 0.9687
vn 0.0236 0.2472 0.9687
vn -0.0238 -0.2472 -0.9687
vn -0.0236 -0.2472 -0.9687
vn -0.0238 -0.2473 -0.9687
vn -0.0000 0.1340 -0.9910
vn -0.0000 0.1337 -0.9910
vn -0.0000 -0.1340 0.9910
vn -0.1950 -0.9720 -0.1313
vn 0.1952 -0.9719 -0.1313
vn 0.1950 -0.9720 -0.1313
vn 0.2765 0.7443 -0.6079
s 1
usemtl
f 135//1 137//2 446//3
f 141//4 137//5 711//6
f 446//3 137//2 711//7
f 444//8 135//8 446//8
f 448//9 444//10 446//9
f 510//11 448//11 538//11
f 448//9 446//9 538//12
f 137//13 135//13 1//13
f 144//14 143//14 444//14
f 144//15 444//15 448//15
f 144//16 448//16 510//16
f 539//17 541//17 642//17
f 639//18 642//18 541//18
f 141//19 711//19 713//19
f 713//20 446//20 711//20
f 713//21 541//21 141//21
f 541//22 539//22 713//22
f 274//23 639//23 541//23
f 430//24 639//24 274//24
f 687//25 713//26 711//27
f 186//26 541//26 690//26
f 688//28 690//28 687//28
f 713//29 137//29 541//29
f 367//30 369//30 364//30
f 421//30 430//30 417//30
f 541//31 186//31 274//31
f 141//32 541//32 137//32
f 136//33 445//34 138//35
f 140//36 691//37 686//38
f 445//34 689//39 138//35
f 139//40 445//40 136//40
f 447//41 445//42 139//43
f 509//44 512//45 447//44
f 492//46 537//46 445//42
f 138//47 2//47 136//47
f 145//48 139//48 142//48
f 145//49 447//49 139//49
f 145//50 509//50 447//50
f 540//51 643//51 542//51
f 542//52 684//53 692//54
f 638//52 648//52 643//52
f 686//38 687//55 140//56
f 685//57 445//56 540//56
f 140//58 688//58 687//58
f 690//59 540//59 542//59
f 688//60 140//60 690//60
f 275//61 542//61 638//61
f 638//62 637//63 699//64
f 415//65 275//65 632//66
f 3//67 9//67 11//67
f 93//68 701//69 85//68
f 180//68 698//70 697//71
f 297//72 695//73 704//74
f 366//75 363//76 368//76
f 695//73 709//77 263//78
f 275//79 268//80 542//81
f 685//57 690//82 542//82
f 691//37 140//82 687//25
f 140//83 687//83 690//83
f 139//84 136//84 444//84
f 537//85 509//85 538//85
f 537//86 538//86 446//86
f 136//87 1//87 135//87
f 1//88 138//88 137//88
f 144//89 145//89 142//89
f 142//90 139//90 143//90
f 509//91 144//91 510//91
f 643//92 539//92 642//92
f 639//93 643//93 642//93
f 540//94 446//94 539//94
f 429//95 638//96 639//97
f 186//98 707//98 188//98
f 187//98 3//98 707//98
f 3//99 137//99 138//99
f 709//98 714//98 712//98
f 366//98 710//98 709//98
f 712//98 714//98 265//98
f 367//100 429//100 430//100
f 265//98 186//98 712//98
f 266//98 714//98 267//98
f 86//98 64//98 89//98
f 59//98 5//98 89//98
f 10//98 19//98 18//98
f 91//101 84//101 92//101
f 7//102 8//102 6//102
f 89//103 68//103 90//103
f 84//101 41//101 7//101
f 84//101 7//101 92//101
f 28//28 6//28 41//28
f 85//104 88//104 87//104
f 89//103 5//103 68//103
f 5//103 28//103 68//103
f 14//105 35//105 36//105
f 92//105 79//105 88//105
f 40//105 14//105 88//105
f 68//28 28//28 84//28
f 41//101 8//101 7//101
f 90//28 68//28 91//28
f 9//106 12//107 14//106
f 14//108 16//108 88//108
f 88//108 16//108 87//108
f 5//103 6//103 28//103
f 86//109 85//109 15//109
f 10//110 86//109 15//109
f 91//111 92//111 89//111
f 14//108 12//108 13//108
f 14//112 7//112 10//112
f 88//113 86//113 92//113
f 10//110 11//110 9//110
f 25//114 44//114 43//114
f 42//115 24//115 43//115
f 38//116 21//116 42//116
f 37//117 20//117 38//117
f 36//118 19//118 37//118
f 35//119 18//119 36//119
f 22//120 18//120 39//120
f 17//121 39//121 34//121
f 23//122 17//122 40//122
f 29//123 23//123 46//123
f 30//124 29//124 47//124
f 31//125 30//125 48//125
f 32//126 31//126 49//126
f 33//127 32//127 50//127
f 45//128 27//128 50//128
f 26//129 45//129 44//129
f 75//114 59//114 81//114
f 74//115 58//115 75//115
f 73//116 57//116 74//116
f 72//117 56//117 73//117
f 69//118 53//118 72//118
f 70//119 54//119 69//119
f 55//120 54//120 71//120
f 51//121 71//121 52//121
f 60//122 51//122 76//122
f 61//123 60//123 77//123
f 62//124 61//124 78//124
f 63//125 62//125 79//125
f 64//126 63//126 80//126
f 67//127 64//127 83//127
f 82//128 66//128 83//128
f 81//129 65//129 82//129
f 110//102 109//102 108//102
f 179//98 159//98 182//98
f 154//98 107//98 182//98
f 111//98 94//98 112//98
f 185//101 123//101 110//101
f 185//101 110//101 184//101
f 107//112 94//112 110//112
f 178//104 181//104 180//104
f 182//103 107//103 183//103
f 107//103 122//103 183//103
f 183//28 122//28 185//28
f 123//101 109//101 110//101
f 122//28 108//28 123//28
f 93//106 95//106 96//106
f 94//109 178//110 93//109
f 124//105 110//105 102//105
f 175//105 174//105 181//105
f 105//105 96//105 181//105
f 107//103 108//103 122//103
f 181//130 96//108 180//130
f 181//113 179//113 184//113
f 185//111 184//111 182//111
f 128//114 115//114 134//114
f 114//115 128//115 127//115
f 113//116 127//116 126//116
f 125//117 112//117 126//117
f 124//118 111//118 125//118
f 97//119 124//119 102//119
f 98//120 97//120 103//120
f 99//121 98//121 104//121
f 100//122 99//122 105//122
f 101//123 100//123 106//123
f 116//124 101//124 129//124
f 117//125 116//125 130//125
f 119//126 117//126 132//126
f 120//127 119//127 133//127
f 118//128 133//128 131//128
f 134//129 121//129 131//129
f 169//114 154//114 177//114
f 154//115 169//115 168//115
f 152//116 168//131 167//131
f 151//117 167//117 166//117
f 150//118 166//118 165//118
f 147//119 165//132 162//132
f 146//120 147//120 161//120
f 148//121 146//121 163//121
f 149//122 148//122 164//122
f 156//123 149//123 171//123
f 157//133 156//133 172//124
f 158//125 172//125 173//125
f 159//126 158//126 174//126
f 160//134 159//134 175//127
f 155//128 175//128 170//128
f 177//129 176//129 170//129
f 327//98 276//98 348//98
f 348//98 358//98 346//98
f 301//98 276//98 279//98
f 276//135 277//135 285//135
f 358//136 348//136 360//136
f 276//135 285//135 349//135
f 348//135 276//135 349//135
f 310//105 287//105 311//105
f 354//105 360//105 356//105
f 313//105 300//105 360//105
f 288//137 286//137 287//137
f 287//138 276//138 300//138
f 296//139 298//139 297//139
f 359//140 357//140 360//140
f 296//139 358//139 319//139
f 299//141 300//141 297//141
f 355//137 287//137 356//137
f 355//137 288//137 287//137
f 287//142 286//142 276//142
f 285//143 277//143 288//143
f 349//143 285//143 355//143
f 358//139 357//139 319//139
f 300//144 299//145 703//146
f 300//144 320//146 360//144
f 348//147 349//148 356//148
f 360//144 320//146 359//144
f 295//114 284//114 317//114
f 294//115 283//115 295//115
f 283//131 294//131 293//131
f 282//117 293//149 292//117
f 280//118 292//118 291//150
f 278//132 291//132 289//132
f 279//120 278//120 290//120
f 301//121 279//121 310//121
f 302//122 301//122 311//122
f 303//123 302//123 312//123
f 304//133 312//133 313//133
f 305//125 313//125 314//125
f 306//151 305//126 315//126
f 307//134 306//134 316//134
f 318//128 309//128 316//128
f 317//129 308//129 318//129
f 351//114 344//114 352//114
f 350//115 343//115 351//115
f 343//131 350//152 338//116
f 327//117 338//117 337//117
f 325//118 337//118 336//118
f 324//132 336//119 335//153
f 321//120 324//120 332//120
f 322//121 321//121 333//121
f 323//122 322//122 334//122
f 328//123 323//123 339//154
f 329//133 339//133 340//133
f 330//155 329//125 341//125
f 331//151 330//126 342//126
f 347//134 331//134 354//134
f 353//156 346//128 354//156
f 352//129 345//129 353//129
f 193//157 189//157 213//157
f 272//158 219//158 213//158
f 272//158 213//158 273//158
f 211//159 194//159 219//159
f 190//160 192//160 191//160
f 270//161 193//161 271//161
f 193//161 211//161 271//161
f 271//159 211//159 272//159
f 219//158 212//158 213//158
f 272//162 273//162 270//162
f 269//163 264//163 273//163
f 264//164 263//164 190//164
f 213//165 212//165 194//166
f 220//105 213//105 214//105
f 261//105 260//105 269//105
f 217//105 191//105 269//105
f 193//161 194//161 211//161
f 263//167 269//167 268//167
f 264//98 244//98 270//98
f 240//98 193//98 270//98
f 200//98 195//98 193//98
f 191//168 192//168 269//168
f 205//114 225//114 224//114
f 204//115 224//169 223//169
f 203//131 223//131 222//131
f 202//117 222//117 221//117
f 200//118 221//118 220//118
f 195//132 220//132 214//132
f 196//120 214//120 215//120
f 197//121 196//121 216//121
f 198//122 197//122 217//122
f 199//123 198//123 218//123
f 206//133 218//133 226//133
f 207//125 226//125 227//125
f 208//126 207//126 228//126
f 209//134 208//134 229//134
f 210//128 229//156 230//156
f 205//129 230//129 225//129
f 256//114 240//114 262//114
f 251//115 235//115 256//115
f 235//116 251//131 250//131
f 234//117 250//117 249//117
f 232//118 249//118 248//118
f 231//119 248//132 247//132
f 236//120 231//120 252//120
f 237//121 236//121 253//121
f 238//122 237//122 254//122
f 239//123 238//123 255//123
f 242//133 255//124 258//124
f 243//125 258//125 259//125
f 244//126 243//126 260//126
f 245//134 244//134 261//127
f 257//128 241//128 261//128
f 262//129 246//129 257//129
f 671//170 598//170 645//170
f 619//170 630//171 635//170
f 667//171 666//170 683//170
f 594//172 595//172 596//172
f 644//173 640//174 645//174
f 645//175 641//175 683//175
f 595//176 635//176 633//176
f 640//177 595//172 641//177
f 596//172 595//172 640//177
f 597//178 594//178 596//178
f 640//178 597//178 596//178
f 644//178 597//178 640//178
f 661//179 641//179 660//179
f 633//179 646//179 678//180
f 595//179 617//181 616//180
f 682//182 683//182 648//182
f 598//183 595//183 594//183
f 681//184 646//185 633//185
f 646//185 684//53 647//186
f 635//187 682//187 634//187
f 683//188 646//188 647//188
f 646//185 692//54 684//53
f 598//189 597//189 645//189
f 673//190 655//190 651//190
f 655//191 654//191 650//192
f 654//193 671//193 649//193
f 671//194 672//194 653//194
f 672//195 664//195 652//195
f 665//196 652//196 664//196
f 666//197 660//197 665//197
f 667//198 660//198 666//198
f 669//199 663//199 667//199
f 670//200 663//201 669//200
f 670//202 678//202 662//202
f 668//203 675//203 677//204
f 675//205 680//205 676//205
f 680//206 679//206 676//206
f 674//207 657//208 679//207
f 674//209 656//209 657//209
f 618//190 612//190 614//190
f 612//210 611//210 607//210
f 606//193 607//193 610//193
f 609//194 608//194 610//194
f 609//195 620//195 599//195
f 620//196 621//196 599//196
f 621//211 622//211 601//197
f 623//198 602//198 622//198
f 624//199 602//199 623//199
f 624//200 604//200 603//200
f 629//202 605//202 625//202
f 628//203 605//203 629//203
f 628//205 627//205 617//205
f 630//206 617//206 627//206
f 619//207 616//207 630//207
f 619//209 618//209 615//209
f 496//212 452//213 497//214
f 530//213 511//213 536//213
f 529//212 532//213 536//213
f 451//215 452//215 524//215
f 451//216 514//216 450//216
f 514//217 483//217 450//217
f 450//217 483//217 449//217
f 491//218 483//218 536//218
f 449//219 483//219 475//219
f 483//219 488//220 487//219
f 458//221 459//220 449//219
f 451//216 524//216 514//216
f 524//216 523//216 514//216
f 523//217 483//217 514//217
f 451//222 450//222 449//222
f 452//223 449//223 511//223
f 453//224 471//224 470//224
f 491//225 535//225 534//225
f 472//224 491//224 490//224
f 453//224 472//224 471//224
f 524//226 525//226 483//226
f 511//227 512//45 693//228
f 511//227 693//228 533//228
f 536//227 533//228 535//227
f 511//229 470//229 512//229
f 498//230 493//230 455//230
f 493//231 494//231 454//231
f 494//232 495//232 457//233
f 456//234 496//234 458//234
f 459//235 496//235 497//235
f 497//236 502//236 463//236
f 502//237 503//237 464//237
f 504//238 465//238 464//238
f 508//239 469//239 504//239
f 507//240 468//240 469//240
f 506//241 467//242 507//241
f 505//243 467//243 506//243
f 501//244 462//244 505//244
f 500//245 462//245 501//245
f 499//246 460//246 500//246
f 499//247 498//247 460//247
f 513//230 473//230 517//230
f 516//231 474//248 513//231
f 515//233 476//232 516//233
f 476//234 520//234 477//234
f 480//235 520//235 521//235
f 480//236 526//236 484//236
f 526//237 527//237 485//237
f 530//238 486//238 485//238
f 531//239 489//239 530//239
f 532//240 488//240 489//240
f 529//242 487//249 488//249
f 528//243 487//243 529//243
f 522//244 481//244 528//244
f 519//245 479//245 522//245
f 518//246 478//246 519//246
f 518//247 517//247 478//247
f 435//250 438//250 587//250
f 590//250 589//250 587//250
f 441//250 442//250 431//250
f 548//251 431//251 637//251
f 585//252 586//253 587//252
f 427//254 404//254 431//254
f 428//255 549//256 427//255
f 587//257 586//257 636//257
f 549//256 566//258 427//255
f 566//258 632//258 631//258
f 404//259 427//259 423//259
f 564//259 586//259 565//260
f 425//259 631//259 426//261
f 699//64 636//262 632//66
f 431//263 548//263 428//263
f 438//264 585//264 587//264
f 573//265 404//266 586//266
f 409//266 404//266 573//265
f 432//267 438//267 404//267
f 584//266 573//265 586//266
f 432//268 405//268 409//268
f 432//268 409//268 573//268
f 432//268 573//268 585//268
f 573//268 584//268 585//268
f 412//269 411//269 437//269
f 543//270 412//270 567//270
f 568//271 544//271 567//271
f 570//272 544//273 568//272
f 571//274 545//275 570//274
f 572//276 547//276 571//276
f 569//277 426//277 572//277
f 443//278 425//278 569//278
f 442//279 424//279 443//279
f 441//280 423//280 442//280
f 440//281 423//281 441//281
f 440//282 439//282 422//283
f 439//284 433//284 406//284
f 433//285 434//285 406//285
f 410//286 408//286 435//286
f 411//287 410//287 436//287
f 553//269 552//269 582//269
f 553//270 588//270 561//270
f 588//271 589//271 561//271
f 590//288 565//288 589//288
f 590//275 593//275 565//274
f 593//289 592//289 564//289
f 591//277 559//277 592//277
f 559//278 591//278 583//278
f 580//279 558//279 583//279
f 558//280 580//280 579//280
f 577//281 557//281 579//281
f 576//290 555//283 577//290
f 576//284 575//284 555//291
f 574//285 550//292 575//285
f 550//286 578//293 551//286
f 578//287 581//287 552//287
f 418//294 365//294 421//294
f 414//295 413//295 361//295
f 363//296 375//296 372//296
f 382//297 415//296 396//296
f 365//296 417//296 364//296
f 377//296 414//296 376//296
f 419//105 420//105 414//105
f 421//105 417//105 418//105
f 390//298 361//298 413//298
f 368//298 392//298 420//298
f 363//98 361//98 368//98
f 369//98 365//98 364//98
f 392//299 381//299 393//299
f 393//300 382//300 401//300
f 401//301 396//301 403//301
f 402//302 403//302 397//302
f 400//303 402//303 395//303
f 399//304 400//304 394//304
f 394//305 391//305 399//305
f 376//306 391//306 377//306
f 387//307 390//307 376//307
f 374//308 386//308 387//308
f 386//309 373//309 383//309
f 383//310 370//310 384//310
f 384//311 371//311 385//311
f 385//312 372//312 375//312
f 388//313 378//313 389//313
f 389//314 379//315 392//314
f 186//26 137//26 4//26
f 364//30 417//30 274//30
f 367//30 274//30 266//30
f 421//30 367//30 430//30
f 367//30 421//30 369//30
f 364//30 274//30 367//30
f 417//30 430//30 274//30
f 266//31 274//31 186//31
f 535//44 537//44 534//44
f 533//228 537//44 535//44
f 472//44 490//44 447//44
f 471//316 472//316 470//316
f 537//44 693//228 512//45
f 470//44 472//44 447//44
f 509//44 537//44 512//45
f 512//45 470//44 447//44
f 447//41 490//46 445//42
f 534//46 537//46 492//46
f 490//46 492//46 445//42
f 648//52 542//52 643//52
f 647//186 542//52 648//52
f 638//52 634//52 682//52
f 681//184 634//317 692//54
f 638//52 542//52 634//52
f 638//52 682//52 648//52
f 429//65 637//63 638//62
f 566//318 549//318 632//318
f 638//62 699//64 632//66
f 416//65 275//65 415//65
f 419//319 415//65 429//65
f 429//65 548//65 637//63
f 429//65 428//65 548//65
f 429//65 415//65 428//65
f 428//65 415//65 549//65
f 632//66 275//65 638//62
f 549//65 415//65 632//66
f 87//67 16//67 138//67
f 16//67 13//67 138//67
f 707//320 85//67 701//69
f 3//67 15//67 85//67
f 13//67 12//67 138//67
f 12//67 9//67 138//67
f 3//67 11//67 15//67
f 9//67 3//67 138//67
f 87//321 138//35 689//39
f 95//322 87//321 542//81
f 178//68 180//68 697//71
f 93//323 87//321 95//322
f 178//68 708//324 702//325
f 93//326 85//326 87//326
f 180//68 95//322 542//81
f 359//327 320//146 275//79
f 298//328 319//329 297//329
f 703//146 275//79 320//146
f 299//145 297//72 275//79
f 357//72 709//77 694//330
f 319//331 694//330 695//73
f 297//72 705//332 706//333
f 366//75 357//72 359//327
f 359//327 275//79 416//334
f 380//335 379//76 381//336
f 381//336 359//327 416//334
f 420//337 419//334 429//338
f 368//76 420//337 429//338
f 379//76 359//327 381//336
f 363//76 359//327 379//76
f 366//75 368//76 429//338
f 363//76 366//75 359//327
f 542//81 192//78 698//70
f 696//339 697//71 698//70
f 263//78 706//333 705//332
f 190//78 708//324 700//340
f 268//80 275//79 706//333
f 268//80 192//78 542//81
f 136//341 135//341 444//341
f 509//342 510//342 538//342
f 445//343 537//343 446//343
f 2//344 1//344 136//344
f 2//345 138//345 1//345
f 143//346 144//346 142//346
f 139//347 444//347 143//347
f 145//348 144//348 509//348
f 540//349 539//349 643//349
f 639//350 638//350 643//350
f 445//351 446//351 540//351
f 430//352 429//95 639//97
f 3//98 186//98 4//98
f 3//112 4//112 137//112
f 267//98 367//98 266//98
f 267//98 714//98 710//98
f 367//353 366//353 429//353
f 712//98 186//98 188//98
f 86//98 62//98 63//98
f 64//98 67//98 89//98
f 63//98 64//98 86//98
f 86//98 61//98 62//98
f 22//98 17//98 10//98
f 23//98 10//98 17//98
f 61//98 86//98 60//98
f 86//98 51//98 60//98
f 23//98 86//98 10//98
f 29//98 86//98 23//98
f 51//98 86//98 55//98
f 29//98 55//98 86//98
f 30//98 55//98 29//98
f 55//98 30//98 54//98
f 31//98 54//98 30//98
f 54//98 31//98 53//98
f 32//98 53//98 31//98
f 53//98 32//98 56//98
f 33//98 56//98 32//98
f 56//98 33//98 57//98
f 27//98 57//98 33//98
f 57//98 27//98 58//98
f 26//98 58//98 27//98
f 58//98 26//98 59//98
f 25//98 59//98 26//98
f 5//98 21//98 20//98
f 66//98 89//98 67//98
f 66//98 65//98 89//98
f 21//98 5//98 24//98
f 24//98 5//98 25//98
f 59//98 89//98 65//98
f 5//98 59//98 25//98
f 5//98 20//98 10//98
f 19//98 10//98 20//98
f 22//98 10//98 18//98
f 6//102 5//102 7//102
f 8//28 41//28 6//28
f 86//104 88//104 85//104
f 7//105 14//105 37//105
f 39//105 35//105 14//105
f 36//105 37//105 14//105
f 80//105 92//105 83//105
f 88//105 79//105 78//105
f 79//105 92//105 80//105
f 82//105 83//105 92//105
f 7//105 37//105 38//105
f 38//105 42//105 7//105
f 82//105 92//105 81//105
f 75//105 81//105 92//105
f 42//105 43//105 7//105
f 7//105 43//105 44//105
f 75//105 92//105 7//105
f 74//105 75//105 7//105
f 7//105 44//105 74//105
f 73//105 74//105 44//105
f 44//105 45//105 73//105
f 72//105 73//105 45//105
f 45//105 50//105 72//105
f 69//105 72//105 50//105
f 50//105 49//105 69//105
f 70//105 69//105 49//105
f 49//105 48//105 70//105
f 71//105 70//105 48//105
f 48//105 47//105 71//105
f 52//105 71//105 47//105
f 47//105 46//105 52//105
f 76//105 52//105 46//105
f 46//105 40//105 76//105
f 88//105 78//105 77//105
f 77//105 76//105 88//105
f 39//105 14//105 34//105
f 88//105 76//105 40//105
f 40//105 34//105 14//105
f 41//28 84//28 28//28
f 84//28 91//28 68//28
f 10//106 9//106 14//106
f 14//108 13//108 16//108
f 10//110 15//109 11//110
f 89//111 90//111 91//111
f 5//112 10//112 7//112
f 89//113 92//113 86//113
f 26//114 44//114 25//114
f 25//115 43//115 24//115
f 24//116 42//116 21//116
f 21//117 38//117 20//117
f 20//118 37//118 19//118
f 19//119 36//119 18//119
f 35//120 39//120 18//120
f 17//121 22//121 39//121
f 17//122 34//122 40//122
f 40//123 46//123 23//123
f 46//124 47//124 29//124
f 47//125 48//125 30//125
f 48//126 49//126 31//126
f 49//127 50//127 32//127
f 33//128 50//128 27//128
f 27//129 45//129 26//129
f 65//114 81//114 59//114
f 59//115 75//115 58//115
f 58//116 74//116 57//116
f 57//117 73//117 56//117
f 56//118 72//118 53//118
f 53//119 69//119 54//119
f 70//120 71//120 54//120
f 51//121 55//121 71//121
f 51//122 52//122 76//122
f 76//123 77//123 60//123
f 77//124 78//124 61//124
f 78//125 79//125 62//125
f 79//126 80//126 63//126
f 80//127 83//127 64//127
f 67//128 83//128 66//128
f 66//129 82//129 65//129
f 108//102 107//102 110//102
f 179//98 157//98 158//98
f 159//98 160//98 182//98
f 158//98 159//98 179//98
f 179//98 156//98 157//98
f 98//98 99//98 94//98
f 100//98 94//98 99//98
f 156//98 179//98 149//98
f 179//98 148//98 149//98
f 100//98 179//98 94//98
f 101//98 179//98 100//98
f 148//98 179//98 146//98
f 101//98 146//98 179//98
f 116//98 146//98 101//98
f 146//98 116//98 147//98
f 117//98 147//98 116//98
f 147//98 117//98 150//98
f 119//98 150//98 117//98
f 150//98 119//98 151//98
f 120//98 151//98 119//98
f 151//98 120//98 152//98
f 118//98 152//98 120//98
f 152//98 118//98 153//98
f 121//98 153//98 118//98
f 153//98 121//98 154//98
f 115//98 154//98 121//98
f 107//98 113//98 112//98
f 155//98 182//98 160//98
f 155//98 176//98 182//98
f 113//98 107//98 114//98
f 114//98 107//98 115//98
f 154//98 182//98 176//98
f 107//98 154//98 115//98
f 98//98 94//98 97//98
f 107//98 112//98 94//98
f 94//98 111//98 97//98
f 96//112 110//112 94//112
f 179//104 181//104 178//104
f 123//28 185//28 122//28
f 109//28 123//28 108//28
f 94//106 93//106 96//106
f 179//110 178//110 94//109
f 110//105 96//105 103//105
f 103//105 102//105 110//105
f 124//105 125//105 110//105
f 181//105 173//105 172//105
f 181//105 184//105 175//105
f 173//105 181//105 174//105
f 170//105 175//105 184//105
f 110//105 125//105 126//105
f 126//105 127//105 110//105
f 170//105 184//105 177//105
f 169//105 177//105 184//105
f 127//105 128//105 110//105
f 110//105 128//105 134//105
f 169//105 184//105 110//105
f 168//105 169//105 110//105
f 110//105 134//105 168//105
f 167//105 168//105 134//105
f 134//105 131//105 167//105
f 166//105 167//105 131//105
f 131//105 133//105 166//105
f 165//105 166//105 133//105
f 133//105 132//105 165//105
f 162//105 165//105 132//105
f 132//105 130//105 162//105
f 161//105 162//105 130//105
f 130//105 129//105 161//105
f 163//105 161//105 129//105
f 129//105 106//105 163//105
f 164//105 163//105 106//105
f 106//105 105//105 164//105
f 181//105 172//105 171//105
f 171//105 164//105 181//105
f 103//105 96//105 104//105
f 181//105 164//105 105//105
f 105//105 104//105 96//105
f 96//108 95//108 180//130
f 182//113 184//113 179//113
f 182//111 183//111 185//111
f 121//114 134//114 115//114
f 115//115 128//115 114//115
f 114//116 127//116 113//116
f 113//117 126//117 112//117
f 112//118 125//118 111//118
f 111//119 124//119 97//119
f 97//120 102//120 103//120
f 103//121 104//121 98//121
f 104//122 105//122 99//122
f 100//123 105//123 106//123
f 101//124 106//124 129//124
f 129//125 130//125 116//125
f 130//126 132//126 117//126
f 119//127 132//127 133//127
f 120//128 133//128 118//128
f 118//129 131//129 121//129
f 176//114 177//114 154//114
f 154//115 168//115 153//115
f 153//152 168//131 152//116
f 152//117 167//117 151//117
f 151//118 166//118 150//118
f 150//119 165//132 147//119
f 147//120 162//120 161//120
f 161//121 163//121 146//121
f 163//122 164//122 148//122
f 149//123 164//123 171//123
f 156//133 171//124 172//124
f 158//125 157//125 172//125
f 158//126 173//126 174//126
f 159//134 174//127 175//127
f 160//128 175//128 155//128
f 155//129 170//129 176//129
f 331//98 358//98 330//98
f 303//98 296//98 302//98
f 296//98 303//98 304//98
f 358//98 329//98 330//98
f 358//98 328//98 329//98
f 304//98 358//98 296//98
f 305//98 358//98 304//98
f 328//98 358//98 323//98
f 305//98 323//98 358//98
f 306//98 323//98 305//98
f 323//98 306//98 322//98
f 307//98 322//98 306//98
f 322//98 307//98 321//98
f 309//98 321//98 307//98
f 321//98 309//98 324//98
f 308//98 324//98 309//98
f 324//98 308//98 325//98
f 284//98 325//98 308//98
f 325//98 284//98 326//98
f 283//98 326//98 284//98
f 326//98 283//98 327//98
f 282//98 327//98 283//98
f 280//98 278//98 276//98
f 344//98 348//98 345//98
f 343//98 348//98 344//98
f 281//98 280//98 276//98
f 276//98 282//98 281//98
f 327//98 348//98 343//98
f 276//98 327//98 282//98
f 331//98 347//98 358//98
f 346//98 345//98 348//98
f 347//98 346//98 358//98
f 296//98 276//98 302//98
f 279//98 276//98 278//98
f 301//98 302//98 276//98
f 356//136 360//136 348//136
f 290//105 289//105 287//105
f 300//105 311//105 287//105
f 310//105 290//105 287//105
f 353//105 356//105 352//105
f 342//105 360//105 354//105
f 356//105 353//105 354//105
f 351//105 352//105 356//105
f 291//105 287//105 289//105
f 292//105 287//105 291//105
f 350//105 351//105 356//105
f 338//105 350//105 356//105
f 287//105 292//105 293//105
f 287//105 293//105 294//105
f 338//105 356//105 287//105
f 337//105 338//105 287//105
f 287//105 294//105 337//105
f 336//105 337//105 294//105
f 294//105 295//105 336//105
f 335//105 336//105 295//105
f 295//105 317//105 335//105
f 332//105 335//105 317//105
f 317//105 318//105 332//105
f 333//105 332//105 318//105
f 318//105 316//105 333//105
f 334//105 333//105 316//105
f 316//105 315//105 334//105
f 339//105 334//105 315//105
f 315//105 314//105 339//105
f 340//105 339//105 314//105
f 314//105 313//105 340//105
f 342//105 341//105 360//105
f 360//105 341//105 340//105
f 312//105 311//105 300//105
f 360//105 340//105 313//105
f 300//105 313//105 312//105
f 296//138 300//138 276//138
f 357//140 358//140 360//140
f 296//139 319//139 298//139
f 297//141 300//141 296//141
f 277//142 276//142 286//142
f 286//143 288//143 277//143
f 288//143 355//143 285//143
f 300//144 703//146 320//146
f 355//148 356//148 349//148
f 308//114 317//114 284//114
f 284//115 295//115 283//115
f 283//131 293//131 282//131
f 282//117 292//117 281//117
f 281//118 292//118 280//118
f 280//132 291//132 278//132
f 289//120 290//120 278//120
f 290//121 310//121 279//121
f 310//122 311//122 301//122
f 311//123 312//123 302//123
f 304//133 303//133 312//133
f 305//125 304//155 313//125
f 305//126 314//126 315//126
f 306//134 315//134 316//134
f 307//128 316//128 309//128
f 309//129 318//129 308//129
f 345//114 352//114 344//114
f 344//115 351//115 343//115
f 343//131 338//116 327//131
f 327//117 337//117 326//117
f 326//118 337//118 325//118
f 325//132 336//119 324//132
f 335//120 332//120 324//120
f 332//121 333//121 321//121
f 333//122 334//122 322//122
f 334//154 339//154 323//123
f 329//133 328//133 339//133
f 329//125 340//125 341//125
f 330//126 341//126 342//126
f 331//134 342//134 354//134
f 347//128 354//156 346//128
f 346//129 353//129 345//129
f 191//157 213//157 189//157
f 212//159 219//159 194//159
f 189//160 190//160 191//160
f 219//159 272//159 211//159
f 270//162 271//162 272//162
f 270//163 273//163 264//163
f 189//164 264//164 190//164
f 194//166 193//166 213//165
f 213//105 191//105 215//105
f 215//105 214//105 213//105
f 220//105 221//105 213//105
f 269//105 259//105 258//105
f 269//105 273//105 261//105
f 259//105 269//105 260//105
f 257//105 261//105 273//105
f 213//105 221//105 222//105
f 222//105 223//105 213//105
f 257//105 273//105 262//105
f 256//105 262//105 273//105
f 223//105 224//105 213//105
f 213//105 224//105 225//105
f 256//105 273//105 213//105
f 251//105 256//105 213//105
f 213//105 225//105 251//105
f 250//105 251//105 225//105
f 225//105 230//105 250//105
f 249//105 250//105 230//105
f 230//105 229//105 249//105
f 248//105 249//105 229//105
f 229//105 228//105 248//105
f 247//105 248//105 228//105
f 228//105 227//105 247//105
f 252//105 247//105 227//105
f 227//105 226//105 252//105
f 253//105 252//105 226//105
f 226//105 218//105 253//105
f 254//105 253//105 218//105
f 218//105 217//105 254//105
f 269//105 258//105 255//105
f 255//105 254//105 269//105
f 215//105 191//105 216//105
f 269//105 254//105 217//105
f 217//105 216//105 191//105
f 264//167 269//167 263//167
f 264//98 242//98 243//98
f 244//98 245//98 270//98
f 243//98 244//98 264//98
f 264//98 239//98 242//98
f 196//98 197//98 189//98
f 198//98 189//98 197//98
f 264//98 189//98 239//98
f 239//98 189//98 238//98
f 199//98 189//98 198//98
f 206//98 189//98 199//98
f 238//98 189//98 237//98
f 237//98 189//98 236//98
f 236//98 189//98 206//98
f 236//98 206//98 231//98
f 207//98 231//98 206//98
f 231//98 207//98 232//98
f 208//98 232//98 207//98
f 232//98 208//98 233//98
f 209//98 233//98 208//98
f 233//98 209//98 234//98
f 210//98 234//98 209//98
f 234//98 210//98 235//98
f 205//98 235//98 210//98
f 235//98 205//98 240//98
f 204//98 240//98 205//98
f 193//98 202//98 201//98
f 241//98 270//98 245//98
f 241//98 246//98 270//98
f 202//98 193//98 203//98
f 203//98 193//98 204//98
f 240//98 270//98 246//98
f 193//98 240//98 204//98
f 193//98 196//98 189//98
f 200//98 193//98 201//98
f 196//98 193//98 195//98
f 269//168 192//168 268//168
f 205//114 224//114 204//114
f 204//115 223//169 203//115
f 203//131 222//131 202//131
f 202//117 221//117 201//117
f 201//118 221//118 200//118
f 200//132 220//132 195//132
f 196//120 195//120 214//120
f 215//121 216//121 196//121
f 216//122 217//122 197//122
f 198//123 217//123 218//123
f 206//133 199//133 218//133
f 207//125 206//125 226//125
f 207//126 227//126 228//126
f 208//134 228//134 229//134
f 209//128 229//156 210//128
f 210//129 230//129 205//129
f 246//114 262//114 240//114
f 240//115 256//115 235//115
f 235//116 250//131 234//116
f 234//117 249//117 233//117
f 233//118 249//118 232//118
f 232//119 248//132 231//119
f 247//120 252//120 231//120
f 252//121 253//121 236//121
f 253//122 254//122 237//122
f 254//123 255//123 238//123
f 242//133 239//133 255//124
f 243//125 242//125 258//125
f 243//126 259//126 260//126
f 244//134 260//127 261//127
f 245//128 261//128 241//128
f 241//129 257//129 246//129
f 627//170 628//170 635//170
f 628//170 629//170 635//170
f 670//170 669//354 683//170
f 668//355 670//170 683//170
f 635//170 629//170 683//170
f 629//170 625//354 683//170
f 675//356 668//355 683//170
f 680//170 675//356 683//170
f 625//354 624//357 683//170
f 624//357 623//170 683//170
f 623//170 680//170 683//170
f 623//170 622//170 680//170
f 622//170 679//171 680//170
f 622//170 621//170 679//171
f 674//170 679//171 621//170
f 621//170 620//170 674//170
f 620//170 673//354 674//170
f 620//170 609//358 673//354
f 609//358 655//171 673//354
f 609//358 610//170 655//171
f 655//171 610//170 654//359
f 654//359 610//170 671//170
f 598//170 612//170 618//171
f 665//170 664//354 645//170
f 664//354 672//170 645//170
f 612//170 598//170 611//354
f 611//354 598//170 610//170
f 672//170 671//170 645//170
f 610//170 598//170 671//170
f 598//170 618//171 635//170
f 618//171 619//170 635//170
f 630//171 627//170 635//170
f 665//170 645//170 683//170
f 669//354 667//171 683//170
f 666//170 665//170 683//170
f 640//174 641//174 645//174
f 646//175 683//175 641//175
f 598//176 635//176 595//176
f 663//179 646//179 641//179
f 660//179 641//179 659//179
f 663//179 641//179 661//179
f 595//179 614//360 613//179
f 613//179 607//181 595//179
f 659//179 641//179 652//179
f 652//179 641//179 653//180
f 607//181 606//361 595//179
f 606//361 608//179 595//179
f 653//180 641//179 649//180
f 649//180 641//179 595//179
f 608//179 649//180 595//179
f 650//362 649//180 608//179
f 599//179 650//362 608//179
f 651//181 650//362 599//179
f 600//179 651//181 599//179
f 600//179 656//179 651//181
f 601//180 656//179 600//179
f 656//179 601//180 657//179
f 602//179 657//179 601//180
f 602//179 658//181 657//179
f 603//179 658//181 602//179
f 603//179 676//360 658//181
f 604//179 676//360 603//179
f 604//179 677//363 676//360
f 605//179 677//363 604//179
f 605//179 678//180 677//363
f 617//181 633//179 626//179
f 626//179 633//179 605//179
f 662//180 646//179 663//179
f 633//179 678//180 605//179
f 678//180 646//179 662//180
f 595//179 615//179 614//360
f 595//179 633//179 617//181
f 595//179 616//180 615//179
f 682//182 635//182 683//182
f 597//364 598//183 594//183
f 634//185 681//184 633//185
f 633//187 635//187 634//187
f 683//188 647//188 648//188
f 597//189 644//189 645//189
f 651//190 656//190 673//190
f 655//191 650//192 651//192
f 654//193 649//193 650//193
f 649//194 671//194 653//194
f 653//195 672//195 652//195
f 652//196 665//196 659//196
f 659//197 665//197 660//197
f 667//198 661//198 660//198
f 667//199 663//199 661//199
f 670//200 662//201 663//201
f 668//202 678//202 670//202
f 677//204 678//204 668//203
f 676//205 677//205 675//205
f 658//206 676//206 679//206
f 657//208 658//208 679//207
f 674//209 673//209 656//209
f 612//190 613//190 614//190
f 612//210 607//210 613//210
f 611//365 610//193 607//193
f 606//194 610//194 608//194
f 608//195 609//195 599//195
f 599//196 621//196 600//196
f 600//197 621//211 601//197
f 622//198 602//198 601//198
f 624//199 603//199 602//199
f 625//200 604//200 624//200
f 625//202 605//202 604//202
f 626//203 605//203 628//203
f 617//205 626//205 628//205
f 616//206 617//206 630//206
f 615//207 616//207 619//207
f 618//209 614//209 615//209
f 494//213 452//213 495//213
f 502//213 452//213 511//213
f 497//214 452//213 502//213
f 495//213 452//213 496//212
f 519//213 522//213 525//213
f 493//213 452//213 494//213
f 452//213 493//213 498//213
f 518//212 519//213 525//213
f 517//213 518//212 525//213
f 452//213 498//213 525//213
f 498//213 499//366 525//213
f 499//366 517//213 525//213
f 499//366 500//213 517//213
f 500//213 513//367 517//213
f 500//213 501//212 513//367
f 513//367 501//212 516//213
f 501//212 505//213 516//213
f 516//213 505//213 515//213
f 505//213 506//213 515//213
f 515//213 506//213 520//213
f 506//213 507//213 520//213
f 520//213 507//213 521//213
f 507//213 508//368 521//213
f 521//213 508//368 526//213
f 508//368 504//213 526//213
f 526//213 504//213 527//369
f 503//213 502//213 511//213
f 527//369 504//213 530//213
f 504//213 503//213 511//213
f 531//213 530//213 536//213
f 504//213 511//213 530//213
f 525//213 522//213 536//213
f 522//213 528//213 536//213
f 532//213 531//213 536//213
f 528//213 529//212 536//213
f 524//215 452//215 525//215
f 525//218 536//218 483//218
f 489//219 491//219 486//219
f 464//219 453//219 463//219
f 465//219 453//219 464//219
f 486//219 491//219 453//219
f 485//219 486//219 453//219
f 469//219 453//219 465//219
f 469//219 485//219 453//219
f 484//221 485//219 469//219
f 468//219 484//221 469//219
f 480//219 484//221 468//219
f 467//219 480//219 468//219
f 477//219 480//219 467//219
f 466//219 477//219 467//219
f 476//219 477//219 466//219
f 462//221 476//219 466//219
f 474//219 476//219 462//221
f 461//219 474//219 462//221
f 473//370 474//219 461//219
f 460//371 473//370 461//219
f 460//371 475//219 473//370
f 455//219 475//219 460//371
f 454//221 457//219 449//219
f 479//219 483//219 481//219
f 478//221 483//219 479//219
f 449//219 455//219 454//221
f 475//219 483//219 478//221
f 449//219 475//219 455//219
f 483//219 482//219 481//219
f 483//219 491//219 489//219
f 483//219 489//219 488//220
f 483//219 487//219 482//219
f 463//219 453//219 449//219
f 457//219 456//219 449//219
f 456//219 458//221 449//219
f 459//220 463//219 449//219
f 452//222 451//222 449//222
f 453//223 511//223 449//223
f 491//225 534//225 492//225
f 536//372 535//225 491//225
f 453//224 491//224 472//224
f 491//224 492//224 490//224
f 524//226 483//226 523//226
f 511//227 533//228 536//227
f 511//229 453//229 470//229
f 493//230 454//230 455//230
f 494//231 457//231 454//231
f 495//232 456//233 457//233
f 495//234 496//234 456//234
f 496//235 459//235 458//235
f 497//236 463//236 459//236
f 502//237 464//237 463//237
f 503//238 504//238 464//238
f 504//239 469//239 465//239
f 508//240 507//240 469//240
f 507//241 467//242 468//242
f 505//243 466//243 467//243
f 466//244 505//244 462//244
f 500//245 461//245 462//245
f 460//246 461//246 500//246
f 498//247 455//247 460//247
f 517//230 473//230 475//230
f 513//231 474//248 473//248
f 516//233 476//232 474//232
f 515//234 520//234 476//234
f 520//235 480//235 477//235
f 521//236 526//236 480//236
f 526//237 485//237 484//237
f 527//238 530//238 485//238
f 530//239 489//239 486//239
f 531//240 532//240 489//240
f 532//242 529//242 488//249
f 528//243 482//243 487//243
f 482//244 528//244 481//244
f 479//245 481//245 522//245
f 478//246 479//246 519//246
f 517//247 475//247 478//247
f 592//250 593//250 636//250
f 431//250 443//250 636//250
f 443//250 569//373 636//250
f 591//250 592//250 636//250
f 583//250 591//250 636//250
f 569//373 572//250 636//250
f 572//250 571//250 636//250
f 580//250 583//250 636//250
f 571//250 580//250 636//250
f 571//250 570//250 580//250
f 570//250 579//250 580//250
f 570//250 568//250 579//250
f 568//250 577//250 579//250
f 568//250 567//250 577//250
f 567//250 576//250 577//250
f 567//250 437//250 576//250
f 576//250 437//250 575//250
f 437//250 436//374 575//250
f 575//250 436//374 574//375
f 436//374 435//250 574//375
f 574//375 435//250 578//250
f 582//250 581//374 587//250
f 439//250 438//250 433//250
f 433//250 438//250 434//250
f 581//374 578//250 587//250
f 434//250 438//250 435//250
f 578//250 435//250 587//250
f 588//374 582//250 587//250
f 593//250 587//250 636//250
f 593//250 590//250 587//250
f 589//250 588//374 587//250
f 438//250 439//250 431//250
f 439//250 440//250 431//250
f 431//250 442//250 443//250
f 440//250 441//250 431//250
f 431//251 636//251 637//251
f 585//252 584//253 586//253
f 438//254 431//254 404//254
f 631//257 636//257 586//257
f 566//258 631//258 427//255
f 404//259 422//259 407//259
f 427//259 425//259 424//259
f 404//259 423//259 422//259
f 423//259 427//259 424//259
f 561//259 586//259 553//259
f 562//376 586//259 561//259
f 564//259 631//259 586//259
f 565//260 586//259 562//376
f 553//259 586//259 552//259
f 407//259 406//259 404//259
f 406//259 408//259 404//259
f 552//259 586//259 551//377
f 551//377 586//259 550//259
f 408//259 410//261 404//259
f 410//261 411//259 404//259
f 550//259 586//259 404//259
f 556//259 550//259 404//259
f 411//259 556//259 404//259
f 555//259 556//259 411//259
f 412//259 555//259 411//259
f 412//259 554//259 555//259
f 543//259 554//259 412//259
f 543//259 557//376 554//259
f 544//259 557//376 543//259
f 544//259 558//259 557//376
f 546//259 558//259 544//259
f 546//259 560//259 558//259
f 545//259 560//259 546//259
f 545//259 559//259 560//259
f 547//378 559//259 545//259
f 563//259 631//259 564//259
f 426//261 559//259 547//378
f 559//259 631//259 563//259
f 427//259 631//259 425//259
f 426//261 631//259 559//259
f 636//262 631//262 632//66
f 431//263 428//263 427//263
f 438//264 432//264 585//264
f 405//266 404//266 409//266
f 405//267 432//267 404//267
f 436//269 437//269 411//269
f 437//270 567//270 412//270
f 543//271 567//271 544//271
f 544//273 570//272 546//273
f 546//275 570//274 545//275
f 545//276 571//276 547//276
f 547//277 572//277 426//277
f 426//278 569//278 425//278
f 425//279 443//279 424//279
f 423//280 424//280 442//280
f 422//281 423//281 440//281
f 407//283 422//283 439//282
f 406//284 407//284 439//284
f 408//285 406//285 434//285
f 434//286 435//286 408//286
f 435//287 436//287 410//287
f 581//269 582//269 552//269
f 582//270 588//270 553//270
f 561//271 589//271 562//271
f 562//288 589//288 565//288
f 565//274 593//275 564//274
f 564//289 592//289 563//289
f 563//277 592//277 559//277
f 583//278 560//278 559//278
f 560//279 583//279 558//279
f 579//280 557//280 558//280
f 554//281 557//281 577//281
f 555//283 554//283 577//290
f 556//291 555//291 575//284
f 550//292 556//292 575//285
f 574//293 578//293 550//286
f 578//287 552//287 551//287
f 369//294 421//294 365//294
f 361//295 362//295 414//295
f 363//296 371//296 362//296
f 363//296 379//379 378//379
f 363//296 378//379 375//296
f 363//296 372//296 371//296
f 397//296 415//296 414//296
f 398//296 415//296 397//296
f 416//296 415//296 381//380
f 381//380 415//296 382//297
f 396//296 415//296 398//296
f 417//296 365//296 418//296
f 371//296 370//296 362//296
f 370//296 373//296 362//296
f 397//296 414//296 395//296
f 395//296 414//296 394//296
f 373//296 374//296 362//296
f 374//296 376//296 362//296
f 394//296 414//296 377//296
f 376//296 414//296 362//296
f 413//105 414//105 420//105
f 415//105 419//105 414//105
f 384//298 361//298 383//298
f 402//298 400//298 413//298
f 400//298 399//298 413//298
f 383//298 361//298 386//298
f 386//298 361//298 387//298
f 399//298 391//298 413//298
f 387//298 361//298 390//298
f 391//298 390//298 413//298
f 368//298 361//298 384//298
f 368//298 384//298 385//298
f 402//298 413//298 420//298
f 403//298 402//298 420//298
f 368//298 385//298 388//298
f 368//298 388//298 389//298
f 401//298 403//298 420//298
f 393//381 401//298 420//298
f 368//298 389//298 392//298
f 392//298 393//381 420//298
f 361//98 363//98 362//98
f 392//299 380//299 381//299
f 381//299 382//382 393//299
f 382//300 396//300 401//300
f 403//301 396//301 398//301
f 403//302 398//302 397//302
f 402//303 397//303 395//303
f 400//304 395//304 394//304
f 391//305 394//305 377//305
f 390//306 391//306 376//306
f 387//307 376//307 374//307
f 386//308 374//308 373//308
f 383//309 373//309 370//309
f 384//310 370//310 371//310
f 385//311 371//311 372//311
f 388//312 385//312 375//312
f 388//313 375//313 378//313
f 389//314 378//383 379//315
f 379//315 380//384 392//314
f 713//20 539//20 446//20
f 137//26 691//37 711//27
f 691//37 687//25 711//27
f 687//25 688//27 713//26
f 691//37 137//26 186//26
f 541//26 713//26 690//26
f 713//26 688//27 690//26
f 690//26 687//55 186//26
f 687//55 686//38 186//26
f 686//38 691//37 186//26
f 713//29 711//29 137//29
f 692//54 634//52 542//52
f 542//52 647//186 684//53
f 540//56 688//56 685//57
f 688//56 687//385 685//57
f 685//57 689//39 445//56
f 690//59 688//59 540//59
f 93//68 702//325 701//69
f 180//68 542//81 698//70
f 297//72 319//331 695//73
f 709//77 707//320 263//78
f 707//320 701//69 702//325
f 702//325 708//324 707//320
f 708//324 263//78 707//320
f 695//73 694//330 709//77
f 705//332 704//74 263//78
f 704//74 695//73 263//78
f 685//57 687//385 690//82
f 186//98 187//98 707//98
f 187//98 186//98 3//98
f 709//98 710//98 714//98
f 366//98 367//98 710//98
f 265//98 266//98 186//98
f 266//98 265//98 714//98
f 646//185 681//184 692//54
f 699//64 637//63 636//262
f 537//44 533//228 693//228
f 707//320 3//67 85//67
f 689//39 685//57 87//321
f 685//57 542//81 87//321
f 697//71 696//339 700//340
f 700//340 178//68 697//71
f 702//325 93//68 178//68
f 178//68 700//340 708//324
f 703//146 299//145 275//79
f 357//72 366//75 709//77
f 319//331 357//72 694//330
f 297//72 704//74 705//332
f 706//333 275//79 297//72
f 192//78 190//78 698//70
f 190//78 696//339 698//70
f 263//78 268//80 706//333
f 700//340 696//339 190//78
f 190//78 263//78 708//324
f 267//98 710//98 367//98
f 188//98 707//98 709//98
f 709//98 712//98 188//98
