# Blender 5.2.0 LTS
# www.blender.org
mtllib right_lower_face_component_001_topology_repaired_v13.mtl
o PROPOSED__RIGHT_LOWER_FACE__COMPONENT_001_TOPOLOGY_REPAIRED_V13
v -1.351500 20.353502 24.058498
v -1.127317 21.572920 25.363398
v 0.000000 39.511951 1.712930
v 0.000000 40.064999 -0.000003
v 0.175000 64.890411 23.798740
v 0.925000 65.467361 24.615517
v 4.675000 64.890411 23.798740
v 3.925000 65.467361 24.615517
v 0.523190 69.308830 11.322540
v 0.175000 68.577393 12.379189
v 0.523190 71.517815 12.035747
v 4.305793 69.352982 11.258760
v 4.305793 71.695305 12.015016
v 4.675000 68.577393 12.379189
v 0.523190 92.930779 18.949266
v 4.305793 91.988243 18.566917
v 0.175000 74.789558 21.511856
v 0.175000 73.587479 22.009773
v 0.175000 73.218964 22.561293
v 0.175000 73.089561 23.211855
v 0.175000 73.218964 23.862417
v 0.175000 74.139000 21.641260
v 0.175000 75.440117 21.641260
v 0.175000 73.587479 24.413937
v 0.175000 74.139000 24.782450
v 0.175000 74.789558 24.911856
v 0.175000 75.440117 24.782450
v 0.925000 70.225510 26.151760
v 0.175000 75.991638 22.009773
v 0.175000 76.360153 22.561293
v 0.175000 76.489555 23.211855
v 0.175000 76.360153 23.862417
v 0.175000 75.991638 24.413937
v 4.675000 74.789558 21.511854
v 4.675000 73.587479 22.009773
v 4.675000 73.218964 22.561293
v 4.675000 73.089561 23.211855
v 4.675000 73.218964 23.862417
v 4.675000 74.139000 21.641260
v 4.675000 75.440117 21.641260
v 3.925000 70.225510 26.151760
v 4.675000 73.587479 24.413937
v 4.675000 74.139000 24.782450
v 4.675000 74.789558 24.911854
v 4.675000 75.440117 24.782450
v 4.675000 75.991638 22.009773
v 4.675000 76.360153 22.561293
v 4.675000 76.489555 23.211855
v 4.675000 76.360153 23.862417
v 4.675000 75.991638 24.413937
v 0.175000 97.171883 28.738348
v 4.675000 97.171883 28.738346
v 0.175000 95.601288 29.787785
v 0.175000 95.969803 29.236265
v 0.175000 96.521324 28.867752
v 0.175000 95.471886 30.438347
v 0.175000 95.601288 31.088909
v 0.175000 95.969803 31.640429
v 0.175000 96.521324 32.008942
v 0.175000 97.822441 28.867752
v 0.175000 98.373962 29.236265
v 0.175000 98.742477 29.787785
v 0.175000 98.871880 30.438347
v 0.175000 98.742477 31.088909
v 0.175000 97.171883 32.138348
v 0.175000 97.822441 32.008942
v 0.175000 98.373962 31.640429
v 0.925000 99.155029 35.492126
v 4.675000 95.601288 29.787785
v 4.675000 95.969803 29.236265
v 4.675000 96.521324 28.867752
v 4.675000 95.471886 30.438347
v 4.675000 95.601288 31.088909
v 4.675000 95.969803 31.640429
v 4.675000 96.521324 32.008942
v 4.675000 97.822441 28.867752
v 4.675000 98.373962 29.236265
v 4.675000 98.742477 29.787785
v 4.675000 98.871880 30.438347
v 4.675000 98.742477 31.088909
v 4.675000 97.171883 32.138348
v 4.675000 97.822441 32.008942
v 4.675000 98.373962 31.640429
v 3.925000 99.155029 35.492126
v 0.523190 108.570381 23.998766
v 0.175000 108.545822 25.283640
v 4.305793 108.571861 23.921209
v 4.675000 108.545822 25.283640
v 0.175000 104.858841 36.703190
v 0.925000 103.913177 37.028370
v 3.925000 103.913177 37.028370
v 4.675000 104.858841 36.703190
v 0.522829 118.732559 27.281130
v 0.175000 118.001884 28.336685
v 4.326503 118.733963 27.279102
v 4.675000 118.001884 28.336685
v 0.175000 123.011971 37.967270
v 0.175000 123.563492 37.598755
v 0.175000 124.214050 37.469349
v 0.175000 124.864609 37.598755
v 0.175000 125.416130 37.967270
v 4.675000 123.011971 37.967266
v 4.675000 123.563492 37.598755
v 4.675000 124.214050 37.469349
v 4.675000 124.864609 37.598755
v 4.675000 125.416130 37.967266
v 0.175000 114.314903 39.756237
v 0.925000 114.891846 40.573009
v 3.925000 114.891846 40.573009
v 4.675000 114.314903 39.756237
v 0.175000 122.643456 38.518787
v 0.175000 122.514053 39.169350
v 0.175000 122.643456 39.819912
v 0.175000 123.011971 40.371433
v 0.175000 123.563492 40.739944
v 0.175000 125.784645 38.518787
v 0.175000 125.914047 39.169350
v 0.175000 124.864609 40.739944
v 0.175000 125.784645 39.819912
v 0.175000 125.416130 40.371433
v 0.175000 124.214050 40.869350
v 0.925000 119.649994 42.109257
v 3.925000 119.649994 42.109257
v 4.675000 122.643456 38.518787
v 4.675000 122.514053 39.169350
v 4.675000 122.643456 39.819912
v 4.675000 123.011971 40.371429
v 4.675000 123.563492 40.739944
v 4.675000 125.784645 38.518787
v 4.675000 125.914047 39.169350
v 4.675000 124.864609 40.739944
v 4.675000 125.784645 39.819912
v 4.675000 125.416130 40.371429
v 4.675000 124.214050 40.869350
v 40.504501 16.551003 20.420998
v 39.628422 17.492378 21.680481
v 31.466999 40.064999 -0.000003
v 31.600342 40.990150 1.538279
v 62.421608 24.493752 72.310959
v 58.491447 117.200005 22.418722
v 29.985817 11.829967 81.358902
v 30.778500 10.605006 82.413002
v 33.346500 50.113510 126.394501
v 32.636982 51.546989 125.568832
v 0.175000 145.945816 44.825245
v 0.175000 145.394287 45.193760
v 0.175000 146.596375 44.695839
v 0.175000 147.246933 44.825245
v 0.175000 145.025772 45.745277
v 0.175000 144.896378 46.395840
v 0.175000 145.025772 47.046402
v 0.175000 145.394287 47.597923
v 0.175000 145.945816 47.966434
v 0.175000 147.246933 47.966434
v 0.175000 147.798462 45.193760
v 0.175000 148.166962 45.745277
v 0.175000 148.296371 46.395840
v 0.175000 148.166962 47.046402
v 0.175000 147.798462 47.597923
v 4.675000 145.945816 44.825245
v 4.675000 145.394287 45.193756
v 4.675000 146.596375 44.695839
v 4.675000 147.246933 44.825245
v 4.675000 145.025787 45.745277
v 4.675000 144.896378 46.395840
v 4.675000 145.025787 47.046402
v 4.675000 145.394287 47.597919
v 4.675000 145.945816 47.966434
v 4.675000 147.246933 47.966434
v 4.675000 147.798462 45.193756
v 4.675000 148.166977 45.745277
v 4.675000 148.296371 46.395840
v 4.675000 148.166977 47.046402
v 4.675000 147.798462 47.597919
v 0.175000 146.596375 48.095840
v 4.675000 146.596375 48.095840
v 0.521433 157.994751 39.962742
v 0.175000 157.970306 41.241135
v 4.327899 157.994797 39.960278
v 4.675000 157.970306 41.241135
v 0.175000 154.283325 52.660683
v 0.925000 153.337677 52.985863
v 4.675000 154.283325 52.660683
v 3.925000 153.337677 52.985863
v 0.000000 188.338501 47.872486
v 0.000000 187.698990 49.555054
v 0.000000 187.785446 49.585419
v 0.175000 193.556519 53.086517
v 0.520351 194.334381 52.076763
v 4.675000 193.556519 53.086517
v 4.329144 194.335526 52.075283
v 0.175000 189.293152 64.303627
v 0.925000 189.827789 65.148712
v 0.175000 196.487854 62.441730
v 0.175000 197.039383 62.073215
v 0.175000 197.689941 61.943810
v 0.175000 198.340500 62.073215
v 0.175000 198.892029 62.441730
v 0.175000 196.119339 62.993248
v 0.175000 195.989944 63.643810
v 0.175000 196.119339 64.294373
v 0.175000 196.487854 64.845894
v 0.175000 197.039383 65.214409
v 0.175000 197.689941 65.343811
v 0.175000 199.260529 62.993248
v 0.175000 199.389938 63.643810
v 0.175000 199.260529 64.294373
v 0.175000 198.892029 64.845894
v 0.175000 198.340500 65.214409
v 0.925000 194.501587 66.925117
v 3.925000 189.827789 65.148712
v 4.675000 189.293152 64.303627
v 4.675000 196.487854 62.441727
v 4.675000 197.039383 62.073215
v 4.675000 197.689941 61.943810
v 4.675000 198.340500 62.073215
v 4.675000 198.892029 62.441727
v 3.925000 194.501587 66.925117
v 4.675000 196.119354 62.993248
v 4.675000 195.989944 63.643810
v 4.675000 196.119354 64.294373
v 4.675000 196.487854 64.845894
v 4.675000 197.039383 65.214401
v 4.675000 197.689941 65.343811
v 4.675000 199.260544 62.993248
v 4.675000 199.389938 63.643810
v 4.675000 199.260544 64.294373
v 4.675000 198.892029 64.845894
v 4.675000 198.340500 65.214401
v 0.175000 214.605835 69.327980
v 0.175000 214.237320 69.879501
v 0.175000 214.107925 70.530060
v 0.175000 214.237320 71.180618
v 0.175000 214.605835 71.732140
v 0.175000 215.157364 68.959465
v 0.175000 215.807922 68.830063
v 0.175000 216.458481 68.959465
v 0.175000 217.010010 69.327980
v 0.175000 215.157364 72.100655
v 0.175000 216.458481 72.100655
v 0.175000 217.378510 69.879501
v 0.175000 217.507919 70.530060
v 0.175000 217.378510 71.180618
v 0.175000 217.010010 71.732140
v 0.175000 215.807922 72.230057
v 4.675000 214.605835 69.327980
v 4.675000 214.237335 69.879501
v 4.675000 214.107925 70.530060
v 4.675000 214.237335 71.180618
v 4.675000 214.605835 71.732140
v 4.675000 215.157364 68.959465
v 4.675000 215.807922 68.830063
v 4.675000 216.458481 68.959465
v 4.675000 217.010010 69.327980
v 4.675000 215.157364 72.100655
v 4.675000 216.458481 72.100655
v 4.675000 217.378525 69.879501
v 4.675000 217.507919 70.530060
v 4.675000 217.378525 71.180618
v 4.675000 217.010010 71.732140
v 4.675000 215.807922 72.230057
v 0.520353 225.999252 64.111877
v 0.175000 225.910065 65.383392
v 0.000000 231.687424 65.801643
v 0.000000 233.274002 64.951485
v 0.000000 232.634491 66.634048
v 4.329142 225.999390 64.110023
v 4.675000 225.910065 65.383392
v 0.175000 221.646698 76.600510
v 0.925000 220.685730 76.877144
v 3.925000 220.685730 76.877144
v 4.675000 221.646698 76.600510
v 30.000000 233.274002 64.951485
v 29.863813 232.060425 66.273865
v 0.175000 228.151642 87.193230
v 0.925000 228.000626 88.181763
v 0.175000 234.486877 92.435280
v 0.175000 235.038406 92.066765
v 0.175000 234.118362 92.986801
v 0.175000 233.988968 93.637360
v 0.175000 234.118362 94.287918
v 0.175000 234.486877 94.839439
v 0.175000 235.038406 95.207954
v 0.925000 230.362167 92.588928
v 3.925000 228.000626 88.181763
v 4.675000 228.151642 87.193230
v 3.925000 230.362167 92.588928
v 4.675000 234.486877 92.435280
v 4.675000 235.038406 92.066765
v 4.675000 234.118378 92.986801
v 4.675000 233.988968 93.637360
v 4.675000 234.118378 94.287918
v 4.675000 234.486877 94.839439
v 4.675000 235.038406 95.207954
v 0.175000 238.728851 81.525520
v 0.520802 239.980026 81.273560
v 0.520803 241.068863 83.305573
v 4.325385 239.993820 81.270782
v 4.675000 238.728851 81.525520
v 0.175000 235.688965 91.937363
v 0.175000 236.339523 92.066765
v 0.175000 236.891052 92.435280
v 0.175000 237.259552 92.986801
v 0.175000 237.388962 93.637360
v 0.175000 237.259552 94.287918
v 0.175000 236.891052 94.839439
v 0.175000 235.688965 95.337357
v 0.175000 236.339523 95.207954
v 4.675000 235.688965 91.937363
v 4.675000 236.339523 92.066765
v 4.675000 236.891052 92.435280
v 4.675000 237.259567 92.986801
v 4.675000 237.388962 93.637360
v 4.675000 237.259567 94.287918
v 4.675000 236.891052 94.839439
v 4.675000 235.688965 95.337357
v 4.675000 236.339523 95.207954
v 0.520801 251.759659 103.256927
v 4.325387 251.684616 103.088356
v 0.175000 246.147125 112.798073
v 0.175000 246.797684 112.668671
v 0.175000 247.448242 112.798073
v 0.175000 245.595596 113.166588
v 0.175000 245.227081 113.718109
v 0.175000 245.097687 114.368668
v 0.175000 245.227081 115.019226
v 0.175000 247.999771 113.166588
v 0.175000 248.368271 113.718109
v 0.175000 248.497681 114.368668
v 0.175000 248.368271 115.019226
v 4.675000 246.147125 112.798073
v 4.675000 246.797684 112.668671
v 4.675000 247.448242 112.798073
v 4.675000 245.595596 113.166588
v 4.675000 245.227097 113.718109
v 4.675000 245.097687 114.368668
v 4.675000 245.227097 115.019226
v 4.675000 247.999771 113.166588
v 4.675000 248.368286 113.718109
v 4.675000 248.497681 114.368668
v 4.675000 248.368286 115.019226
v 0.175000 245.595596 115.570747
v 0.175000 246.147125 115.939262
v 0.175000 246.797684 116.068665
v 0.175000 247.448242 115.939262
v 0.175000 247.999771 115.570747
v 0.175000 247.988663 124.213417
v 0.925000 247.081940 123.791656
v 4.675000 245.595596 115.570747
v 4.675000 246.147125 115.939262
v 4.675000 246.797684 116.068665
v 4.675000 247.448242 115.939262
v 4.675000 247.999771 115.570747
v 3.925000 247.081940 123.791656
v 4.675000 247.988663 124.213417
v 0.520802 259.468597 117.643494
v 0.175000 258.565857 118.545700
v 4.325386 259.478546 117.633545
v 4.675000 258.565857 118.545700
v 1.799999 260.842010 130.966858
v 1.799999 261.270477 127.795670
v 1.799999 265.196625 128.326141
v 1.799999 267.391754 128.622726
v 1.799999 269.198456 128.866821
v 0.000000 267.757935 133.117142
v 0.000000 269.344513 132.266983
v 1.799999 267.058960 131.806824
v 1.799999 268.860962 131.364594
v 28.429405 263.004181 128.029922
v 28.299999 263.648895 128.117020
v 28.429405 264.293610 128.204132
v 28.797918 262.457642 127.956070
v 29.349438 262.092438 127.906723
v 28.797918 264.840149 128.277969
v 30.000000 261.964203 127.889397
v 30.650562 262.092438 127.906723
v 29.349438 265.205353 128.327316
v 29.482824 265.231659 128.330872
v 30.000000 265.314636 128.484848
v 30.510580 265.232941 128.331039
v 30.650562 265.205353 128.327316
v 28.429405 262.575714 131.201096
v 28.299999 263.220428 131.288208
v 28.429405 263.865143 131.375305
v 28.797918 262.029175 131.127258
v 29.349438 261.663971 131.077911
v 28.797918 264.411682 131.449158
v 29.349438 264.776886 131.498489
v 30.000000 261.535736 131.060593
v 30.650562 261.663971 131.077911
v 30.000000 264.905121 131.515823
v 30.650562 264.776886 131.498489
v 31.202082 262.457642 127.956070
v 31.570595 263.004181 128.029922
v 31.202082 264.840149 128.277969
v 31.700001 263.648895 128.117020
v 31.570595 264.293610 128.204132
v 31.202082 262.029175 131.127258
v 31.570595 262.575714 131.201096
v 31.202082 264.411682 131.449158
v 31.700001 263.220428 131.288208
v 31.570595 263.865143 131.375305
v 55.312630 251.524002 132.103500
v 55.710117 250.810852 133.050003
v 60.284332 251.257462 132.049713
v 60.215744 251.897125 131.888138
v 60.600101 250.690445 132.186676
v 60.003296 248.304276 133.584518
v 61.114983 250.282410 132.278198
v 61.750587 250.095459 132.310333
v 62.410152 250.158051 132.278198
v 58.200001 260.842010 130.966858
v 58.200001 261.270477 127.795670
v 58.200001 264.638428 128.250717
v 57.391293 265.269470 128.335983
v 58.200001 267.391754 128.622726
v 58.200001 269.198456 128.866821
v 58.200001 266.245087 130.159241
v 58.200001 267.130920 131.816544
v 58.200001 268.860962 131.364594
v 60.404781 252.512054 131.726578
v 60.822662 253.008636 131.589615
v 61.405773 253.311264 131.498093
v 62.065338 253.373856 131.465958
v 62.700943 253.186920 131.498093
v 61.457069 261.474365 129.413559
v 62.576302 262.633057 129.463531
v 59.565765 267.892731 133.238434
v 60.000000 269.344513 132.266983
v 61.563873 262.586792 133.772568
v 55.781315 251.552490 135.956009
v 60.391136 252.369904 136.408722
v 60.706905 251.802887 136.545685
v 61.221786 251.394852 136.637207
v 61.857391 251.207901 136.669342
v 62.516956 251.270493 136.637207
v 55.419434 252.636429 136.462509
v 60.322548 253.009567 136.247147
v 60.511585 253.624496 136.085587
v 60.929466 254.121063 135.948624
v 61.512577 254.423706 135.857101
v 62.172142 254.486298 135.824966
v 63.916500 23.506506 72.486000
v 63.275898 83.725777 40.722870
v 64.738503 83.321999 39.754494
v 81.229652 54.422821 84.851295
v 82.567497 53.224506 84.970490
v 92.249062 84.557434 114.914619
v 92.146698 85.529823 115.693375
v 92.335907 85.466362 118.686722
v 92.532875 84.462250 119.404655
v 102.799187 78.893890 114.127678
v 96.775330 88.438690 114.710793
v 96.859772 89.096550 114.719398
v 97.353142 87.274513 114.649590
v 96.948578 87.798882 114.686279
v 97.927429 86.945427 114.606308
v 98.584007 86.861717 114.563034
v 97.189041 89.672287 114.710793
v 97.713020 90.078270 114.686272
v 98.351936 90.252686 114.649590
v 99.222916 87.036125 114.526344
v 99.746902 87.442108 114.501831
v 100.076172 88.017853 114.493217
v 99.008514 90.168976 114.606308
v 99.582802 89.839882 114.563034
v 99.987366 89.315521 114.526344
v 100.160614 88.675705 114.501831
v 104.336700 78.543884 114.412537
v 105.536690 80.810699 114.381416
v 110.756294 90.670677 114.246017
v 104.548828 102.944824 114.526939
v 104.722076 102.305016 114.502426
v 104.633270 103.602684 114.535545
v 105.126640 101.780647 114.465736
v 105.700928 101.451561 114.422455
v 104.962540 104.178421 114.526939
v 105.486519 104.584404 114.502426
v 106.357506 101.367851 114.379181
v 106.125435 104.758820 114.465736
v 106.782013 104.675110 114.422455
v 106.130302 110.461227 114.586311
v 106.996414 101.542259 114.342491
v 107.520401 101.948242 114.317978
v 107.849670 102.523987 114.309364
v 107.356300 104.346016 114.379181
v 107.760864 103.821655 114.342491
v 107.934113 103.181839 114.317978
v 116.172028 100.901146 114.105537
v 116.680428 104.797684 113.799370
v 117.245064 104.265221 113.944290
v 97.059143 88.343506 119.200829
v 97.232391 87.703690 119.176308
v 97.636955 87.179329 119.139626
v 98.211243 86.850235 119.096344
v 98.867821 86.766525 119.053070
v 97.143585 89.001358 119.209435
v 97.472855 89.577103 119.200829
v 97.996841 89.983086 119.176308
v 98.635750 90.157494 119.139626
v 99.506737 86.940941 119.016380
v 100.030716 87.346924 118.991867
v 100.359985 87.922661 118.983253
v 99.292328 90.073784 119.096344
v 99.866615 89.744698 119.053070
v 100.271179 89.220329 119.016380
v 100.444427 88.580521 118.991867
v 102.899109 73.160675 118.569641
v 104.064003 71.788506 118.582489
v 103.083000 78.798706 118.617714
v 105.388382 78.282074 117.857834
v 104.832642 102.849640 119.016975
v 102.910736 105.616615 115.438782
v 105.410454 101.685463 118.955772
v 105.005890 102.209824 118.992455
v 104.917084 103.507492 119.025581
v 105.246353 104.083237 119.016975
v 105.770340 104.489220 118.992455
v 105.984741 101.356369 118.912491
v 106.641319 101.272659 118.869217
v 106.409248 104.663628 118.955772
v 105.272247 110.023445 115.382935
v 105.461456 109.959984 118.376282
v 106.414116 110.366043 119.076347
v 107.280235 101.447075 118.832527
v 107.804214 101.853058 118.808014
v 107.065826 104.579918 118.912491
v 107.640114 104.250832 118.869217
v 108.133484 102.428795 118.799400
v 108.217926 103.086655 118.808014
v 108.044678 103.726463 118.832527
v 115.399033 97.159065 117.649765
v 118.124046 103.497612 115.739799
v 118.572136 103.142555 117.583817
v 116.964241 104.702499 118.289406
v 121.843613 108.445168 118.853874
v 123.343498 107.766006 118.126495
v 92.575500 152.524506 59.146488
v 91.083153 152.733597 60.130955
v 88.945503 188.338501 47.872486
v 88.630424 187.507858 49.437973
v 62.993263 250.460693 132.186676
v 63.411144 250.957260 132.049713
v 63.531593 252.211853 131.726578
v 63.600182 251.572189 131.888138
v 63.215824 252.778870 131.589615
v 63.669281 264.459015 132.530441
v 70.152435 258.188782 130.407791
v 72.696098 243.628204 133.692627
v 73.210983 243.220154 133.784149
v 73.846588 243.033218 133.816284
v 74.506149 243.095810 133.784149
v 72.500778 245.449814 133.232529
v 72.311737 244.834869 133.394104
v 72.380325 244.195206 133.555664
v 72.918663 245.946381 133.095566
v 73.501770 246.249008 133.004044
v 74.796936 246.124664 133.004044
v 74.161331 246.311600 132.971909
v 75.089256 243.398438 133.692642
v 75.507141 243.895004 133.555664
v 75.311821 245.716614 133.095566
v 75.627594 245.149612 133.232544
v 75.696182 244.509933 133.394104
v 72.164001 257.008789 130.658524
v 63.100067 251.573135 136.545685
v 63.517948 252.069702 136.408722
v 62.807747 254.299362 135.857101
v 63.706985 252.684631 136.247147
v 63.638397 253.324295 136.085587
v 63.322628 253.891312 135.948624
v 71.643120 241.508331 135.033676
v 72.802895 244.740631 138.051651
v 72.487122 245.307648 137.914673
v 72.418533 245.947311 137.753113
v 72.607574 246.562241 137.591537
v 73.317780 244.332596 138.143158
v 73.025459 247.058823 137.454575
v 73.608566 247.361450 137.363052
v 73.953384 244.145645 138.175293
v 74.612946 244.208237 138.143158
v 74.268127 247.424042 137.330917
v 75.936302 239.001770 135.568192
v 76.007500 239.743408 138.474197
v 76.912636 238.912842 134.792709
v 77.019432 240.025269 139.151718
v 75.196053 244.510880 138.051636
v 75.613937 245.007446 137.914673
v 75.802979 245.622375 137.753113
v 74.903732 247.237106 137.363052
v 75.418617 246.829056 137.454575
v 75.734390 246.262039 137.591537
v 82.589874 231.061157 129.772934
v 82.351791 232.194992 129.303604
v 85.295395 227.312805 127.867653
v 83.644257 230.431000 132.509933
v 83.933365 231.249741 133.409103
v 89.805672 225.874710 124.976959
v 90.426636 225.932892 124.751137
v 90.998169 226.233826 124.600250
v 91.433258 226.731689 124.547264
v 91.665665 227.350677 124.600250
v 91.660011 227.996582 124.751137
v 91.417152 228.571030 124.976959
v 88.786728 226.483688 125.509697
v 88.543869 227.058136 125.735512
v 89.229813 226.068115 125.243324
v 90.811394 225.122864 129.348831
v 90.368309 225.538437 129.615204
v 90.125450 226.112885 129.841019
v 90.119789 226.758789 129.991898
v 88.538216 227.704041 125.886406
v 88.770622 228.323029 125.939384
v 89.205711 228.820892 125.886406
v 89.777245 229.121826 125.735519
v 90.398209 229.180008 125.509697
v 90.352203 227.377777 130.044891
v 90.787292 227.875641 129.991898
v 91.387253 224.929459 129.082458
v 92.008217 224.987640 128.856644
v 92.579750 225.288574 128.705750
v 93.014839 225.786438 128.652771
v 93.247246 226.405426 128.705750
v 93.241592 227.051331 128.856644
v 90.974068 228.986603 125.243324
v 91.979790 228.234756 129.615204
v 92.555649 228.041351 129.348831
v 92.998734 227.625778 129.082458
v 91.358826 228.176575 129.841019
v 83.057076 248.863220 132.102768
v 83.499718 250.359131 132.071365
v 91.519684 239.726089 127.505775
v 93.003693 240.311920 127.460548
v 93.101257 238.780838 131.611282
v 83.163872 249.975647 136.461777
v 83.993340 252.551315 135.080933
v 89.067451 250.617325 136.951813
v 90.000000 251.829010 136.001984
v 104.450470 200.774475 114.378357
v 105.078140 200.708847 113.299377
v 126.939003 200.652008 109.988983
v 125.536842 200.077469 110.960503
v 105.504852 200.144318 117.115356
v 106.659714 199.763596 117.404877
v 114.246033 208.239944 111.501541
v 115.389984 209.475204 111.763260
v 117.453972 209.885834 114.800949
v 101.513496 208.851456 116.547325
v 101.270638 209.425903 116.773140
v 101.264984 210.071808 116.924034
v 102.532440 208.242477 116.014587
v 101.956581 208.435883 116.280952
v 102.852219 208.480667 120.878647
v 102.846558 209.126556 121.029533
v 101.497398 210.690796 116.977013
v 101.932487 211.188660 116.924026
v 102.504021 211.489594 116.773140
v 103.153404 208.300659 115.788765
v 103.724937 208.601593 115.637878
v 104.160027 209.099457 115.584892
v 104.386780 210.364334 115.788765
v 104.392441 209.718445 115.637878
v 104.114014 207.297226 120.120087
v 104.734978 207.355408 119.894264
v 105.306511 207.656342 119.743378
v 105.741600 208.154205 119.690399
v 105.725502 209.993546 120.120079
v 105.974014 208.773193 119.743378
v 105.968361 209.419098 119.894264
v 103.095070 207.906204 120.652824
v 103.538155 207.490631 120.386459
v 103.078972 209.745544 121.082512
v 103.514061 210.243408 121.029533
v 105.282417 210.409119 120.386452
v 103.124985 211.547775 116.547325
v 103.700844 211.354370 116.280952
v 104.143929 210.938797 116.014580
v 104.085594 210.544342 120.878639
v 104.706558 210.602524 120.652824
v 104.578911 224.367279 119.344002
v 95.477531 240.199249 130.267715
v 115.827606 207.294693 115.607040
v 59.819290 115.069336 24.216354
v 61.094440 118.013382 25.166889
v 40.548664 66.349854 8.486486
v 59.151649 112.580933 24.944492
v 58.899940 114.341995 23.981522
v 114.015205 211.368927 112.727242
v 106.396767 221.863205 118.069313
v 62.268440 119.780487 27.296482
v 60.812542 118.785797 25.416277
v 61.578701 120.565933 25.991020
v 75.835304 157.659546 37.967293
v 83.880890 252.051926 134.395340
v 0.000000 187.785446 49.585419
v 0.000331 187.741730 49.571301
v 0.027834 187.741653 49.571259
v 0.006353 187.741714 49.571289
v 0.008249 232.005371 66.394928
v 0.019971 232.005417 66.394943
v 0.000000 187.741837 49.571339
v 0.049323 232.005554 66.394981
v 0.005960 232.005356 66.394920
v 0.000581 187.741730 49.571297
v 0.000000 232.005325 66.394913
v 0.000000 232.028549 66.403748
v 4.325386 241.094666 83.325195
v 107.251656 81.795624 117.819107
v 0.000765 187.741730 49.571297
v 0.003351 187.741730 49.571293
v 0.000000 231.986359 66.359535
v 0.409249 232.007248 66.395447
v 0.000000 232.008926 66.369087
vn 0.8305 -0.1445 -0.5379
vn 0.8312 -0.1464 -0.5364
vn 0.4868 0.0919 -0.8687
vn 0.4623 0.0920 -0.8819
vn 0.9007 -0.2181 -0.3759
vn 0.8075 -0.2918 -0.5126
vn 0.8076 -0.2916 -0.5125
vn 0.8427 -0.4552 -0.2875
vn 0.8074 -0.2920 -0.5127
vn -0.1245 -0.6775 -0.7249
vn 0.4404 -0.6805 0.5856
vn 0.5410 -0.5909 0.5984
vn 0.3097 -0.9022 0.3002
vn 0.8572 -0.0736 -0.5097
vn 0.5751 0.6605 -0.4827
vn 0.7996 -0.1594 -0.5789
vn 0.4624 0.0871 -0.8824
vn 0.3407 0.1640 -0.9258
vn 0.7834 -0.1130 -0.6111
vn 0.4075 0.7386 -0.5370
vn 0.4660 0.6766 -0.5702
vn 0.0001 0.3076 -0.9515
vn 0.0034 0.3134 -0.9496
vn -0.0000 0.3072 -0.9516
vn 0.0060 0.3044 -0.9525
vn -0.0000 0.8814 -0.4723
vn -0.0000 0.3553 -0.9348
vn -0.8439 0.1542 0.5139
vn -0.7007 0.0326 0.7128
vn -0.8435 0.1531 0.5148
vn -0.7922 0.4479 -0.4144
vn -0.8452 0.1584 0.5105
vn -0.4792 -0.0857 0.8735
vn -0.9015 0.2137 0.3763
vn -0.8048 0.2881 0.5189
vn -0.8085 0.2823 0.5164
vn -0.8048 0.2883 0.5189
vn -0.6876 0.3715 0.6239
vn -0.8437 0.4506 0.2918
vn -0.8083 0.2826 0.5165
vn 0.1331 0.6708 0.7296
vn -0.4312 0.6839 -0.5885
vn -0.5386 0.5904 -0.6011
vn -0.3076 0.9018 -0.3034
vn -0.8621 0.0924 0.4983
vn -0.8074 -0.3410 -0.4815
vn -0.5752 -0.6621 0.4803
vn 0.8042 -0.0591 -0.5914
vn -0.4887 -0.0559 0.8707
vn -0.8215 0.1787 0.5415
vn -0.8049 0.1218 0.5808
vn -0.7924 0.4635 -0.3966
vn -0.4074 -0.7398 0.5355
vn -0.1808 -0.7806 0.5983
vn 0.3950 -0.7722 0.4977
vn -0.4676 -0.6762 0.5693
vn -0.0312 -0.8055 0.5918
vn 0.0196 -0.3072 0.9514
vn 0.0005 -0.3074 0.9516
vn 1.0000 0.0048 -0.0061
vn 0.0006 -0.3074 0.9516
vn 0.0003 -0.3314 0.9435
vn 0.0005 -0.3312 0.9435
vn 0.0036 -0.8814 0.4723
vn -0.0000 -0.9284 0.3716
vn 0.0016 -0.6592 0.7520
vn 0.0028 -0.8815 0.4722
vn 0.0011 -0.8817 0.4718
vn 0.0010 -0.8817 0.4718
vn -0.0012 -0.6611 0.7503
vn 0.0005 -0.3553 0.9348
vn 0.0036 -0.6230 0.7822
vn 0.0003 -0.3514 0.9362
vn 0.0043 -0.3243 0.9460
vn -0.5444 -0.7621 0.3505
vn 0.3540 -0.1974 0.9142
vn 0.1958 0.8850 -0.4225
vn -0.0223 -0.8082 0.5885
vn -0.6564 0.6703 -0.3462
vn -0.9119 -0.2767 0.3032
vn 0.0350 -0.6388 -0.7686
vn 0.0848 0.0813 0.9931
vn 0.5510 -0.7593 0.3463
vn 0.5709 -0.0052 0.8210
vn 0.4626 -0.4068 0.7877
vn 0.1920 0.5083 0.8395
vn 0.1926 0.5093 0.8388
vn 0.1911 0.5069 0.8406
vn -1.0000 -0.0000 -0.0000
vn 0.0430 -0.8578 0.5122
vn -0.0000 0.5561 0.8311
vn 0.6247 -0.2399 0.7431
vn -0.0000 -0.8168 0.5770
vn -0.0000 -0.8168 0.5769
vn -0.6247 -0.2399 0.7431
vn -0.0000 -0.3072 0.9516
vn -0.0000 0.9998 0.0191
vn 1.0000 -0.0000 -0.0000
vn -0.0000 -0.8222 -0.5692
vn 0.9622 0.0837 -0.2591
vn 0.9622 0.0837 -0.2592
vn -0.9622 0.0837 -0.2591
vn -0.9622 0.0837 -0.2592
vn -0.0000 0.3252 0.9457
vn -0.0000 -0.9516 -0.3072
vn -0.0000 0.9516 0.3072
vn -0.0000 0.1951 -0.9808
vn -0.0000 0.5556 -0.8315
vn -0.0000 0.8315 -0.5556
vn -0.0000 0.9808 -0.1951
vn -0.0000 0.9808 0.1951
vn -0.0000 0.8315 0.5556
vn -0.0000 0.5556 0.8315
vn -0.0000 0.1951 0.9808
vn -0.0000 -0.1951 0.9808
vn -0.0000 -0.5556 0.8315
vn -0.0000 -0.8315 0.5556
vn -0.0000 -0.9808 0.1951
vn -0.0000 -0.9808 -0.1951
vn -0.0000 -0.8315 -0.5556
vn -0.0000 -0.5556 -0.8315
vn -0.0000 -0.1951 -0.9808
vn -0.0000 0.3252 0.9456
vn -0.0000 -0.8315 -0.5555
vn -0.6247 -0.6883 0.3688
vn -0.0000 0.4723 0.8814
vn 0.6247 -0.6883 0.3688
vn -0.0000 -0.4723 -0.8814
vn -0.9622 0.2400 -0.1286
vn -0.0000 0.7069 0.7073
vn -0.0000 -0.1974 -0.9803
vn -0.0000 -0.9885 -0.1510
vn -0.0000 -0.8814 0.4723
vn 0.9622 0.2400 -0.1286
vn 0.3934 -0.8103 0.4342
vn 0.7987 -0.5304 0.2842
vn -0.0000 -0.4218 0.9067
vn -0.0000 0.8315 -0.5555
vn -0.0000 0.8315 0.5555
vn -0.0000 -0.8315 0.5555
vn -0.0000 -0.9348 -0.3553
vn 0.6247 -0.2774 0.7299
vn -0.0000 -0.3553 0.9348
vn -0.0000 -0.7922 -0.6103
vn -0.6247 -0.2774 0.7299
vn -0.0000 0.2766 0.9610
vn -0.0000 0.2767 0.9610
vn -0.0000 0.9348 0.3553
vn -0.9622 0.0968 -0.2546
vn -0.0000 -0.8451 0.5346
vn -0.0000 0.9975 0.0700
vn 0.9622 0.0968 -0.2546
vn 0.3515 -0.2101 0.9123
vn 0.3514 -0.2101 0.9123
vn 0.3515 -0.2100 0.9123
vn -0.8161 -0.3589 -0.4529
vn -0.8161 -0.3588 -0.4529
vn -0.2865 -0.9519 -0.1088
vn 0.5411 -0.7497 -0.3811
vn -0.5411 0.7497 0.3811
vn -0.7640 -0.6276 0.1498
vn -0.3515 0.2100 -0.9123
vn -0.3515 0.2101 -0.9123
vn 0.5181 -0.0597 0.8532
vn -0.9359 -0.0523 0.3485
vn 0.7970 0.5141 -0.3171
vn -0.1659 0.3491 -0.9223
vn -0.7589 -0.6316 0.1584
vn -0.3375 0.8806 0.3327
vn -0.3375 0.8806 0.3328
vn 0.7118 -0.5731 -0.4061
vn -0.3770 -0.6213 0.6869
vn 0.8682 -0.2916 -0.4016
vn 0.9362 0.0877 -0.3404
vn 0.8616 0.4537 -0.2275
vn 0.6559 0.7506 -0.0799
vn 0.6560 0.7506 -0.0799
vn 0.6560 0.7505 -0.0799
vn 0.3504 0.9332 0.0799
vn -0.0085 0.9737 0.2275
vn -0.3661 0.8661 0.3404
vn -0.3661 0.8660 0.3404
vn -0.6680 0.6265 0.4016
vn -0.8682 0.2916 0.4016
vn -0.9362 -0.0877 0.3404
vn -0.8616 -0.4537 0.2275
vn -0.6560 -0.7506 0.0799
vn -0.6559 -0.7506 0.0799
vn -0.3503 -0.9332 -0.0799
vn -0.3504 -0.9332 -0.0799
vn 0.0085 -0.9737 -0.2275
vn 0.3661 -0.8661 -0.3404
vn 0.6680 -0.6265 -0.4016
vn 0.3503 0.9332 0.0799
vn 0.3661 -0.8660 -0.3404
vn 0.3661 -0.8661 -0.3405
vn 0.0631 -0.0211 0.9978
vn 0.0631 -0.0212 0.9978
vn -0.6471 0.3553 0.6745
vn -0.8792 0.4720 0.0656
vn -0.7259 0.3817 -0.5721
vn -0.7259 0.3818 -0.5721
vn 0.4723 0.8814 -0.0112
vn -0.0631 0.0212 -0.9978
vn -0.0631 0.0211 -0.9978
vn -0.0630 0.0214 -0.9978
vn -0.0631 0.0215 -0.9978
vn -0.9867 -0.1513 0.0592
vn -0.4723 -0.8814 0.0112
vn 0.1597 -0.0980 -0.9823
vn 0.6896 0.7236 -0.0282
vn 0.6896 0.7236 -0.0283
vn -0.4200 0.9064 0.0458
vn 0.2818 -0.1390 0.9494
vn -0.4021 0.2230 0.8880
vn -0.4020 0.2230 0.8880
vn -0.2208 -0.9753 -0.0067
vn 0.9899 -0.1262 -0.0652
vn 0.9632 0.2629 -0.0553
vn 0.7899 0.6121 -0.0370
vn 0.7900 0.6120 -0.0370
vn 0.4964 0.8680 -0.0130
vn 0.1273 0.9918 0.0130
vn -0.2612 0.9646 0.0370
vn -0.6099 0.7905 0.0553
vn -0.8658 0.4961 0.0652
vn -0.9899 0.1262 0.0652
vn -0.9632 -0.2629 0.0553
vn -0.7900 -0.6120 0.0370
vn -0.7899 -0.6121 0.0370
vn -0.4964 -0.8680 0.0130
vn -0.1273 -0.9918 -0.0130
vn 0.2612 -0.9646 -0.0370
vn 0.6099 -0.7905 -0.0553
vn 0.8658 -0.4961 -0.0652
vn 0.9632 0.2630 -0.0553
vn 0.0237 0.2472 0.9687
vn 0.0238 0.2473 0.9686
vn 0.1413 0.4320 0.8907
vn 0.1055 -0.9641 0.2435
vn 0.1055 -0.9642 0.2435
vn -0.8586 0.5013 -0.1069
vn 0.0952 -0.0490 -0.9943
vn 0.0951 -0.0491 -0.9943
vn 0.8586 -0.5013 0.1069
vn -0.0237 -0.2472 -0.9687
vn -0.0237 -0.2470 -0.9687
vn 0.9580 -0.2825 0.0486
vn -0.7067 0.6895 -0.1586
vn -0.3850 -0.4931 0.7801
vn -0.3850 -0.4931 0.7802
vn -0.4147 -0.8019 -0.4301
vn -0.9248 -0.3626 0.1152
vn -0.5120 -0.8292 0.2242
vn -0.1034 0.9644 -0.2436
vn -0.4761 0.8548 -0.2065
vn -0.7763 0.6151 -0.1380
vn -0.7762 0.6152 -0.1380
vn -0.9582 0.2818 -0.0485
vn -0.9582 0.2818 -0.0484
vn -0.9944 -0.0944 0.0485
vn -0.8791 -0.4563 0.1380
vn -0.8791 -0.4562 0.1380
vn -0.6301 -0.7486 0.2065
vn -0.6300 -0.7486 0.2065
vn -0.6300 -0.7487 0.2065
vn -0.2850 -0.9271 0.2436
vn 0.1034 -0.9644 0.2436
vn 0.1033 -0.9644 0.2436
vn 0.4760 -0.8548 0.2065
vn 0.4761 -0.8548 0.2065
vn 0.7762 -0.6152 0.1380
vn 0.9582 -0.2818 0.0484
vn 0.9582 -0.2818 0.0485
vn 0.9582 -0.2819 0.0485
vn 0.9944 0.0944 -0.0485
vn 0.8791 0.4562 -0.1380
vn 0.6300 0.7486 -0.2065
vn 0.2850 0.9271 -0.2436
vn 0.2849 0.9271 -0.2436
vn -0.4760 0.8548 -0.2065
vn -0.9582 0.2819 -0.0485
vn -0.9944 -0.0944 0.0484
vn 0.6301 0.7486 -0.2065
vn 0.6300 0.7487 -0.2065
vn -0.0000 0.9910 0.1339
vn -0.0000 -0.9910 -0.1339
vn -0.0000 0.1339 -0.9910
vn -0.0000 0.1338 -0.9910
vn -0.0000 0.1337 -0.9910
vn -0.0000 -0.1339 0.9910
vn -0.1949 -0.9720 -0.1313
vn -0.1951 -0.9720 -0.1313
vn -0.5556 -0.8240 -0.1113
vn -0.5555 -0.8240 -0.1113
vn -0.8315 -0.5506 -0.0744
vn -0.9808 -0.1933 -0.0261
vn -0.9808 0.1933 0.0261
vn -0.8315 0.5506 0.0744
vn -0.5556 0.8240 0.1113
vn -0.1950 0.9720 0.1313
vn -0.1951 0.9719 0.1313
vn 0.1951 0.9719 0.1313
vn 0.1950 0.9720 0.1313
vn 0.5556 0.8240 0.1113
vn 0.8315 0.5506 0.0744
vn 0.9808 0.1933 0.0261
vn 0.9808 -0.1933 -0.0261
vn 0.8315 -0.5506 -0.0744
vn 0.5556 -0.8240 -0.1113
vn 0.1951 -0.9719 -0.1313
vn 0.1951 -0.9720 -0.1313
vn -0.5394 0.8420 -0.0000
vn 0.7071 -0.0000 0.7071
vn -0.6000 -0.0000 0.8000
vn -0.4677 -0.6762 0.5692
vn -0.4676 -0.6762 0.5692
vn 0.0394 -0.3322 0.9424
vn 0.0024 -0.3140 0.9494
vn 0.0005 -0.3095 0.9509
vn 0.0006 -0.3137 0.9495
vn 0.0008 -0.3317 0.9434
vn -0.0000 -0.3292 0.9442
vn 0.0196 -0.3073 0.9514
vn 0.0009 -0.8816 0.4719
vn -0.9975 -0.0688 -0.0160
vn -0.9975 -0.0689 -0.0162
vn -0.9975 -0.0688 -0.0161
vn -0.0009 -0.6601 0.7512
vn 0.0035 -0.8814 0.4723
vn 0.0028 -0.6593 0.7519
vn 0.0034 -0.6602 0.7511
vn 0.0012 -0.8819 0.4714
vn 0.0011 -0.8818 0.4717
vn 0.0011 -0.8817 0.4717
vn 0.0011 -0.8819 0.4715
vn 0.0011 -0.8819 0.4714
vn -0.4486 -0.8369 0.3135
vn 0.0024 0.0114 0.9999
vn 0.0420 0.9431 -0.3298
vn -0.0113 -0.7296 0.6838
vn -0.6730 0.5945 -0.4400
vn -0.8968 -0.3019 0.3235
vn -0.1336 -0.3656 -0.9211
vn -0.0591 0.4761 0.8774
vn 0.2583 -0.7880 0.5589
vn 0.6542 0.0856 0.7515
vn 0.4266 -0.4000 0.8112
vn 0.1906 0.5059 0.8413
vn -0.0029 0.4723 0.8814
vn -0.0000 -0.4217 0.9067
vn 0.3514 -0.2098 0.9124
vn 0.3515 -0.2099 0.9124
vn -0.3514 0.2101 -0.9123
vn -0.3514 0.2102 -0.9123
vn 0.0633 -0.0211 0.9978
vn 0.0631 -0.0210 0.9978
vn -0.0626 0.0211 -0.9978
vn -0.4199 0.9064 0.0458
vn 0.0237 0.2474 0.9686
vn 0.0237 0.2473 0.9687
vn 0.0237 0.2470 0.9687
vn 0.0237 0.2473 0.9686
vn -0.0237 -0.2473 -0.9687
vn -0.0237 -0.2469 -0.9687
vn 0.1034 -0.9643 0.2436
vn 0.9582 -0.2819 0.0484
vn -0.0000 0.1345 -0.9909
vn -0.0000 0.1344 -0.9909
vn -0.0000 -0.1338 0.9910
vn -0.0000 -0.1340 0.9910
vn -0.1950 -0.9720 -0.1313
vn 0.1952 -0.9719 -0.1313
vn 0.1950 -0.9720 -0.1313
vn 0.7118 -0.1933 0.6753
vn 0.8167 -0.1344 -0.5613
vn 0.0013 -0.1809 0.9835
s 1
usemtl PROPOSED__TOPOLOGY_REPAIRED_BLUE_V13
f 445//1 135//2 137//3
f 683//4 445//1 137//3
f 445//5 443//5 135//5
f 447//6 443//7 445//6
f 537//8 509//8 447//8
f 537//9 447//6 445//6
f 137//10 135//10 1//10
f 142//11 443//11 143//11
f 143//12 443//12 447//12
f 447//13 509//13 143//13
f 641//14 538//14 540//14
f 540//15 638//15 641//15
f 445//16 684//17 538//16
f 540//18 538//19 684//17
f 540//20 273//20 638//20
f 273//21 429//21 638//21
f 685//22 691//23 683//4
f 185//24 540//18 693//25
f 366//26 368//26 363//26
f 416//26 420//26 429//26
f 540//27 185//27 273//27
f 444//28 138//29 136//30
f 685//22 687//31 140//32
f 686//33 138//29 444//28
f 444//34 136//34 139//34
f 446//35 444//36 139//37
f 511//38 446//39 508//39
f 536//40 444//36 491//40
f 138//41 2//41 136//41
f 141//42 144//42 139//42
f 144//43 446//43 139//43
f 446//44 144//44 508//44
f 642//45 541//45 539//45
f 689//46 633//47 541//47
f 647//47 642//47 637//47
f 687//31 691//23 140//48
f 690//49 444//50 539//50
f 539//51 693//25 692//52
f 541//53 637//53 274//53
f 636//54 694//55 637//56
f 274//56 631//57 414//56
f 3//58 9//58 11//58
f 93//59 695//60 85//59
f 179//61 697//62 698//63
f 296//64 699//65 700//66
f 365//67 362//68 367//69
f 700//66 703//70 262//71
f 274//72 267//73 541//74
f 693//25 690//49 691//23
f 685//22 140//48 691//23
f 136//75 443//75 139//75
f 536//76 508//76 537//76
f 445//77 536//77 537//77
f 1//78 135//78 136//78
f 137//79 1//79 138//79
f 144//80 141//80 143//80
f 141//81 139//81 142//81
f 508//82 143//82 509//82
f 538//83 641//83 642//83
f 638//84 642//84 641//84
f 539//85 445//85 538//85
f 428//86 637//87 638//88
f 3//89 186//89 185//89
f 701//89 185//89 186//89
f 137//90 138//90 3//90
f 365//89 706//89 705//89
f 713//89 705//89 706//89
f 711//89 713//89 264//89
f 366//91 428//91 429//91
f 185//89 264//89 265//89
f 265//89 713//89 266//89
f 89//89 86//89 64//89
f 59//89 5//89 89//89
f 18//89 10//89 19//89
f 91//92 84//92 92//92
f 8//93 6//94 7//93
f 89//95 68//95 90//95
f 84//92 41//92 7//92
f 84//92 7//92 92//92
f 28//96 6//96 41//96
f 87//97 85//97 88//97
f 89//95 5//95 68//95
f 5//95 28//95 68//95
f 35//98 36//98 14//98
f 79//98 88//98 92//98
f 40//98 14//98 88//98
f 68//96 28//96 84//96
f 41//92 8//92 7//92
f 90//96 68//96 91//96
f 12//99 14//99 9//99
f 16//100 88//101 14//101
f 87//101 88//101 16//100
f 5//95 6//95 28//95
f 85//102 15//103 86//102
f 15//103 10//103 86//102
f 91//104 92//104 89//104
f 13//101 14//101 12//101
f 7//105 10//105 14//105
f 92//106 88//106 86//106
f 11//103 9//102 10//103
f 25//107 44//107 43//107
f 42//108 24//108 43//108
f 42//109 38//109 21//109
f 38//110 37//110 20//110
f 37//111 36//111 19//111
f 36//112 35//112 18//112
f 22//113 18//113 39//113
f 17//114 39//114 34//114
f 23//115 17//115 40//115
f 29//116 23//116 46//116
f 29//117 47//117 30//117
f 30//118 48//118 31//118
f 31//119 49//119 32//119
f 32//120 50//120 33//120
f 45//121 27//121 50//121
f 26//122 45//122 44//122
f 75//107 59//107 81//107
f 74//108 58//108 75//108
f 74//109 73//109 57//109
f 73//110 72//110 56//110
f 72//111 69//111 53//111
f 69//112 70//112 54//112
f 55//113 54//113 71//113
f 51//114 71//114 52//114
f 60//115 51//115 76//115
f 61//116 60//116 77//116
f 61//117 78//117 62//117
f 62//118 79//118 63//118
f 63//119 80//119 64//119
f 64//120 83//120 67//120
f 82//121 66//121 83//121
f 81//122 65//122 82//122
f 109//94 108//94 110//94
f 181//89 178//89 158//89
f 153//89 107//89 181//89
f 111//89 94//89 112//89
f 184//92 123//92 110//92
f 184//92 110//92 183//92
f 94//105 110//105 107//105
f 179//97 177//97 180//97
f 181//95 107//95 182//95
f 107//95 122//95 182//95
f 182//96 122//96 184//96
f 123//92 109//92 110//92
f 122//96 108//96 123//96
f 95//99 96//99 93//99
f 177//102 93//103 94//103
f 102//98 124//98 110//98
f 174//98 173//98 180//98
f 105//98 96//98 180//98
f 107//95 108//95 122//95
f 179//101 180//101 96//100
f 183//106 180//106 178//106
f 184//123 183//123 181//104
f 128//107 115//107 134//107
f 114//108 128//108 127//108
f 113//109 127//109 126//109
f 126//110 125//110 112//110
f 125//111 124//111 111//111
f 97//112 124//112 102//112
f 98//113 97//113 103//113
f 99//114 98//114 104//114
f 100//115 99//115 105//115
f 101//116 100//116 106//116
f 101//117 129//117 116//117
f 116//118 130//118 117//118
f 117//119 132//119 119//119
f 119//120 133//120 120//120
f 118//121 133//121 131//121
f 134//122 121//122 131//122
f 168//107 153//107 176//107
f 153//108 168//108 167//108
f 151//109 167//109 166//109
f 150//110 166//110 165//110
f 149//111 165//111 164//111
f 146//112 164//112 161//112
f 145//113 146//113 160//113
f 147//114 145//114 162//114
f 148//115 147//115 163//115
f 155//116 148//116 170//116
f 155//117 171//117 156//117
f 157//118 171//118 172//118
f 157//119 173//119 158//119
f 158//124 174//120 159//124
f 154//121 174//121 169//121
f 176//122 175//122 169//122
f 326//89 275//89 347//89
f 357//89 345//89 347//89
f 275//89 278//89 300//89
f 275//125 276//125 284//125
f 357//126 347//126 359//126
f 275//125 284//125 348//125
f 275//125 348//125 347//125
f 309//98 286//98 310//98
f 359//98 355//98 353//98
f 312//98 299//98 359//98
f 285//127 286//127 287//127
f 286//128 275//128 299//128
f 297//129 296//129 295//129
f 358//130 356//130 359//130
f 318//129 295//129 357//129
f 298//131 299//131 296//131
f 354//127 286//127 355//127
f 287//127 286//127 354//127
f 285//132 275//132 286//132
f 276//133 287//133 284//133
f 284//133 354//133 348//133
f 356//129 318//129 357//129
f 299//134 298//135 707//136
f 319//136 359//134 299//134
f 347//137 348//137 355//137
f 358//134 359//134 319//136
f 294//107 283//107 316//107
f 293//108 282//108 294//108
f 282//109 293//109 292//109
f 281//110 292//110 291//110
f 279//111 291//111 290//111
f 277//112 290//112 288//112
f 278//113 277//113 289//113
f 300//114 278//114 309//114
f 301//115 300//115 310//115
f 302//116 301//116 311//116
f 303//117 311//117 312//117
f 304//118 312//118 313//118
f 304//119 314//119 305//119
f 305//120 315//120 306//120
f 317//121 308//121 315//121
f 316//122 307//122 317//122
f 350//107 343//107 351//107
f 349//108 342//108 350//108
f 342//109 349//138 337//138
f 326//110 337//110 336//110
f 324//111 336//111 335//111
f 323//112 335//139 334//139
f 320//113 323//113 331//113
f 321//114 320//114 332//114
f 322//115 321//115 333//115
f 327//116 322//116 338//116
f 328//140 338//117 339//117
f 328//118 340//118 329//118
f 329//119 341//119 330//119
f 330//124 353//120 346//124
f 352//121 345//121 353//121
f 351//122 344//122 352//122
f 188//141 212//141 192//141
f 271//142 218//142 212//142
f 271//142 212//142 272//142
f 210//143 193//143 218//143
f 191//144 190//144 189//144
f 269//145 192//145 270//145
f 192//145 210//145 270//145
f 270//143 210//143 271//143
f 218//142 211//142 212//142
f 271//146 272//147 269//146
f 272//148 268//148 263//148
f 262//149 189//149 263//149
f 211//150 193//150 212//150
f 213//98 219//98 212//98
f 260//98 259//98 268//98
f 216//98 190//98 268//98
f 192//145 193//145 210//145
f 267//151 262//151 268//151
f 269//89 263//89 243//89
f 239//89 192//89 269//89
f 194//89 192//89 199//89
f 268//152 190//152 191//152
f 204//107 224//107 223//107
f 203//108 223//108 222//108
f 202//109 222//109 221//109
f 201//110 221//110 220//110
f 199//111 220//111 219//111
f 194//112 219//112 213//112
f 195//113 213//113 214//113
f 196//114 195//114 215//114
f 197//115 196//115 216//115
f 198//116 197//116 217//116
f 205//117 217//117 225//117
f 206//118 225//118 226//118
f 206//119 227//119 207//119
f 207//120 228//120 208//120
f 209//121 228//121 229//121
f 204//122 229//122 224//122
f 255//107 239//107 261//107
f 250//108 234//108 255//108
f 234//109 250//109 249//109
f 233//110 249//110 248//110
f 231//111 248//111 247//111
f 230//112 247//112 246//112
f 235//113 230//113 251//113
f 236//114 235//114 252//114
f 237//115 236//115 253//115
f 238//116 237//116 254//116
f 241//117 254//117 257//117
f 242//118 257//118 258//118
f 242//119 259//119 243//119
f 243//120 260//120 244//120
f 256//121 240//121 260//121
f 261//122 245//122 256//122
f 670//153 597//153 644//153
f 618//153 629//154 634//153
f 666//155 665//153 682//153
f 594//156 595//157 593//156
f 639//158 644//158 643//158
f 640//159 682//159 644//159
f 632//160 594//160 634//160
f 594//156 640//156 639//156
f 594//156 639//156 595//157
f 593//161 595//161 596//161
f 595//161 639//161 596//161
f 596//161 639//161 643//161
f 660//162 640//163 659//163
f 632//163 645//163 677//163
f 594//163 616//162 615//162
f 681//164 682//164 647//164
f 597//165 594//165 593//165
f 680//166 645//167 632//167
f 645//167 688//46 646//168
f 633//169 634//169 681//170
f 646//171 682//171 645//171
f 645//167 689//46 688//46
f 597//172 596//172 644//172
f 672//173 654//173 650//173
f 654//174 653//174 649//174
f 653//175 670//175 648//175
f 652//176 670//177 671//178
f 651//179 671//179 663//179
f 663//180 664//180 651//180
f 664//181 665//181 659//182
f 666//183 659//183 665//183
f 668//184 662//184 666//184
f 669//185 662//185 668//185
f 677//186 661//186 669//186
f 674//187 676//188 667//187
f 679//189 675//190 674//189
f 678//191 675//191 679//191
f 656//192 678//192 673//192
f 673//193 655//193 656//193
f 617//173 611//173 613//173
f 611//174 610//174 606//174
f 605//175 606//175 609//175
f 609//177 608//177 607//176
f 598//179 608//194 619//194
f 598//180 619//180 620//180
f 600//181 620//181 621//181
f 622//183 601//183 621//183
f 623//184 601//184 622//184
f 603//185 602//185 623//185
f 628//186 604//186 624//186
f 604//187 628//188 627//188
f 626//189 616//190 627//189
f 616//191 626//191 629//191
f 615//195 629//196 618//192
f 618//193 617//193 614//193
f 495//197 451//198 496//198
f 529//198 510//198 535//198
f 528//198 531//197 535//198
f 450//199 451//199 523//199
f 450//200 513//200 449//200
f 513//201 482//202 449//202
f 449//202 482//202 448//202
f 535//203 490//203 482//203
f 448//204 482//204 474//205
f 482//204 487//206 486//205
f 457//205 458//207 448//204
f 523//200 513//200 450//200
f 523//200 522//200 513//200
f 522//202 482//202 513//201
f 449//208 448//208 450//208
f 448//209 510//209 451//209
f 452//210 470//210 469//210
f 533//211 490//212 534//211
f 471//210 490//210 489//210
f 452//210 471//210 470//210
f 482//213 523//213 524//213
f 510//214 511//38 708//215
f 510//214 708//215 532//216
f 535//214 532//216 534//214
f 469//217 511//217 510//217
f 497//218 492//218 454//218
f 492//219 493//219 453//219
f 493//220 494//220 456//221
f 457//222 455//222 495//222
f 496//223 458//223 495//223
f 462//224 496//224 501//224
f 463//225 501//225 502//225
f 503//226 464//226 463//226
f 507//227 468//227 503//227
f 467//228 468//228 506//228
f 505//229 466//230 506//229
f 466//231 505//231 504//231
f 461//232 504//232 500//232
f 461//233 500//233 499//233
f 459//234 499//234 498//234
f 498//235 497//235 459//235
f 516//218 512//218 472//218
f 512//219 515//219 473//236
f 515//220 514//220 475//220
f 476//222 475//222 519//222
f 520//223 479//223 519//223
f 483//224 479//224 525//224
f 484//225 525//225 526//225
f 529//226 485//226 484//226
f 530//227 488//227 529//227
f 487//228 488//228 531//228
f 486//229 487//229 528//230
f 486//231 528//231 527//231
f 480//232 527//232 521//232
f 478//233 521//233 518//233
f 477//234 518//234 517//234
f 517//235 516//235 477//235
f 434//237 437//237 586//237
f 589//238 588//237 586//237
f 440//237 441//237 430//237
f 547//239 430//239 636//239
f 585//240 586//241 584//241
f 403//242 430//242 426//242
f 427//243 548//244 426//243
f 635//245 586//245 585//245
f 548//244 565//243 426//243
f 565//243 631//243 630//243
f 403//246 426//246 422//246
f 563//246 585//246 564//246
f 424//246 630//246 425//247
f 635//248 694//55 636//54
f 547//249 427//249 430//249
f 437//250 584//251 586//251
f 403//252 585//252 572//252
f 403//252 572//252 408//252
f 437//253 403//253 431//253
f 572//252 585//252 583//252
f 404//254 408//254 431//254
f 408//254 572//254 431//254
f 572//254 584//254 431//254
f 583//254 584//254 572//254
f 436//255 411//255 410//255
f 566//256 542//256 411//256
f 567//257 543//258 566//257
f 569//259 543//260 567//259
f 570//261 544//261 569//261
f 571//262 546//263 570//262
f 425//264 571//265 568//266
f 424//267 568//267 442//267
f 423//268 442//269 441//269
f 422//270 441//271 440//271
f 440//272 439//272 422//272
f 439//273 438//274 421//275
f 438//276 432//276 405//276
f 432//277 433//277 405//277
f 434//278 409//278 407//278
f 435//279 410//280 409//279
f 581//255 552//255 551//255
f 560//281 552//281 587//256
f 588//257 560//258 587//257
f 589//260 564//282 588//259
f 592//261 564//283 589//261
f 591//262 563//262 592//262
f 558//265 591//266 590//266
f 590//267 582//267 558//267
f 557//268 582//269 579//269
f 579//271 578//271 557//270
f 578//272 576//272 556//272
f 576//274 575//274 554//273
f 575//276 574//276 554//276
f 574//277 573//277 549//277
f 550//284 549//284 577//285
f 551//279 577//279 580//279
f 420//286 417//286 364//286
f 412//287 360//287 413//287
f 362//288 374//289 371//288
f 381//290 414//288 395//288
f 364//288 416//288 363//288
f 376//288 413//288 375//288
f 418//98 419//98 413//98
f 417//98 420//98 416//98
f 389//291 360//291 412//291
f 367//291 391//291 419//291
f 367//89 362//89 360//89
f 364//89 363//89 368//89
f 380//292 392//293 391//293
f 381//294 400//294 392//295
f 400//296 395//296 402//296
f 402//297 396//297 401//297
f 401//298 394//298 399//298
f 399//299 393//299 398//299
f 398//300 393//300 390//300
f 375//301 390//302 376//301
f 386//303 389//303 375//304
f 386//305 373//305 385//305
f 382//306 385//306 372//306
f 383//307 382//307 369//307
f 384//308 383//308 370//308
f 374//309 384//309 371//309
f 387//310 377//310 388//310
f 378//311 391//312 388//312
f 185//24 137//3 4//24
f 273//26 363//26 416//26
f 265//26 366//26 273//26
f 429//26 420//26 366//26
f 368//26 366//26 420//26
f 366//26 363//26 273//26
f 273//26 416//26 429//26
f 265//27 273//27 185//27
f 536//39 533//39 534//39
f 536//39 534//39 532//216
f 489//39 446//39 471//39
f 470//313 471//313 469//313
f 536//39 708//215 511//38
f 471//39 446//39 469//39
f 536//39 511//38 508//39
f 469//39 446//39 511//38
f 489//40 444//36 446//35
f 536//40 491//40 533//40
f 491//40 444//36 489//40
f 541//47 642//47 647//47
f 541//47 647//47 646//168
f 633//47 681//47 637//47
f 680//166 633//314 689//46
f 541//47 633//47 637//47
f 681//47 647//47 637//47
f 636//54 637//56 428//56
f 548//315 631//315 565//315
f 694//55 631//57 637//56
f 274//56 414//56 415//56
f 414//56 428//56 418//316
f 547//56 636//54 428//56
f 427//56 547//56 428//56
f 414//56 427//56 428//56
f 414//56 548//317 427//56
f 274//56 637//56 631//57
f 414//56 631//57 548//317
f 87//58 16//58 138//58
f 16//58 13//58 138//58
f 701//318 85//58 695//60
f 3//58 15//58 85//58
f 13//58 12//58 138//58
f 12//58 9//58 138//58
f 3//58 11//58 15//58
f 9//58 3//58 138//58
f 87//319 138//29 686//33
f 95//320 87//319 541//74
f 177//61 179//61 698//63
f 93//321 87//319 95//320
f 177//61 709//322 704//323
f 93//324 85//324 87//324
f 179//61 95//320 541//74
f 319//136 274//72 358//325
f 318//326 296//327 297//328
f 274//72 707//136 298//135
f 296//64 274//72 298//135
f 356//64 705//329 703//70
f 318//330 703//70 699//65
f 712//331 296//64 702//332
f 356//64 358//325 365//67
f 274//72 415//333 358//325
f 378//69 380//334 379//335
f 358//325 415//333 380//334
f 418//333 428//336 419//337
f 419//337 428//336 367//69
f 358//325 380//334 378//69
f 358//325 378//69 362//68
f 367//69 428//336 365//67
f 365//67 358//325 362//68
f 541//74 191//71 697//62
f 697//62 189//71 698//63
f 262//71 712//331 702//332
f 189//71 704//323 709//322
f 267//73 274//72 712//331
f 267//73 191//71 541//74
f 135//338 443//338 136//338
f 508//339 509//339 537//339
f 445//340 444//340 536//340
f 1//341 136//341 2//341
f 2//342 138//342 1//342
f 143//343 141//343 142//343
f 139//344 443//344 142//344
f 144//345 143//345 508//345
f 538//346 642//346 539//346
f 638//347 637//347 642//347
f 444//348 445//348 539//348
f 429//349 428//86 638//88
f 3//89 185//89 4//89
f 4//105 137//105 3//105
f 366//89 266//89 706//89
f 266//89 713//89 706//89
f 366//350 365//350 428//350
f 711//89 185//89 187//89
f 63//89 86//89 62//89
f 67//89 89//89 64//89
f 63//89 64//89 86//89
f 61//89 62//89 86//89
f 10//89 22//89 17//89
f 23//89 10//89 17//89
f 60//89 61//89 86//89
f 60//89 86//89 51//89
f 23//89 86//89 10//89
f 29//89 86//89 23//89
f 86//89 55//89 51//89
f 55//89 86//89 29//89
f 30//89 55//89 29//89
f 55//89 30//89 54//89
f 31//89 54//89 30//89
f 54//89 31//89 53//89
f 32//89 53//89 31//89
f 53//89 32//89 56//89
f 33//89 56//89 32//89
f 56//89 33//89 57//89
f 27//89 57//89 33//89
f 57//89 27//89 58//89
f 26//89 58//89 27//89
f 58//89 26//89 59//89
f 25//89 59//89 26//89
f 5//89 21//89 20//89
f 89//89 67//89 66//89
f 89//89 66//89 65//89
f 5//89 24//89 21//89
f 24//89 5//89 25//89
f 65//89 59//89 89//89
f 5//89 59//89 25//89
f 20//89 10//89 5//89
f 19//89 10//89 20//89
f 10//89 18//89 22//89
f 5//94 7//93 6//94
f 8//96 41//96 6//96
f 85//97 86//97 88//97
f 37//98 7//98 14//98
f 14//98 39//98 35//98
f 36//98 37//98 14//98
f 83//98 80//98 92//98
f 79//98 78//98 88//98
f 92//98 80//98 79//98
f 92//98 82//98 83//98
f 7//98 37//98 38//98
f 7//98 38//98 42//98
f 92//98 81//98 82//98
f 81//98 92//98 75//98
f 42//98 43//98 7//98
f 43//98 44//98 7//98
f 75//98 92//98 7//98
f 74//98 75//98 7//98
f 7//98 44//98 74//98
f 73//98 74//98 44//98
f 44//98 45//98 73//98
f 72//98 73//98 45//98
f 45//98 50//98 72//98
f 69//98 72//98 50//98
f 50//98 49//98 69//98
f 70//98 69//98 49//98
f 49//98 48//98 70//98
f 71//98 70//98 48//98
f 48//98 47//98 71//98
f 52//98 71//98 47//98
f 47//98 46//98 52//98
f 76//98 52//98 46//98
f 46//98 40//98 76//98
f 77//98 88//98 78//98
f 76//98 88//98 77//98
f 14//98 34//98 39//98
f 88//98 76//98 40//98
f 40//98 34//98 14//98
f 41//96 84//96 28//96
f 84//96 91//96 68//96
f 9//99 14//99 10//99
f 16//100 14//101 13//101
f 15//103 11//103 10//103
f 89//104 90//104 91//104
f 10//105 7//105 5//105
f 86//106 89//106 92//106
f 26//107 44//107 25//107
f 25//108 43//108 24//108
f 21//109 24//109 42//109
f 20//110 21//110 38//110
f 19//111 20//111 37//111
f 18//112 19//112 36//112
f 35//113 39//113 18//113
f 17//114 22//114 39//114
f 17//115 34//115 40//115
f 40//116 46//116 23//116
f 47//117 29//117 46//117
f 48//118 30//118 47//118
f 49//119 31//119 48//119
f 50//120 32//120 49//120
f 33//121 50//121 27//121
f 27//122 45//122 26//122
f 65//107 81//107 59//107
f 59//108 75//108 58//108
f 57//109 58//109 74//109
f 56//110 57//110 73//110
f 53//111 56//111 72//111
f 54//112 53//112 69//112
f 70//113 71//113 54//113
f 51//114 55//114 71//114
f 51//115 52//115 76//115
f 76//116 77//116 60//116
f 78//117 61//117 77//117
f 79//118 62//118 78//118
f 80//119 63//119 79//119
f 83//120 64//120 80//120
f 67//121 83//121 66//121
f 66//122 82//122 65//122
f 107//94 110//94 108//94
f 157//89 178//89 156//89
f 159//89 181//89 158//89
f 157//89 158//89 178//89
f 155//89 156//89 178//89
f 94//89 98//89 99//89
f 100//89 94//89 99//89
f 148//89 155//89 178//89
f 148//89 178//89 147//89
f 100//89 178//89 94//89
f 101//89 178//89 100//89
f 178//89 145//89 147//89
f 145//89 178//89 101//89
f 116//89 145//89 101//89
f 145//89 116//89 146//89
f 117//89 146//89 116//89
f 146//89 117//89 149//89
f 119//89 149//89 117//89
f 149//89 119//89 150//89
f 120//89 150//89 119//89
f 150//89 120//89 151//89
f 118//89 151//89 120//89
f 151//89 118//89 152//89
f 121//89 152//89 118//89
f 152//89 121//89 153//89
f 115//89 153//89 121//89
f 107//89 113//89 112//89
f 181//89 159//89 154//89
f 181//89 154//89 175//89
f 107//89 114//89 113//89
f 114//89 107//89 115//89
f 175//89 153//89 181//89
f 107//89 153//89 115//89
f 94//89 97//89 98//89
f 112//89 94//89 107//89
f 97//89 94//89 111//89
f 110//105 94//105 96//105
f 177//97 178//97 180//97
f 123//96 184//96 122//96
f 109//96 123//96 108//96
f 93//99 96//99 94//99
f 177//102 94//103 178//102
f 96//98 103//98 110//98
f 103//98 102//98 110//98
f 125//98 110//98 124//98
f 172//98 171//98 180//98
f 183//98 174//98 180//98
f 172//98 180//98 173//98
f 183//98 169//98 174//98
f 110//98 125//98 126//98
f 110//98 126//98 127//98
f 183//98 176//98 169//98
f 176//98 183//98 168//98
f 127//98 128//98 110//98
f 128//98 134//98 110//98
f 168//98 183//98 110//98
f 167//98 168//98 110//98
f 110//98 134//98 167//98
f 166//98 167//98 134//98
f 134//98 131//98 166//98
f 165//98 166//98 131//98
f 131//98 133//98 165//98
f 164//98 165//98 133//98
f 133//98 132//98 164//98
f 161//98 164//98 132//98
f 132//98 130//98 161//98
f 160//98 161//98 130//98
f 130//98 129//98 160//98
f 162//98 160//98 129//98
f 129//98 106//98 162//98
f 163//98 162//98 106//98
f 106//98 105//98 163//98
f 170//98 180//98 171//98
f 163//98 180//98 170//98
f 96//98 104//98 103//98
f 180//98 163//98 105//98
f 105//98 104//98 96//98
f 179//101 96//100 95//100
f 178//106 181//106 183//106
f 181//104 182//104 184//123
f 121//107 134//107 115//107
f 115//108 128//108 114//108
f 113//109 114//109 127//109
f 112//110 113//110 126//110
f 111//111 112//111 125//111
f 97//112 111//112 124//112
f 97//113 102//113 103//113
f 103//114 104//114 98//114
f 104//115 105//115 99//115
f 100//116 105//116 106//116
f 101//117 106//117 129//117
f 130//118 116//118 129//118
f 132//119 117//119 130//119
f 119//120 132//120 133//120
f 120//121 133//121 118//121
f 118//122 131//122 121//122
f 175//107 176//107 153//107
f 153//108 167//108 152//108
f 151//109 152//109 167//109
f 150//110 151//110 166//110
f 149//111 150//111 165//111
f 146//112 149//112 164//112
f 146//113 161//113 160//113
f 160//114 162//114 145//114
f 162//115 163//115 147//115
f 148//116 163//116 170//116
f 155//117 170//117 171//117
f 156//118 171//118 157//118
f 157//119 172//119 173//119
f 158//124 173//120 174//120
f 159//121 174//121 154//121
f 154//122 169//122 175//122
f 357//89 329//89 330//89
f 301//89 302//89 295//89
f 303//89 295//89 302//89
f 329//89 357//89 328//89
f 328//89 357//89 327//89
f 303//89 357//89 295//89
f 304//89 357//89 303//89
f 327//89 357//89 322//89
f 322//89 357//89 304//89
f 305//89 322//89 304//89
f 322//89 305//89 321//89
f 306//89 321//89 305//89
f 321//89 306//89 320//89
f 308//89 320//89 306//89
f 320//89 308//89 323//89
f 307//89 323//89 308//89
f 323//89 307//89 324//89
f 283//89 324//89 307//89
f 324//89 283//89 325//89
f 282//89 325//89 283//89
f 325//89 282//89 326//89
f 281//89 326//89 282//89
f 277//89 275//89 279//89
f 343//89 347//89 344//89
f 343//89 342//89 347//89
f 275//89 280//89 279//89
f 280//89 275//89 281//89
f 326//89 347//89 342//89
f 275//89 326//89 281//89
f 346//89 357//89 330//89
f 347//89 345//89 344//89
f 345//89 357//89 346//89
f 275//89 301//89 295//89
f 275//89 277//89 278//89
f 300//89 301//89 275//89
f 355//126 359//126 347//126
f 286//98 289//98 288//98
f 286//98 299//98 310//98
f 286//98 309//98 289//98
f 355//98 351//98 352//98
f 353//98 341//98 359//98
f 352//98 353//98 355//98
f 350//98 351//98 355//98
f 288//98 290//98 286//98
f 286//98 290//98 291//98
f 350//98 355//98 349//98
f 337//98 349//98 355//98
f 291//98 292//98 286//98
f 292//98 293//98 286//98
f 337//98 355//98 286//98
f 336//98 337//98 286//98
f 286//98 293//98 336//98
f 335//98 336//98 293//98
f 293//98 294//98 335//98
f 334//98 335//98 294//98
f 294//98 316//98 334//98
f 331//98 334//98 316//98
f 316//98 317//98 331//98
f 332//98 331//98 317//98
f 317//98 315//98 332//98
f 333//98 332//98 315//98
f 315//98 314//98 333//98
f 338//98 333//98 314//98
f 314//98 313//98 338//98
f 339//98 338//98 313//98
f 313//98 312//98 339//98
f 359//98 341//98 340//98
f 340//98 339//98 359//98
f 310//98 299//98 311//98
f 359//98 339//98 312//98
f 312//98 311//98 299//98
f 295//128 299//128 275//128
f 356//130 357//130 359//130
f 297//129 295//129 318//129
f 296//131 299//131 295//131
f 275//132 285//132 276//132
f 287//133 276//133 285//133
f 354//133 284//133 287//133
f 299//134 707//136 319//136
f 354//351 355//137 348//137
f 307//107 316//107 283//107
f 283//108 294//108 282//108
f 281//109 282//109 292//109
f 280//110 281//110 291//110
f 279//111 280//111 291//111
f 277//112 279//112 290//112
f 288//113 289//113 277//113
f 289//114 309//114 278//114
f 309//115 310//115 300//115
f 310//116 311//116 301//116
f 302//117 311//117 303//117
f 303//118 312//118 304//118
f 304//119 313//119 314//119
f 305//120 314//120 315//120
f 306//121 315//121 308//121
f 308//122 317//122 307//122
f 344//107 351//107 343//107
f 343//108 350//108 342//108
f 326//109 342//109 337//138
f 325//110 326//110 336//110
f 324//111 325//111 336//111
f 323//112 324//112 335//139
f 334//113 331//113 323//113
f 331//114 332//114 320//114
f 332//115 333//115 321//115
f 333//116 338//116 322//116
f 327//140 338//117 328//140
f 328//118 339//118 340//118
f 329//119 340//119 341//119
f 330//124 341//120 353//120
f 346//121 353//121 345//121
f 345//122 352//122 344//122
f 212//141 188//141 190//141
f 211//143 218//143 193//143
f 189//144 190//144 188//144
f 218//143 271//143 210//143
f 269//146 270//146 271//146
f 263//148 269//148 272//148
f 263//149 189//149 188//149
f 192//150 212//150 193//150
f 190//98 214//98 212//98
f 214//98 213//98 212//98
f 220//98 212//98 219//98
f 258//98 257//98 268//98
f 272//98 260//98 268//98
f 258//98 268//98 259//98
f 272//98 256//98 260//98
f 220//98 221//98 212//98
f 212//98 221//98 222//98
f 272//98 261//98 256//98
f 261//98 272//98 255//98
f 222//98 223//98 212//98
f 223//98 224//98 212//98
f 255//98 272//98 212//98
f 250//98 255//98 212//98
f 212//98 224//98 250//98
f 249//98 250//98 224//98
f 224//98 229//98 249//98
f 248//98 249//98 229//98
f 229//98 228//98 248//98
f 247//98 248//98 228//98
f 228//98 227//98 247//98
f 246//98 247//98 227//98
f 227//98 226//98 246//98
f 251//98 246//98 226//98
f 226//98 225//98 251//98
f 252//98 251//98 225//98
f 225//98 217//98 252//98
f 253//98 252//98 217//98
f 217//98 216//98 253//98
f 254//98 268//98 257//98
f 253//98 268//98 254//98
f 190//98 215//98 214//98
f 268//98 253//98 216//98
f 216//98 215//98 190//98
f 262//151 263//151 268//151
f 242//89 263//89 241//89
f 244//89 269//89 243//89
f 242//89 243//89 263//89
f 238//89 241//89 263//89
f 188//89 195//89 196//89
f 197//89 188//89 196//89
f 263//89 188//89 238//89
f 238//89 188//89 237//89
f 197//89 198//89 188//89
f 198//89 205//89 188//89
f 237//89 188//89 236//89
f 236//89 188//89 235//89
f 235//89 188//89 205//89
f 235//89 205//89 230//89
f 206//89 230//89 205//89
f 230//89 206//89 231//89
f 207//89 231//89 206//89
f 231//89 207//89 232//89
f 208//89 232//89 207//89
f 232//89 208//89 233//89
f 209//89 233//89 208//89
f 233//89 209//89 234//89
f 204//89 234//89 209//89
f 234//89 204//89 239//89
f 203//89 239//89 204//89
f 200//89 192//89 201//89
f 269//89 244//89 240//89
f 269//89 240//89 245//89
f 192//89 202//89 201//89
f 202//89 192//89 203//89
f 245//89 239//89 269//89
f 192//89 239//89 203//89
f 188//89 192//89 195//89
f 200//89 199//89 192//89
f 195//89 192//89 194//89
f 267//152 268//152 191//152
f 204//107 223//107 203//107
f 203//108 222//108 202//108
f 201//109 202//109 221//109
f 200//110 201//110 220//110
f 199//111 200//111 220//111
f 194//112 199//112 219//112
f 195//113 194//113 213//113
f 214//114 215//114 195//114
f 215//115 216//115 196//115
f 197//116 216//116 217//116
f 198//117 217//117 205//117
f 205//118 225//118 206//118
f 206//119 226//119 227//119
f 207//120 227//120 228//120
f 208//121 228//121 209//121
f 209//122 229//122 204//122
f 245//107 261//107 239//107
f 239//108 255//108 234//108
f 233//109 234//109 249//109
f 232//110 233//110 248//110
f 231//111 232//111 248//111
f 230//112 231//112 247//112
f 246//113 251//113 230//113
f 251//114 252//114 235//114
f 252//115 253//115 236//115
f 253//116 254//116 237//116
f 238//117 254//117 241//117
f 241//118 257//118 242//118
f 242//119 258//119 259//119
f 243//120 259//120 260//120
f 244//121 260//121 240//121
f 240//122 256//122 245//122
f 626//153 627//153 634//153
f 627//153 628//153 634//153
f 669//153 668//153 682//153
f 667//153 669//153 682//153
f 634//153 628//153 682//153
f 628//153 624//153 682//153
f 674//352 667//153 682//153
f 679//153 674//352 682//153
f 624//153 623//154 682//153
f 623//154 622//153 682//153
f 622//153 679//153 682//153
f 622//153 621//155 679//153
f 621//155 678//153 679//153
f 621//155 620//155 678//153
f 673//153 678//153 620//155
f 620//155 619//153 673//153
f 619//153 672//153 673//153
f 619//153 608//353 672//153
f 608//353 654//154 672//153
f 608//353 609//153 654//154
f 654//154 609//153 653//155
f 653//155 609//153 670//153
f 597//153 611//155 617//154
f 664//153 663//155 644//153
f 663//155 671//154 644//153
f 611//155 597//153 610//153
f 610//153 597//153 609//153
f 671//154 670//153 644//153
f 609//153 597//153 670//153
f 597//153 617//154 634//153
f 617//154 618//153 634//153
f 629//154 626//153 634//153
f 664//153 644//153 682//153
f 668//153 666//155 682//153
f 665//153 664//153 682//153
f 640//158 644//158 639//158
f 682//159 640//159 645//159
f 594//160 597//160 634//160
f 662//163 645//163 640//163
f 659//163 640//163 658//163
f 662//163 640//163 660//162
f 594//163 613//163 612//162
f 612//162 606//163 594//163
f 658//163 640//163 651//163
f 651//163 640//163 652//354
f 606//163 605//355 594//163
f 605//355 607//163 594//163
f 652//354 640//163 648//163
f 648//163 640//163 594//163
f 607//163 648//163 594//163
f 649//163 648//163 607//163
f 598//162 649//163 607//163
f 650//163 649//163 598//162
f 599//163 650//163 598//162
f 599//163 655//162 650//163
f 600//163 655//162 599//163
f 655//162 600//163 656//162
f 601//163 656//162 600//163
f 601//163 657//354 656//162
f 602//162 657//354 601//163
f 602//162 675//163 657//354
f 603//162 675//163 602//162
f 603//162 676//354 675//163
f 604//163 676//354 603//162
f 604//163 677//163 676//354
f 616//162 632//163 625//163
f 625//163 632//163 604//163
f 661//163 645//163 662//163
f 632//163 677//163 604//163
f 677//163 645//163 661//163
f 594//163 614//163 613//163
f 594//163 632//163 616//162
f 594//163 615//162 614//163
f 681//164 634//164 682//164
f 597//165 593//165 596//165
f 633//167 680//166 632//167
f 633//169 632//169 634//169
f 647//171 682//171 646//171
f 596//172 643//172 644//172
f 650//173 655//173 672//173
f 650//174 654//174 649//174
f 649//175 653//175 648//175
f 652//176 648//176 670//177
f 651//179 652//179 671//179
f 658//180 651//180 664//180
f 659//182 658//182 664//181
f 666//183 660//183 659//183
f 662//184 660//184 666//184
f 661//185 662//185 669//185
f 667//186 677//186 669//186
f 677//188 667//187 676//188
f 676//190 674//189 675//190
f 675//191 678//191 657//191
f 657//192 678//192 656//192
f 673//193 672//193 655//193
f 613//173 611//173 612//173
f 612//174 611//174 606//174
f 610//175 609//175 606//175
f 607//176 605//176 609//177
f 598//179 607//179 608//194
f 599//180 598//180 620//180
f 600//181 599//181 620//181
f 621//183 601//183 600//183
f 602//184 601//184 623//184
f 624//185 603//185 623//185
f 604//186 603//186 624//186
f 604//187 627//188 625//187
f 625//190 627//189 616//190
f 616//191 629//191 615//191
f 615//195 618//192 614//195
f 617//193 613//193 614//193
f 493//197 451//198 494//198
f 501//198 451//198 510//198
f 496//198 451//198 501//198
f 494//198 451//198 495//197
f 518//198 521//197 524//198
f 492//198 451//198 493//197
f 451//198 492//198 497//198
f 517//198 518//198 524//198
f 516//198 517//198 524//198
f 451//198 497//198 524//198
f 497//198 498//197 524//198
f 498//197 516//198 524//198
f 498//197 499//198 516//198
f 499//198 512//197 516//198
f 499//198 500//197 512//197
f 512//197 500//197 515//198
f 500//197 504//197 515//198
f 515//198 504//197 514//198
f 504//197 505//198 514//198
f 514//198 505//198 519//197
f 505//198 506//198 519//197
f 519//197 506//198 520//197
f 506//198 507//198 520//197
f 520//197 507//198 525//198
f 507//198 503//198 525//198
f 525//198 503//198 526//356
f 502//197 501//198 510//198
f 526//356 503//198 529//198
f 503//198 502//197 510//198
f 530//198 529//198 535//198
f 503//198 510//198 529//198
f 524//198 521//197 535//198
f 521//197 527//357 535//198
f 531//197 530//198 535//198
f 527//357 528//198 535//198
f 523//199 451//199 524//199
f 482//203 524//203 535//203
f 488//204 490//204 485//204
f 463//205 452//204 462//204
f 464//204 452//204 463//205
f 485//204 490//204 452//204
f 484//204 485//204 452//204
f 468//204 452//204 464//204
f 468//204 484//204 452//204
f 483//204 484//204 468//204
f 467//205 483//204 468//204
f 479//205 483//204 467//205
f 466//204 479//205 467//205
f 476//204 479//205 466//204
f 465//205 476//204 466//204
f 475//204 476//204 465//205
f 461//205 475//204 465//205
f 473//204 475//204 461//205
f 460//204 473//204 461//205
f 472//205 473//204 460//204
f 459//358 472//205 460//204
f 459//358 474//205 472//205
f 454//204 474//205 459//358
f 453//205 456//204 448//204
f 478//204 482//204 480//204
f 477//205 482//204 478//204
f 448//204 454//204 453//205
f 474//205 482//204 477//205
f 448//204 474//205 454//204
f 482//204 481//204 480//204
f 482//204 490//204 488//204
f 482//204 488//204 487//206
f 482//204 486//205 481//204
f 462//204 452//204 448//204
f 456//204 455//204 448//204
f 455//204 457//205 448//204
f 458//207 462//204 448//204
f 450//208 448//208 451//208
f 510//209 448//209 452//209
f 491//212 490//212 533//211
f 490//212 535//212 534//211
f 452//210 490//210 471//210
f 490//210 491//210 489//210
f 522//359 523//213 482//213
f 510//214 532//216 535//214
f 452//217 469//217 510//217
f 454//218 492//218 453//218
f 453//219 493//219 456//219
f 456//221 494//220 455//221
f 455//222 494//222 495//222
f 457//223 495//223 458//223
f 458//224 496//224 462//224
f 462//225 501//225 463//225
f 503//226 463//226 502//226
f 468//227 464//227 503//227
f 506//228 468//228 507//228
f 466//230 467//230 506//229
f 465//231 466//231 504//231
f 504//232 461//232 465//232
f 460//233 461//233 499//233
f 460//234 499//234 459//234
f 497//235 454//235 459//235
f 474//218 516//218 472//218
f 472//236 512//219 473//236
f 473//220 515//220 475//220
f 475//222 514//222 519//222
f 476//223 519//223 479//223
f 479//224 520//224 525//224
f 483//225 525//225 484//225
f 529//226 484//226 526//226
f 488//227 485//227 529//227
f 531//228 488//228 530//228
f 528//230 487//229 531//230
f 481//231 486//231 527//231
f 527//232 480//232 481//232
f 480//233 521//233 478//233
f 478//234 518//234 477//234
f 516//235 474//235 477//235
f 591//237 592//237 635//237
f 430//237 442//237 635//237
f 442//237 568//360 635//237
f 590//237 591//237 635//237
f 582//237 590//237 635//237
f 568//360 571//237 635//237
f 571//237 570//237 635//237
f 579//237 582//237 635//237
f 570//237 579//237 635//237
f 570//237 569//237 579//237
f 569//237 578//237 579//237
f 569//237 567//237 578//237
f 567//237 576//237 578//237
f 567//237 566//237 576//237
f 566//237 575//237 576//237
f 566//237 436//237 575//237
f 575//237 436//237 574//361
f 436//237 435//362 574//361
f 574//361 435//362 573//363
f 435//362 434//237 573//363
f 573//363 434//237 577//237
f 581//237 580//237 586//237
f 438//237 437//237 432//237
f 432//237 437//237 433//237
f 580//237 577//237 586//237
f 433//237 437//237 434//237
f 577//237 434//237 586//237
f 587//237 581//237 586//237
f 592//237 586//237 635//237
f 592//237 589//238 586//237
f 588//237 587//237 586//237
f 437//237 438//237 430//237
f 438//237 439//237 430//237
f 430//237 441//237 442//237
f 439//237 440//237 430//237
f 430//239 635//239 636//239
f 583//240 585//240 584//241
f 430//242 403//242 437//242
f 585//245 630//245 635//245
f 565//243 630//243 426//243
f 403//246 421//246 406//246
f 426//246 424//246 423//246
f 403//246 422//246 421//246
f 422//246 426//246 423//246
f 560//246 585//246 552//246
f 561//246 585//246 560//246
f 563//246 630//246 585//246
f 564//246 585//246 561//246
f 552//246 585//246 551//246
f 406//246 405//246 403//246
f 405//246 407//364 403//246
f 551//246 585//246 550//246
f 550//246 585//246 549//246
f 407//364 409//365 403//246
f 409//365 410//246 403//246
f 549//246 585//246 403//246
f 555//246 549//246 403//246
f 410//246 555//246 403//246
f 554//246 555//246 410//246
f 411//246 554//246 410//246
f 411//246 553//246 554//246
f 542//246 553//246 411//246
f 542//246 556//246 553//246
f 543//246 556//246 542//246
f 543//246 557//246 556//246
f 545//246 557//246 543//246
f 545//246 559//246 557//246
f 544//246 559//246 545//246
f 544//246 558//246 559//246
f 546//364 558//246 544//246
f 562//246 630//246 563//246
f 425//247 558//246 546//364
f 558//246 630//246 562//246
f 426//246 630//246 424//246
f 425//247 630//246 558//246
f 635//248 630//248 631//57
f 427//249 426//249 430//249
f 437//250 431//250 584//251
f 403//252 408//252 404//252
f 431//253 403//253 404//253
f 410//255 435//255 436//255
f 411//256 436//256 566//256
f 542//258 566//257 543//258
f 543//260 569//259 545//260
f 545//261 569//261 544//261
f 544//263 570//262 546//263
f 571//265 425//264 546//264
f 568//267 424//267 425//267
f 442//269 423//268 424//268
f 423//270 441//271 422//270
f 439//272 421//272 422//272
f 406//275 421//275 438//274
f 405//276 406//276 438//276
f 407//277 405//277 433//277
f 407//278 433//278 434//278
f 409//279 434//279 435//279
f 551//255 580//255 581//255
f 552//281 581//256 587//256
f 588//257 561//258 560//258
f 561//282 588//259 564//282
f 592//261 563//283 564//283
f 591//262 562//262 563//262
f 591//266 558//265 562//265
f 559//267 558//267 582//267
f 582//269 557//268 559//366
f 556//270 557//270 578//271
f 576//272 553//272 556//272
f 576//274 554//273 553//367
f 555//276 554//276 574//276
f 574//277 549//277 555//277
f 549//284 573//285 577//285
f 550//279 577//279 551//279
f 364//286 368//286 420//286
f 361//287 413//287 360//287
f 362//288 370//288 361//288
f 362//288 378//368 377//369
f 362//288 377//369 374//289
f 362//288 371//288 370//288
f 396//288 414//288 413//288
f 397//288 414//288 396//288
f 415//288 414//288 380//290
f 380//290 414//288 381//290
f 395//288 414//288 397//288
f 416//288 364//288 417//288
f 370//288 369//288 361//288
f 369//288 372//288 361//288
f 396//288 413//288 394//288
f 394//288 413//288 393//288
f 372//288 373//288 361//288
f 373//288 375//288 361//288
f 393//288 413//288 376//288
f 375//288 413//288 361//288
f 419//98 412//98 413//98
f 414//98 418//98 413//98
f 383//291 360//291 382//291
f 401//291 399//291 412//291
f 399//291 398//291 412//291
f 382//291 360//291 385//291
f 385//291 360//291 386//370
f 398//291 390//370 412//291
f 386//370 360//291 389//291
f 390//370 389//291 412//291
f 367//291 360//291 383//291
f 367//291 383//291 384//291
f 401//291 412//291 419//291
f 402//291 401//291 419//291
f 367//291 384//291 387//291
f 367//291 387//291 388//291
f 400//291 402//291 419//291
f 392//371 400//291 419//291
f 367//291 388//291 391//291
f 391//291 392//371 419//291
f 361//89 360//89 362//89
f 379//372 380//292 391//293
f 380//292 381//292 392//293
f 381//294 395//294 400//294
f 395//296 397//296 402//296
f 397//297 396//297 402//297
f 396//298 394//298 401//298
f 394//299 393//299 399//299
f 376//300 390//300 393//300
f 375//301 389//302 390//302
f 373//304 386//303 375//304
f 372//305 385//305 373//305
f 369//306 382//306 372//306
f 370//307 383//307 369//307
f 371//308 384//308 370//308
f 387//309 384//309 374//309
f 374//310 377//310 387//310
f 377//373 378//311 388//312
f 378//311 379//374 391//312
f 445//16 683//4 684//17
f 692//52 684//17 691//23
f 684//17 683//4 691//23
f 683//4 137//3 685//22
f 685//22 137//3 185//24
f 540//18 684//17 693//25
f 684//17 692//52 693//25
f 693//25 691//23 185//24
f 691//23 687//31 185//24
f 687//31 685//22 185//24
f 541//47 646//168 688//46
f 688//46 689//46 541//47
f 539//50 692//52 690//49
f 692//52 691//23 690//49
f 690//49 686//33 444//50
f 539//51 541//51 693//25
f 93//59 696//375 695//60
f 179//61 541//74 697//62
f 296//64 318//330 699//65
f 705//329 701//318 262//71
f 701//318 695//60 696//375
f 696//375 704//323 701//318
f 704//323 262//71 701//318
f 700//66 699//65 703//70
f 703//70 705//329 262//71
f 262//71 702//332 700//66
f 693//25 541//376 690//49
f 3//89 701//89 186//89
f 701//89 187//89 185//89
f 365//89 366//89 706//89
f 713//89 711//89 705//89
f 185//89 711//89 264//89
f 265//89 264//89 713//89
f 645//167 680//166 689//46
f 635//248 631//57 694//55
f 536//39 532//216 708//215
f 701//318 3//58 85//58
f 686//33 690//49 87//319
f 690//49 541//74 87//319
f 698//63 710//377 709//322
f 709//322 177//61 698//63
f 704//323 696//375 177//61
f 696//375 93//59 177//61
f 274//72 319//136 707//136
f 356//64 365//67 705//329
f 318//330 356//64 703//70
f 712//331 274//72 296//64
f 296//64 700//66 702//332
f 191//71 189//71 697//62
f 189//71 710//377 698//63
f 262//71 267//73 712//331
f 709//322 710//377 189//71
f 189//71 262//71 704//323
f 366//89 265//89 266//89
f 187//89 701//89 705//89
f 705//89 711//89 187//89
