# Buildable cardboard shell derived from the approved V1 candidate-panels-3d.obj
# Coordinates are millimeters: X left/right, Y depth, Z up.
o accepted_cardboard_shell
v 13.078000 -38.322000 -15.245000
v 13.477000 -66.517000 -48.345000
v 0.126000 -66.884000 -78.131000
v -0.901000 -53.315000 -93.961000
v 20.978000 -40.174000 -110.000000
v 100.678000 50.875000 110.000000
v 46.450000 16.080000 43.175000
v 27.005000 -15.535000 31.183000
v -0.101000 26.305000 66.831000
v 20.519000 -59.814000 -55.058000
v 42.611000 -51.213000 -61.676000
v 27.003000 -55.850000 -96.386000
v 55.045000 -31.401000 -53.353000
v 22.231000 -33.475000 -25.737000
v 68.285000 -7.531000 8.451000
v 69.376000 -19.025000 -30.945000
v 29.307000 -24.847000 0.593000
v 82.229000 4.960000 -31.249000
v 84.626000 66.884000 -36.674000
v 0.001000 -26.302000 0.658000
v 0.000000 -8.565000 32.410000
v 0.142000 56.344000 68.768000
v 101.277000 42.283000 75.260000
v 82.174000 41.495000 14.838000
v 41.370000 28.466000 57.726000
v 37.198000 44.938000 62.884000
v 39.743000 10.710000 -94.287000
v 43.159000 -11.336000 -83.497000
v 59.297000 58.675000 -78.085000
v 61.717000 34.799000 -70.569000
v -13.078000 -38.322000 -15.245000
v -13.477000 -66.517000 -48.345000
v -20.978000 -40.174000 -110.000000
v -100.678000 50.875000 110.000000
v -46.450000 16.080000 43.175000
v -27.005000 -15.535000 31.183000
v -20.519000 -59.814000 -55.058000
v -42.611000 -51.213000 -61.676000
v -27.003000 -55.850000 -96.386000
v -55.045000 -31.401000 -53.353000
v -22.231000 -33.475000 -25.737000
v -68.285000 -7.531000 8.451000
v -69.376000 -19.025000 -30.945000
v -29.307000 -24.847000 0.593000
v -82.229000 4.960000 -31.249000
v -84.626000 66.884000 -36.674000
v -101.277000 42.283000 75.260000
v -82.174000 41.495000 14.838000
v -41.370000 28.466000 57.726000
v -37.198000 44.938000 62.884000
v -39.743000 10.710000 -94.287000
v -43.159000 -11.336000 -83.497000
v -59.297000 58.675000 -78.085000
v -61.717000 34.799000 -70.569000
v 0.000000 -66.517000 -48.345000
v -20.000000 88.632000 -66.699000
v -60.000000 101.002000 -19.332000
v -40.000000 112.679000 -21.822000
v -50.000000 97.930000 29.133000
v -20.000000 105.568000 30.809000
v -54.945000 73.222000 32.900000
v 50.000000 97.930000 29.133000
v 20.000000 105.568000 30.809000
v 54.945000 73.222000 32.900000
v 40.000000 112.679000 -21.822000
v 60.000000 101.002000 -19.332000
v 20.000000 88.632000 -66.699000
g MANQ001-A
f 31 1 2
g MANQ001-B
f 31 2 32
g MANQ002-A
f 22 9 49
g MANQ002-B
f 22 49 50
g MANQ003-A
f 22 9 25
g MANQ003-B
f 22 25 26
g MANQ006-A
f 65 58 56
g MANQ006-B
f 65 56 67
g MANQ007-A
f 67 56 53
g MANQ007-B
f 67 53 29
g MANQ008-A
f 53 29 5
g MANQ008-B
f 53 5 33
g QUAD001-A
f 1 2 10
g QUAD001-B
f 1 10 14
g QUAD002-A
f 2 10 3
g QUAD002-B
f 2 3 55
g QUAD003-A
f 3 10 11
g QUAD003-B
f 3 11 12
g QUAD004-A
f 3 37 32
g QUAD004-B
f 3 32 55
g QUAD005-A
f 3 37 38
g QUAD005-B
f 3 38 39
g QUAD006-A
f 5 12 28
g QUAD006-B
f 5 28 27
g QUAD008-A
f 6 23 24
g QUAD008-B
f 6 24 64
g QUAD013-A
f 11 12 28
g QUAD013-B
f 11 28 13
g QUAD014-A
f 13 16 18
g QUAD014-B
f 13 18 28
g QUAD017-A
f 18 19 30
g QUAD017-B
f 18 30 28
g QUAD018-A
f 19 24 62
g QUAD018-B
f 19 62 66
g QUAD021-A
f 24 62 26
g QUAD021-B
f 24 26 64
g QUAD022-A
f 31 32 37
g QUAD022-B
f 31 37 41
g QUAD023-A
f 33 39 52
g QUAD023-B
f 33 52 51
g QUAD025-A
f 34 47 48
g QUAD025-B
f 34 48 61
g QUAD027-A
f 38 39 52
g QUAD027-B
f 38 52 40
g QUAD028-A
f 40 43 45
g QUAD028-B
f 40 45 52
g QUAD031-A
f 45 46 54
g QUAD031-B
f 45 54 52
g QUAD032-A
f 46 48 59
g QUAD032-B
f 46 59 57
g QUAD035-A
f 48 59 50
g QUAD035-B
f 48 50 61
g QUAD036-A
f 62 63 65
g QUAD036-B
f 62 65 66
g TRI001
f 1 8 17
g TRI002
f 1 8 20
g TRI003
f 1 14 17
g TRI004
f 1 20 31
g TRI005
f 3 4 12
g TRI006
f 3 4 39
g TRI007
f 4 5 12
g TRI008
f 4 5 33
g TRI009
f 4 33 39
g TRI010
f 6 7 25
g TRI011
f 6 25 26
g TRI012
f 6 26 64
g TRI013
f 8 9 21
g TRI014
f 8 9 25
g TRI015
f 8 15 17
g TRI016
f 8 15 25
g TRI017
f 8 20 21
g TRI018
f 9 21 36
g TRI019
f 9 36 49
g TRI020
f 10 11 14
g TRI021
f 11 13 14
g TRI022
f 13 14 16
g TRI025
f 15 16 18
g TRI026
f 15 18 24
g TRI027
f 15 24 25
g TRI028
f 18 19 24
g TRI029
f 19 29 30
g TRI030
f 19 29 66
g TRI031
f 20 21 36
g TRI032
f 20 31 36
g TRI033
f 22 26 62
g TRI034
f 22 50 59
g TRI035
f 22 59 60
g TRI036
f 22 60 63
g TRI037
f 22 62 63
g TRI038
f 27 28 30
g TRI039
f 27 29 30
g TRI040
f 29 66 67
g TRI041
f 31 36 44
g TRI042
f 31 41 44
g TRI043
f 34 35 49
g TRI044
f 34 49 50
g TRI045
f 34 50 61
g TRI046
f 36 42 44
g TRI047
f 36 42 49
g TRI048
f 37 38 41
g TRI049
f 38 40 41
g TRI050
f 40 41 43
g TRI053
f 42 43 45
g TRI054
f 42 45 48
g TRI055
f 42 48 49
g TRI056
f 45 46 48
g TRI057
f 46 53 54
g TRI058
f 46 53 56
g TRI059
f 46 56 57
g TRI060
f 51 52 54
g TRI061
f 51 53 54
g TRI062
f 56 57 58
g TRI063
f 57 58 59
g TRI064
f 58 59 60
g TRI065
f 65 66 67
