# Blender 5.2.0 LTS
# www.blender.org
o PROPOSED__RIGHT_LOWER_EYE__PLAIN_FLANGE_4P8MM_UNCHANGED_V6
v 62.891312 59.349972 122.779701
v 65.849762 64.742867 121.396248
v 66.161224 64.554428 121.428711
v 65.527443 65.130577 121.317268
v 65.598282 65.002983 121.344612
v 65.747597 64.848541 121.375275
v 65.423912 65.317055 121.277313
v 66.369164 64.492729 121.435287
v 66.511436 64.450508 121.439789
v 66.876534 64.438187 121.428711
v 67.087379 64.485764 121.409439
v 63.070023 60.449665 127.448616
v 66.690140 65.550201 126.108696
v 67.055237 65.537880 126.097626
v 59.981354 66.627571 121.176964
v 65.338547 65.663666 121.198944
v 65.347992 66.019211 121.114838
v 65.451614 66.359436 121.030731
v 65.642342 66.661186 120.952362
v 65.749939 66.759781 120.925018
v 65.529099 66.482025 120.998894
v 65.907188 66.903885 120.885063
v 66.037560 66.971764 120.864082
v 66.228096 67.070976 120.833420
v 66.583199 67.151100 120.800957
v 66.948296 67.138779 120.789886
v 60.160065 67.727257 125.845879
v 66.406799 68.170670 125.502335
v 66.761902 68.250786 125.469872
v 66.028465 65.842560 126.065163
v 65.776985 66.102676 126.013527
v 65.517250 66.763351 125.867851
v 65.602615 66.416740 125.946228
v 65.526695 67.118896 125.783752
v 66.339928 65.654121 126.097626
v 65.630318 67.459129 125.699646
v 65.821045 67.760880 125.621277
v 66.085892 68.003571 125.553978
v 67.231636 64.518311 121.396248
v 67.552544 64.685410 121.344612
v 67.817390 64.928101 121.277313
v 67.930634 65.107262 121.230774
v 68.008118 65.229843 121.198936
v 68.111740 65.570076 121.114838
v 74.060364 63.506207 121.373253
v 74.239075 64.605896 126.042168
v 67.298508 67.034859 120.800957
v 67.861450 66.586304 120.885063
v 67.609970 66.846413 120.833420
v 68.117348 65.781181 121.064896
v 68.121185 65.925621 121.030731
v 68.035820 66.272232 120.952362
v 71.150406 70.783798 119.770515
v 67.788673 67.946106 125.502335
v 67.126999 68.238464 125.458801
v 67.477211 68.134544 125.469872
v 67.996094 66.027786 125.946220
v 67.410339 65.617996 126.065163
v 67.731247 65.785095 126.013527
v 68.037819 66.093796 125.929077
v 68.186821 66.329536 125.867851
v 68.290443 66.669769 125.783745
v 68.299889 67.025307 125.699646
v 68.214523 67.371925 125.621269
v 68.040154 67.685989 125.553970
v 71.329117 71.883484 124.439430
vn 0.0372 0.2291 0.9727
vn 0.0373 0.2291 0.9727
vn -0.0373 -0.2291 -0.9727
vn -0.3637 0.9097 -0.2003
vn 0.9308 0.3464 -0.1172
vn 0.3637 -0.9097 0.2003
vn -0.9308 -0.3464 0.1172
vn -0.2835 -0.9309 0.2301
vn -0.7238 -0.6594 0.2033
vn -0.7247 -0.6640 0.1841
vn -0.8780 -0.4573 0.1413
vn -0.9716 -0.2192 0.0888
vn -0.9990 0.0336 0.0303
vn -0.9582 0.2844 -0.0303
vn -0.7767 0.6199 -0.1121
vn -0.6881 0.7117 -0.1413
vn -0.4771 0.8594 -0.1841
vn -0.3269 0.9226 -0.2048
vn 0.0259 0.9728 -0.2301
vn 0.5225 0.8300 -0.1952
vn 0.6286 0.7513 -0.2010
vn 0.8781 0.4572 -0.1413
vn 0.9716 0.2192 -0.0888
vn 0.9990 -0.0336 -0.0303
vn 0.9583 -0.2843 0.0303
vn 0.8522 -0.5156 0.0888
vn 0.4777 -0.8547 0.2033
vn 0.2336 -0.9484 0.2144
vn -0.0258 -0.9728 0.2301
vn -0.9923 0.1240 -0.0000
vn 0.0374 0.2292 0.9727
vn -1.0000 -0.0000 -0.0000
vn 0.0371 0.2291 0.9727
vn -0.0000 -0.5300 0.8480
vn -0.0000 0.0779 -0.9970
vn -0.0000 -1.0000 -0.0000
vn 0.0371 0.2290 0.9727
vn -0.0372 -0.2291 -0.9727
vn -0.0371 -0.2291 -0.9727
vn -0.0366 -0.2290 -0.9727
vn -0.2836 -0.9309 0.2301
vn -0.2835 -0.9310 0.2301
vn -0.5221 -0.8274 0.2066
vn -0.5219 -0.8256 0.2144
vn -0.8780 -0.4572 0.1413
vn -0.7246 -0.6641 0.1841
vn -0.8781 -0.4572 0.1413
vn -0.9990 0.0337 0.0303
vn -0.9582 0.2843 -0.0303
vn -0.8522 0.5156 -0.0888
vn -0.0373 -0.2292 -0.9727
vn -0.8513 0.5200 -0.0696
vn -0.4771 0.8594 -0.1842
vn -0.2340 0.9457 -0.2258
vn 0.0258 0.9728 -0.2301
vn 0.2835 0.9309 -0.2301
vn 0.2827 0.9263 -0.2492
vn 0.7253 0.6684 -0.1650
vn -0.0371 -0.2290 -0.9727
vn 0.9912 0.1239 -0.0465
vn 0.9990 -0.0338 -0.0303
vn 0.9582 -0.2844 0.0303
vn 0.6882 -0.7108 0.1455
vn 0.6873 -0.7161 0.1221
vn 0.8514 -0.5199 0.0696
vn 0.4771 -0.8594 0.1841
vt 0.000000 0.000000
vt 0.983073 0.703125
vt 1.000000 0.890625
vt 0.958333 0.890625
vt 0.900316 0.703125
vt 0.916667 0.703125
vt 0.875000 0.703125
vt 0.916667 0.890625
vt 0.875000 0.890625
vt 0.858072 0.703125
vt 0.833333 0.890626
vt 0.833333 0.703125
vt 0.833333 0.890625
vt 0.791667 0.703125
vt 0.791667 0.890625
vt 0.750000 0.703125
vt 0.708333 0.890625
vt 0.708333 0.703125
vt 0.626418 0.890626
vt 0.691407 0.703125
vt 0.666667 0.703125
vt 0.625000 0.890626
vt 0.649740 0.703125
vt 0.625000 0.703126
vt 0.583333 0.890626
vt 0.607230 0.703125
vt 0.541666 0.890625
vt 0.541666 0.703125
vt 0.500000 0.703125
vt 0.458333 0.703125
vt 0.500000 0.890625
vt 0.418086 0.703125
vt 0.456913 0.890625
vt 0.375000 0.890625
vt 0.375000 0.703125
vt 0.333333 0.703125
vt 0.333333 0.890625
vt 0.291667 0.703125
vt 0.250000 0.890625
vt 0.250000 0.703125
vt 0.208333 0.703125
vt 0.208333 0.890625
vt 0.175781 0.890625
vt 0.191406 0.703125
vt 0.125000 0.703125
vt 0.166667 0.890625
vt 0.084753 0.703125
vt 0.083333 0.703125
vt 0.083333 0.890625
vt 0.066983 0.703125
vt 0.066406 0.703125
vt 0.041666 0.890625
vt 0.041666 0.703125
vt -0.000000 0.703126
vt 1.000000 0.703125
vt 0.958333 0.703125
vt 0.982230 0.703125
vt 0.858649 0.703125
vt 0.899739 0.703125
vt 0.750000 0.890625
vt 0.666667 0.890626
vt 0.690563 0.703125
vt 0.608073 0.703125
vt 0.648897 0.703125
vt 0.583333 0.703125
vt 0.458333 0.890625
vt 0.416666 0.703125
vt 0.416666 0.890625
vt 0.291667 0.890625
vt 0.274739 0.703125
vt 0.191983 0.703125
vt 0.166666 0.703126
vt 0.175471 0.890625
vt 0.125000 0.890625
vt -0.000000 0.890625
s 0
f 4/1/1 7/1/1 15/1/1
f 52/1/2 45/1/2 48/1/2
f 33/1/3 31/1/3 12/1/3
f 64/1/3 65/1/3 66/1/3
f 45/1/4 12/1/4 46/1/4
f 1/1/5 27/1/5 12/1/5
f 27/1/6 53/1/6 66/1/6
f 53/1/7 46/1/7 66/1/7
f 8/2/8 13/3/8 35/4/8
f 35/4/9 6/5/9 2/6/9
f 5/7/10 30/8/10 31/9/10
f 4/10/11 33/11/11 7/12/11
f 33/13/12 16/14/12 7/12/12
f 32/15/13 17/16/13 16/14/13
f 17/16/14 36/17/14 18/18/14
f 36/17/15 38/19/15 21/20/15
f 19/21/16 38/22/16 20/23/16
f 22/24/17 38/22/17 28/25/17
f 23/26/18 29/27/18 25/28/18
f 29/27/19 26/29/19 25/28/19
f 47/30/20 55/31/20 49/32/20
f 56/33/21 65/34/21 48/35/21
f 65/34/22 52/36/22 48/35/22
f 64/37/23 51/38/23 52/36/23
f 51/38/24 62/39/24 44/40/24
f 43/41/25 62/39/25 61/42/25
f 60/43/26 42/44/26 61/42/26
f 40/45/27 57/46/27 39/47/27
f 39/48/28 58/49/28 11/50/28
f 11/51/28 14/52/28 10/53/28
f 14/52/29 9/54/29 10/53/29
f 43/1/30 42/1/30 41/1/30
f 45/1/2 50/1/2 44/1/2
f 49/1/1 48/1/1 53/1/1
f 47/1/1 49/1/1 53/1/1
f 45/1/1 44/1/1 43/1/1
f 45/1/1 43/1/1 41/1/1
f 26/1/2 47/1/2 53/1/2
f 25/1/1 26/1/1 53/1/1
f 1/1/1 45/1/1 41/1/1
f 1/1/31 41/1/31 40/1/31
f 25/1/1 53/1/1 15/1/1
f 22/1/32 23/1/32 24/1/32
f 24/1/1 25/1/1 15/1/1
f 1/1/33 40/1/33 39/1/33
f 39/1/34 11/1/34 10/1/34
f 9/1/35 8/1/35 3/1/35
f 1/1/1 39/1/1 10/1/1
f 1/1/2 10/1/2 9/1/2
f 22/1/1 24/1/1 15/1/1
f 19/1/36 20/1/36 22/1/36
f 19/1/1 22/1/1 15/1/1
f 1/1/1 9/1/1 3/1/1
f 1/1/2 3/1/2 2/1/2
f 21/1/1 19/1/1 15/1/1
f 18/1/1 21/1/1 15/1/1
f 15/1/1 1/1/1 2/1/1
f 15/1/37 2/1/37 6/1/37
f 17/1/1 18/1/1 15/1/1
f 16/1/1 17/1/1 15/1/1
f 15/1/2 6/1/2 5/1/2
f 15/1/1 5/1/1 4/1/1
f 7/1/1 16/1/1 15/1/1
f 51/1/1 50/1/1 45/1/1
f 45/1/1 53/1/1 48/1/1
f 52/1/1 51/1/1 45/1/1
f 62/1/38 63/1/38 46/1/38
f 66/1/38 54/1/38 56/1/38
f 66/1/38 56/1/38 55/1/38
f 61/1/38 62/1/38 46/1/38
f 60/1/38 61/1/38 46/1/38
f 66/1/38 55/1/38 29/1/38
f 66/1/38 29/1/38 28/1/38
f 57/1/38 60/1/38 46/1/38
f 59/1/38 57/1/38 46/1/38
f 27/1/38 66/1/38 28/1/38
f 27/1/38 28/1/38 38/1/38
f 59/1/38 46/1/38 12/1/38
f 58/1/39 59/1/39 12/1/39
f 27/1/38 38/1/38 37/1/38
f 27/1/38 37/1/38 36/1/38
f 14/1/3 58/1/3 12/1/3
f 13/1/38 14/1/38 12/1/38
f 12/1/38 27/1/38 36/1/38
f 12/1/40 36/1/40 34/1/40
f 35/1/38 13/1/38 12/1/38
f 30/1/38 35/1/38 12/1/38
f 12/1/38 34/1/38 32/1/38
f 12/1/38 32/1/38 33/1/38
f 31/1/3 30/1/3 12/1/3
f 66/1/38 46/1/38 63/1/38
f 66/1/38 63/1/38 64/1/38
f 65/1/38 54/1/38 66/1/38
f 45/1/4 1/1/4 12/1/4
f 1/1/5 15/1/5 27/1/5
f 27/1/6 15/1/6 53/1/6
f 53/1/7 45/1/7 46/1/7
f 8/2/41 9/55/41 13/3/41
f 3/56/42 8/57/42 35/4/42
f 35/4/43 30/8/43 6/5/43
f 2/6/44 3/56/44 35/4/44
f 31/9/45 4/58/45 5/7/45
f 5/7/46 6/59/46 30/8/46
f 4/10/47 31/9/47 33/11/47
f 33/13/12 32/15/12 16/14/12
f 32/15/48 34/60/48 17/16/48
f 17/16/49 34/60/49 36/17/49
f 21/20/50 18/18/50 36/17/50
f 36/17/51 37/61/51 38/19/51
f 19/21/52 21/62/52 38/22/52
f 28/25/53 23/63/53 22/24/53
f 22/24/16 20/64/16 38/22/16
f 25/28/2 24/65/2 23/26/2
f 23/26/54 28/25/54 29/27/54
f 29/27/55 55/31/55 26/29/55
f 47/30/56 26/29/56 55/31/56
f 55/31/57 56/66/57 49/32/57
f 48/35/58 49/67/58 56/33/58
f 56/33/59 54/68/59 65/34/59
f 65/34/22 64/37/22 52/36/22
f 64/37/23 63/69/23 51/38/23
f 44/40/60 50/70/60 51/38/60
f 51/38/61 63/69/61 62/39/61
f 61/42/26 42/71/26 43/41/26
f 43/41/62 44/40/62 62/39/62
f 60/43/26 41/72/26 42/44/26
f 40/45/63 41/72/63 60/73/63
f 57/46/64 59/74/64 39/47/64
f 40/45/65 60/73/65 57/46/65
f 39/48/66 59/74/66 58/49/66
f 11/51/28 58/49/28 14/52/28
f 14/52/29 13/75/29 9/54/29
