# Blender 5.2.0 LTS
# www.blender.org
o PROPOSED__RIGHT_INNER_UPPER_HEAD__UPPER_HEAD_ONLY_V8
v 34.543118 56.756687 151.391861
v 35.317963 62.513107 158.375366
v 35.448040 62.504383 158.716797
v 34.577328 63.696693 157.397614
v 34.425213 64.382851 157.574356
v 34.482826 64.046867 157.442566
v 34.408409 64.681747 157.783997
v 34.433563 64.923180 158.057205
v 34.498962 65.090714 158.375366
v 34.600147 65.172913 158.716797
v 34.849159 63.048580 157.574356
v 35.007961 62.794804 157.783997
v 35.167858 62.612164 158.057205
v 34.702278 63.356197 157.442566
v 35.549229 62.586586 159.058228
v 35.614628 62.754120 159.376389
v 35.639782 62.995560 159.649597
v 35.636105 63.060940 159.695465
v 34.730225 65.164192 159.058228
v 34.880329 65.065132 159.376389
v 35.040230 64.882492 159.649597
v 35.622978 63.294453 159.859238
v 35.565365 63.630436 159.991028
v 35.470863 63.980606 160.035980
v 35.345913 64.321098 159.991028
v 35.199032 64.628716 159.859238
v 27.995705 73.131271 147.785690
v 32.306263 74.500900 146.178452
v 32.449619 78.562073 164.358841
v 38.853672 58.126308 149.784622
v 39.478416 63.981785 156.449966
v 38.887886 65.066322 155.790375
v 38.793385 65.416489 155.835327
v 39.159714 64.418205 155.967117
v 39.318516 64.164429 156.176758
v 39.012833 64.725822 155.835327
v 38.735767 65.752472 155.967117
v 38.718964 66.051369 156.176758
v 38.744122 66.292809 156.449966
v 38.809521 66.460335 156.768127
v 39.628521 63.882729 156.768127
v 38.572952 61.670399 166.387024
v 38.942150 62.324738 167.934784
v 38.910706 66.542542 157.109558
v 39.040783 66.533821 157.450989
v 39.190887 66.434761 157.769150
v 39.350788 66.252121 158.042358
v 39.758598 63.874004 157.109558
v 39.859783 63.956211 157.450989
v 39.925182 64.123741 157.769150
v 39.950340 64.365181 158.042358
v 39.933537 64.664078 158.251999
v 39.875919 65.000061 158.383789
v 39.781422 65.350227 158.428741
v 39.707230 65.552399 158.402054
v 39.656471 65.690727 158.383789
v 39.509590 65.998344 158.251999
v 41.595196 63.013023 166.996262
v 43.307583 63.557110 166.357773
v 36.760174 79.931702 162.751602
vn -0.8980 -0.2854 0.3349
vn -0.8980 -0.2853 0.3348
vn 0.8980 0.2853 -0.3348
vn 0.3637 -0.9097 0.2003
vn 0.2474 0.3017 0.9207
vn -0.3637 0.9097 -0.2003
vn -0.2474 -0.3017 -0.9207
vn 0.3369 -0.8934 0.2973
vn -0.2769 -0.2249 -0.9342
vn -0.1790 -0.4584 -0.8705
vn -0.0689 -0.6606 -0.7476
vn 0.0460 -0.8178 -0.5736
vn 0.1576 -0.9193 -0.3606
vn 0.2586 -0.9581 -0.1230
vn 0.3419 -0.9317 0.1230
vn 0.4019 -0.8417 0.3606
vn 0.4345 -0.6944 0.5736
vn 0.4375 -0.4997 0.7476
vn 0.4107 -0.2711 0.8705
vn 0.3559 -0.0239 0.9342
vn 0.2769 0.2249 0.9342
vn 0.1790 0.4584 0.8705
vn 0.0688 0.6606 0.7476
vn -0.0460 0.8178 0.5736
vn -0.1577 0.9193 0.3606
vn -0.2586 0.9581 0.1230
vn -0.3419 0.9317 -0.1230
vn -0.4019 0.8417 -0.3606
vn -0.4345 0.6944 -0.5736
vn -0.4375 0.4997 -0.7476
vn -0.4107 0.2710 -0.8705
vn -0.3559 0.0239 -0.9342
vn -0.8980 -0.2853 0.3349
vn -0.8980 -0.2854 0.3348
vn -0.8981 -0.2853 0.3348
vn 0.8980 0.2853 -0.3349
vn 0.8980 0.2854 -0.3348
vn 0.8980 0.2854 -0.3349
vn -0.2768 -0.2249 -0.9342
vn -0.2769 -0.2250 -0.9342
vn -0.1789 -0.4584 -0.8706
vn -0.0688 -0.6606 -0.7476
vn 0.1577 -0.9193 -0.3606
vn 0.4107 -0.2710 0.8706
vn 0.1789 0.4584 0.8705
vn 0.0689 0.6606 0.7476
vn -0.1576 0.9193 0.3606
vn -0.4376 0.4999 -0.7474
vn -0.4107 0.2711 -0.8705
vt 0.000000 0.000000
vt 0.975260 0.796875
vt 1.000000 0.796875
vt 1.000000 0.609375
vt 0.916667 0.609375
vt 0.958333 0.796875
vt 0.958333 0.609375
vt 0.875000 0.609375
vt 0.916667 0.796875
vt 0.833333 0.609375
vt 0.875000 0.796875
vt 0.791667 0.609375
vt 0.833333 0.796875
vt 0.750000 0.609375
vt 0.791667 0.796875
vt 0.708333 0.609375
vt 0.750000 0.796875
vt 0.666667 0.796875
vt 0.708333 0.796875
vt 0.625000 0.796875
vt 0.666667 0.609375
vt 0.625000 0.609375
vt 0.583333 0.609375
vt 0.541666 0.609375
vt 0.583333 0.796875
vt 0.500000 0.609375
vt 0.541666 0.796875
vt 0.458333 0.609375
vt 0.500000 0.796875
vt 0.416666 0.609375
vt 0.458333 0.796875
vt 0.375000 0.796875
vt 0.375000 0.609375
vt 0.333333 0.609375
vt 0.333333 0.796875
vt 0.291667 0.796875
vt 0.291667 0.609375
vt 0.250000 0.609375
vt 0.208333 0.609375
vt 0.249998 0.796875
vt 0.166666 0.609375
vt 0.208334 0.796875
vt 0.125000 0.609375
vt 0.166666 0.796875
vt 0.125000 0.796875
vt 0.115885 0.609375
vt 0.083333 0.796875
vt 0.041666 0.609375
vt 0.083333 0.609375
vt -0.000000 0.796875
vt -0.000000 0.609375
vt 0.416666 0.796875
vt 0.250000 0.796875
vt 0.208333 0.796875
vt 0.041666 0.796875
s 0
f 9/1/1 10/1/1 29/1/1
f 42/1/2 17/1/2 16/1/2
f 30/1/3 35/1/3 31/1/3
f 60/1/3 57/1/3 47/1/3
f 59/1/4 58/1/4 42/1/4
f 58/1/5 59/1/5 60/1/5
f 28/1/6 29/1/6 60/1/6
f 30/1/7 27/1/7 28/1/7
f 42/1/8 58/1/8 43/1/8
f 55/2/9 54/3/9 24/4/9
f 26/5/10 56/6/10 25/7/10
f 21/8/11 57/9/11 26/5/11
f 20/10/12 47/11/12 21/8/12
f 19/12/13 46/13/13 20/10/13
f 10/14/14 45/15/14 19/12/14
f 9/16/15 44/17/15 10/14/15
f 9/16/16 39/18/16 40/19/16
f 38/20/17 8/21/17 7/22/17
f 5/23/18 38/20/18 7/22/18
f 6/24/19 37/25/19 5/23/19
f 4/26/20 33/27/20 6/24/20
f 14/28/21 32/29/21 4/26/21
f 11/30/22 36/31/22 14/28/22
f 35/32/23 11/30/23 12/33/23
f 35/32/24 13/34/24 31/35/24
f 41/36/25 13/34/25 2/37/25
f 3/38/26 41/36/26 2/37/26
f 15/39/27 48/40/27 3/38/27
f 16/41/28 49/42/28 15/39/28
f 17/43/29 50/44/29 16/41/29
f 51/45/30 18/46/30 52/47/30
f 23/48/31 52/47/31 22/49/31
f 54/50/32 23/48/32 24/51/32
f 29/1/2 27/1/2 9/1/2
f 27/1/2 1/1/2 6/1/2
f 5/1/33 27/1/33 6/1/33
f 1/1/33 3/1/33 2/1/33
f 1/1/34 2/1/34 13/1/34
f 42/1/2 43/1/2 26/1/2
f 43/1/2 29/1/2 26/1/2
f 42/1/2 25/1/2 24/1/2
f 22/1/2 18/1/2 42/1/2
f 23/1/33 22/1/33 42/1/33
f 1/1/2 13/1/2 12/1/2
f 1/1/1 12/1/1 11/1/1
f 23/1/2 42/1/2 24/1/2
f 25/1/2 42/1/2 26/1/2
f 1/1/2 11/1/2 14/1/2
f 1/1/33 14/1/33 4/1/33
f 1/1/35 4/1/35 6/1/35
f 21/1/2 26/1/2 29/1/2
f 20/1/1 21/1/1 29/1/1
f 27/1/2 5/1/2 7/1/2
f 27/1/2 7/1/2 8/1/2
f 19/1/2 20/1/2 29/1/2
f 10/1/2 19/1/2 29/1/2
f 27/1/2 8/1/2 9/1/2
f 15/1/2 3/1/2 1/1/2
f 42/1/1 18/1/1 17/1/1
f 16/1/2 15/1/2 42/1/2
f 15/1/2 1/1/2 42/1/2
f 28/1/36 45/1/36 44/1/36
f 28/1/3 44/1/3 40/1/3
f 54/1/3 55/1/3 59/1/3
f 53/1/3 54/1/3 59/1/3
f 28/1/36 40/1/36 39/1/36
f 28/1/3 39/1/3 38/1/3
f 52/1/3 53/1/3 59/1/3
f 51/1/3 52/1/3 59/1/3
f 30/1/3 28/1/3 33/1/3
f 28/1/36 38/1/36 37/1/36
f 28/1/37 37/1/37 33/1/37
f 50/1/3 51/1/3 59/1/3
f 49/1/3 50/1/3 59/1/3
f 30/1/3 33/1/3 32/1/3
f 49/1/3 59/1/3 30/1/3
f 48/1/3 49/1/3 30/1/3
f 30/1/36 32/1/36 36/1/36
f 30/1/3 36/1/3 34/1/3
f 41/1/37 48/1/37 30/1/37
f 31/1/3 41/1/3 30/1/3
f 30/1/38 34/1/38 35/1/38
f 45/1/3 28/1/3 60/1/3
f 60/1/3 59/1/3 57/1/3
f 59/1/37 55/1/37 56/1/37
f 59/1/37 56/1/37 57/1/37
f 46/1/3 45/1/3 60/1/3
f 47/1/3 46/1/3 60/1/3
f 42/1/4 1/1/4 30/1/4
f 30/1/4 59/1/4 42/1/4
f 60/1/5 29/1/5 58/1/5
f 29/1/5 43/1/5 58/1/5
f 28/1/6 27/1/6 29/1/6
f 30/1/7 1/1/7 27/1/7
f 24/4/39 25/7/39 55/2/39
f 25/7/40 56/6/40 55/2/40
f 26/5/41 57/9/41 56/6/41
f 21/8/42 47/11/42 57/9/42
f 20/10/12 46/13/12 47/11/12
f 19/12/43 45/15/43 46/13/43
f 10/14/14 44/17/14 45/15/14
f 9/16/15 40/19/15 44/17/15
f 9/16/16 8/21/16 39/18/16
f 38/20/17 39/18/17 8/21/17
f 5/23/18 37/25/18 38/20/18
f 6/24/44 33/27/44 37/25/44
f 4/26/20 32/29/20 33/27/20
f 14/28/21 36/31/21 32/29/21
f 11/30/45 34/52/45 36/31/45
f 35/32/46 34/52/46 11/30/46
f 35/32/24 12/33/24 13/34/24
f 41/36/47 31/35/47 13/34/47
f 3/38/26 48/53/26 41/36/26
f 15/39/27 49/54/27 48/40/27
f 16/41/28 50/44/28 49/42/28
f 17/43/29 51/45/29 50/44/29
f 17/43/48 18/46/48 51/45/48
f 18/46/30 22/49/30 52/47/30
f 23/48/49 53/55/49 52/47/49
f 54/50/32 53/55/32 23/48/32
