# Blender 5.2.0 LTS
# www.blender.org
o PROPOSED__RIGHT_INNER_UPPER_EYE__UPPER_HEAD_ONLY_V8
v 39.123089 58.211918 149.684158
v 39.897938 63.968334 156.667664
v 40.028015 63.959614 157.009094
v 40.069122 63.993008 157.147797
v 39.208061 65.013596 155.708176
v 39.157303 65.151924 155.689911
v 39.028591 65.701584 155.813110
v 39.005184 65.838074 155.866653
v 38.995209 66.015549 155.991119
v 39.062801 65.502090 155.734863
v 38.988380 66.136971 156.076294
v 39.013538 66.378410 156.349503
v 39.078938 66.545937 156.667664
v 39.180122 66.628143 157.009094
v 39.429131 64.503807 155.866653
v 39.587933 64.250031 156.076294
v 39.747833 64.067390 156.349503
v 39.282249 64.811424 155.734863
v 40.129200 64.041817 157.350525
v 40.155769 64.109879 157.479782
v 40.194599 64.209351 157.668686
v 40.219757 64.450790 157.941895
v 39.310200 66.619423 157.350525
v 39.460304 66.520363 157.668686
v 39.620205 66.337723 157.941895
v 39.555244 66.411926 157.830902
v 39.714493 66.187042 158.066376
v 40.202953 64.749680 158.151535
v 40.145336 65.085663 158.283325
v 40.106949 65.227921 158.301590
v 40.050838 65.435837 158.328278
v 39.925888 65.776329 158.283325
v 39.866219 65.901299 158.229782
v 39.779007 66.083946 158.151535
v 40.000076 65.574158 158.310013
v 32.575680 74.586502 146.077988
v 36.886234 75.956131 144.470749
v 37.029591 80.017303 162.651138
v 43.433643 59.581539 148.076920
v 44.058388 65.437012 154.742264
v 43.467854 66.521545 154.082672
v 43.373356 66.871719 154.127625
v 43.739685 65.873436 154.259415
v 43.898487 65.619652 154.469055
v 43.592804 66.181046 154.127625
v 43.315739 67.207695 154.259415
v 43.312065 67.273079 154.305267
v 43.298935 67.506592 154.469055
v 43.304440 67.559410 154.528824
v 43.324093 67.748032 154.742264
v 43.338398 67.784683 154.811859
v 43.389492 67.915558 155.060425
v 44.208492 65.337959 155.060425
v 43.577000 63.642719 166.257309
v 43.490677 67.997765 155.401855
v 43.620754 67.989044 155.743286
v 43.770859 67.889984 156.061447
v 43.930759 67.707344 156.334656
v 44.338570 65.329231 155.401855
v 44.439754 65.411438 155.743286
v 44.505154 65.578972 156.061447
v 44.530312 65.820404 156.334656
v 44.513508 66.119301 156.544296
v 44.455891 66.455284 156.676086
v 44.382065 66.728851 156.711197
v 44.361393 66.805450 156.721039
v 44.236443 67.145950 156.676086
v 44.089561 67.453568 156.544296
v 47.887554 65.012344 164.650070
v 41.340145 81.386932 161.043900
vn 0.8980 0.2854 -0.3348
vn 0.8980 0.2853 -0.3349
vn -0.8981 -0.2853 0.3348
vn -0.8980 -0.2854 0.3348
vn -0.3637 0.9097 -0.2003
vn -0.2474 -0.3017 -0.9207
vn 0.3637 -0.9097 0.2003
vn 0.2474 0.3017 0.9207
vn 0.2769 0.2249 0.9342
vn 0.1789 0.4584 0.8706
vn 0.0688 0.6606 0.7476
vn -0.1576 0.9193 0.3606
vn -0.2586 0.9581 0.1230
vn -0.3419 0.9317 -0.1230
vn -0.8980 -0.2854 0.3347
vn -0.4167 0.6999 -0.5801
vn -0.8981 -0.2851 0.3349
vn -0.4284 0.6468 -0.6310
vn -0.4376 0.4997 -0.7475
vn -0.3559 0.0239 -0.9342
vn -0.2769 -0.2249 -0.9342
vn -0.1789 -0.4584 -0.8705
vn -0.0865 -0.6661 -0.7408
vn 0.1576 -0.9193 -0.3606
vn 0.1577 -0.9193 -0.3606
vn 0.2586 -0.9581 -0.1230
vn 0.3419 -0.9317 0.1230
vn 0.3419 -0.9317 0.1229
vn 0.4375 -0.4997 0.7475
vn 0.4198 -0.5053 0.7540
vn 0.3559 -0.0239 0.9342
vn 0.8980 0.2853 -0.3348
vn 0.8980 0.2854 -0.3349
vn 0.8981 0.2853 -0.3348
vn 0.8980 0.2855 -0.3349
vn 0.8981 0.2853 -0.3349
vn -0.8980 -0.2853 0.3348
vn -0.8980 -0.2853 0.3350
vn -0.8980 -0.2854 0.3349
vn -0.8980 -0.2853 0.3349
vn 0.2768 0.2250 0.9342
vn 0.3559 -0.0240 0.9342
vn 0.1789 0.4584 0.8705
vn 0.0689 0.6606 0.7476
vn -0.0460 0.8178 0.5736
vn -0.0459 0.8179 0.5736
vn -0.1577 0.9193 0.3606
vn -0.0459 0.8178 0.5736
vn -0.4019 0.8417 -0.3605
vn -0.4374 0.4997 -0.7476
vn -0.4375 0.4998 -0.7475
vn -0.4195 0.8359 -0.3538
vn -0.4107 0.2711 -0.8705
vn -0.4107 0.2710 -0.8706
vn -0.2769 -0.2250 -0.9342
vn -0.4107 0.2710 -0.8705
vn 0.0637 -0.8120 -0.5801
vn -0.0689 -0.6606 -0.7476
vn 0.0460 -0.8178 -0.5736
vn 0.4019 -0.8417 0.3606
vn 0.4345 -0.6944 0.5736
vn 0.4019 -0.8417 0.3607
vn 0.4283 -0.2654 0.8638
vn 0.4107 -0.2710 0.8706
vn 0.3560 -0.0239 0.9342
vt 0.000000 0.000000
vt 1.000000 0.890625
vt 0.958333 0.890625
vt 0.983073 0.703125
vt 0.958333 0.703125
vt 0.982231 0.703125
vt 0.916667 0.703125
vt 0.940563 0.703125
vt 0.916667 0.890625
vt 0.875000 0.703125
vt 0.898898 0.703125
vt 0.875000 0.890625
vt 0.791667 0.890625
vt 0.833335 0.703125
vt 0.833333 0.890625
vt 0.791667 0.703125
vt 0.750000 0.890625
vt 0.750000 0.703125
vt 0.749998 0.703125
vt 0.708333 0.890625
vt 0.666667 0.890625
vt 0.598232 0.890624
vt 0.675781 0.890625
vt 0.626422 0.703125
vt 0.666668 0.703125
vt 0.592447 0.890625
vt 0.633805 0.890625
vt 0.625000 0.890625
vt 0.625000 0.703125
vt 0.673141 0.890625
vt 0.583333 0.703125
vt 0.607230 0.703125
vt 0.583333 0.890625
vt 0.500000 0.890625
vt 0.541666 0.703125
vt 0.541666 0.890625
vt 0.483072 0.703125
vt 0.458333 0.890625
vt 0.416666 0.703125
vt 0.416666 0.890625
vt 0.334753 0.703125
vt 0.375000 0.890625
vt 0.333333 0.703125
vt 0.333333 0.890625
vt 0.293087 0.703125
vt 0.291667 0.703125
vt 0.291667 0.890625
vt 0.250000 0.703125
vt 0.233072 0.703125
vt 0.250000 0.890625
vt 0.208333 0.890625
vt 0.208332 0.703125
vt 0.232231 0.703125
vt 0.084752 0.703125
vt 0.125000 0.703125
vt 0.125000 0.890625
vt 0.043086 0.703125
vt 0.083333 0.890625
vt 0.041666 0.703125
vt 0.041666 0.890625
vt 0.025317 0.703125
vt 0.009115 0.890625
vt 0.024739 0.703125
vt 1.000000 0.703125
vt 1.008804 0.890625
vt 0.941406 0.703125
vt 0.899740 0.703125
vt 0.858072 0.703125
vt 0.857230 0.703125
vt 0.668086 0.703125
vt 0.708332 0.703125
vt 0.665248 0.890625
vt 0.608073 0.703125
vt 0.701331 0.890625
vt 0.566406 0.703125
vt 0.483650 0.703125
vt 0.500000 0.703125
vt 0.565562 0.703125
vt 0.418086 0.703125
vt 0.458333 0.703125
vt 0.340335 0.703126
vt 0.376420 0.703126
vt 0.166666 0.890625
vt 0.191405 0.703125
vt 0.166666 0.703125
vt 0.190565 0.703125
vt 0.048665 0.703124
vt -0.000000 0.703125
s 0
f 28/1/1 29/1/1 54/1/1
f 9/1/2 8/1/2 36/1/2
f 39/1/3 41/1/3 42/1/3
f 69/1/4 67/1/4 66/1/4
f 39/1/5 54/1/5 69/1/5
f 38/1/6 69/1/6 54/1/6
f 36/1/7 70/1/7 38/1/7
f 1/1/8 37/1/8 36/1/8
f 66/2/9 67/3/9 35/4/9
f 32/5/9 35/6/9 67/3/9
f 34/7/10 33/8/10 68/9/10
f 25/10/11 27/11/11 58/12/11
f 56/13/12 24/14/12 57/15/12
f 23/16/13 55/17/13 14/18/13
f 14/19/14 55/17/14 52/20/14
f 50/21/15 47/22/15 51/23/15
f 11/24/16 12/25/16 52/20/16
f 47/26/17 49/27/17 48/28/17
f 11/29/18 51/30/18 47/26/18
f 8/31/19 9/32/19 46/33/19
f 41/34/20 10/35/20 42/36/20
f 5/37/21 41/34/21 45/38/21
f 15/39/22 45/38/22 43/40/22
f 17/41/23 43/40/23 44/42/23
f 17/43/24 40/44/24 2/45/24
f 2/46/25 40/44/25 53/47/25
f 53/47/26 3/48/26 2/46/26
f 4/49/27 59/50/27 60/51/27
f 19/52/28 4/53/28 60/51/28
f 28/54/29 22/55/29 62/56/29
f 29/57/30 62/56/30 63/58/30
f 29/59/31 64/60/31 30/61/31
f 65/62/31 30/63/31 64/60/31
f 54/1/32 1/1/32 21/1/32
f 54/1/32 21/1/32 22/1/32
f 31/1/1 35/1/1 54/1/1
f 30/1/2 31/1/2 54/1/2
f 54/1/32 22/1/32 28/1/32
f 29/1/33 30/1/33 54/1/33
f 6/1/2 5/1/2 1/1/2
f 5/1/2 18/1/2 1/1/2
f 54/1/32 35/1/32 32/1/32
f 36/1/32 38/1/32 13/1/32
f 38/1/32 54/1/32 34/1/32
f 25/1/34 38/1/34 27/1/34
f 20/1/35 21/1/35 1/1/35
f 19/1/1 20/1/1 1/1/1
f 54/1/2 32/1/2 33/1/2
f 54/1/1 33/1/1 34/1/1
f 4/1/36 19/1/36 1/1/36
f 3/1/34 4/1/34 1/1/34
f 34/1/2 27/1/2 38/1/2
f 2/1/33 3/1/33 1/1/33
f 17/1/1 2/1/1 1/1/1
f 38/1/33 25/1/33 26/1/33
f 38/1/34 26/1/34 24/1/34
f 16/1/32 17/1/32 1/1/32
f 15/1/1 16/1/1 1/1/1
f 38/1/32 24/1/32 23/1/32
f 38/1/2 23/1/2 14/1/2
f 15/1/32 1/1/32 18/1/32
f 1/1/32 36/1/32 10/1/32
f 6/1/32 1/1/32 10/1/32
f 38/1/32 14/1/32 13/1/32
f 36/1/32 13/1/32 12/1/32
f 36/1/32 12/1/32 11/1/32
f 7/1/32 10/1/32 36/1/32
f 8/1/1 7/1/1 36/1/1
f 36/1/1 11/1/1 9/1/1
f 70/1/37 37/1/37 52/1/37
f 37/1/37 39/1/37 42/1/37
f 47/1/38 37/1/38 46/1/38
f 69/1/39 66/1/39 65/1/39
f 69/1/40 65/1/40 64/1/40
f 68/1/39 67/1/39 70/1/39
f 58/1/37 68/1/37 70/1/37
f 69/1/37 64/1/37 63/1/37
f 69/1/40 63/1/40 62/1/40
f 57/1/40 58/1/40 70/1/40
f 56/1/37 57/1/37 70/1/37
f 69/1/40 62/1/40 61/1/40
f 69/1/4 61/1/4 60/1/4
f 55/1/37 56/1/37 70/1/37
f 52/1/37 55/1/37 70/1/37
f 39/1/37 69/1/37 60/1/37
f 39/1/37 60/1/37 59/1/37
f 51/1/37 52/1/37 37/1/37
f 48/1/37 49/1/37 37/1/37
f 49/1/40 50/1/40 37/1/40
f 50/1/39 51/1/39 37/1/39
f 39/1/37 59/1/37 53/1/37
f 39/1/40 53/1/40 40/1/40
f 47/1/4 48/1/4 37/1/4
f 39/1/37 40/1/37 44/1/37
f 39/1/37 44/1/37 43/1/37
f 46/1/37 37/1/37 42/1/37
f 39/1/37 43/1/37 45/1/37
f 39/1/39 45/1/39 41/1/39
f 69/1/37 70/1/37 67/1/37
f 39/1/5 1/1/5 54/1/5
f 38/1/6 70/1/6 69/1/6
f 36/1/7 37/1/7 70/1/7
f 1/1/8 39/1/8 37/1/8
f 35/4/41 31/64/41 66/2/41
f 31/64/42 65/65/42 66/2/42
f 68/9/10 33/66/10 67/3/10
f 33/66/43 32/5/43 67/3/43
f 58/12/44 27/67/44 68/9/44
f 27/67/11 34/7/11 68/9/11
f 57/15/45 26/68/45 58/12/45
f 26/68/46 25/10/46 58/12/46
f 23/16/47 24/14/47 56/13/47
f 24/14/48 26/69/48 57/15/48
f 23/16/13 56/13/13 55/17/13
f 12/70/49 13/71/49 52/20/49
f 13/71/14 14/19/14 52/20/14
f 47/26/40 50/72/40 49/27/40
f 46/33/50 9/73/50 47/26/50
f 9/73/51 11/29/51 47/26/51
f 11/29/52 52/74/52 51/30/52
f 42/36/53 7/75/53 46/33/53
f 7/75/54 8/31/54 46/33/54
f 41/34/55 5/76/55 6/77/55
f 6/77/20 10/35/20 41/34/20
f 10/35/56 7/78/56 42/36/56
f 15/79/22 18/80/22 45/38/22
f 18/80/21 5/37/21 45/38/21
f 43/40/57 17/81/57 16/82/57
f 16/82/58 15/39/58 43/40/58
f 17/43/59 44/42/59 40/44/59
f 53/47/26 59/50/26 3/48/26
f 4/49/28 3/48/28 59/50/28
f 61/83/60 20/84/60 60/51/60
f 20/84/60 19/52/60 60/51/60
f 22/55/61 21/85/61 62/56/61
f 21/85/62 20/86/62 61/83/62
f 62/56/61 21/85/61 61/83/61
f 62/56/63 29/87/63 28/54/63
f 29/59/64 63/58/64 64/60/64
f 65/62/65 31/88/65 30/63/65
