# Blender 5.2.0 LTS
# www.blender.org
o V11_LOWER_COMPONENT_013
v 19.617001 42.842999 142.132507
v 20.215500 0.550500 92.482498
v 30.778500 10.605000 82.413002
v 33.346500 50.113499 126.394501
v 43.960499 63.055500 165.889496
v 18.346378 44.023026 141.649750
v 18.771383 1.359809 91.775711
v 29.380125 11.472342 81.683434
v 32.129272 51.344376 125.901245
v 42.943111 64.525711 165.681137
vn 0.8023 -0.4496 0.3927
vn 0.7500 -0.5132 0.4172
vn 0.5652 -0.8168 0.1158
vn -0.8022 0.4503 -0.3920
vn -0.7495 0.5141 -0.4170
vn -0.5664 0.8159 -0.1164
vn -0.5969 -0.6143 0.5161
vn -0.0430 -0.6828 -0.7293
vn 0.7085 0.5017 -0.4964
vn -0.5496 -0.2681 0.7912
vn 0.7870 0.4918 -0.3726
vn -0.6905 -0.5526 0.4668
vn -0.0327 -0.6899 -0.7232
vn 0.6288 0.5599 -0.5396
vn -0.5495 -0.2682 0.7913
vn 0.7286 0.5660 -0.3856
s 0
f 1//1 2//1 3//1
f 1//2 3//2 4//2
f 1//3 4//3 5//3
f 6//4 8//4 7//4
f 6//5 9//5 8//5
f 6//6 10//6 9//6
f 1//7 7//7 2//7
f 3//8 7//8 8//8
f 4//9 8//9 9//9
f 1//10 10//10 6//10
f 4//11 10//11 5//11
f 1//12 6//12 7//12
f 3//13 2//13 7//13
f 4//14 3//14 8//14
f 1//15 5//15 10//15
f 4//16 9//16 10//16
