# Blender 5.2.0 LTS
# www.blender.org
o V11_LOWER_COMPONENT_044
v 36.749702 48.425171 120.982460
v 37.452007 50.035721 121.937912
v 34.369339 51.025265 118.349319
v 74.419792 53.556644 84.643166
v 76.800156 50.956551 87.276306
v 77.502464 52.567101 88.231758
vn 0.7642 0.0483 -0.6432
vn -0.7642 -0.0483 0.6432
vn 0.5410 -0.5909 0.5984
vn -0.3512 -0.8053 -0.4777
vn 0.0958 0.9776 0.1873
s 0
f 4//1 6//1 5//1
f 1//2 2//2 3//2
f 6//3 1//3 5//3
f 5//4 3//4 4//4
f 3//5 6//5 4//5
f 6//3 2//3 1//3
f 5//4 1//4 3//4
f 3//5 2//5 6//5
