# Blender 5.2.0 LTS
# www.blender.org
o V11_LOWER_COMPONENT_053
v 88.644287 155.116867 55.263813
v 84.100304 155.772064 58.808235
v 85.784142 183.335434 46.380806
v 81.240158 183.990631 49.925224
v 88.239998 184.507263 49.312626
v 89.439407 156.166122 58.340977
v 90.422318 155.965271 57.386436
v 91.059639 156.688293 58.069839
vn -0.0962 0.9494 -0.2989
vn 0.0962 -0.9494 0.2989
vn 0.7834 -0.1130 -0.6111
vn -0.6140 -0.2930 -0.7330
vn 0.0606 0.3053 0.9503
vn 0.3398 -0.7867 0.5154
vn 0.7834 -0.1129 -0.6111
s 0
f 3//1 4//1 5//1
f 1//2 6//2 2//2
f 1//3 5//3 8//3
f 1//4 4//4 3//4
f 4//5 6//5 8//5
f 6//6 7//6 8//6
f 1//2 7//2 6//2
f 8//7 7//7 1//7
f 1//3 3//3 5//3
f 1//4 2//4 4//4
f 8//5 5//5 4//5
f 4//5 2//5 6//5
