# Blender 5.2.0 LTS
# www.blender.org
o V11_LOWER_COMPONENT_001
v -1.351500 20.353500 24.058500
v -1.127317 21.572918 25.363400
v 0.000000 39.511951 1.712933
v 0.000000 40.064999 0.000000
v 0.175000 64.890411 23.798746
v 0.925000 65.467361 24.615522
v 4.675000 64.890411 23.798746
v 3.925000 65.467361 24.615522
v 0.523190 69.308830 11.322545
v 0.175000 68.577393 12.379194
v 0.523190 71.517815 12.035752
v 4.305793 69.352982 11.258765
v 4.305793 71.695305 12.015021
v 4.675000 68.577393 12.379194
v 0.523190 92.930779 18.949274
v 4.305793 91.988243 18.566925
v 0.175000 74.789558 21.511862
v 0.175000 73.587479 22.009779
v 0.175000 73.218964 22.561298
v 0.175000 73.089561 23.211861
v 0.175000 73.218964 23.862423
v 0.175000 74.139000 21.641266
v 0.175000 75.440117 21.641266
v 0.175000 73.587479 24.413942
v 0.175000 74.139000 24.782455
v 0.175000 74.789558 24.911861
v 0.175000 75.440117 24.782455
v 0.925000 70.225510 26.151766
v 0.175000 75.991638 22.009779
v 0.175000 76.360153 22.561298
v 0.175000 76.489555 23.211861
v 0.175000 76.360153 23.862423
v 0.175000 75.991638 24.413942
v 4.675000 74.789558 21.511860
v 4.675000 73.587479 22.009779
v 4.675000 73.218964 22.561298
v 4.675000 73.089561 23.211861
v 4.675000 73.218964 23.862423
v 4.675000 74.139000 21.641266
v 4.675000 75.440117 21.641266
v 3.925000 70.225510 26.151766
v 4.675000 73.587479 24.413942
v 4.675000 74.139000 24.782455
v 4.675000 74.789558 24.911860
v 4.675000 75.440117 24.782455
v 4.675000 75.991638 22.009779
v 4.675000 76.360153 22.561298
v 4.675000 76.489555 23.211861
v 4.675000 76.360153 23.862423
v 4.675000 75.991638 24.413942
v 0.175000 97.171883 28.738356
v 4.675000 97.171883 28.738354
v 0.175000 95.601288 29.787792
v 0.175000 95.969803 29.236273
v 0.175000 96.521324 28.867760
v 0.175000 95.471886 30.438354
v 0.175000 95.601288 31.088917
v 0.175000 95.969803 31.640436
v 0.175000 96.521324 32.008949
v 0.175000 97.822441 28.867760
v 0.175000 98.373962 29.236273
v 0.175000 98.742477 29.787792
v 0.175000 98.871880 30.438354
v 0.175000 98.742477 31.088917
v 0.175000 97.171883 32.138355
v 0.175000 97.822441 32.008949
v 0.175000 98.373962 31.640436
v 0.925000 99.155029 35.492134
v 4.675000 95.601288 29.787792
v 4.675000 95.969803 29.236273
v 4.675000 96.521324 28.867760
v 4.675000 95.471886 30.438354
v 4.675000 95.601288 31.088917
v 4.675000 95.969803 31.640436
v 4.675000 96.521324 32.008949
v 4.675000 97.822441 28.867760
v 4.675000 98.373962 29.236273
v 4.675000 98.742477 29.787792
v 4.675000 98.871880 30.438354
v 4.675000 98.742477 31.088917
v 4.675000 97.171883 32.138355
v 4.675000 97.822441 32.008949
v 4.675000 98.373962 31.640436
v 3.925000 99.155029 35.492134
v 0.523190 108.570381 23.998774
v 0.175000 108.545822 25.283648
v 4.305793 108.571861 23.921217
v 4.675000 108.545822 25.283648
v 0.175000 104.858841 36.703197
v 0.925000 103.913177 37.028378
v 3.925000 103.913177 37.028378
v 4.675000 104.858841 36.703197
v 0.522829 118.732559 27.281139
v 0.175000 118.001884 28.336695
v 4.326503 118.733963 27.279112
v 4.675000 118.001884 28.336695
v 0.175000 123.011971 37.967278
v 0.175000 123.563492 37.598763
v 0.175000 124.214050 37.469357
v 0.175000 124.864609 37.598763
v 0.175000 125.416130 37.967278
v 4.675000 123.011971 37.967274
v 4.675000 123.563492 37.598763
v 4.675000 124.214050 37.469357
v 4.675000 124.864609 37.598763
v 4.675000 125.416130 37.967274
v 0.175000 114.314903 39.756245
v 0.925000 114.891846 40.573017
v 3.925000 114.891846 40.573017
v 4.675000 114.314903 39.756245
v 0.175000 122.643456 38.518795
v 0.175000 122.514053 39.169357
v 0.175000 122.643456 39.819920
v 0.175000 123.011971 40.371441
v 0.175000 123.563492 40.739952
v 0.175000 125.784645 38.518795
v 0.175000 125.914047 39.169357
v 0.175000 124.864609 40.739952
v 0.175000 125.784645 39.819920
v 0.175000 125.416130 40.371441
v 0.175000 124.214050 40.869358
v 0.925000 119.649994 42.109264
v 3.925000 119.649994 42.109264
v 4.675000 122.643456 38.518795
v 4.675000 122.514053 39.169357
v 4.675000 122.643456 39.819920
v 4.675000 123.011971 40.371437
v 4.675000 123.563492 40.739952
v 4.675000 125.784645 38.518795
v 4.675000 125.914047 39.169357
v 4.675000 124.864609 40.739952
v 4.675000 125.784645 39.819920
v 4.675000 125.416130 40.371437
v 4.675000 124.214050 40.869358
v 40.504501 16.551001 20.421000
v 39.628422 17.492376 21.680483
v 31.466999 40.064999 0.000000
v 31.600342 40.990150 1.538282
v 62.421608 24.493746 72.310959
v 58.491447 117.200005 22.418732
v 59.614498 116.390999 23.569500
v 29.985817 11.829962 81.358902
v 30.778500 10.605000 82.413002
v 33.346500 50.113499 126.394501
v 32.636982 51.546982 125.568840
v 0.175000 145.945816 44.825256
v 0.175000 145.394287 45.193771
v 0.175000 146.596375 44.695850
v 0.175000 147.246933 44.825256
v 0.175000 145.025772 45.745289
v 0.175000 144.896378 46.395851
v 0.175000 145.025772 47.046413
v 0.175000 145.394287 47.597935
v 0.175000 145.945816 47.966446
v 0.175000 147.246933 47.966446
v 0.175000 147.798462 45.193771
v 0.175000 148.166962 45.745289
v 0.175000 148.296371 46.395851
v 0.175000 148.166962 47.046413
v 0.175000 147.798462 47.597935
v 4.675000 145.945816 44.825256
v 4.675000 145.394287 45.193768
v 4.675000 146.596375 44.695850
v 4.675000 147.246933 44.825256
v 4.675000 145.025787 45.745289
v 4.675000 144.896378 46.395851
v 4.675000 145.025787 47.046413
v 4.675000 145.394287 47.597931
v 4.675000 145.945816 47.966446
v 4.675000 147.246933 47.966446
v 4.675000 147.798462 45.193768
v 4.675000 148.166977 45.745289
v 4.675000 148.296371 46.395851
v 4.675000 148.166977 47.046413
v 4.675000 147.798462 47.597931
v 0.175000 146.596375 48.095852
v 4.675000 146.596375 48.095852
v 0.521433 157.994751 39.962753
v 0.175000 157.970306 41.241146
v 4.327899 157.994797 39.960289
v 4.675000 157.970306 41.241146
v 0.175000 154.283325 52.660694
v 0.925000 153.337677 52.985874
v 4.675000 154.283325 52.660694
v 3.925000 153.337677 52.985874
v 0.000000 188.338501 47.872501
v 0.000000 188.338501 47.872501
v 0.000000 187.698990 49.555069
v 0.000000 187.785446 49.585434
v 0.175000 193.556519 53.086533
v 0.520351 194.334381 52.076778
v 4.675000 193.556519 53.086533
v 4.329144 194.335526 52.075298
v 0.175000 189.293152 64.303642
v 0.925000 189.827789 65.148727
v 0.175000 196.487854 62.441746
v 0.175000 197.039383 62.073231
v 0.175000 197.689941 61.943825
v 0.175000 198.340500 62.073231
v 0.175000 198.892029 62.441746
v 0.175000 196.119339 62.993263
v 0.175000 195.989944 63.643826
v 0.175000 196.119339 64.294388
v 0.175000 196.487854 64.845909
v 0.175000 197.039383 65.214424
v 0.175000 197.689941 65.343826
v 0.175000 199.260529 62.993263
v 0.175000 199.389938 63.643826
v 0.175000 199.260529 64.294388
v 0.175000 198.892029 64.845909
v 0.175000 198.340500 65.214424
v 0.925000 194.501587 66.925133
v 3.925000 189.827789 65.148727
v 4.675000 189.293152 64.303642
v 4.675000 196.487854 62.441742
v 4.675000 197.039383 62.073231
v 4.675000 197.689941 61.943825
v 4.675000 198.340500 62.073231
v 4.675000 198.892029 62.441742
v 3.925000 194.501587 66.925133
v 4.675000 196.119354 62.993263
v 4.675000 195.989944 63.643826
v 4.675000 196.119354 64.294388
v 4.675000 196.487854 64.845909
v 4.675000 197.039383 65.214417
v 4.675000 197.689941 65.343826
v 4.675000 199.260544 62.993263
v 4.675000 199.389938 63.643826
v 4.675000 199.260544 64.294388
v 4.675000 198.892029 64.845909
v 4.675000 198.340500 65.214417
v 0.175000 214.605835 69.327995
v 0.175000 214.237320 69.879517
v 0.175000 214.107925 70.530075
v 0.175000 214.237320 71.180634
v 0.175000 214.605835 71.732155
v 0.175000 215.157364 68.959480
v 0.175000 215.807922 68.830078
v 0.175000 216.458481 68.959480
v 0.175000 217.010010 69.327995
v 0.175000 215.157364 72.100670
v 0.175000 216.458481 72.100670
v 0.175000 217.378510 69.879517
v 0.175000 217.507919 70.530075
v 0.175000 217.378510 71.180634
v 0.175000 217.010010 71.732155
v 0.175000 215.807922 72.230072
v 4.675000 214.605835 69.327995
v 4.675000 214.237335 69.879517
v 4.675000 214.107925 70.530075
v 4.675000 214.237335 71.180634
v 4.675000 214.605835 71.732155
v 4.675000 215.157364 68.959480
v 4.675000 215.807922 68.830078
v 4.675000 216.458481 68.959480
v 4.675000 217.010010 69.327995
v 4.675000 215.157364 72.100670
v 4.675000 216.458481 72.100670
v 4.675000 217.378525 69.879517
v 4.675000 217.507919 70.530075
v 4.675000 217.378525 71.180634
v 4.675000 217.010010 71.732155
v 4.675000 215.807922 72.230072
v 0.520353 225.999252 64.111893
v 0.175000 225.910065 65.383408
v 0.000000 231.687424 65.801659
v 0.000000 233.274002 64.951500
v 0.000000 233.274002 64.951500
v 0.000000 232.634491 66.634064
v 4.329142 225.999390 64.110039
v 4.675000 225.910065 65.383408
v 0.175000 221.646698 76.600525
v 0.925000 220.685730 76.877159
v 3.925000 220.685730 76.877159
v 4.675000 221.646698 76.600525
v 30.000000 233.274002 64.951500
v 29.863813 232.060425 66.273880
v 0.175000 228.151642 87.193245
v 0.925000 228.000626 88.181778
v 0.175000 234.486877 92.435295
v 0.175000 235.038406 92.066780
v 0.175000 234.118362 92.986816
v 0.175000 233.988968 93.637375
v 0.175000 234.118362 94.287933
v 0.175000 234.486877 94.839455
v 0.175000 235.038406 95.207970
v 0.925000 230.362167 92.588943
v 3.925000 228.000626 88.181778
v 4.675000 228.151642 87.193245
v 3.925000 230.362167 92.588943
v 4.675000 234.486877 92.435295
v 4.675000 235.038406 92.066780
v 4.675000 234.118378 92.986816
v 4.675000 233.988968 93.637375
v 4.675000 234.118378 94.287933
v 4.675000 234.486877 94.839455
v 4.675000 235.038406 95.207970
v 0.175000 238.728851 81.525536
v 0.520802 239.980026 81.273575
v 0.520803 241.068863 83.305588
v 4.325385 239.993820 81.270798
v 4.675000 238.728851 81.525536
v 4.325385 241.094666 83.325211
v 0.175000 235.688965 91.937378
v 0.175000 236.339523 92.066780
v 0.175000 236.891052 92.435295
v 0.175000 237.259552 92.986816
v 0.175000 237.388962 93.637375
v 0.175000 237.259552 94.287933
v 0.175000 236.891052 94.839455
v 0.175000 235.688965 95.337372
v 0.175000 236.339523 95.207970
v 4.675000 235.688965 91.937378
v 4.675000 236.339523 92.066780
v 4.675000 236.891052 92.435295
v 4.675000 237.259567 92.986816
v 4.675000 237.388962 93.637375
v 4.675000 237.259567 94.287933
v 4.675000 236.891052 94.839455
v 4.675000 235.688965 95.337372
v 4.675000 236.339523 95.207970
v 0.520801 251.759644 103.256943
v 4.325387 251.684601 103.088371
v 0.175000 246.147110 112.798088
v 0.175000 246.797668 112.668686
v 0.175000 247.448227 112.798088
v 0.175000 245.595581 113.166603
v 0.175000 245.227066 113.718124
v 0.175000 245.097672 114.368683
v 0.175000 245.227066 115.019241
v 0.175000 247.999756 113.166603
v 0.175000 248.368256 113.718124
v 0.175000 248.497665 114.368683
v 0.175000 248.368256 115.019241
v 4.675000 246.147110 112.798088
v 4.675000 246.797668 112.668686
v 4.675000 247.448227 112.798088
v 4.675000 245.595581 113.166603
v 4.675000 245.227081 113.718124
v 4.675000 245.097672 114.368683
v 4.675000 245.227081 115.019241
v 4.675000 247.999756 113.166603
v 4.675000 248.368271 113.718124
v 4.675000 248.497665 114.368683
v 4.675000 248.368271 115.019241
v 0.175000 245.595581 115.570763
v 0.175000 246.147110 115.939278
v 0.175000 246.797668 116.068680
v 0.175000 247.448227 115.939278
v 0.175000 247.999756 115.570763
v 0.175000 247.988647 124.213432
v 0.925000 247.081924 123.791672
v 4.675000 245.595581 115.570763
v 4.675000 246.147110 115.939278
v 4.675000 246.797668 116.068680
v 4.675000 247.448227 115.939278
v 4.675000 247.999756 115.570763
v 3.925000 247.081924 123.791672
v 4.675000 247.988647 124.213432
v 0.520802 259.468597 117.643517
v 0.175000 258.565857 118.545723
v 4.325386 259.478546 117.633568
v 4.675000 258.565857 118.545723
v 1.799999 260.842010 130.966873
v 1.799999 261.270477 127.795692
v 1.799999 265.196625 128.326157
v 1.799999 267.391754 128.622742
v 1.799999 269.198456 128.866837
v 0.000000 267.757935 133.117157
v 0.000000 269.344513 132.266998
v 1.799999 267.058960 131.806839
v 1.799999 268.860962 131.364609
v 28.429405 263.004181 128.029938
v 28.299999 263.648895 128.117035
v 28.429405 264.293610 128.204147
v 28.797918 262.457642 127.956093
v 29.349438 262.092438 127.906746
v 28.797918 264.840149 128.277985
v 30.000000 261.964203 127.889420
v 30.650562 262.092438 127.906746
v 29.349438 265.205353 128.327332
v 29.482824 265.231659 128.330887
v 30.000000 265.314636 128.484863
v 30.510580 265.232941 128.331055
v 30.650562 265.205353 128.327332
v 28.429405 262.575714 131.201111
v 28.299999 263.220428 131.288223
v 28.429405 263.865143 131.375320
v 28.797918 262.029175 131.127274
v 29.349438 261.663971 131.077927
v 28.797918 264.411682 131.449173
v 29.349438 264.776886 131.498505
v 30.000000 261.535736 131.060608
v 30.650562 261.663971 131.077927
v 30.000000 264.905121 131.515839
v 30.650562 264.776886 131.498505
v 31.202082 262.457642 127.956093
v 31.570595 263.004181 128.029938
v 31.202082 264.840149 128.277985
v 31.700001 263.648895 128.117035
v 31.570595 264.293610 128.204147
v 31.202082 262.029175 131.127274
v 31.570595 262.575714 131.201111
v 31.202082 264.411682 131.449173
v 31.700001 263.220428 131.288223
v 31.570595 263.865143 131.375320
v 55.312630 251.523987 132.103516
v 55.710117 250.810837 133.050018
v 60.284332 251.257446 132.049728
v 60.215744 251.897110 131.888153
v 60.600101 250.690430 132.186691
v 60.003296 248.304260 133.584534
v 61.114983 250.282394 132.278214
v 61.750587 250.095444 132.310349
v 62.410152 250.158035 132.278214
v 58.200001 260.842010 130.966873
v 58.200001 261.270477 127.795692
v 58.200001 264.638428 128.250732
v 57.391293 265.269470 128.335999
v 58.200001 267.391754 128.622742
v 58.200001 269.198456 128.866837
v 58.200001 266.245087 130.159256
v 58.200001 267.130920 131.816559
v 58.200001 268.860962 131.364609
v 60.404781 252.512039 131.726593
v 60.822662 253.008621 131.589630
v 61.405773 253.311249 131.498108
v 62.065338 253.373840 131.465973
v 62.700943 253.186905 131.498108
v 61.457069 261.474365 129.413574
v 62.576302 262.633057 129.463547
v 59.565765 267.892731 133.238449
v 60.000000 269.344513 132.266998
v 61.563873 262.586792 133.772583
v 55.781315 251.552475 135.956024
v 60.391136 252.369888 136.408737
v 60.706905 251.802872 136.545700
v 61.221786 251.394836 136.637222
v 61.857391 251.207886 136.669357
v 62.516956 251.270477 136.637222
v 55.419434 252.636414 136.462524
v 60.322548 253.009552 136.247162
v 60.511585 253.624481 136.085602
v 60.929466 254.121048 135.948639
v 61.512577 254.423691 135.857117
v 62.172142 254.486282 135.824982
v 63.916500 23.506500 72.486000
v 63.275898 83.725777 40.722878
v 64.738503 83.321999 39.754501
v 81.229652 54.422813 84.851303
v 82.567497 53.224499 84.970497
v 92.249062 84.557426 114.914627
v 92.146698 85.529816 115.693382
v 92.335907 85.466354 118.686729
v 92.532875 84.462242 119.404663
v 102.799187 78.893883 114.127686
v 96.775330 88.438683 114.710800
v 96.859772 89.096542 114.719406
v 97.353142 87.274506 114.649597
v 96.948578 87.798874 114.686287
v 97.927429 86.945419 114.606316
v 98.584007 86.861710 114.563042
v 97.189041 89.672279 114.710800
v 97.713020 90.078262 114.686279
v 98.351936 90.252678 114.649597
v 99.222916 87.036118 114.526352
v 99.746902 87.442101 114.501839
v 100.076172 88.017845 114.493225
v 99.008514 90.168968 114.606316
v 99.582802 89.839874 114.563042
v 99.987366 89.315514 114.526352
v 100.160614 88.675697 114.501839
v 104.336700 78.543877 114.412544
v 105.536690 80.810692 114.381424
v 110.756294 90.670670 114.246025
v 104.548828 102.944817 114.526947
v 104.722076 102.305008 114.502434
v 104.633270 103.602676 114.535553
v 105.126640 101.780640 114.465744
v 105.700928 101.451553 114.422462
v 104.962540 104.178413 114.526947
v 105.486519 104.584396 114.502434
v 106.357506 101.367844 114.379189
v 106.125435 104.758812 114.465744
v 106.782013 104.675102 114.422462
v 106.130302 110.461220 114.586319
v 106.996414 101.542252 114.342499
v 107.520401 101.948235 114.317986
v 107.849670 102.523979 114.309372
v 107.356300 104.346008 114.379189
v 107.760864 103.821648 114.342499
v 107.934113 103.181831 114.317986
v 116.172028 100.901138 114.105545
v 116.680428 104.797676 113.799377
v 117.245064 104.265213 113.944298
v 97.059143 88.343498 119.200836
v 97.232391 87.703682 119.176315
v 97.636955 87.179321 119.139633
v 98.211243 86.850227 119.096352
v 98.867821 86.766518 119.053078
v 97.143585 89.001350 119.209442
v 97.472855 89.577095 119.200836
v 97.996841 89.983078 119.176315
v 98.635750 90.157486 119.139633
v 99.506737 86.940933 119.016388
v 100.030716 87.346916 118.991875
v 100.359985 87.922653 118.983261
v 99.292328 90.073776 119.096352
v 99.866615 89.744690 119.053078
v 100.271179 89.220322 119.016388
v 100.444427 88.580513 118.991875
v 102.899109 73.160667 118.569649
v 104.064003 71.788498 118.582497
v 103.083000 78.798698 118.617722
v 105.388382 78.282066 117.857841
v 107.251663 81.795624 117.819115
v 104.832642 102.849632 119.016983
v 102.910736 105.616608 115.438789
v 105.410454 101.685455 118.955780
v 105.005890 102.209816 118.992462
v 104.917084 103.507484 119.025589
v 105.246353 104.083229 119.016983
v 105.770340 104.489212 118.992462
v 105.984741 101.356361 118.912498
v 106.641319 101.272652 118.869225
v 106.409248 104.663620 118.955780
v 105.272247 110.023438 115.382942
v 105.461456 109.959976 118.376289
v 106.414116 110.366035 119.076355
v 107.280235 101.447067 118.832535
v 107.804214 101.853050 118.808022
v 107.065826 104.579910 118.912498
v 107.640114 104.250824 118.869225
v 108.133484 102.428787 118.799408
v 108.217926 103.086647 118.808022
v 108.044678 103.726456 118.832535
v 115.399033 97.159058 117.649773
v 118.124046 103.497604 115.739807
v 118.572136 103.142548 117.583824
v 116.964241 104.702492 118.289413
v 121.843613 108.445160 118.853882
v 123.343498 107.765999 118.126503
v 92.575500 152.524506 59.146500
v 91.083153 152.733597 60.130966
v 88.945503 188.338501 47.872501
v 88.630424 187.507858 49.437988
v 62.993263 250.460678 132.186691
v 63.411144 250.957245 132.049728
v 63.531593 252.211838 131.726593
v 63.600182 251.572174 131.888153
v 63.215824 252.778854 131.589630
v 63.669281 264.459015 132.530457
v 70.152435 258.188782 130.407806
v 72.696098 243.628189 133.692642
v 73.210983 243.220139 133.784164
v 73.846588 243.033203 133.816299
v 74.506149 243.095795 133.784164
v 72.500778 245.449799 133.232544
v 72.311737 244.834854 133.394119
v 72.380325 244.195190 133.555679
v 72.918663 245.946365 133.095581
v 73.501770 246.248993 133.004059
v 74.796936 246.124649 133.004059
v 74.161331 246.311584 132.971924
v 75.089256 243.398422 133.692657
v 75.507141 243.894989 133.555679
v 75.311821 245.716599 133.095581
v 75.627594 245.149597 133.232559
v 75.696182 244.509918 133.394119
v 72.164001 257.008789 130.658539
v 63.100067 251.573120 136.545700
v 63.517948 252.069687 136.408737
v 62.807747 254.299347 135.857117
v 63.706985 252.684616 136.247162
v 63.638397 253.324280 136.085602
v 63.322628 253.891296 135.948639
v 71.643120 241.508316 135.033691
v 72.802895 244.740616 138.051666
v 72.487122 245.307632 137.914688
v 72.418533 245.947296 137.753128
v 72.607574 246.562225 137.591553
v 73.317780 244.332581 138.143173
v 73.025459 247.058807 137.454590
v 73.608566 247.361435 137.363068
v 73.953384 244.145630 138.175308
v 74.612946 244.208221 138.143173
v 74.268127 247.424026 137.330933
v 75.936302 239.001755 135.568207
v 76.007500 239.743393 138.474213
v 76.912636 238.912827 134.792725
v 77.019432 240.025253 139.151733
v 75.196053 244.510864 138.051651
v 75.613937 245.007431 137.914688
v 75.802979 245.622360 137.753128
v 74.903732 247.237091 137.363068
v 75.418617 246.829041 137.454590
v 75.734390 246.262024 137.591553
v 82.589874 231.061142 129.772949
v 82.351791 232.194977 129.303619
v 85.295395 227.312790 127.867668
v 83.644257 230.430984 132.509949
v 83.933365 231.249725 133.409119
v 89.805672 225.874695 124.976974
v 90.426636 225.932877 124.751152
v 90.998169 226.233810 124.600266
v 91.433258 226.731674 124.547279
v 91.665665 227.350662 124.600266
v 91.660011 227.996567 124.751152
v 91.417152 228.571014 124.976974
v 88.786728 226.483673 125.509712
v 88.543869 227.058121 125.735527
v 89.229813 226.068100 125.243340
v 90.811394 225.122849 129.348846
v 90.368309 225.538422 129.615219
v 90.125450 226.112869 129.841034
v 90.119789 226.758774 129.991913
v 88.538216 227.704025 125.886421
v 88.770622 228.323013 125.939400
v 89.205711 228.820877 125.886421
v 89.777245 229.121811 125.735535
v 90.398209 229.179993 125.509712
v 90.352203 227.377762 130.044907
v 90.787292 227.875626 129.991913
v 91.387253 224.929443 129.082474
v 92.008217 224.987625 128.856659
v 92.579750 225.288559 128.705765
v 93.014839 225.786423 128.652786
v 93.247246 226.405411 128.705765
v 93.241592 227.051315 128.856659
v 90.974068 228.986588 125.243340
v 91.979790 228.234741 129.615219
v 92.555649 228.041336 129.348846
v 92.998734 227.625763 129.082474
v 91.358826 228.176559 129.841034
v 83.057076 248.863205 132.102783
v 83.499718 250.359116 132.071381
v 83.880890 252.051910 134.395355
v 91.519684 239.726074 127.505791
v 93.003693 240.311905 127.460564
v 93.101257 238.780823 131.611298
v 83.163872 249.975632 136.461792
v 83.993340 252.551300 135.080948
v 89.067451 250.617310 136.951828
v 90.000000 251.828995 136.001999
v 104.450470 200.774460 114.378372
v 105.078140 200.708832 113.299393
v 126.939003 200.651993 109.988998
v 125.536842 200.077454 110.960518
v 105.504852 200.144302 117.115372
v 106.659714 199.763580 117.404892
v 114.246033 208.239929 111.501556
v 114.015205 211.368942 112.727272
v 115.389984 209.475189 111.763275
v 117.453972 209.885818 114.800964
v 101.513496 208.851440 116.547340
v 101.270638 209.425888 116.773155
v 101.264984 210.071793 116.924049
v 102.532440 208.242462 116.014603
v 101.956581 208.435867 116.280968
v 102.852219 208.480652 120.878662
v 102.846558 209.126541 121.029549
v 101.497398 210.690781 116.977028
v 101.932487 211.188644 116.924042
v 102.504021 211.489578 116.773155
v 103.153404 208.300644 115.788780
v 103.724937 208.601578 115.637894
v 104.160027 209.099442 115.584908
v 104.386780 210.364319 115.788780
v 104.392441 209.718430 115.637894
v 104.114014 207.297211 120.120102
v 104.734978 207.355392 119.894279
v 105.306511 207.656326 119.743393
v 105.741600 208.154190 119.690414
v 105.725502 209.993530 120.120094
v 105.974014 208.773178 119.743393
v 105.968361 209.419083 119.894279
v 103.095070 207.906189 120.652840
v 103.538155 207.490616 120.386475
v 103.078972 209.745529 121.082527
v 103.514061 210.243393 121.029549
v 105.282417 210.409103 120.386467
v 103.124985 211.547760 116.547340
v 103.700844 211.354355 116.280968
v 104.143929 210.938782 116.014595
v 104.085594 210.544327 120.878654
v 104.706558 210.602509 120.652840
v 104.578911 224.367264 119.344017
v 95.477531 240.199234 130.267731
v 115.827606 207.294678 115.607056
vn 0.8312 -0.1464 -0.5364
vn 0.8281 -0.1376 -0.5434
vn 0.9007 -0.2181 -0.3759
vn 0.8076 -0.2916 -0.5125
vn 0.8427 -0.4552 -0.2875
vn 0.8074 -0.2920 -0.5127
vn -0.1245 -0.6775 -0.7249
vn 0.4404 -0.6805 0.5856
vn 0.5410 -0.5909 0.5984
vn 0.3097 -0.9022 0.3002
vn 0.8572 -0.0736 -0.5097
vn 0.5751 0.6605 -0.4827
vn 0.7996 -0.1594 -0.5789
vn 0.7834 -0.1130 -0.6111
vn 0.4075 0.7386 -0.5370
vn 0.4660 0.6766 -0.5702
vn -0.0000 0.3072 -0.9516
vn -0.0000 0.8814 -0.4723
vn -0.0000 0.3553 -0.9348
vn -0.5974 -0.0272 0.8015
vn -0.8435 0.1531 0.5148
vn -0.8452 0.1584 0.5105
vn -0.9015 0.2137 0.3763
vn -0.8048 0.2883 0.5189
vn -0.8437 0.4506 0.2918
vn -0.8083 0.2826 0.5165
vn 0.1331 0.6708 0.7296
vn -0.4312 0.6839 -0.5885
vn -0.5386 0.5904 -0.6011
vn -0.3076 0.9018 -0.3034
vn -0.8621 0.0924 0.4983
vn -0.5752 -0.6621 0.4803
vn -0.5752 -0.6621 0.4804
vn -0.8215 0.1787 0.5415
vn -0.8049 0.1218 0.5808
vn -0.4074 -0.7398 0.5355
vn -0.4676 -0.6762 0.5693
vn 0.0196 -0.3072 0.9514
vn 0.0005 -0.3074 0.9516
vn 0.0006 -0.3074 0.9516
vn 0.0036 -0.8814 0.4723
vn 0.0010 -0.8817 0.4718
vn 0.0005 -0.3553 0.9348
vn 0.0035 -0.3494 0.9370
vn 0.8167 -0.1344 -0.5613
vn -0.5444 -0.7621 0.3505
vn 0.3539 -0.1974 0.9142
vn 0.1958 0.8850 -0.4225
vn -0.0223 -0.8082 0.5885
vn -0.6564 0.6703 -0.3462
vn -0.9119 -0.2767 0.3032
vn 0.0350 -0.6388 -0.7686
vn 0.0848 0.0813 0.9931
vn 0.5510 -0.7593 0.3463
vn 0.5709 -0.0052 0.8210
vn 0.4626 -0.4068 0.7877
vn 0.1926 0.5093 0.8388
vn -1.0000 -0.0000 -0.0000
vn -0.0000 0.8834 0.4687
vn 0.0430 -0.8578 0.5122
vn -0.0000 0.5561 0.8311
vn -0.0000 -0.7368 -0.6762
vn -0.0000 0.7368 0.6762
vn -0.0000 -0.8834 -0.4687
vn 0.6247 -0.2399 0.7431
vn -0.0000 -0.8168 0.5770
vn -0.6247 -0.2399 0.7431
vn -0.0000 -0.3072 0.9516
vn -0.0000 0.9998 0.0191
vn 1.0000 -0.0000 -0.0000
vn -0.0000 -0.8222 -0.5692
vn 0.9622 0.0837 -0.2591
vn 0.9622 0.0837 -0.2592
vn -0.9622 0.0837 -0.2592
vn -0.0000 0.3252 0.9457
vn -0.0000 -0.9516 -0.3072
vn -0.0000 0.9516 0.3072
vn -0.9622 0.0837 -0.2591
vn -0.0000 0.1951 -0.9808
vn -0.0000 0.5556 -0.8315
vn -0.0000 0.8315 -0.5556
vn -0.0000 0.9808 -0.1951
vn -0.0000 0.9808 0.1951
vn -0.0000 0.8315 0.5556
vn -0.0000 0.5556 0.8315
vn -0.0000 0.1951 0.9808
vn -0.0000 -0.1951 0.9808
vn -0.0000 -0.5556 0.8315
vn -0.0000 -0.8315 0.5556
vn -0.0000 -0.9808 0.1951
vn -0.0000 -0.9808 -0.1951
vn -0.0000 -0.8315 -0.5556
vn -0.0000 -0.5556 -0.8315
vn -0.0000 -0.1951 -0.9808
vn -0.0000 -0.8168 0.5769
vn -0.0000 0.8315 -0.5555
vn -0.0000 0.8315 0.5555
vn -0.0000 -0.8315 0.5555
vn -0.0000 -0.8315 -0.5555
vn -0.6247 -0.6883 0.3688
vn -0.0000 0.4723 0.8814
vn 0.6247 -0.6883 0.3688
vn -0.0000 -0.4723 -0.8814
vn -0.9622 0.2400 -0.1286
vn -0.0000 0.7069 0.7073
vn -0.0000 -0.1974 -0.9803
vn -0.0000 -0.9885 -0.1510
vn -0.0000 -0.8814 0.4723
vn 0.9622 0.2400 -0.1286
vn -0.0000 -0.4217 0.9067
vn -0.0000 0.9808 -0.1952
vn -0.0000 0.9808 0.1952
vn -0.0000 -0.9808 -0.1952
vn -0.0000 0.8314 -0.5556
vn -0.0000 0.8314 0.5556
vn -0.0000 -0.9808 0.1952
vn -0.0000 -0.5555 -0.8315
vn -0.0000 -0.9348 -0.3553
vn 0.6247 -0.2774 0.7299
vn -0.0000 -0.3553 0.9348
vn -0.0000 -0.7922 -0.6103
vn -0.6247 -0.2774 0.7299
vn -0.0000 0.2766 0.9610
vn -0.0000 0.9348 0.3553
vn -0.9622 0.0968 -0.2546
vn -0.0000 -0.8451 0.5347
vn -0.0000 0.9975 0.0700
vn 0.9622 0.0968 -0.2546
vn -0.0000 0.5555 -0.8315
vn 0.3515 -0.2101 0.9123
vn 0.3514 -0.2101 0.9123
vn -0.8161 -0.3589 -0.4529
vn -0.2865 -0.9519 -0.1087
vn 0.5411 -0.7497 -0.3811
vn -0.5411 0.7497 0.3811
vn -0.8161 -0.3588 -0.4530
vn -0.7640 -0.6276 0.1498
vn -0.3515 0.2101 -0.9123
vn -0.3514 0.2100 -0.9123
vn 0.5181 -0.0597 0.8532
vn -0.9359 -0.0523 0.3485
vn -0.1659 0.3491 -0.9223
vn -0.3375 0.8806 0.3327
vn 0.7118 -0.5731 -0.4061
vn -0.1659 0.3490 -0.9223
vn -0.3770 -0.6213 0.6869
vn 0.8682 -0.2916 -0.4016
vn 0.9362 0.0878 -0.3404
vn 0.8616 0.4537 -0.2275
vn 0.6559 0.7506 -0.0799
vn 0.3504 0.9332 0.0799
vn -0.0085 0.9737 0.2275
vn -0.3661 0.8661 0.3404
vn -0.6680 0.6265 0.4016
vn -0.8682 0.2916 0.4016
vn -0.9362 -0.0877 0.3404
vn -0.8616 -0.4537 0.2275
vn -0.6559 -0.7506 0.0799
vn -0.3504 -0.9332 -0.0799
vn 0.0085 -0.9737 -0.2275
vn 0.3661 -0.8661 -0.3404
vn 0.6680 -0.6265 -0.4016
vn 0.9362 0.0877 -0.3404
vn -0.3661 0.8661 0.3405
vn 0.0631 -0.0211 0.9978
vn 0.0631 -0.0212 0.9978
vn -0.6471 0.3553 0.6745
vn -0.8792 0.4720 0.0656
vn -0.7259 0.3818 -0.5721
vn 0.4723 0.8814 -0.0112
vn -0.0631 0.0212 -0.9978
vn -0.0631 0.0211 -0.9978
vn -0.9867 -0.1512 0.0592
vn -0.4723 -0.8814 0.0112
vn 0.1597 -0.0980 -0.9823
vn 0.6896 0.7236 -0.0282
vn -0.4200 0.9064 0.0458
vn 0.2818 -0.1390 0.9494
vn -0.2208 -0.9753 -0.0067
vn 0.9899 -0.1262 -0.0652
vn 0.9632 0.2629 -0.0553
vn 0.7899 0.6121 -0.0370
vn 0.4964 0.8680 -0.0130
vn 0.1273 0.9918 0.0130
vn -0.2612 0.9646 0.0370
vn -0.6099 0.7905 0.0553
vn -0.8658 0.4961 0.0652
vn -0.9899 0.1262 0.0652
vn -0.9632 -0.2629 0.0553
vn -0.7900 -0.6120 0.0370
vn -0.4964 -0.8680 0.0130
vn -0.1273 -0.9918 -0.0130
vn 0.2612 -0.9646 -0.0370
vn 0.6099 -0.7905 -0.0553
vn 0.8658 -0.4961 -0.0652
vn -0.7900 -0.6121 0.0370
vn 0.0237 0.2472 0.9687
vn 0.0238 0.2472 0.9687
vn 0.1413 0.4320 0.8907
vn 0.1055 -0.9641 0.2435
vn -0.8586 0.5013 -0.1069
vn 0.0952 -0.0490 -0.9943
vn 0.8586 -0.5013 0.1069
vn 0.0951 -0.0491 -0.9943
vn -0.0237 -0.2472 -0.9687
vn -0.0237 -0.2471 -0.9687
vn -0.0238 -0.2473 -0.9686
vn 0.9580 -0.2825 0.0486
vn -0.7067 0.6895 -0.1586
vn -0.3850 -0.4931 0.7802
vn -0.4146 -0.8019 -0.4301
vn -0.4147 -0.8019 -0.4301
vn -0.9248 -0.3626 0.1152
vn -0.5120 -0.8292 0.2242
vn -0.1034 0.9644 -0.2436
vn -0.4761 0.8548 -0.2065
vn -0.7762 0.6152 -0.1380
vn -0.9582 0.2818 -0.0485
vn -0.9944 -0.0944 0.0485
vn -0.8791 -0.4562 0.1380
vn -0.6300 -0.7486 0.2065
vn -0.2850 -0.9271 0.2436
vn 0.1034 -0.9644 0.2436
vn 0.4761 -0.8548 0.2065
vn 0.7762 -0.6152 0.1380
vn 0.9582 -0.2819 0.0484
vn 0.9944 0.0944 -0.0485
vn 0.8791 0.4562 -0.1380
vn 0.6300 0.7487 -0.2065
vn 0.2850 0.9271 -0.2436
vn -0.8791 -0.4563 0.1380
vn 0.9582 -0.2819 0.0485
vn 0.6300 0.7486 -0.2065
vn -0.0000 0.9910 0.1339
vn -0.0000 -0.9910 -0.1339
vn -0.0000 0.1339 -0.9910
vn -0.0000 -0.1339 0.9910
vn -0.1951 -0.9720 -0.1313
vn -0.5556 -0.8240 -0.1113
vn -0.8315 -0.5506 -0.0744
vn -0.9808 -0.1933 -0.0261
vn -0.9808 0.1933 0.0261
vn -0.8315 0.5506 0.0744
vn -0.5556 0.8240 0.1113
vn -0.1951 0.9720 0.1313
vn 0.1951 0.9720 0.1313
vn 0.5556 0.8240 0.1113
vn 0.8315 0.5506 0.0744
vn 0.9808 0.1933 0.0261
vn 0.9808 -0.1933 -0.0261
vn 0.8315 -0.5506 -0.0744
vn 0.5556 -0.8240 -0.1113
vn 0.1951 -0.9720 -0.1313
vn -0.0000 0.8814 -0.4724
vn -0.5996 -0.0344 -0.7995
vn -0.9855 0.1694 -0.0000
vn 0.8944 0.4472 -0.0000
vn 0.5547 -0.8321 -0.0000
vn -0.4676 -0.6762 0.5692
vn 0.0576 -0.3819 0.9224
vn -0.4677 -0.6762 0.5693
vn 0.0051 -0.3125 0.9499
vn 0.0064 -0.3138 0.9495
vn 0.0006 -0.3137 0.9495
vn 0.0196 -0.3073 0.9514
vn 0.0035 -0.8814 0.4723
vn -0.9473 -0.3079 0.0888
vn -0.0000 -0.9012 0.4333
vn 0.0034 -0.8814 0.4723
vn 0.0012 -0.8819 0.4714
vn 0.0010 -0.8818 0.4716
vn 0.0011 -0.8818 0.4716
vn 0.0010 -0.8819 0.4715
vn 0.0011 -0.8817 0.4718
vn 0.0045 -0.3530 0.9356
vn -0.4486 -0.8369 0.3135
vn 0.0024 0.0114 0.9999
vn 0.0420 0.9431 -0.3298
vn -0.0113 -0.7296 0.6838
vn -0.6730 0.5945 -0.4400
vn -0.8968 -0.3019 0.3235
vn -0.1336 -0.3656 -0.9211
vn -0.0591 0.4761 0.8774
vn 0.2583 -0.7880 0.5589
vn 0.6542 0.0856 0.7515
vn 0.4266 -0.4000 0.8112
vn 0.1906 0.5059 0.8413
vn 0.0035 0.9516 0.3072
vn -0.0029 0.4723 0.8814
vn 0.0198 -0.4722 -0.8813
vn 0.0222 0.9345 0.3552
vn -0.0025 -0.9348 -0.3553
vn -0.0000 -0.4218 0.9067
vn -0.0000 -0.5555 0.8315
vn -0.0000 -0.8451 0.5346
vn 0.3514 -0.2100 0.9123
vn 0.3515 -0.2100 0.9123
vn 0.3514 -0.2100 0.9124
vn 0.3520 -0.2103 0.9121
vn 0.3516 -0.2100 0.9123
vn 0.3513 -0.2100 0.9124
vn -0.2865 -0.9519 -0.1088
vn -0.3514 0.2101 -0.9123
vn -0.3514 0.2100 -0.9124
vn -0.3515 0.2100 -0.9123
vn -0.3514 0.2101 -0.9124
vn -0.3514 0.2098 -0.9124
vn -0.3513 0.2101 -0.9124
vn 0.9362 0.0877 -0.3405
vn -0.9362 -0.0878 0.3404
vn -0.6560 -0.7506 0.0799
vn 0.3661 -0.8660 -0.3405
vn 0.6560 0.7506 -0.0799
vn -0.3661 0.8660 0.3405
vn 0.0629 -0.0212 0.9978
vn 0.0630 -0.0212 0.9978
vn 0.0630 -0.0211 0.9978
vn 0.0631 -0.0213 0.9978
vn -0.0630 0.0212 -0.9978
vn -0.0630 0.0211 -0.9978
vn -0.0634 0.0211 -0.9978
vn -0.9867 -0.1513 0.0592
vn 0.6896 0.7236 -0.0283
vn 0.7900 0.6121 -0.0370
vn -0.9632 -0.2630 0.0553
vn -0.7899 -0.6121 0.0370
vn 0.9632 0.2630 -0.0553
vn 0.0237 0.2471 0.9687
vn 0.0236 0.2471 0.9687
vn 0.1056 -0.9641 0.2435
vn -0.0238 -0.2472 -0.9687
vn -0.0236 -0.2472 -0.9687
vn -0.0239 -0.2472 -0.9687
vn -0.0238 -0.2473 -0.9687
vn 0.5494 -0.8242 -0.1374
vn -0.9582 0.2818 -0.0484
vn 0.9582 -0.2818 0.0484
vn -0.9582 0.2819 -0.0485
vn -0.9944 -0.0944 0.0484
vn 0.9944 0.0944 -0.0484
vn 0.8791 0.4563 -0.1380
vn -0.0000 0.1340 -0.9910
vn -0.0000 0.1337 -0.9910
vn -0.0000 -0.1338 0.9910
vn -0.0000 -0.1340 0.9910
vn -0.1950 -0.9720 -0.1313
vn 0.1952 -0.9719 -0.1313
vn 0.1950 -0.9720 -0.1313
s 0
f 135//1 137//1 449//1
f 137//2 141//2 449//2
f 135//3 449//3 447//3
f 447//4 449//4 451//4
f 451//5 542//5 513//5
f 449//6 542//6 451//6
f 1//7 137//7 135//7
f 143//8 447//8 144//8
f 144//9 447//9 451//9
f 144//10 451//10 513//10
f 543//11 545//11 647//11
f 545//12 644//12 647//12
f 141//13 543//13 449//13
f 141//14 545//14 543//14
f 276//15 644//15 545//15
f 276//16 433//16 644//16
f 137//17 186//17 545//17
f 367//18 370//18 372//18
f 433//18 420//18 424//18
f 187//19 276//19 545//19
f 137//20 545//20 141//20
f 136//21 448//21 138//21
f 138//22 448//22 140//22
f 136//23 139//23 448//23
f 139//24 450//24 448//24
f 515//25 450//25 512//25
f 448//26 495//26 541//26
f 2//27 136//27 138//27
f 139//28 142//28 145//28
f 139//29 145//29 450//29
f 145//30 512//30 450//30
f 544//31 648//31 546//31
f 546//32 653//32 639//32
f 643//33 654//33 648//33
f 140//34 448//34 544//34
f 140//35 544//35 546//35
f 277//36 546//36 643//36
f 643//37 642//37 637//37
f 636//37 418//37 277//37
f 3//38 9//38 11//38
f 85//39 93//39 189//39
f 180//40 546//40 189//40
f 266//41 299//41 322//41
f 369//42 366//42 371//42
f 188//43 264//43 269//43
f 270//44 546//44 277//44
f 138//45 140//45 546//45
f 136//46 447//46 139//46
f 512//47 542//47 541//47
f 449//48 541//48 542//48
f 136//49 1//49 135//49
f 1//50 138//50 137//50
f 142//51 144//51 145//51
f 139//52 143//52 142//52
f 512//53 144//53 513//53
f 648//54 543//54 647//54
f 644//55 648//55 647//55
f 544//56 449//56 543//56
f 644//57 432//57 643//57
f 186//58 3//58 189//58
f 186//59 546//59 545//59
f 3//60 137//60 138//60
f 370//58 266//58 369//58
f 370//61 432//61 433//61
f 277//62 267//62 276//62
f 187//58 269//58 268//58
f 268//63 277//63 276//63
f 546//64 187//64 545//64
f 64//58 89//58 86//58
f 59//58 5//58 89//58
f 19//58 18//58 10//58
f 84//65 92//65 91//65
f 6//66 7//66 8//66
f 68//67 90//67 89//67
f 7//65 84//65 41//65
f 7//65 92//65 84//65
f 6//68 41//68 28//68
f 85//69 88//69 87//69
f 5//67 68//67 89//67
f 5//67 28//67 68//67
f 14//70 35//70 36//70
f 79//70 88//70 92//70
f 40//70 14//70 88//70
f 28//68 84//68 68//68
f 7//65 41//65 8//65
f 68//68 91//68 90//68
f 14//71 9//71 12//71
f 14//72 16//72 88//72
f 16//73 87//73 88//73
f 5//67 6//67 28//67
f 15//74 86//74 85//74
f 15//74 10//74 86//74
f 89//75 91//75 92//75
f 12//73 13//73 14//73
f 7//76 10//76 14//76
f 86//77 92//77 88//77
f 9//78 10//78 11//78
f 25//79 44//79 43//79
f 24//80 43//80 42//80
f 21//81 42//81 38//81
f 20//82 38//82 37//82
f 19//83 37//83 36//83
f 18//84 36//84 35//84
f 18//85 39//85 22//85
f 17//86 39//86 34//86
f 17//87 40//87 23//87
f 23//88 46//88 29//88
f 29//89 47//89 30//89
f 30//90 48//90 31//90
f 31//91 49//91 32//91
f 32//92 50//92 33//92
f 27//93 50//93 45//93
f 26//94 45//94 44//94
f 59//79 81//79 75//79
f 58//80 75//80 74//80
f 57//81 74//81 73//81
f 56//82 73//82 72//82
f 53//83 72//83 69//83
f 54//84 69//84 70//84
f 54//85 71//85 55//85
f 51//86 71//86 52//86
f 51//87 76//87 60//87
f 60//88 77//88 61//88
f 61//89 78//89 62//89
f 62//90 79//90 63//90
f 63//91 80//91 64//91
f 64//92 83//92 67//92
f 66//93 83//93 82//93
f 65//94 82//94 81//94
f 108//95 110//95 109//95
f 159//58 182//58 179//58
f 154//58 107//58 182//58
f 94//58 112//58 111//58
f 110//65 185//65 123//65
f 110//65 184//65 185//65
f 94//76 110//76 107//76
f 178//69 181//69 180//69
f 107//67 183//67 182//67
f 107//67 122//67 183//67
f 122//68 185//68 183//68
f 109//65 110//65 123//65
f 108//68 123//68 122//68
f 96//71 93//71 95//71
f 94//74 178//74 93//74
f 102//70 124//70 110//70
f 174//70 181//70 175//70
f 105//70 96//70 181//70
f 107//67 108//67 122//67
f 96//72 180//72 181//72
f 179//77 184//77 181//77
f 182//75 185//75 184//75
f 115//79 134//79 128//79
f 114//80 128//80 127//80
f 113//81 127//81 126//81
f 112//82 126//82 125//82
f 111//83 125//83 124//83
f 97//84 124//84 102//84
f 97//85 103//85 98//85
f 98//86 104//86 99//86
f 99//87 105//87 100//87
f 100//88 106//88 101//88
f 101//89 129//89 116//89
f 116//90 130//90 117//90
f 117//91 132//91 119//91
f 119//92 133//92 120//92
f 118//93 133//93 131//93
f 121//94 131//94 134//94
f 154//79 177//79 169//79
f 168//80 154//80 169//80
f 152//96 168//96 167//96
f 151//82 167//82 166//82
f 150//83 166//83 165//83
f 147//97 165//97 162//97
f 147//85 161//85 146//85
f 146//86 163//86 148//86
f 148//87 164//87 149//87
f 149//88 171//88 156//88
f 156//98 172//98 157//98
f 158//90 172//90 173//90
f 158//91 174//91 159//91
f 159//99 175//99 160//99
f 155//93 175//93 170//93
f 176//94 170//94 177//94
f 330//58 278//58 351//58
f 349//58 351//58 361//58
f 278//58 281//58 304//58
f 278//100 279//100 287//100
f 351//101 363//101 361//101
f 278//100 287//100 352//100
f 278//100 352//100 351//100
f 289//70 314//70 313//70
f 357//70 363//70 359//70
f 316//70 302//70 363//70
f 288//102 289//102 290//102
f 278//103 302//103 289//103
f 298//104 300//104 299//104
f 360//105 363//105 362//105
f 322//104 298//104 361//104
f 302//106 299//106 301//106
f 289//102 359//102 358//102
f 289//102 358//102 290//102
f 288//107 278//107 289//107
f 279//108 290//108 287//108
f 287//108 358//108 352//108
f 322//104 361//104 360//104
f 301//109 303//109 302//109
f 302//109 323//109 363//109
f 352//110 359//110 351//110
f 323//109 362//109 363//109
f 286//79 320//79 297//79
f 285//80 297//80 296//80
f 295//96 285//96 296//96
f 294//111 284//111 295//111
f 282//112 294//112 293//112
f 280//97 293//97 291//97
f 280//85 292//85 281//85
f 281//86 313//86 304//86
f 304//87 314//87 305//87
f 305//88 315//88 306//88
f 307//98 315//98 316//98
f 308//90 316//90 317//90
f 308//113 318//113 309//113
f 309//99 319//99 310//99
f 312//93 319//93 321//93
f 311//94 321//94 320//94
f 347//79 355//79 354//79
f 346//80 354//80 353//80
f 341//114 346//114 353//114
f 340//82 330//82 341//82
f 328//83 340//83 339//83
f 327//115 339//115 338//115
f 327//85 335//85 324//85
f 324//86 336//86 325//86
f 325//87 337//87 326//87
f 326//88 342//88 331//88
f 332//98 342//98 343//98
f 332//116 344//116 333//116
f 333//113 345//113 334//113
f 334//99 357//99 350//99
f 349//117 357//117 356//117
f 348//94 356//94 355//94
f 190//118 214//118 194//118
f 214//119 274//119 220//119
f 214//119 275//119 274//119
f 195//120 220//120 212//120
f 192//121 191//121 193//121
f 194//122 273//122 272//122
f 194//122 212//122 273//122
f 212//120 274//120 273//120
f 213//119 214//119 220//119
f 272//123 274//123 275//123
f 265//124 275//124 271//124
f 191//125 265//125 264//125
f 195//126 214//126 213//126
f 215//70 221//70 214//70
f 261//70 271//70 262//70
f 218//70 192//70 271//70
f 194//122 195//122 212//122
f 264//127 271//127 270//127
f 245//58 272//58 265//58
f 241//58 194//58 272//58
f 194//58 201//58 196//58
f 193//128 271//128 192//128
f 225//79 206//79 226//79
f 224//129 205//129 225//129
f 223//96 204//96 224//96
f 222//82 203//82 223//82
f 201//83 222//83 221//83
f 196//97 221//97 215//97
f 197//85 215//85 216//85
f 197//86 217//86 198//86
f 198//87 218//87 199//87
f 199//88 219//88 200//88
f 207//98 219//98 227//98
f 208//90 227//90 228//90
f 208//91 229//91 209//91
f 209//99 230//99 210//99
f 211//117 230//117 231//117
f 206//94 231//94 226//94
f 241//79 263//79 257//79
f 236//80 257//80 252//80
f 251//96 236//96 252//96
f 250//82 235//82 251//82
f 233//83 250//83 249//83
f 232//97 249//97 248//97
f 232//85 253//85 237//85
f 237//86 254//86 238//86
f 238//87 255//87 239//87
f 239//88 256//88 240//88
f 243//89 256//89 259//89
f 244//90 259//90 260//90
f 244//91 261//91 245//91
f 245//99 262//99 246//99
f 242//93 262//93 258//93
f 247//94 258//94 263//94
f 602//130 650//130 677//130
f 623//131 634//131 640//131
f 689//130 673//130 672//130
f 598//132 599//132 600//132
f 645//133 650//133 649//133
f 646//134 689//134 650//134
f 599//135 640//135 638//135
f 599//136 646//136 645//136
f 599//132 645//132 600//132
f 598//137 600//137 601//137
f 600//137 645//137 601//137
f 601//137 645//137 649//137
f 646//138 666//138 667//138
f 638//138 651//138 684//138
f 620//139 599//139 621//139
f 688//140 689//140 654//140
f 598//141 602//141 599//141
f 638//142 687//142 651//142
f 651//142 652//142 653//142
f 639//143 640//143 688//143
f 653//144 689//144 651//144
f 651//145 687//145 652//145
f 601//146 650//146 602//146
f 657//147 679//147 661//147
f 656//148 661//148 660//148
f 655//149 660//149 677//149
f 659//150 677//150 678//150
f 658//151 678//151 670//151
f 671//152 658//152 670//152
f 666//153 671//153 672//153
f 673//154 666//154 672//154
f 669//155 673//155 675//155
f 676//156 669//156 675//156
f 676//157 684//157 668//157
f 683//158 674//158 681//158
f 682//159 681//159 686//159
f 685//160 682//160 686//160
f 663//161 685//161 680//161
f 680//162 662//162 663//162
f 616//147 618//147 622//147
f 611//163 616//163 615//163
f 611//149 614//149 610//149
f 612//150 614//150 613//150
f 603//151 613//151 624//151
f 625//152 603//152 624//152
f 605//164 625//164 626//164
f 606//154 626//154 627//154
f 628//155 606//155 627//155
f 628//156 608//156 607//156
f 609//157 629//157 633//157
f 632//158 609//158 633//158
f 621//159 632//159 631//159
f 634//160 621//160 631//160
f 623//161 620//161 634//161
f 622//162 619//162 623//162
f 500//165 499//165 455//165
f 534//166 514//166 540//166
f 533//166 536//166 540//166
f 455//167 528//167 454//167
f 453//168 454//168 518//168
f 453//169 518//169 486//169
f 452//169 453//169 486//169
f 486//170 540//170 494//170
f 478//171 452//171 486//171
f 486//171 491//171 490//171
f 452//172 461//172 462//172
f 454//168 528//168 518//168
f 518//168 528//168 527//168
f 486//169 518//169 527//169
f 452//173 454//173 453//173
f 452//174 514//174 455//174
f 456//175 474//175 473//175
f 494//176 539//176 538//176
f 494//175 493//175 475//175
f 456//175 475//175 474//175
f 486//177 528//177 529//177
f 514//178 515//178 516//178
f 514//178 516//178 537//178
f 540//178 537//178 539//178
f 514//179 473//179 515//179
f 496//180 458//180 501//180
f 497//181 457//181 496//181
f 498//182 460//182 497//182
f 459//183 499//183 461//183
f 462//184 499//184 500//184
f 466//185 500//185 505//185
f 467//186 505//186 506//186
f 467//187 507//187 468//187
f 472//188 507//188 511//188
f 472//189 510//189 471//189
f 470//190 510//190 509//190
f 508//191 470//191 509//191
f 465//192 508//192 504//192
f 503//193 465//193 504//193
f 463//194 503//194 502//194
f 501//195 463//195 502//195
f 476//180 521//180 517//180
f 477//181 517//181 520//181
f 479//182 520//182 519//182
f 479//183 524//183 480//183
f 483//184 524//184 525//184
f 483//185 530//185 487//185
f 488//186 530//186 531//186
f 488//187 534//187 489//187
f 492//188 534//188 535//188
f 492//189 536//189 491//189
f 491//196 533//196 490//196
f 532//191 490//191 533//191
f 484//192 532//192 526//192
f 482//193 526//193 523//193
f 481//194 523//194 522//194
f 521//195 481//195 522//195
f 438//197 441//197 591//197
f 591//197 594//197 593//197
f 434//198 444//198 445//198
f 434//199 642//199 552//199
f 589//200 590//200 591//200
f 407//201 434//201 430//201
f 430//202 431//202 553//202
f 590//203 641//203 591//203
f 430//204 553//204 570//204
f 635//202 570//202 636//202
f 426//205 407//205 430//205
f 569//206 568//206 590//206
f 429//207 428//207 635//207
f 636//208 642//208 641//208
f 431//209 434//209 552//209
f 441//210 589//210 591//210
f 407//211 590//211 577//211
f 412//212 407//212 577//212
f 407//213 435//213 441//213
f 577//212 590//212 588//212
f 408//214 412//214 435//214
f 412//214 577//214 435//214
f 435//214 577//214 589//214
f 577//214 588//214 589//214
f 414//215 440//215 415//215
f 415//216 571//216 547//216
f 548//217 571//217 572//217
f 574//218 548//218 572//218
f 549//219 574//219 575//219
f 551//220 575//220 576//220
f 429//221 576//221 573//221
f 428//222 573//222 446//222
f 427//223 446//223 445//223
f 426//224 445//224 444//224
f 443//225 426//225 444//225
f 442//226 425//226 443//226
f 409//227 442//227 436//227
f 437//228 409//228 436//228
f 411//229 438//229 413//229
f 413//230 439//230 414//230
f 556//215 586//215 557//215
f 557//216 592//216 565//216
f 593//217 565//217 592//217
f 569//218 593//218 594//218
f 597//219 569//219 594//219
f 596//231 568//231 597//231
f 563//221 596//221 595//221
f 587//222 563//222 595//222
f 562//223 587//223 584//223
f 583//224 562//224 584//224
f 581//225 561//225 583//225
f 559//232 581//232 580//232
f 579//227 559//227 580//227
f 554//228 579//228 578//228
f 554//233 582//233 555//233
f 556//230 582//230 585//230
f 368//234 424//234 421//234
f 364//235 417//235 416//235
f 366//236 378//236 375//236
f 399//236 385//236 418//236
f 368//236 420//236 367//236
f 379//236 380//236 417//236
f 417//70 422//70 423//70
f 420//70 421//70 424//70
f 393//237 364//237 416//237
f 371//237 395//237 423//237
f 366//58 364//58 371//58
f 367//58 372//58 368//58
f 384//238 396//238 395//238
f 385//239 404//239 396//239
f 399//240 406//240 404//240
f 406//241 400//241 405//241
f 405//242 398//242 403//242
f 403//243 397//243 402//243
f 397//244 394//244 402//244
f 379//245 394//245 380//245
f 379//246 390//246 393//246
f 377//247 389//247 390//247
f 376//248 386//248 389//248
f 373//249 387//249 386//249
f 374//250 388//250 387//250
f 378//251 388//251 375//251
f 391//252 381//252 392//252
f 382//253 395//253 392//253
f 137//17 4//17 186//17
f 367//18 420//18 276//18
f 276//18 267//18 370//18
f 370//254 433//254 424//254
f 370//18 424//18 372//18
f 367//18 276//18 370//18
f 433//18 276//18 420//18
f 187//19 268//19 276//19
f 541//25 538//25 539//25
f 537//255 516//255 515//255
f 541//25 539//25 537//25
f 475//25 493//25 450//25
f 473//256 474//256 475//256
f 541//25 537//25 515//25
f 473//25 475//25 450//25
f 512//25 541//25 515//25
f 515//25 473//25 450//25
f 448//26 450//26 493//26
f 495//26 538//26 541//26
f 448//26 493//26 495//26
f 546//32 648//32 654//32
f 653//257 652//257 687//257
f 546//32 654//32 653//32
f 639//32 688//32 643//32
f 653//258 687//258 639//258
f 639//32 643//32 546//32
f 643//32 688//32 654//32
f 643//259 432//259 642//259
f 636//260 570//260 553//260
f 643//259 637//259 636//259
f 418//37 419//37 277//37
f 432//261 422//261 418//261
f 552//37 642//37 432//37
f 431//37 552//37 432//37
f 431//37 432//37 418//37
f 553//37 431//37 418//37
f 277//37 643//37 636//37
f 636//37 553//37 418//37
f 138//38 87//38 16//38
f 138//38 16//38 13//38
f 85//38 189//38 3//38
f 15//38 85//38 3//38
f 138//38 13//38 12//38
f 138//38 12//38 9//38
f 11//38 15//38 3//38
f 3//38 138//38 9//38
f 87//262 138//262 546//262
f 87//263 546//263 95//263
f 178//40 180//40 189//40
f 87//264 95//264 93//264
f 93//40 178//40 189//40
f 85//265 87//265 93//265
f 180//40 95//40 546//40
f 277//266 362//266 323//266
f 323//267 303//267 301//267
f 299//268 300//268 322//268
f 277//266 323//266 301//266
f 277//266 301//266 299//266
f 360//41 369//41 266//41
f 322//269 360//269 266//269
f 266//266 277//266 299//266
f 369//266 360//266 362//266
f 362//270 277//270 419//270
f 384//271 383//271 382//271
f 362//272 419//272 384//272
f 423//270 422//270 432//270
f 371//273 423//273 432//273
f 362//42 384//42 382//42
f 362//42 382//42 366//42
f 371//42 432//42 369//42
f 369//274 362//274 366//274
f 188//43 546//43 193//43
f 188//43 193//43 191//43
f 264//43 270//43 269//43
f 188//43 191//43 264//43
f 277//275 269//275 270//275
f 270//43 193//43 546//43
f 136//276 135//276 447//276
f 512//277 513//277 542//277
f 449//278 448//278 541//278
f 136//279 2//279 1//279
f 1//280 2//280 138//280
f 142//281 143//281 144//281
f 139//282 447//282 143//282
f 512//283 145//283 144//283
f 648//284 544//284 543//284
f 644//285 643//285 648//285
f 544//286 448//286 449//286
f 644//287 433//287 432//287
f 186//58 4//58 3//58
f 186//288 189//288 546//288
f 3//76 4//76 137//76
f 370//58 267//58 266//58
f 370//289 369//289 432//289
f 277//290 266//290 267//290
f 187//58 188//58 269//58
f 268//291 269//291 277//291
f 546//292 188//292 187//292
f 86//58 62//58 63//58
f 64//58 67//58 89//58
f 86//58 63//58 64//58
f 61//58 62//58 86//58
f 10//58 22//58 17//58
f 10//58 17//58 23//58
f 60//58 61//58 86//58
f 51//58 60//58 86//58
f 86//58 10//58 23//58
f 86//58 23//58 29//58
f 55//58 51//58 86//58
f 55//58 86//58 29//58
f 55//58 29//58 30//58
f 54//58 55//58 30//58
f 54//58 30//58 31//58
f 53//58 54//58 31//58
f 53//58 31//58 32//58
f 56//58 53//58 32//58
f 56//58 32//58 33//58
f 57//58 56//58 33//58
f 57//58 33//58 27//58
f 58//58 57//58 27//58
f 58//58 27//58 26//58
f 59//58 58//58 26//58
f 59//58 26//58 25//58
f 21//58 20//58 5//58
f 89//58 67//58 66//58
f 89//58 66//58 65//58
f 24//58 21//58 5//58
f 25//58 24//58 5//58
f 89//58 65//58 59//58
f 59//58 25//58 5//58
f 10//58 5//58 20//58
f 10//58 20//58 19//58
f 18//58 22//58 10//58
f 6//66 5//66 7//66
f 6//68 8//68 41//68
f 85//69 86//69 88//69
f 37//70 7//70 14//70
f 14//70 39//70 35//70
f 36//70 37//70 14//70
f 92//70 83//70 80//70
f 79//70 78//70 88//70
f 92//70 80//70 79//70
f 82//70 83//70 92//70
f 7//70 37//70 38//70
f 7//70 38//70 42//70
f 81//70 82//70 92//70
f 75//70 81//70 92//70
f 7//70 42//70 43//70
f 7//70 43//70 44//70
f 75//70 92//70 7//70
f 74//70 75//70 7//70
f 74//70 7//70 44//70
f 73//70 74//70 44//70
f 73//70 44//70 45//70
f 72//70 73//70 45//70
f 72//70 45//70 50//70
f 69//70 72//70 50//70
f 69//70 50//70 49//70
f 70//70 69//70 49//70
f 70//70 49//70 48//70
f 71//70 70//70 48//70
f 71//70 48//70 47//70
f 52//70 71//70 47//70
f 52//70 47//70 46//70
f 76//70 52//70 46//70
f 76//70 46//70 40//70
f 88//70 78//70 77//70
f 88//70 77//70 76//70
f 34//70 39//70 14//70
f 88//70 76//70 40//70
f 40//70 34//70 14//70
f 28//68 41//68 84//68
f 68//68 84//68 91//68
f 14//71 10//71 9//71
f 14//73 13//73 16//73
f 15//74 11//74 10//74
f 89//75 90//75 91//75
f 7//76 5//76 10//76
f 86//77 89//77 92//77
f 25//79 26//79 44//79
f 24//80 25//80 43//80
f 21//81 24//81 42//81
f 20//82 21//82 38//82
f 19//83 20//83 37//83
f 18//84 19//84 36//84
f 18//85 35//85 39//85
f 17//86 22//86 39//86
f 17//87 34//87 40//87
f 23//88 40//88 46//88
f 29//89 46//89 47//89
f 30//90 47//90 48//90
f 31//91 48//91 49//91
f 32//92 49//92 50//92
f 27//93 33//93 50//93
f 26//94 27//94 45//94
f 59//79 65//79 81//79
f 58//80 59//80 75//80
f 57//81 58//81 74//81
f 56//82 57//82 73//82
f 53//83 56//83 72//83
f 54//84 53//84 69//84
f 54//85 70//85 71//85
f 51//86 55//86 71//86
f 51//87 52//87 76//87
f 60//88 76//88 77//88
f 61//89 77//89 78//89
f 62//90 78//90 79//90
f 63//91 79//91 80//91
f 64//92 80//92 83//92
f 66//93 67//93 83//93
f 65//94 66//94 82//94
f 108//66 107//66 110//66
f 179//58 157//58 158//58
f 159//58 160//58 182//58
f 179//58 158//58 159//58
f 156//58 157//58 179//58
f 94//58 98//58 99//58
f 94//58 99//58 100//58
f 149//58 156//58 179//58
f 148//58 149//58 179//58
f 179//58 94//58 100//58
f 179//58 100//58 101//58
f 146//58 148//58 179//58
f 146//58 179//58 101//58
f 146//58 101//58 116//58
f 147//58 146//58 116//58
f 147//58 116//58 117//58
f 150//58 147//58 117//58
f 150//58 117//58 119//58
f 151//58 150//58 119//58
f 151//58 119//58 120//58
f 152//58 151//58 120//58
f 152//58 120//58 118//58
f 153//58 152//58 118//58
f 153//58 118//58 121//58
f 154//58 153//58 121//58
f 154//58 121//58 115//58
f 113//58 112//58 107//58
f 182//58 160//58 155//58
f 182//58 155//58 176//58
f 114//58 113//58 107//58
f 115//58 114//58 107//58
f 182//58 176//58 154//58
f 154//58 115//58 107//58
f 97//58 98//58 94//58
f 94//58 107//58 112//58
f 111//58 97//58 94//58
f 94//76 96//76 110//76
f 178//69 179//69 181//69
f 122//68 123//68 185//68
f 108//68 109//68 123//68
f 96//71 94//71 93//71
f 94//78 179//78 178//78
f 110//70 96//70 103//70
f 110//70 103//70 102//70
f 124//70 125//70 110//70
f 173//70 172//70 181//70
f 181//70 184//70 175//70
f 174//70 173//70 181//70
f 170//70 175//70 184//70
f 110//70 125//70 126//70
f 110//70 126//70 127//70
f 177//70 170//70 184//70
f 169//70 177//70 184//70
f 110//70 127//70 128//70
f 110//70 128//70 134//70
f 169//70 184//70 110//70
f 168//70 169//70 110//70
f 168//70 110//70 134//70
f 167//70 168//70 134//70
f 167//70 134//70 131//70
f 166//70 167//70 131//70
f 166//70 131//70 133//70
f 165//70 166//70 133//70
f 165//70 133//70 132//70
f 162//70 165//70 132//70
f 162//70 132//70 130//70
f 161//70 162//70 130//70
f 161//70 130//70 129//70
f 163//70 161//70 129//70
f 163//70 129//70 106//70
f 164//70 163//70 106//70
f 164//70 106//70 105//70
f 181//70 172//70 171//70
f 181//70 171//70 164//70
f 104//70 103//70 96//70
f 181//70 164//70 105//70
f 105//70 104//70 96//70
f 96//72 95//72 180//72
f 179//77 182//77 184//77
f 182//75 183//75 185//75
f 115//79 121//79 134//79
f 114//80 115//80 128//80
f 113//81 114//81 127//81
f 112//82 113//82 126//82
f 111//83 112//83 125//83
f 97//84 111//84 124//84
f 97//85 102//85 103//85
f 98//86 103//86 104//86
f 99//87 104//87 105//87
f 100//88 105//88 106//88
f 101//89 106//89 129//89
f 116//90 129//90 130//90
f 117//91 130//91 132//91
f 119//92 132//92 133//92
f 118//93 120//93 133//93
f 121//94 118//94 131//94
f 154//79 176//79 177//79
f 168//80 153//80 154//80
f 152//114 153//114 168//114
f 151//82 152//82 167//82
f 150//83 151//83 166//83
f 147//84 150//84 165//84
f 147//85 162//85 161//85
f 146//86 161//86 163//86
f 148//87 163//87 164//87
f 149//88 164//88 171//88
f 156//89 171//89 172//89
f 158//90 157//90 172//90
f 158//91 173//91 174//91
f 159//92 174//92 175//92
f 155//93 160//93 175//93
f 176//94 155//94 170//94
f 333//58 334//58 361//58
f 298//58 305//58 306//58
f 298//58 306//58 307//58
f 332//58 333//58 361//58
f 331//58 332//58 361//58
f 361//58 298//58 307//58
f 361//58 307//58 308//58
f 326//58 331//58 361//58
f 326//58 361//58 308//58
f 326//58 308//58 309//58
f 325//58 326//58 309//58
f 325//58 309//58 310//58
f 324//58 325//58 310//58
f 324//58 310//58 312//58
f 327//58 324//58 312//58
f 327//58 312//58 311//58
f 328//58 327//58 311//58
f 328//58 311//58 286//58
f 329//58 328//58 286//58
f 329//58 286//58 285//58
f 330//58 329//58 285//58
f 330//58 285//58 284//58
f 282//58 280//58 278//58
f 351//58 348//58 347//58
f 351//58 347//58 346//58
f 283//58 282//58 278//58
f 284//58 283//58 278//58
f 351//58 346//58 330//58
f 330//58 284//58 278//58
f 361//58 334//58 350//58
f 349//58 348//58 351//58
f 361//58 350//58 349//58
f 305//58 298//58 278//58
f 278//58 280//58 281//58
f 304//58 305//58 278//58
f 351//101 359//101 363//101
f 292//70 291//70 289//70
f 289//70 302//70 314//70
f 313//70 292//70 289//70
f 359//70 355//70 356//70
f 357//70 345//70 363//70
f 359//70 356//70 357//70
f 354//70 355//70 359//70
f 289//70 291//70 293//70
f 289//70 293//70 294//70
f 353//70 354//70 359//70
f 341//70 353//70 359//70
f 289//70 294//70 295//70
f 289//70 295//70 296//70
f 341//70 359//70 289//70
f 340//70 341//70 289//70
f 340//70 289//70 296//70
f 339//70 340//70 296//70
f 339//70 296//70 297//70
f 338//70 339//70 297//70
f 338//70 297//70 320//70
f 335//70 338//70 320//70
f 335//70 320//70 321//70
f 336//70 335//70 321//70
f 336//70 321//70 319//70
f 337//70 336//70 319//70
f 337//70 319//70 318//70
f 342//70 337//70 318//70
f 342//70 318//70 317//70
f 343//70 342//70 317//70
f 343//70 317//70 316//70
f 363//70 345//70 344//70
f 363//70 344//70 343//70
f 315//70 314//70 302//70
f 363//70 343//70 316//70
f 316//70 315//70 302//70
f 278//103 298//103 302//103
f 360//105 361//105 363//105
f 322//104 300//104 298//104
f 302//106 298//106 299//106
f 288//107 279//107 278//107
f 279//108 288//108 290//108
f 287//108 290//108 358//108
f 302//109 303//109 323//109
f 352//293 358//293 359//293
f 286//79 311//79 320//79
f 285//80 286//80 297//80
f 295//96 284//96 285//96
f 294//82 283//82 284//82
f 282//83 283//83 294//83
f 280//97 282//97 293//97
f 280//85 291//85 292//85
f 281//86 292//86 313//86
f 304//87 313//87 314//87
f 305//88 314//88 315//88
f 307//98 306//98 315//98
f 308//116 307//116 316//116
f 308//91 317//91 318//91
f 309//99 318//99 319//99
f 312//93 310//93 319//93
f 311//94 312//94 321//94
f 347//79 348//79 355//79
f 346//80 347//80 354//80
f 341//96 330//96 346//96
f 340//82 329//82 330//82
f 328//83 329//83 340//83
f 327//97 328//97 339//97
f 327//85 338//85 335//85
f 324//86 335//86 336//86
f 325//87 336//87 337//87
f 326//294 337//294 342//294
f 332//98 331//98 342//98
f 332//90 343//90 344//90
f 333//91 344//91 345//91
f 334//99 345//99 357//99
f 349//93 350//93 357//93
f 348//94 349//94 356//94
f 190//118 192//118 214//118
f 195//120 213//120 220//120
f 192//121 190//121 191//121
f 212//120 220//120 274//120
f 272//123 273//123 274//123
f 265//124 272//124 275//124
f 191//125 190//125 265//125
f 195//295 194//295 214//295
f 214//70 192//70 216//70
f 214//70 216//70 215//70
f 221//70 222//70 214//70
f 260//70 259//70 271//70
f 271//70 275//70 262//70
f 261//70 260//70 271//70
f 258//70 262//70 275//70
f 214//70 222//70 223//70
f 214//70 223//70 224//70
f 263//70 258//70 275//70
f 257//70 263//70 275//70
f 214//70 224//70 225//70
f 214//70 225//70 226//70
f 257//70 275//70 214//70
f 252//70 257//70 214//70
f 252//70 214//70 226//70
f 251//70 252//70 226//70
f 251//70 226//70 231//70
f 250//70 251//70 231//70
f 250//70 231//70 230//70
f 249//70 250//70 230//70
f 249//70 230//70 229//70
f 248//70 249//70 229//70
f 248//70 229//70 228//70
f 253//70 248//70 228//70
f 253//70 228//70 227//70
f 254//70 253//70 227//70
f 254//70 227//70 219//70
f 255//70 254//70 219//70
f 255//70 219//70 218//70
f 271//70 259//70 256//70
f 271//70 256//70 255//70
f 217//70 216//70 192//70
f 271//70 255//70 218//70
f 218//70 217//70 192//70
f 264//127 265//127 271//127
f 265//58 243//58 244//58
f 245//58 246//58 272//58
f 265//58 244//58 245//58
f 240//58 243//58 265//58
f 190//58 197//58 198//58
f 190//58 198//58 199//58
f 240//58 265//58 190//58
f 239//58 240//58 190//58
f 190//58 199//58 200//58
f 190//58 200//58 207//58
f 238//58 239//58 190//58
f 237//58 238//58 190//58
f 237//58 190//58 207//58
f 232//58 237//58 207//58
f 232//58 207//58 208//58
f 233//58 232//58 208//58
f 233//58 208//58 209//58
f 234//58 233//58 209//58
f 234//58 209//58 210//58
f 235//58 234//58 210//58
f 235//58 210//58 211//58
f 236//58 235//58 211//58
f 236//58 211//58 206//58
f 241//58 236//58 206//58
f 241//58 206//58 205//58
f 203//58 202//58 194//58
f 272//58 246//58 242//58
f 272//58 242//58 247//58
f 204//58 203//58 194//58
f 205//58 204//58 194//58
f 272//58 247//58 241//58
f 241//58 205//58 194//58
f 197//58 190//58 194//58
f 194//58 202//58 201//58
f 196//58 197//58 194//58
f 193//128 270//128 271//128
f 225//79 205//79 206//79
f 224//80 204//80 205//80
f 223//96 203//96 204//96
f 222//82 202//82 203//82
f 201//83 202//83 222//83
f 196//97 201//97 221//97
f 197//85 196//85 215//85
f 197//86 216//86 217//86
f 198//87 217//87 218//87
f 199//88 218//88 219//88
f 207//98 200//98 219//98
f 208//90 207//90 227//90
f 208//91 228//91 229//91
f 209//99 229//99 230//99
f 211//93 210//93 230//93
f 206//94 211//94 231//94
f 241//79 247//79 263//79
f 236//80 241//80 257//80
f 251//81 235//81 236//81
f 250//82 234//82 235//82
f 233//83 234//83 250//83
f 232//84 233//84 249//84
f 232//85 248//85 253//85
f 237//86 253//86 254//86
f 238//87 254//87 255//87
f 239//88 255//88 256//88
f 243//98 240//98 256//98
f 244//90 243//90 259//90
f 244//91 260//91 261//91
f 245//92 261//92 262//92
f 242//93 246//93 262//93
f 247//94 242//94 258//94
f 640//130 631//130 632//130
f 640//131 632//131 633//131
f 676//130 675//130 689//130
f 674//296 676//296 689//296
f 689//130 640//130 633//130
f 689//297 633//297 629//297
f 681//298 674//298 689//298
f 686//299 681//299 689//299
f 689//296 629//296 628//296
f 689//130 628//130 627//130
f 686//130 689//130 627//130
f 686//130 627//130 626//130
f 685//131 686//131 626//131
f 685//297 626//297 625//297
f 680//130 685//130 625//130
f 680//130 625//130 624//130
f 679//131 680//131 624//131
f 679//296 624//296 613//296
f 661//130 679//130 613//130
f 661//300 613//300 614//300
f 660//131 661//131 614//131
f 677//301 660//301 614//301
f 616//131 622//131 602//131
f 650//297 671//297 670//297
f 650//297 670//297 678//297
f 615//297 616//297 602//297
f 614//131 615//131 602//131
f 650//130 678//130 677//130
f 677//130 614//130 602//130
f 640//130 602//130 622//130
f 640//130 622//130 623//130
f 634//131 631//131 640//131
f 671//130 650//130 689//130
f 689//296 675//296 673//296
f 672//130 671//130 689//130
f 645//302 646//302 650//302
f 646//134 651//134 689//134
f 599//135 602//135 640//135
f 669//138 651//138 646//138
f 646//303 665//303 666//303
f 667//138 669//138 646//138
f 599//304 618//304 617//304
f 599//138 617//138 611//138
f 658//305 665//305 646//305
f 659//138 658//138 646//138
f 599//306 611//306 610//306
f 599//307 610//307 612//307
f 655//305 659//305 646//305
f 655//138 646//138 599//138
f 655//138 599//138 612//138
f 656//304 655//304 612//304
f 656//138 612//138 603//138
f 657//303 656//303 603//303
f 657//138 603//138 604//138
f 662//138 657//138 604//138
f 662//139 604//139 605//139
f 663//138 662//138 605//138
f 663//138 605//138 606//138
f 664//303 663//303 606//303
f 664//305 606//305 607//305
f 682//303 664//303 607//303
f 682//138 607//138 608//138
f 683//305 682//305 608//305
f 683//138 608//138 609//138
f 684//308 683//308 609//308
f 630//303 621//303 638//303
f 609//138 630//138 638//138
f 651//138 669//138 668//138
f 684//138 609//138 638//138
f 651//305 668//305 684//305
f 619//138 618//138 599//138
f 599//138 638//138 621//138
f 620//138 619//138 599//138
f 688//140 640//140 689//140
f 598//141 601//141 602//141
f 638//142 639//142 687//142
f 639//143 638//143 640//143
f 653//144 654//144 689//144
f 601//146 649//146 650//146
f 657//147 662//147 679//147
f 656//309 657//309 661//309
f 655//149 656//149 660//149
f 659//150 655//150 677//150
f 658//151 659//151 678//151
f 671//152 665//152 658//152
f 666//153 665//153 671//153
f 673//154 667//154 666//154
f 669//155 667//155 673//155
f 676//310 668//310 669//310
f 676//157 674//157 684//157
f 683//311 684//311 674//311
f 682//159 683//159 681//159
f 685//160 664//160 682//160
f 663//312 664//312 685//312
f 680//162 679//162 662//162
f 616//147 617//147 618//147
f 611//309 617//309 616//309
f 611//149 615//149 614//149
f 612//313 610//313 614//313
f 603//151 612//151 613//151
f 625//152 604//152 603//152
f 605//314 604//314 625//314
f 606//154 605//154 626//154
f 628//155 607//155 606//155
f 628//156 629//156 608//156
f 609//157 608//157 629//157
f 632//311 630//311 609//311
f 621//159 630//159 632//159
f 634//160 620//160 621//160
f 623//161 619//161 620//161
f 622//162 618//162 619//162
f 498//165 497//165 455//165
f 455//166 514//166 505//166
f 455//315 505//315 500//315
f 499//166 498//166 455//166
f 523//316 526//316 529//316
f 455//166 497//166 496//166
f 455//165 496//165 501//165
f 522//166 523//166 529//166
f 521//165 522//165 529//165
f 529//166 455//166 501//166
f 529//317 501//317 502//317
f 521//166 529//166 502//166
f 521//166 502//166 503//166
f 517//317 521//317 503//317
f 517//165 503//165 504//165
f 520//166 517//166 504//166
f 520//166 504//166 508//166
f 519//165 520//165 508//165
f 519//165 508//165 509//165
f 524//166 519//166 509//166
f 524//166 509//166 510//166
f 525//165 524//165 510//165
f 525//166 510//166 511//166
f 530//166 525//166 511//166
f 530//316 511//316 507//316
f 531//317 530//317 507//317
f 506//166 505//166 514//166
f 534//318 531//318 507//318
f 507//166 506//166 514//166
f 540//166 535//166 534//166
f 534//166 507//166 514//166
f 540//166 529//166 526//166
f 540//166 526//166 532//166
f 536//165 535//165 540//165
f 540//165 532//165 533//165
f 455//167 529//167 528//167
f 486//170 529//170 540//170
f 489//171 492//171 494//171
f 456//171 466//171 467//171
f 456//319 467//319 468//319
f 489//171 494//171 456//171
f 488//171 489//171 456//171
f 456//171 468//171 472//171
f 488//171 456//171 472//171
f 487//172 488//172 472//172
f 487//171 472//171 471//171
f 483//171 487//171 471//171
f 483//171 471//171 470//171
f 480//172 483//172 470//172
f 480//172 470//172 469//172
f 479//171 480//171 469//171
f 479//171 469//171 465//171
f 477//171 479//171 465//171
f 477//172 465//172 464//172
f 476//171 477//171 464//171
f 476//171 464//171 463//171
f 478//320 476//320 463//320
f 478//321 463//321 458//321
f 457//171 460//171 452//171
f 486//319 484//319 482//319
f 486//171 482//171 481//171
f 458//320 457//320 452//320
f 486//172 481//172 478//172
f 478//171 458//171 452//171
f 485//171 484//171 486//171
f 486//171 494//171 492//171
f 486//319 492//319 491//319
f 490//319 485//319 486//319
f 466//171 456//171 452//171
f 452//171 460//171 459//171
f 452//171 459//171 461//171
f 462//319 466//319 452//319
f 452//322 455//322 454//322
f 452//174 456//174 514//174
f 538//176 495//176 494//176
f 494//323 540//323 539//323
f 475//175 456//175 494//175
f 494//175 495//175 493//175
f 486//177 527//177 528//177
f 540//178 514//178 537//178
f 514//179 456//179 473//179
f 496//180 457//180 458//180
f 497//181 460//181 457//181
f 498//324 459//324 460//324
f 459//183 498//183 499//183
f 462//184 461//184 499//184
f 466//185 462//185 500//185
f 467//186 466//186 505//186
f 467//187 506//187 507//187
f 472//188 468//188 507//188
f 472//325 511//325 510//325
f 470//326 471//326 510//326
f 508//191 469//191 470//191
f 465//192 469//192 508//192
f 503//193 464//193 465//193
f 463//194 464//194 503//194
f 501//195 458//195 463//195
f 476//180 478//180 521//180
f 477//327 476//327 517//327
f 479//182 477//182 520//182
f 479//183 519//183 524//183
f 483//184 480//184 524//184
f 483//185 525//185 530//185
f 488//186 487//186 530//186
f 488//187 531//187 534//187
f 492//188 489//188 534//188
f 492//325 535//325 536//325
f 491//326 536//326 533//326
f 532//191 485//191 490//191
f 484//192 485//192 532//192
f 482//193 484//193 526//193
f 481//194 482//194 523//194
f 521//195 478//195 481//195
f 596//197 597//197 641//197
f 641//197 434//197 446//197
f 641//328 446//328 573//328
f 595//197 596//197 641//197
f 587//197 595//197 641//197
f 641//197 573//197 576//197
f 641//197 576//197 575//197
f 584//197 587//197 641//197
f 584//197 641//197 575//197
f 584//197 575//197 574//197
f 583//197 584//197 574//197
f 583//198 574//198 572//198
f 581//197 583//197 572//197
f 581//197 572//197 571//197
f 580//197 581//197 571//197
f 580//197 571//197 440//197
f 579//197 580//197 440//197
f 579//197 440//197 439//197
f 578//197 579//197 439//197
f 578//198 439//198 438//198
f 582//329 578//329 438//329
f 591//197 586//197 585//197
f 436//197 442//197 441//197
f 437//197 436//197 441//197
f 591//198 585//198 582//198
f 438//197 437//197 441//197
f 591//197 582//197 438//197
f 592//197 586//197 591//197
f 591//197 641//197 597//197
f 591//198 597//198 594//198
f 593//198 592//198 591//198
f 434//197 441//197 442//197
f 434//197 442//197 443//197
f 445//197 446//197 434//197
f 434//197 443//197 444//197
f 434//199 641//199 642//199
f 589//330 588//330 590//330
f 407//201 441//201 434//201
f 590//203 635//203 641//203
f 635//202 430//202 570//202
f 425//205 410//205 407//205
f 430//331 428//331 427//331
f 426//205 425//205 407//205
f 430//205 427//205 426//205
f 590//205 557//205 565//205
f 590//331 565//331 566//331
f 568//205 635//205 590//205
f 590//205 566//205 569//205
f 556//205 557//205 590//205
f 407//205 410//205 409//205
f 407//205 409//205 411//205
f 555//331 556//331 590//331
f 554//332 555//332 590//332
f 407//205 411//205 413//205
f 407//333 413//333 414//333
f 554//205 590//205 407//205
f 560//205 554//205 407//205
f 560//205 407//205 414//205
f 559//205 560//205 414//205
f 559//331 414//331 415//331
f 558//205 559//205 415//205
f 558//205 415//205 547//205
f 561//205 558//205 547//205
f 561//205 547//205 548//205
f 562//331 561//331 548//331
f 562//205 548//205 550//205
f 564//205 562//205 550//205
f 564//205 550//205 549//205
f 563//205 564//205 549//205
f 563//205 549//205 551//205
f 635//205 568//205 567//205
f 563//334 551//334 429//334
f 635//205 567//205 563//205
f 428//205 430//205 635//205
f 635//205 563//205 429//205
f 641//208 635//208 636//208
f 636//335 637//335 642//335
f 431//209 430//209 434//209
f 441//210 435//210 589//210
f 412//212 408//212 407//212
f 407//213 408//213 435//213
f 414//215 439//215 440//215
f 415//216 440//216 571//216
f 548//217 547//217 571//217
f 574//336 550//336 548//336
f 549//219 550//219 574//219
f 551//220 549//220 575//220
f 429//221 551//221 576//221
f 428//222 429//222 573//222
f 427//223 428//223 446//223
f 426//224 427//224 445//224
f 443//225 425//225 426//225
f 442//337 410//337 425//337
f 409//227 410//227 442//227
f 437//228 411//228 409//228
f 411//233 437//233 438//233
f 413//230 438//230 439//230
f 556//215 585//215 586//215
f 557//216 586//216 592//216
f 593//217 566//217 565//217
f 569//338 566//338 593//338
f 597//339 568//339 569//339
f 596//220 567//220 568//220
f 563//221 567//221 596//221
f 587//222 564//222 563//222
f 562//223 564//223 587//223
f 583//224 561//224 562//224
f 581//225 558//225 561//225
f 559//337 558//337 581//337
f 579//340 560//340 559//340
f 554//341 560//341 579//341
f 554//229 578//229 582//229
f 556//230 555//230 582//230
f 368//234 372//234 424//234
f 364//235 365//235 417//235
f 374//236 365//236 366//236
f 366//342 382//342 381//342
f 366//236 381//236 378//236
f 375//236 374//236 366//236
f 418//236 417//236 400//236
f 418//236 400//236 401//236
f 384//236 419//236 418//236
f 385//343 384//343 418//343
f 418//236 401//236 399//236
f 368//236 421//236 420//236
f 365//236 374//236 373//236
f 365//236 373//236 376//236
f 398//236 400//236 417//236
f 397//236 398//236 417//236
f 365//236 376//236 377//236
f 365//236 377//236 379//236
f 380//236 397//236 417//236
f 417//236 365//236 379//236
f 423//70 416//70 417//70
f 417//70 418//70 422//70
f 386//237 387//237 364//237
f 416//237 405//237 403//237
f 416//237 403//237 402//237
f 389//237 386//237 364//237
f 390//237 389//237 364//237
f 416//237 402//237 394//237
f 393//237 390//237 364//237
f 416//237 394//237 393//237
f 371//237 364//237 387//237
f 371//237 387//237 388//237
f 405//237 416//237 423//237
f 406//237 405//237 423//237
f 371//237 388//237 391//237
f 371//237 391//237 392//237
f 404//237 406//237 423//237
f 396//344 404//344 423//344
f 371//237 392//237 395//237
f 395//345 396//345 423//345
f 366//58 365//58 364//58
f 395//238 383//238 384//238
f 384//346 385//346 396//346
f 385//239 399//239 404//239
f 399//240 401//240 406//240
f 406//241 401//241 400//241
f 405//242 400//242 398//242
f 403//243 398//243 397//243
f 397//244 380//244 394//244
f 379//245 393//245 394//245
f 379//246 377//246 390//246
f 377//247 376//247 389//247
f 376//248 373//248 386//248
f 373//249 374//249 387//249
f 374//250 375//250 388//250
f 378//251 391//251 388//251
f 391//252 378//252 381//252
f 392//347 381//347 382//347
f 382//348 383//348 395//348
