# Blender 5.2.0 LTS
# www.blender.org
o V11_LOWER_COMPONENT_016
v 61.016953 75.196861 38.211098
v 56.927746 75.020508 43.945843
v 60.194458 80.257454 43.058220
v 62.151539 73.755798 41.765823
v 58.178349 85.073265 43.593441
v 60.690258 94.338600 42.874794
v 62.990467 91.701988 36.759460
v 60.336170 86.063980 41.163166
v 66.988335 79.274956 47.552559
v 64.308731 84.162254 51.862324
v 63.118423 82.459534 39.353241
v 65.278473 87.778198 46.198673
v 62.900669 83.156410 38.781715
v 62.049072 83.828796 37.451912
v 62.342213 86.280441 37.236290
v 65.082420 93.233887 39.227139
v 63.261063 82.842140 39.465263
v 62.301888 93.992188 41.656776
v 62.328796 94.011902 41.688545
v 60.821625 90.296806 40.616074
v 60.905476 88.829903 39.720482
v 60.324947 88.030220 40.544926
v 59.725540 83.912209 40.833504
v 60.166531 83.931969 40.106785
v 61.466908 87.509941 38.565395
v 60.337303 83.928650 39.866436
v 64.938660 88.778236 45.389633
v 64.929398 88.755234 45.383221
v 63.130363 91.944283 43.353973
v 64.316673 89.009377 45.789391
v 63.684521 82.471893 40.268738
v 67.486404 81.096283 46.873211
v 63.156075 79.066780 40.475155
v 63.156395 79.146004 40.450901
v 63.186352 80.821770 39.975616
v 65.588570 82.498245 50.250046
v 68.469620 81.636604 48.540482
v 66.139732 83.500175 50.699638
v 68.221634 81.488029 48.086792
v 65.837257 84.406731 49.922367
v 65.299118 87.757080 46.235500
v 65.288116 87.752510 46.220798
v 65.634918 84.930367 49.432438
v 64.927582 87.809319 46.614101
v 64.631714 87.855423 46.884132
v 64.838737 87.820396 46.698650
v 64.373192 87.372368 44.997520
v 61.924839 82.859505 40.576771
v 63.176899 82.737656 39.471928
v 63.219265 82.849518 39.504135
v 63.667564 87.383186 45.333492
v 63.710773 87.380386 45.311920
v 60.366882 86.060669 41.136150
v 60.366772 85.988914 41.155437
v 60.401505 83.355431 41.916542
v 63.176174 82.884407 39.433346
v 61.850704 83.142433 40.568470
v 61.503922 83.199501 40.868244
v 63.131866 82.465675 39.373158
v 63.562374 82.579063 40.036858
v 63.094723 82.367859 39.343410
v 63.039314 82.552994 39.646290
v 63.551025 82.580605 40.049259
v 63.178440 82.425377 39.554024
v 62.909393 82.449074 39.792103
vn 0.7976 -0.1468 -0.5850
vn 0.8399 -0.1618 -0.5181
vn -0.7636 0.2531 0.5940
vn -0.7912 0.1195 0.5998
vn 0.3119 -0.5265 0.7909
vn 0.0088 -0.6587 0.7524
vn -0.1378 0.8896 -0.4354
vn -0.8831 0.2067 -0.4213
vn -0.8527 0.0880 -0.5150
vn -0.8526 0.0880 -0.5150
vn -0.3292 -0.9070 -0.2626
vn -0.8140 0.0464 -0.5790
vn 0.8545 -0.3946 -0.3378
vn 0.8500 -0.3346 -0.4069
vn 0.5688 0.6425 0.5135
vn 0.5679 0.6429 0.5139
vn 0.3910 -0.3901 0.8336
vn 0.1454 0.9893 -0.0091
vn 0.8138 -0.1725 -0.5550
vn 0.0107 0.9535 -0.3013
vn 0.5768 -0.4205 0.7003
vn 0.5296 -0.4197 0.7371
vn -0.3909 0.3898 -0.8338
vn 0.7995 -0.1570 -0.5797
vn 0.3632 0.9048 0.2224
vn 0.3672 0.9027 0.2243
vn 0.0737 0.9351 -0.3465
vn -0.1741 -0.6963 0.6963
vn 0.0753 -0.9660 0.2474
vn -0.8119 0.1447 0.5655
vn 0.6892 0.2096 0.6936
vn 0.8126 -0.1987 -0.5479
vn -0.1102 0.9691 -0.2208
vn 0.8043 -0.4301 0.4101
vn 0.8403 -0.1618 -0.5174
vn 0.8403 -0.1616 -0.5175
vn 0.8403 -0.1618 -0.5175
vn 0.0874 -0.7564 0.6483
vn -0.1378 0.8897 -0.4353
vn 0.5927 0.6419 0.4866
vn 0.5934 0.6301 0.5009
vn 0.8201 -0.1308 -0.5571
vn 0.5219 0.6614 0.5387
vn 0.5638 0.6379 0.5246
vn 0.8128 -0.1985 -0.5477
vn 0.5983 0.6314 0.4934
vn 0.5610 0.6466 0.5168
vn 0.5543 0.6508 0.5188
vn -0.0968 0.9686 -0.2289
vn 0.8137 -0.1727 -0.5551
vn 0.0108 0.9535 -0.3012
vn 0.5770 -0.4202 0.7003
vn 0.5771 -0.4201 0.7003
vn 0.5296 -0.4198 0.7371
vn -0.3910 0.3898 -0.8338
vn -0.3913 0.3899 -0.8336
vn 0.7996 -0.1569 -0.5797
vn 0.8001 -0.1570 -0.5790
vn 0.7996 -0.1571 -0.5796
vn 0.7998 -0.1572 -0.5794
vn 0.3663 0.9035 0.2224
vn 0.3662 0.9036 0.2224
vn 0.8144 -0.0467 0.5784
vn 0.3570 0.9025 0.2411
vn 0.3570 0.9025 0.2412
vn 0.3663 0.9036 0.2223
vn 0.0738 0.9352 -0.3464
vn 0.0739 0.9350 -0.3468
vn 0.3906 -0.3896 0.8340
vn 0.0968 -0.9687 0.2286
vn 0.0978 -0.9683 0.2297
vn 0.0944 -0.9687 0.2295
vn 0.0618 -0.9648 0.2554
vn -0.8120 0.1447 0.5655
vn 0.6596 0.1942 0.7261
vn 0.6593 0.1945 0.7263
vn 0.7987 -0.1565 -0.5810
vn 0.4856 0.7800 0.3947
vn 0.6596 0.1941 0.7261
vn 0.6720 0.0731 0.7370
vn 0.6579 0.2165 0.7213
vn 0.6892 0.2095 0.6937
vn 0.6598 0.1940 0.7260
vn 0.6567 0.5057 0.5595
vn 0.6739 0.1927 0.7133
vn 0.8127 -0.1985 -0.5479
vn 0.8127 -0.2018 -0.5467
vn -0.1099 0.9691 -0.2207
vn -0.1101 0.9691 -0.2209
vn 0.8042 -0.4302 0.4100
s 0
f 15//1 7//1 16//1
f 1//2 11//2 61//2
f 10//3 6//3 5//3
f 10//4 5//4 2//4
f 10//5 9//5 36//5
f 2//6 9//6 10//6
f 18//7 7//7 6//7
f 6//8 21//8 20//8
f 23//9 2//9 22//9
f 21//10 7//10 25//10
f 1//11 4//11 2//11
f 1//12 24//12 26//12
f 25//12 7//12 15//12
f 39//13 9//13 4//13
f 32//14 4//14 1//14
f 30//15 10//15 45//15
f 46//16 44//16 45//16
f 30//17 28//17 27//17
f 44//18 42//18 45//18
f 12//19 47//19 28//19
f 11//20 62//20 59//20
f 11//21 50//21 49//21
f 25//22 16//22 20//22
f 28//23 52//23 51//23
f 20//24 29//24 53//24
f 14//25 24//25 57//25
f 63//26 31//26 60//26
f 32//27 3//27 37//27
f 42//28 41//28 47//28
f 51//29 44//29 45//29
f 31//30 64//30 35//30
f 50//30 56//30 49//30
f 55//31 3//31 34//31
f 3//32 45//32 43//32
f 61//33 64//33 63//33
f 61//34 62//34 65//34
f 61//35 60//35 31//35
f 61//35 31//35 35//35
f 11//36 59//36 61//36
f 13//35 17//35 11//35
f 1//1 14//1 13//1
f 33//35 32//35 1//35
f 61//35 35//35 34//35
f 34//37 33//37 1//37
f 1//35 13//35 11//35
f 61//35 34//35 1//35
f 9//5 37//5 36//5
f 36//5 38//5 10//5
f 2//38 4//38 9//38
f 18//7 16//7 7//7
f 6//39 19//39 18//39
f 20//8 22//8 5//8
f 6//8 7//8 21//8
f 20//8 5//8 6//8
f 23//10 24//10 2//10
f 2//10 5//10 22//10
f 26//12 14//12 1//12
f 1//12 2//12 24//12
f 39//13 37//13 9//13
f 32//14 39//14 4//14
f 45//40 42//40 12//40
f 12//41 28//41 30//41
f 30//42 29//42 19//42
f 19//43 6//43 10//43
f 10//44 38//44 40//44
f 40//45 43//45 45//45
f 45//46 12//46 30//46
f 30//47 19//47 10//47
f 10//48 40//48 45//48
f 44//49 41//49 42//49
f 12//50 42//50 47//50
f 11//51 48//51 62//51
f 49//52 48//52 11//52
f 11//53 17//53 50//53
f 20//22 21//22 25//22
f 25//54 15//54 16//54
f 16//22 18//22 20//22
f 51//55 30//55 27//55
f 28//55 47//55 52//55
f 51//56 27//56 28//56
f 54//24 55//24 23//24
f 23//24 22//24 20//24
f 20//57 18//57 19//57
f 29//58 30//58 51//58
f 20//24 19//24 29//24
f 53//59 54//59 23//59
f 29//60 51//60 53//60
f 53//24 23//24 20//24
f 56//61 50//61 17//61
f 17//62 13//62 14//62
f 14//63 26//63 24//63
f 24//64 23//64 55//64
f 24//65 55//65 58//65
f 56//66 17//66 14//66
f 24//64 58//64 57//64
f 57//66 56//66 14//66
f 37//67 39//67 32//67
f 32//27 33//27 3//27
f 3//68 36//68 37//68
f 51//69 52//69 47//69
f 47//70 41//70 44//70
f 45//71 8//71 53//71
f 51//72 47//72 44//72
f 45//73 53//73 51//73
f 31//74 63//74 64//74
f 48//75 49//75 56//75
f 56//76 57//76 58//76
f 55//77 54//77 53//77
f 56//78 58//78 55//78
f 65//79 62//79 48//79
f 48//80 56//80 55//80
f 55//81 53//81 8//81
f 3//82 33//82 34//82
f 34//83 35//83 64//83
f 65//84 48//84 55//84
f 34//79 64//79 65//79
f 55//31 8//31 3//31
f 34//85 65//85 55//85
f 43//86 40//86 38//86
f 38//87 36//87 3//87
f 3//32 8//32 45//32
f 43//32 38//32 3//32
f 63//88 60//88 61//88
f 61//89 65//89 64//89
f 61//90 59//90 62//90
