# Blender 5.2.0 LTS
# www.blender.org
o V11_LOWER_COMPONENT_009
v 101.704453 175.929932 82.964127
v 102.734726 175.836777 82.355972
v 101.307358 177.636353 81.617210
v 102.158012 177.559433 81.115082
v 101.127762 177.652634 81.723267
v 101.158569 177.560516 81.789566
v 105.534027 183.823776 88.242538
v 105.564850 183.731689 88.308868
v 105.713638 183.807526 88.136513
v 106.564293 183.730606 87.634384
v 106.110733 182.101105 89.483421
v 106.110733 182.101105 89.483429
v 107.140999 182.007935 88.875267
vn 0.2621 -0.7830 0.5640
vn -0.4406 -0.6171 -0.6519
vn -0.8585 0.0776 0.5069
vn 0.4407 0.6171 0.6519
vn -0.2621 0.7830 -0.5641
vn 0.8586 -0.0776 -0.5068
vn 0.4406 0.6171 0.6519
vn -0.4405 -0.6170 -0.6521
vn -0.8586 0.0776 0.5068
vn -0.0000 -0.0000 1.0000
vn -0.8586 0.0777 0.5067
vn -0.4410 -0.6167 -0.6521
vn -0.4532 0.8702 -0.1934
vn -0.2621 0.7830 -0.5640
vn 0.4406 0.6171 0.6520
s 0
f 2//1 11//1 1//1
f 6//2 4//2 2//2
f 8//3 5//3 6//3
f 7//4 8//4 9//4
f 5//5 9//5 4//5
f 2//6 10//6 13//6
f 11//7 10//7 8//7
f 2//1 13//1 11//1
f 2//2 1//2 6//2
f 6//8 3//8 4//8
f 6//9 1//9 11//9
f 11//10 12//10 8//10
f 8//11 7//11 5//11
f 5//12 3//12 6//12
f 6//9 11//9 8//9
f 4//13 3//13 5//13
f 5//5 7//5 9//5
f 9//14 10//14 4//14
f 2//6 4//6 10//6
f 11//7 13//7 10//7
f 10//15 9//15 8//15
