# Blender 5.2.0 LTS
# www.blender.org
o V11_LOWER_COMPONENT_046
v 26.578976 232.650787 73.341866
v 29.281744 236.574783 70.034698
v 31.755651 233.735092 68.687149
v 86.693878 250.724747 133.743637
v 81.517204 249.640442 138.398346
v 84.219971 253.564438 135.091187
vn 0.6327 0.1957 0.7493
vn -0.6327 -0.1957 -0.7493
vn 0.4660 0.6766 -0.5702
vn -0.6185 0.7099 0.3369
vn 0.2446 -0.9685 0.0464
s 0
f 4//1 6//1 5//1
f 1//2 2//2 3//2
f 3//3 6//3 4//3
f 6//4 1//4 5//4
f 1//5 4//5 5//5
f 3//3 2//3 6//3
f 6//4 2//4 1//4
f 1//5 3//5 4//5
