# Blender 5.2.0 LTS
# www.blender.org
o V11_LOWER_COMPONENT_050
v 33.651264 229.128601 70.958687
v 34.127201 233.668747 69.371109
v 35.444199 232.378586 68.595871
v 86.058617 245.335571 133.018158
v 86.534554 249.875717 131.430573
v 87.851555 248.585556 130.655334
vn 0.6327 0.1957 0.7492
vn -0.6327 -0.1957 -0.7492
vn 0.4075 0.7386 -0.5370
vn 0.6585 -0.6451 -0.3876
vn -0.7681 0.2816 0.5751
s 0
f 4//1 6//1 5//1
f 1//2 2//2 3//2
f 6//3 2//3 5//3
f 4//4 3//4 6//4
f 5//5 1//5 4//5
f 6//3 3//3 2//3
f 4//4 1//4 3//4
f 5//5 2//5 1//5
