# Blender 5.2.0 LTS
# www.blender.org
o V11_LOWER_COMPONENT_017
v 28.697491 227.926193 70.478203
v 29.102182 237.126129 74.257683
v 34.130653 224.341934 62.626415
v 36.658676 227.239563 63.727737
v 34.130653 222.281311 68.048019
v 34.919250 234.713440 72.433403
v 32.445343 237.553131 73.780952
v 29.102182 232.013824 76.997070
v 29.742577 233.629135 77.088120
vn 0.6327 0.1957 0.7493
vn 0.0297 0.6321 0.7743
vn -0.7963 0.2857 0.5331
vn 0.6555 -0.2990 0.6935
vn 0.5291 0.6932 -0.4894
vn 0.9245 -0.1776 0.3372
vn -0.7196 0.2907 -0.6306
vn -0.9986 0.0249 0.0464
vn -0.5222 -0.7076 0.4761
vn 0.7750 -0.5908 -0.2245
vn -0.7489 -0.6195 -0.2354
vn -0.1880 0.6451 -0.7406
vn 0.6733 -0.2836 0.6828
vn -0.3181 0.5665 -0.7602
s 0
f 6//1 7//1 9//1
f 2//2 9//2 7//2
f 2//3 8//3 9//3
f 5//4 9//4 8//4
f 4//5 7//5 6//5
f 6//6 5//6 4//6
f 1//7 2//7 3//7
f 1//8 8//8 2//8
f 1//9 5//9 8//9
f 3//10 4//10 5//10
f 1//11 3//11 5//11
f 4//12 2//12 7//12
f 6//13 9//13 5//13
f 4//14 3//14 2//14
