# Blender 5.2.0 LTS
# www.blender.org
o V11_LOWER_COMPONENT_015
v 86.265297 178.588287 47.875172
v 81.721313 179.243484 51.419594
v 79.126801 190.040344 49.589134
v 81.654823 192.937973 50.690456
v 79.126801 187.979721 55.010738
v 84.516167 194.371582 54.671986
v 88.721153 179.760117 50.806992
v 88.168808 193.028305 55.596008
v 90.138535 192.473129 57.022991
v 92.682678 189.544724 56.047375
v 82.152756 190.087494 57.786613
v 86.802803 188.642380 59.822666
vn -0.4460 -0.4504 0.7735
vn -0.4676 -0.3799 0.7982
vn 0.5075 -0.5574 0.6571
vn -0.7750 0.5908 0.2245
vn -0.9643 -0.2477 -0.0941
vn 0.4916 0.3171 -0.8111
vn -0.6158 -0.2733 -0.7390
vn 0.0962 -0.9494 0.2989
vn 0.5145 0.1667 0.8411
vn -0.7265 0.6185 0.2994
vn 0.4072 0.7261 -0.5541
vn 0.3771 0.9112 -0.1660
vn 0.4954 0.5553 -0.6680
vn 0.7576 0.0422 -0.6514
vn 0.5560 0.6540 -0.5130
vn -0.1006 0.6427 0.7595
vn 0.1134 -0.6956 0.7094
vn 0.1479 0.2360 -0.9604
vn -0.7160 0.6290 0.3029
vn -0.1381 0.6311 0.7633
s 0
f 2//1 12//1 5//1
f 5//2 12//2 11//2
f 12//3 7//3 10//3
f 3//4 5//4 4//4
f 2//5 5//5 3//5
f 1//6 4//6 10//6
f 1//7 2//7 3//7
f 1//8 7//8 2//8
f 9//9 12//9 10//9
f 4//10 11//10 6//10
f 4//11 6//11 8//11
f 6//12 9//12 8//12
f 4//13 8//13 10//13
f 1//14 10//14 7//14
f 9//15 10//15 8//15
f 6//16 12//16 9//16
f 12//17 2//17 7//17
f 1//18 3//18 4//18
f 4//19 5//19 11//19
f 6//20 11//20 12//20
