# Blender 5.2.0 LTS
# www.blender.org
o V11_LOWER_COMPONENT_018
v 0.800000 39.986084 8.381157
v 0.800000 183.501434 54.717415
v 6.800000 183.501434 54.717415
v 6.800000 39.986084 8.381157
v 0.800000 42.136826 1.719753
v 0.800000 185.652191 48.056007
v 6.800000 185.652191 48.056007
v 6.800000 42.136826 1.719753
vn -0.0000 -0.3072 0.9516
vn -0.0000 0.3072 -0.9516
vn -1.0000 -0.0000 -0.0000
vn -0.0000 0.9516 0.3073
vn 1.0000 -0.0000 -0.0000
vn -0.0000 -0.9516 -0.3072
vn -0.0000 0.9516 0.3072
s 0
f 4//1 2//1 1//1
f 6//2 8//2 5//2
f 1//3 6//3 5//3
f 3//4 6//4 2//4
f 4//5 7//5 3//5
f 1//6 8//6 4//6
f 4//1 3//1 2//1
f 6//2 7//2 8//2
f 1//3 2//3 6//3
f 3//7 7//7 6//7
f 4//5 8//5 7//5
f 1//6 5//6 8//6
