# Blender 5.2.0 LTS
# www.blender.org
o V11_LOWER_COMPONENT_028
v 53.437767 117.453819 28.212605
v 60.347679 108.757866 28.411779
v 58.047470 111.394478 34.527111
v 62.685421 110.469749 31.169388
v 62.392048 125.453598 27.091484
v 57.848064 126.108795 30.635904
v 63.586662 122.277962 29.210022
vn -0.5035 0.4611 -0.7307
vn -0.0610 -0.0713 -0.9956
vn -0.7824 -0.6223 -0.0260
vn -0.7105 0.1709 0.6827
vn 0.5450 0.5974 0.5882
vn 0.7549 -0.1431 -0.6401
vn 0.7993 -0.1572 -0.5800
vn 0.1378 -0.8896 0.4354
vn 0.3825 0.2411 0.8919
vn 0.5955 0.0871 0.7986
s 0
f 1//1 6//1 5//1
f 1//2 5//2 2//2
f 1//3 2//3 3//3
f 1//4 3//4 6//4
f 5//5 6//5 7//5
f 2//6 5//6 7//6
f 2//7 7//7 4//7
f 2//8 4//8 3//8
f 3//9 7//9 6//9
f 3//10 4//10 7//10
