# Blender 5.2.0 LTS
# www.blender.org
o V11_LOWER_COMPONENT_037
v 62.188747 31.144438 74.783676
v 66.364922 28.806673 74.109550
v 65.742401 29.861559 72.528511
v 78.383553 50.003624 80.990166
v 74.829895 51.286503 83.245331
v 79.006073 48.948738 82.571205
vn -0.5008 -0.7980 -0.3352
vn 0.5008 0.7980 0.3352
vn 0.8076 -0.2916 -0.5125
vn -0.3113 0.5274 -0.7905
vn -0.0508 -0.3595 0.9318
s 0
f 1//1 3//1 2//1
f 4//2 5//2 6//2
f 6//3 3//3 4//3
f 4//4 1//4 5//4
f 5//5 2//5 6//5
f 6//3 2//3 3//3
f 4//4 3//4 1//4
f 5//5 1//5 2//5
