# Blender 5.2.0 LTS
# www.blender.org
o V11_LOWER_COMPONENT_011
v 20.093767 0.129408 91.230354
v 30.179934 9.730028 81.615410
v 26.970789 11.528494 80.044777
v 16.884623 1.927873 89.659721
v 20.231085 3.026980 94.267662
v 30.317251 12.627600 84.652718
v 27.108107 14.426065 83.082085
v 17.021940 4.825445 92.697029
vn -0.0327 -0.6899 -0.7232
vn 0.0327 0.6899 0.7232
vn 0.8023 -0.4496 0.3927
vn 0.5960 0.5674 -0.5682
vn -0.8023 0.4496 -0.3927
vn -0.5960 -0.5674 0.5682
s 0
f 1//1 3//1 2//1
f 6//2 8//2 5//2
f 1//3 6//3 5//3
f 3//4 6//4 2//4
f 4//5 7//5 3//5
f 1//6 8//6 4//6
f 1//1 4//1 3//1
f 6//2 7//2 8//2
f 1//3 2//3 6//3
f 3//4 7//4 6//4
f 4//5 8//5 7//5
f 1//6 5//6 8//6
