# Blender 5.2.0 LTS
# www.blender.org
o V11_LOWER_COMPONENT_054
v 89.274902 159.413635 62.018490
v 92.034683 158.479431 58.162220
v 93.046539 159.089920 59.775742
v 86.799675 183.834503 54.330971
v 89.559456 182.900299 50.474701
v 90.571312 183.510788 52.088223
vn -0.0962 0.9494 -0.2989
vn 0.0962 -0.9494 0.2989
vn 0.8572 -0.0736 -0.5097
vn 0.5059 0.3052 0.8068
vn -0.8153 -0.2474 -0.5235
s 0
f 4//1 6//1 5//1
f 1//2 2//2 3//2
f 2//3 6//3 3//3
f 4//4 3//4 6//4
f 1//5 5//5 2//5
f 2//3 5//3 6//3
f 4//4 1//4 3//4
f 1//5 4//5 5//5
