# Blender 5.2.0 LTS
# www.blender.org
o V11_LOWER_COMPONENT_060
v 78.353600 248.662094 134.652084
v 83.032509 243.056931 131.312103
v 85.395920 247.341019 128.197479
v 81.056366 252.586090 131.344925
v 89.048561 245.997742 129.121490
v 86.589859 246.303986 140.324631
vn -0.0097 -0.5845 -0.8113
vn 0.4056 0.6931 -0.5958
vn 0.6514 0.7488 0.1225
vn 0.4727 -0.8719 0.1276
vn -0.5241 -0.7141 0.4641
vn -0.2438 0.7177 0.6523
vn -0.6831 -0.1344 -0.7178
vn -0.6832 -0.1436 -0.7160
s 0
f 2//1 3//1 5//1
f 3//2 4//2 5//2
f 4//3 6//3 5//3
f 2//4 5//4 6//4
f 1//5 2//5 6//5
f 1//6 6//6 4//6
f 3//7 1//7 4//7
f 3//8 2//8 1//8
