# Blender 5.2.0 LTS
# www.blender.org
o V11_LOWER_COMPONENT_010
v 102.019020 174.990280 83.640976
v 102.158012 177.559433 81.115082
v 101.127739 177.652603 81.723236
v 103.049294 174.897110 83.032822
v 105.534019 183.823776 88.242538
v 106.564293 183.730606 87.634384
v 106.425301 181.161453 90.160278
v 107.455574 181.068283 89.552124
vn -0.2621 0.7830 -0.5640
vn 0.2621 -0.7830 0.5640
vn 0.8586 -0.0776 -0.5068
vn -0.4406 -0.6171 -0.6519
vn -0.8586 0.0776 0.5068
vn 0.4406 0.6171 0.6519
s 0
f 3//1 6//1 2//1
f 8//2 1//2 4//2
f 2//3 8//3 4//3
f 2//4 1//4 3//4
f 7//5 3//5 1//5
f 5//6 8//6 6//6
f 3//1 5//1 6//1
f 8//2 7//2 1//2
f 2//3 6//3 8//3
f 2//4 4//4 1//4
f 7//5 5//5 3//5
f 5//6 7//6 8//6
