# Blender 5.2.0 LTS
# www.blender.org
o V11_LOWER_COMPONENT_014
v 74.478683 47.166058 84.629387
v 77.181290 46.692654 81.718758
v 71.340935 50.593449 81.158440
v 76.524094 63.541248 82.841621
v 75.662773 53.906284 90.810875
v 77.925774 55.620735 93.628586
v 76.129578 60.853474 91.887283
v 79.203697 58.653942 78.531868
v 81.207039 61.847916 79.867958
v 81.187149 62.751648 92.374420
v 82.983345 57.518909 94.115723
v 86.246384 57.878452 91.830269
vn 0.2223 -0.7516 0.6210
vn 0.6900 0.7220 -0.0511
vn 0.4885 0.4219 0.7638
vn 0.4196 -0.7719 0.4777
vn -0.4432 -0.5624 0.6981
vn -0.7642 -0.0483 0.6432
vn -0.8341 -0.2860 0.4716
vn -0.5008 -0.7980 -0.3352
vn -0.0712 -0.2455 -0.9668
vn 0.7985 -0.2774 -0.5343
vn 0.8479 -0.2802 -0.4502
vn -0.9973 0.0705 -0.0225
vn -0.3612 0.8980 0.2511
vn -0.5862 0.3308 -0.7396
vn -0.3119 0.5265 -0.7909
vn -0.1861 0.2521 0.9496
vn 0.3006 0.9513 -0.0683
vn 0.3947 -0.7756 0.4926
vn -0.9003 0.3224 0.2925
s 0
f 1//1 11//1 6//1
f 9//2 10//2 12//2
f 10//3 11//3 12//3
f 11//4 2//4 12//4
f 1//5 6//5 5//5
f 5//6 6//6 7//6
f 1//7 5//7 3//7
f 1//8 3//8 2//8
f 2//9 3//9 8//9
f 2//10 8//10 9//10
f 2//11 9//11 12//11
f 4//12 5//12 7//12
f 4//13 7//13 10//13
f 3//14 4//14 8//14
f 4//15 9//15 8//15
f 7//16 11//16 10//16
f 9//17 4//17 10//17
f 11//18 1//18 2//18
f 4//19 3//19 5//19
f 7//16 6//16 11//16
