# Blender 5.2.0 LTS
# www.blender.org
o V11_LOWER_COMPONENT_019
v 0.800000 227.403320 70.933556
v 0.800000 261.112274 133.841888
v 6.800000 261.112274 133.841888
v 6.800000 227.403320 70.933556
v 0.800000 233.573364 67.627388
v 0.800000 267.282318 130.535736
v 6.800000 267.282318 130.535736
v 6.800000 233.573364 67.627388
vn -0.0000 -0.8814 0.4723
vn -0.0000 0.8814 -0.4723
vn -1.0000 -0.0000 -0.0000
vn -0.0000 0.4723 0.8814
vn 1.0000 -0.0000 -0.0000
vn -0.0000 -0.4723 -0.8814
s 0
f 4//1 2//1 1//1
f 6//2 8//2 5//2
f 2//3 5//3 1//3
f 3//4 6//4 2//4
f 3//5 8//5 7//5
f 1//6 8//6 4//6
f 4//1 3//1 2//1
f 6//2 7//2 8//2
f 2//3 6//3 5//3
f 3//4 7//4 6//4
f 3//5 4//5 8//5
f 1//6 5//6 8//6
