# Blender 5.2.0 LTS
# www.blender.org
o V11_LOWER_COMPONENT_042
v 61.356785 79.366425 46.040989
v 64.910439 78.083542 43.785824
v 65.911324 79.680817 44.454372
v 75.443359 55.586586 81.765854
v 78.997017 54.303707 79.510689
v 79.997902 55.900978 80.179237
vn 0.3119 -0.5265 0.7909
vn -0.3119 0.5265 -0.7909
vn 0.8076 -0.2916 -0.5125
vn -0.5004 -0.7986 -0.3343
vn 0.1214 0.8477 0.5164
s 0
f 4//1 5//1 6//1
f 1//2 3//2 2//2
f 3//3 5//3 2//3
f 2//4 4//4 1//4
f 1//5 6//5 3//5
f 3//3 6//3 5//3
f 2//4 5//4 4//4
f 1//5 4//5 6//5
