# Blender 5.2.0 LTS
# www.blender.org
o V11_LOWER_COMPONENT_031
v 30.472479 38.267403 7.898232
v 38.860710 21.464855 17.278629
v 39.822914 22.810663 18.402445
v 36.165688 23.454662 20.762526
v 33.167500 36.277592 4.414337
v 34.129704 37.623402 5.538153
vn -0.2787 0.7251 -0.6297
vn 0.2787 -0.7251 0.6297
vn 0.8312 -0.1464 -0.5364
vn 0.4811 0.6729 0.5619
vn -0.7819 -0.5520 -0.2896
s 0
f 1//1 6//1 5//1
f 4//2 2//2 3//2
f 2//3 6//3 3//3
f 4//4 6//4 1//4
f 1//5 2//5 4//5
f 2//3 5//3 6//3
f 4//4 3//4 6//4
f 1//5 5//5 2//5
