# Blender 5.2.0 LTS
# www.blender.org
o V11_LOWER_COMPONENT_057
v 87.981400 186.988144 55.863091
v 91.753036 186.664429 53.620342
v 91.706825 188.630936 53.258785
v 123.526573 198.943542 105.281654
v 123.282494 198.835907 105.452286
v 116.044121 196.083115 101.743515
v 119.204330 195.649567 98.981476
v 120.955116 198.086639 101.546951
v 123.555115 197.729126 105.504936
v 123.283730 197.563477 105.703766
v 122.824120 196.734390 104.419205
v 122.735573 196.820282 104.897659
vn 0.5145 0.1667 0.8411
vn -0.5145 -0.1667 -0.8411
vn 0.8572 -0.0736 -0.5097
vn 0.0231 -0.9833 0.1808
vn -0.3757 0.9256 0.0464
vn 0.3415 -0.7867 0.5142
vn -0.8628 0.0987 0.4958
vn 0.6308 -0.7350 0.2486
vn 0.0231 -0.9832 0.1808
vn -0.3757 0.9256 0.0463
vn -0.3757 0.9256 0.0462
vn -0.8630 0.0971 0.4957
vn -0.8630 0.0982 0.4957
vn 0.6308 -0.7350 0.2487
s 0
f 9//1 5//1 10//1
f 1//2 3//2 2//2
f 2//3 4//3 9//3
f 7//4 1//4 2//4
f 3//5 6//5 8//5
f 6//6 7//6 8//6
f 8//7 12//7 10//7
f 12//8 9//8 10//8
f 9//1 4//1 5//1
f 9//3 11//3 2//3
f 2//3 3//3 4//3
f 11//4 12//4 7//4
f 7//4 6//4 1//4
f 2//9 11//9 7//9
f 8//5 5//5 4//5
f 3//10 1//10 6//10
f 8//11 4//11 3//11
f 10//12 5//12 8//12
f 8//13 7//13 12//13
f 12//14 11//14 9//14
