# Blender 5.2.0 LTS
# www.blender.org
o V11_LOWER_COMPONENT_052
v 82.076225 60.096954 89.344345
v 85.784019 58.094002 88.079262
v 85.331200 56.525799 89.234985
v 97.710793 73.598686 113.790588
v 100.965767 70.027519 113.681229
v 101.418587 71.595726 112.525505
vn -0.4885 -0.4219 -0.7638
vn 0.4885 0.4219 0.7638
vn 0.8427 -0.4552 -0.2875
vn 0.2264 0.7841 -0.5779
vn -0.5548 -0.5254 0.6450
s 0
f 1//1 2//1 3//1
f 4//2 5//2 6//2
f 5//3 2//3 6//3
f 6//4 1//4 4//4
f 5//5 1//5 3//5
f 5//3 3//3 2//3
f 6//4 2//4 1//4
f 5//5 4//5 1//5
