# Blender 5.2.0 LTS
# www.blender.org
o V11_LOWER_COMPONENT_002
v -0.326696 1.711704 48.013561
v 0.189000 0.000000 47.803501
v 0.337538 3.096850 54.022083
v 0.704487 1.799373 54.432850
v 2.555344 1.790928 54.443375
v 0.337538 15.095939 53.874241
v 1.084148 15.705789 54.669968
v 3.904406 0.457093 54.869778
v 4.084121 0.457103 54.870537
v 4.082444 0.461987 55.266975
v 4.132378 0.626206 54.817410
v 4.293904 3.097057 54.038818
v 4.837498 3.468952 54.036537
v 4.832425 3.111860 55.240257
v 4.836477 3.397080 54.278809
v 4.084121 15.705945 54.682655
v 4.837498 15.096173 53.893276
v 0.645086 1.976938 66.741798
v 0.312747 10.381330 59.793678
v 0.314277 10.932849 59.425171
v 0.314791 11.583411 59.295765
v 0.314209 12.233974 59.425171
v 0.310434 10.012815 60.345196
v 0.307689 9.883410 60.995750
v 0.304931 10.012815 61.646305
v 0.302579 10.381329 62.197823
v 0.312622 12.785493 59.793678
v 0.310270 13.154006 60.345196
v 0.307512 13.283411 60.995750
v 0.304767 13.154006 61.646305
v 0.302454 12.785492 62.197823
v 0.300992 10.932849 62.566334
v 0.300410 11.583410 62.695736
v 0.300924 12.233973 62.566334
v 4.446968 1.842926 58.663574
v 4.062972 15.767547 59.682228
v 4.812707 10.381565 59.812714
v 4.814237 10.933084 59.444202
v 4.814750 11.583647 59.314800
v 4.814169 12.234208 59.444202
v 4.810393 10.013051 60.364231
v 4.807649 9.883646 61.014786
v 4.804891 10.013051 61.665340
v 4.802538 10.381564 62.216858
v 4.812582 12.785728 59.812714
v 4.810230 13.154242 60.364231
v 4.807472 13.283647 61.014786
v 4.804727 13.154242 61.665340
v 4.802413 12.785728 62.216858
v 4.800951 10.933084 62.585365
v 4.800370 11.583646 62.714771
v 4.800883 12.234208 62.585365
v 4.393060 2.056700 73.488312
v 0.564256 2.218558 83.491188
v 0.552948 2.252362 85.834473
v 0.201458 3.493211 86.190971
v 0.234229 10.234777 78.359764
v 0.231484 10.105372 79.010323
v 0.238072 11.154811 77.439743
v 0.236543 10.603292 77.808250
v 0.238586 11.805373 77.310341
v 0.238005 12.455935 77.439743
v 0.228726 10.234777 79.660881
v 0.226374 10.603291 80.212395
v 0.224787 11.154811 80.580902
v 0.224206 11.805372 80.710304
v 0.224719 12.455935 80.580902
v 0.236417 13.007455 77.808250
v 0.234066 13.375968 78.359764
v 0.231307 13.505373 79.010323
v 0.228562 13.375968 79.660881
v 0.226249 13.007454 80.212395
v 0.975984 16.020836 80.239403
v 0.201458 15.492299 86.043129
v 0.954835 16.082436 85.238976
v 4.356768 2.200620 83.468796
v 4.348126 2.234891 85.845428
v 4.701418 3.493445 86.209999
v 4.734189 10.235013 78.378792
v 4.731444 10.105608 79.029350
v 4.738032 11.155046 77.458771
v 4.736502 10.603527 77.827278
v 4.738545 11.805609 77.329369
v 4.737964 12.456170 77.458771
v 4.728686 10.235013 79.679909
v 4.726334 10.603526 80.231422
v 4.724747 11.155046 80.599930
v 4.724165 11.805608 80.729332
v 4.724679 12.456170 80.599930
v 4.736377 13.007690 77.827278
v 4.734025 13.376204 78.378792
v 4.731267 13.505609 79.029350
v 4.728522 13.376204 79.679909
v 4.726209 13.007689 80.231422
v 3.954808 16.082592 85.251671
v 4.701418 15.492534 86.062157
v 0.000000 0.550500 92.482498
v 0.000000 2.350363 92.460320
v 20.215500 0.550500 92.482498
v 19.699804 2.262204 92.692558
v 29.799259 12.055448 82.834053
v 30.778500 10.605000 82.413002
vn 0.5440 -0.8058 -0.2339
vn -0.0000 -0.9999 0.0123
vn -0.5481 0.8025 0.2358
vn 0.0046 0.9999 -0.0144
vn 0.6363 0.0978 0.7652
vn 0.5433 0.5507 -0.6337
vn -0.0000 -0.1218 0.9926
vn -1.0000 0.0001 0.0073
vn -0.0042 0.0123 0.9999
vn -0.0040 -0.2772 0.9608
vn -0.9622 -0.2724 -0.0007
vn 1.0000 0.0001 0.0042
vn 0.0040 -0.3008 -0.9537
vn -1.0000 -0.0001 -0.0042
vn 0.9622 -0.2723 0.0074
vn 0.9622 -0.2722 0.0074
vn -0.0025 0.8073 0.5901
vn -0.6247 0.7808 -0.0123
vn 0.0025 0.7926 -0.6098
vn 0.0042 -0.0123 -0.9999
vn 0.6247 0.7808 -0.0070
vn -0.0000 0.9999 -0.0123
vn 0.0041 0.1951 -0.9808
vn 0.0035 0.5556 -0.8315
vn 0.0023 0.8315 -0.5556
vn 0.0008 0.9808 -0.1951
vn -0.0009 0.9808 0.1951
vn -0.0024 0.8315 0.5556
vn -0.0035 0.5556 0.8315
vn -0.0042 0.1951 0.9808
vn -0.0041 -0.1951 0.9808
vn -0.0035 -0.5556 0.8315
vn -0.0023 -0.8315 0.5556
vn -0.0008 -0.9808 0.1951
vn 0.0009 -0.9808 -0.1951
vn 0.0024 -0.8315 -0.5556
vn 0.0035 -0.5556 -0.8315
vn 0.0042 -0.1951 -0.9808
vn 0.5439 -0.8059 -0.2339
vn 0.4472 -0.8944 0.0044
vn -0.0000 -1.0000 -0.0000
vn 0.5958 0.1747 0.7839
vn 0.6727 0.2864 -0.6823
vn -0.0117 0.0123 0.9999
vn -0.9575 -0.2884 -0.0005
vn -0.0041 -0.2772 0.9608
vn 1.0000 -0.0000 0.0042
vn 0.0041 -0.3008 -0.9537
s 0
f 2//1 8//1 99//1
f 10//1 102//1 99//1
f 2//2 99//2 97//2
f 13//3 15//3 101//3
f 55//4 1//4 98//4
f 102//5 100//5 99//5
f 102//6 1//6 101//6
f 100//7 97//7 99//7
f 1//8 97//8 98//8
f 74//9 78//9 96//9
f 55//10 78//10 56//10
f 8//2 9//2 10//2
f 3//11 4//11 18//11
f 13//12 39//12 38//12
f 78//12 15//12 42//12
f 87//12 88//12 96//12
f 56//11 18//11 54//11
f 5//13 3//13 12//13
f 8//13 11//13 9//13
f 66//14 56//14 67//14
f 3//14 56//14 58//14
f 3//14 20//14 21//14
f 53//15 14//15 78//15
f 9//16 11//16 10//16
f 53//15 78//15 76//15
f 54//11 55//11 56//11
f 95//17 74//17 96//17
f 6//18 74//18 7//18
f 7//19 17//19 6//19
f 6//20 13//20 12//20
f 16//21 36//21 17//21
f 17//21 36//21 96//21
f 76//15 78//15 77//15
f 7//22 36//22 16//22
f 7//18 74//18 73//18
f 7//22 73//22 36//22
f 73//18 74//18 75//18
f 36//22 73//22 95//22
f 36//21 95//21 96//21
f 73//22 75//22 95//22
f 50//23 33//23 51//23
f 44//24 32//24 50//24
f 25//25 44//25 43//25
f 42//26 25//26 43//26
f 41//27 24//27 42//27
f 37//28 23//28 41//28
f 19//29 38//29 20//29
f 20//30 39//30 21//30
f 22//31 39//31 40//31
f 27//32 40//32 45//32
f 28//33 45//33 46//33
f 29//34 46//34 47//34
f 30//35 47//35 48//35
f 31//36 48//36 49//36
f 34//37 49//37 52//37
f 51//38 34//38 52//38
f 65//23 88//23 87//23
f 64//24 87//24 86//24
f 63//25 86//25 85//25
f 58//26 85//26 80//26
f 57//27 80//27 79//27
f 82//28 57//28 79//28
f 59//29 82//29 81//29
f 59//30 83//30 61//30
f 62//31 83//31 84//31
f 68//32 84//32 90//32
f 91//33 68//33 90//33
f 92//34 69//34 91//34
f 93//35 70//35 92//35
f 94//36 71//36 93//36
f 67//37 94//37 89//37
f 88//38 67//38 89//38
f 2//1 102//1 11//1
f 8//39 10//39 99//39
f 2//1 11//1 8//1
f 10//1 11//1 102//1
f 1//3 5//3 12//3
f 1//3 12//3 13//3
f 35//3 100//3 101//3
f 14//3 35//3 101//3
f 101//3 1//3 13//3
f 15//3 14//3 101//3
f 100//4 35//4 53//4
f 53//40 76//40 77//40
f 55//41 54//41 18//41
f 100//4 53//4 77//4
f 100//4 77//4 55//4
f 4//4 5//4 1//4
f 18//4 4//4 1//4
f 98//4 100//4 55//4
f 55//4 18//4 1//4
f 102//42 101//42 100//42
f 102//43 2//43 1//43
f 100//44 98//44 97//44
f 1//45 2//45 97//45
f 74//9 56//9 78//9
f 55//46 77//46 78//46
f 37//12 15//12 13//12
f 13//12 17//12 40//12
f 13//12 40//12 39//12
f 38//12 37//12 13//12
f 96//12 89//12 94//12
f 96//12 94//12 93//12
f 45//12 40//12 17//12
f 46//12 45//12 17//12
f 96//12 93//12 92//12
f 96//12 92//12 91//12
f 47//12 46//12 17//12
f 48//12 47//12 17//12
f 17//12 96//12 91//12
f 17//12 91//12 90//12
f 48//12 17//12 90//12
f 48//12 90//12 84//12
f 49//12 48//12 84//12
f 49//12 84//12 83//12
f 52//12 49//12 83//12
f 52//12 83//12 81//12
f 51//12 52//12 81//12
f 51//12 81//12 82//12
f 50//12 51//12 82//12
f 50//12 82//12 79//12
f 44//12 50//12 79//12
f 44//47 79//47 80//47
f 43//12 44//12 80//12
f 85//12 86//12 78//12
f 42//47 43//47 80//47
f 80//12 85//12 78//12
f 78//12 14//12 15//12
f 15//12 37//12 41//12
f 42//12 80//12 78//12
f 15//12 41//12 42//12
f 96//12 78//12 86//12
f 96//12 86//12 87//12
f 88//12 89//12 96//12
f 56//11 3//11 18//11
f 5//48 4//48 3//48
f 65//14 64//14 56//14
f 56//14 74//14 67//14
f 66//14 65//14 56//14
f 6//14 22//14 27//14
f 6//14 27//14 28//14
f 72//14 67//14 74//14
f 71//14 72//14 74//14
f 6//14 28//14 29//14
f 6//14 29//14 30//14
f 70//14 71//14 74//14
f 69//14 70//14 74//14
f 74//14 6//14 30//14
f 74//14 30//14 31//14
f 69//14 74//14 31//14
f 69//14 31//14 34//14
f 68//14 69//14 34//14
f 68//14 34//14 33//14
f 62//14 68//14 33//14
f 62//14 33//14 32//14
f 61//14 62//14 32//14
f 61//14 32//14 26//14
f 59//14 61//14 26//14
f 59//14 26//14 25//14
f 60//14 59//14 25//14
f 60//14 25//14 24//14
f 57//14 60//14 24//14
f 23//14 19//14 3//14
f 58//14 57//14 24//14
f 24//14 23//14 3//14
f 56//14 64//14 63//14
f 58//14 24//14 3//14
f 56//14 63//14 58//14
f 22//14 6//14 3//14
f 3//14 19//14 20//14
f 21//14 22//14 3//14
f 53//15 35//15 14//15
f 95//17 75//17 74//17
f 7//19 16//19 17//19
f 12//20 3//20 6//20
f 6//20 17//20 13//20
f 50//23 32//23 33//23
f 44//24 26//24 32//24
f 25//25 26//25 44//25
f 42//26 24//26 25//26
f 41//27 23//27 24//27
f 37//28 19//28 23//28
f 19//29 37//29 38//29
f 20//30 38//30 39//30
f 22//31 21//31 39//31
f 27//32 22//32 40//32
f 28//33 27//33 45//33
f 29//34 28//34 46//34
f 30//35 29//35 47//35
f 31//36 30//36 48//36
f 34//37 31//37 49//37
f 51//38 33//38 34//38
f 65//23 66//23 88//23
f 64//24 65//24 87//24
f 63//25 64//25 86//25
f 58//26 63//26 85//26
f 57//27 58//27 80//27
f 82//28 60//28 57//28
f 59//29 60//29 82//29
f 59//30 81//30 83//30
f 62//31 61//31 83//31
f 68//32 62//32 84//32
f 91//33 69//33 68//33
f 92//34 70//34 69//34
f 93//35 71//35 70//35
f 94//36 72//36 71//36
f 67//37 72//37 94//37
f 88//38 66//38 67//38
