# Blender 5.2.0 LTS
# www.blender.org
o V11_LOWER_COMPONENT_025
v 58.247807 262.247314 136.444214
v 83.954628 247.238373 139.644714
v 82.673470 244.001923 134.757599
v 56.966648 259.010864 131.557098
v 61.509769 266.983154 132.452820
v 87.216591 251.974213 135.653320
v 85.935432 248.737762 130.766205
v 60.228611 263.746704 127.565697
vn -0.4660 -0.6766 0.5702
vn 0.4660 0.6766 -0.5702
vn 0.2135 0.5394 0.8145
vn 0.8586 -0.5013 0.1069
vn -0.2135 -0.5394 -0.8145
vn -0.8586 0.5013 -0.1069
s 0
f 1//1 3//1 2//1
f 6//2 8//2 5//2
f 2//3 5//3 1//3
f 2//4 7//4 6//4
f 3//5 8//5 7//5
f 1//6 8//6 4//6
f 1//1 4//1 3//1
f 6//2 7//2 8//2
f 2//3 6//3 5//3
f 2//4 3//4 7//4
f 3//5 4//5 8//5
f 1//6 5//6 8//6
