# Blender 5.2.0 LTS
# www.blender.org
o V11_LOWER_COMPONENT_022
v 120.494392 197.208740 114.172424
v 86.260918 244.637390 138.280151
v 82.579659 244.385162 133.548920
v 116.813133 196.956512 109.441177
v 90.286797 249.260712 134.901245
v 86.605537 249.008484 130.170013
v 121.690819 201.700470 110.480118
v 120.839012 201.579834 106.062256
v 123.572617 203.144989 111.460854
v 121.521942 203.798599 109.911865
v 122.443314 204.063400 111.371979
v 121.330505 201.613510 106.693939
v 122.806747 203.050278 112.061806
v 119.586159 201.096588 107.062836
v 120.369591 201.040756 106.456238
v 119.566284 200.118225 107.130455
v 122.585587 199.610275 112.417282
v 122.671402 201.821732 112.232613
v 122.781944 201.829376 112.146194
v 121.620041 199.815842 110.641754
v 121.692711 199.897110 110.585060
v 121.683586 199.886642 110.592697
v 121.766594 201.707809 110.519791
v 121.725182 201.701019 110.453644
vn -0.5751 -0.6605 0.4827
vn 0.5751 0.6605 -0.4827
vn 0.6135 0.0420 0.7885
vn -0.5411 0.7497 0.3811
vn -0.6136 -0.0420 -0.7885
vn 0.5410 -0.7496 -0.3812
vn 0.5411 -0.7497 -0.3810
vn 0.3418 -0.7868 0.5139
vn 0.8488 -0.0536 -0.5259
vn -0.4423 -0.6078 -0.6595
vn 0.5800 0.0488 0.8132
vn 0.0854 -0.9961 0.0212
vn 0.8725 -0.0742 -0.4830
vn 0.6134 0.0420 0.7886
vn 0.6136 0.0420 0.7885
vn -0.6135 -0.0420 -0.7885
vn 0.5518 -0.7421 -0.3806
vn 0.5411 -0.7497 -0.3811
vn 0.3419 -0.7868 0.5139
vn 0.8488 -0.0536 -0.5260
vn 0.8489 -0.0534 -0.5258
vn 0.6092 0.0450 0.7917
vn 0.0638 -0.9960 0.0626
vn 0.8724 -0.0742 -0.4830
s 0
f 3//1 1//1 2//1
f 6//2 11//2 10//2
f 18//3 5//3 1//3
f 2//4 6//4 3//4
f 3//5 8//5 14//5
f 4//6 21//6 20//6
f 15//7 8//7 12//7
f 14//8 12//8 10//8
f 10//9 13//9 24//9
f 11//10 9//10 13//10
f 20//11 21//11 24//11
f 7//12 23//12 19//12
f 20//13 18//13 17//13
f 3//1 4//1 1//1
f 12//2 8//2 6//2
f 6//2 5//2 9//2
f 6//2 9//2 11//2
f 10//2 12//2 6//2
f 18//14 19//14 13//14
f 13//15 9//15 5//15
f 5//3 2//3 1//3
f 1//3 17//3 18//3
f 18//3 13//3 5//3
f 2//4 5//4 6//4
f 16//16 4//16 3//16
f 3//16 6//16 8//16
f 8//16 15//16 14//16
f 14//16 16//16 3//16
f 17//7 1//7 4//7
f 4//7 16//7 21//7
f 21//17 22//17 20//17
f 20//18 17//18 4//18
f 14//19 15//19 12//19
f 24//9 21//9 16//9
f 16//20 14//20 10//20
f 10//9 11//9 13//9
f 13//9 19//9 23//9
f 24//9 16//9 10//9
f 13//21 23//21 24//21
f 24//22 7//22 20//22
f 19//12 18//12 7//12
f 7//23 24//23 23//23
f 20//24 7//24 18//24
