# Blender 5.2.0 LTS
# www.blender.org
o V11_LOWER_COMPONENT_045
v 30.255835 227.295792 63.749111
v 30.255835 225.235168 69.170715
v 32.783855 230.193420 64.850433
v 83.001625 185.025864 53.888039
v 83.001625 187.086487 48.466434
v 85.529648 189.984116 49.567757
vn 0.7750 -0.5908 -0.2245
vn -0.7750 0.5908 0.2245
vn -0.0000 0.3553 -0.9348
vn -0.6320 -0.7244 -0.2753
vn 0.5203 0.3946 0.7573
vn 0.5203 0.3946 0.7574
s 0
f 4//1 5//1 6//1
f 1//2 2//2 3//2
f 5//3 3//3 6//3
f 4//4 1//4 5//4
f 4//5 3//5 2//5
f 5//3 1//3 3//3
f 4//4 2//4 1//4
f 4//6 6//6 3//6
