# Blender 5.2.0 LTS
# www.blender.org
o V11_LOWER_COMPONENT_029
v 80.999176 151.488220 55.624443
v 85.543159 150.833023 52.080021
v 87.019913 155.699081 59.034855
v 86.737778 147.657379 54.198559
v 86.895447 155.466156 58.949707
v 83.619148 160.519211 57.313866
v 88.163132 159.864014 53.769447
v 90.618988 161.035843 56.701267
v 86.464622 153.405624 63.913132
v 88.481201 157.109421 60.412403
v 88.504372 155.271744 57.592319
v 88.186325 156.567825 60.924305
v 87.978851 156.978394 60.544224
v 84.955208 150.544678 57.583256
v 86.717232 148.089691 54.929173
v 86.582054 150.934341 59.736637
v 88.567917 155.685684 57.921467
v 88.502533 155.417343 57.815758
v 88.499908 155.625916 58.135826
v 87.602356 154.333969 60.221119
v 88.448364 155.194992 57.728165
v 86.942978 155.507019 58.980766
v 87.072090 155.653915 59.119904
v 86.915085 155.437378 58.961151
v 87.004196 155.169495 59.158710
vn -0.4134 -0.7887 0.4551
vn 0.9282 -0.3083 0.2085
vn 0.0135 0.6829 0.7304
vn -0.8411 0.1466 0.5207
vn 0.7834 -0.1130 -0.6111
vn -0.5450 -0.5975 -0.5882
vn -0.0962 0.9494 -0.2989
vn -0.5577 0.3061 -0.7715
vn 0.3398 -0.7868 0.5152
vn 0.5545 0.6053 0.5711
vn 0.8496 -0.0561 -0.5244
vn 0.5277 -0.4194 0.7387
vn -0.2467 -0.9104 -0.3320
vn 0.8017 -0.1588 -0.5762
vn 0.8015 -0.1586 -0.5765
vn -0.4134 -0.7887 0.4550
vn 0.9281 -0.3084 0.2085
vn 0.9282 -0.3083 0.2084
vn 0.0135 0.6830 0.7303
vn 0.0135 0.6829 0.7303
vn 0.3398 -0.7867 0.5154
vn 0.3396 -0.7866 0.5156
vn 0.3403 -0.7868 0.5150
vn 0.3398 -0.7880 0.5134
vn 0.5548 0.6055 0.5706
vn 0.5543 0.6056 0.5709
vn 0.8500 -0.0574 -0.5237
vn 0.8501 -0.0571 -0.5235
vn 0.5279 -0.4195 0.7385
vn 0.5276 -0.4195 0.7386
vn -0.2468 -0.9104 -0.3321
vn 0.8018 -0.1585 -0.5761
vn 0.8014 -0.1586 -0.5767
s 0
f 1//1 15//1 14//1
f 17//2 11//2 8//2
f 20//2 9//2 16//2
f 13//3 6//3 12//3
f 9//4 6//4 1//4
f 4//5 7//5 8//5
f 1//6 2//6 4//6
f 6//7 8//7 7//7
f 1//8 7//8 2//8
f 23//9 13//9 5//9
f 11//10 5//10 24//10
f 25//11 13//11 12//11
f 14//12 21//12 24//12
f 18//12 3//12 22//12
f 3//13 19//13 23//13
f 22//14 3//14 23//14
f 16//15 24//15 25//15
f 16//1 9//1 1//1
f 1//16 4//16 15//16
f 14//16 16//16 1//16
f 17//17 18//17 11//17
f 11//18 21//18 15//18
f 15//2 4//2 8//2
f 8//2 10//2 19//2
f 8//2 19//2 17//2
f 11//2 15//2 8//2
f 20//2 12//2 9//2
f 13//19 10//19 8//19
f 6//20 9//20 12//20
f 13//20 8//20 6//20
f 4//5 2//5 7//5
f 1//8 6//8 7//8
f 23//21 19//21 10//21
f 5//21 11//21 18//21
f 5//22 18//22 22//22
f 23//23 10//23 13//23
f 5//24 22//24 23//24
f 24//25 21//25 11//25
f 5//26 25//26 24//26
f 12//27 20//27 25//27
f 25//28 5//28 13//28
f 14//29 15//29 21//29
f 18//30 17//30 3//30
f 3//31 17//31 19//31
f 25//32 20//32 16//32
f 16//33 14//33 24//33
