# Blender 5.2.0 LTS
# www.blender.org
o V11_LOWER_COMPONENT_038
v 58.442261 88.122688 37.776318
v 62.086105 87.517181 35.385551
v 54.972401 110.516273 26.816200
v 58.616245 109.910767 24.425432
v 59.702839 110.781731 25.860960
v 63.172699 88.388145 36.821079
vn -0.1378 0.8896 -0.4354
vn 0.1378 -0.8896 0.4354
vn 0.8281 -0.1376 -0.5434
vn -0.5433 -0.4355 -0.7178
vn 0.1519 0.4534 0.8783
s 0
f 3//1 5//1 4//1
f 1//2 2//2 6//2
f 6//3 4//3 5//3
f 2//4 3//4 4//4
f 3//5 6//5 5//5
f 6//3 2//3 4//3
f 2//4 1//4 3//4
f 3//5 1//5 6//5
