# Blender 5.2.0 LTS
# www.blender.org
o V11_LOWER_COMPONENT_023
v 98.296516 77.734756 120.088547
v 115.214500 109.305435 119.688400
v 113.663536 110.063736 113.942139
v 96.745552 78.493057 114.342285
v 104.195290 74.548233 118.075928
v 102.644325 75.306534 112.329666
v 115.551880 109.043655 113.297852
v 116.604416 101.357491 111.999481
v 119.572517 103.243706 117.712227
v 117.960342 107.822136 118.751541
v 116.800888 103.772591 118.530098
v 115.870255 108.879608 113.815620
v 115.519707 109.078140 114.658722
v 114.648415 108.714775 113.498299
v 112.754715 102.091751 113.135437
v 115.467033 108.710983 113.276848
vn -0.8427 0.4552 0.2875
vn 0.8427 -0.4552 -0.2875
vn 0.2585 -0.1264 0.9577
vn 0.4725 0.8813 -0.0112
vn -0.2585 0.1264 -0.9577
vn -0.4723 -0.8814 0.0112
vn 0.8137 -0.1725 -0.5551
vn 0.0757 0.9345 -0.3479
vn 0.0642 -0.9651 0.2540
vn 0.8125 -0.2026 -0.5466
vn 0.4723 0.8814 -0.0112
vn 0.0756 0.9345 -0.3479
vn 0.0642 -0.9651 0.2539
vn 0.8124 -0.2027 -0.5467
vn 0.8127 -0.2024 -0.5465
s 0
f 2//1 4//1 1//1
f 5//2 8//2 9//2
f 1//3 9//3 11//3
f 13//4 7//4 2//4
f 6//5 3//5 14//5
f 6//6 1//6 4//6
f 12//7 16//7 7//7
f 8//8 11//8 9//8
f 12//9 14//9 16//9
f 11//10 14//10 13//10
f 2//1 3//1 4//1
f 5//2 6//2 8//2
f 10//3 2//3 1//3
f 1//3 5//3 9//3
f 11//3 10//3 1//3
f 13//11 12//11 7//11
f 7//11 3//11 2//11
f 2//11 10//11 13//11
f 15//5 8//5 6//5
f 6//5 4//5 3//5
f 3//5 7//5 16//5
f 14//5 15//5 6//5
f 3//5 16//5 14//5
f 6//6 5//6 1//6
f 8//12 15//12 11//12
f 12//13 13//13 14//13
f 13//14 10//14 11//14
f 11//15 15//15 14//15
