# Blender 5.2.0 LTS
# www.blender.org
o V11_LOWER_COMPONENT_034
v 56.951828 27.442160 74.100464
v 31.821077 49.315044 118.417152
v 33.758743 46.320690 120.993835
v 35.308727 47.555573 121.263298
v 58.544518 26.638670 75.400200
v 57.689381 26.302393 75.081245
v 60.120560 25.960268 77.509010
v 58.068520 25.162354 78.124893
v 57.285141 26.140265 78.149445
v 58.864365 26.762903 77.674683
vn 0.4533 -0.3945 -0.7993
vn -0.4533 0.3945 0.7993
vn 0.4404 -0.6805 0.5856
vn -0.7750 -0.6174 -0.1347
vn 0.5233 0.8437 -0.1197
vn -0.2273 -0.1573 -0.9610
vn 0.3663 -0.9305 -0.0009
vn -0.2268 -0.1576 -0.9611
vn 0.3666 -0.9304 -0.0007
s 0
f 1//1 5//1 6//1
f 2//2 3//2 4//2
f 4//3 8//3 7//3
f 3//4 1//4 9//4
f 1//5 4//5 10//5
f 8//6 10//6 7//6
f 5//7 9//7 6//7
f 4//3 3//3 8//3
f 9//4 8//4 3//4
f 3//4 2//4 1//4
f 1//4 6//4 9//4
f 10//5 5//5 1//5
f 1//5 2//5 4//5
f 4//5 7//5 10//5
f 8//8 9//8 10//8
f 5//9 10//9 9//9
