# Blender 5.2.0 LTS
# www.blender.org
o V11_LOWER_COMPONENT_035
v 61.612617 32.269417 71.858788
v 34.972801 49.478233 122.626007
v 34.668777 55.720337 119.372757
v 37.806526 52.292946 122.843704
v 64.750366 28.842024 75.329735
v 63.513672 28.600113 74.747833
v 63.979736 28.076563 75.270531
v 61.823700 27.935545 74.117508
v 63.852444 28.729937 76.030777
v 63.176384 28.462997 76.378349
v 60.741089 27.050465 77.185059
v 60.647385 27.465893 77.138649
vn 0.4532 -0.3945 -0.7993
vn -0.4533 0.3945 0.7993
vn 0.5410 -0.5909 0.5984
vn 0.7084 0.7037 0.0544
vn -0.8903 -0.2438 -0.3846
vn -0.2264 -0.1584 -0.9611
vn -0.8370 -0.4763 0.2692
vn 0.3663 -0.9305 -0.0021
vn 0.4533 -0.3945 -0.7993
vn -0.8903 -0.2438 -0.3845
vn 0.3663 -0.9305 -0.0020
vn 0.3668 -0.9303 -0.0027
s 0
f 1//1 7//1 6//1
f 2//2 4//2 3//2
f 9//3 2//3 10//3
f 5//4 3//4 4//4
f 12//5 2//5 1//5
f 11//6 12//6 10//6
f 6//7 7//7 9//7
f 8//8 9//8 10//8
f 1//9 5//9 7//9
f 6//9 8//9 1//9
f 9//3 7//3 5//3
f 5//3 4//3 2//3
f 2//3 11//3 10//3
f 9//3 5//3 2//3
f 5//4 1//4 3//4
f 12//10 11//10 2//10
f 2//5 3//5 1//5
f 1//5 8//5 12//5
f 10//11 12//11 8//11
f 8//12 6//12 9//12
