# Blender 5.2.0 LTS
# www.blender.org
o V11_LOWER_COMPONENT_020
v 0.800000 187.833145 56.238785
v 0.800000 228.094833 71.541374
v 6.800000 228.094833 71.541374
v 6.800000 187.833145 56.238785
v 0.800000 190.320114 49.695465
v 0.800000 230.581802 64.998055
v 6.800000 230.581802 64.998055
v 6.800000 190.320114 49.695465
vn -0.0000 -0.3553 0.9348
vn -0.0000 0.3553 -0.9348
vn -1.0000 -0.0000 -0.0000
vn -0.0000 0.9348 0.3553
vn 1.0000 -0.0000 -0.0000
vn -0.0000 -0.9348 -0.3553
s 0
f 4//1 2//1 1//1
f 6//2 8//2 5//2
f 1//3 6//3 5//3
f 3//4 6//4 2//4
f 4//5 7//5 3//5
f 1//6 8//6 4//6
f 4//1 3//1 2//1
f 6//2 7//2 8//2
f 1//3 2//3 6//3
f 3//4 7//4 6//4
f 4//5 8//5 7//5
f 1//6 5//6 8//6
