# Blender 5.2.0 LTS
# www.blender.org
o V11_LOWER_COMPONENT_051
v 78.744667 60.642368 88.555359
v 80.540863 55.409630 90.296661
v 83.803902 55.769173 88.011208
v 98.129410 70.598785 117.798157
v 96.333214 75.831520 116.056854
v 101.392448 70.958328 115.512703
vn -0.4885 -0.4219 -0.7638
vn 0.4885 0.4219 0.7638
vn 0.3097 -0.9022 0.3002
vn -0.8158 -0.0899 0.5714
vn 0.4957 0.5862 -0.6408
s 0
f 1//1 3//1 2//1
f 4//2 6//2 5//2
f 2//3 6//3 4//3
f 1//4 4//4 5//4
f 6//5 1//5 5//5
f 2//3 3//3 6//3
f 1//4 2//4 4//4
f 6//5 3//5 1//5
