# Blender 5.2.0 LTS
# www.blender.org
o V11_LOWER_COMPONENT_041
v 62.753666 119.450043 27.754036
v 59.739395 118.579773 31.430553
v 63.257839 117.878250 28.883316
v 89.174744 148.414169 56.272060
v 88.841820 148.318054 56.678127
v 81.951241 142.929520 55.405273
v 84.924477 141.959869 52.728237
v 86.328926 145.478088 53.723240
v 89.302383 148.016235 56.557957
v 88.943893 147.942413 56.965080
v 88.218399 145.241287 55.824909
v 88.006180 145.530457 56.322136
vn -0.5450 -0.5975 -0.5882
vn 0.5450 0.5974 0.5883
vn 0.7996 -0.1594 -0.5789
vn 0.2521 -0.7859 0.5646
vn -0.5604 0.7814 -0.2745
vn 0.5280 -0.4196 0.7384
vn -0.8281 0.1805 0.5308
vn 0.7160 -0.4258 0.5532
vn 0.5450 0.5975 0.5882
vn 0.7997 -0.1594 -0.5789
vn 0.2521 -0.7859 0.5647
vn -0.8281 0.1804 0.5308
s 0
f 1//1 3//1 2//1
f 5//2 9//2 4//2
f 1//3 9//3 11//3
f 7//4 2//4 3//4
f 1//5 6//5 8//5
f 6//6 7//6 8//6
f 8//7 12//7 10//7
f 9//8 12//8 11//8
f 5//9 10//9 9//9
f 11//3 3//3 1//3
f 1//10 4//10 9//10
f 11//4 12//4 7//4
f 7//4 6//4 2//4
f 3//11 11//11 7//11
f 8//5 5//5 4//5
f 1//5 2//5 6//5
f 8//5 4//5 1//5
f 10//12 5//12 8//12
f 8//7 7//7 12//7
f 9//8 10//8 12//8
