# Blender 5.2.0 LTS
# www.blender.org
o V11_LOWER_COMPONENT_012
v 31.287823 11.724536 81.915779
v 33.821110 50.698929 125.302696
v 30.820992 52.751762 123.633812
v 28.287708 13.777371 80.246895
v 28.515907 9.459338 84.112450
v 31.049192 48.433731 127.499367
v 28.049076 50.486565 125.830482
v 25.515793 11.512174 82.443565
vn 0.6600 0.5393 -0.5230
vn -0.6600 -0.5393 0.5230
vn 0.7500 -0.5132 0.4172
vn 0.0434 0.6676 0.7432
vn -0.7500 0.5132 -0.4172
vn -0.0434 -0.6676 -0.7432
s 0
f 4//1 2//1 1//1
f 6//2 8//2 5//2
f 2//3 5//3 1//3
f 3//4 6//4 2//4
f 4//5 7//5 3//5
f 1//6 8//6 4//6
f 4//1 3//1 2//1
f 6//2 7//2 8//2
f 2//3 6//3 5//3
f 3//4 7//4 6//4
f 4//5 8//5 7//5
f 1//6 5//6 8//6
