# Blender 5.2.0 LTS
# www.blender.org
o V11_LOWER_COMPONENT_006
v 42.723003 19.375011 83.622322
v 42.801277 17.353573 81.256485
v 42.789978 17.383274 81.257370
v 43.427528 17.522949 83.567139
v 51.765488 20.877678 78.568619
v 51.776787 20.847977 78.567734
v 52.403038 21.017353 80.878387
v 51.698513 22.869415 80.933571
vn -0.4404 0.6805 -0.5856
vn 0.2609 0.0706 0.9628
vn -0.2608 -0.0706 -0.9628
vn 0.3554 -0.9343 -0.0278
vn 0.8975 0.3494 -0.2689
vn -0.8976 -0.3494 0.2689
vn -0.2611 -0.0706 -0.9627
vn 0.8975 0.3495 -0.2689
vn -0.8975 -0.3494 0.2689
s 0
f 5//1 1//1 8//1
f 7//2 1//2 4//2
f 5//3 2//3 3//3
f 6//4 4//4 2//4
f 7//5 5//5 8//5
f 4//6 3//6 2//6
f 5//1 3//1 1//1
f 7//2 8//2 1//2
f 5//7 6//7 2//7
f 6//4 7//4 4//4
f 7//8 6//8 5//8
f 4//9 1//9 3//9
