# Blender 5.2.0 LTS
# www.blender.org
o V11_LOWER_COMPONENT_030
v 28.421093 37.285809 4.499839
v 29.143461 41.215042 8.704514
v 35.951431 23.501886 24.087709
v 32.230175 37.780231 3.383401
v 38.238045 20.957401 20.145868
v 35.281704 19.858973 20.189428
v 35.127430 19.837082 19.653383
v 38.967262 20.251497 18.606428
v 38.073132 21.035728 18.027184
v 38.454151 21.135742 18.652935
vn -0.2787 0.7251 -0.6297
vn 0.2787 -0.7251 0.6297
vn -0.1245 -0.6775 -0.7249
vn -0.9523 -0.1236 0.2791
vn 0.8546 0.4864 0.1818
vn -0.7289 -0.4501 0.5158
vn 0.3468 -0.9359 -0.0616
s 0
f 1//1 2//1 4//1
f 3//2 6//2 5//2
f 4//3 9//3 7//3
f 2//4 7//4 6//4
f 4//5 3//5 10//5
f 8//6 10//6 9//6
f 6//7 9//7 10//7
f 7//3 1//3 4//3
f 4//3 8//3 9//3
f 6//4 3//4 2//4
f 2//4 1//4 7//4
f 10//5 8//5 4//5
f 4//5 2//5 3//5
f 3//5 5//5 10//5
f 10//7 5//7 6//7
f 6//7 7//7 9//7
