# Blender 5.2.0 LTS
# www.blender.org
o V11_LOWER_COMPONENT_048
v 34.849113 229.677414 64.428925
v 35.815315 230.326736 66.055222
v 34.022381 227.076752 68.418037
v 84.495049 191.831177 50.044403
v 85.461250 192.480499 51.670696
v 83.668312 189.230515 54.033520
vn 0.7750 -0.5908 -0.2245
vn -0.7750 0.5908 0.2245
vn 0.4075 0.7386 -0.5370
vn 0.4831 0.3247 0.8131
vn -0.6084 -0.6012 -0.5180
s 0
f 4//1 5//1 6//1
f 1//2 3//2 2//2
f 1//3 5//3 4//3
f 2//4 6//4 5//4
f 3//5 4//5 6//5
f 1//3 2//3 5//3
f 2//4 3//4 6//4
f 3//5 1//5 4//5
