# Blender 5.2.0 LTS
# www.blender.org
o V11_LOWER_COMPONENT_039
v 59.658451 113.205956 26.234747
v 57.358242 115.842567 32.350079
v 61.996193 114.917839 28.992355
v 61.379482 89.890511 45.051826
v 62.197380 88.952995 42.877365
v 63.028152 89.561790 43.858242
v 63.400719 89.054337 38.055302
v 65.280022 93.724876 39.364857
v 62.323437 94.045982 41.671928
v 61.661201 92.392754 41.206341
vn -0.1378 0.8896 -0.4354
vn 0.1378 -0.8896 0.4354
vn 0.7996 -0.1594 -0.5789
vn 0.5844 0.4280 0.6894
vn -0.9351 -0.2618 -0.2389
vn 0.5296 -0.4198 0.7371
vn 0.7995 -0.1570 -0.5797
vn 0.5296 -0.4197 0.7371
s 0
f 1//1 2//1 3//1
f 4//2 5//2 6//2
f 1//3 8//3 7//3
f 2//4 6//4 9//4
f 4//5 1//5 10//5
f 8//6 10//6 7//6
f 10//7 6//7 5//7
f 1//3 3//3 8//3
f 8//4 3//4 2//4
f 2//4 4//4 6//4
f 9//4 8//4 2//4
f 10//5 5//5 4//5
f 4//5 2//5 1//5
f 1//5 7//5 10//5
f 8//8 9//8 10//8
f 10//7 9//7 6//7
