# Blender 5.2.0 LTS
# www.blender.org
o V11_LOWER_COMPONENT_032
v 37.257774 23.781460 22.365667
v 40.915001 23.137459 20.005587
v 41.811127 22.347736 21.609735
v 61.198708 79.024376 36.187611
v 62.094833 78.234650 37.791759
v 57.541481 79.668373 38.547691
vn -0.3292 -0.9070 -0.2626
vn 0.3292 0.9070 0.2626
vn 0.8312 -0.1464 -0.5364
vn -0.4481 0.3949 -0.8021
vn 0.0640 -0.2989 0.9521
s 0
f 1//1 2//1 3//1
f 4//2 6//2 5//2
f 3//3 4//3 5//3
f 4//4 1//4 6//4
f 1//5 5//5 6//5
f 3//3 2//3 4//3
f 4//4 2//4 1//4
f 1//5 3//5 5//5
