# Blender 5.2.0 LTS
# www.blender.org
o V11_LOWER_COMPONENT_059
v 88.492668 187.379135 55.964291
v 89.387207 191.227844 53.180897
v 91.023224 190.285233 53.840397
v 89.430664 243.855591 134.357788
v 90.325203 247.704300 131.574402
v 91.961220 246.761688 132.233902
vn -0.0097 -0.5845 -0.8113
vn 0.0097 0.5845 0.8113
vn 0.5751 0.6605 -0.4827
vn 0.8180 -0.4713 0.3298
vn -0.9827 0.1558 -0.1005
s 0
f 1//1 2//1 3//1
f 4//2 6//2 5//2
f 6//3 2//3 5//3
f 1//4 6//4 4//4
f 5//5 1//5 4//5
f 6//3 3//3 2//3
f 1//4 3//4 6//4
f 5//5 2//5 1//5
