# Blender 5.2.0 LTS
# www.blender.org
o V11_LOWER_COMPONENT_008
v 101.704453 175.929932 82.964127
v 101.075317 177.809204 81.610428
v 105.181625 175.615509 80.911591
v 104.552490 177.494781 79.557892
v 108.958771 183.665955 86.077194
v 105.481598 183.980377 88.129730
v 106.110733 182.101105 89.483429
v 109.587906 181.786682 87.430893
vn -0.2621 0.7830 -0.5640
vn 0.2621 -0.7830 0.5640
vn 0.8586 -0.0776 -0.5068
vn -0.4406 -0.6171 -0.6519
vn -0.8586 0.0776 0.5068
vn 0.4406 0.6171 0.6519
s 0
f 2//1 5//1 4//1
f 1//2 8//2 7//2
f 8//3 4//3 5//3
f 2//4 3//4 1//4
f 7//5 2//5 1//5
f 7//6 5//6 6//6
f 2//1 6//1 5//1
f 1//2 3//2 8//2
f 8//3 3//3 4//3
f 2//4 4//4 3//4
f 7//5 6//5 2//5
f 7//6 8//6 5//6
