# Blender 5.2.0 LTS
# www.blender.org
o V11_LOWER_COMPONENT_033
v 36.973228 20.040606 28.026443
v 58.573704 79.555542 45.258957
v 62.662907 79.731895 39.524212
v 63.797497 78.290833 43.078938
v 38.741932 19.612392 27.288319
v 39.199730 19.831104 25.959126
v 38.849926 20.121538 25.394545
v 41.798935 22.246201 22.879267
v 43.650459 22.780495 27.005953
v 39.726250 19.991861 27.127981
v 39.647205 21.100466 27.602631
v 39.692501 20.617294 27.392298
v 38.900700 20.884935 25.940859
v 38.881027 20.513016 25.667421
vn -0.3292 -0.9070 -0.2626
vn 0.3292 0.9070 0.2626
vn 0.9007 -0.2181 -0.3759
vn 0.2836 -0.3603 0.8887
vn -0.7448 0.4204 -0.5182
vn 0.3551 -0.9343 -0.0314
vn 0.8728 0.2434 -0.4230
vn 0.7448 -0.4205 0.5181
vn 0.3800 -0.9236 -0.0509
vn 0.2840 -0.3599 0.8887
vn 0.8758 0.2272 -0.4258
vn 0.8721 0.2451 -0.4235
s 0
f 7//1 5//1 1//1
f 2//2 4//2 3//2
f 3//3 9//3 8//3
f 11//4 1//4 10//4
f 1//5 13//5 7//5
f 5//6 6//6 10//6
f 10//7 7//7 11//7
f 7//8 14//8 13//8
f 9//9 13//9 8//9
f 7//1 6//1 5//1
f 3//3 4//3 9//3
f 11//4 9//4 4//4
f 4//4 2//4 1//4
f 1//4 5//4 10//4
f 10//10 12//10 11//10
f 11//4 4//4 1//4
f 1//5 2//5 3//5
f 3//5 8//5 13//5
f 1//5 3//5 13//5
f 10//11 6//11 7//11
f 7//12 13//12 11//12
f 9//9 11//9 13//9
