# Blender 5.2.0 LTS
# www.blender.org
o V11_LOWER_COMPONENT_036
v 59.200607 31.249382 73.032013
v 65.040962 27.348583 73.592331
v 73.845039 54.583420 82.834625
v 76.982788 51.156029 86.305573
v 79.685394 50.682625 83.394943
v 64.089081 27.515322 74.617485
v 63.214474 28.485456 73.614777
v 62.129715 28.049889 76.272163
v 63.852444 28.729937 76.030777
v 62.491264 28.065628 76.605316
v 63.176365 28.462990 76.378357
v 62.491009 28.192776 76.584396
vn -0.5008 -0.7980 -0.3352
vn 0.5008 0.7980 0.3352
vn 0.5410 -0.5909 0.5984
vn -0.6757 0.1184 0.7277
vn 0.2491 0.2381 -0.9388
vn -0.2264 -0.1586 -0.9610
vn -0.8370 -0.4763 0.2692
vn 0.3671 -0.9302 -0.0002
vn -0.6757 0.1183 0.7276
vn 0.3671 -0.9302 0.0010
vn 0.3668 -0.9303 -0.0027
s 0
f 1//1 2//1 7//1
f 3//2 4//2 5//2
f 9//3 4//3 11//3
f 12//4 4//4 1//4
f 2//5 3//5 5//5
f 12//6 11//6 10//6
f 6//7 9//7 7//7
f 8//8 9//8 11//8
f 7//1 8//1 1//1
f 2//1 6//1 7//1
f 9//3 6//3 2//3
f 2//3 5//3 4//3
f 4//3 10//3 11//3
f 9//3 2//3 4//3
f 12//4 10//4 4//4
f 4//4 3//4 1//4
f 1//9 8//9 12//9
f 2//5 1//5 3//5
f 11//10 12//10 8//10
f 8//11 7//11 9//11
