# Blender 5.2.0 LTS
# www.blender.org
o V11_LOWER_COMPONENT_003
v 6.556342 11.565503 64.232941
v 4.933773 10.899465 65.871124
v 7.421622 4.359385 65.676254
v 9.044190 5.025423 64.038071
v 10.062453 9.382609 66.818123
v 9.894733 9.705449 66.783257
v 9.787261 10.053020 66.818123
v 9.747356 10.401632 66.920334
v 9.755796 10.492160 66.965500
v 10.015865 9.472288 66.808441
v 10.278987 9.106500 66.920334
v 10.529581 8.895938 67.082932
v 9.777741 10.727532 67.082932
v 9.876345 11.008508 67.294830
v 10.797156 8.765272 67.294830
v 8.907016 8.229900 68.721115
v 9.174591 8.099236 68.933014
v 9.248569 8.087606 69.001556
v 9.440910 8.057370 69.179771
v 9.687830 8.107161 69.444580
v 9.898520 8.245212 69.709389
v 8.164696 9.386982 68.456306
v 8.272170 9.039413 68.421448
v 8.194549 9.290435 68.446625
v 8.318759 8.949736 68.431129
v 8.439888 8.716572 68.456306
v 8.135876 9.638758 68.530128
v 8.124791 9.735595 68.558517
v 8.146736 9.970967 68.675949
v 8.155176 10.061495 68.721115
v 8.656422 8.440463 68.558517
v 8.253779 10.342471 68.933014
v 8.413878 10.559374 69.179771
v 8.566044 10.659078 69.371025
v 8.624569 10.697426 69.444580
v 9.920816 11.068759 67.363373
v 10.036444 11.225411 67.541588
v 10.247134 11.363462 67.806396
v 10.494053 11.413253 68.071205
v 9.586368 10.422612 70.285477
v 9.655977 10.364122 70.330643
v 8.871488 10.747215 69.709389
v 9.137808 10.705350 69.956146
v 9.405383 10.574685 70.168045
v 10.058619 8.462115 69.956146
v 10.086009 8.540164 70.015007
v 10.157223 8.743091 70.168045
v 10.147703 9.417603 70.432854
v 9.872511 10.088013 70.432854
v 9.812363 10.164710 70.404465
v 9.946261 9.946054 70.448189
v 10.040231 9.765173 70.467720
v 9.993643 9.854852 70.458038
v 10.117849 9.514151 70.442543
v 10.187608 9.068990 70.330643
v 10.176523 9.165827 70.359039
v 13.876194 6.597104 72.979065
v 11.063476 8.723408 67.541588
v 11.310395 8.773197 67.806396
v 11.521086 8.911248 68.071205
v 11.636713 9.067901 68.249420
v 11.662794 10.431210 68.829529
v 10.760373 11.371387 68.317963
v 11.027948 11.240722 68.529861
v 11.278543 11.030160 68.692459
v 11.338691 10.953463 68.720848
v 11.495076 10.754050 68.794670
v 11.541665 10.664372 68.804352
v 11.568828 10.612088 68.809998
v 11.681185 9.128152 68.317963
v 11.779787 9.409128 68.529861
v 11.810173 9.735027 68.692459
v 11.770268 10.083640 68.794670
v 11.692648 10.334661 68.819847
v 13.010914 13.803222 71.535751
v 11.388346 13.137183 73.173935
v 15.498762 7.263143 71.340881
vn -0.6761 -0.2775 0.6826
vn -0.6760 -0.2775 0.6826
vn 0.6760 0.2775 -0.6826
vn 0.6761 0.2775 -0.6826
vn 0.3554 -0.9343 -0.0278
vn 0.6455 0.2238 0.7303
vn -0.3554 0.9343 0.0278
vn -0.6455 -0.2238 -0.7303
vn -0.4657 -0.5314 -0.7076
vn -0.5344 -0.4680 -0.7038
vn -0.4644 -0.6040 -0.6478
vn -0.2962 -0.7791 -0.5525
vn 0.1092 -0.9539 -0.2797
vn 0.2941 -0.9510 -0.0954
vn 0.4589 -0.8833 0.0954
vn 0.5925 -0.7555 0.2797
vn 0.6782 -0.6150 0.4023
vn 0.7321 -0.3575 0.5798
vn 0.7287 -0.1145 0.6752
vn 0.6756 0.1362 0.7246
vn 0.5765 0.3777 0.7246
vn 0.4709 0.5498 0.6899
vn 0.0831 0.8917 0.4449
vn -0.1092 0.9539 0.2797
vn -0.2941 0.9510 0.0954
vn -0.4589 0.8833 -0.0954
vn -0.5925 0.7555 -0.2797
vn -0.6857 0.5761 -0.4449
vn -0.7118 0.5648 -0.4177
vn -0.7287 0.1145 -0.6752
vn -0.6756 -0.1362 -0.7246
vn 0.6759 0.2776 -0.6827
vn -0.9222 -0.1729 0.3458
vn -0.6760 -0.2775 0.6827
vn -0.6761 -0.2775 0.6825
vn 0.9999 -0.0000 -0.0134
vn -0.6760 -0.2776 0.6826
vn -0.6172 0.7715 0.1543
vn -0.0000 -0.0000 1.0000
vn -0.6765 -0.2775 0.6822
vn 0.6396 0.6396 0.4264
vn -0.6760 -0.2776 0.6827
vn 0.9918 -0.1240 -0.0310
vn 0.8240 0.5665 -0.0000
vn 0.6761 0.2776 -0.6826
vn -0.0000 0.9884 -0.1521
vn 0.6761 0.2775 -0.6825
vn 0.6765 0.2775 -0.6822
vn 0.6758 0.2776 -0.6828
vn 0.6764 0.2773 -0.6823
vn 0.6761 0.2776 -0.6825
vn -0.6136 -0.3150 -0.7241
vn -0.5955 -0.3855 -0.7048
vn -0.6755 -0.2776 0.6831
vn -0.4381 -0.5935 -0.6752
vn -0.2698 -0.7688 -0.5798
vn -0.2504 -0.7606 -0.5990
vn -0.0831 -0.8917 -0.4449
vn -0.0639 -0.8835 -0.4641
vn 0.4589 -0.8834 0.0954
vn 0.6782 -0.5791 0.4523
vn 0.6899 -0.3736 0.6200
vn 0.6830 0.1393 0.7170
vn 0.7287 -0.1146 0.6752
vn 0.6505 0.2039 0.7317
vn 0.6760 0.2776 -0.6826
vn 0.4306 0.5904 0.6826
vn 0.2698 0.7688 0.5798
vn -0.4589 0.8834 -0.0954
vn -0.7287 0.1146 -0.6752
vn -0.7126 0.3653 -0.5990
vn -0.7321 0.3575 -0.5798
vn 0.6756 0.2777 -0.6830
s 0
f 3//1 26//1 25//1
f 57//2 41//2 49//2
f 4//3 7//3 6//3
f 75//4 62//4 69//4
f 57//5 4//5 77//5
f 76//6 77//6 75//6
f 76//7 1//7 2//7
f 2//8 4//8 3//8
f 68//9 52//9 66//9
f 50//10 66//10 51//10
f 64//11 50//11 41//11
f 63//12 40//12 44//12
f 39//13 43//13 42//13
f 38//14 42//14 35//14
f 33//15 38//15 34//15
f 37//16 33//16 32//16
f 36//17 29//17 13//17
f 9//18 29//18 28//18
f 28//19 7//19 8//19
f 7//20 22//20 24//20
f 23//2 25//2 24//2
f 10//21 25//21 26//21
f 10//22 31//22 11//22
f 12//23 16//23 17//23
f 15//24 17//24 18//24
f 58//24 18//24 19//24
f 59//25 19//25 20//25
f 21//26 60//26 59//26
f 45//27 70//27 61//27
f 45//28 46//28 71//28
f 72//29 46//29 47//29
f 73//30 56//30 48//30
f 74//31 54//31 52//31
f 74//32 69//32 62//32
f 44//33 40//33 41//33
f 57//34 51//34 53//34
f 57//35 53//35 52//35
f 44//1 41//1 76//1
f 43//1 44//1 76//1
f 57//1 52//1 54//1
f 48//36 56//36 55//36
f 57//37 54//37 48//37
f 42//1 43//1 76//1
f 33//38 34//38 35//38
f 35//1 42//1 76//1
f 57//1 48//1 55//1
f 47//39 46//39 45//39
f 57//1 55//1 47//1
f 35//1 76//1 2//1
f 33//1 35//1 2//1
f 57//1 47//1 45//1
f 57//1 45//1 21//1
f 32//1 33//1 2//1
f 30//1 32//1 2//1
f 3//1 57//1 21//1
f 3//1 21//1 20//1
f 30//1 2//1 3//1
f 29//40 30//40 3//40
f 3//1 20//1 19//1
f 19//41 18//41 17//41
f 3//1 19//1 17//1
f 28//42 29//42 3//42
f 22//43 27//43 28//43
f 22//1 28//1 3//1
f 3//1 17//1 16//1
f 3//1 16//1 31//1
f 24//34 22//34 3//34
f 23//1 24//1 3//1
f 3//1 31//1 26//1
f 25//35 23//35 3//35
f 49//35 51//35 57//35
f 57//1 76//1 41//1
f 41//44 50//44 49//44
f 74//3 62//3 77//3
f 75//45 69//45 68//45
f 67//46 66//46 65//46
f 75//47 68//47 67//47
f 73//4 74//4 77//4
f 72//4 73//4 77//4
f 75//4 67//4 65//4
f 75//4 65//4 64//4
f 71//4 72//4 77//4
f 70//4 71//4 77//4
f 75//4 64//4 63//4
f 75//4 63//4 39//4
f 70//4 77//4 4//4
f 61//48 70//48 4//48
f 1//4 75//4 39//4
f 1//4 39//4 38//4
f 60//49 61//49 4//49
f 59//4 60//4 4//4
f 1//4 38//4 37//4
f 1//4 37//4 36//4
f 58//4 59//4 4//4
f 15//4 58//4 4//4
f 1//4 36//4 14//4
f 1//4 14//4 13//4
f 12//4 15//4 4//4
f 11//4 12//4 4//4
f 4//4 1//4 13//4
f 4//32 13//32 9//32
f 5//4 11//4 4//4
f 10//4 5//4 4//4
f 4//50 9//50 8//50
f 4//4 8//4 7//4
f 6//47 10//47 4//47
f 75//4 77//4 62//4
f 57//5 3//5 4//5
f 76//6 57//6 77//6
f 76//7 75//7 1//7
f 2//8 1//8 4//8
f 66//51 67//51 68//51
f 68//52 74//52 52//52
f 52//53 53//53 66//53
f 51//54 49//54 50//54
f 50//55 65//55 66//55
f 66//53 53//53 51//53
f 41//56 40//56 64//56
f 64//57 65//57 50//57
f 44//58 43//58 63//58
f 63//59 64//59 40//59
f 39//13 63//13 43//13
f 35//60 34//60 38//60
f 38//14 39//14 42//14
f 32//61 30//61 36//61
f 37//15 38//15 33//15
f 32//16 36//16 37//16
f 13//4 14//4 36//4
f 36//62 30//62 29//62
f 9//18 13//18 29//18
f 8//18 9//18 28//18
f 28//19 27//19 7//19
f 25//63 6//63 7//63
f 7//64 27//64 22//64
f 24//65 25//65 7//65
f 10//21 6//21 25//21
f 11//66 5//66 10//66
f 10//67 26//67 31//67
f 31//68 16//68 11//68
f 12//68 11//68 16//68
f 15//23 12//23 17//23
f 58//24 15//24 18//24
f 59//25 58//25 19//25
f 59//69 20//69 21//69
f 21//27 61//27 60//27
f 61//27 21//27 45//27
f 45//28 71//28 70//28
f 55//70 56//70 72//70
f 72//71 71//71 46//71
f 47//72 55//72 72//72
f 48//31 54//31 73//31
f 73//30 72//30 56//30
f 74//31 73//31 54//31
f 74//73 68//73 69//73
