# Blender 5.2.0 LTS
# www.blender.org
o V11_LOWER_COMPONENT_043
v 62.749393 86.794609 47.907684
v 78.083435 60.908886 86.796257
v 80.763039 56.021584 82.486504
v 82.766380 59.215553 83.822594
v 64.274643 86.243088 46.939152
v 63.663540 85.127304 46.437405
v 69.283730 81.975906 49.629322
v 66.159668 80.673851 45.450970
v 66.548157 82.896873 51.529446
v 65.282608 82.371147 49.842117
vn 0.3119 -0.5265 0.7909
vn -0.3119 0.5265 -0.7909
vn 0.8074 -0.2920 -0.5127
vn 0.5008 0.7985 0.3340
vn -0.8707 -0.4916 0.0161
vn 0.0739 0.9351 -0.3467
vn 0.8128 -0.1989 -0.5475
vn 0.0739 0.9350 -0.3468
vn 0.8127 -0.1990 -0.5476
s 0
f 2//1 3//1 4//1
f 1//2 5//2 6//2
f 3//3 7//3 4//3
f 2//4 7//4 9//4
f 2//5 6//5 10//5
f 10//6 7//6 8//6
f 5//7 10//7 6//7
f 3//3 8//3 7//3
f 5//4 1//4 2//4
f 2//4 4//4 7//4
f 9//4 5//4 2//4
f 8//5 3//5 2//5
f 2//5 1//5 6//5
f 10//5 8//5 2//5
f 10//8 9//8 7//8
f 5//9 9//9 10//9
