# Blender 5.2.0 LTS
# www.blender.org
o V11_LOWER_COMPONENT_027
v 59.696766 28.115753 67.818169
v 59.346260 34.241966 75.855377
v 61.704712 35.239353 74.708199
v 59.650288 27.999857 79.108627
v 62.484013 30.814573 79.326324
v 67.545067 31.338554 75.268517
v 64.842461 31.811958 78.179146
vn 0.4398 0.5573 -0.7043
vn 0.5008 0.7980 0.3352
vn 0.5410 -0.5909 0.5984
vn 0.3862 -0.9224 -0.0079
vn -0.9987 -0.0511 -0.0046
vn -0.5354 0.6603 -0.5266
vn -0.4533 0.3945 0.7993
vn 0.0289 0.7242 0.6890
s 0
f 1//1 3//1 6//1
f 3//2 7//2 6//2
f 5//3 6//3 7//3
f 4//3 6//3 5//3
f 1//4 6//4 4//4
f 1//5 4//5 2//5
f 1//6 2//6 3//6
f 2//7 4//7 5//7
f 2//8 7//8 3//8
f 2//8 5//8 7//8
