# Blender 5.2.0 LTS
# www.blender.org
o V11_LOWER_COMPONENT_005
v 41.788368 20.016321 81.335823
v 41.361877 21.137478 81.369232
v 41.379517 21.091105 81.367851
v 41.724327 20.667536 81.968391
v 42.004745 20.074844 82.134193
v 41.995991 20.333820 82.441544
v 41.963326 21.300146 83.588371
v 50.763874 23.510725 78.647072
v 50.337387 24.631882 78.680481
v 47.257118 23.358212 82.101479
v 51.022507 23.580675 79.601326
v 50.963638 24.801258 80.991135
v 50.982964 24.750458 80.989624
vn 0.4312 -0.6839 0.5885
vn 0.2611 0.0706 0.9627
vn -0.2609 -0.0706 -0.9628
vn 0.8975 0.3494 -0.2689
vn -0.3554 0.9343 0.0278
vn -0.8976 -0.3494 0.2688
vn 0.3554 -0.9343 -0.0278
vn -0.8975 -0.3495 0.2689
vn -0.8976 -0.3494 0.2689
vn 0.8976 0.3494 -0.2689
vn -0.3555 0.9343 0.0278
vn 0.7044 -0.7044 0.0880
s 0
f 11//1 10//1 6//1
f 10//2 13//2 12//2
f 9//3 1//3 3//3
f 9//4 13//4 11//4
f 7//5 12//5 9//5
f 6//6 2//6 3//6
f 8//7 5//7 1//7
f 5//8 4//8 1//8
f 6//1 5//1 11//1
f 11//1 13//1 10//1
f 10//1 7//1 6//1
f 3//3 2//3 9//3
f 9//3 8//3 1//3
f 1//9 4//9 3//9
f 11//10 8//10 9//10
f 9//10 12//10 13//10
f 9//5 2//5 7//5
f 7//11 10//11 12//11
f 3//12 4//12 6//12
f 6//9 7//9 2//9
f 8//7 11//7 5//7
f 5//9 6//9 4//9
