# Blender 5.2.0 LTS
# www.blender.org
o V11_LOWER_COMPONENT_047
v 27.274063 234.928101 70.155655
v 27.274063 229.815796 72.895042
v 30.997114 234.237350 68.866562
v 54.349075 262.369446 133.647308
v 54.349075 267.481750 130.907913
v 58.072124 266.790985 129.618820
vn 0.3656 0.4396 0.8204
vn -0.3656 -0.4396 -0.8204
vn -0.0000 0.8814 -0.4723
vn -0.9308 0.1727 0.3223
vn 0.7662 -0.6426 0.0028
s 0
f 4//1 6//1 5//1
f 1//2 3//2 2//2
f 6//3 1//3 5//3
f 1//4 4//4 5//4
f 2//5 6//5 4//5
f 6//3 3//3 1//3
f 1//4 2//4 4//4
f 2//5 3//5 6//5
