# Blender 5.2.0 LTS
# www.blender.org
o V11_LOWER_COMPONENT_055
v 82.104218 187.164978 53.729942
v 84.467628 191.449066 50.615314
v 88.120270 190.105789 51.539341
v 85.444458 250.263535 132.254150
v 89.097099 248.920258 133.178162
v 83.081047 245.979446 135.368774
vn -0.0097 -0.5845 -0.8113
vn 0.0097 0.5845 0.8113
vn 0.4075 0.7386 -0.5370
vn -0.9132 0.3358 -0.2310
vn 0.5204 -0.6958 0.4950
s 0
f 1//1 2//1 3//1
f 4//2 6//2 5//2
f 5//3 2//3 4//3
f 4//4 1//4 6//4
f 1//5 5//5 6//5
f 5//3 3//3 2//3
f 4//4 2//4 1//4
f 1//5 3//5 5//5
