# Blender 5.2.0 LTS
# www.blender.org
o V11_LOWER_COMPONENT_021
v 0.978418 8.030235 50.208107
v 0.810567 8.519135 89.887535
v 6.810514 8.519447 89.912910
v 6.978365 8.030548 50.233482
v 6.978365 1.031079 50.319725
v 0.825234 1.476946 86.506645
v 6.825294 1.476928 86.505157
v 0.810567 4.660316 89.935081
v 0.826056 1.759473 86.308754
v 6.810514 4.646435 89.960632
v 6.826060 1.740203 86.320747
v 6.110252 8.198989 63.904270
v 6.923435 8.190543 63.218830
v 6.918739 8.204222 64.328941
v 6.920966 6.013885 63.829361
v 6.978365 6.768473 50.249031
v 6.973573 6.728503 51.382553
v 4.039291 5.651486 50.250362
v 1.865493 1.104041 56.241371
v 0.957246 1.092434 55.299408
v 0.978418 5.285694 50.241924
v 0.952193 5.253602 56.442871
v 6.923536 7.355086 63.205070
v 6.963358 6.641783 53.798649
v 6.961647 7.409054 54.193794
v 6.928956 2.906554 61.978420
v 3.488885 6.183568 50.241478
v 3.829415 5.571672 50.250458
v 6.102286 1.031033 50.316021
v 6.886304 1.110790 56.789112
v 6.950682 1.133613 56.863602
v 6.978365 1.388191 50.315323
v 6.949848 2.110652 57.048679
v 6.948820 3.124986 57.279430
v 6.977138 1.366919 50.605812
v 6.213542 1.075063 50.315948
v 2.519646 1.052637 52.069408
v 1.448344 1.066189 53.169338
v 2.534864 1.549618 52.190166
vn -0.0000 0.9999 -0.0123
vn -0.0000 -0.9999 0.0123
vn -1.0000 -0.0001 -0.0042
vn -0.0042 0.0123 0.9999
vn 1.0000 0.0001 0.0042
vn 0.0042 -0.0123 -0.9999
vn 0.0002 0.5737 0.8191
vn -0.0038 -0.7815 0.6239
vn 0.4548 0.1985 -0.8682
vn 0.6316 0.2087 0.7467
vn 0.3553 -0.9342 -0.0320
vn 0.3551 -0.9343 -0.0314
vn 0.7063 0.1886 -0.6823
vn -0.6471 -0.3502 0.6772
vn -0.3757 0.9259 0.0403
vn 0.3365 -0.9417 -0.0035
vn -0.3678 0.9293 0.0331
vn -0.3780 0.9234 0.0660
vn 0.7264 0.1291 -0.6750
vn -0.7024 0.1883 -0.6864
vn 1.0000 -0.0000 0.0042
vn -0.0045 -0.7809 0.6246
vn 0.7060 0.1891 -0.6825
vn 0.7058 0.1885 -0.6829
vn -0.3745 0.9264 0.0394
vn -0.3778 0.9249 0.0414
vn 0.3368 -0.9416 -0.0039
vn 0.3362 -0.9418 -0.0042
vn 0.7307 0.1277 -0.6707
vn 0.7258 0.1414 -0.6732
vn 0.7223 0.1541 -0.6742
s 0
f 12//1 2//1 14//1
f 30//2 7//2 19//2
f 9//3 2//3 22//3
f 3//4 8//4 10//4
f 15//5 26//5 23//5
f 5//6 36//6 32//6
f 4//6 18//6 27//6
f 7//7 9//7 6//7
f 10//8 9//8 11//8
f 14//9 15//9 12//9
f 12//10 15//10 13//10
f 18//11 24//11 28//11
f 17//12 18//12 16//12
f 19//13 22//13 23//13
f 24//14 27//14 28//14
f 26//15 39//15 38//15
f 25//16 22//16 21//16
f 36//17 30//17 31//17
f 36//18 35//18 32//18
f 33//19 30//19 39//19
f 38//20 39//20 37//20
f 12//1 13//1 4//1
f 4//1 1//1 2//1
f 2//1 3//1 14//1
f 12//1 4//1 2//1
f 30//2 29//2 5//2
f 7//2 6//2 20//2
f 19//2 38//2 37//2
f 7//2 20//2 19//2
f 30//2 5//2 7//2
f 19//2 37//2 30//2
f 9//3 8//3 2//3
f 2//3 1//3 21//3
f 22//3 20//3 6//3
f 2//3 21//3 22//3
f 22//3 6//3 9//3
f 3//4 2//4 8//4
f 17//5 16//5 4//5
f 15//5 14//5 3//5
f 3//5 10//5 11//5
f 5//5 32//5 35//5
f 31//5 33//5 34//5
f 5//21 35//21 31//21
f 15//5 3//5 11//5
f 24//5 17//5 4//5
f 25//5 24//5 4//5
f 15//21 11//21 7//21
f 7//5 5//5 31//5
f 31//5 34//5 26//5
f 23//5 25//5 4//5
f 7//5 31//5 26//5
f 23//5 4//5 13//5
f 15//5 7//5 26//5
f 23//5 13//5 15//5
f 5//6 29//6 36//6
f 21//6 1//6 4//6
f 4//6 16//6 18//6
f 18//6 28//6 27//6
f 27//6 21//6 4//6
f 7//7 11//7 9//7
f 10//22 8//22 9//22
f 18//11 17//11 24//11
f 23//23 26//23 19//23
f 19//24 20//24 22//24
f 24//14 25//14 27//14
f 38//25 19//25 26//25
f 26//26 34//26 39//26
f 21//27 27//27 25//27
f 25//28 23//28 22//28
f 31//17 35//17 36//17
f 36//17 29//17 30//17
f 33//29 31//29 30//29
f 30//30 37//30 39//30
f 39//31 34//31 33//31
