# Blender 5.2.0 LTS
# www.blender.org
o V11_LOWER_COMPONENT_049
v 32.611626 235.197952 70.070129
v 34.223045 234.016388 69.985115
v 32.172668 231.039566 72.493996
v 58.224144 265.993164 127.540764
v 57.785187 261.834778 129.964630
v 59.835564 264.811584 127.455750
vn 0.3656 0.4396 0.8204
vn -0.3656 -0.4396 -0.8204
vn 0.4660 0.6765 -0.5702
vn 0.8057 -0.5908 -0.0425
vn -0.9263 0.2579 0.2746
vn 0.4660 0.6766 -0.5702
s 0
f 4//1 5//1 6//1
f 1//2 2//2 3//2
f 6//3 1//3 4//3
f 5//4 2//4 6//4
f 5//5 1//5 3//5
f 6//6 2//6 1//6
f 5//4 3//4 2//4
f 5//5 4//5 1//5
