# Blender 5.2.0 LTS
# www.blender.org
o V11_LOWER_COMPONENT_004
v 41.475246 19.931635 80.180511
v 42.028019 19.386318 81.317055
v 41.788368 20.016321 81.335823
v 41.048756 21.052790 80.213913
v 41.361877 21.137476 81.369232
v 42.004745 20.074842 82.134193
v 41.935940 21.292738 83.487335
v 41.966270 21.213011 83.484962
v 41.966270 21.213011 83.484962
v 50.024265 24.547194 77.525162
v 50.450756 23.426039 77.491760
v 50.763874 23.510725 78.647072
v 50.360237 24.571815 78.678688
v 50.337387 24.631880 78.680481
v 51.050323 22.757706 78.624634
v 51.022507 23.580675 79.601334
v 51.020657 23.635342 79.666206
v 50.988575 24.584396 80.792542
v 50.988575 24.584396 80.792542
v 50.911449 24.787142 80.798584
v 50.911449 24.787142 80.798584
vn 0.4312 -0.6839 0.5886
vn 0.4312 -0.6839 0.5885
vn -0.2609 -0.0706 -0.9628
vn 0.8976 0.3494 -0.2689
vn -0.8976 -0.3494 0.2689
vn 0.2610 0.0706 0.9628
vn 0.3554 -0.9343 -0.0278
vn 0.8975 0.3494 -0.2689
vn -0.3554 0.9343 0.0278
vn -0.8975 -0.3494 0.2689
vn 0.8944 -0.4472 0.0105
vn -0.9970 -0.0779 -0.0000
vn 0.2609 0.0706 0.9628
vn 0.8975 0.3495 -0.2689
s 0
f 16//1 17//1 9//1
f 15//2 19//2 8//2
f 14//3 15//3 2//3
f 13//4 17//4 15//4
f 8//5 5//5 2//5
f 8//6 20//6 7//6
f 21//6 9//6 18//6
f 11//3 4//3 10//3
f 12//7 6//7 3//7
f 11//7 3//7 1//7
f 21//8 17//8 13//8
f 20//8 17//8 12//8
f 10//9 7//9 20//9
f 7//9 14//9 5//9
f 9//10 4//10 3//10
f 9//2 6//2 16//2
f 17//2 18//2 9//2
f 8//2 2//2 15//2
f 15//11 17//11 19//11
f 2//3 5//3 14//3
f 14//12 13//12 15//12
f 8//5 7//5 5//5
f 8//13 19//13 20//13
f 21//6 7//6 9//6
f 11//3 1//3 4//3
f 12//7 16//7 6//7
f 11//7 12//7 3//7
f 13//4 14//4 21//4
f 21//14 18//14 17//14
f 11//4 10//4 20//4
f 20//14 19//14 17//14
f 17//4 16//4 12//4
f 12//4 11//4 20//4
f 10//9 4//9 7//9
f 7//9 21//9 14//9
f 3//5 6//5 9//5
f 9//5 7//5 4//5
f 4//5 1//5 3//5
