# Blender 5.2.0 LTS
# www.blender.org
o V11_LOWER_COMPONENT_007
v 62.790787 58.731396 120.153442
v 59.880829 66.008987 118.550705
v 59.970184 66.558838 120.885162
v 65.238022 65.045090 118.572678
v 65.749237 64.124298 118.769989
v 65.323387 64.698479 118.651054
v 65.497757 64.384415 118.718346
v 65.449318 64.471657 118.699654
v 65.679382 64.196548 118.755646
v 65.247467 65.400635 118.488579
v 65.541824 66.042610 118.326103
v 65.615395 66.110023 118.307404
v 65.351089 65.740868 118.404472
v 66.060692 63.935852 118.802452
v 66.313622 63.860802 118.810448
v 66.410904 63.831932 118.813522
v 66.776001 63.819611 118.802452
v 65.806664 66.285301 118.258804
v 66.127579 66.452400 118.207161
v 66.482681 66.532516 118.174698
v 62.880142 59.281239 122.487900
v 65.587112 64.934265 121.052811
v 65.412743 65.248329 120.985512
v 65.327377 65.594933 120.907135
v 65.336823 65.950485 120.823036
v 65.440445 66.290718 120.738930
v 65.631180 66.592461 120.660561
v 65.838593 64.674141 121.104446
v 66.150047 64.485695 121.136909
v 66.500259 64.381783 121.147980
v 65.896027 66.835152 120.593262
v 66.216934 67.002251 120.541618
v 66.572037 67.082367 120.509155
v 67.032463 63.877472 118.779007
v 67.131104 63.899727 118.769989
v 67.452011 64.066826 118.718353
v 67.716858 64.309517 118.651047
v 66.847778 66.520195 118.163628
v 66.945061 66.491333 118.166702
v 67.197990 66.416275 118.174698
v 67.509445 66.227837 118.207161
v 67.760925 65.967712 118.258804
v 67.907593 64.611259 118.572678
v 68.011215 64.951492 118.488579
v 68.018036 65.208275 118.427834
v 67.935295 65.653648 118.326103
v 68.020660 65.307037 118.404472
v 66.865356 64.369453 121.136909
v 67.220459 64.449570 121.104446
v 67.541374 64.616676 121.052811
v 66.937134 67.070045 120.498085
v 67.287346 66.966125 120.509155
v 67.512283 66.830025 120.532600
v 67.598801 66.777679 120.541618
v 67.806213 64.859367 120.985512
v 67.859192 64.943184 120.963737
v 67.996948 65.161102 120.907135
v 68.024651 66.203499 120.660561
v 68.110016 65.856888 120.738930
v 68.100571 65.501343 120.823036
v 67.850281 66.517563 120.593262
v 73.959839 62.887627 118.746994
v 74.049194 63.437469 121.081451
v 71.049881 70.165215 117.144257
v 71.139236 70.715065 119.478714
vn -0.0372 -0.2291 -0.9727
vn 0.0373 0.2291 0.9727
vn 0.0372 0.2291 0.9727
vn 0.3637 -0.9097 0.2003
vn -0.9308 -0.3464 0.1172
vn -0.3637 0.9097 -0.2003
vn 0.9308 0.3464 -0.1172
vn 0.2835 0.9309 -0.2301
vn 0.5693 0.7951 -0.2091
vn 0.7725 0.6101 -0.1764
vn 0.8781 0.4572 -0.1413
vn 0.9716 0.2192 -0.0888
vn 0.9990 -0.0337 -0.0303
vn 0.9582 -0.2844 0.0303
vn 0.8522 -0.5156 0.0888
vn 0.6881 -0.7117 0.1413
vn 0.6861 -0.7202 0.1029
vn 0.2336 -0.9484 0.2145
vn -0.0259 -0.9728 0.2301
vn -0.2835 -0.9309 0.2301
vn -0.5219 -0.8256 0.2144
vn -0.7247 -0.6640 0.1841
vn -0.8781 -0.4572 0.1413
vn -0.9716 -0.2192 0.0888
vn -0.9990 0.0337 0.0303
vn -0.9582 0.2844 -0.0303
vn -0.8522 0.5156 -0.0888
vn -0.6881 0.7117 -0.1413
vn -0.2336 0.9484 -0.2144
vn 0.0259 0.9728 -0.2301
vn -0.0373 -0.2291 -0.9727
vn 0.5345 0.2673 -0.8018
vn -0.0371 -0.2291 -0.9727
vn -0.0374 -0.2291 -0.9727
vn 0.9545 0.2983 -0.0000
vn -0.0378 -0.2291 -0.9727
vn 0.8296 0.2074 -0.5185
vn 0.0374 0.2291 0.9727
vn 0.0371 0.2291 0.9727
vn 0.0394 0.2292 0.9726
vn -0.3637 0.9097 -0.2004
vn -0.0372 -0.2292 -0.9727
vn 0.5223 0.8281 -0.2038
vn -0.0382 -0.2289 -0.9727
vn 0.7250 0.6665 -0.1735
vn 0.8780 0.4572 -0.1413
vn 0.9716 0.2193 -0.0888
vn 0.9582 -0.2843 0.0303
vn 0.4771 -0.8594 0.1841
vn 0.4779 -0.8525 0.2117
vn 0.2336 -0.9484 0.2144
vn -0.0258 -0.9728 0.2301
vn -0.5219 -0.8256 0.2145
vn 0.4470 -0.0279 -0.8941
vn -0.8780 -0.4572 0.1413
vn -0.6861 0.7202 -0.1029
vn -0.8523 0.5155 -0.0888
vn -0.4782 0.8496 -0.2223
vn -0.4771 0.8593 -0.1841
s 0
f 7//1 9//1 1//1
f 64//1 46//1 42//1
f 21//2 22//2 23//2
f 63//3 54//3 61//3
f 62//4 21//4 1//4
f 1//5 3//5 2//5
f 64//6 3//6 65//6
f 65//7 62//7 64//7
f 30//8 15//8 29//8
f 9//9 29//9 14//9
f 8//10 28//10 9//10
f 23//11 8//11 6//11
f 24//12 6//12 4//12
f 24//13 10//13 25//13
f 26//14 10//14 13//14
f 26//15 11//15 27//15
f 12//16 27//16 11//16
f 32//17 12//17 18//17
f 32//18 20//18 33//18
f 33//19 38//19 51//19
f 52//20 38//20 40//20
f 41//21 53//21 52//21
f 54//22 42//22 61//22
f 58//23 42//23 46//23
f 59//24 46//24 47//24
f 60//25 47//25 45//25
f 57//26 44//26 43//26
f 56//27 43//27 37//27
f 55//28 37//28 36//28
f 49//29 35//29 34//29
f 48//29 34//29 17//29
f 30//30 17//30 16//30
f 64//31 39//31 38//31
f 64//1 38//1 20//1
f 44//1 45//1 62//1
f 43//1 44//1 62//1
f 2//1 64//1 20//1
f 2//1 20//1 19//1
f 37//1 43//1 62//1
f 36//1 37//1 62//1
f 2//1 19//1 18//1
f 18//32 12//32 11//32
f 2//1 18//1 11//1
f 36//1 62//1 1//1
f 35//31 36//31 1//31
f 2//1 11//1 13//1
f 2//1 13//1 10//1
f 34//33 35//33 1//33
f 17//34 34//34 1//34
f 1//1 2//1 10//1
f 1//34 10//34 4//34
f 16//1 17//1 1//1
f 14//35 15//35 16//35
f 14//1 16//1 1//1
f 1//1 4//1 6//1
f 1//31 6//31 8//31
f 5//31 14//31 1//31
f 9//34 5//34 1//34
f 1//33 8//33 7//33
f 40//1 39//1 64//1
f 64//1 62//1 45//1
f 64//36 45//36 47//36
f 41//1 40//1 64//1
f 42//1 41//1 64//1
f 64//1 47//1 46//1
f 52//3 53//3 65//3
f 63//3 59//3 60//3
f 57//37 56//37 55//37
f 63//3 60//3 57//3
f 51//2 52//2 65//2
f 33//3 51//3 65//3
f 63//3 57//3 55//3
f 63//3 55//3 50//3
f 33//3 65//3 3//3
f 32//3 33//3 3//3
f 21//3 63//3 50//3
f 21//3 50//3 49//3
f 31//3 32//3 3//3
f 27//3 31//3 3//3
f 21//3 49//3 48//3
f 21//2 48//2 30//2
f 26//3 27//3 3//3
f 25//3 26//3 3//3
f 21//3 30//3 29//3
f 21//2 29//2 28//2
f 25//3 3//3 21//3
f 24//38 25//38 21//38
f 21//3 28//3 22//3
f 23//39 24//39 21//39
f 58//3 59//3 63//3
f 63//3 65//3 53//3
f 63//40 53//40 54//40
f 61//3 58//3 63//3
f 62//4 63//4 21//4
f 1//5 21//5 3//5
f 64//41 2//41 3//41
f 65//7 63//7 62//7
f 30//8 16//8 15//8
f 14//42 5//42 9//42
f 9//43 28//43 29//43
f 29//8 15//8 14//8
f 9//44 7//44 8//44
f 8//45 22//45 28//45
f 23//46 22//46 8//46
f 24//47 23//47 6//47
f 24//13 4//13 10//13
f 26//48 25//48 10//48
f 26//15 13//15 11//15
f 12//16 31//16 27//16
f 18//49 19//49 32//49
f 32//50 31//50 12//50
f 32//51 19//51 20//51
f 33//52 20//52 38//52
f 40//53 41//53 52//53
f 52//20 51//20 38//20
f 38//54 39//54 40//54
f 41//21 54//21 53//21
f 54//22 41//22 42//22
f 58//55 61//55 42//55
f 59//24 58//24 46//24
f 45//25 44//25 60//25
f 60//25 59//25 47//25
f 57//26 60//26 44//26
f 56//27 57//27 43//27
f 35//56 50//56 55//56
f 55//57 56//57 37//57
f 36//58 35//58 55//58
f 49//59 50//59 35//59
f 48//29 49//29 34//29
f 30//30 48//30 17//30
