# Blender 5.2.0 LTS
# www.blender.org
o V11_LOWER_COMPONENT_056
v 84.230400 187.808685 55.616989
v 87.566132 191.639435 52.817314
v 90.110275 188.711029 51.841698
v 118.108070 198.788254 111.004410
v 120.715630 201.782776 108.815887
v 120.827171 199.205536 109.258553
v 121.079681 198.748047 102.474319
v 121.417862 202.610596 108.162323
v 119.870186 201.493042 107.480858
v 117.458984 198.127441 103.932137
vn 0.5145 0.1667 0.8411
vn -0.5145 -0.1667 -0.8411
vn 0.5751 0.6605 -0.4827
vn -0.6360 0.7321 0.2439
vn 0.1971 -0.9776 0.0733
vn 0.3418 -0.7868 0.5140
vn 0.8488 -0.0536 -0.5259
vn 0.1971 -0.9776 0.0732
vn 0.3418 -0.7868 0.5139
s 0
f 5//1 4//1 6//1
f 1//2 2//2 3//2
f 2//3 7//3 3//3
f 9//4 2//4 4//4
f 1//5 7//5 10//5
f 7//6 9//6 10//6
f 9//7 6//7 10//7
f 2//3 8//3 7//3
f 9//4 8//4 2//4
f 2//4 1//4 4//4
f 4//4 5//4 9//4
f 6//5 4//5 1//5
f 1//5 3//5 7//5
f 10//8 6//8 1//8
f 7//9 8//9 9//9
f 9//7 5//7 6//7
