# Blender 5.2.0 LTS
# www.blender.org
o V11_LOWER_COMPONENT_026
v 33.835613 23.198174 16.734406
v 37.644695 23.692596 15.617969
v 34.557980 27.127411 20.939081
v 36.761734 20.869574 25.729635
v 38.619183 24.575642 29.339561
v 42.708389 24.751987 23.604816
v 43.842976 23.310930 27.159542
vn -0.8976 0.0210 0.4403
vn 0.7780 -0.4553 -0.4329
vn 0.3292 0.9070 0.2626
vn 0.1107 -0.7214 0.6836
vn 0.2186 0.9581 0.1853
vn -0.2787 0.7251 -0.6297
vn 0.0474 -0.9631 -0.2648
vn -0.9527 -0.1225 0.2782
vn 0.3651 0.8643 -0.3461
vn 0.3576 -0.9071 -0.2220
s 0
f 3//1 4//1 5//1
f 7//2 2//2 6//2
f 5//3 7//3 6//3
f 5//4 4//4 7//4
f 6//5 3//5 5//5
f 3//6 2//6 1//6
f 2//7 4//7 1//7
f 3//8 1//8 4//8
f 6//9 2//9 3//9
f 2//10 7//10 4//10
