# Blender 5.2.0 LTS
# www.blender.org
o V11_LOWER_COMPONENT_040
v 55.123096 123.121552 27.694666
v 59.667080 122.466354 24.150246
v 60.861698 119.290718 26.268784
v 88.268127 153.820267 55.021259
v 83.724144 154.475464 58.565681
v 86.243004 152.793976 57.939812
v 88.782158 152.453827 55.932835
v 87.139465 148.097717 54.632122
vn -0.5450 -0.5974 -0.5882
vn 0.5450 0.5974 0.5883
vn 0.7834 -0.1130 -0.6111
vn -0.2987 0.7939 -0.5296
vn -0.1989 -0.5894 0.7829
vn 0.5276 -0.4195 0.7386
vn 0.5450 0.5975 0.5882
s 0
f 1//1 2//1 3//1
f 4//2 6//2 7//2
f 2//3 7//3 8//3
f 5//4 2//4 1//4
f 1//5 8//5 6//5
f 6//6 8//6 7//6
f 4//7 5//7 6//7
f 8//3 3//3 2//3
f 2//3 4//3 7//3
f 5//4 4//4 2//4
f 6//5 5//5 1//5
f 1//5 3//5 8//5
